# This file uses centimeters as units for non-parametric coordinates.

mtllib Bar.mtl
g default
v -1.032827 1.483964 5.115697
v 1.033837 1.483964 5.115697
v -1.032826 1.730990 5.115697
v 1.033838 1.730990 5.115697
v -1.032826 1.730990 4.975467
v 1.033838 1.730990 4.975467
v -1.032827 1.483964 4.975467
v 1.033837 1.483964 4.975467
vt 0.974268 0.416792
vt 0.974453 0.341519
vt 0.983450 0.341541
vt 0.983265 0.416814
vt 0.983463 0.336433
vt 0.988373 0.416826
vt 0.974255 0.421899
vt 0.969346 0.341506
vt 0.974466 0.336411
vt 0.969160 0.416779
vt 0.988558 0.341553
vt 0.983253 0.421921
vn 0.000000 0.000000 1.000000
vn 0.000000 0.000000 1.000000
vn 0.000000 0.000000 1.000000
vn 0.000000 0.000000 1.000000
vn 0.000000 1.000000 0.000000
vn 0.000000 1.000000 0.000000
vn 0.000000 1.000000 0.000000
vn 0.000000 1.000000 0.000000
vn 0.000000 -1.000000 0.000000
vn 0.000000 -1.000000 0.000000
vn 0.000000 -1.000000 0.000000
vn 0.000000 -1.000000 0.000000
vn 1.000000 -0.000004 0.000000
vn 1.000000 -0.000004 0.000000
vn 1.000000 -0.000004 0.000000
vn 1.000000 -0.000004 0.000000
vn -1.000000 0.000004 0.000000
vn -1.000000 0.000004 0.000000
vn -1.000000 0.000004 0.000000
vn -1.000000 0.000004 0.000000
s off
g pCube88 TabernaLP
usemtl initialShadingGroup
f 1/1/1 2/2/2 4/3/3 3/4/4
f 3/4/5 4/3/6 6/11/7 5/6/8
f 7/10/9 8/8/10 2/2/11 1/1/12
f 2/2/13 8/9/14 6/5/15 4/3/16
f 7/7/17 1/1/18 3/4/19 5/12/20
g default
v 0.745301 0.000000 5.077254
v 0.969434 0.000000 5.077254
v 0.745302 1.528901 5.077254
v 0.969434 1.528901 5.077254
v 0.745302 1.528901 4.975467
v 0.969434 1.528901 4.975467
v 0.745301 0.000000 4.975467
v 0.969434 0.000000 4.975467
vt 0.175836 0.374788
vt 0.184000 0.374733
vt 0.184371 0.430418
vt 0.176208 0.430473
vt 0.187707 0.374708
vt 0.188078 0.430394
vt 0.172129 0.374812
vt 0.172500 0.430498
vn 0.000000 0.000000 1.000000
vn 0.000000 0.000000 1.000000
vn 0.000000 0.000000 1.000000
vn 0.000000 0.000000 1.000000
vn 1.000000 -0.000000 0.000000
vn 1.000000 -0.000000 0.000000
vn 1.000000 -0.000000 0.000000
vn 1.000000 -0.000000 0.000000
vn -1.000000 0.000000 0.000000
vn -1.000000 0.000000 0.000000
vn -1.000000 0.000000 0.000000
vn -1.000000 0.000000 0.000000
s off
g TabernaLP pCube87
usemtl initialShadingGroup
f 9/13/21 10/14/22 12/15/23 11/16/24
f 10/14/25 16/17/26 14/18/27 12/15/28
f 15/19/29 9/13/30 11/16/31 13/20/32
g default
v -0.970947 0.000000 5.077254
v -0.746814 0.000000 5.077254
v -0.970947 1.528901 5.077254
v -0.746814 1.528901 5.077254
v -0.970947 1.528901 4.975467
v -0.746814 1.528901 4.975467
v -0.970947 0.000000 4.975467
v -0.746814 0.000000 4.975467
vt 0.083278 0.375610
vt 0.091441 0.375595
vt 0.091540 0.431282
vt 0.083377 0.431296
vt 0.095149 0.375589
vt 0.095248 0.431275
vt 0.079571 0.375616
vt 0.079669 0.431303
vn 0.000000 0.000000 1.000000
vn 0.000000 0.000000 1.000000
vn 0.000000 0.000000 1.000000
vn 0.000000 0.000000 1.000000
vn 1.000000 0.000000 0.000000
vn 1.000000 0.000000 0.000000
vn 1.000000 0.000000 0.000000
vn 1.000000 0.000000 0.000000
vn -1.000000 0.000000 0.000000
vn -1.000000 0.000000 0.000000
vn -1.000000 0.000000 0.000000
vn -1.000000 0.000000 0.000000
s off
g TabernaLP pCube86
usemtl initialShadingGroup
f 17/21/33 18/22/34 20/23/35 19/24/36
f 18/22/37 24/25/38 22/26/39 20/23/40
f 23/27/41 17/21/42 19/24/43 21/28/44
g default
v -4.505394 0.000000 7.689608
v -4.248495 0.000000 7.689608
v -4.505394 2.135089 7.689608
v -4.248495 2.135089 7.689608
v -4.505394 2.135089 7.429458
v -4.248495 2.135089 7.429458
v -4.505394 0.000000 7.429458
v -4.248495 0.000000 7.429458
vt 0.366839 0.272584
vt 0.376195 0.272710
vt 0.375148 0.350468
vt 0.365792 0.350342
vt 0.356318 0.350215
vt 0.346962 0.350089
vt 0.385669 0.272837
vt 0.357364 0.272456
vt 0.384623 0.350596
vt 0.348008 0.272330
vn 0.000000 0.000000 1.000000
vn 0.000000 0.000000 1.000000
vn 0.000000 0.000000 1.000000
vn 0.000000 0.000000 1.000000
vn 0.000000 0.000000 -1.000000
vn 0.000000 0.000000 -1.000000
vn 0.000000 0.000000 -1.000000
vn 0.000000 0.000000 -1.000000
vn 1.000000 0.000000 0.000000
vn 1.000000 0.000000 0.000000
vn 1.000000 0.000000 0.000000
vn 1.000000 0.000000 0.000000
vn -1.000000 0.000000 0.000000
vn -1.000000 0.000000 0.000000
vn -1.000000 0.000000 0.000000
vn -1.000000 0.000000 0.000000
s off
g TabernaLP pCube84
usemtl initialShadingGroup
f 25/29/45 26/30/46 28/31/47 27/32/48
f 29/33/49 30/34/50 32/38/51 31/36/52
f 26/30/53 32/35/54 30/37/55 28/31/56
f 31/36/57 25/29/58 27/32/59 29/33/60
g default
v -4.439379 1.100672 7.459531
v -4.439379 1.492145 7.455263
v -4.439379 2.124817 6.693923
v -4.439379 2.119755 6.986089
v -4.292573 2.124817 6.693922
v -4.292573 2.119755 6.986089
v -4.292573 1.100672 7.459531
v -4.292573 1.492145 7.455263
vt 0.206384 0.368666
vt 0.214870 0.380125
vt 0.215051 0.408665
vt 0.206680 0.415238
vt 0.201333 0.415272
vt 0.192879 0.408806
vt 0.220216 0.380091
vt 0.201037 0.368700
vt 0.220398 0.408631
vt 0.192698 0.380266
vn -1.000000 -0.000001 0.000000
vn -1.000000 -0.000001 0.000000
vn -1.000000 -0.000001 0.000000
vn -1.000000 -0.000001 0.000000
vn 1.000000 0.000000 0.000000
vn 1.000000 0.000000 0.000000
vn 1.000000 0.000000 0.000000
vn 1.000000 0.000000 0.000000
vn 0.000000 0.598747 0.800938
vn 0.000000 0.598747 0.800938
vn 0.000000 0.598747 0.800938
vn 0.000000 0.598747 0.800938
vn -0.000003 -0.598747 -0.800938
vn -0.000003 -0.598747 -0.800938
vn -0.000003 -0.598747 -0.800938
vn -0.000003 -0.598747 -0.800938
s off
g TabernaLP pCube79
usemtl initialShadingGroup
f 33/39/61 34/40/62 36/41/63 35/42/64
f 37/43/65 38/44/66 40/48/67 39/46/68
f 34/40/69 40/45/70 38/47/71 36/41/72
f 39/46/73 33/39/74 35/42/75 37/43/76
g default
v -0.804014 0.976662 4.929370
v -0.705044 0.976662 4.929370
v -0.804014 1.065527 4.929370
v -0.705044 1.065527 4.929370
v -0.804014 1.065527 4.905237
v -0.705044 1.065527 4.905237
v -0.804014 0.976662 4.905237
v -0.705044 0.976662 4.905237
vt 0.002443 0.011540
vt 0.006048 0.011521
vt 0.006065 0.014757
vt 0.002461 0.014777
vt 0.006070 0.015636
vt 0.002466 0.015656
vt 0.002438 0.010661
vt 0.006043 0.010642
vn 0.000000 0.000000 1.000000
vn 0.000000 0.000000 1.000000
vn 0.000000 0.000000 1.000000
vn 0.000000 0.000000 1.000000
vn 0.000000 1.000000 0.000000
vn 0.000000 1.000000 0.000000
vn 0.000000 1.000000 0.000000
vn 0.000000 1.000000 0.000000
vn 0.000000 -1.000000 0.000000
vn 0.000000 -1.000000 0.000000
vn 0.000000 -1.000000 0.000000
vn 0.000000 -1.000000 0.000000
s off
g TabernaLP pCube70
usemtl initialShadingGroup
f 41/49/77 42/50/78 44/51/79 43/52/80
f 43/52/81 44/51/82 46/53/83 45/54/84
f 47/55/85 48/56/86 42/50/87 41/49/88
g default
v -2.488389 3.437584 3.139442
v 2.488389 3.437584 3.139442
v -2.488389 6.106140 3.139442
v 2.488389 6.106140 3.139442
v -2.488389 6.106140 -4.134601
v 2.488389 6.106140 -4.134601
v -2.488389 3.437584 -4.134601
v 2.488389 3.437584 -4.134601
v 0.000000 4.686164 3.139442
v 0.000000 7.354721 3.139442
v 0.000000 7.354721 -4.134601
v 0.000000 4.686164 -4.134601
v 0.000000 7.354721 3.973374
v 0.000000 7.626951 3.973374
v 0.000000 7.354721 -4.968533
v 0.000000 7.626951 -4.968533
v -3.190157 5.774177 3.973374
v -3.190157 6.046407 3.973374
v -3.190156 6.046408 -4.968534
v -3.190156 5.774177 -4.968533
v 3.190157 6.046407 3.973374
v 3.190157 5.774177 3.973374
v 3.190157 5.774177 -4.968533
v 3.190157 6.046407 -4.968533
v -2.457361 6.409468 -2.013146
v -2.457358 6.409465 -3.024514
v -3.190157 6.046407 -2.013146
v -3.190157 6.046407 -3.024512
v -2.488389 6.106140 -3.024505
v -3.190157 5.774177 -3.024512
v -3.190158 5.774177 -2.013145
v -2.488390 6.106140 -2.013141
vt 0.807362 0.731433
vt 0.185724 0.277522
vt 0.932857 0.140323
vt 0.932986 0.038921
vt 0.542363 0.828465
vt 0.945956 0.820503
vt 0.185878 0.177167
vt 0.276729 0.132127
vt 0.276263 0.231859
vt 0.889740 0.828966
vt 0.948463 0.921875
vt 0.910092 0.509645
vt 0.582795 0.828490
vt 0.346962 0.272308
vt 0.079601 0.261249
vt 0.429236 0.272652
vt 0.280201 0.431134
vt 0.672645 0.273738
vt 0.902483 0.140285
vt 0.902313 0.269957
vt 0.891604 0.319374
vt 0.269343 0.361165
vt 0.278318 0.332763
vt 0.977602 0.336412
vt 0.882523 0.805024
vt 0.673215 0.144067
vt 0.091769 0.349506
vt 0.081855 0.349609
vt 0.940868 0.753182
vt 0.259545 0.362686
vt 0.619625 0.839618
vt 0.094213 0.375042
vt 0.455042 0.172896
vt 0.105272 0.376056
vt 0.912623 0.971230
vt 0.619632 0.828512
vt 0.418206 0.172734
vt 0.582788 0.839595
vt 0.459807 0.342498
vt 0.940899 0.971226
vt 0.973121 0.690119
vt 0.701769 0.424739
vt 0.270403 0.432654
vt 0.276262 0.229321
vt 0.943450 0.719131
vt 0.458488 0.302087
vt 0.418336 0.142948
vt 0.710663 0.429122
vt 0.347531 0.142637
vt 0.455173 0.143110
vt 0.624637 0.925714
vt 0.276463 0.329054
vt 0.932728 0.241726
vt 0.882754 0.314903
vt 0.984217 0.010641
vt 0.881744 0.479338
vt 0.095197 0.329427
vt 0.807302 0.828629
vt 0.912597 0.783560
vt 0.079571 0.131577
vt 0.700358 0.424711
vt 0.902642 0.010612
vt 0.094997 0.228449
vt 0.889576 0.926161
vt 0.910726 0.774583
vt 0.987517 0.336311
vt 0.078120 0.131585
vt 0.979532 0.949385
vt 0.668968 0.014367
vt 0.069286 0.136088
vt 0.710946 0.558794
vt 0.070767 0.265752
vt 0.667485 0.144031
vt 0.702052 0.554412
vt 0.976321 0.819752
vt 0.343303 0.010642
vt 0.974302 0.010741
vt 0.700699 0.554382
vt 0.881744 0.444571
vt 0.341820 0.140306
vt 0.890594 0.449042
vt 0.691826 0.558808
vt 0.691485 0.429136
vt 0.089485 0.131473
vt 0.185410 0.274361
vt 0.185924 0.374717
vt 0.095465 0.131255
vt 0.542423 0.731269
vt 0.624801 0.828519
vt 0.094997 0.232232
vt 0.267574 0.335574
vt 0.431547 0.343420
vn 0.000000 0.000000 1.000000
vn 0.000000 0.000000 1.000000
vn 0.000000 0.000000 1.000000
vn 0.000000 0.000000 1.000000
vn 0.000000 0.000000 -1.000000
vn 0.000000 0.000000 -1.000000
vn 0.000000 0.000000 -1.000000
vn 0.000000 0.000000 -1.000000
vn 1.000000 0.000000 0.000000
vn 1.000000 0.000000 0.000000
vn 1.000000 0.000000 0.000000
vn 1.000000 0.000000 0.000000
vn -1.000000 -0.000000 -0.000000
vn -1.000000 -0.000000 -0.000000
vn -1.000000 0.000000 0.000000
vn 0.000000 0.000000 1.000000
vn 0.000000 0.000000 1.000000
vn 0.000000 0.000000 1.000000
vn 0.000000 0.000000 1.000000
vn 0.000000 0.000000 -1.000000
vn 0.000000 0.000000 -1.000000
vn 0.000000 0.000000 -1.000000
vn 0.000000 0.000000 -1.000000
vn 0.000003 -0.000004 -1.000000
vn 0.000003 -0.000004 -1.000000
vn 0.000003 -0.000004 -1.000000
vn 0.000003 -0.000004 -1.000000
vn 0.000000 0.000000 1.000000
vn 0.000000 0.000000 1.000000
vn 0.000000 0.000000 1.000000
vn 0.000000 0.000000 1.000000
vn -0.443944 0.896055 0.000001
vn -0.443944 0.896054 0.000000
vn -0.443944 0.896054 -0.000000
vn -0.443944 0.896055 0.000001
vn -0.445913 -0.895026 0.009480
vn -0.445913 -0.895026 0.009480
vn -0.445913 -0.895026 0.009480
vn -0.445913 -0.895026 0.009480
vn 1.000000 0.000000 0.000000
vn 1.000000 0.000000 0.000000
vn 1.000000 0.000000 0.000000
vn 1.000000 0.000000 0.000000
vn 0.445914 -0.895026 -0.009480
vn 0.445914 -0.895026 -0.009480
vn 0.445913 -0.895026 -0.009480
vn 0.445913 -0.895026 -0.009480
vn -1.000000 0.000001 0.000000
vn -1.000000 0.000001 0.000000
vn -1.000000 0.000001 0.000000
vn -1.000000 0.000001 0.000000
vn 0.443945 0.896054 0.000000
vn 0.443945 0.896054 0.000000
vn 0.443945 0.896054 0.000000
vn 0.443945 0.896054 0.000000
vn -0.000000 0.000000 1.000000
vn -0.000000 0.000000 1.000000
vn -0.000000 0.000000 1.000000
vn -0.000000 0.000000 1.000000
vn 0.000001 0.000000 -1.000000
vn 0.000001 0.000000 -1.000000
vn 0.000001 0.000000 -1.000000
vn 0.000001 0.000000 -1.000000
vn 0.427610 -0.903964 0.000001
vn 0.427610 -0.903964 0.000001
vn 0.427610 -0.903964 0.000001
vn 0.427610 -0.903964 0.000001
vn -0.445913 -0.895026 -0.009480
vn -0.445913 -0.895026 -0.009480
vn -0.445913 -0.895026 -0.009480
vn -0.445913 -0.895026 -0.009480
vn 0.445913 -0.895026 0.009480
vn 0.445913 -0.895026 0.009480
vn 0.445913 -0.895026 0.009480
vn 0.445913 -0.895026 0.009480
vn -0.427610 -0.903964 0.000000
vn -0.427609 -0.903964 0.000000
vn -0.427609 -0.903964 0.000000
vn -0.427610 -0.903964 0.000000
vn -0.443945 0.896054 -0.000000
vn -0.443945 0.896054 0.000000
vn -0.443945 0.896054 0.000000
vn -0.443945 0.896054 0.000000
vn -1.000000 -0.000000 0.000000
vn -1.000000 0.000000 0.000000
vn -1.000000 -0.000000 -0.000000
vn 0.427610 -0.903964 -0.000000
vn 0.427609 -0.903964 -0.000000
vn 0.427609 -0.903964 -0.000000
vn 0.427609 -0.903964 -0.000000
vn -1.000000 -0.000001 -0.000001
vn -1.000000 -0.000001 -0.000001
vn -1.000000 -0.000001 -0.000001
vn -1.000000 -0.000001 -0.000001
vn -0.000012 0.000016 1.000000
vn -0.000012 0.000016 1.000000
vn -0.000012 0.000016 1.000000
vn -0.000012 0.000016 1.000000
vn -0.994808 0.101768 -0.000002
vn -0.994808 0.101768 -0.000002
vn -0.994808 0.101768 -0.000002
vn -0.994808 0.101768 -0.000002
vn 0.000008 -0.000010 -1.000000
vn 0.000008 -0.000010 -1.000000
vn 0.000008 -0.000010 -1.000000
vn 0.000008 -0.000010 -1.000000
s off
g TabernaLP pCube66
usemtl initialShadingGroup
f 49/146/89 57/58/90 58/142/91 51/113/92
f 53/100/93 59/141/94 60/63/95 55/64/96
f 50/145/97 56/66/98 54/120/99 52/107/100
s 1
f 55/144/101 77/69/102 53/61/103
s off
f 57/58/104 50/65/105 52/108/106 58/142/107
f 60/63/108 59/141/109 54/119/110 56/143/111
f 64/127/112 63/130/113 68/98/114 67/104/115
f 62/137/116 61/135/117 70/110/118 69/77/119
s 2
f 76/103/120 74/93/121 64/70/122 67/105/123
s off
f 70/76/124 61/75/125 58/59/126 52/109/127
f 72/80/128 69/133/129 70/111/130 71/122/131
f 53/101/132 68/97/133 63/131/134 59/62/135
f 66/140/136 75/83/137 79/84/138 65/116/139
f 72/125/140 64/129/141 62/136/142 69/132/143
f 62/138/144 66/139/145 65/117/146 61/134/147
f 64/128/148 72/126/149 71/123/150 63/71/151
f 78/148/152 68/72/153 53/102/154 77/95/155
f 71/124/156 54/67/157 59/62/158 63/131/159
f 65/118/160 51/60/161 58/59/162 61/75/163
f 70/112/164 52/68/165 54/121/166 71/81/167
s 2
f 64/70/122 74/93/121 73/89/168 62/74/169
f 66/82/170 62/74/169 73/89/168 75/106/171
s 1
f 49/57/172 51/114/173 80/92/174
s off
f 65/85/175 79/96/176 80/91/177 51/115/178
s 1
f 55/144/101 49/57/172 80/92/174 77/69/102
s off
f 78/86/179 76/78/180 67/73/181 68/99/182
f 74/79/183 76/78/184 78/86/185 77/147/186
f 73/87/187 74/94/188 77/69/189 80/92/190
f 75/83/191 73/90/192 80/88/193 79/84/194
g default
v -0.804014 0.511424 4.929369
v -0.705045 0.511424 4.929369
v -0.804014 0.600290 4.929369
v -0.705045 0.600290 4.929369
v -0.804014 0.600290 4.905237
v -0.705045 0.600290 4.905237
v -0.804014 0.511424 4.905237
v -0.705045 0.511424 4.905237
vt 0.007585 0.011538
vt 0.011190 0.011521
vt 0.011205 0.014757
vt 0.007600 0.014774
vt 0.011209 0.015636
vt 0.007604 0.015653
vt 0.007581 0.010659
vt 0.011185 0.010642
vn 0.000000 0.000000 1.000000
vn 0.000000 0.000000 1.000000
vn 0.000000 0.000000 1.000000
vn 0.000000 0.000000 1.000000
vn 0.000000 1.000000 0.000000
vn 0.000000 1.000000 0.000000
vn 0.000000 1.000000 0.000000
vn 0.000000 1.000000 0.000000
vn 0.000000 -1.000000 0.000000
vn 0.000000 -1.000000 0.000000
vn 0.000000 -1.000000 0.000000
vn 0.000000 -1.000000 0.000000
s off
g TabernaLP pCube71
usemtl initialShadingGroup
f 81/149/195 82/150/196 84/151/197 83/152/198
f 83/152/199 84/151/200 86/153/201 85/154/202
f 87/155/203 88/156/204 82/150/205 81/149/206
g default
v -3.437636 2.930991 -2.036517
v -2.473068 3.422273 -2.036517
v -3.437636 8.203742 -2.036517
v -2.473068 8.203742 -2.036517
v -3.437636 8.203742 -3.001085
v -2.473068 8.203742 -3.001085
v -3.437636 2.930991 -3.001085
v -2.473068 3.422273 -3.001085
v -3.437636 8.701962 -2.036517
v -2.473068 8.701962 -2.036517
v -2.473068 8.701962 -3.001085
v -3.437636 8.701962 -3.001085
v -3.560932 8.203742 -1.913221
v -2.349772 8.203742 -1.913221
v -2.349772 8.701962 -1.913221
v -3.560932 8.701962 -1.913221
v -2.349772 8.203742 -3.124381
v -2.349772 8.701962 -3.124381
v -3.560932 8.203742 -3.124381
v -3.560932 8.701962 -3.124381
v -3.365674 8.192536 -2.108479
v -2.545030 8.192536 -2.108479
v -2.545030 8.192536 -2.929123
v -3.365674 8.192536 -2.929123
vt 0.746719 0.010714
vt 0.781814 0.028680
vt 0.499880 0.277493
vt 0.499730 0.312625
vt 0.464599 0.312475
vt 0.464749 0.277343
vt 0.816945 0.028753
vt 0.711587 0.010642
vt 0.933806 0.098866
vt 0.504390 0.273022
vt 0.952272 0.054886
vt 0.820255 0.098012
vt 0.460277 0.272833
vt 0.951311 0.187222
vt 0.460089 0.316946
vt 0.951632 0.143110
vt 0.841439 0.713980
vt 0.827700 0.681646
vt 0.845778 0.748843
vt 0.840385 0.783559
vt 0.823167 0.718896
vt 0.811479 0.691386
vt 0.826859 0.748557
vt 0.822270 0.778092
vt 0.824723 0.102525
vt 0.825673 0.815463
vt 0.809754 0.805236
vt 0.951952 0.098998
vt 0.820038 0.142125
vt 0.504202 0.317135
vt 0.933486 0.142978
vt 0.952592 0.010773
vt 0.864151 0.142341
vt 0.934447 0.010641
vt 0.933165 0.187091
vt 0.864368 0.098228
vt 0.934126 0.054754
vt 0.824551 0.137656
vt 0.859683 0.137829
vt 0.859855 0.102697
vt 0.676058 0.202616
vt 0.816586 0.202906
vt 0.676418 0.028463
vt 0.781454 0.202833
vt 0.746322 0.202761
vt 0.711190 0.202688
vn 0.000000 0.000000 1.000000
vn 0.000000 0.000000 1.000000
vn 0.000000 0.000000 1.000000
vn 0.000000 0.000000 1.000000
vn -0.000000 0.000000 -1.000000
vn -0.000000 0.000000 -1.000000
vn -0.000000 0.000000 -1.000000
vn -0.000000 0.000000 -1.000000
vn 1.000000 0.000000 0.000000
vn 1.000000 0.000000 0.000000
vn 1.000000 0.000000 0.000000
vn 1.000000 0.000000 0.000000
vn -1.000000 0.000000 0.000000
vn -1.000000 0.000000 0.000000
vn -1.000000 0.000000 0.000000
vn -1.000000 0.000000 0.000000
vn 0.000000 0.000000 1.000000
vn 0.000000 0.000000 1.000000
vn 0.000000 0.000000 1.000000
vn 0.000000 0.000000 1.000000
vn 1.000000 0.000000 0.000000
vn 1.000000 0.000000 0.000000
vn 1.000000 0.000000 0.000000
vn 1.000000 0.000000 0.000000
vn 0.000000 0.000000 -1.000000
vn 0.000000 0.000000 -1.000000
vn 0.000000 0.000000 -1.000000
vn 0.000000 0.000000 -1.000000
vn -1.000000 0.000000 0.000000
vn -1.000000 0.000000 0.000000
vn -1.000000 0.000000 0.000000
vn -1.000000 0.000000 0.000000
vn 0.000000 -1.000000 0.000002
vn 0.000000 -1.000000 0.000002
vn 0.000000 -1.000000 0.000002
vn 0.000000 -1.000000 0.000002
vn 0.000000 1.000000 -0.000005
vn 0.000000 1.000000 -0.000005
vn 0.000000 1.000000 -0.000005
vn 0.000000 1.000000 -0.000005
vn 0.000000 -1.000000 0.000000
vn 0.000000 -1.000000 0.000000
vn 0.000000 -1.000000 0.000000
vn 0.000000 -1.000000 0.000000
vn 0.000000 1.000000 0.000000
vn 0.000000 1.000000 0.000000
vn 0.000000 1.000000 0.000000
vn 0.000000 1.000000 0.000000
vn 0.000000 -1.000000 -0.000002
vn 0.000000 -1.000000 -0.000002
vn 0.000000 -1.000000 -0.000002
vn 0.000000 -1.000000 -0.000002
vn 0.000000 1.000000 0.000005
vn 0.000000 1.000000 0.000005
vn 0.000000 1.000000 0.000005
vn 0.000000 1.000000 0.000005
vn 0.000000 -1.000000 0.000000
vn 0.000000 -1.000000 0.000000
vn 0.000000 -1.000000 0.000000
vn 0.000000 -1.000000 0.000000
vn 0.000000 1.000000 0.000000
vn 0.000000 1.000000 0.000000
vn 0.000000 1.000000 0.000000
vn 0.000000 1.000000 0.000000
vn 0.000000 0.139872 -0.990170
vn 0.000000 0.139872 -0.990170
vn 0.000000 0.139872 -0.990170
vn 0.000000 0.139872 -0.990170
vn -0.990170 0.139872 0.000000
vn -0.990170 0.139872 0.000000
vn -0.990170 0.139872 0.000000
vn -0.990170 0.139872 0.000000
vn 0.000000 0.139873 0.990170
vn 0.000000 0.139873 0.990170
vn 0.000000 0.139873 0.990170
vn 0.000000 0.139873 0.990170
vn 0.990170 0.139872 0.000000
vn 0.990170 0.139872 0.000000
vn 0.990170 0.139872 0.000000
vn 0.990170 0.139872 0.000000
s off
g TabernaLP pCube67
usemtl initialShadingGroup
f 89/157/207 90/158/208 92/200/209 91/201/210
f 93/202/211 94/197/212 96/199/213 95/164/214
f 90/158/215 96/163/216 94/198/217 92/200/218
f 95/164/219 89/157/220 91/201/221 93/202/222
f 101/165/223 102/193/224 103/167/225 104/184/226
f 102/193/227 105/190/228 106/188/229 103/167/230
f 105/191/231 107/187/232 108/172/233 106/170/234
f 107/187/235 101/165/236 104/184/237 108/172/238
f 91/160/239 92/159/240 102/166/241 101/186/242
f 98/196/243 97/181/244 104/168/245 103/192/246
f 92/159/247 94/162/248 105/169/249 102/166/250
f 99/195/251 98/196/252 103/192/253 106/189/254
f 94/162/255 93/161/256 107/171/257 105/169/258
f 100/194/259 99/195/260 106/189/261 108/185/262
f 93/161/263 91/160/264 101/186/265 107/171/266
f 97/181/267 100/194/268 108/185/269 104/168/270
f 97/174/271 98/173/272 110/177/273 109/178/274
f 98/173/275 99/175/276 111/179/277 110/177/278
f 99/175/279 100/176/280 112/180/281 111/179/282
f 100/176/283 97/182/284 109/183/285 112/180/286
g default
v -0.277033 7.504750 4.282711
v -0.110830 7.670953 4.282711
v -0.277033 7.504750 -5.249676
v -0.110830 7.670953 -5.249676
v 0.110830 7.670953 4.282711
v 0.277033 7.504750 4.282711
v 0.277033 7.504750 -5.249676
v 0.110830 7.670953 -5.249676
v -0.110830 7.116888 4.282711
v -0.277033 7.283091 4.282711
v -0.277033 7.283091 -5.249676
v -0.110830 7.116888 -5.249676
v 0.277033 7.283091 4.282711
v 0.110830 7.116888 4.282711
v 0.110830 7.116888 -5.249676
v 0.277033 7.283091 -5.249676
v -0.110830 7.116888 -3.996770
v 0.110830 7.116888 -3.996770
v 0.277033 7.283091 -3.996770
v -0.277033 7.283091 -3.996770
v -0.110830 7.116888 3.000358
v 0.110830 7.116888 3.000357
v 0.277033 7.283091 3.000358
v -0.277033 7.283091 3.000357
vt 0.703932 0.378046
vt 0.703831 0.424752
vt 0.695758 0.424735
vt 0.695859 0.378029
vt 0.182369 0.151216
vt 0.687197 0.424716
vt 0.679224 0.377993
vt 0.645855 0.424627
vt 0.645956 0.377921
vt 0.654029 0.377938
vt 0.419843 0.156961
vt 0.686548 0.725203
vt 0.695109 0.725221
vt 0.703182 0.725239
vt 0.670663 0.377974
vt 0.662590 0.377957
vt 0.653279 0.725131
vt 0.661840 0.725149
vt 0.669913 0.725167
vt 0.678474 0.725185
vt 0.703281 0.679605
vt 0.695207 0.679587
vt 0.686646 0.679569
vt 0.711842 0.679623
vt 0.712392 0.424771
vt 0.162209 0.150306
vt 0.712493 0.378065
vt 0.645206 0.725113
vt 0.711743 0.725257
vt 0.645304 0.679480
vt 0.439900 0.154733
vt 0.434551 0.161418
vt 0.176594 0.144895
vt 0.687298 0.378010
vt 0.182005 0.159281
vt 0.426527 0.162309
vt 0.168529 0.144531
vt 0.161845 0.158371
vt 0.432324 0.141361
vt 0.439009 0.146709
vt 0.175684 0.165055
vt 0.424300 0.142252
vt 0.418952 0.148937
vt 0.167619 0.164691
vn -0.393872 -0.919165 0.000000
vn -0.393872 -0.919165 0.000000
vn 0.393872 -0.919165 0.000000
vn 0.393872 -0.919165 0.000000
vn 0.857516 -0.514458 0.000000
vn 0.998339 -0.057618 0.000000
vn 0.769771 0.638321 0.000000
vn -0.998339 -0.057618 0.000000
vn -0.857516 -0.514458 0.000000
vn -0.769771 0.638321 0.000000
vn 0.000000 0.000000 -1.000000
vn 0.000000 0.000000 -1.000000
vn 0.000000 0.000000 -1.000000
vn 0.000000 0.000000 -1.000000
vn 0.000000 0.000000 1.000000
vn 0.000000 0.000000 1.000000
vn 0.000000 0.000000 1.000000
vn 0.000000 0.000000 1.000000
vn 0.000000 0.000000 1.000000
vn 0.000000 0.000000 1.000000
vn 0.000000 0.000000 1.000000
vn 0.000000 0.000000 1.000000
vn 0.000000 0.000000 1.000000
vn 0.000000 0.000000 1.000000
vn 0.000000 0.000000 1.000000
vn 0.000000 0.000000 1.000000
vn 0.000000 0.000000 -1.000000
vn 0.000000 0.000000 -1.000000
vn 0.000000 0.000000 -1.000000
vn 0.000000 0.000000 -1.000000
vn 0.000000 0.000000 -1.000000
vn 0.000000 0.000000 -1.000000
vn 0.000000 0.000000 -1.000000
vn 0.000000 0.000000 -1.000000
vn -0.393872 -0.919165 0.000000
vn -0.393872 -0.919165 0.000000
vn 0.393872 -0.919165 0.000000
vn 0.393872 -0.919165 0.000000
vn 0.998406 -0.056444 0.000000
vn 0.857516 -0.514458 0.000000
vn 0.769991 0.638055 0.000000
vn -0.857516 -0.514458 0.000000
vn -0.998406 -0.056444 0.000000
vn -0.769991 0.638055 0.000000
vn 0.393872 0.919165 0.000000
vn 0.393872 0.919165 0.000000
vn -0.393872 0.919165 0.000000
vn -0.393872 0.919165 0.000000
s 1
g TabernaLP pCube73
usemtl initialShadingGroup
f 121/203/287 133/204/288 134/205/289 126/206/290
f 125/236/291 135/208/292 118/209/293
f 136/210/294 122/211/295 113/212/296
s off
f 123/213/297 128/233/298 127/234/299 124/238/300
f 113/240/301 118/237/302 117/243/303 114/246/304
s 1
f 121/203/287 122/229/295 136/227/294 133/204/288
f 125/236/291 126/206/290 134/205/289 135/208/292
s off
f 122/228/305 125/207/306 118/237/307 113/240/308
f 122/228/309 121/239/310 126/235/311 125/207/312
f 115/245/313 116/244/314 120/241/315 119/242/316
f 115/245/317 119/242/318 128/233/319 123/213/320
s 1
f 129/223/321 124/216/322 127/215/323 130/224/324
f 131/225/325 130/224/324 127/215/323 128/214/326
f 119/222/327 131/225/325 128/214/326
f 123/230/328 132/232/329 115/219/330
f 129/223/321 132/226/329 123/231/328 124/216/322
f 118/209/293 135/208/292 131/225/325 119/222/327
f 117/217/331 118/209/293 119/222/327 120/221/332
f 116/220/333 114/218/334 117/217/331 120/221/332
f 113/212/296 114/218/334 116/220/333 115/219/330
f 132/232/329 136/210/294 113/212/296 115/219/330
g default
v -3.172647 0.000000 4.999599
v 3.172647 0.000000 4.999599
v -3.172647 2.175476 4.999599
v 3.172647 2.175476 4.999599
v -3.172647 2.175476 -4.999599
v 3.172647 2.175476 -4.999599
v -3.172647 0.000000 -4.999599
v 3.172647 0.000000 -4.999599
v -0.775907 0.000000 4.999599
v 0.775904 0.000000 4.999599
v 0.775904 1.500000 4.999599
v -0.775907 1.500000 4.999599
v -0.775907 0.000000 4.775117
v 0.775904 0.000000 4.775117
v 0.775904 1.500000 4.775117
v -0.775907 1.500000 4.775117
v -1.522869 0.000000 3.834039
v 1.522866 0.000000 3.834039
v 1.522866 1.500000 3.834039
v -1.522869 1.500000 3.834039
v 1.522866 0.000000 4.775117
v 1.522866 1.500000 4.775117
v -1.522869 0.000000 4.775117
v -1.522869 1.500000 4.775117
vt 0.540643 0.273166
vt 0.346962 0.407914
vt 0.542363 0.351554
vt 0.401714 0.518789
vt 0.796432 0.731377
vt 0.642168 0.655788
vt 0.799470 0.317476
vt 0.562931 0.424677
vt 0.821451 0.010641
vt 0.878706 0.681672
vt 0.717196 0.367181
vt 0.899273 0.242233
vt 0.077463 0.320383
vt 0.077462 0.265749
vt 0.077463 0.376904
vt 0.820572 0.154455
vt 0.435901 0.435025
vt 0.069286 0.265749
vt 0.069286 0.376904
vt 0.069286 0.431538
vt 0.576724 0.296973
vt 0.576639 0.351607
vt 0.435990 0.518752
vt 0.506368 0.273455
vt 0.506829 0.328087
vt 0.541104 0.327798
vt 0.435872 0.407819
vt 0.401595 0.407856
vt 0.347080 0.518847
vt 0.542448 0.296920
vt 0.435961 0.491546
vt 0.069286 0.320383
vt 0.077463 0.431538
vt 0.875205 0.154789
vt 0.875550 0.098269
vt 0.820918 0.097935
vt 0.878706 0.317476
vt 0.562931 0.655788
vt 0.642168 0.424677
vt 0.717196 0.731377
vt 0.799470 0.681672
vt 0.900686 0.011126
vt 0.820038 0.241749
vt 0.796432 0.367181
vn 0.000000 0.000000 1.000000
vn 0.000000 0.000000 1.000000
vn 0.000000 0.000000 1.000000
vn 0.000000 0.000000 1.000000
vn 0.000000 0.000000 -1.000000
vn 0.000000 0.000000 -1.000000
vn 0.000000 0.000000 -1.000000
vn 0.000000 0.000000 -1.000000
vn 1.000000 0.000000 0.000000
vn 1.000000 0.000000 0.000000
vn 1.000000 0.000000 0.000000
vn 1.000000 0.000000 0.000000
vn -1.000000 0.000000 0.000000
vn -1.000000 0.000000 0.000000
vn -1.000000 0.000000 0.000000
vn -1.000000 0.000000 0.000000
vn 0.000000 0.000000 1.000000
vn 0.000000 0.000000 1.000000
vn 0.000000 0.000000 1.000000
vn 0.000000 0.000000 1.000000
vn 0.000000 0.000000 1.000000
vn 0.000000 0.000000 1.000000
vn 0.000000 0.000000 1.000000
vn 0.000000 0.000000 1.000000
vn 0.000000 0.000000 1.000000
vn 0.000000 0.000000 1.000000
vn 0.000000 0.000000 1.000000
vn 0.000000 0.000000 1.000000
vn -1.000000 0.000000 0.000000
vn -1.000000 0.000000 0.000000
vn -1.000000 0.000000 0.000000
vn -1.000000 0.000000 0.000000
vn 0.000000 -1.000000 0.000000
vn 0.000000 -1.000000 0.000000
vn 0.000000 -1.000000 0.000000
vn 0.000000 -1.000000 0.000000
vn 1.000000 0.000000 0.000000
vn 1.000000 0.000000 0.000000
vn 1.000000 0.000000 0.000000
vn 1.000000 0.000000 0.000000
vn -1.000000 0.000000 0.000000
vn -1.000000 0.000000 0.000000
vn -1.000000 0.000000 0.000000
vn -1.000000 0.000000 0.000000
vn 0.000000 -1.000000 0.000000
vn 0.000000 -1.000000 0.000000
vn 0.000000 -1.000000 0.000000
vn 0.000000 -1.000000 0.000000
vn 1.000000 0.000000 0.000000
vn 1.000000 0.000000 0.000000
vn 1.000000 0.000000 0.000000
vn 1.000000 0.000000 0.000000
vn 0.000000 -1.000000 0.000000
vn 0.000000 -1.000000 0.000000
vn 0.000000 -1.000000 0.000000
vn 0.000000 -1.000000 0.000000
vn 0.000000 -1.000000 0.000000
vn 0.000000 -1.000000 0.000000
s off
g TabernaLP pCube64
usemtl initialShadingGroup
f 153/275/335 154/248/336 155/274/337 156/250/338
f 141/285/339 142/252/340 144/284/341 143/254/342
f 138/287/343 144/253/344 142/283/345 140/256/346
f 143/286/347 137/257/348 139/290/349 141/251/350
f 138/255/351 140/288/352 147/281/353 146/282/354
f 140/288/355 139/258/356 148/280/357 147/281/358
f 139/258/359 137/289/360 145/262/361 148/280/362
f 146/260/363 147/259/364 151/278/365 150/264/366
f 147/259/367 148/261/368 152/265/369 151/278/370
f 148/261/371 145/279/372 149/266/373 152/265/374
f 157/267/375 158/268/376 155/249/377 154/276/378
f 151/263/379 152/277/380 156/250/381 155/274/382
f 160/271/383 159/270/384 153/247/385 156/272/386
f 151/263/387 155/274/388 158/273/389
f 156/250/390 152/277/391 160/269/392
g default
v -4.621931 2.363498 8.364641
v 4.621931 2.363498 8.364641
v -4.621931 2.363498 -6.428591
v 4.621931 2.363498 -6.428591
v -4.621931 2.101195 -5.919298
v 4.621931 2.101195 -5.919298
v 4.621931 2.101195 7.866416
v -4.621931 2.101195 7.866416
v 0.164324 4.695421 7.866416
v -0.164324 4.695421 7.866416
v -0.164324 4.695421 -5.919298
v 0.164324 4.695421 -5.919298
v 0.193131 4.883346 8.364641
v 0.164324 4.695421 8.364641
v 4.621931 2.101195 8.364641
v -0.193131 4.883346 8.364641
v -0.164324 4.695421 8.364641
v -4.621931 2.101195 8.364641
v -0.193131 4.883346 -6.428591
v 0.193131 4.883346 -6.428591
v 0.164324 4.695421 -6.428591
v -0.164324 4.695421 -6.428591
v 4.621931 2.101195 -6.428591
v -4.621931 2.101195 -6.428591
v 3.056886 2.101195 -4.701056
v 3.056886 2.101195 4.659116
v -3.056885 2.101195 4.659116
v -3.056885 2.101195 -4.701056
v -2.362108 3.649266 -3.797797
v -2.362108 3.649266 2.908676
v -0.193131 4.883346 2.908676
v -0.193131 4.883346 -3.797797
v 0.193131 4.883346 2.908676
v 0.193131 4.883346 -3.797797
v 2.362108 3.649266 -3.797797
v 2.362108 3.649266 2.908676
vt 0.339082 0.010641
vt 0.002438 0.015895
vt 0.170444 0.986967
vt 0.707138 0.367446
vt 0.125212 0.800114
vt 0.989091 0.665849
vt 0.010274 0.517944
vt 0.346918 0.512690
vt 0.541826 0.519622
vt 0.003022 0.517929
vt 0.541826 0.705229
vt 0.003022 0.703536
vt 0.002438 0.703518
vt 0.188588 0.986633
vt 0.953348 0.214514
vt 0.142134 0.989642
vt 0.144281 0.799159
vt 0.148519 0.986961
vt 0.002438 0.889125
vt 0.151560 0.144468
vt 0.970528 0.666882
vt 0.106676 0.800828
vt 0.972950 0.478371
vt 0.953734 0.549415
vt 0.061257 0.131809
vt 0.066578 0.472689
vt 0.283909 0.128334
vt 0.289229 0.469214
vt 0.342809 0.799303
vt 0.098544 0.798535
vt 0.342524 0.890194
vt 0.098258 0.889426
vt 0.247380 0.144769
vt 0.445708 0.614019
vt 0.201443 0.613251
vt 0.201157 0.704142
vt 0.683629 0.356108
vt 0.943083 0.734669
vt 0.959544 0.028787
vt 0.878932 0.268426
vt 0.136134 0.804149
vt 0.959747 0.010641
vt 0.162423 0.798749
vt 0.542363 0.277240
vt 0.541243 0.890818
vt 0.193475 0.803467
vt 0.185130 0.798814
vt 0.166987 0.799148
vt 0.952990 0.232657
vt 0.195077 0.989050
vt 0.166661 0.986552
vt 0.719104 0.367132
vt 0.963287 0.549521
vt 0.105476 0.984056
vt 0.113912 0.988540
vt 0.132448 0.987825
vt 0.953941 0.530866
vt 0.100139 0.798542
vt 0.964647 0.482883
vt 0.933165 0.753026
vt 0.942717 0.753215
vt 0.991554 0.478911
vt 0.346962 0.352647
vt 0.964018 0.668730
vt 0.520309 0.448922
vt 0.508339 0.448799
vt 0.943796 0.214325
vt 0.969300 0.010748
vt 0.967248 0.682038
vt 0.973420 0.679084
vt 0.990939 0.676934
vt 0.541242 0.705211
vt 0.445423 0.704910
vt 0.151605 0.130399
vt 0.247424 0.130700
vn 0.000000 0.000000 1.000000
vn 0.000000 0.000000 1.000000
vn 0.000000 0.000000 1.000000
vn 0.000000 0.000000 1.000000
vn 0.000000 0.000000 -1.000000
vn 0.000000 0.000000 -1.000000
vn 0.000000 0.000000 -1.000000
vn 0.000000 0.000000 -1.000000
vn 1.000000 -0.000000 0.000000
vn 1.000000 -0.000000 0.000000
vn 1.000000 -0.000000 0.000000
vn 1.000000 -0.000000 0.000000
vn -1.000000 -0.000000 0.000000
vn -1.000000 -0.000000 0.000000
vn -1.000000 -0.000000 0.000000
vn -1.000000 -0.000000 0.000000
vn -0.000001 0.000000 1.000000
vn -0.000001 0.000000 1.000000
vn -0.000001 0.000000 1.000000
vn -0.000001 0.000000 1.000000
vn 0.000000 0.000000 1.000000
vn 0.000000 0.000000 1.000000
vn 0.000000 0.000000 1.000000
vn 0.000000 0.000000 1.000000
vn 0.000000 0.000000 -1.000000
vn 0.000000 0.000000 -1.000000
vn 0.000000 0.000000 -1.000000
vn 0.000000 0.000000 -1.000000
vn 0.000001 0.000000 -1.000000
vn 0.000001 0.000000 -1.000000
vn 0.000001 0.000000 -1.000000
vn 0.000001 0.000000 -1.000000
vn -0.000002 0.000000 -1.000000
vn -0.000002 0.000000 -1.000000
vn -0.000002 0.000000 -1.000000
vn -0.000002 0.000000 -1.000000
vn -0.502996 -0.864289 0.000000
vn -0.502996 -0.864289 0.000000
vn -0.502996 -0.864289 0.000000
vn -0.502996 -0.864289 0.000000
vn 1.000000 0.000000 0.000000
vn 1.000000 0.000000 0.000000
vn 1.000000 0.000000 0.000000
vn -1.000000 0.000000 0.000000
vn -1.000000 0.000000 0.000000
vn -1.000000 0.000000 0.000000
vn 0.502996 -0.864289 0.000000
vn 0.502996 -0.864289 0.000000
vn 0.502996 -0.864289 0.000000
vn 0.502996 -0.864289 0.000000
vn 0.000000 -1.000000 0.000000
vn 0.000000 -1.000000 0.000000
vn 0.000000 -1.000000 0.000000
vn 0.000000 -1.000000 0.000000
vn 1.000000 0.000000 0.000000
vn 1.000000 0.000000 0.000000
vn 1.000000 0.000000 0.000000
vn -0.502997 -0.864288 0.000000
vn -0.502997 -0.864288 0.000000
vn -0.502997 -0.864288 0.000000
vn -0.502997 -0.864288 0.000000
vn 0.502997 -0.864288 0.000000
vn 0.502997 -0.864288 0.000000
vn 0.502997 -0.864288 0.000000
vn 0.502997 -0.864288 0.000000
vn -1.000000 0.000000 0.000000
vn -1.000000 0.000000 0.000000
vn -1.000000 0.000000 0.000000
vn 0.000000 -1.000000 0.000000
vn 0.000000 -1.000000 0.000000
vn 0.000000 -1.000000 0.000000
vn 0.000000 -1.000000 0.000000
vn 0.000000 -1.000000 -0.000000
vn 0.000000 -1.000000 -0.000000
vn 0.000000 -1.000000 -0.000000
vn 0.000000 -1.000000 -0.000000
vn 0.000000 -1.000000 0.000000
vn 0.000000 -1.000000 0.000000
vn 0.000000 -1.000000 0.000000
vn 0.000000 -1.000000 0.000000
vn 0.000000 -1.000000 0.000000
vn 0.000000 -1.000000 0.000000
vn 0.000000 -1.000000 0.000000
vn 0.000000 -1.000000 0.000000
vn -0.494526 0.869163 0.000000
vn -0.494526 0.869163 -0.000000
vn -0.494526 0.869163 -0.000000
vn -0.494526 0.869163 0.000000
vn -0.494526 0.869163 -0.000000
vn -0.494526 0.869163 -0.000000
vn -0.453853 0.891076 0.000000
vn -0.453853 0.891076 0.000000
vn 0.453853 0.891076 0.000000
vn 0.453853 0.891076 0.000000
vn 0.494526 0.869163 0.000000
vn 0.494526 0.869163 0.000000
vn 0.494526 0.869163 0.000000
vn 0.494526 0.869163 0.000000
vn 0.494526 0.869163 0.000000
vn 0.494526 0.869163 0.000000
s off
g TabernaLP pCube65
usemtl initialShadingGroup
f 168/334/393 167/330/394 169/342/395 170/294/396
f 171/355/397 172/356/398 166/353/399 165/327/400
f 164/350/401 162/357/402 167/339/403 166/328/404
f 161/358/405 163/343/406 165/347/407 168/329/408
f 162/336/409 173/340/410 174/304/411 175/337/412
f 176/306/413 161/331/414 178/307/415 177/308/416
f 179/359/417 180/354/418 181/311/419 182/360/420
f 180/354/421 164/349/422 183/313/423 181/311/424
f 163/344/425 179/348/426 182/312/427 184/345/428
f 169/293/429 167/338/430 175/337/431 174/304/432
f 167/339/433 162/357/434 175/305/435
f 161/358/436 168/329/437 178/332/438
f 168/333/439 170/341/440 177/308/441 178/307/442
f 172/296/443 171/361/444 182/360/445 181/311/446
f 164/350/447 166/328/448 183/351/449
f 166/352/450 172/296/451 181/311/452 183/313/453
f 171/295/454 165/346/455 184/345/456 182/312/457
f 165/347/458 163/343/459 184/314/460
f 166/297/461 167/292/462 186/315/463 185/316/464
f 167/292/465 168/291/466 187/317/467 186/315/468
f 168/291/469 165/298/470 188/318/471 187/317/472
f 165/298/473 166/297/474 185/316/475 188/318/476
s 1
f 163/302/477 161/301/478 190/319/479 189/320/480
f 161/301/478 176/335/481 191/321/482 190/319/479
f 179/309/483 163/302/477 189/320/480 192/322/484
f 180/310/485 179/364/483 192/365/484 194/323/486
f 164/299/487 180/362/485 194/363/486 195/324/488
f 173/303/489 162/300/490 196/325/491 193/326/492
f 162/300/490 164/299/487 195/324/488 196/325/491
g default
v -1.557448 2.458467 7.960785
v 1.654447 2.671634 7.960785
v -1.642238 3.277755 7.960785
v 1.545238 3.726872 7.960785
v -1.642238 3.277755 7.845795
v 1.545238 3.726872 7.845795
v -1.557448 2.458467 7.845795
v 1.654447 2.671634 7.845795
vt 0.680247 0.212037
vt 0.797383 0.207054
vt 0.797602 0.245693
vt 0.680417 0.242037
vt 0.801790 0.245669
vt 0.680286 0.246223
vt 0.676058 0.212061
vt 0.797205 0.202869
vt 0.801571 0.207030
vt 0.680069 0.207853
vt 0.797472 0.249879
vt 0.676229 0.242061
vn -0.000000 0.000000 1.000000
vn -0.000000 0.000000 1.000000
vn -0.000000 0.000000 1.000000
vn -0.000000 0.000000 1.000000
vn -0.139522 0.990219 0.000000
vn -0.139522 0.990219 0.000000
vn -0.139522 0.990219 0.000000
vn -0.139522 0.990219 0.000000
vn 0.066222 -0.997805 0.000000
vn 0.066222 -0.997805 0.000000
vn 0.066222 -0.997805 0.000000
vn 0.066222 -0.997805 0.000000
vn 0.994687 0.102942 0.000000
vn 0.994687 0.102942 0.000000
vn 0.994687 0.102942 0.000000
vn 0.994687 0.102942 0.000000
vn -0.994687 -0.102942 0.000000
vn -0.994687 -0.102942 0.000000
vn -0.994687 -0.102942 0.000000
vn -0.994687 -0.102942 0.000000
s off
g TabernaLP pCube80
usemtl initialShadingGroup
f 197/366/493 198/367/494 200/368/495 199/369/496
f 199/369/497 200/368/498 202/376/499 201/371/500
f 203/375/501 204/373/502 198/367/503 197/366/504
f 198/367/505 204/374/506 202/370/507 200/368/508
f 203/372/509 197/366/510 199/369/511 201/377/512
g default
v -4.262961 1.095779 7.487515
v -4.258694 1.487252 7.487515
v -3.497353 2.119925 7.487515
v -3.789519 2.114862 7.487515
v -3.497353 2.119925 7.634320
v -3.789519 2.114862 7.634320
v -4.262961 1.095779 7.634320
v -4.258694 1.487252 7.634320
vt 0.132777 0.349880
vt 0.114166 0.362180
vt 0.115356 0.390695
vt 0.107222 0.397559
vt 0.129375 0.396635
vt 0.120698 0.390472
vt 0.119509 0.361957
vt 0.127434 0.350103
vt 0.105281 0.351027
vt 0.134718 0.396412
vn 0.000000 0.000000 -1.000000
vn 0.000000 0.000000 -1.000000
vn 0.000000 0.000000 -1.000000
vn 0.000000 0.000000 -1.000000
vn 0.000000 0.000000 1.000000
vn 0.000000 0.000000 1.000000
vn 0.000000 0.000000 1.000000
vn 0.000000 0.000000 1.000000
vn -0.800938 0.598747 0.000000
vn -0.800938 0.598747 0.000000
vn -0.800938 0.598747 0.000000
vn -0.800938 0.598747 0.000000
vn 0.800937 -0.598749 0.000000
vn 0.800937 -0.598749 0.000000
vn 0.800937 -0.598749 0.000000
vn 0.800937 -0.598749 0.000000
s off
g TabernaLP pCube78
usemtl initialShadingGroup
f 205/386/513 206/379/514 208/380/515 207/381/516
f 209/382/517 210/383/518 212/384/519 211/385/520
f 206/379/521 212/384/522 210/383/523 208/380/524
f 211/385/525 205/378/526 207/387/527 209/382/528
g default
v -0.713706 0.380833 4.962694
v -0.010675 0.160356 4.962694
v -0.713706 1.156101 4.962694
v -0.010675 1.376578 4.962694
v -0.713706 1.156101 4.888249
v -0.010675 1.376578 4.888249
v -0.713706 0.380833 4.888249
v -0.010675 0.160356 4.888249
v -0.218683 1.376578 4.962694
v -0.340898 1.330352 4.962694
v -0.340898 1.330352 4.888248
v -0.218683 1.376578 4.888248
v -0.340898 0.206582 4.888248
v -0.218683 0.160356 4.888248
v -0.340898 0.206582 4.962694
v -0.218683 0.160356 4.962694
v -0.571237 1.180717 4.962694
v -0.469326 1.218099 4.962694
v -0.571237 1.180717 4.888248
v -0.469326 1.218099 4.888248
v -0.571237 0.356217 4.888248
v -0.469326 0.318835 4.888248
v -0.571237 0.356217 4.962694
v -0.469326 0.318835 4.962694
v -0.066922 1.114991 4.962694
v -0.446719 1.114990 4.962694
v -0.446719 0.442620 4.962694
v -0.066922 0.442619 4.962694
v -0.638413 1.114989 4.962694
v -0.638413 0.442621 4.962694
v -0.066922 1.114991 4.920259
v -0.638413 1.114989 4.920259
v -0.638413 0.442621 4.920259
v -0.066922 0.442619 4.920259
vt 0.251621 0.350561
vt 0.251233 0.347836
vt 0.256017 0.394582
vt 0.253305 0.394678
vt 0.223550 0.359379
vt 0.226264 0.359299
vt 0.227123 0.387735
vt 0.226609 0.390333
vt 0.241549 0.393416
vt 0.245928 0.394588
vt 0.245553 0.397214
vt 0.240647 0.395919
vt 0.238996 0.350542
vt 0.243655 0.348609
vt 0.244338 0.351217
vt 0.240119 0.352907
vt 0.232386 0.388659
vt 0.236364 0.389996
vt 0.235221 0.392581
vt 0.231676 0.391292
vt 0.827395 0.129247
vt 0.826725 0.104767
vt 0.847533 0.104198
vt 0.848203 0.128678
vt 0.230603 0.355454
vt 0.234044 0.354094
vt 0.235288 0.356555
vt 0.231448 0.358073
vt 0.834417 0.130602
vt 0.848245 0.130223
vt 0.849078 0.104156
vt 0.833663 0.103031
vt 0.825850 0.129290
vt 0.826683 0.103222
vt 0.229080 0.361422
vt 0.825181 0.104810
vt 0.229825 0.386221
vt 0.827438 0.130792
vt 0.249958 0.360957
vt 0.847491 0.102653
vt 0.250885 0.385229
vt 0.849748 0.128636
vt 0.236040 0.361235
vt 0.236850 0.386008
vt 0.254335 0.350464
vt 0.225571 0.356688
vt 0.253172 0.397410
vt 0.224409 0.387812
vn 1.000000 0.000000 0.000000
vn 1.000000 0.000000 0.000000
vn 1.000000 0.000000 0.000000
vn 1.000000 0.000000 0.000000
vn -1.000000 0.000000 0.000000
vn -1.000000 0.000000 0.000000
vn -1.000000 0.000000 0.000000
vn -1.000000 0.000000 0.000000
vn -0.534421 0.845219 0.000000
vn -0.138632 0.990344 0.000000
vn -0.138632 0.990344 0.000000
vn -0.534421 0.845219 0.000000
vn -0.534421 -0.845219 0.000000
vn -0.138632 -0.990344 0.000000
vn -0.138632 -0.990344 0.000000
vn -0.534421 -0.845219 0.000000
vn 0.000000 1.000000 0.000000
vn 0.000000 1.000000 0.000000
vn 0.000000 -1.000000 0.000000
vn 0.000000 -1.000000 0.000000
vn -0.245907 0.969293 0.000000
vn -0.544771 0.838585 0.000000
vn -0.544771 0.838585 0.000000
vn -0.245908 0.969293 0.000000
vn -0.000000 0.000000 1.000000
vn -0.000000 0.000000 1.000000
vn -0.000000 0.000000 1.000000
vn -0.000000 0.000000 1.000000
vn -0.245908 -0.969293 0.000000
vn -0.544770 -0.838585 0.000000
vn -0.544770 -0.838585 0.000000
vn -0.245908 -0.969293 0.000000
vn -0.170260 0.985399 0.000000
vn -0.170260 0.985399 0.000000
vn -0.170260 -0.985399 0.000000
vn -0.170260 -0.985399 0.000000
vn 0.000000 0.000000 1.000000
vn 0.000000 0.000000 1.000000
vn 0.000000 0.000000 1.000000
vn 0.000000 0.000000 1.000000
vn 0.000000 0.000000 1.000000
vn 0.000000 0.000000 1.000000
vn 0.000000 0.000000 1.000000
vn 0.000000 0.000000 1.000000
vn 0.000000 0.000000 1.000000
vn 0.000000 0.000000 1.000000
vn 0.000000 0.000000 1.000000
vn -0.000002 0.000000 1.000000
vn -0.000002 0.000000 1.000000
vn -0.000002 0.000000 1.000000
vn -0.000002 0.000000 1.000000
vn 0.000000 0.000000 1.000000
vn 0.000000 0.000000 1.000000
vn 0.000000 0.000000 1.000000
vn 0.000000 0.000000 1.000000
vn 0.000000 0.000000 1.000000
vn 0.000000 0.000000 1.000000
vn 0.000000 0.000000 1.000000
vn 0.000000 0.000000 1.000000
vn 0.000000 0.000000 1.000000
vn 0.000000 0.000000 1.000000
vn 0.000000 0.000000 1.000000
vn 0.000000 0.000000 1.000000
vn 0.000000 0.000000 1.000000
vn 0.000000 0.000000 1.000000
vn 0.000000 0.000000 1.000000
vn 0.000000 0.000000 1.000000
vn 0.000000 0.000000 1.000000
vn -0.000005 0.000000 1.000000
vn -0.000005 0.000000 1.000000
vn -0.000005 0.000000 1.000000
vn -0.000005 0.000000 1.000000
vn 0.000000 0.000000 1.000000
vn 0.000000 0.000000 1.000000
vn 0.000000 0.000000 1.000000
vn 0.000000 0.000000 1.000000
vn 0.000000 0.000000 1.000000
vn 0.000000 0.000000 1.000000
vn 0.000002 -1.000000 0.000012
vn 0.000002 -1.000000 0.000012
vn 0.000002 -1.000000 0.000012
vn 0.000002 -1.000000 0.000012
vn 0.000003 1.000000 -0.000002
vn 0.000003 1.000000 -0.000002
vn 0.000003 1.000000 -0.000002
vn 0.000003 1.000000 -0.000002
vn -1.000000 0.000000 0.000000
vn -1.000000 0.000000 0.000000
vn -1.000000 0.000000 0.000000
vn -1.000000 0.000000 0.000000
vn 0.000007 -1.000000 0.000000
vn 0.000007 -1.000000 0.000000
vn 0.000007 -1.000000 0.000000
vn 0.000002 1.000000 0.000000
vn 0.000002 1.000000 0.000000
vn 0.000002 1.000000 0.000000
vn 1.000000 -0.000000 0.000000
vn 1.000000 -0.000000 0.000000
vn 1.000000 -0.000000 0.000000
vn 1.000000 -0.000000 0.000000
s off
g TabernaLP pCube68
usemtl initialShadingGroup
f 214/388/529 220/432/530 218/390/531 216/391/532
f 219/392/533 213/393/534 215/394/535 217/435/536
s 1
f 222/396/537 221/397/538 224/398/539 223/399/540
s 2
f 225/400/541 226/401/542 228/402/543 227/403/544
s 1
f 221/397/538 216/391/545 218/434/546 224/398/539
s 2
f 228/402/543 226/401/542 220/389/547 214/388/548
s 1
f 229/404/549 230/405/550 232/406/551 231/407/552
s off
f 244/408/553 245/409/554 246/410/555 243/411/556
s 2
f 233/412/557 234/413/558 236/414/559 235/415/560
s 1
f 215/394/561 229/404/549 231/407/552 217/395/562
s 2
f 219/433/563 233/412/557 235/415/560 213/393/564
s 1
f 230/405/550 222/396/537 223/399/540 232/406/551
s 2
f 236/414/559 234/413/558 225/400/541 227/403/544
s off
f 221/397/565 222/396/566 238/431/567 237/428/568
f 227/403/569 228/402/570 240/426/571 239/430/572
f 228/402/573 214/388/574 240/426/575
f 214/388/576 216/391/577 237/428/578 240/426/579
f 216/391/580 221/397/581 237/428/582
f 230/405/583 229/404/584 241/424/585 238/431/586
f 235/415/587 236/414/588 239/430/589 242/422/590
f 213/393/591 235/415/592 242/422/593
f 229/404/594 215/394/595 241/424/596
f 215/394/597 213/393/598 242/422/599 241/424/600
f 236/414/601 227/403/602 239/430/603
f 222/396/604 230/405/605 238/431/606
f 237/417/607 238/416/608 244/408/609 243/411/610
f 239/419/611 240/427/612 246/410/613 245/409/614
f 240/418/615 237/429/616 243/411/617 246/410/618
f 238/416/619 241/425/620 244/408/621
f 242/421/622 239/419/623 245/409/624
f 241/420/625 242/423/626 245/409/627 244/408/628
g default
v -0.262127 5.087954 8.989381
v -0.131076 5.219004 8.989381
v -0.262127 4.898079 3.011271
v -0.131076 5.029129 3.011271
v 0.131076 5.219004 8.989381
v 0.262127 5.087954 8.989381
v 0.131076 5.029129 3.011271
v 0.262127 4.898079 3.011271
v -0.131076 4.694750 8.989381
v -0.262127 4.825800 8.989381
v -0.262127 4.635925 3.011271
v 0.262127 4.825800 8.989381
v 0.131076 4.694750 8.989381
v 0.262127 4.635925 3.011271
v -0.262127 4.898079 6.449331
v -0.262127 4.635925 6.449331
v 0.262127 4.635925 6.449331
v 0.262127 4.898079 6.449331
v 0.131076 5.029129 6.449331
v -0.131076 5.029129 6.449331
v -0.262127 4.972767 7.857097
v -0.262127 4.710613 7.857097
v -0.131076 4.579564 7.857097
v 0.131076 4.579564 7.857097
v 0.262127 4.710613 7.857097
v 0.262127 4.972767 7.857097
v 0.131076 5.103817 7.857097
v -0.131076 5.103817 7.857097
vt 0.910761 0.313437
vt 0.910839 0.271830
vt 0.920336 0.271835
vt 0.920329 0.313444
vt 0.887942 0.273599
vt 0.887744 0.314944
vt 0.878192 0.314901
vt 0.878398 0.273533
vt 0.201955 0.150068
vt 0.871460 0.314382
vt 0.927079 0.313797
vt 0.201485 0.159604
vt 0.894485 0.314486
vt 0.182883 0.149128
vt 0.182413 0.158665
vt 0.904010 0.313787
vt 0.894356 0.490376
vt 0.894415 0.365341
vt 0.903966 0.365142
vt 0.903905 0.490377
vt 0.927045 0.365159
vt 0.936596 0.365372
vt 0.936471 0.490406
vt 0.926922 0.490394
vt 0.920288 0.365049
vt 0.920179 0.490385
vt 0.910645 0.490379
vt 0.910726 0.365041
vt 0.936509 0.273235
vt 0.871667 0.273011
vt 0.936598 0.314498
vt 0.197422 0.145065
vt 0.927036 0.272307
vt 0.187886 0.144596
vt 0.894673 0.273172
vt 0.904140 0.272279
vt 0.196482 0.164137
vt 0.186946 0.163667
vn -0.316732 0.945856 -0.070968
vn -0.305934 0.947164 -0.096355
vn 0.305934 0.947164 -0.096355
vn 0.316732 0.945856 -0.070968
vn -0.323180 -0.941478 0.095776
vn -0.305934 -0.947164 0.096354
vn 0.305934 -0.947164 0.096354
vn 0.323180 -0.941478 0.095776
vn 0.954867 -0.295509 0.030062
vn 0.982151 -0.187127 0.019036
vn 0.949519 0.312856 -0.023124
vn 0.940794 0.337239 -0.034307
vn -0.982151 -0.187127 0.019036
vn -0.954867 -0.295510 0.030062
vn -0.940793 0.337240 -0.034307
vn -0.949519 0.312856 -0.023124
vn 0.000000 0.000000 1.000000
vn 0.000000 0.000000 1.000000
vn 0.000000 0.000000 1.000000
vn 0.000000 0.000000 1.000000
vn -1.000000 0.000000 0.000000
vn -1.000000 0.000000 0.000000
vn -0.949735 0.313019 -0.004742
vn -0.948696 0.316190 0.000000
vn 0.949735 0.313019 -0.004742
vn 1.000000 0.000000 0.000000
vn 1.000000 0.000000 0.000000
vn 0.948696 0.316190 0.000000
vn 0.317465 0.948156 -0.014696
vn 0.316189 0.948696 0.000000
vn -0.316189 0.948696 0.000000
vn -0.317465 0.948156 -0.014696
vn 0.000000 0.000000 1.000000
vn 0.000000 0.000000 1.000000
vn 0.000000 0.000000 1.000000
vn 0.000000 0.000000 1.000000
vn 0.000000 0.000000 1.000000
vn 0.000000 0.000000 1.000000
vn 0.000000 0.000000 1.000000
vn 0.000000 0.000000 1.000000
s 1
g TabernaLP pCube72
usemtl initialShadingGroup
f 274/436/629 248/437/630 251/438/631 273/439/632
f 255/440/633 269/441/634 270/442/635 259/443/636
f 258/464/637 271/466/638 272/446/639 252/468/640
f 268/448/641 256/470/642 247/471/643 267/451/644
s off
f 247/450/645 252/447/646 251/472/647 248/473/648
s 1
f 247/471/643 248/437/630 274/436/629 267/451/644
f 251/438/631 252/468/640 272/446/639 273/439/632
f 255/440/633 256/470/642 268/448/641 269/441/634
f 258/465/637 259/443/636 270/442/635 271/445/638
f 257/452/649 262/453/650 261/454/651 249/455/652
f 264/456/653 263/457/654 260/458/655 254/459/656
f 265/460/657 264/456/653 254/459/656 253/461/658
f 250/462/659 266/463/660 265/460/657 253/461/658
f 261/454/651 266/463/660 250/462/659 249/455/652
f 262/453/650 268/448/641 267/451/644 261/454/651
f 272/446/639 271/466/638 263/457/654 264/456/653
f 273/439/632 272/446/639 264/456/653 265/460/657
f 266/463/660 274/436/629 273/439/632 265/460/657
f 267/451/644 274/436/629 266/463/660 261/454/651
s off
f 256/449/661 258/444/662 252/447/663 247/450/664
f 256/449/665 255/469/666 259/467/667 258/444/668
g default
v -1.990569 1.095779 7.487515
v -1.986301 1.487252 7.487515
v -1.224961 2.119925 7.487515
v -1.517127 2.114862 7.487515
v -1.224961 2.119925 7.634320
v -1.517127 2.114862 7.634320
v -1.990569 1.095779 7.634320
v -1.986301 1.487252 7.634320
vt 0.155504 0.360998
vt 0.163841 0.372567
vt 0.136134 0.400925
vt 0.155197 0.407570
vt 0.149851 0.407535
vt 0.141481 0.400960
vt 0.141669 0.372421
vt 0.150157 0.360963
vt 0.136322 0.372385
vt 0.163653 0.401107
vn 0.000000 0.000000 -1.000000
vn 0.000000 0.000000 -1.000000
vn 0.000000 0.000000 -1.000000
vn 0.000000 0.000000 -1.000000
vn 0.000000 0.000000 1.000000
vn 0.000000 0.000000 1.000000
vn 0.000000 0.000000 1.000000
vn 0.000000 0.000000 1.000000
vn -0.800938 0.598748 0.000000
vn -0.800938 0.598748 0.000000
vn -0.800938 0.598748 0.000000
vn -0.800938 0.598748 0.000000
vn 0.800937 -0.598749 0.000000
vn 0.800937 -0.598749 0.000000
vn 0.800937 -0.598749 0.000000
vn 0.800937 -0.598749 0.000000
s off
g TabernaLP pCube77
usemtl initialShadingGroup
f 275/474/669 276/475/670 278/483/671 277/477/672
f 279/478/673 280/479/674 282/480/675 281/481/676
f 276/482/677 282/480/678 280/479/679 278/476/680
f 281/481/681 275/474/682 277/477/683 279/478/684
g default
v -2.223214 0.000000 7.689608
v -1.966314 0.000000 7.689608
v -2.223214 2.135089 7.689608
v -1.966314 2.135089 7.689608
v -2.223214 2.135089 7.429458
v -1.966314 2.135089 7.429458
v -2.223214 0.000000 7.429458
v -1.966314 0.000000 7.429458
vt 0.406931 0.272789
vt 0.416287 0.272729
vt 0.416779 0.350493
vt 0.407422 0.350552
vt 0.397947 0.350612
vt 0.388591 0.350671
vt 0.425763 0.272669
vt 0.397456 0.272848
vt 0.426254 0.350433
vt 0.388099 0.272908
vn 0.000000 0.000000 1.000000
vn 0.000000 0.000000 1.000000
vn 0.000000 0.000000 1.000000
vn 0.000000 0.000000 1.000000
vn 0.000000 0.000000 -1.000000
vn 0.000000 0.000000 -1.000000
vn 0.000000 0.000000 -1.000000
vn 0.000000 0.000000 -1.000000
vn 1.000000 0.000000 0.000000
vn 1.000000 0.000000 0.000000
vn 1.000000 0.000000 0.000000
vn 1.000000 0.000000 0.000000
vn -1.000000 0.000000 0.000000
vn -1.000000 0.000000 0.000000
vn -1.000000 0.000000 0.000000
vn -1.000000 0.000000 0.000000
s off
g TabernaLP pCube75
usemtl initialShadingGroup
f 283/484/685 284/485/686 286/486/687 285/487/688
f 287/488/689 288/489/690 290/493/691 289/491/692
f 284/485/693 290/490/694 288/492/695 286/486/696
f 289/491/697 283/484/698 285/487/699 287/488/700
g default
v -2.214509 1.091588 7.615895
v -2.218776 1.483061 7.615895
v -2.980117 2.115734 7.615895
v -2.687951 2.110671 7.615895
v -2.980117 2.115734 7.469090
v -2.687951 2.110671 7.469090
v -2.214509 1.091588 7.469090
v -2.218776 1.483061 7.469090
vt 0.592967 0.307001
vt 0.601133 0.318690
vt 0.600525 0.347224
vt 0.591976 0.353563
vt 0.586630 0.353449
vt 0.578358 0.346752
vt 0.606479 0.318804
vt 0.587621 0.306887
vt 0.605871 0.347338
vt 0.578965 0.318218
vn -0.000002 0.000000 1.000000
vn -0.000002 0.000000 1.000000
vn -0.000002 0.000000 1.000000
vn -0.000002 0.000000 1.000000
vn 0.000002 0.000000 -1.000000
vn 0.000002 0.000000 -1.000000
vn 0.000002 0.000000 -1.000000
vn 0.000002 0.000000 -1.000000
vn 0.800938 0.598748 0.000000
vn 0.800938 0.598748 0.000000
vn 0.800938 0.598748 0.000000
vn 0.800938 0.598748 0.000000
vn -0.800938 -0.598748 0.000000
vn -0.800938 -0.598748 0.000000
vn -0.800938 -0.598748 0.000000
vn -0.800938 -0.598748 0.000000
s off
g TabernaLP pCube76
usemtl initialShadingGroup
f 291/494/701 292/495/702 294/496/703 293/497/704
f 295/498/705 296/499/706 298/503/707 297/501/708
f 292/495/709 298/500/710 296/502/711 294/496/712
f 297/501/713 291/494/714 293/497/715 295/498/716
