# This file uses centimeters as units for non-parametric coordinates.

mtllib BaseTabernayTarro.mtl
g default
v -2.712088 5.009943 5.163644
v -2.815246 5.009943 5.088695
v -2.942756 5.009943 5.088695
v -3.045915 5.009943 5.163644
v -3.085318 5.009943 5.284914
v -3.045915 5.009943 5.406183
v -2.942756 5.009943 5.481132
v -2.815246 5.009943 5.481132
v -2.712088 5.009943 5.406183
v -2.672685 5.009943 5.284914
v -2.712088 6.393372 5.163644
v -2.815246 6.393372 5.088695
v -2.942756 6.393372 5.088695
v -3.045915 6.393372 5.163644
v -3.085318 6.393372 5.284914
v -3.045915 6.393372 5.406183
v -2.942756 6.393372 5.481132
v -2.815246 6.393372 5.481132
v -2.712088 6.393372 5.406183
v -2.672685 6.393372 5.284914
vt 0.416765 0.311515
vt 0.399567 0.311515
vt 0.399567 0.275870
vt 0.416765 0.275870
vt 0.382369 0.311515
vt 0.382369 0.275870
vt 0.365171 0.311515
vt 0.365171 0.275870
vt 0.347973 0.311515
vt 0.347973 0.275870
vt 0.330775 0.311515
vt 0.330775 0.275870
vt 0.313576 0.311515
vt 0.313576 0.275870
vt 0.296378 0.311515
vt 0.296378 0.275870
vt 0.279180 0.311515
vt 0.279180 0.275870
vt 0.261982 0.311515
vt 0.433963 0.275870
vt 0.433963 0.311515
vt 0.261982 0.275870
vn 0.809017 0.000000 -0.587785
vn 0.309017 0.000000 -0.951057
vn 0.309017 0.000000 -0.951057
vn 0.809017 0.000000 -0.587785
vn -0.309017 0.000000 -0.951057
vn -0.309017 0.000000 -0.951057
vn -0.809017 0.000000 -0.587786
vn -0.809017 0.000000 -0.587786
vn -1.000000 0.000000 -0.000000
vn -1.000000 0.000000 -0.000000
vn -0.809016 0.000000 0.587786
vn -0.809016 0.000000 0.587786
vn -0.309019 0.000000 0.951056
vn -0.309019 0.000000 0.951056
vn 0.309019 0.000000 0.951056
vn 0.309019 0.000000 0.951056
vn 0.809017 0.000000 0.587786
vn 0.809017 0.000000 0.587786
vn 1.000000 0.000000 -0.000000
vn 1.000000 0.000000 -0.000000
s 1
g SostenDeTarro
usemtl initialShadingGroup
f 1/1/1 2/2/2 12/3/3 11/4/4
f 2/2/2 3/5/5 13/6/6 12/3/3
f 3/5/5 4/7/7 14/8/8 13/6/6
f 4/7/7 5/9/9 15/10/10 14/8/8
f 5/9/9 6/11/11 16/12/12 15/10/10
f 6/11/11 7/13/13 17/14/14 16/12/12
f 7/13/13 8/15/15 18/16/16 17/14/14
f 8/15/15 9/17/17 19/18/18 18/16/16
f 9/17/17 10/19/19 20/22/20 19/18/18
f 10/21/19 1/1/1 11/4/4 20/20/20
g default
v 4.207002 6.397940 5.138935
v 4.209729 6.435055 5.175910
v 4.244177 6.399667 5.175910
v 4.244177 6.399667 5.393917
v 4.207557 6.434968 5.391743
v 4.207002 6.397940 5.430892
v 4.244177 5.131038 5.175910
v 4.207557 5.095737 5.178083
v 4.207002 5.132765 5.138935
v 4.207002 5.132765 5.430892
v 4.209729 5.095649 5.393917
v 4.244177 5.131038 5.393917
v 3.986482 5.322481 5.175910
v 4.032602 5.253862 5.138935
v 3.948113 5.287979 5.180853
v 3.986482 5.322481 5.393917
v 3.949950 5.287878 5.390812
v 4.032602 5.253862 5.430892
v 3.986482 6.208223 5.175910
v 3.949950 6.242827 5.179013
v 4.032602 6.276843 5.138935
v 3.986482 6.208223 5.393917
v 4.032602 6.276843 5.430892
v 3.948113 6.242726 5.388972
v 3.704061 6.229271 5.175910
v 3.704111 6.266304 5.138935
v 3.704061 6.229271 5.393917
v 3.704111 6.266304 5.430892
v 3.704062 6.414502 5.393917
v 3.703318 6.377468 5.430892
v 3.703318 6.377468 5.138935
v 3.704062 6.414502 5.175910
v 3.703318 5.153237 5.430892
v 3.704062 5.116202 5.393917
v 3.704062 5.116202 5.175910
v 3.703318 5.153237 5.138935
v 3.704111 5.264400 5.430892
v 3.704061 5.301433 5.393917
v 3.704111 5.264400 5.138935
v 3.704061 5.301433 5.175910
v 3.431615 6.245033 5.393917
v 3.431615 6.282069 5.430892
v 3.431615 6.282069 5.138935
v 3.431615 6.245033 5.175910
v 3.431615 6.436557 5.175910
v 3.431615 6.399462 5.138935
v 3.431615 6.399462 5.430892
v 3.431615 6.436557 5.393917
v 3.431615 5.248636 5.430892
v 3.431615 5.285672 5.393917
v 3.431615 5.094148 5.393917
v 3.431615 5.131243 5.430892
v 3.431615 5.131243 5.138935
v 3.431615 5.094148 5.175910
v 3.431615 5.285672 5.175910
v 3.431615 5.248636 5.138935
v 4.210987 5.621462 5.393917
v 4.174014 5.620213 5.430892
v 4.174014 5.910492 5.430892
v 4.210987 5.909242 5.393917
v 3.958171 5.909242 5.393917
v 3.995145 5.907496 5.430892
v 3.995145 5.623209 5.430892
v 3.958171 5.621462 5.393917
v 4.210987 5.909242 5.175910
v 4.174014 5.910492 5.138935
v 4.174014 5.620213 5.138935
v 4.210987 5.621462 5.175910
v 3.995145 5.907496 5.138935
v 3.958171 5.909242 5.175910
v 3.958171 5.621462 5.175910
v 3.995145 5.623209 5.138935
vt 0.903324 0.074183
vt 0.174792 0.327159
vt 0.174792 0.298211
vt 0.903324 0.045477
vt 0.174792 0.330110
vt 0.922384 0.031934
vt 0.174792 0.359853
vt 0.161953 0.330110
vt 0.897852 0.074198
vt 0.560050 0.002603
vt 0.894791 0.046269
vt 0.161953 0.298211
vt 0.161953 0.359853
vt 0.560050 0.032509
vt 0.174792 0.252315
vt 0.869146 0.002613
vt 0.903324 0.028708
vt 0.174792 0.281263
vt 0.174792 0.249365
vt 0.161953 0.252315
vt 0.566835 0.002582
vt 0.174792 0.219622
vt 0.869145 0.032485
vt 0.894791 0.000060
vt 0.161953 0.281263
vt 0.894791 0.029455
vt 0.569900 0.031965
vt 0.161953 0.219622
vt 0.913591 0.007275
vt 0.857397 0.014299
vt 0.986006 0.051747
vt 0.913591 0.028708
vt 0.986006 0.030866
vt 0.862383 0.032485
vt 0.986006 0.016283
vt 0.998683 0.030866
vt 0.881213 0.012619
vt 0.576783 0.013824
vt 0.884712 0.029455
vt 0.998683 0.051747
vt 0.998683 0.016283
vt 0.576783 0.031965
vt 0.986006 0.086705
vt 0.929274 0.013793
vt 0.913591 0.045477
vt 0.986006 0.068854
vt 0.986006 0.089734
vt 0.998683 0.086705
vt 0.550166 0.018315
vt 0.986006 0.104318
vt 0.929274 0.031934
vt 0.884712 0.067968
vt 0.998683 0.068854
vt 0.884712 0.046269
vt 0.553235 0.032509
vt 0.998683 0.104318
vt 0.986006 0.120540
vt 0.929274 0.047890
vt 0.553235 0.048551
vt 0.550166 0.048551
vt 0.161953 0.375951
vt 0.560050 0.048551
vt 0.922384 0.047890
vt 0.919320 0.047890
vt 0.569900 0.047927
vt 0.566835 0.047927
vt 0.174792 0.203523
vt 0.869146 0.048601
vt 0.998683 0.000060
vt 0.576783 0.047927
vt 0.862383 0.048601
vt 0.859287 0.048601
vt 0.862383 0.014299
vt 0.903324 0.000060
vt 0.569900 0.002582
vt 0.884712 0.008346
vt 0.922384 0.002581
vt 0.913591 0.066886
vt 0.553235 0.014500
vt 0.894791 0.074198
vt 0.916873 0.028708
vt 0.916873 0.045477
vt 0.900267 0.045477
vt 0.900267 0.028708
vt 0.881213 0.046269
vt 0.881213 0.029455
vt 0.897852 0.029455
vt 0.897852 0.046269
vt 0.986006 0.000060
vt 0.859287 0.032485
vt 0.579922 0.031965
vt 0.579922 0.047927
vt 0.872243 0.032485
vt 0.872243 0.048601
vt 0.161953 0.203523
vt 0.566835 0.031965
vt 0.174792 0.375951
vt 0.919320 0.031934
vt 0.563144 0.032509
vt 0.563144 0.048551
vt 0.998683 0.120540
vt 0.550166 0.032509
vt 0.932417 0.031934
vt 0.932417 0.047890
vt 0.998683 0.089734
vt 0.547781 0.014500
vt 0.881213 0.064314
vt 0.932417 0.017402
vt 0.916873 0.062910
vt 0.933573 0.013793
vt 0.579922 0.017437
vt 0.581100 0.013824
vt 0.998683 0.033895
vt 0.916873 0.011226
vt 0.986006 0.033895
vt 0.859287 0.018108
vt 0.161953 0.249365
vt 0.566835 0.000030
vt 0.897852 0.000060
vt 0.872243 0.002613
vt 0.900267 0.000060
vt 0.870793 0.000003
vt 0.563144 0.002603
vt 0.560789 -0.000000
vt 0.161953 0.327159
vt 0.919320 0.000030
vt 0.900267 0.074183
vt 0.919320 0.002581
vn 0.183476 0.184579 -0.965540
vn 0.991230 -0.001866 -0.132134
vn 0.988480 -0.042141 -0.145365
vn 0.177957 -0.007569 -0.984009
vn 0.022151 0.990794 -0.133556
vn 0.000485 0.248721 -0.968575
vn 0.002078 0.989079 -0.147372
vn 0.022095 0.990688 0.134347
vn 0.991116 -0.002973 0.132968
vn 0.184838 0.186202 0.964968
vn 0.177959 -0.007569 0.984009
vn 0.988480 -0.042141 0.145365
vn 0.002229 0.989110 0.147159
vn 0.000653 0.252915 0.967488
vn 0.991116 0.002973 -0.132969
vn 0.184837 -0.186200 -0.964969
vn 0.177957 0.007569 -0.984009
vn 0.988480 0.042141 -0.145365
vn 0.022097 -0.990688 -0.134350
vn 0.991230 0.001866 0.132135
vn 0.022153 -0.990793 0.133557
vn 0.002230 -0.989110 -0.147162
vn 0.000654 -0.252912 -0.967489
vn 0.183474 -0.184580 0.965540
vn 0.988480 0.042141 0.145365
vn 0.177958 0.007569 0.984009
vn 0.000484 -0.248721 0.968575
vn 0.002078 -0.989079 0.147373
vn -0.026334 0.019193 -0.999469
vn -0.972130 -0.000206 -0.234441
vn -0.987480 -0.048350 -0.150152
vn -0.160982 -0.008547 -0.986920
vn -0.054449 0.976235 -0.209765
vn -0.000284 0.221957 -0.975057
vn -0.004488 0.989438 -0.144887
vn -0.055100 0.975009 0.215226
vn -0.972279 0.001540 0.233818
vn -0.026298 0.018601 0.999481
vn -0.160982 -0.008547 0.986920
vn -0.987480 -0.048350 0.150151
vn -0.004707 0.989437 0.144889
vn -0.000716 0.219274 0.975663
vn -0.972279 -0.001542 -0.233818
vn -0.026297 -0.018600 -0.999481
vn -0.160980 0.008547 -0.986921
vn -0.987480 0.048350 -0.150152
vn -0.055098 -0.975009 -0.215226
vn -0.972130 0.000207 0.234441
vn -0.054447 -0.976235 0.209764
vn -0.004707 -0.989437 -0.144888
vn -0.000715 -0.219272 -0.975664
vn -0.026332 -0.019194 0.999469
vn -0.987480 0.048350 0.150151
vn -0.160982 0.008547 0.986920
vn -0.000284 -0.221961 0.975055
vn -0.004488 -0.989438 0.144886
vn -0.057132 -0.987540 -0.146629
vn -0.013142 -0.227173 -0.973766
vn -0.013143 -0.227176 0.973765
vn -0.057132 -0.987540 0.146629
vn 0.079904 0.987071 0.138944
vn 0.020437 0.252475 0.967388
vn 0.020438 0.252472 -0.967388
vn 0.079904 0.987071 -0.138944
vn 0.020438 -0.252474 0.967388
vn 0.079902 -0.987071 0.138946
vn 0.079902 -0.987071 -0.138946
vn 0.020436 -0.252471 -0.967389
vn -0.057129 0.987540 0.146631
vn -0.013142 0.227176 0.973765
vn -0.013142 0.227173 -0.973766
vn -0.057129 0.987540 -0.146631
s 1
g pCube289 Tarro
usemtl initialShadingGroup
f 21/23/21 23/149/22 85/105/23 86/26/24
f 22/150/25 21/99/21 51/28/26 52/120/27
f 23/24/22 22/27/25 25/30/28 24/147/29
f 24/31/29 26/102/30 79/33/31 80/110/32
f 26/32/30 25/145/28 49/121/33 50/36/34
f 27/143/35 29/96/36 87/39/37 88/106/38
f 28/41/39 27/37/35 32/42/40 31/139/41
f 29/38/36 28/142/39 55/115/42 56/45/43
f 30/46/44 32/141/40 77/109/45 78/48/46
f 31/43/41 30/97/44 53/49/47 54/118/48
f 34/51/49 33/136/50 91/103/51 92/54/52
f 35/138/53 34/95/49 59/56/54 60/112/55
f 33/137/50 35/55/53 37/58/56 36/135/57
f 36/59/57 38/98/58 83/61/59 84/108/60
f 38/60/58 37/133/56 58/113/61 57/64/62
f 39/131/63 41/100/64 89/67/65 90/104/66
f 40/69/67 39/65/63 42/70/68 44/127/69
f 41/66/64 40/130/67 45/125/70 46/73/71
f 43/74/72 42/129/68 81/107/73 82/76/74
f 44/71/69 43/101/72 48/77/75 47/124/76
f 46/73/71 45/125/70 64/126/77 63/80/78
f 47/124/76 48/77/75 62/81/79 61/82/80
f 50/36/34 49/121/33 68/122/81 67/84/82
f 52/120/27 51/28/26 66/85/83 65/86/84
f 54/118/48 53/49/47 72/87/85 71/88/86
f 56/45/43 55/115/42 74/116/87 73/90/88
f 57/64/62 58/113/61 70/114/89 69/92/90
f 60/112/55 59/56/54 76/93/91 75/94/92
f 78/48/46 77/109/45 80/110/32 79/33/31
f 82/76/74 81/107/73 84/108/60 83/61/59
f 86/26/24 85/105/23 88/106/38 87/39/37
f 90/104/66 89/67/65 92/54/52 91/103/51
f 48/77/75 43/101/72 26/32/30 50/36/34
f 25/30/28 22/27/25 52/29/27 49/35/33
f 21/99/21 41/66/64 46/73/71 51/28/26
f 28/41/39 31/139/41 54/50/48 55/44/42
f 30/97/44 38/60/58 57/64/62 53/49/47
f 59/56/54 34/95/49 29/38/36 56/45/43
f 45/72/70 47/78/76 61/123/80 64/79/77
f 51/28/26 46/73/71 63/80/78 66/85/83
f 49/35/33 52/29/27 65/119/84 68/83/81
f 48/77/75 50/36/34 67/84/82 62/81/79
f 53/49/47 57/64/62 69/92/90 72/87/85
f 55/44/42 54/50/48 71/117/86 74/89/87
f 59/56/54 56/45/43 73/90/88 76/93/91
f 58/63/61 60/57/55 75/111/92 70/91/89
f 78/48/46 79/33/31 82/76/74 83/61/59
f 80/34/32 77/47/45 88/40/38 85/25/23
f 86/26/24 87/39/37 92/54/52 89/67/65
f 90/68/66 91/53/51 84/62/60 81/75/73
f 80/34/32 85/25/23 23/24/22 24/147/29
f 86/26/24 89/67/65 41/100/64 21/23/21
f 26/102/30 43/74/72 82/76/74 79/33/31
f 32/42/40 27/37/35 88/40/38 77/47/45
f 29/96/36 34/51/49 92/54/52 87/39/37
f 78/48/46 83/61/59 38/98/58 30/46/44
f 58/63/61 37/58/56 35/55/53 60/57/55
f 91/53/51 33/137/50 36/135/57 84/62/60
f 81/75/73 42/70/68 39/65/63 90/68/66
f 45/72/70 40/69/67 44/127/69 47/78/76
f 21/99/21 22/150/25 23/148/22
f 24/146/29 25/145/28 26/32/30
f 27/144/35 28/142/39 29/38/36
f 30/97/44 31/43/41 32/140/40
f 33/52/50 34/95/49 35/138/53
f 36/134/57 37/133/56 38/60/58
f 39/132/63 40/130/67 41/66/64
f 42/128/68 43/101/72 44/71/69
g default
v 3.180327 6.899289 4.784914
v 2.814302 6.899289 4.418888
v 2.314302 6.899289 4.284914
v 1.814302 6.899289 4.418888
v 1.448276 6.899289 4.784914
v 1.314302 6.899289 5.284914
v 1.448276 6.899289 5.784914
v 1.814302 6.899289 6.150939
v 2.314302 6.899289 6.284914
v 2.814302 6.899289 6.150939
v 3.180327 6.899289 5.784914
v 3.314302 6.899289 5.284914
v 2.314302 4.405075 5.284914
v 2.314302 6.492736 6.343647
v 2.314302 6.119917 6.374257
v 1.784935 6.492736 6.201804
v 1.769630 6.119917 6.228313
v 1.397411 6.492736 5.814281
v 1.370902 6.119917 5.829586
v 1.255568 6.492736 5.284914
v 1.224958 6.119917 5.284914
v 1.397411 6.492736 4.755547
v 1.370902 6.119917 4.740242
v 1.784935 6.492736 4.368023
v 1.769630 6.119917 4.341514
v 2.314302 6.492736 4.226180
v 2.314302 6.119917 4.195570
v 2.843669 6.492736 4.368023
v 2.858974 6.119917 4.341514
v 3.231192 6.492736 4.755547
v 3.257701 6.119917 4.740242
v 3.373036 6.492736 5.284914
v 3.403646 6.119917 5.284914
v 3.231192 6.492736 5.814281
v 3.257701 6.119917 5.829586
v 2.843669 6.492736 6.201804
v 2.858974 6.119917 6.228313
v 2.314302 5.452951 6.408276
v 2.314302 5.036680 6.425068
v 1.744224 5.036680 6.272316
v 1.752620 5.452951 6.257774
v 1.326899 5.036680 5.854991
v 1.341441 5.452951 5.846595
v 1.174147 5.036680 5.284914
v 1.190939 5.452951 5.284914
v 1.326899 5.036680 4.714836
v 1.341441 5.452951 4.723232
v 1.744224 5.036680 4.297511
v 1.752620 5.452951 4.312053
v 2.314302 5.036680 4.144759
v 2.314302 5.452951 4.161551
v 2.884379 5.036680 4.297511
v 2.875983 5.452951 4.312053
v 3.301705 5.036680 4.714836
v 3.287162 5.452951 4.723232
v 3.454457 5.036680 5.284914
v 3.437664 5.452951 5.284914
v 3.301705 5.036680 5.854991
v 3.287162 5.452951 5.846595
v 2.884379 5.036680 6.272316
v 2.875983 5.452951 6.257774
v 2.314302 6.492736 6.438244
v 2.314302 6.119917 6.471589
v 2.907640 6.119917 6.312605
v 2.890967 6.492736 6.283728
v 1.737636 6.492736 6.283728
v 1.720964 6.119917 6.312605
v 1.315488 6.492736 5.861579
v 1.286611 6.119917 5.878252
v 1.160971 6.492736 5.284914
v 1.127626 6.119917 5.284914
v 1.315488 6.492736 4.708248
v 1.286611 6.119917 4.691576
v 1.737636 6.492736 4.286099
v 1.720964 6.119917 4.257222
v 2.314302 6.492736 4.131583
v 2.314302 6.119917 4.098238
v 2.890967 6.492736 4.286099
v 2.907640 6.119917 4.257222
v 3.313115 6.492736 4.708248
v 3.341993 6.119917 4.691576
v 3.467633 6.492736 5.284914
v 3.500977 6.119917 5.284914
v 3.313115 6.492736 5.861579
v 3.341993 6.119917 5.878252
v 2.314302 5.452951 6.508647
v 2.314302 5.036680 6.526940
v 2.935315 5.036680 6.360540
v 2.926169 5.452951 6.344698
v 1.702435 5.452951 6.344698
v 1.693288 5.036680 6.360540
v 1.254517 5.452951 5.896780
v 1.238675 5.036680 5.905927
v 1.090568 5.452951 5.284914
v 1.072275 5.036680 5.284914
v 1.254517 5.452951 4.673047
v 1.238675 5.036680 4.663900
v 1.702435 5.452951 4.225129
v 1.693288 5.036680 4.209287
v 2.314302 5.452951 4.061180
v 2.314302 5.036680 4.042887
v 2.926169 5.452951 4.225129
v 2.935315 5.036680 4.209287
v 3.374086 5.452951 4.673047
v 3.389928 5.036680 4.663900
v 3.538036 5.452951 5.284914
v 3.556328 5.036680 5.284914
v 3.374086 5.452951 5.896780
v 3.389928 5.036680 5.905927
v 3.261854 6.899289 4.737844
v 2.861371 6.899289 4.337361
v 2.314302 6.899289 4.190775
v 1.767232 6.899289 4.337361
v 1.366750 6.899289 4.737844
v 1.220163 6.899289 5.284914
v 1.366750 6.899289 5.831983
v 1.767232 6.899289 6.232466
v 2.314302 6.899289 6.379052
v 2.861371 6.899289 6.232466
v 3.261854 6.899289 5.831983
v 3.408441 6.899289 5.284914
v 3.179626 7.208833 4.785318
v 2.813897 7.208833 4.419590
v 2.314302 7.208833 4.285724
v 1.814707 7.208833 4.419590
v 1.448978 7.208833 4.785318
v 1.315112 7.208833 5.284914
v 1.448978 7.208833 5.784509
v 1.814707 7.208833 6.150238
v 2.314302 7.208833 6.284103
v 2.813897 7.208833 6.150238
v 3.179626 7.208833 5.784509
v 3.313492 7.208833 5.284914
v 3.027538 7.208833 4.873126
v 2.726089 7.208833 4.571677
v 2.314302 7.208833 4.461339
v 1.902514 7.208833 4.571677
v 1.601065 7.208833 4.873126
v 1.490727 7.208833 5.284914
v 1.601065 7.208833 5.696701
v 1.902514 7.208833 5.998150
v 2.314302 7.208833 6.108488
v 2.726089 7.208833 5.998150
v 3.027538 7.208833 5.696701
v 3.137877 7.208833 5.284914
v 2.944026 6.634292 4.873126
v 2.677873 6.719025 4.571677
v 2.314302 6.834771 5.284914
v 2.314302 6.834771 4.461339
v 1.950730 6.950516 4.571677
v 1.684577 7.035248 4.873126
v 1.587159 7.066263 5.284914
v 1.684577 7.035248 5.696701
v 1.950730 6.950516 5.998150
v 2.314302 6.834771 6.108488
v 2.677873 6.719025 5.998150
v 2.944026 6.634292 5.696701
v 3.041445 6.603278 5.284914
v 3.238021 4.405075 4.751604
v 3.279373 4.449283 4.727729
v 2.847611 4.405075 4.361194
v 2.871486 4.449283 4.319842
v 2.314302 4.405075 4.218294
v 2.314302 4.449283 4.170545
v 1.780992 4.405075 4.361194
v 1.757117 4.449283 4.319842
v 1.390582 4.405075 4.751604
v 1.349230 4.449283 4.727729
v 1.247682 4.405075 5.284914
v 1.199933 4.449283 5.284914
v 1.390582 4.405075 5.818223
v 1.349230 4.449283 5.842098
v 1.780992 4.405075 6.208633
v 1.757117 4.449283 6.249985
v 2.314302 4.405075 6.351533
v 2.314302 4.449283 6.399282
v 2.847611 4.405075 6.208633
v 2.871486 4.449283 6.249985
v 3.238021 4.405075 5.818223
v 3.279373 4.449283 5.842098
v 3.380921 4.405075 5.284914
v 3.428670 4.449283 5.284914
vt 0.828666 0.107760
vt 0.721511 0.076038
vt 0.783967 0.118201
vt 0.744079 0.069802
vt 0.766651 0.063577
vt 0.790693 0.060597
vt 0.815154 0.065817
vt 0.835791 0.079948
vt 0.850197 0.099426
vt 0.600503 0.084660
vt 0.623870 0.086142
vt 0.648096 0.086254
vt 0.673051 0.084576
vt 0.754091 0.378291
vt 0.781672 0.378919
vt 0.737289 0.076986
vt 0.817944 0.400905
vt 0.787308 0.378837
vt 0.745405 0.378919
vt 0.820535 0.378919
vt 0.709220 0.378919
vt 0.853767 0.378498
vt 0.673194 0.378919
vt 0.887010 0.377570
vt 0.637404 0.378919
vt 0.921270 0.375106
vt 0.601926 0.378919
vt 0.558726 0.380322
vt 0.996691 0.378919
vt 0.589294 0.370630
vt 0.961544 0.378919
vt 0.621416 0.372274
vt 0.926021 0.378919
vt 0.654561 0.374262
vt 0.890195 0.378919
vt 0.687714 0.375961
vt 0.854144 0.378919
vt 0.775036 0.270007
vt 0.773415 0.321839
vt 0.725582 0.270396
vt 0.811227 0.346359
vt 0.810304 0.270300
vt 0.735629 0.321839
vt 0.845590 0.270100
vt 0.697890 0.321839
vt 0.880887 0.269308
vt 0.660216 0.321839
vt 0.916203 0.267848
vt 0.622627 0.321839
vt 0.952578 0.264445
vt 0.585142 0.321839
vt 0.568770 0.277727
vt 1.000000 0.321839
vt 0.600168 0.265243
vt 0.962349 0.321839
vt 0.634189 0.265865
vt 0.924626 0.321839
vt 0.669376 0.267143
vt 0.886852 0.321839
vt 0.704571 0.268332
vt 0.849046 0.321839
vt 0.787391 0.373344
vt 0.754248 0.372800
vt 0.733901 0.365185
vt 0.702531 0.364231
vt 0.820538 0.373424
vt 0.671172 0.363021
vt 0.853684 0.373004
vt 0.639821 0.361654
vt 0.886822 0.372046
vt 0.608470 0.360261
vt 0.920026 0.369481
vt 0.577230 0.359747
vt 0.557308 0.375370
vt 0.547781 0.370529
vt 0.588855 0.365329
vt 0.890804 0.361689
vt 0.621808 0.366802
vt 0.859426 0.364547
vt 0.654897 0.368782
vt 0.828050 0.365585
vt 0.687998 0.370477
vt 0.796665 0.365956
vt 0.721116 0.371831
vt 0.765280 0.365791
vt 0.810346 0.264467
vt 0.775151 0.264177
vt 0.771589 0.069234
vt 0.804491 0.073974
vt 0.845542 0.264266
vt 0.830615 0.094529
vt 0.880732 0.263473
vt 0.842961 0.125392
vt 0.915905 0.261981
vt 0.838221 0.158294
vt 0.951099 0.258507
vt 0.817666 0.184417
vt 0.566835 0.272649
vt 0.786803 0.196764
vt 0.599440 0.259664
vt 0.753901 0.192024
vt 0.634445 0.260051
vt 0.727778 0.171469
vt 0.669614 0.261321
vt 0.715431 0.140606
vt 0.704785 0.262507
vt 0.720171 0.107704
vt 0.739964 0.263491
vt 0.740726 0.081580
vt 0.783097 0.287218
vt 0.748555 0.287218
vt 0.817632 0.287218
vt 0.852142 0.287218
vt 0.886609 0.287218
vt 0.921016 0.287218
vt 0.955344 0.287218
vt 0.576361 0.287218
vt 0.610672 0.287218
vt 0.645064 0.287218
vt 0.679521 0.287218
vt 0.714024 0.287218
vt 0.873598 0.063831
vt 0.848182 0.042180
vt 0.547781 0.081490
vt 0.570708 0.057219
vt 0.597044 0.036698
vt 0.626183 0.020400
vt 0.657453 0.008699
vt 0.690134 0.001867
vt 0.723473 0.000060
vt 0.756701 0.003320
vt 0.789052 0.011572
vt 0.819782 0.024625
vt 0.984731 0.116198
vt 0.966567 0.091709
vt 0.988217 0.146488
vt 0.976091 0.174463
vt 0.951602 0.192627
vt 0.921311 0.196112
vt 0.893337 0.183986
vt 0.875173 0.159497
vt 0.871687 0.129207
vt 0.883813 0.101232
vt 0.908302 0.083068
vt 0.938592 0.079582
vt 0.719544 0.047091
vt 0.694412 0.047054
vt 0.744666 0.047759
vt 0.769789 0.048408
vt 0.794867 0.050037
vt 0.819155 0.056493
vt 0.840569 0.069647
vt 0.859028 0.086700
vt 0.595414 0.063205
vt 0.619867 0.057406
vt 0.644459 0.052223
vt 0.669330 0.048621
vt 0.566974 0.193574
vt 0.645064 0.321839
vt 0.679521 0.321839
vt 0.551541 0.164914
vt 0.594668 0.210678
vt 0.610672 0.321839
vt 0.627205 0.211643
vt 0.989577 0.321839
vt 0.655865 0.196211
vt 0.955344 0.321839
vt 0.672969 0.168517
vt 0.921016 0.321839
vt 0.673934 0.135980
vt 0.886609 0.321839
vt 0.658502 0.107320
vt 0.852142 0.321839
vt 0.630807 0.090216
vt 0.817632 0.321839
vt 0.598271 0.089251
vt 0.783097 0.321839
vt 0.569611 0.104683
vt 0.748555 0.321839
vt 0.552507 0.132378
vt 0.714024 0.321839
vt 0.612738 0.150447
vt 0.552391 0.300927
vt 0.973736 0.270708
vt 0.989577 0.287218
vt 0.815735 0.086350
vt 0.697821 0.081109
vt 0.794291 0.073475
vt 0.770081 0.072584
vt 0.861237 0.120074
vt 0.749592 0.083917
vt 0.738314 0.104435
vt 0.881927 0.130726
vt 0.876809 0.104461
vt 0.739268 0.128643
vt 0.752200 0.150052
vt 0.773643 0.162927
vt 0.797853 0.163818
vt 0.818342 0.152486
vt 0.829620 0.131967
vt 0.937074 0.089823
vt 0.960132 0.099818
vt 0.912107 0.092696
vt 0.891922 0.107667
vt 0.884800 0.155692
vt 0.899772 0.175877
vt 0.922830 0.185872
vt 0.947797 0.182999
vt 0.967981 0.168027
vt 0.977976 0.144969
vt 0.977976 0.144969
vt 0.975103 0.120003
vt 0.562611 0.093506
vt 0.880104 0.100436
vt 0.988217 0.146488
vt 0.811008 0.041576
vt 0.836943 0.057607
vt 0.782945 0.029655
vt 0.753401 0.022119
vt 0.723056 0.019142
vt 0.692611 0.020792
vt 0.662766 0.027032
vt 0.634210 0.037717
vt 0.607599 0.052601
vt 0.583548 0.071341
vt 0.860153 0.077379
vt 0.549409 0.375370
vt 0.921957 0.350205
vt 0.895444 0.089079
vt 0.828138 0.371058
vt 0.859660 0.370051
vt 0.796649 0.371427
vt 0.765178 0.371259
vt 0.733731 0.370651
vt 0.702309 0.369693
vt 0.670913 0.368480
vt 0.639545 0.367109
vt 0.608194 0.365710
vt 0.577852 0.364998
vt 0.892125 0.367269
vt 0.547781 0.424772
vt 0.929953 0.424772
vt 0.917713 0.346353
vt 0.811227 0.321839
vt 0.689838 0.271215
vt 0.849046 0.346359
vt 0.739791 0.269319
vt 0.654111 0.272511
vt 0.886852 0.346359
vt 0.618392 0.274228
vt 0.924626 0.346359
vt 0.581598 0.277406
vt 0.962349 0.346359
vt 0.547781 0.321839
vt 0.972426 0.265284
vt 0.547781 0.296781
vt 0.985601 0.244686
vt 0.547781 0.346359
vt 1.000000 0.346359
vt 0.938997 0.274868
vt 0.585142 0.346359
vt 0.953502 0.215403
vt 0.547781 0.215403
vt 0.980969 0.240688
vt 0.904293 0.273452
vt 0.622627 0.346359
vt 0.868559 0.271928
vt 0.660216 0.346359
vt 0.832830 0.270850
vt 0.697890 0.346359
vt 0.797086 0.270224
vt 0.735629 0.346359
vt 0.761334 0.270068
vt 0.773415 0.346359
vt 0.817944 0.378919
vt 0.714897 0.105444
vt 0.854144 0.400905
vt 0.720892 0.377318
vt 0.709734 0.141285
vt 0.890195 0.400905
vt 0.723183 0.174906
vt 0.926021 0.400905
vt 0.751641 0.197298
vt 0.961544 0.400905
vt 0.566835 0.378919
vt 0.787483 0.202461
vt 0.787483 0.202461
vt 0.952889 0.357433
vt 0.566835 0.400905
vt 0.996691 0.400905
vt 0.821103 0.189012
vt 0.547781 0.254710
vt 0.953502 0.254710
vt 0.786803 0.196764
vt 0.601926 0.400905
vt 0.929953 0.400905
vt 0.547781 0.400905
vt 0.948645 0.353536
vt 0.843495 0.160554
vt 0.637404 0.400905
vt 0.848658 0.124712
vt 0.673194 0.400905
vt 0.835209 0.091092
vt 0.709220 0.400905
vt 0.806751 0.068700
vt 0.745405 0.400905
vt 0.770910 0.063537
vt 0.781672 0.400905
vt 0.725644 0.276308
vt 0.689980 0.277124
vt 0.818346 0.215403
vt 0.784407 0.215403
vt 0.654330 0.278418
vt 0.852249 0.215403
vt 0.618698 0.280166
vt 0.886092 0.215403
vt 0.583008 0.283443
vt 0.919851 0.215403
vt 0.939451 0.280596
vt 0.581318 0.215403
vt 0.903956 0.279350
vt 0.614983 0.215403
vt 0.868311 0.277834
vt 0.648753 0.215403
vt 0.832655 0.276758
vt 0.682603 0.215403
vt 0.796988 0.276135
vt 0.716511 0.215403
vt 0.761315 0.275980
vt 0.750454 0.215403
vt 0.784407 0.254710
vt 0.818346 0.254710
vt 0.802431 0.400905
vt 0.769528 0.400905
vt 0.852249 0.254710
vt 0.835103 0.400905
vt 0.886092 0.254710
vt 0.867365 0.400905
vt 0.919851 0.254710
vt 0.899039 0.400905
vt 0.581318 0.254710
vt 0.577310 0.400905
vt 0.614983 0.254710
vt 0.607840 0.400905
vt 0.648753 0.254710
vt 0.639205 0.400905
vt 0.682603 0.254710
vt 0.671233 0.400905
vt 0.716511 0.254710
vt 0.703749 0.400905
vt 0.750454 0.254710
vt 0.736574 0.400905
vt 0.835103 0.424772
vt 0.867365 0.424772
vt 0.802431 0.424772
vt 0.769528 0.424772
vt 0.736574 0.424772
vt 0.703749 0.424772
vt 0.671233 0.424772
vt 0.639205 0.424772
vt 0.607840 0.424772
vt 0.577310 0.424772
vt 0.899039 0.424772
vt 0.547781 0.165793
vt 0.548811 0.131259
vt 0.566970 0.101866
vt 0.597392 0.085491
vt 0.631926 0.086520
vt 0.661319 0.104679
vt 0.677694 0.135101
vt 0.676665 0.169635
vt 0.658506 0.199028
vt 0.628084 0.215404
vt 0.576361 0.321839
vt 0.593549 0.214374
vt 0.564157 0.196215
vn 0.303358 0.952877 0.000001
vn 0.303357 0.952877 0.000000
vn 0.303357 0.952877 0.000000
vn 0.303355 0.952878 0.000000
vn 0.303354 0.952878 -0.000001
vn 0.303356 0.952877 -0.000002
vn 0.303356 0.952877 0.000000
vn 0.303356 0.952877 0.000003
vn 0.303355 0.952878 0.000001
vn 0.303356 0.952878 0.000000
vn 0.303357 0.952877 0.000000
vn 0.303358 0.952877 -0.000001
vn 0.303359 0.952877 0.000000
vn 0.000000 0.089084 0.996024
vn 0.000000 0.089084 0.996024
vn 0.498012 0.089084 0.862582
vn 0.498012 0.089084 0.862582
vn -0.498012 0.089084 0.862582
vn -0.498012 0.089084 0.862582
vn -0.862582 0.089084 0.498012
vn -0.862582 0.089084 0.498012
vn -0.996024 0.089085 -0.000000
vn -0.996024 0.089085 -0.000000
vn -0.862582 0.089084 -0.498012
vn -0.862582 0.089084 -0.498012
vn -0.498012 0.089084 -0.862582
vn -0.498012 0.089084 -0.862582
vn 0.000000 0.089084 -0.996024
vn 0.000000 0.089084 -0.996024
vn 0.498012 0.089084 -0.862582
vn 0.498012 0.089084 -0.862582
vn 0.862582 0.089084 -0.498012
vn 0.862582 0.089084 -0.498012
vn 0.996024 0.089084 0.000000
vn 0.996024 0.089084 0.000000
vn 0.862582 0.089084 0.498012
vn 0.862582 0.089084 0.498012
vn 0.000000 0.043902 0.999036
vn 0.000000 0.043902 0.999036
vn 0.499518 0.043902 0.865191
vn 0.499518 0.043902 0.865191
vn -0.499518 0.043902 0.865191
vn -0.499518 0.043902 0.865191
vn -0.865190 0.043902 0.499518
vn -0.865191 0.043902 0.499518
vn -0.999036 0.043902 0.000000
vn -0.999036 0.043902 0.000000
vn -0.865190 0.043902 -0.499518
vn -0.865190 0.043902 -0.499518
vn -0.499518 0.043902 -0.865191
vn -0.499518 0.043902 -0.865191
vn 0.000000 0.043902 -0.999036
vn 0.000000 0.043902 -0.999036
vn 0.499518 0.043902 -0.865191
vn 0.499518 0.043902 -0.865191
vn 0.865190 0.043902 -0.499518
vn 0.865191 0.043902 -0.499518
vn 0.999036 0.043901 0.000000
vn 0.999036 0.043901 0.000000
vn 0.865190 0.043902 0.499518
vn 0.865191 0.043902 0.499518
vn -0.494863 0.142984 0.857127
vn 0.000000 0.142984 0.989725
vn 0.000000 0.142984 0.989725
vn -0.494863 0.142984 0.857127
vn -0.857127 0.142983 0.494863
vn -0.857127 0.142983 0.494863
vn -0.989725 0.142983 0.000000
vn -0.989725 0.142983 0.000000
vn -0.857127 0.142984 -0.494863
vn -0.857127 0.142984 -0.494863
vn -0.494863 0.142984 -0.857127
vn -0.494863 0.142984 -0.857127
vn -0.000000 0.142984 -0.989725
vn -0.000000 0.142984 -0.989725
vn 0.494863 0.142984 -0.857127
vn 0.494863 0.142984 -0.857127
vn 0.857127 0.142984 -0.494863
vn 0.857127 0.142984 -0.494862
vn 0.989725 0.142984 0.000000
vn 0.989725 0.142984 0.000000
vn 0.857127 0.142984 0.494863
vn 0.857127 0.142984 0.494863
vn 0.494863 0.142983 0.857127
vn 0.494863 0.142983 0.857127
vn -0.499351 0.050939 0.864901
vn 0.000000 0.050939 0.998702
vn 0.000000 0.050939 0.998702
vn -0.499351 0.050939 0.864901
vn -0.864901 0.050939 0.499351
vn -0.864901 0.050939 0.499351
vn -0.998702 0.050939 -0.000000
vn -0.998702 0.050939 -0.000000
vn -0.864901 0.050939 -0.499351
vn -0.864901 0.050939 -0.499351
vn -0.499351 0.050939 -0.864901
vn -0.499351 0.050939 -0.864901
vn 0.000000 0.050939 -0.998702
vn 0.000000 0.050939 -0.998702
vn 0.499351 0.050939 -0.864901
vn 0.499351 0.050939 -0.864901
vn 0.864901 0.050939 -0.499351
vn 0.864901 0.050939 -0.499351
vn 0.998702 0.050939 -0.000000
vn 0.998702 0.050939 -0.000000
vn 0.864901 0.050939 0.499351
vn 0.864901 0.050939 0.499351
vn 0.499351 0.050939 0.864901
vn 0.499351 0.050939 0.864901
vn 0.000000 -1.000000 0.000000
vn 0.000000 -1.000000 0.000000
vn 0.000000 -1.000000 0.000000
vn 0.000000 -1.000000 0.000000
vn 0.000000 1.000000 0.000003
vn 0.000000 1.000000 0.000003
vn 0.000000 1.000000 0.000003
vn 0.000000 1.000000 0.000003
vn 0.000000 1.000000 0.000005
vn 0.000000 1.000000 0.000005
vn 0.000000 1.000000 0.000005
vn 0.000000 1.000000 0.000005
vn 0.000000 -1.000000 -0.000003
vn 0.000000 -1.000000 -0.000003
vn 0.000000 -1.000000 -0.000003
vn 0.000000 -1.000000 -0.000003
vn 0.000000 1.000000 -0.000003
vn 0.000000 1.000000 -0.000003
vn 0.000000 1.000000 -0.000003
vn 0.000000 1.000000 -0.000003
vn 0.000000 -1.000000 0.000000
vn 0.000000 -1.000000 0.000000
vn 0.000000 -1.000000 0.000000
vn 0.000000 -1.000000 0.000000
vn 0.000000 1.000000 0.000002
vn 0.000000 1.000000 0.000002
vn 0.000000 1.000000 0.000002
vn 0.000000 1.000000 0.000002
vn 0.000000 -1.000000 0.000000
vn 0.000000 -1.000000 0.000000
vn 0.000000 -1.000000 0.000000
vn 0.000000 -1.000000 0.000000
vn 0.000000 1.000000 0.000000
vn 0.000000 1.000000 0.000000
vn 0.000000 1.000000 0.000000
vn 0.000000 1.000000 0.000000
vn 0.000000 -1.000000 0.000001
vn 0.000000 -1.000000 0.000001
vn 0.000000 -1.000000 0.000001
vn 0.000000 -1.000000 0.000001
vn 0.000000 1.000000 0.000004
vn 0.000000 1.000000 0.000004
vn 0.000000 1.000000 0.000004
vn 0.000000 1.000000 0.000004
vn 0.000000 -1.000000 -0.000003
vn 0.000000 -1.000000 -0.000003
vn 0.000000 -1.000000 -0.000003
vn 0.000000 -1.000000 -0.000003
vn 0.000000 1.000000 -0.000003
vn 0.000000 1.000000 -0.000003
vn 0.000000 1.000000 -0.000003
vn 0.000000 1.000000 -0.000003
vn 0.000000 -1.000000 0.000004
vn 0.000000 -1.000000 0.000004
vn 0.000000 -1.000000 0.000004
vn 0.000000 -1.000000 0.000004
vn 0.000000 1.000000 -0.000005
vn 0.000000 1.000000 -0.000005
vn 0.000000 1.000000 -0.000005
vn 0.000000 1.000000 -0.000005
vn 0.000000 -1.000000 0.000002
vn 0.000000 -1.000000 0.000002
vn 0.000000 -1.000000 0.000002
vn 0.000000 -1.000000 0.000002
vn 0.000000 1.000000 0.000003
vn 0.000000 1.000000 0.000003
vn 0.000000 1.000000 0.000003
vn 0.000000 1.000000 0.000003
vn 0.000000 -1.000000 -0.000004
vn 0.000000 -1.000000 -0.000004
vn 0.000000 -1.000000 -0.000004
vn 0.000000 -1.000000 -0.000004
vn 0.000000 1.000000 -0.000002
vn 0.000000 1.000000 -0.000002
vn 0.000000 1.000000 -0.000002
vn 0.000000 1.000000 -0.000002
vn 0.000000 -1.000000 -0.000001
vn 0.000000 -1.000000 -0.000001
vn 0.000000 -1.000000 -0.000001
vn 0.000000 -1.000000 -0.000001
vn 0.000000 1.000000 0.000000
vn 0.000000 1.000000 0.000000
vn 0.000000 1.000000 0.000000
vn 0.000000 1.000000 0.000000
vn 0.000000 -1.000000 0.000002
vn 0.000000 -1.000000 0.000002
vn 0.000000 -1.000000 0.000002
vn 0.000000 -1.000000 0.000002
vn 0.000000 1.000000 -0.000004
vn 0.000000 1.000000 -0.000004
vn 0.000000 1.000000 -0.000004
vn 0.000000 1.000000 -0.000004
vn 0.000000 -1.000000 0.000002
vn 0.000000 -1.000000 0.000002
vn 0.000000 -1.000000 0.000002
vn 0.000000 -1.000000 0.000002
vn 0.000000 -1.000000 -0.000004
vn 0.000000 -1.000000 -0.000004
vn 0.000000 -1.000000 -0.000004
vn 0.000000 -1.000000 -0.000004
vn 0.000000 1.000000 0.000002
vn 0.000000 1.000000 0.000002
vn 0.000000 1.000000 0.000002
vn 0.000000 1.000000 0.000002
vn 0.000000 1.000000 0.000000
vn 0.000000 1.000000 0.000000
vn 0.000000 1.000000 0.000000
vn 0.000000 1.000000 0.000000
vn 0.000000 -1.000000 -0.000001
vn 0.000000 -1.000000 -0.000001
vn 0.000000 -1.000000 -0.000001
vn 0.000000 -1.000000 -0.000001
vn 0.000000 1.000000 -0.000002
vn 0.000000 1.000000 -0.000002
vn 0.000000 1.000000 -0.000002
vn 0.000000 1.000000 -0.000002
vn 0.000000 -1.000000 -0.000002
vn 0.000000 -1.000000 -0.000002
vn 0.000000 -1.000000 -0.000002
vn 0.000000 -1.000000 -0.000002
vn 0.000000 1.000000 0.000001
vn 0.000000 1.000000 0.000001
vn 0.000000 1.000000 0.000001
vn 0.000000 1.000000 0.000001
vn 0.000000 -1.000000 0.000000
vn 0.000000 -1.000000 0.000000
vn 0.000000 -1.000000 0.000000
vn 0.000000 -1.000000 0.000000
vn 0.000000 1.000000 0.000000
vn 0.000000 1.000000 0.000000
vn 0.000000 1.000000 0.000000
vn 0.000000 1.000000 0.000000
vn 0.000000 -1.000000 -0.000000
vn 0.000000 -1.000000 -0.000000
vn 0.000000 -1.000000 -0.000000
vn 0.000000 -1.000000 -0.000000
vn 0.000000 1.000000 0.000001
vn 0.000000 1.000000 0.000001
vn 0.000000 1.000000 0.000001
vn 0.000000 1.000000 0.000001
vn 0.000000 -1.000000 0.000003
vn 0.000000 -1.000000 0.000003
vn 0.000000 -1.000000 0.000003
vn 0.000000 -1.000000 0.000003
vn 0.000000 1.000000 -0.000002
vn 0.000000 1.000000 -0.000002
vn 0.000000 1.000000 -0.000002
vn 0.000000 1.000000 -0.000002
vn 0.000000 -1.000000 0.000000
vn 0.000000 -1.000000 0.000000
vn 0.000000 -1.000000 0.000000
vn 0.000000 -1.000000 0.000000
vn 0.000000 1.000000 0.000000
vn 0.000000 1.000000 0.000000
vn 0.000000 1.000000 0.000000
vn 0.000000 1.000000 0.000000
vn 0.000000 -1.000000 0.000002
vn 0.000000 -1.000000 0.000002
vn 0.000000 -1.000000 0.000002
vn 0.000000 -1.000000 0.000002
vn 0.000000 1.000000 -0.000002
vn 0.000000 1.000000 -0.000002
vn 0.000000 1.000000 -0.000002
vn 0.000000 1.000000 -0.000002
vn 0.000000 -1.000000 0.000001
vn 0.000000 -1.000000 0.000001
vn 0.000000 -1.000000 0.000001
vn 0.000000 -1.000000 0.000001
vn 0.000000 1.000000 -0.000001
vn 0.000000 1.000000 -0.000001
vn 0.000000 1.000000 -0.000001
vn 0.000000 1.000000 -0.000001
vn 0.000000 -1.000000 -0.000000
vn 0.000000 -1.000000 -0.000000
vn 0.000000 -1.000000 -0.000000
vn 0.000000 -1.000000 -0.000000
vn 0.000000 1.000000 0.000000
vn 0.000000 1.000000 0.000000
vn 0.000000 1.000000 0.000000
vn 0.000000 1.000000 0.000000
vn 0.000000 -1.000000 -0.000000
vn 0.000000 -1.000000 -0.000000
vn 0.000000 -1.000000 -0.000000
vn 0.000000 -1.000000 -0.000000
vn 0.000000 1.000000 0.000002
vn 0.000000 1.000000 0.000002
vn 0.000000 1.000000 0.000002
vn 0.000000 1.000000 0.000002
vn 0.000000 -1.000000 -0.000002
vn 0.000000 -1.000000 -0.000002
vn 0.000000 -1.000000 -0.000002
vn 0.000000 -1.000000 -0.000002
vn 0.000000 -1.000000 -0.000004
vn 0.000000 -1.000000 -0.000004
vn 0.000000 -1.000000 -0.000004
vn 0.000000 -1.000000 -0.000004
vn 0.000000 -1.000000 0.000000
vn 0.000000 -1.000000 0.000000
vn 0.000000 -1.000000 0.000000
vn 0.000000 -1.000000 0.000000
vn 0.000000 -1.000000 0.000000
vn 0.000000 -1.000000 0.000000
vn 0.000000 -1.000000 0.000000
vn 0.000000 -1.000000 0.000000
vn 0.000000 -1.000000 -0.000005
vn 0.000000 -1.000000 -0.000005
vn 0.000000 -1.000000 -0.000005
vn 0.000000 -1.000000 -0.000005
vn 0.000000 -1.000000 0.000001
vn 0.000000 -1.000000 0.000001
vn 0.000000 -1.000000 0.000001
vn 0.000000 -1.000000 0.000001
vn 0.000000 -1.000000 -0.000001
vn 0.000000 -1.000000 -0.000001
vn 0.000000 -1.000000 -0.000001
vn 0.000000 -1.000000 -0.000001
vn 0.000000 -1.000000 0.000004
vn 0.000000 -1.000000 0.000004
vn 0.000000 -1.000000 0.000004
vn 0.000000 -1.000000 0.000004
vn 0.000000 -1.000000 0.000000
vn 0.000000 -1.000000 0.000000
vn 0.000000 -1.000000 0.000000
vn 0.000000 -1.000000 0.000000
vn 0.000000 -1.000000 0.000000
vn 0.000000 -1.000000 0.000000
vn 0.000000 -1.000000 0.000000
vn 0.000000 -1.000000 0.000000
vn 0.000000 -1.000000 0.000005
vn 0.000000 -1.000000 0.000005
vn 0.000000 -1.000000 0.000005
vn 0.000000 -1.000000 0.000005
vn 0.000000 -1.000000 0.000000
vn 0.000000 -1.000000 0.000000
vn 0.000000 -1.000000 0.000000
vn 0.000000 -1.000000 0.000000
vn 0.000000 -1.000000 0.000001
vn 0.000000 -1.000000 0.000001
vn 0.000000 -1.000000 0.000001
vn 0.000000 -1.000000 0.000001
vn 0.827951 0.293252 -0.478017
vn 0.478018 0.293252 -0.827951
vn 0.478018 0.293252 -0.827951
vn 0.827951 0.293252 -0.478017
vn 0.000000 0.293252 -0.956035
vn 0.000000 0.293252 -0.956035
vn -0.478018 0.293252 -0.827951
vn -0.478018 0.293252 -0.827951
vn -0.827951 0.293252 -0.478017
vn -0.827951 0.293252 -0.478017
vn -0.956035 0.293253 -0.000000
vn -0.956035 0.293253 -0.000000
vn -0.827951 0.293253 0.478017
vn -0.827951 0.293253 0.478017
vn -0.478018 0.293252 0.827951
vn -0.478017 0.293252 0.827951
vn 0.000000 0.293252 0.956035
vn 0.000000 0.293252 0.956035
vn 0.478018 0.293252 0.827951
vn 0.478018 0.293252 0.827951
vn 0.827951 0.293252 0.478017
vn 0.827951 0.293252 0.478017
vn 0.956035 0.293252 0.000000
vn 0.956035 0.293252 0.000000
vn 0.000000 1.000000 -0.000001
vn 0.000000 1.000000 -0.000001
vn 0.000000 1.000000 -0.000001
vn 0.000000 1.000000 -0.000001
vn 0.000000 1.000000 -0.000001
vn 0.000000 1.000000 -0.000001
vn 0.000000 1.000000 -0.000001
vn 0.000000 1.000000 -0.000001
vn 0.000000 1.000000 0.000000
vn 0.000000 1.000000 0.000000
vn 0.000000 1.000000 0.000000
vn 0.000000 1.000000 0.000000
vn 0.000000 1.000000 -0.000001
vn 0.000000 1.000000 -0.000001
vn 0.000000 1.000000 -0.000001
vn 0.000000 1.000000 -0.000001
vn 0.000000 1.000000 0.000000
vn 0.000000 1.000000 0.000000
vn 0.000000 1.000000 0.000000
vn 0.000000 1.000000 0.000000
vn 0.000000 1.000000 -0.000001
vn 0.000000 1.000000 -0.000001
vn 0.000000 1.000000 -0.000001
vn 0.000000 1.000000 -0.000001
vn 0.000000 1.000000 0.000000
vn 0.000000 1.000000 0.000000
vn 0.000000 1.000000 0.000000
vn 0.000000 1.000000 0.000000
vn 0.000000 1.000000 -0.000001
vn 0.000000 1.000000 -0.000001
vn 0.000000 1.000000 -0.000001
vn 0.000000 1.000000 -0.000001
vn 0.000000 1.000000 0.000000
vn 0.000000 1.000000 0.000000
vn 0.000000 1.000000 0.000000
vn 0.000000 1.000000 0.000000
vn 0.000000 1.000000 0.000001
vn 0.000000 1.000000 0.000001
vn 0.000000 1.000000 0.000001
vn 0.000000 1.000000 0.000001
vn 0.000000 1.000000 -0.000001
vn 0.000000 1.000000 -0.000001
vn 0.000000 1.000000 -0.000001
vn 0.000000 1.000000 -0.000001
vn 0.000000 1.000000 0.000001
vn 0.000000 1.000000 0.000001
vn 0.000000 1.000000 0.000001
vn 0.000000 1.000000 0.000001
vn -0.879695 0.124633 0.458915
vn -0.552674 0.060479 0.831200
vn -0.565388 0.062603 0.822446
vn -0.880133 0.124740 0.458046
vn -0.043983 0.018322 0.998864
vn -0.094246 0.017710 0.995391
vn 0.506967 0.119255 0.853676
vn 0.427705 0.084643 0.899947
vn 0.823410 0.375565 0.425379
vn 0.799675 0.329631 0.501861
vn 0.869090 0.494654 -0.000000
vn 0.869090 0.494654 -0.000000
vn 0.823410 0.375564 -0.425379
vn 0.799674 0.329631 -0.501861
vn 0.506966 0.119255 -0.853676
vn 0.427704 0.084643 -0.899947
vn -0.043983 0.018322 -0.998864
vn -0.094246 0.017710 -0.995391
vn -0.552674 0.060479 -0.831200
vn -0.565388 0.062603 -0.822446
vn -0.879695 0.124633 -0.458915
vn -0.880133 0.124740 -0.458046
vn -0.988573 0.150740 -0.000000
vn -0.988574 0.150740 -0.000000
vn 0.087502 -0.994883 -0.050519
vn 0.861222 -0.105174 -0.497227
vn 0.994454 -0.105175 0.000000
vn 0.101039 -0.994883 0.000000
vn 0.050519 -0.994883 -0.087502
vn 0.497227 -0.105174 -0.861222
vn 0.000000 -0.994883 -0.101039
vn -0.000000 -0.105174 -0.994454
vn -0.050520 -0.994883 -0.087503
vn -0.497227 -0.105174 -0.861222
vn -0.087502 -0.994883 -0.050520
vn -0.861222 -0.105174 -0.497227
vn -0.101039 -0.994883 -0.000000
vn -0.994454 -0.105174 0.000000
vn -0.087502 -0.994883 0.050519
vn -0.861222 -0.105174 0.497227
vn -0.050520 -0.994882 0.087503
vn -0.497227 -0.105174 0.861222
vn -0.000000 -0.994883 0.101039
vn -0.000000 -0.105174 0.994454
vn 0.050519 -0.994883 0.087502
vn 0.497227 -0.105174 0.861222
vn 0.087502 -0.994883 0.050520
vn 0.861222 -0.105175 0.497227
vn 0.000000 -1.000000 -0.000000
vn 0.499519 -0.043856 -0.865192
vn 0.865192 -0.043857 -0.499519
vn -0.000000 -0.043856 -0.999038
vn -0.499519 -0.043857 -0.865192
vn -0.865192 -0.043857 -0.499519
vn -0.999038 -0.043857 0.000000
vn -0.865192 -0.043857 0.499519
vn -0.499519 -0.043857 0.865192
vn 0.000000 -0.043856 0.999038
vn 0.499519 -0.043856 0.865192
vn 0.865192 -0.043857 0.499519
vn 0.999038 -0.043857 0.000000
s 1
g Tarro pCylinder1
usemtl initialShadingGroup
f 238/151/93 239/350/94 240/153/95
f 239/350/94 241/349/96 240/153/95
f 241/349/96 242/348/97 240/153/95
f 242/348/97 243/347/98 240/153/95
f 243/347/98 244/346/99 240/153/95
f 244/346/99 245/345/100 240/153/95
f 245/345/100 246/342/101 240/153/95
f 246/342/101 247/341/102 240/153/95
f 247/341/102 248/339/103 240/153/95
f 248/339/103 249/338/104 240/153/95
f 249/338/104 250/336/105 240/153/95
f 250/336/105 238/151/93 240/153/95
s 2
f 154/458/106 155/165/107 156/425/108 157/167/109
f 155/165/107 154/458/106 158/456/110 159/169/111
f 159/169/111 158/456/110 160/454/112 161/171/113
f 161/171/113 160/454/112 162/452/114 163/173/115
f 163/173/115 162/452/114 164/450/116 165/175/117
f 165/175/117 164/450/116 166/445/118 167/177/119
f 167/177/119 166/445/118 168/439/120 169/435/121
f 169/179/121 168/440/120 170/434/122 171/181/123
f 171/181/123 170/434/122 172/432/124 173/183/125
f 173/183/125 172/432/124 174/430/126 175/185/127
f 175/185/127 174/430/126 176/427/128 177/187/129
f 177/187/129 176/427/128 157/167/109 156/425/108
s 3
f 178/424/130 179/189/131 180/394/132 181/191/133
f 179/189/131 178/424/130 182/422/134 183/193/135
f 183/193/135 182/422/134 184/420/136 185/195/137
f 185/195/137 184/420/136 186/418/138 187/197/139
f 187/197/139 186/418/138 188/416/140 189/199/141
f 189/199/141 188/416/140 190/411/142 191/201/143
f 191/201/143 190/411/142 192/408/144 193/404/145
f 193/203/145 192/409/144 194/403/146 195/205/147
f 195/205/147 194/403/146 196/401/148 197/207/149
f 197/207/149 196/401/148 198/399/150 199/209/151
f 199/209/151 198/399/150 200/396/152 201/211/153
f 201/211/153 200/396/152 181/191/133 180/394/132
s 4
f 108/500/154 106/502/155 101/507/156 100/508/157
f 110/498/158 108/500/154 100/508/157 99/509/159
f 112/496/160 110/498/158 99/509/159 98/510/161
f 114/494/162 112/496/160 98/510/161 97/511/163
f 116/492/164 114/494/162 97/511/163 96/512/165
f 118/447/166 116/492/164 96/512/165 95/391/167
f 120/490/168 118/446/166 95/392/167 94/513/169
f 122/488/170 120/490/168 94/513/169 93/504/171
f 124/486/172 122/488/170 93/504/171 104/503/173
f 126/483/174 124/486/172 104/503/173 103/505/175
f 128/484/176 126/483/174 103/505/175 102/506/177
f 106/502/155 128/484/176 102/506/177 101/507/156
s 5
f 133/478/178 130/480/179 107/501/180 109/499/181
f 135/476/182 133/478/178 109/499/181 111/497/183
f 137/474/184 135/476/182 111/497/183 113/495/185
f 139/472/186 137/474/184 113/495/185 115/493/187
f 141/470/188 139/472/186 115/493/187 117/491/189
f 143/413/190 141/470/188 117/491/189 119/442/191
f 145/468/192 143/412/190 119/443/191 121/489/193
f 147/466/194 145/468/192 121/489/193 123/487/195
f 149/464/196 147/466/194 123/487/195 125/485/197
f 151/461/198 149/464/196 125/485/197 127/482/199
f 153/462/200 151/461/198 127/482/199 129/481/201
f 130/480/179 153/462/200 129/481/201 107/501/180
s off
f 107/238/202 129/259/203 156/166/204 155/457/205
f 128/234/206 106/213/207 154/164/208 157/428/209
f 106/213/210 108/212/211 158/168/212 154/164/213
f 109/239/214 107/238/215 155/457/216 159/455/217
f 108/212/218 110/216/219 160/170/220 158/168/221
f 111/241/222 109/239/223 159/455/224 161/453/225
f 110/216/226 112/218/227 162/172/228 160/170/229
f 113/243/230 111/241/231 161/453/232 163/451/233
f 112/218/234 114/220/235 164/174/236 162/172/237
f 115/245/238 113/243/239 163/451/240 165/449/241
f 114/220/242 116/222/243 166/176/244 164/174/245
f 117/247/246 115/245/247 165/449/248 167/441/249
f 116/222/250 118/448/251 168/438/252 166/176/253
f 119/249/254 117/247/255 167/441/256 169/436/257
f 118/224/258 120/226/259 170/180/260 168/178/261
f 121/251/262 119/444/263 169/437/264 171/433/265
f 120/226/266 122/228/267 172/182/268 170/180/269
f 123/253/270 121/251/271 171/433/272 173/431/273
f 122/228/274 124/230/275 174/184/276 172/182/277
f 125/255/278 123/253/279 173/431/280 175/429/281
f 124/230/282 126/232/283 176/186/284 174/184/285
f 127/257/286 125/255/287 175/429/288 177/426/289
f 126/232/290 128/234/291 157/428/292 176/186/293
f 129/259/294 127/257/295 177/426/296 156/166/297
f 131/479/298 152/459/299 180/190/300 179/423/301
f 153/258/302 130/237/303 178/188/304 181/397/305
f 130/237/306 133/236/307 182/192/308 178/188/309
f 132/477/310 131/479/311 179/423/312 183/421/313
f 133/236/314 135/240/315 184/194/316 182/192/317
f 134/475/318 132/477/319 183/421/320 185/419/321
f 135/240/322 137/242/323 186/196/324 184/194/325
f 136/473/326 134/475/327 185/419/328 187/417/329
f 137/242/330 139/244/331 188/198/332 186/196/333
f 138/471/334 136/473/335 187/417/336 189/415/337
f 139/244/338 141/246/339 190/200/340 188/198/341
f 140/469/342 138/471/343 189/415/344 191/410/345
f 141/246/346 143/414/347 192/407/348 190/200/349
f 142/334/350 140/469/351 191/410/352 193/405/353
f 143/248/354 145/250/355 194/204/356 192/202/357
f 144/467/358 142/333/359 193/406/360 195/402/361
f 145/250/362 147/252/363 196/206/364 194/204/365
f 146/465/366 144/467/367 195/402/368 197/400/369
f 147/252/370 149/254/371 198/208/372 196/206/373
f 148/463/374 146/465/375 197/400/376 199/398/377
f 149/254/378 151/256/379 200/210/380 198/208/381
f 150/460/382 148/463/383 199/398/384 201/395/385
f 151/256/386 153/258/387 181/397/388 200/210/389
f 152/459/390 150/460/391 201/395/392 180/190/393
f 93/229/394 94/227/395 203/390/396 202/381/397
f 94/227/398 95/393/399 204/378/400 203/390/401
f 95/225/402 96/223/403 205/389/404 204/377/405
f 96/223/406 97/221/407 206/388/408 205/389/409
f 97/221/410 98/219/411 207/387/412 206/388/413
f 98/219/414 99/217/415 208/386/416 207/387/417
f 99/217/418 100/215/419 209/385/420 208/386/421
f 100/215/422 101/214/423 210/384/424 209/385/425
f 101/214/426 102/235/427 211/383/428 210/384/429
f 102/235/430 103/233/431 212/382/432 211/383/433
f 103/233/434 104/231/435 213/380/436 212/382/437
f 104/231/438 93/229/439 202/381/440 213/380/441
s 6
f 202/273/442 203/272/443 215/376/444 214/367/445
f 203/272/443 204/379/446 216/364/447 215/376/444
f 204/274/446 205/275/448 217/375/449 216/363/447
f 205/275/448 206/276/450 218/374/451 217/375/449
f 206/276/450 207/277/452 219/373/453 218/374/451
f 207/277/452 208/278/454 220/372/455 219/373/453
f 208/278/454 209/279/456 221/371/457 220/372/455
f 209/279/456 210/280/458 222/370/459 221/371/457
f 210/280/458 211/281/460 223/369/461 222/370/459
f 211/281/460 212/282/462 224/368/463 223/369/461
f 212/282/462 213/283/464 225/366/465 224/368/463
f 213/283/464 202/273/442 214/367/445 225/366/465
s off
f 214/285/466 215/284/467 227/362/468 226/352/469
f 215/284/470 216/365/471 228/361/472 227/362/473
f 216/286/474 217/287/475 229/359/476 228/360/477
f 217/287/478 218/288/479 230/358/480 229/359/481
f 218/288/482 219/289/483 231/357/484 230/358/485
f 219/289/486 220/290/487 232/356/488 231/357/489
f 220/290/490 221/291/491 233/355/492 232/356/493
f 221/291/494 222/292/495 234/343/496 233/355/497
f 222/292/498 223/293/499 235/354/500 234/343/501
f 223/293/502 224/294/503 236/353/504 235/354/505
f 224/294/506 225/295/507 237/351/508 236/353/509
f 225/295/510 214/285/511 226/352/512 237/351/513
s 7
f 226/297/514 227/296/515 239/152/516 238/337/517
f 227/296/515 228/298/518 241/154/519 239/152/516
f 228/298/518 229/299/520 242/155/521 241/154/519
f 229/299/520 230/300/522 243/156/523 242/155/521
f 230/300/522 231/301/524 244/157/525 243/156/523
f 231/301/524 232/302/526 245/158/527 244/157/525
f 232/302/526 233/303/528 246/159/529 245/158/527
f 233/303/528 234/344/530 247/340/531 246/159/529
f 234/304/530 235/305/532 248/161/533 247/160/531
f 235/305/532 236/306/534 249/162/535 248/161/533
f 236/306/534 237/307/536 250/163/537 249/162/535
f 237/307/536 226/297/514 238/337/517 250/163/537
s 8
f 251/308/538 252/526/539 274/514/540 273/311/541
f 252/526/539 251/308/538 253/312/542 254/525/543
f 254/525/543 253/312/542 255/314/544 256/523/545
f 256/523/545 255/314/544 257/316/546 258/522/547
f 258/522/547 257/316/546 259/318/548 260/521/549
f 260/521/549 259/318/548 261/320/550 262/520/551
f 262/520/551 261/320/550 263/322/552 264/519/553
f 264/519/553 263/322/552 265/324/554 266/518/555
f 266/518/555 265/324/554 267/326/556 268/517/557
f 268/517/557 267/326/556 269/328/558 270/516/559
f 270/516/559 269/328/558 271/330/560 272/515/561
f 272/515/561 271/330/560 273/311/541 274/514/540
f 253/312/542 251/308/538 105/332/562
f 255/314/544 253/312/542 105/332/562
f 257/316/546 255/314/544 105/332/562
f 259/318/548 257/316/546 105/332/562
f 261/320/550 259/318/548 105/332/562
f 263/322/552 261/320/550 105/332/562
f 265/324/554 263/322/552 105/332/562
f 267/326/556 265/324/554 105/332/562
f 269/328/558 267/326/556 105/332/562
f 271/330/560 269/328/558 105/332/562
f 273/311/541 271/330/560 105/332/562
f 251/308/538 273/311/541 105/332/562
f 252/309/539 254/313/543 144/268/563 146/269/564
f 254/313/543 256/524/545 142/267/565 144/268/563
f 256/315/545 258/317/547 140/266/566 142/335/565
f 258/317/547 260/319/549 138/265/567 140/266/566
f 260/319/549 262/321/551 136/264/568 138/265/567
f 262/321/551 264/323/553 134/263/569 136/264/568
f 264/323/553 266/325/555 132/262/570 134/263/569
f 266/325/555 268/327/557 131/260/571 132/262/570
f 268/327/557 270/329/559 152/261/572 131/260/571
f 270/329/559 272/331/561 150/271/573 152/261/572
f 272/331/561 274/310/540 148/270/574 150/271/573
f 274/310/540 252/309/539 146/269/564 148/270/574
g default
v -4.621931 -0.500000 8.364641
v 4.621931 -0.500000 8.364641
v -4.621931 0.000000 8.364641
v 4.621931 0.000000 8.364641
v -4.621931 0.000000 -6.428591
v 4.621931 0.000000 -6.428591
v -4.621931 -0.500000 -6.428591
v 4.621931 -0.500000 -6.428591
v -2.866771 0.000000 4.925435
v 2.866771 0.000000 4.925435
v 2.866771 0.000000 -4.552708
v -2.866771 0.000000 -4.552708
v 1.613176 0.000000 4.925434
v -1.613180 0.000000 4.925434
v -1.613180 0.000000 3.694983
v 1.613176 0.000000 3.694983
vt 0.900641 0.900947
vt 0.930753 0.930374
vt 0.544925 0.000060
vt 0.000000 0.001087
vt 0.001643 0.873146
vt 0.546567 0.872120
vt 0.019109 0.902598
vt 0.414464 0.990305
vt 0.177747 0.203494
vt 0.103848 0.203633
vt 0.442892 0.761732
vt 0.441840 0.202996
vt 0.104901 0.762368
vt 0.367941 0.203135
vt 0.368077 0.275670
vt 0.177884 0.276029
vt 0.959388 0.989279
vt 0.028580 0.902589
vt 0.891168 0.900955
vt 0.385829 0.931400
vt 0.891112 0.871480
vt 0.930809 0.959849
vt 0.959333 0.959804
vt 0.019053 0.873123
vt 0.385884 0.960875
vt 0.900696 0.930421
vt 0.028635 0.932064
vt 0.414408 0.960831
vn 0.000000 0.000000 1.000000
vn 0.000000 0.000000 1.000000
vn 0.000000 0.000000 1.000000
vn 0.000000 0.000000 1.000000
vn 0.000000 0.000000 -1.000000
vn 0.000000 0.000000 -1.000000
vn 0.000000 0.000000 -1.000000
vn 0.000000 0.000000 -1.000000
vn 1.000000 0.000000 0.000000
vn 1.000000 0.000000 0.000000
vn 1.000000 0.000000 0.000000
vn 1.000000 0.000000 0.000000
vn -1.000000 0.000000 0.000000
vn -1.000000 0.000000 0.000000
vn -1.000000 0.000000 0.000000
vn -1.000000 0.000000 0.000000
vn 0.000000 1.000000 0.000000
vn 0.000000 1.000000 0.000000
vn 0.000000 1.000000 0.000000
vn 0.000000 1.000000 0.000000
vn 0.000000 1.000000 0.000000
vn 0.000000 1.000000 0.000000
vn 0.000000 1.000000 0.000000
vn 0.000000 1.000000 0.000000
vn 0.000000 1.000000 0.000000
vn 0.000000 1.000000 0.000000
vn 0.000000 1.000000 0.000000
vn 0.000000 1.000000 0.000000
vn 0.000000 1.000000 0.000000
vn 0.000000 1.000000 0.000000
vn 0.000000 1.000000 0.000000
vn 0.000000 1.000000 0.000000
vn 0.000000 1.000000 0.000000
vn 0.000000 1.000000 0.000000
vn 0.000000 1.000000 0.000000
vn 0.000000 1.000000 0.000000
vn 0.000000 1.000000 0.000000
vn 0.000000 1.000000 0.000000
vn 0.000000 1.000000 0.000000
vn 0.000000 1.000000 0.000000
vn 0.000000 1.000000 0.000000
vn 0.000000 1.000000 0.000000
s off
g Base
usemtl initialShadingGroup
f 275/546/575 276/528/576 278/548/577 277/551/578
f 279/554/579 280/549/580 282/543/581 281/534/582
f 276/545/583 282/533/584 280/550/585 278/547/586
f 281/544/587 275/527/588 277/552/589 279/553/590
f 277/530/591 288/535/592 283/536/593
f 278/529/594 280/532/595 285/537/596 284/538/597
f 280/532/598 279/531/599 286/539/600 285/537/601
f 279/531/602 277/530/603 283/536/604 286/539/605
f 288/535/606 287/540/607 290/541/608 289/542/609
f 277/530/610 278/529/611 287/540/612 288/535/613
f 287/540/614 278/529/615 284/538/616
