# This file uses centimeters as units for non-parametric coordinates.

mtllib CasaGrande.mtl
g default
v -2.455730 0.000000 5.449646
v 2.455731 0.000000 5.449646
v -2.455730 2.000000 5.449646
v 2.455731 2.000000 5.449646
v -2.455730 2.000000 -2.550354
v 2.455731 2.000000 -2.550354
v -2.455730 0.000000 -2.550354
v 2.455731 0.000000 -2.550354
v -2.455730 6.690715 5.449646
v 2.455731 6.690715 5.449646
v 2.455731 6.690715 -2.550354
v -2.455730 6.690715 -2.550354
v -0.224509 10.226007 5.449646
v 0.224509 10.226007 5.449646
v -0.224509 10.226007 -2.550354
v 0.224509 10.226007 -2.550354
vt 0.508388 0.568065
vt 0.844254 0.606936
vt 0.567532 0.251211
vt 0.311828 0.025843
vt 0.961378 0.247703
vt 0.060541 0.028640
vt 0.508068 0.669959
vt 0.841991 0.496087
vt 0.567648 0.482889
vt 0.312848 0.257519
vt 0.063554 0.260299
vt 0.961117 0.016025
vt 0.445995 0.431545
vt 0.423818 0.431643
vt 0.198192 0.433173
vt 0.176016 0.433462
vt 0.113110 0.666236
vt 0.842224 0.594868
vt 0.303102 0.025486
vt 0.306114 0.257145
vt 0.599643 0.595439
vt 0.508169 0.768740
vt 0.962658 0.251013
vt 0.962774 0.482691
vt 0.113043 0.769144
vt 0.844218 0.705717
vt 0.554406 0.024774
vt 0.555427 0.256450
vt 0.601637 0.705628
vt 0.508236 0.666847
vt 0.566252 0.248149
vt 0.565991 0.016471
vt 0.599411 0.496658
vt 0.113263 0.567455
vt 0.112942 0.670363
vt 0.601673 0.606846
vn 0.000000 0.000000 1.000000
vn 0.000000 0.000000 1.000000
vn 0.000000 0.000000 1.000000
vn 0.000000 0.000000 1.000000
vn 0.000000 0.000000 -1.000000
vn 0.000000 0.000000 -1.000000
vn 0.000000 0.000000 -1.000000
vn 0.000000 0.000000 -1.000000
vn 1.000000 0.000000 0.000000
vn 1.000000 0.000000 0.000000
vn 1.000000 0.000000 0.000000
vn 1.000000 0.000000 0.000000
vn -1.000000 0.000000 0.000000
vn -1.000000 0.000000 0.000000
vn -1.000000 0.000000 0.000000
vn -1.000000 0.000000 0.000000
vn 0.000000 0.000000 -1.000000
vn 0.000000 0.000000 -1.000000
vn 0.000000 0.000000 -1.000000
vn 0.000000 0.000000 -1.000000
vn -1.000000 0.000000 0.000000
vn -1.000000 0.000000 0.000000
vn -1.000000 0.000000 0.000000
vn -1.000000 0.000000 0.000000
vn 0.000000 0.000000 1.000000
vn 0.000000 0.000000 1.000000
vn 0.000000 0.000000 1.000000
vn 0.000000 0.000000 1.000000
vn 1.000000 0.000000 0.000000
vn 1.000000 0.000000 0.000000
vn 1.000000 0.000000 0.000000
vn 1.000000 0.000000 0.000000
vn 0.000000 0.000000 1.000000
vn 0.000000 0.000000 1.000000
vn 0.000000 0.000000 1.000000
vn 0.000000 0.000000 1.000000
vn 0.000000 0.000000 -1.000000
vn 0.000000 0.000000 -1.000000
vn 0.000000 0.000000 -1.000000
vn 0.000000 0.000000 -1.000000
s off
g pCube21 Casa_Grande_LP1
usemtl initialShadingGroup
f 1/36/1 2/2/2 4/26/3 3/29/4
f 5/18/5 6/21/6 8/33/7 7/8/8
f 2/35/9 8/7/10 6/22/11 4/25/12
f 7/34/13 1/1/14 3/30/15 5/17/16
f 6/6/17 5/19/18 12/20/19 11/11/20
f 5/5/21 3/31/22 9/32/23 12/12/24
f 4/27/25 10/28/26 9/10/27 3/4/28
f 6/23/29 11/24/30 10/9/31 4/3/32
f 9/10/33 10/28/34 14/13/35 13/14/36
f 11/11/37 12/20/38 15/15/39 16/16/40
g default
v -3.000000 -1.057975 6.000001
v 3.000000 -1.057975 6.000001
v -3.000000 -0.000000 6.000001
v 3.000000 -0.000000 6.000001
v -3.000000 -0.000000 -3.000000
v 3.000000 -0.000000 -3.000000
v -3.000000 -1.057975 -3.000000
v 3.000000 -1.057975 -3.000000
v -2.111847 -0.000000 5.026559
v 2.111847 -0.000000 5.026559
v 2.111847 -0.000000 -2.026559
v -2.111847 -0.000000 -2.026559
vt 0.400248 0.917618
vt 0.043812 0.918333
vt 0.575392 0.847314
vt 0.577740 0.490886
vt 0.043097 0.487364
vt 0.040749 0.843792
vt 0.576773 0.925930
vt 0.933208 0.926894
vt 0.517912 0.794173
vt 0.519565 0.543266
vt 0.098924 0.791413
vt 0.100576 0.540506
vt 0.934775 0.853695
vt 0.933038 0.989744
vt 0.934901 0.916545
vt 0.041951 0.987333
vt 0.043686 0.855483
vt 0.576603 0.988779
vt 0.400122 0.854768
vt 0.042121 0.924483
vn 0.000000 0.000000 1.000000
vn 0.000000 0.000000 1.000000
vn 0.000000 0.000000 1.000000
vn 0.000000 0.000000 1.000000
vn 0.000000 0.000000 -1.000000
vn 0.000000 0.000000 -1.000000
vn 0.000000 0.000000 -1.000000
vn 0.000000 0.000000 -1.000000
vn 1.000000 0.000000 0.000000
vn 1.000000 0.000000 0.000000
vn 1.000000 0.000000 0.000000
vn 1.000000 0.000000 0.000000
vn -1.000000 0.000000 0.000000
vn -1.000000 0.000000 0.000000
vn -1.000000 0.000000 0.000000
vn -1.000000 0.000000 0.000000
vn 0.000000 1.000000 -0.000000
vn 0.000000 1.000000 -0.000000
vn 0.000000 1.000000 -0.000000
vn 0.000000 1.000000 -0.000000
vn 0.000000 1.000000 0.000000
vn 0.000000 1.000000 0.000000
vn 0.000000 1.000000 0.000000
vn 0.000000 1.000000 0.000000
vn 0.000000 1.000000 0.000000
vn 0.000000 1.000000 0.000000
vn 0.000000 1.000000 0.000000
vn 0.000000 1.000000 0.000000
vn 0.000000 1.000000 0.000000
vn 0.000000 1.000000 0.000000
vn 0.000000 1.000000 0.000000
vn 0.000000 1.000000 0.000000
s off
g pCube22
usemtl initialShadingGroup
f 17/37/41 18/38/42 20/53/43 19/55/44
f 21/50/45 22/54/46 24/43/47 23/44/48
f 18/56/49 24/43/50 22/54/51 20/52/52
f 23/51/53 17/37/54 19/55/55 21/49/56
f 19/40/57 20/39/58 26/45/59 25/46/60
f 20/39/61 22/42/62 27/47/63 26/45/64
f 22/42/65 21/41/66 28/48/67 27/47/68
f 21/41/69 19/40/70 25/46/71 28/48/72
g default
v 2.645064 6.869475 -2.785034
v 1.497256 8.467124 -2.741028
v 0.149707 10.480834 -2.677414
v -0.149716 10.480835 -2.677414
v -1.497280 8.467128 -2.741028
v -2.645084 6.869482 -2.785034
v -3.542665 5.704555 -2.785034
v -3.180268 5.704555 -2.785034
v -2.306867 6.869481 -2.785034
v -1.163882 8.467126 -2.741028
v -0.155931 9.982996 -2.696198
v 0.155887 9.982995 -2.696198
v 1.163825 8.467125 -2.741028
v 2.306818 6.869477 -2.785034
v 3.180250 5.704555 -2.785034
v 3.542658 5.704555 -2.785034
v 2.645072 6.869475 5.684219
v 1.497262 8.467124 5.640152
v 0.149714 10.480834 5.576538
v -0.149709 10.480835 5.576538
v -1.497274 8.467128 5.640152
v -2.645077 6.869482 5.684219
v -3.542659 5.704555 5.684219
v -3.180250 5.704555 5.684219
v -2.306849 6.869480 5.684219
v -1.163867 8.467126 5.640152
v -0.155930 9.982997 5.594849
v 0.155889 9.982995 5.594849
v 1.163840 8.467126 5.640152
v 2.306835 6.869477 5.684219
v 3.180268 5.704555 5.684219
v 3.542665 5.704555 5.684219
v 3.745965 5.604555 5.872925
v 3.745960 5.604555 5.684204
v 3.130277 5.604555 5.872940
v 3.130259 5.604555 5.684219
v -1.579458 8.524125 5.640152
v -2.725313 6.929190 5.684219
v -2.725306 6.929190 5.872940
v -1.579451 8.524126 5.826920
v 2.725307 6.929183 5.684219
v 1.579445 8.524120 5.640152
v 1.579452 8.524120 5.826920
v 2.725313 6.929183 5.872940
v 0.203121 10.580833 5.576538
v 0.203127 10.580834 5.760452
v -3.745951 5.604554 5.684219
v -3.745944 5.604554 5.872940
v -0.203108 10.580835 5.760468
v -0.203115 10.580835 5.576538
v -3.130222 5.604555 5.872925
v -3.130239 5.604555 5.684219
v -0.102334 9.882997 5.594849
v 0.102293 9.882995 5.594849
v 0.102295 9.882996 5.779755
v -0.102331 9.882996 5.779755
v -1.081526 8.410334 5.826920
v -1.081542 8.410332 5.640137
v -2.226153 6.810387 5.872925
v -2.226170 6.810387 5.684204
v 2.226173 6.810384 5.872940
v 2.226156 6.810383 5.684219
v 1.081531 8.410332 5.826920
v 1.081516 8.410332 5.640152
v 1.579433 8.524121 -2.927750
v 2.725294 6.929183 -2.973755
v 1.579439 8.524120 -2.741028
v 2.725300 6.929183 -2.785034
v 0.203107 10.580834 -2.861313
v 0.203114 10.580833 -2.677414
v -0.203122 10.580835 -2.677414
v -0.203129 10.580835 -2.861313
v -1.579463 8.524124 -2.741028
v -1.579470 8.524124 -2.927750
v -2.725327 6.929190 -2.973755
v -2.725320 6.929190 -2.785034
v -3.745956 5.604555 -2.785019
v -3.745965 5.604555 -2.973740
v -3.130258 5.604554 -2.785034
v -3.130276 5.604555 -2.973755
v -2.226186 6.810387 -2.785034
v -2.226204 6.810388 -2.973755
v -1.081557 8.410332 -2.741028
v -1.081574 8.410332 -2.927750
v -0.102336 9.882996 -2.696198
v -0.102338 9.882996 -2.880768
v 0.102289 9.882995 -2.880768
v 0.102290 9.882996 -2.696198
v 1.081500 8.410332 -2.741028
v 1.081486 8.410331 -2.927750
v 2.226139 6.810383 -2.785019
v 2.226122 6.810383 -2.973740
v 3.130241 5.604555 -2.785034
v 3.130223 5.604555 -2.973740
v 3.745952 5.604554 -2.785034
v 3.745946 5.604554 -2.973755
v 2.306829 6.869477 5.217819
v 1.163835 8.467126 5.178558
v 0.155889 9.982995 5.137802
v -0.155930 9.982997 5.137802
v -1.163872 8.467126 5.178558
v -2.306855 6.869480 5.217819
v 2.306824 6.869477 -2.318619
v 1.163830 8.467126 -2.279495
v 0.155888 9.982995 -2.240067
v -0.155931 9.982997 -2.240067
v -1.163877 8.467126 -2.279495
v -2.306861 6.869479 -2.318619
v 0.088822 10.406749 -2.861311
v 0.088822 10.143040 -2.880766
v -0.088845 10.143041 -2.880766
v -0.088845 10.406749 -2.861311
v 0.120335 11.093953 -4.571806
v 0.120335 10.744550 -4.650831
v -0.120358 10.744551 -4.650831
v -0.120358 11.093953 -4.571806
vt 0.821051 0.434971
vt 0.756981 0.432762
vt 0.385240 0.450881
vt 0.922833 0.377335
vt 0.676889 0.636755
vt 0.729720 0.685760
vt 0.233190 0.524522
vt 0.232818 0.638225
vt 0.199002 0.686822
vt 0.783224 0.507675
vt 0.225560 0.584146
vt 0.226355 0.698041
vt 0.767849 0.529540
vt 0.825099 0.645395
vt 0.413646 0.640144
vt 0.412017 0.526452
vt 0.384704 0.538114
vt 0.193859 0.476420
vt 0.222990 0.496950
vt 0.749453 0.415466
vt 0.246639 0.795201
vt 0.724547 0.782413
vt 0.687674 0.426286
vt 0.227585 0.781423
vt 0.676889 0.780006
vt 0.455640 0.543539
vt 0.933741 0.995256
vt 0.260031 0.649777
vt 0.255989 0.752097
vt 0.922833 0.692487
vt 0.189059 0.847434
vt 0.933741 0.680660
vt 0.922833 0.794569
vt 0.260631 0.535881
vt 0.922833 0.908142
vt 0.922833 0.464449
vt 0.386563 0.651997
vt 0.922833 0.578296
vt 0.772445 0.621375
vt 0.648704 0.708075
vt 0.195511 0.830070
vt 0.772445 0.764666
vt 0.704846 0.797073
vt 0.214775 0.843644
vt 0.704846 0.653807
vt 0.448370 0.685273
vt 0.445322 0.571611
vt 0.704847 0.540118
vt 0.704847 0.443330
vt 0.445981 0.474821
vt 0.417604 0.496380
vt 0.936924 0.376068
vt 0.936924 0.463295
vt 0.418158 0.583612
vt 0.936924 0.577185
vt 0.421438 0.697462
vt 0.936924 0.679574
vt 0.233271 0.807241
vt 0.223561 0.800401
vt 0.936924 0.691417
vt 0.936924 0.793740
vt 0.936924 0.907567
vt 0.772445 0.375301
vt 0.772445 0.410924
vt 0.654491 0.708192
vt 0.654895 0.594299
vt 0.830887 0.645469
vt 0.830452 0.531576
vt 0.650729 0.454065
vt 0.750191 0.421987
vt 0.735918 0.431818
vt 0.664838 0.444001
vt 0.737779 0.572101
vt 0.722231 0.604646
vt 0.718790 0.490804
vt 0.735505 0.685972
vt 0.730956 0.770972
vt 0.713371 0.405856
vt 0.012039 0.397588
vt 0.012039 0.887689
vt 0.203280 0.424401
vt 0.096395 0.424401
vt 0.090331 0.397588
vt 0.203433 0.397588
vt 0.307166 0.424401
vt 0.261656 0.739498
vt 0.276088 0.750329
vt 0.324815 0.424401
vt 0.427718 0.424401
vt 0.430241 0.397588
vt 0.548309 0.424401
vt 0.543014 0.397588
vt 0.651338 0.793255
vt 0.827275 0.446514
vt 0.632666 0.887689
vt 0.632666 0.397588
vt 0.316911 0.887689
vt 0.335897 0.887689
vt 0.462879 0.744453
vt 0.460955 0.630738
vt 0.187621 0.631259
vt 0.187174 0.744990
vt 0.316045 0.499339
vt 0.316116 0.518378
vt 0.302220 0.518430
vt 0.351253 0.518246
vt 0.441431 0.860872
vt 0.548309 0.860872
vt 0.337548 0.860872
vt 0.319900 0.860871
vt 0.216977 0.860872
vt 0.096395 0.860872
vt 0.323111 0.625612
vt 0.337695 0.625557
vt 0.312853 0.625651
vt 0.347977 0.625518
vt 0.282223 0.518505
vt 0.302148 0.499392
vt 0.337324 0.518298
vt 0.214859 0.831576
vt 0.297758 0.625707
vt 0.206646 0.825412
vt 0.224037 0.819349
vt 0.215823 0.813184
vt 0.197981 0.573123
vt 0.645118 0.804800
vt 0.772445 0.507675
vt 0.936924 0.994795
vt 0.372701 0.435330
vt 0.674135 0.784109
vt 0.947726 0.994795
vt 0.947726 0.907567
vt 0.372561 0.522564
vt 0.499248 0.010615
vt 0.668418 0.781076
vt 0.378484 0.438234
vt 0.947726 0.793740
vt 0.374924 0.636435
vt 0.947726 0.691417
vt 0.277057 0.743654
vt 0.267426 0.736760
vt 0.947726 0.679574
vt 0.947726 0.577185
vt 0.270937 0.634423
vt 0.947726 0.463295
vt 0.270949 0.520528
vt 0.694063 0.407693
vt 0.947726 0.376068
vt 0.704847 0.407693
vt 0.736403 0.414391
vt 0.269010 0.433316
vt 0.694063 0.443329
vt 0.706845 0.394481
vt 0.263287 0.436339
vt 0.730768 0.417574
vt 0.991603 0.370387
vt 0.694063 0.540118
vt 0.713008 0.491076
vt 0.716442 0.604725
vt 0.694063 0.653807
vt 0.783224 0.788169
vt 0.694063 0.797073
vt 0.772445 0.788169
vt 0.663994 0.437494
vt 0.716009 0.748014
vt 0.783224 0.764666
vt 0.644851 0.451149
vt 0.498981 0.390945
vt 0.721807 0.744942
vt 0.783224 0.621375
vt 0.649106 0.594375
vt 0.922833 0.680660
vt 0.192962 0.745111
vt 0.933741 0.578296
vt 0.265586 0.759037
vt 0.193410 0.631217
vt 0.933741 0.464449
vt 0.767849 0.397130
vt 0.850073 0.455654
vt 0.191803 0.543997
vt 0.756981 0.397130
vt 0.933741 0.377335
vt 0.753900 0.762201
vt 0.676890 0.390647
vt 0.922833 0.995256
vt 0.455167 0.630771
vt 0.933741 0.908142
vt 0.687674 0.390647
vt 0.259131 0.448661
vt 0.457093 0.744650
vt 0.933741 0.794569
vt 0.198663 0.854365
vt 0.933741 0.692487
vt 0.676889 0.426286
vt 0.230253 0.427775
vt 0.505216 0.370387
vt 0.748233 0.759075
vt 0.461412 0.546465
vt 0.820884 0.788622
vt 0.767849 0.786525
vt 0.676889 0.803519
vt 0.730089 0.428805
vt 0.687674 0.803519
vt 0.756981 0.786525
vt 0.687674 0.780006
vt 0.687674 0.636755
vt 0.731990 0.572082
vt 0.767849 0.432762
vt 0.824664 0.531695
vt 0.413884 0.429678
vt 0.756981 0.529540
vt 0.687674 0.523077
vt 0.676889 0.523077
vt 0.767849 0.643240
vt 0.756981 0.643240
vt 0.012594 0.373635
vt 0.826761 0.785703
vt 0.186070 0.546997
vt 0.844356 0.458687
vt 0.012861 0.010615
vt 0.012861 0.031566
vt 0.012861 0.116584
vt 0.554376 0.887689
vt 0.441278 0.887689
vt 0.183257 0.850177
vt 0.468362 0.849852
vt 0.214456 0.887689
vt 0.101684 0.887689
vt 0.505216 0.349436
vt 0.505216 0.264418
vt 0.505216 0.150691
vt 0.505216 0.010615
vt 0.012861 0.230311
vt 0.499248 0.031566
vt 0.499248 0.116584
vt 0.378349 0.522509
vt 0.380709 0.636216
vt 0.327802 0.397588
vt 0.308817 0.397588
vt 0.265149 0.634323
vt 0.265161 0.520592
vt 0.991603 0.349436
vt 0.991603 0.264418
vt 0.991603 0.150691
vt 0.499248 0.370387
vt 0.499248 0.230311
vt 0.783224 0.410924
vt 0.783224 0.375301
vt 0.012594 0.390945
vt 0.991603 0.010615
vt 0.498982 0.373635
vt 0.012861 0.370387
vt 0.386616 0.741622
vt 0.380547 0.738677
vt 0.456985 0.828312
vt 0.427892 0.799661
vt 0.420464 0.783275
vt 0.391736 0.754267
vt 0.197690 0.861009
vt 0.462325 0.846913
vn 0.000000 -1.000000 0.000002
vn 0.000000 -1.000000 0.000002
vn 0.000000 -1.000000 0.000002
vn 0.000000 -1.000000 0.000002
vn -0.822892 0.568197 0.000029
vn -0.803095 0.595851 0.000028
vn -0.802950 0.596046 0.000028
vn -0.822600 0.568620 0.000029
vn -0.005783 0.026085 -0.999643
vn -0.002434 0.010332 -0.999944
vn -0.003888 0.016582 -0.999855
vn -0.005793 0.026953 -0.999620
vn 0.803092 0.595855 -0.000027
vn 0.822895 0.568194 -0.000030
vn 0.822602 0.568617 -0.000030
vn 0.802947 0.596050 -0.000027
vn 0.000013 0.000004 1.000000
vn 0.000013 0.000004 1.000000
vn -0.002407 0.010355 0.999944
vn -0.003869 0.016604 0.999855
vn -0.000025 -0.000019 -1.000000
vn -0.000025 -0.000019 -1.000000
vn 0.831083 0.556148 -0.000031
vn 0.831083 0.556148 -0.000031
vn -0.792136 0.610345 0.000030
vn -0.792136 0.610345 0.000030
vn 0.792130 0.610352 -0.000026
vn 0.792130 0.610352 -0.000026
vn -0.831078 0.556155 0.000031
vn -0.831079 0.556155 0.000031
vn 0.000004 1.000000 -0.000001
vn 0.000004 1.000000 -0.000001
vn 0.000004 1.000000 -0.000001
vn 0.000004 1.000000 -0.000001
vn 0.000002 -1.000000 -0.000002
vn 0.000002 -1.000000 -0.000002
vn 0.000002 -1.000000 -0.000002
vn 0.000002 -1.000000 -0.000002
vn 0.004252 0.028020 0.999598
vn 0.005859 0.026062 0.999643
vn 0.005914 0.026912 0.999620
vn 0.005214 0.028106 0.999591
vn -0.000005 -1.000000 0.000001
vn -0.000005 -1.000000 0.000001
vn -0.000005 -1.000000 0.000001
vn -0.000005 -1.000000 0.000001
vn 0.832721 -0.553693 -0.000037
vn 0.832721 -0.553693 -0.000037
vn 0.832721 -0.553693 -0.000037
vn 0.832721 -0.553693 -0.000037
vn 0.813298 -0.581847 -0.000067
vn 0.813298 -0.581847 -0.000067
vn 0.813298 -0.581847 -0.000067
vn 0.813298 -0.581847 -0.000067
vn 0.800097 -0.599871 -0.000074
vn 0.800097 -0.599871 -0.000074
vn 0.800097 -0.599871 -0.000074
vn 0.800097 -0.599871 -0.000074
vn -0.800085 -0.599887 0.000077
vn -0.800085 -0.599887 0.000077
vn -0.800085 -0.599887 0.000077
vn -0.800085 -0.599887 0.000077
vn -0.813296 -0.581850 0.000069
vn -0.813296 -0.581850 0.000069
vn -0.813296 -0.581850 0.000069
vn -0.813296 -0.581850 0.000069
vn -0.832715 -0.553702 0.000039
vn -0.832715 -0.553702 0.000039
vn -0.832715 -0.553702 0.000039
vn -0.832715 -0.553702 0.000039
vn 0.802947 0.596051 -0.000026
vn 0.822601 0.568619 -0.000026
vn 0.822893 0.568196 -0.000026
vn 0.803091 0.595856 -0.000026
vn 0.831082 0.556150 -0.000027
vn 0.831082 0.556150 -0.000027
vn 0.000004 1.000000 0.000008
vn 0.000004 1.000000 0.000008
vn 0.000004 1.000000 0.000008
vn 0.000004 1.000000 0.000008
vn -0.822893 0.568197 0.000030
vn -0.831080 0.556154 0.000032
vn -0.831080 0.556154 0.000032
vn -0.822600 0.568620 0.000030
vn -0.802950 0.596047 0.000030
vn -0.803095 0.595851 0.000030
vn -0.792136 0.610344 0.000032
vn -0.792136 0.610344 0.000032
vn -0.000001 -1.000000 0.000000
vn -0.000001 -1.000000 0.000000
vn -0.000001 -1.000000 0.000000
vn -0.000001 -1.000000 0.000000
vn 0.800097 -0.599871 -0.000079
vn 0.800097 -0.599871 -0.000079
vn 0.800097 -0.599871 -0.000079
vn 0.800097 -0.599871 -0.000079
vn 0.813299 -0.581846 -0.000075
vn 0.813299 -0.581846 -0.000075
vn 0.813299 -0.581846 -0.000075
vn 0.813299 -0.581846 -0.000075
vn 0.832715 -0.553701 -0.000043
vn 0.832715 -0.553701 -0.000043
vn 0.832715 -0.553701 -0.000043
vn 0.832715 -0.553701 -0.000043
vn -0.000002 -1.000000 0.000000
vn -0.000002 -1.000000 0.000000
vn -0.000002 -1.000000 0.000000
vn -0.000002 -1.000000 0.000000
vn -0.832721 -0.553693 0.000037
vn -0.832721 -0.553693 0.000037
vn -0.832721 -0.553693 0.000037
vn -0.832721 -0.553693 0.000037
vn -0.813296 -0.581851 0.000067
vn -0.813296 -0.581851 0.000067
vn -0.813296 -0.581851 0.000067
vn -0.813296 -0.581851 0.000067
vn -0.800085 -0.599886 0.000074
vn -0.800085 -0.599886 0.000074
vn -0.800085 -0.599886 0.000074
vn -0.800085 -0.599886 0.000074
vn -0.000002 -1.000000 -0.000002
vn -0.000002 -1.000000 -0.000002
vn -0.000002 -1.000000 -0.000002
vn -0.000002 -1.000000 -0.000002
vn 0.792131 0.610352 -0.000026
vn 0.792131 0.610351 -0.000026
vn 0.803593 0.595179 -0.000001
vn 0.822500 0.568766 -0.000001
vn 0.822500 0.568766 -0.000001
vn 0.803593 0.595179 -0.000001
vn 0.831083 0.556149 -0.000001
vn 0.831083 0.556149 -0.000001
vn 0.000003 1.000000 -0.000000
vn 0.000003 1.000000 -0.000000
vn 0.000003 1.000000 -0.000000
vn 0.000003 1.000000 -0.000000
vn -0.822498 0.568768 0.000001
vn -0.831079 0.556155 0.000001
vn -0.831079 0.556155 0.000001
vn -0.822498 0.568768 0.000001
vn -0.803596 0.595175 0.000001
vn -0.803596 0.595175 0.000001
vn -0.792136 0.610345 0.000001
vn -0.792136 0.610345 0.000001
vn 0.000000 -1.000000 -0.000000
vn 0.000000 -1.000000 -0.000000
vn 0.000000 -1.000000 -0.000000
vn 0.000000 -1.000000 -0.000000
vn 0.813298 -0.581848 -0.000010
vn 0.813298 -0.581848 -0.000010
vn 0.813298 -0.581848 -0.000010
vn 0.813298 -0.581848 -0.000010
vn 0.832717 -0.553699 -0.000005
vn 0.832717 -0.553699 -0.000005
vn 0.832717 -0.553699 -0.000005
vn 0.832717 -0.553699 -0.000005
vn -0.000005 -1.000000 -0.000000
vn -0.000005 -1.000000 -0.000000
vn -0.000005 -1.000000 -0.000000
vn -0.000005 -1.000000 -0.000000
vn -0.832719 -0.553696 0.000006
vn -0.832719 -0.553696 0.000006
vn -0.832719 -0.553696 0.000006
vn -0.832719 -0.553696 0.000006
vn -0.813296 -0.581850 0.000010
vn -0.813296 -0.581850 0.000010
vn -0.813296 -0.581850 0.000010
vn -0.813296 -0.581850 0.000010
vn 0.000000 -1.000000 0.000000
vn 0.000000 -1.000000 0.000000
vn 0.000000 -1.000000 0.000000
vn 0.000000 -1.000000 0.000000
vn 0.792131 0.610352 -0.000001
vn 0.792131 0.610352 -0.000001
vn -0.000005 0.000016 -1.000000
vn -0.000049 -0.000015 -1.000000
vn -0.000049 -0.000015 -1.000000
vn -0.000005 0.000016 -1.000000
vn -0.017131 -0.017871 -0.999694
vn -0.007270 -0.010117 -0.999922
vn -0.007270 -0.010117 -0.999922
vn -0.017131 -0.017871 -0.999694
vn 0.007241 -0.010135 -0.999923
vn 0.017129 -0.017871 -0.999694
vn 0.017129 -0.017871 -0.999694
vn 0.007241 -0.010135 -0.999923
vn -0.005848 0.026075 0.999643
vn -0.005903 0.026924 0.999620
vn 0.017817 -0.015389 -0.999723
vn 0.017817 -0.015389 -0.999723
vn 0.000000 0.000000 -1.000000
vn 0.000000 0.000000 -1.000000
vn -0.017816 -0.015389 -0.999723
vn -0.017816 -0.015389 -0.999723
vn -0.000049 0.000032 -1.000000
vn -0.000049 0.000032 -1.000000
vn -0.017349 -0.014956 -0.999738
vn 0.017299 -0.014995 -0.999738
vn 0.017299 -0.014995 -0.999738
vn -0.017348 -0.014956 -0.999738
vn -0.005200 0.028116 0.999591
vn -0.004231 0.028028 0.999598
vn -0.016325 -0.017666 -0.999711
vn -0.016325 -0.017666 -0.999711
vn 0.002435 0.010336 0.999944
vn 0.003889 0.016587 0.999855
vn -0.007507 -0.010349 -0.999918
vn -0.007506 -0.010349 -0.999918
vn 0.000025 -0.000019 1.000000
vn 0.000025 -0.000019 1.000000
vn 0.007407 -0.010417 -0.999918
vn 0.007407 -0.010417 -0.999918
vn 0.016233 -0.017734 -0.999711
vn 0.016233 -0.017734 -0.999711
vn 0.017123 -0.017860 0.999694
vn 0.007259 -0.010103 0.999923
vn 0.007259 -0.010103 0.999923
vn 0.017123 -0.017860 0.999694
vn 0.017817 -0.015389 0.999723
vn 0.017818 -0.015389 0.999723
vn -0.005808 0.028245 -0.999584
vn -0.005808 0.028245 -0.999584
vn -0.017818 -0.015389 0.999723
vn -0.017819 -0.015389 0.999723
vn -0.017123 -0.017860 0.999694
vn -0.017123 -0.017860 0.999694
vn -0.007233 -0.010121 0.999923
vn -0.007233 -0.010121 0.999923
vn 0.000049 -0.000015 1.000000
vn 0.000049 -0.000015 1.000000
vn 0.000003 0.000016 1.000000
vn 0.000003 0.000016 1.000000
vn -0.007396 -0.010403 0.999919
vn -0.007396 -0.010403 0.999919
vn 0.002407 0.010352 -0.999944
vn 0.003867 0.016598 -0.999855
vn -0.000013 0.000004 -1.000000
vn -0.000013 0.000004 -1.000000
vn -0.016123 -0.017635 0.999714
vn -0.016123 -0.017635 0.999715
vn 0.005776 0.026092 -0.999643
vn 0.005789 0.026958 -0.999620
vn -0.017119 -0.014839 0.999743
vn -0.017119 -0.014838 0.999743
vn 0.005808 0.028245 -0.999584
vn 0.005808 0.028245 -0.999584
vn 0.000000 0.220600 -0.975364
vn 0.000000 0.220600 -0.975364
vn 0.000000 0.220600 -0.975364
vn 0.000000 0.220600 -0.975364
vn 0.017119 -0.014839 0.999743
vn 0.017118 -0.014839 0.999743
vn 0.016155 -0.017611 0.999714
vn 0.016155 -0.017611 0.999714
vn 0.007458 -0.010358 0.999919
vn 0.007458 -0.010358 0.999919
vn 0.000048 0.000032 1.000000
vn 0.000048 0.000032 1.000000
vn 0.000000 0.000000 1.000000
vn 0.000000 0.000000 1.000000
vn -0.813296 -0.581850 0.000009
vn -0.813296 -0.581850 0.000009
vn -0.813296 -0.581850 0.000009
vn -0.813296 -0.581850 0.000009
vn -0.832717 -0.553699 0.000005
vn -0.832717 -0.553699 0.000005
vn -0.832717 -0.553699 0.000005
vn -0.832717 -0.553699 0.000005
vn -0.000006 -1.000000 -0.000000
vn -0.000006 -1.000000 -0.000000
vn -0.000006 -1.000000 -0.000000
vn -0.000006 -1.000000 -0.000000
vn 0.832719 -0.553696 -0.000005
vn 0.832719 -0.553696 -0.000005
vn 0.832719 -0.553696 -0.000005
vn 0.832719 -0.553696 -0.000005
vn 0.813298 -0.581847 -0.000009
vn 0.813298 -0.581847 -0.000009
vn 0.813298 -0.581847 -0.000009
vn 0.813298 -0.581847 -0.000009
vn -0.800086 -0.599886 0.000001
vn -0.800086 -0.599886 0.000001
vn -0.800086 -0.599886 0.000001
vn -0.800086 -0.599886 0.000001
vn -0.800086 -0.599886 0.000008
vn -0.800086 -0.599886 0.000008
vn -0.800086 -0.599886 0.000008
vn -0.800086 -0.599886 0.000010
vn -0.800086 -0.599886 0.000010
vn -0.800086 -0.599886 0.000010
vn 0.800097 -0.599871 -0.000001
vn 0.800097 -0.599871 -0.000001
vn 0.800097 -0.599871 -0.000001
vn 0.800097 -0.599871 -0.000001
vn 0.800097 -0.599871 -0.000010
vn 0.800097 -0.599871 -0.000010
vn 0.800097 -0.599871 -0.000010
vn 0.800097 -0.599871 -0.000012
vn 0.800097 -0.599871 -0.000012
vn 0.800097 -0.599871 -0.000012
vn 0.025391 0.037762 -0.998964
vn 0.025391 0.037762 -0.998964
vn 0.025391 0.037762 -0.998964
vn 0.025391 0.037762 -0.998964
vn 0.000000 0.000006 -1.000000
vn 0.000000 0.000006 -1.000000
vn 0.000000 0.000006 -1.000000
vn 0.000000 0.000006 -1.000000
vn -0.025384 0.037764 -0.998964
vn -0.025384 0.037764 -0.998964
vn -0.025384 0.037764 -0.998964
vn -0.025384 0.037764 -0.998964
vn -0.000001 -0.000008 -1.000000
vn -0.000001 -0.000008 -1.000000
vn -0.000001 -0.000008 -1.000000
vn -0.000001 -0.000008 -1.000000
vn 0.999850 -0.002745 0.017089
vn 0.999850 -0.002745 0.017089
vn 0.999850 -0.002745 0.017089
vn 0.999850 -0.002745 0.017089
vn -0.000005 -0.946823 -0.321754
vn -0.000005 -0.946823 -0.321754
vn -0.000005 -0.946823 -0.321754
vn -0.000005 -0.946823 -0.321754
vn -0.999850 -0.002745 0.017089
vn -0.999850 -0.002745 0.017089
vn -0.999850 -0.002745 0.017089
vn -0.999850 -0.002745 0.017089
vn 0.000000 0.927913 0.372797
vn 0.000000 0.927913 0.372797
vn 0.000000 0.927913 0.372797
vn 0.000000 0.927913 0.372797
s off
g Casa_Grande_LP1 Prism1
usemtl lambert2SG
f 62/264/73 61/58/74 63/237/75 64/234/76
s 1
f 65/61/77 66/269/78 67/268/79 68/262/80
s 2
f 93/65/81 94/181/82 120/67/83 118/68/84
s 3
f 69/69/85 70/270/86 71/271/87 72/267/88
s 4
f 63/59/89 61/266/90 72/72/91 89/73/92
s 2
f 94/181/82 124/74/93 122/75/94 120/67/83
s 3
f 73/256/95 74/260/96 71/271/87 70/270/86
s 1
f 67/268/79 66/269/78 75/250/97 76/79/98
s 3
f 72/267/88 61/58/99 62/264/100 69/69/85
s 1
f 77/261/101 78/81/102 65/61/77 68/262/80
s off
f 77/261/103 74/259/104 73/257/105 78/81/106
f 80/240/107 79/244/108 76/79/109 75/250/110
s 4
f 77/80/111 68/64/112 85/84/113 84/85/114
s off
f 81/86/115 82/228/116 83/88/117 84/249/118
f 84/249/119 85/247/120 86/89/121 81/86/122
f 85/247/123 87/243/124 88/91/125 86/89/126
f 87/243/127 79/83/128 80/241/129 88/91/130
f 63/238/131 89/233/132 90/92/133 64/60/134
f 89/233/135 91/230/136 92/94/137 90/92/138
f 91/230/139 83/88/140 82/228/141 92/94/142
s 6
f 94/66/143 93/226/144 95/95/145 96/183/146
f 97/222/147 98/98/148 95/95/145 93/226/144
s off
f 99/219/149 98/98/150 97/222/151 100/217/152
s 7
f 101/101/153 99/99/154 100/218/155 102/216/156
f 102/216/156 103/213/157 104/104/158 101/101/153
f 105/105/159 104/104/158 103/213/157 106/208/160
s off
f 108/203/161 107/205/162 105/105/163 106/208/164
f 109/109/165 107/108/166 108/204/167 110/201/168
f 111/111/169 109/109/170 110/201/171 112/199/172
f 113/113/173 111/111/174 112/199/175 114/198/176
f 114/198/177 115/195/178 116/116/179 113/113/180
f 117/117/181 116/116/182 115/195/183 118/193/184
f 119/118/185 117/117/186 118/193/187 120/188/188
f 121/184/189 119/118/190 120/188/191 122/187/192
f 124/303/193 123/120/194 121/119/195 122/304/196
s 6
f 96/183/146 123/120/197 124/303/198 94/66/143
s 8
f 29/291/199 30/302/200 46/289/201 45/278/202
f 31/301/203 47/308/204 46/289/201 30/302/200
s off
f 48/305/205 47/272/206 31/307/207 32/224/208
s 9
f 49/287/209 48/288/210 32/306/211 33/300/212
f 33/300/212 34/299/213 50/286/214 49/287/209
f 51/285/215 50/286/214 34/299/213 35/298/216
s off
f 36/212/217 52/252/218 51/285/219 35/298/220
f 135/137/221 136/138/222 37/139/223 38/140/224
f 134/141/225 135/137/226 38/140/227 39/295/228
f 39/295/229 40/294/230 133/144/231 134/141/232
f 132/145/233 133/144/234 40/294/235 41/146/236
f 131/147/237 132/145/238 41/146/239 42/148/240
f 44/290/241 60/277/242 59/276/243 43/190/244
s 8
f 45/278/202 60/277/245 44/290/246 29/291/199
s 10
f 59/275/247 60/150/248 62/57/249 64/235/250
f 49/129/251 50/132/252 66/62/253 65/263/254
f 45/124/255 46/123/256 70/70/257 69/265/258
s 4
f 72/72/91 71/71/259 91/93/260 89/73/92
s 10
f 46/123/256 47/273/261 73/255/262 70/70/257
f 50/132/252 51/133/263 75/78/264 66/62/253
f 60/150/248 45/124/255 69/265/258 62/57/249
f 48/127/265 49/129/251 65/263/254 78/258/266
f 47/126/261 48/127/265 78/258/266 73/76/262
f 51/133/263 52/253/267 80/239/268 75/78/264
f 55/315/269 56/281/270 82/87/271 81/248/272
s 4
f 77/80/111 84/85/114 83/231/273 74/77/274
s 10
f 54/155/275 55/282/269 81/316/272 86/246/276
s 4
f 67/63/277 87/90/278 85/84/113 68/64/112
s 10
f 53/156/279 54/155/275 86/246/276 88/242/280
s 4
f 79/245/281 87/90/278 67/63/277 76/251/282
s 10
f 52/254/267 53/156/279 88/242/280 80/82/268
f 58/157/283 59/274/247 64/236/250 90/232/284
f 57/158/285 58/157/283 90/232/284 92/229/286
s 4
f 74/313/274 83/314/273 91/93/260 71/71/259
s 10
f 56/281/270 57/158/285 92/229/286 82/87/271
s 14
f 30/122/287 29/121/288 96/96/289 95/227/290
f 31/125/291 30/122/287 95/227/290 98/223/292
s 2
f 97/97/293 93/65/81 118/68/84 115/115/294
s 14
f 32/128/295 31/125/291 98/223/292 99/220/296
f 33/130/297 32/225/295 99/221/296 101/215/298
f 34/131/299 33/130/297 101/215/298 104/214/300
f 35/134/301 34/131/299 104/214/300 105/209/302
f 36/211/303 35/134/301 105/209/302 107/206/304
f 37/297/305 36/210/303 107/207/304 109/202/306
s 15
f 103/103/307 110/110/308 108/107/309 106/106/310
s 14
f 38/296/311 37/297/305 109/202/306 111/200/312
s 15
f 102/102/313 112/112/314 110/110/308 103/103/307
s 14
f 39/142/315 38/296/311 111/200/312 113/197/316
s 15
f 100/311/317 114/312/318 112/112/314 102/102/313
s off
f 141/159/319 142/160/320 143/161/321 144/174/322
s 14
f 40/143/323 39/142/315 113/197/316 116/196/324
f 41/293/325 40/309/323 116/310/324 117/194/326
f 42/292/327 41/293/325 117/194/326 119/189/328
f 43/192/329 42/292/327 119/189/328 121/185/330
f 44/149/331 43/191/329 121/186/330 123/182/332
f 29/121/288 44/149/331 123/182/332 96/96/289
s off
f 58/279/333 57/280/334 126/163/335 125/164/336
f 57/280/337 56/154/338 127/165/339 126/163/340
f 128/166/341 127/165/342 56/154/343 55/153/344
f 55/153/345 54/283/346 129/167/347 128/166/348
f 54/283/349 53/284/350 130/168/351 129/167/352
f 43/152/353 59/151/354 125/164/355 131/147/356
f 59/151/357 58/279/358 125/164/359
f 42/148/360 43/152/361 131/147/362
f 52/136/363 36/135/364 136/138/365 130/168/366
f 52/136/367 130/168/368 53/284/369
f 136/138/370 36/135/371 37/139/372
f 97/97/373 115/115/374 138/180/375 137/178/376
f 115/115/377 114/114/378 139/179/379 138/180/380
f 114/114/381 100/100/382 140/176/383 139/179/384
f 100/100/385 97/97/386 137/178/387 140/176/388
f 137/170/389 138/169/390 142/160/391 141/175/392
f 138/169/393 139/171/394 143/161/395 142/160/396
f 139/171/397 140/177/398 144/173/399 143/161/400
f 140/172/401 137/170/402 141/175/403 144/162/404
