# This file uses centimeters as units for non-parametric coordinates.

mtllib CasaPobreLP.mtl
g default
v -1.999973 0.000000 2.999977
v 1.999973 0.000000 2.999977
v -2.066510 3.155694 2.999977
v 2.066510 3.155694 2.999977
v -2.066510 3.155694 -2.999977
v 2.066510 3.155694 -2.999977
v -1.999973 0.000000 -2.999977
v 1.999973 0.000000 -2.999977
v -0.035894 6.489645 2.999977
v 0.035894 6.489645 2.999977
v 0.035894 6.489645 -2.999977
v -0.035894 6.489645 -2.999977
vt 0.597353 0.315446
vt 0.977689 0.010296
vt 0.597482 0.014657
vt 0.604639 0.303089
vt 0.044575 0.606246
vt 0.327640 0.993084
vt 0.044663 0.305400
vt 0.045874 0.611637
vt 0.800021 0.609184
vt 0.793407 0.609220
vt 0.639313 0.806731
vt 0.639156 0.813343
vt 0.044695 0.014596
vt 0.037127 0.980056
vt 0.336677 0.612409
vt 0.044575 0.315446
vt 0.597450 0.305462
vt 0.985416 0.300998
vt 0.609172 0.012320
vt 0.597353 0.606246
vn 0.000000 0.000000 1.000000
vn 0.000000 0.000000 1.000000
vn 0.000000 0.000000 1.000000
vn 0.000000 0.000000 1.000000
vn 0.000000 0.000000 -1.000000
vn 0.000000 0.000000 -1.000000
vn 0.000000 0.000000 -1.000000
vn 0.000000 0.000000 -1.000000
vn 0.999778 -0.021080 0.000000
vn 0.999778 -0.021080 0.000000
vn 0.999778 -0.021080 0.000000
vn 0.999778 -0.021080 0.000000
vn -0.999778 -0.021080 0.000000
vn -0.999778 -0.021080 0.000000
vn -0.999778 -0.021080 0.000000
vn -0.999778 -0.021080 0.000000
vn 0.000000 0.000000 1.000000
vn 0.000000 0.000000 1.000000
vn 0.000000 0.000000 1.000000
vn 0.000000 0.000000 1.000000
vn 0.000000 0.000000 -1.000000
vn 0.000000 0.000000 -1.000000
vn 0.000000 0.000000 -1.000000
vn 0.000000 0.000000 -1.000000
s off
g pCube63 CasaPobre_lp
usemtl initialShadingGroup
f 1/19/1 2/2/2 4/18/3 3/4/4
f 5/15/5 6/6/6 8/14/7 7/8/8
f 2/17/9 8/7/10 6/13/11 4/3/12
f 7/16/13 1/1/14 3/20/15 5/5/16
f 3/4/17 4/18/18 10/9/19 9/10/20
f 6/6/21 5/15/22 12/11/23 11/12/24
