# This file uses centimeters as units for non-parametric coordinates.

mtllib DecoracionCasaGrande.mtl
g default
v 4.926239 3.853859 -0.841612
v 4.926239 4.146141 -0.841612
v 0.331554 3.853859 -0.841612
v 0.331554 4.146141 -0.841612
v 0.014777 3.853859 -1.158388
v 0.014777 4.146141 -1.158388
v 5.243015 3.853859 -1.158388
v 5.243015 4.146141 -1.158388
v 4.926239 3.853859 6.841612
v 4.926239 4.146141 6.841612
v 5.243015 3.853859 7.158386
v 5.243015 4.146141 7.158386
v 0.331554 3.853859 6.841612
v 0.331554 4.146141 6.841612
v 0.014777 4.146141 7.158386
v 0.014777 3.853859 7.158386
vt 0.054619 0.267622
vt 0.030315 0.267931
vt 0.146997 0.266592
vt 0.122691 0.266631
vt 0.260371 0.937583
vt 0.004308 0.294608
vt 0.096389 0.293016
vt 0.182946 0.555567
vt 0.297669 0.967955
vt 0.321976 0.967823
vt 0.319608 0.533040
vt 0.295302 0.533172
vt 0.348175 0.941336
vt 0.174394 0.931844
vt 0.269102 0.559659
vt 0.089416 0.932529
vt 0.346094 0.559239
vt 0.063409 0.959205
vt 0.039104 0.959514
vt 0.012428 0.933507
vt 0.271183 0.941755
vt 0.148092 0.958229
vt 0.123785 0.958268
vt 0.097400 0.931966
vt 0.234057 0.963956
vt 0.173383 0.292894
vt 0.209750 0.963984
vt 0.183377 0.937670
vt 0.259939 0.555481
vt 0.233566 0.529167
vt 0.081296 0.293629
vt 0.209259 0.529194
vn 0.000000 0.000000 -1.000000
vn 0.000000 0.000000 -1.000000
vn 0.000000 0.000000 -1.000000
vn 0.000000 0.000000 -1.000000
vn 0.000000 1.000000 0.000000
vn 0.000000 1.000000 0.000000
vn 0.000000 1.000000 0.000000
vn 0.000000 1.000000 0.000000
vn 0.000000 -1.000000 0.000001
vn 0.000000 -1.000000 0.000001
vn 0.000000 -1.000000 0.000001
vn 0.000000 -1.000000 0.000001
vn 0.000000 -1.000000 0.000000
vn 0.000000 -1.000000 0.000000
vn 0.000000 -1.000000 0.000000
vn 0.000000 -1.000000 0.000000
vn 1.000000 0.000000 0.000000
vn 1.000000 0.000000 0.000000
vn 1.000000 0.000000 0.000000
vn 1.000000 0.000000 0.000000
vn 0.000000 1.000000 0.000000
vn 0.000000 1.000000 0.000000
vn 0.000000 1.000000 0.000000
vn 0.000000 1.000000 0.000000
vn 0.000000 1.000000 0.000000
vn 0.000000 1.000000 0.000000
vn 0.000000 1.000000 0.000000
vn 0.000000 1.000000 0.000000
vn -1.000000 0.000000 0.000000
vn -1.000000 0.000000 0.000000
vn -1.000000 0.000000 0.000000
vn -1.000000 0.000000 0.000000
vn 0.000000 -1.000000 0.000000
vn 0.000000 -1.000000 0.000000
vn 0.000000 -1.000000 0.000000
vn 0.000000 -1.000000 0.000000
vn 0.000000 0.000000 1.000000
vn 0.000000 0.000000 1.000000
vn 0.000000 0.000000 1.000000
vn 0.000000 0.000000 1.000000
vn 0.000000 1.000000 0.000000
vn 0.000000 1.000000 0.000000
vn 0.000000 1.000000 0.000000
vn 0.000000 1.000000 0.000000
vn 0.000000 -1.000000 -0.000001
vn 0.000000 -1.000000 -0.000001
vn 0.000000 -1.000000 -0.000001
vn 0.000000 -1.000000 -0.000001
s off
g pCube3 Casa_Grande_LP1
usemtl initialShadingGroup
f 5/32/1 6/30/2 8/25/3 7/27/4
f 2/5/5 8/25/6 6/30/7 4/29/8
f 7/27/9 1/28/10 3/8/11 5/32/12
f 1/7/13 7/4/14 11/23/15 9/24/16
f 7/4/17 8/3/18 12/22/19 11/23/20
f 8/3/21 2/26/22 10/14/23 12/22/24
f 4/6/25 6/2/26 15/19/27 14/20/28
f 6/2/29 5/1/30 16/18/31 15/19/32
f 5/1/33 3/31/34 13/16/35 16/18/36
f 11/10/37 12/9/38 15/12/39 16/11/40
f 15/12/41 12/9/42 10/21/43 14/15/44
f 11/10/45 16/11/46 13/17/47 9/13/48
g default
v -2.316165 0.000000 -0.865436
v -2.047036 0.000000 -0.865436
v -2.316165 6.783196 -0.865436
v -2.047036 6.783196 -0.865436
v -2.316165 6.783196 -1.134564
v -2.047036 6.783196 -1.134564
v -2.316165 0.000000 -1.134564
v -2.047036 0.000000 -1.134564
vt 0.905614 0.324907
vt 0.854037 0.300200
vt 0.839796 0.970725
vt 0.891373 0.995432
vt 0.865368 0.970293
vt 0.890941 0.969860
vt 0.854470 0.325772
vt 0.880042 0.325339
vt 0.828898 0.326204
vt 0.803326 0.326636
vt 0.879609 0.299767
vt 0.865801 0.995864
vt 0.814224 0.971158
vt 0.916512 0.969428
vn 0.000000 0.000000 1.000000
vn 0.000000 0.000000 1.000000
vn 0.000000 0.000000 1.000000
vn 0.000000 0.000000 1.000000
vn 0.000000 1.000000 0.000000
vn 0.000000 1.000000 0.000000
vn 0.000000 1.000000 0.000000
vn 0.000000 1.000000 0.000000
vn 0.000000 0.000000 -1.000000
vn 0.000000 0.000000 -1.000000
vn 0.000000 0.000000 -1.000000
vn 0.000000 0.000000 -1.000000
vn 0.000000 -1.000000 0.000000
vn 0.000000 -1.000000 0.000000
vn 0.000000 -1.000000 0.000000
vn 0.000000 -1.000000 0.000000
vn 1.000000 0.000000 0.000000
vn 1.000000 0.000000 0.000000
vn 1.000000 0.000000 0.000000
vn 1.000000 0.000000 0.000000
vn -1.000000 0.000000 0.000000
vn -1.000000 0.000000 0.000000
vn -1.000000 0.000000 0.000000
vn -1.000000 0.000000 0.000000
s off
g Casa_Grande_LP1 pCube2
usemtl initialShadingGroup
f 17/42/49 18/41/50 20/35/51 19/45/52
f 19/36/53 20/44/54 22/37/55 21/38/56
f 21/38/57 22/37/58 24/39/59 23/40/60
f 23/40/61 24/39/62 18/34/63 17/43/64
f 18/41/65 24/39/66 22/37/67 20/35/68
f 23/40/69 17/33/70 19/46/71 21/38/72
g default
v 1.825469 1.474225 -0.894951
v 2.032143 1.267550 -0.894951
v 3.448861 3.097618 -0.894951
v 3.655536 2.890943 -0.894951
v 3.448861 3.097618 -1.105049
v 3.655536 2.890943 -1.105049
v 1.825469 1.474225 -1.105049
v 2.032143 1.267550 -1.105049
vt 0.261580 0.501246
vt 0.211250 0.522237
vt 0.211271 0.501196
vt 0.240540 0.501225
vt 0.211495 0.271287
vt 0.240764 0.271315
vt 0.190455 0.271266
vt 0.240785 0.250275
vt 0.211515 0.250247
vt 0.261804 0.271336
vt 0.190231 0.501176
vt 0.240520 0.522265
vn 0.707107 0.707106 0.000000
vn 0.707107 0.707106 0.000000
vn 0.707107 0.707106 0.000000
vn 0.707107 0.707106 0.000000
vn 0.000000 0.000000 -1.000000
vn 0.000000 0.000000 -1.000000
vn 0.000000 0.000000 -1.000000
vn 0.000000 0.000000 -1.000000
vn -0.707107 -0.707107 0.000000
vn -0.707107 -0.707107 0.000000
vn -0.707107 -0.707107 0.000000
vn -0.707107 -0.707107 0.000000
vn 0.707107 -0.707107 0.000000
vn 0.707107 -0.707107 0.000000
vn 0.707107 -0.707107 0.000000
vn 0.707107 -0.707107 0.000000
vn -0.707107 0.707107 0.000000
vn -0.707107 0.707107 0.000000
vn -0.707107 0.707107 0.000000
vn -0.707107 0.707107 0.000000
s off
g Casa_Grande_LP1 pCube15
usemtl initialShadingGroup
f 27/58/73 28/48/74 30/49/75 29/50/76
f 29/50/77 30/49/78 32/51/79 31/52/80
f 31/52/81 32/51/82 26/55/83 25/54/84
f 26/53/85 32/51/86 30/49/87 28/57/88
f 31/52/89 25/56/90 27/47/91 29/50/92
g default
v -4.317800 2.085646 -2.318689
v -3.317800 0.645892 -2.318689
v -4.368217 3.536637 -2.268271
v -3.267382 3.536637 -2.268271
v -4.368217 3.536637 -3.369106
v -3.267382 3.536637 -3.369106
v -4.317800 2.085646 -3.318689
v -3.317800 0.645892 -3.318689
v -3.301135 2.861771 -3.335354
v -4.334464 2.861777 -3.335354
v -4.334464 2.861777 -2.302025
v -3.301135 2.861771 -2.302025
v -4.187819 3.536637 -2.448669
v -3.447780 3.536637 -2.448669
v -3.447780 3.536637 -3.188708
v -4.187819 3.536637 -3.188708
v -4.187819 2.921836 -2.448669
v -3.447780 2.921836 -2.448669
v -3.447780 2.921836 -3.188708
v -4.187819 2.921836 -3.188708
vt 0.722391 0.236843
vt 0.811320 0.236843
vt 0.640818 0.454805
vt 0.734043 0.454805
vt 0.734043 0.361580
vt 0.640818 0.361580
vt 0.899570 0.236843
vt 0.633691 0.236843
vt 0.887556 0.051106
vt 0.988474 0.165119
vt 0.723698 0.176058
vt 0.803680 0.055271
vt 0.979666 0.309055
vt 0.978602 0.497064
vt 0.979312 0.371725
vt 0.978957 0.434394
vt 0.927602 0.308760
vt 0.926538 0.496770
vt 0.927247 0.371430
vt 0.926893 0.434100
vt 0.656196 0.439628
vt 0.978247 0.559735
vt 0.926183 0.559440
vt 0.718867 0.439428
vt 0.718665 0.376757
vt 0.655995 0.376958
vt 0.988474 0.236843
vt 0.633691 0.176059
vt 0.633690 0.293604
vt 0.988474 0.293604
vt 0.812668 0.293604
vt 0.904363 0.293604
vt 0.720365 0.293604
vn -0.005273 -0.024009 0.999698
vn -0.005289 -0.023932 0.999700
vn -0.000000 -0.049953 0.998752
vn -0.000000 -0.049953 0.998752
vn -0.000000 -0.049951 -0.998752
vn -0.000000 -0.049951 -0.998752
vn -0.005289 -0.023932 -0.999700
vn -0.005274 -0.024009 -0.999698
vn 0.999836 -0.018095 0.000000
vn 0.999836 -0.018095 0.000000
vn 0.998752 -0.049952 0.000000
vn 0.998752 -0.049952 0.000000
vn -0.999374 -0.035390 0.000000
vn -0.999374 -0.035390 0.000000
vn -0.998752 -0.049952 0.000000
vn -0.998752 -0.049952 0.000000
vn -0.007887 -0.011138 -0.999907
vn -0.007887 -0.011138 -0.999907
vn -0.999770 -0.021466 0.000000
vn -0.999770 -0.021466 0.000000
vn -0.007887 -0.011138 0.999907
vn -0.007887 -0.011138 0.999907
vn 0.999972 -0.007520 0.000000
vn 0.999972 -0.007520 0.000000
vn 0.000000 1.000000 0.000001
vn 0.000000 1.000000 0.000001
vn 0.000000 1.000000 0.000001
vn 0.000000 1.000000 0.000001
vn 0.000000 1.000000 0.000000
vn 0.000000 1.000000 0.000000
vn 0.000000 1.000000 0.000000
vn 0.000000 1.000000 0.000000
vn 0.000000 1.000000 -0.000001
vn 0.000000 1.000000 -0.000001
vn 0.000000 1.000000 -0.000001
vn 0.000000 1.000000 -0.000001
vn 0.000000 1.000000 0.000000
vn 0.000000 1.000000 0.000000
vn 0.000000 1.000000 0.000000
vn 0.000000 1.000000 0.000000
vn 0.000000 0.000000 -1.000000
vn 0.000000 0.000000 -1.000000
vn 0.000000 0.000000 -1.000000
vn 0.000000 0.000000 -1.000000
vn -1.000000 0.000000 0.000000
vn -1.000000 0.000000 0.000000
vn -1.000000 0.000000 0.000000
vn -1.000000 0.000000 0.000000
vn 0.000000 0.000000 1.000000
vn 0.000000 0.000000 1.000000
vn 0.000000 0.000000 1.000000
vn 0.000000 0.000000 1.000000
vn 1.000000 0.000000 0.000000
vn 1.000000 0.000000 0.000000
vn 1.000000 0.000000 0.000000
vn 1.000000 0.000000 0.000000
s 1
g Casa_Grande_LP1 pCube1
usemtl initialShadingGroup
f 43/59/93 44/60/94 36/89/95 35/91/96
s 2
f 37/88/97 38/90/98 41/65/99 42/85/100
s 3
f 44/60/101 41/65/102 38/90/103 36/89/104
s 4
f 42/66/105 43/59/106 35/91/107 37/87/108
s 2
f 42/85/100 41/65/99 40/67/109 39/68/110
s 4
f 39/86/111 33/69/112 43/59/106 42/66/105
s 1
f 33/69/113 34/70/114 44/60/94 43/59/93
s 3
f 34/70/115 40/67/116 41/65/102 44/60/101
s off
f 35/62/117 36/61/118 46/79/119 45/82/120
f 36/61/121 38/64/122 47/84/123 46/79/124
f 38/64/125 37/63/126 48/83/127 47/84/128
f 37/63/129 35/62/130 45/82/131 48/83/132
f 45/72/133 46/80/134 50/81/135 49/76/136
f 46/71/137 47/73/138 51/77/139 50/75/140
f 47/73/141 48/74/142 52/78/143 51/77/144
f 48/74/145 45/72/146 49/76/147 52/78/148
g default
v -1.533226 0.000000 -0.939869
v -0.751538 0.000000 -0.939869
v -1.533226 0.000000 -1.142165
v -0.751538 0.000000 -1.142165
v -1.542745 1.171472 -1.142165
v -1.443505 0.000000 -1.142165
v -0.742019 1.171472 -1.142165
v -0.841259 0.000000 -1.142165
v -1.542745 1.171472 -1.053148
v -1.443505 0.000000 -1.053148
v -0.742019 1.171472 -1.053148
v -0.841259 0.000000 -1.053148
v -1.623114 1.171472 -0.939869
v -1.623114 1.171472 -1.142165
v -0.661650 1.171472 -1.142165
v -0.661650 1.171472 -0.939869
v -1.690996 1.348695 -1.190874
v -1.690996 1.348695 -0.930035
v -0.593768 1.422199 -0.930035
v -0.593768 1.422199 -1.190874
v -0.614910 1.165170 -1.190874
v -1.669854 1.165170 -1.190874
v -1.669854 1.165170 -0.930035
v -0.614910 1.165170 -0.930035
vt 0.433784 0.341420
vt 0.597091 0.164495
vt 0.499297 0.323748
vt 0.495065 0.131975
vt 0.569570 0.133539
vt 0.570784 0.325233
vt 0.611507 0.151264
vt 0.536565 0.133748
vt 0.465989 0.133852
vt 0.612790 0.308129
vt 0.579788 0.308685
vt 0.432997 0.134842
vt 0.430171 0.175342
vt 0.428017 0.132839
vt 0.388509 0.312970
vt 0.430679 0.354765
vt 0.521962 0.132721
vt 0.611615 0.164376
vt 0.612683 0.295017
vt 0.480545 0.132295
vt 0.576900 0.143552
vt 0.619458 0.143572
vt 0.389049 0.348638
vt 0.382852 0.390742
vt 0.620866 0.315690
vt 0.578314 0.316406
vt 0.397914 0.134364
vt 0.400068 0.176868
vt 0.345959 0.313831
vt 0.342327 0.134445
vt 0.424482 0.396869
vt 0.384877 0.133583
vt 0.484777 0.324069
vt 0.471739 0.325464
vt 0.524698 0.324521
vt 0.537778 0.325442
vt 0.438747 0.326453
vt 0.578501 0.151248
vt 0.598159 0.295136
vt 0.626442 0.453291
vt 0.435106 0.439672
vt 0.510175 0.324729
vt 0.624685 0.322657
vt 0.507440 0.132928
vn 0.000000 0.000000 -1.000000
vn 0.000000 0.000000 -1.000000
vn 0.000000 0.000000 -1.000000
vn 0.000000 0.000000 -1.000000
vn -0.997069 -0.076505 0.000000
vn -0.997069 -0.076505 0.000000
vn -0.997069 -0.076505 0.000000
vn -0.997069 -0.076505 0.000000
vn 0.997069 -0.076505 0.000000
vn 0.997069 -0.076505 0.000000
vn 0.997069 -0.076505 0.000000
vn 0.997069 -0.076505 0.000000
vn -0.066840 0.997764 0.000000
vn -0.066840 0.997764 0.000000
vn -0.066840 0.997764 0.000000
vn -0.066840 0.997764 0.000000
vn 0.996431 0.084412 0.000000
vn 0.996431 0.084412 0.000000
vn 0.996431 0.084412 0.000000
vn 0.996431 0.084412 0.000000
vn 0.000000 -0.997673 0.068175
vn 0.000000 -0.997673 0.068175
vn 0.000000 -1.000000 0.000000
vn 0.000000 -1.000000 0.000000
vn -0.996431 0.084412 0.000000
vn -0.996431 0.084412 0.000000
vn -0.996431 0.084412 0.000000
vn -0.996431 0.084412 0.000000
vn -0.993430 -0.114442 0.000000
vn -0.993430 -0.114442 0.000000
vn -0.993430 -0.114442 0.000000
vn -0.993430 -0.114442 0.000000
vn 0.996634 -0.081977 0.000000
vn 0.996634 -0.081977 0.000000
vn 0.996634 -0.081977 0.000000
vn 0.996634 -0.081977 0.000000
vn 0.000000 0.000000 -1.000000
vn 0.000000 0.000000 -1.000000
vn 0.000000 0.000000 -1.000000
vn 0.000000 0.000000 -1.000000
vn 0.000000 0.000000 -1.000000
vn 0.000000 0.000000 -1.000000
vn 0.000000 0.000000 -1.000000
vn 0.000000 0.000000 -1.000000
vn -0.000000 0.000000 -1.000000
vn -0.000000 0.000000 -1.000000
vn -0.000000 0.000000 -1.000000
vn -0.000000 0.000000 -1.000000
vn 0.000000 -0.991733 0.128317
vn 0.000000 -0.991733 0.128317
vn 0.113723 -0.993323 0.019395
vn 0.133625 -0.991032 0.000000
vn 0.133625 -0.991032 0.000000
vn 0.121248 -0.992549 0.012074
vn -0.133625 -0.991032 0.000000
vn -0.113723 -0.993323 0.019395
vn -0.121248 -0.992549 0.012074
vn -0.133625 -0.991032 0.000000
vn 0.000000 -0.991733 0.128317
vn 0.000000 -0.991733 0.128322
s off
g Casa_Grande_LP1 Puerta
usemtl initialShadingGroup
f 62/92/149 61/134/150 63/131/151 64/132/152
f 53/96/153 65/97/154 66/127/155 55/99/156
f 56/100/157 67/125/158 68/128/159 54/103/160
f 69/121/161 70/123/162 71/106/163 72/120/164
f 58/108/165 57/126/166 61/133/167 62/135/168
s 1
f 57/109/169 59/110/170 63/130/171 61/93/172
s off
f 59/124/173 60/111/174 64/95/175 63/94/176
f 75/118/177 70/105/178 69/104/179 74/119/180
f 73/114/181 72/107/182 71/122/183 76/115/184
f 57/126/185 58/108/186 55/99/187 66/127/188
f 60/111/189 59/124/190 67/125/191 56/100/192
f 74/119/193 69/104/194 72/107/195 73/114/196
s 1
f 59/110/170 57/109/169 74/113/197 73/116/198
s 2
f 66/98/199 65/129/200 75/112/201 74/113/202
s 3
f 68/102/203 67/101/204 73/116/205 76/117/206
f 67/101/204 59/110/207 73/116/205
s 2
f 57/109/208 66/98/199 74/113/202
g default
v 0.980271 1.357586 -1.077443
v 0.401784 1.357586 -1.077443
v 0.959224 0.780071 -1.077443
v 0.422831 0.780071 -1.077443
v 0.314719 1.357586 -0.943741
v 0.314719 1.357586 -1.077443
v 0.332677 0.780071 -0.943741
v 0.332677 0.780071 -1.077443
v 1.049378 0.780071 -1.077443
v 1.049378 0.780071 -0.943741
v 1.067336 1.357586 -1.077443
v 1.067336 1.357586 -0.943741
v 1.128355 1.483046 -1.118439
v 0.253700 1.469075 -1.118439
v 0.253700 1.469075 -0.934707
v 1.128355 1.483046 -0.934707
v 1.118188 1.343615 -1.118439
v 0.263866 1.357586 -1.118439
v 0.263866 1.357586 -0.934707
v 1.118188 1.343615 -0.934707
v 0.303694 0.666275 -1.112071
v 1.078361 0.677215 -1.112071
v 1.078361 0.677215 -0.938107
v 0.303694 0.666275 -0.938107
v 0.302481 0.791011 -0.938107
v 0.302481 0.791011 -1.112071
v 1.079574 0.780071 -1.112071
v 1.079574 0.780071 -0.938107
v 0.980271 1.357586 -1.019855
v 0.401784 1.357586 -1.019855
v 0.959224 0.780071 -1.019855
v 0.422831 0.780071 -1.019855
vt 0.087544 0.086802
vt 0.086814 0.224255
vt 0.085850 0.255105
vt 0.204898 0.082191
vt 0.337194 0.242638
vt 0.199335 0.259442
vt 0.024182 0.226085
vt 0.146314 0.052645
vt 0.109974 0.056153
vt 0.005242 0.109914
vt 0.105055 0.224825
vt 0.039146 0.247095
vt 0.082268 0.222322
vt 0.082478 0.067121
vt 0.080081 0.034611
vt 0.111831 0.103700
vt 0.062669 0.068582
vt 0.023449 0.084844
vt 0.011789 0.115145
vt 0.035446 0.113397
vt 0.201867 0.152677
vt 0.048543 0.094489
vt 0.150310 0.157185
vt 0.014315 0.242277
vt 0.044925 0.227970
vt 0.021207 0.228380
vt 0.054632 0.252555
vt 0.057565 0.220090
vt 0.048161 0.109932
vt 0.156513 0.052025
vt 0.013967 0.226285
vt 0.189118 0.259352
vt 0.037948 0.109652
vt 0.152540 0.154987
vt 0.022317 0.130936
vt 0.332146 0.144122
vt 0.200238 0.156915
vt 0.240596 0.145475
vt 0.012102 0.131137
vt 0.035135 0.212248
vt 0.238460 0.244096
vt 0.190020 0.156825
vt 0.162739 0.154366
vt 0.045349 0.212529
vt 0.109675 0.087017
vt 0.008289 0.247766
vt 0.104091 0.255674
vt 0.036023 0.107641
vt 0.235762 0.082444
vt 0.087844 0.055939
vt 0.234637 0.219894
vt 0.203774 0.219642
vt 0.052359 0.237199
vt 0.019767 0.237763
vt 0.060272 0.036072
vt 0.056037 0.085650
vt 0.079335 0.254788
vt 0.144428 0.103568
vt 0.145058 0.258768
vt 0.112461 0.258901
vt 0.174032 0.157267
vt 0.173676 0.259779
vt 0.178181 0.153991
vt 0.172503 0.051636
vt 0.149955 0.259697
vt 0.038030 0.241760
vt 0.196189 0.050322
vt 0.024829 0.093903
vn 0.014121 -0.999900 0.000000
vn 0.014121 -0.999900 0.000000
vn 0.014121 -0.999900 0.000000
vn 0.014121 -0.999900 0.000000
vn 0.000000 0.000000 -1.000000
vn 0.000000 0.000000 -1.000000
vn 0.000000 0.000000 -1.000000
vn 0.000000 0.000000 -1.000000
vn -0.999953 -0.009726 0.000000
vn -0.999953 -0.009726 0.000000
vn -0.999953 -0.009726 0.000000
vn -0.999953 -0.009726 0.000000
vn 0.999931 -0.011793 0.000000
vn 0.999931 -0.011793 0.000000
vn 0.999931 -0.011793 0.000000
vn 0.999931 -0.011793 0.000000
vn -0.015971 0.999873 0.000000
vn -0.015971 0.999873 0.000000
vn -0.015971 0.999873 0.000000
vn -0.015971 0.999873 0.000000
vn -0.995868 -0.090815 0.000000
vn -0.995868 -0.090815 0.000000
vn -0.995868 -0.090815 0.000000
vn -0.995868 -0.090815 0.000000
vn -0.999517 -0.031081 0.000000
vn -0.999517 -0.031081 0.000000
vn -0.999517 -0.031081 0.000000
vn -0.999517 -0.031081 0.000000
vn 0.999517 -0.031081 0.000000
vn 0.999517 -0.031081 0.000000
vn 0.999517 -0.031081 0.000000
vn 0.999517 -0.031081 0.000000
vn 0.997352 -0.072723 0.000000
vn 0.997352 -0.072723 0.000000
vn 0.997352 -0.072723 0.000000
vn 0.997352 -0.072723 0.000000
vn 0.000000 0.000000 -1.000000
vn 0.000000 0.000000 -1.000000
vn 0.000000 0.000000 -1.000000
vn 0.000000 0.000000 -1.000000
vn 0.000000 0.000000 -1.000000
vn 0.000000 0.000000 -1.000000
vn 0.000000 0.000000 -1.000000
vn 0.000000 0.000000 -1.000000
vn 0.000000 0.000000 -1.000000
vn 0.000000 0.000000 -1.000000
vn 0.000000 0.000000 -1.000000
vn 0.000000 0.000000 -1.000000
vn 0.000000 0.000000 -1.000000
vn 0.000000 0.000000 -1.000000
vn 0.000000 0.000000 -1.000000
vn 0.000000 0.000000 -1.000000
vn -0.005933 -0.994452 0.105022
vn -0.005947 -0.994568 0.103921
vn -0.005035 -0.996110 0.087980
vn -0.123211 -0.987120 0.102045
vn 0.000000 -1.000000 0.000000
vn 0.000000 -1.000000 0.000000
vn 0.000000 -1.000000 0.000000
vn -0.264926 -0.964269 0.000000
vn -0.215641 -0.974336 0.064567
vn -0.264926 -0.964269 0.000000
vn 0.340632 0.940197 0.000000
vn 0.264365 0.961635 0.073280
vn 0.118118 0.985804 0.119324
vn 0.340632 0.940197 0.000000
vn 0.000000 1.000000 0.000000
vn 0.000000 1.000000 0.000000
vn 0.000000 1.000000 0.000000
vn 0.004987 0.995504 0.094588
vn 0.004723 0.995854 0.090846
vn 0.004734 0.995950 0.089780
vn 0.000000 -1.000000 0.000000
vn 0.000000 -1.000000 0.000000
vn -0.999337 0.036419 0.000000
vn -0.999337 0.036419 0.000000
vn -0.999337 0.036419 0.000000
vn -0.999337 0.036419 0.000000
vn 0.000000 1.000000 0.000000
vn 0.000000 1.000000 0.000000
vn 0.999337 0.036420 0.000000
vn 0.999337 0.036420 0.000000
vn 0.999337 0.036420 0.000000
vn 0.999337 0.036420 0.000000
s off
g Casa_Grande_LP1 Ventana1
usemtl initialShadingGroup
f 97/184/209 98/186/210 99/187/211 100/139/212
f 106/140/213 105/176/214 107/173/215 108/171/216
f 97/136/217 100/185/218 101/144/219 102/180/220
f 99/138/221 98/137/222 103/146/223 104/182/224
f 89/193/225 90/194/226 91/195/227 92/151/228
f 94/152/229 95/190/230 91/150/231 90/149/232
f 84/199/233 83/202/234 81/156/235 82/198/236
f 86/158/237 85/196/238 87/197/239 88/200/240
f 96/162/241 93/163/242 89/148/243 92/192/244
f 78/178/245 80/165/246 84/199/247 82/198/248
f 79/177/249 77/167/250 87/197/251 85/196/252
f 94/152/253 90/149/254 89/148/255 93/163/256
f 103/146/257 98/137/258 97/136/259 102/180/260
s 1
f 77/179/261 78/164/262 94/191/263 93/188/264
f 82/157/265 81/203/266 95/153/267 94/191/263
f 88/161/268 87/160/269 93/188/264 96/189/270
f 78/164/262 82/157/265 94/191/263
f 87/160/269 77/179/261 93/188/264
s 2
f 83/155/271 84/154/272 102/145/273 101/183/274
f 85/159/275 86/201/276 104/147/277 103/181/278
f 80/174/279 79/166/280 103/181/278 102/145/273
f 84/154/272 80/174/279 102/145/273
f 79/166/280 85/159/275 103/181/278
s 1
f 78/164/262 77/179/261 105/175/281 106/168/282
s off
f 77/167/283 79/177/284 107/172/285 105/141/286
s 2
f 79/166/280 80/174/279 108/170/287 107/142/288
s off
f 80/165/289 78/178/290 106/169/291 108/143/292
g default
v 3.005326 -0.502255 -0.600356
v 5.052824 -0.502255 -0.600356
v 5.052819 -0.502255 -1.243525
v 3.005320 -0.502255 -1.243526
v 3.985812 1.091302 0.567670
v 4.072338 1.091302 0.567670
v 3.985806 1.091302 -1.175077
v 4.072332 1.091302 -1.175078
v 3.127790 -0.502255 -1.243526
v 4.930341 -0.502255 -1.243526
v 4.029067 1.007884 -1.179979
v 4.930348 -0.502255 -0.813753
v 4.029068 1.007884 -0.810083
v 3.127798 -0.502255 -0.813754
v 5.052819 -0.606765 -1.243525
v 3.005320 -0.606765 -1.243526
v 5.052824 -0.606766 -0.600356
v 3.005326 -0.606766 -0.600356
vt 0.547235 0.723042
vt 0.640918 0.725131
vt 0.468366 0.467854
vt 0.436766 0.482937
vt 0.694210 0.963160
vt 0.477354 0.959057
vt 0.464162 0.508254
vt 0.468425 0.454847
vt 0.560326 0.716105
vt 0.448066 0.722603
vt 0.364831 0.969886
vt 0.477150 0.969824
vt 0.640273 0.712140
vt 0.694006 0.973927
vt 0.417969 0.743479
vt 0.686402 0.927078
vt 0.797211 0.738328
vt 0.467672 0.967816
vt 0.560970 0.729096
vt 0.434951 0.737753
vt 0.548411 0.468223
vt 0.364831 0.751004
vt 0.451095 0.516101
vt 0.467191 0.722674
vt 0.473242 0.726077
vt 0.548471 0.455216
vt 0.419018 0.504094
vt 0.415246 0.749341
vt 0.572880 0.739947
vt 0.553274 0.727592
vt 0.414533 0.969886
vt 0.415246 0.530480
vt 0.421650 0.737095
vt 0.557298 0.483108
vt 0.773926 0.472363
vt 0.431615 0.730943
vt 0.365544 0.530480
vt 0.461753 0.741258
vt 0.467671 0.743479
vt 0.365544 0.749341
vt 0.414533 0.751004
vt 0.417969 0.967815
vt 0.449664 0.498271
vt 0.457465 0.497104
vt 0.430889 0.742631
vt 0.451783 0.735115
vt 0.447957 0.737846
vt 0.432093 0.511929
vn 0.000000 -1.000000 -0.000001
vn 0.000000 -1.000000 -0.000001
vn 0.000000 -1.000000 -0.000001
vn 0.000000 -1.000000 -0.000001
vn -0.851698 0.524032 0.000004
vn -0.851699 0.524032 0.000004
vn -0.851699 0.524032 0.000004
vn -0.851699 0.524032 0.000004
vn 0.006254 0.046273 -0.998909
vn 0.006254 0.046273 -0.998909
vn 0.006254 0.046273 -0.998909
vn 0.006254 0.046273 -0.998909
vn 0.851697 0.524035 -0.000004
vn 0.851697 0.524035 -0.000004
vn 0.851697 0.524035 -0.000004
vn 0.851697 0.524035 -0.000004
vn 0.000000 1.000000 0.000000
vn 0.000000 1.000000 0.000000
vn 0.000000 1.000000 0.000000
vn 0.000000 1.000000 0.000000
vn -0.006254 0.046274 -0.998909
vn -0.006254 0.046274 -0.998909
vn -0.006254 0.046274 -0.998909
vn -0.006254 0.046274 -0.998909
vn -0.000012 0.058656 -0.998278
vn -0.000012 0.058656 -0.998278
vn -0.000012 0.058656 -0.998278
vn 0.858698 -0.512483 -0.000009
vn 0.858698 -0.512483 -0.000009
vn 0.858698 -0.512483 -0.000009
vn 0.858698 -0.512483 -0.000009
vn -0.858696 -0.512485 0.000009
vn -0.858696 -0.512485 0.000009
vn -0.858696 -0.512485 0.000009
vn -0.858696 -0.512485 0.000009
vn 0.000001 0.002430 -0.999997
vn 0.000001 0.002430 -0.999997
vn 0.000001 0.002430 -0.999997
vn 1.000000 0.000000 -0.000009
vn 1.000000 0.000000 -0.000009
vn 1.000000 0.000000 -0.000009
vn 1.000000 0.000000 -0.000009
vn 0.000009 0.000000 -1.000000
vn 0.000009 0.000000 -1.000000
vn 0.000009 0.000000 -1.000000
vn 0.000000 0.000000 -1.000000
vn 0.000000 0.000000 -1.000000
vn 0.000000 0.000000 -1.000000
vn -1.000000 0.000000 0.000009
vn -1.000000 0.000000 0.000009
vn -1.000000 0.000000 0.000009
vn -1.000000 0.000000 0.000009
vn 0.000000 1.000000 -0.000000
vn 0.000000 1.000000 -0.000000
vn 0.000000 1.000000 -0.000000
vn 0.000000 1.000000 -0.000000
vn 0.000000 -0.000005 -1.000000
vn 0.000000 -0.000005 -1.000000
vn 0.000000 -0.000005 -1.000000
vn 0.000000 -0.000005 -1.000000
s off
g Casa_Grande_LP1 Prism2
usemtl initialShadingGroup
f 123/204/293 125/227/294 126/206/295 124/224/296
f 113/208/297 115/209/298 112/228/299 109/233/300
f 111/230/301 118/251/302 119/239/303 116/236/304
f 110/216/305 111/212/306 116/237/307 114/238/308
f 116/215/309 115/209/310 113/208/311 114/217/312
f 115/241/313 119/249/314 117/226/315 112/210/316
f 115/248/317 116/236/318 119/239/319
f 117/243/320 119/240/321 121/235/322 122/231/323
f 118/225/324 120/244/325 121/234/326 119/214/327
f 121/219/328 120/232/329 122/220/330
f 123/222/331 111/212/332 110/216/333 125/205/334
f 118/213/335 111/250/336 123/223/337
f 112/210/338 117/226/339 124/247/340
f 124/224/341 126/206/342 109/211/343 112/229/344
f 120/221/345 118/245/346 117/218/347 122/242/348
f 118/213/349 123/223/350 124/207/351 117/246/352
g default
v -1.167465 2.586062 -0.853859
v -0.875184 2.586062 -0.853859
v -1.167465 4.329226 -0.853859
v -0.875184 4.329226 -0.853859
v -1.167465 4.329226 -1.146141
v -0.875184 4.329226 -1.146141
v -1.167465 2.586062 -1.146141
v -0.875184 2.586062 -1.146141
vt 0.364246 0.507073
vt 0.304996 0.536626
vt 0.305025 0.507015
vt 0.334636 0.507044
vt 0.305197 0.330418
vt 0.334807 0.330447
vt 0.275586 0.330389
vt 0.334836 0.300836
vt 0.305225 0.300807
vt 0.364418 0.330476
vt 0.275414 0.506986
vt 0.334607 0.536655
vn 0.000000 1.000000 0.000000
vn 0.000000 1.000000 0.000000
vn 0.000000 1.000000 0.000000
vn 0.000000 1.000000 0.000000
vn 0.000000 0.000000 -1.000000
vn 0.000000 0.000000 -1.000000
vn 0.000000 0.000000 -1.000000
vn 0.000000 0.000000 -1.000000
vn 0.000000 -1.000000 0.000000
vn 0.000000 -1.000000 0.000000
vn 0.000000 -1.000000 0.000000
vn 0.000000 -1.000000 0.000000
vn 1.000000 0.000000 0.000000
vn 1.000000 0.000000 0.000000
vn 1.000000 0.000000 0.000000
vn 1.000000 0.000000 0.000000
vn -1.000000 0.000000 0.000000
vn -1.000000 0.000000 0.000000
vn -1.000000 0.000000 0.000000
vn -1.000000 0.000000 0.000000
s off
g Casa_Grande_LP1 pCube13
usemtl initialShadingGroup
f 129/263/353 130/253/354 132/254/355 131/255/356
f 131/255/357 132/254/358 134/256/359 133/257/360
f 133/257/361 134/256/362 128/260/363 127/259/364
f 128/258/365 134/256/366 132/254/367 130/262/368
f 133/257/369 127/261/370 129/252/371 131/255/372
