# This file uses centimeters as units for non-parametric coordinates.

mtllib DecoTiendaLP.mtl
g default
v -1.107591 2.310703 -8.552734
v 0.767760 2.310703 -8.552734
v -1.107591 2.765845 -8.552734
v 0.767760 2.765845 -8.552734
v -1.107591 2.765845 -8.668123
v 0.767760 2.765845 -8.668123
v -1.107591 2.310703 -8.668123
v 0.767760 2.310703 -8.668123
v -1.063777 2.745903 -8.668123
v 0.723946 2.745903 -8.668123
v 0.723946 2.330646 -8.668123
v -1.063777 2.330646 -8.668123
v -1.063777 2.745903 -8.602286
v 0.723946 2.745903 -8.602286
v 0.723946 2.330646 -8.602286
v -1.063777 2.330646 -8.602286
vt 0.157087 0.825915
vt 0.970212 0.018327
vt 0.079146 0.894296
vt 0.040927 0.689785
vt 0.346820 0.926094
vt 0.996243 0.300406
vt 0.257695 0.658428
vt 0.169844 0.888304
vt 0.982969 0.555883
vt 0.508435 0.848579
vt 0.333622 0.857712
vt 0.508435 0.490966
vt 0.159953 0.888304
vt 0.993070 0.018327
vt 0.973078 0.555883
vt 0.518327 0.848579
vt 0.983179 0.018327
vt 0.508435 0.910968
vt 0.982969 0.287294
vt 0.195306 0.658428
vt 0.169844 0.825915
vt 0.195306 0.927016
vt 0.327020 0.860666
vt 0.513344 0.215818
vt 0.973078 0.287294
vt 0.983179 0.286917
vt 0.257695 0.927016
vt 0.511477 0.484404
vt 0.353576 0.860727
vt 0.159953 0.825915
vt 0.353411 0.923116
vt 0.994643 0.575585
vt 0.993070 0.286917
vt 0.993280 0.307004
vt 0.326618 0.923053
vt 0.518327 0.910968
vt 0.139751 0.825915
vt 0.952876 0.300081
vt 0.510394 0.209214
vt 0.952876 0.018327
vt 0.096482 0.825915
vt 0.347002 0.857714
vt 0.096482 0.894296
vt 0.023591 0.971538
vt 0.997672 0.582152
vt 0.023591 0.689785
vt 0.139751 0.894296
vt 0.333182 0.926092
vt 0.879844 0.926178
vt 0.079146 0.825915
vt 0.879844 0.644424
vt 0.970212 0.300081
vt 0.811463 0.926178
vt 0.040927 0.971538
vt 0.811463 0.644424
vt 0.157087 0.894296
vn 0.000000 0.000000 1.000000
vn 0.000000 0.000000 1.000000
vn 0.000000 0.000000 1.000000
vn 0.000000 0.000000 1.000000
vn 0.000000 1.000000 0.000000
vn 0.000000 1.000000 0.000000
vn 0.000000 1.000000 0.000000
vn 0.000000 1.000000 0.000000
vn 0.000000 0.000000 -1.000000
vn 0.000000 0.000000 -1.000000
vn 0.000000 0.000000 -1.000000
vn 0.000000 0.000000 -1.000000
vn 0.000000 -1.000000 0.000000
vn 0.000000 -1.000000 0.000000
vn 0.000000 -1.000000 0.000000
vn 0.000000 -1.000000 0.000000
vn 1.000000 0.000000 0.000000
vn 1.000000 0.000000 0.000000
vn 1.000000 0.000000 0.000000
vn 1.000000 0.000000 0.000000
vn -1.000000 0.000000 0.000000
vn -1.000000 0.000000 0.000000
vn -1.000000 0.000000 0.000000
vn -1.000000 0.000000 0.000000
vn 0.000000 0.000000 -1.000000
vn 0.000000 0.000000 -1.000000
vn 0.000000 0.000000 -1.000000
vn 0.000000 0.000000 -1.000000
vn -0.000010 0.000000 -1.000000
vn -0.000010 0.000000 -1.000000
vn -0.000010 0.000000 -1.000000
vn -0.000010 0.000000 -1.000000
vn 0.000000 0.000000 -1.000000
vn 0.000000 0.000000 -1.000000
vn 0.000000 0.000000 -1.000000
vn 0.000000 0.000000 -1.000000
vn 0.000010 0.000000 -1.000000
vn 0.000010 0.000000 -1.000000
vn 0.000010 0.000000 -1.000000
vn 0.000010 0.000000 -1.000000
vn 0.000000 -1.000000 0.000000
vn 0.000000 -1.000000 0.000000
vn 0.000000 -1.000000 0.000000
vn 0.000000 -1.000000 0.000000
vn -1.000000 0.000000 0.000000
vn -1.000000 0.000000 0.000000
vn -1.000000 0.000000 0.000000
vn -1.000000 0.000000 0.000000
vn 0.000000 1.000000 0.000000
vn 0.000000 1.000000 0.000000
vn 0.000000 1.000000 0.000000
vn 0.000000 1.000000 0.000000
vn 1.000000 0.000000 0.000000
vn 1.000000 0.000000 0.000000
vn 1.000000 0.000000 0.000000
vn 1.000000 0.000000 0.000000
s off
g pCube313 DecoTienda Tienda
usemtl initialShadingGroup
f 1/51/1 2/49/2 4/53/3 3/55/4
f 3/4/5 4/54/6 6/44/7 5/46/8
f 13/7/9 14/27/10 15/22/11 16/20/12
f 7/38/13 8/40/14 2/2/15 1/52/16
f 2/50/17 8/41/18 6/43/19 4/3/20
f 7/37/21 1/1/22 3/56/23 5/47/24
f 5/6/25 6/45/26 10/32/27 9/34/28
f 6/5/29 8/42/30 11/29/31 10/31/32
f 8/12/33 7/39/34 12/24/35 11/28/36
f 7/11/37 5/48/38 9/35/39 12/23/40
f 9/14/41 10/33/42 14/26/43 13/17/44
f 10/13/45 11/30/46 15/21/47 14/8/48
f 11/15/49 12/25/50 16/19/51 15/9/52
f 12/16/53 9/36/54 13/18/55 16/10/56
g default
v -4.097435 2.310703 -8.552734
v -2.222084 2.310703 -8.552734
v -4.097435 2.765845 -8.552734
v -2.222084 2.765845 -8.552734
v -4.097435 2.765845 -8.668123
v -2.222084 2.765845 -8.668123
v -4.097435 2.310703 -8.668123
v -2.222084 2.310703 -8.668123
v -4.053621 2.745903 -8.668123
v -2.265898 2.745903 -8.668123
v -2.265898 2.330646 -8.668123
v -4.053621 2.330646 -8.668123
v -4.053621 2.745903 -8.602286
v -2.265898 2.745903 -8.602286
v -2.265898 2.330646 -8.602286
v -4.053621 2.330646 -8.602286
vt 0.116684 0.825915
vt 0.960111 0.689571
vt 0.119549 0.894296
vt 0.970212 0.300460
vt 0.675101 0.944322
vt 0.991192 0.556258
vt 0.914255 0.018327
vt 0.518327 0.848200
vt 0.993070 0.555887
vt 0.715504 0.862928
vt 0.343723 0.857712
vt 0.508435 0.772888
vt 0.508435 0.848200
vt 0.982970 0.556262
vt 0.983179 0.555887
vt 0.725396 0.862928
vt 0.973078 0.556262
vt 0.715504 0.925316
vt 0.993070 0.287296
vt 0.851867 0.018327
vt 0.518327 0.785811
vt 0.851867 0.286915
vt 0.337121 0.860666
vt 0.513344 0.497743
vt 0.983179 0.287296
vt 0.973078 0.824849
vt 0.914255 0.286915
vt 0.511477 0.766327
vt 0.681857 0.878955
vt 0.508435 0.785811
vt 0.681691 0.941343
vt 0.989592 0.831444
vt 0.982970 0.824849
vt 0.988230 0.562856
vt 0.336719 0.923053
vt 0.725396 0.925316
vt 0.099347 0.825915
vt 0.942775 0.971327
vt 0.510394 0.491140
vt 0.942775 0.689571
vt 0.136885 0.825915
vt 0.675282 0.875942
vt 0.136885 0.894296
vt 0.952876 0.582213
vt 0.992622 0.838011
vt 0.952876 0.300460
vt 0.099347 0.894296
vt 0.343283 0.926092
vt 0.809137 0.926178
vt 0.119549 0.825915
vt 0.809137 0.644424
vt 0.960111 0.971327
vt 0.740757 0.926178
vt 0.970212 0.582213
vt 0.740757 0.644424
vt 0.116684 0.894296
vn 0.000000 0.000000 1.000000
vn 0.000000 0.000000 1.000000
vn 0.000000 0.000000 1.000000
vn 0.000000 0.000000 1.000000
vn 0.000000 1.000000 0.000000
vn 0.000000 1.000000 0.000000
vn 0.000000 1.000000 0.000000
vn 0.000000 1.000000 0.000000
vn 0.000000 0.000000 -1.000000
vn 0.000000 0.000000 -1.000000
vn 0.000000 0.000000 -1.000000
vn 0.000000 0.000000 -1.000000
vn 0.000000 -1.000000 0.000000
vn 0.000000 -1.000000 0.000000
vn 0.000000 -1.000000 0.000000
vn 0.000000 -1.000000 0.000000
vn 1.000000 0.000000 0.000000
vn 1.000000 0.000000 0.000000
vn 1.000000 0.000000 0.000000
vn 1.000000 0.000000 0.000000
vn -1.000000 0.000000 0.000000
vn -1.000000 0.000000 0.000000
vn -1.000000 0.000000 0.000000
vn -1.000000 0.000000 0.000000
vn 0.000000 0.000000 -1.000000
vn 0.000000 0.000000 -1.000000
vn 0.000000 0.000000 -1.000000
vn 0.000000 0.000000 -1.000000
vn -0.000010 0.000000 -1.000000
vn -0.000010 0.000000 -1.000000
vn -0.000010 0.000000 -1.000000
vn -0.000010 0.000000 -1.000000
vn 0.000000 0.000000 -1.000000
vn 0.000000 0.000000 -1.000000
vn 0.000000 0.000000 -1.000000
vn 0.000000 0.000000 -1.000000
vn 0.000010 0.000000 -1.000000
vn 0.000010 0.000000 -1.000000
vn 0.000010 0.000000 -1.000000
vn 0.000010 0.000000 -1.000000
vn 0.000000 -1.000000 0.000000
vn 0.000000 -1.000000 0.000000
vn 0.000000 -1.000000 0.000000
vn 0.000000 -1.000000 0.000000
vn -1.000000 0.000000 0.000000
vn -1.000000 0.000000 0.000000
vn -1.000000 0.000000 0.000000
vn -1.000000 0.000000 0.000000
vn 0.000000 1.000000 0.000000
vn 0.000000 1.000000 0.000000
vn 0.000000 1.000000 0.000000
vn 0.000000 1.000000 0.000000
vn 1.000000 0.000000 0.000000
vn 1.000000 0.000000 0.000000
vn 1.000000 0.000000 0.000000
vn 1.000000 0.000000 0.000000
s off
g DecoTienda Tienda pCube312
usemtl initialShadingGroup
f 17/107/57 18/105/58 20/109/59 19/111/60
f 19/60/61 20/110/62 22/100/63 21/102/64
f 29/63/65 30/83/66 31/78/67 32/76/68
f 23/94/69 24/96/70 18/58/71 17/108/72
f 18/106/73 24/97/74 22/99/75 20/59/76
f 23/93/77 17/57/78 19/112/79 21/103/80
f 21/62/81 22/101/82 26/88/83 25/90/84
f 22/61/85 24/98/86 27/85/87 26/87/88
f 24/68/89 23/95/90 28/80/91 27/84/92
f 23/67/93 21/104/94 25/91/95 28/79/96
f 25/70/97 26/89/98 30/82/99 29/73/100
f 26/69/101 27/86/102 31/77/103 30/64/104
f 27/71/105 28/81/106 32/75/107 31/65/108
f 28/72/109 25/92/110 29/74/111 32/66/112
g default
v -6.842912 2.310703 -8.552734
v -4.967561 2.310703 -8.552734
v -6.842912 2.765845 -8.552734
v -4.967561 2.765845 -8.552734
v -6.842912 2.765845 -8.668123
v -4.967561 2.765845 -8.668123
v -6.842912 2.310703 -8.668123
v -4.967561 2.310703 -8.668123
v -6.799098 2.745903 -8.668123
v -5.011374 2.745903 -8.668123
v -5.011374 2.330646 -8.668123
v -6.799098 2.330646 -8.668123
v -6.799098 2.745903 -8.602286
v -5.011374 2.745903 -8.602286
v -5.011374 2.330646 -8.602286
v -6.799098 2.330646 -8.602286
vt 0.910513 0.811039
vt 0.939910 0.689578
vt 0.856918 0.623468
vt 0.020725 0.689785
vt 0.356921 0.940593
vt 0.996243 0.018319
vt 0.323351 0.658428
vt 0.962768 0.644980
vt 0.972868 0.851180
vt 0.502908 0.018327
vt 0.736554 0.862919
vt 0.983179 0.837881
vt 0.952876 0.644980
vt 0.982969 0.018327
vt 0.962977 0.851180
vt 0.512799 0.018327
vt 0.973078 0.018327
vt 0.502908 0.080715
vt 0.972868 0.582591
vt 0.260962 0.658428
vt 0.962768 0.582591
vt 0.260962 0.927016
vt 0.729952 0.865873
vt 0.988088 0.562748
vt 0.962977 0.582591
vt 0.973078 0.286915
vt 0.323351 0.927016
vt 0.986221 0.831320
vt 0.363677 0.875226
vt 0.952876 0.582591
vt 0.363512 0.937614
vt 0.994643 0.293495
vt 0.982969 0.286915
vt 0.993280 0.024917
vt 0.729551 0.928259
vt 0.512799 0.080715
vt 0.893177 0.811039
vt 0.922573 0.971330
vt 0.985137 0.556145
vt 0.922573 0.689578
vt 0.874254 0.555087
vt 0.357103 0.872212
vt 0.874254 0.623468
vt 0.003389 0.971539
vt 0.997672 0.300063
vt 0.003389 0.689785
vt 0.893177 0.879419
vt 0.736114 0.931298
vt 0.854592 0.644045
vt 0.856918 0.555087
vt 0.854592 0.362292
vt 0.939909 0.971330
vt 0.786211 0.644045
vt 0.020725 0.971539
vt 0.786211 0.362292
vt 0.910513 0.879419
vn 0.000000 0.000000 1.000000
vn 0.000000 0.000000 1.000000
vn 0.000000 0.000000 1.000000
vn 0.000000 0.000000 1.000000
vn 0.000000 1.000000 0.000000
vn 0.000000 1.000000 0.000000
vn 0.000000 1.000000 0.000000
vn 0.000000 1.000000 0.000000
vn 0.000000 0.000000 -1.000000
vn 0.000000 0.000000 -1.000000
vn 0.000000 0.000000 -1.000000
vn 0.000000 0.000000 -1.000000
vn 0.000000 -1.000000 0.000000
vn 0.000000 -1.000000 0.000000
vn 0.000000 -1.000000 0.000000
vn 0.000000 -1.000000 0.000000
vn 1.000000 0.000000 0.000000
vn 1.000000 0.000000 0.000000
vn 1.000000 0.000000 0.000000
vn 1.000000 0.000000 0.000000
vn -1.000000 0.000000 0.000000
vn -1.000000 0.000000 0.000000
vn -1.000000 0.000000 0.000000
vn -1.000000 0.000000 0.000000
vn 0.000000 0.000000 -1.000000
vn 0.000000 0.000000 -1.000000
vn 0.000000 0.000000 -1.000000
vn 0.000000 0.000000 -1.000000
vn -0.000010 0.000000 -1.000000
vn -0.000010 0.000000 -1.000000
vn -0.000010 0.000000 -1.000000
vn -0.000010 0.000000 -1.000000
vn 0.000000 0.000000 -1.000000
vn 0.000000 0.000000 -1.000000
vn 0.000000 0.000000 -1.000000
vn 0.000000 0.000000 -1.000000
vn 0.000010 0.000000 -1.000000
vn 0.000010 0.000000 -1.000000
vn 0.000010 0.000000 -1.000000
vn 0.000010 0.000000 -1.000000
vn 0.000000 -1.000000 0.000000
vn 0.000000 -1.000000 0.000000
vn 0.000000 -1.000000 0.000000
vn 0.000000 -1.000000 0.000000
vn -1.000000 0.000000 0.000000
vn -1.000000 0.000000 0.000000
vn -1.000000 0.000000 0.000000
vn -1.000000 0.000000 0.000000
vn 0.000000 1.000000 0.000000
vn 0.000000 1.000000 0.000000
vn 0.000000 1.000000 0.000000
vn 0.000000 1.000000 0.000000
vn 1.000000 0.000000 0.000000
vn 1.000000 0.000000 0.000000
vn 1.000000 0.000000 0.000000
vn 1.000000 0.000000 0.000000
s off
g DecoTienda Tienda pCube311
usemtl initialShadingGroup
f 33/163/113 34/161/114 36/165/115 35/167/116
f 35/116/117 36/166/118 38/156/119 37/158/120
f 45/119/121 46/139/122 47/134/123 48/132/124
f 39/150/125 40/152/126 34/114/127 33/164/128
f 34/162/129 40/153/130 38/155/131 36/115/132
f 39/149/133 33/113/134 35/168/135 37/159/136
f 37/118/137 38/157/138 42/144/139 41/146/140
f 38/117/141 40/154/142 43/141/143 42/143/144
f 40/124/145 39/151/146 44/136/147 43/140/148
f 39/123/149 37/160/150 41/147/151 44/135/152
f 41/126/153 42/145/154 46/138/155 45/129/156
f 42/125/157 43/142/158 47/133/159 46/120/160
f 43/127/161 44/137/162 48/131/163 47/121/164
f 44/128/165 41/148/166 45/130/167 48/122/168
g default
v -5.393108 3.415167 -8.669151
v -0.926411 3.415167 -8.669151
v -5.393108 4.523611 -8.669151
v -0.926411 4.523611 -8.669151
v -5.393108 4.523611 -8.784540
v -0.926411 4.523611 -8.784540
v -5.393108 3.415167 -8.784540
v -0.926411 3.415167 -8.784540
v -5.288753 4.475043 -8.784540
v -1.030766 4.475043 -8.784540
v -1.030766 3.463734 -8.784540
v -5.288753 3.463734 -8.784540
v -5.288753 4.475043 -8.718703
v -1.030766 4.475043 -8.718703
v -1.030766 3.463734 -8.718703
v -5.288753 3.463734 -8.718703
vt 0.556074 0.785755
vt 0.468031 0.880402
vt 0.624097 0.714761
vt 0.505569 0.209334
vt 0.534177 0.785733
vt 0.941449 0.018210
vt 0.321994 0.018327
vt 0.604185 0.937693
vt 0.922364 0.927013
vt 0.882170 0.783371
vt 0.176717 0.936552
vt 0.942775 0.689277
vt 0.594293 0.937693
vt 0.932465 0.018327
vt 0.912472 0.927013
vt 0.892061 0.783371
vt 0.922574 0.018327
vt 0.882170 0.935309
vt 0.922364 0.287294
vt 0.170054 0.018327
vt 0.604185 0.785755
vt 0.170054 0.658049
vt 0.192091 0.928634
vt 0.951205 0.033882
vt 0.912473 0.287294
vt 0.922573 0.658055
vt 0.321994 0.658049
vt 0.950099 0.673611
vt 0.519311 0.945048
vt 0.594293 0.785755
vt 0.518536 0.793110
vt 0.932674 0.673592
vt 0.932465 0.658055
vt 0.934117 0.033872
vt 0.186012 0.776817
vt 0.892061 0.935309
vt 0.538738 0.785755
vt 0.485368 0.209320
vt 0.943935 0.018190
vt 0.485367 0.880402
vt 0.606761 0.881295
vt 0.535027 0.952264
vt 0.606761 0.714761
vt 0.488233 0.880410
vt 0.939936 0.689287
vt 0.488233 0.209334
vt 0.538738 0.952288
vt 0.170054 0.770153
vt 0.003389 0.018327
vt 0.624097 0.881295
vt 0.003389 0.689406
vt 0.468032 0.209320
vt 0.169922 0.018327
vt 0.505569 0.880410
vt 0.169922 0.689406
vt 0.556074 0.952288
vn 0.000000 0.000000 1.000000
vn 0.000000 0.000000 1.000000
vn 0.000000 0.000000 1.000000
vn 0.000000 0.000000 1.000000
vn 0.000000 1.000000 0.000000
vn 0.000000 1.000000 0.000000
vn 0.000000 1.000000 0.000000
vn 0.000000 1.000000 0.000000
vn 0.000000 0.000000 -1.000000
vn 0.000000 0.000000 -1.000000
vn 0.000000 0.000000 -1.000000
vn 0.000000 0.000000 -1.000000
vn 0.000000 -1.000000 0.000000
vn 0.000000 -1.000000 0.000000
vn 0.000000 -1.000000 0.000000
vn 0.000000 -1.000000 0.000000
vn 1.000000 0.000000 0.000000
vn 1.000000 0.000000 0.000000
vn 1.000000 0.000000 0.000000
vn 1.000000 0.000000 0.000000
vn -1.000000 0.000000 0.000000
vn -1.000000 0.000000 0.000000
vn -1.000000 0.000000 0.000000
vn -1.000000 0.000000 0.000000
vn 0.000000 0.000000 -1.000000
vn 0.000000 0.000000 -1.000000
vn 0.000000 0.000000 -1.000000
vn 0.000000 0.000000 -1.000000
vn -0.000006 0.000000 -1.000000
vn -0.000006 0.000000 -1.000000
vn -0.000006 0.000000 -1.000000
vn -0.000006 0.000000 -1.000000
vn 0.000000 0.000000 -1.000000
vn 0.000000 0.000000 -1.000000
vn 0.000000 0.000000 -1.000000
vn 0.000000 0.000000 -1.000000
vn 0.000010 0.000000 -1.000000
vn 0.000010 0.000000 -1.000000
vn 0.000010 0.000000 -1.000000
vn 0.000010 0.000000 -1.000000
vn 0.000000 -1.000000 0.000000
vn 0.000000 -1.000000 0.000000
vn 0.000000 -1.000000 0.000000
vn 0.000000 -1.000000 0.000000
vn -1.000000 0.000000 0.000000
vn -1.000000 0.000000 0.000000
vn -1.000000 0.000000 0.000000
vn -1.000000 0.000000 0.000000
vn 0.000000 1.000000 0.000000
vn 0.000000 1.000000 0.000000
vn 0.000000 1.000000 0.000000
vn 0.000000 1.000000 0.000000
vn 1.000000 0.000000 0.000000
vn 1.000000 0.000000 0.000000
vn 1.000000 0.000000 0.000000
vn 1.000000 0.000000 0.000000
s off
g DecoTienda Tienda pCube308
usemtl initialShadingGroup
f 49/219/169 50/217/170 52/221/171 51/223/172
f 51/172/173 52/222/174 54/212/175 53/214/176
f 61/175/177 62/195/178 63/190/179 64/188/180
f 55/206/181 56/208/182 50/170/183 49/220/184
f 50/218/185 56/209/186 54/211/187 52/171/188
f 55/205/189 49/169/190 51/224/191 53/215/192
f 53/174/193 54/213/194 58/200/195 57/202/196
f 54/173/197 56/210/198 59/197/199 58/199/200
f 56/180/201 55/207/202 60/192/203 59/196/204
f 55/179/205 53/216/206 57/203/207 60/191/208
f 57/182/209 58/201/210 62/194/211 61/185/212
f 58/181/213 59/198/214 63/189/215 62/176/216
f 59/183/217 60/193/218 64/187/219 63/177/220
f 60/184/221 57/204/222 61/186/223 64/178/224
g default
v -4.560524 2.371364 -3.849079
v -4.560524 2.371364 0.092056
v -4.706051 2.516900 0.237599
v -4.706051 2.371364 0.237599
v -4.706312 2.516900 -3.908674
v -4.706312 2.371364 -3.908674
v -1.585068 2.371364 -6.824308
v -1.646837 2.516900 -6.968549
v -1.646837 2.371364 -6.968549
v 5.359383 2.371364 -3.849079
v 5.359383 2.371364 0.092056
v 5.504909 2.516900 0.237599
v 5.504909 2.371364 0.237599
v 5.505170 2.516900 -3.908674
v 5.505170 2.371364 -3.908674
v 2.383925 2.371364 -6.824308
v 2.445695 2.516900 -6.968549
v 2.445695 2.371364 -6.968549
v 0.399429 2.371364 0.092056
v 0.399429 2.371364 0.237599
v 0.399429 2.516900 0.237599
vt 0.602672 0.785376
vt 0.326618 0.209240
vt 0.671727 0.667240
vt 0.580806 0.785376
vt 0.693569 0.653900
vt 0.370448 0.806921
vt 0.649848 0.018327
vt 0.394001 0.817771
vt 0.415734 0.817771
vt 0.558940 0.763569
vt 0.513486 0.040247
vt 0.535352 0.018327
vt 0.372073 0.209272
vt 0.394001 0.209272
vt 0.695302 0.018327
vt 0.784469 0.639798
vt 0.717230 0.661744
vt 0.739170 0.661744
vt 0.740757 0.018327
vt 0.740757 0.616825
vt 0.717230 0.018327
vt 0.415734 0.209272
vt 0.739170 0.018327
vt 0.557218 0.018327
vt 0.762521 0.639798
vt 0.671727 0.018327
vt 0.693569 0.018327
vt 0.372073 0.817771
vt 0.649848 0.667240
vt 0.326618 0.828825
vt 0.348524 0.828825
vt 0.762521 0.018327
vt 0.695302 0.661744
vt 0.784469 0.018327
vt 0.348524 0.209240
vt 0.370448 0.209240
vt 0.558940 0.018384
vt 0.535352 0.785376
vt 0.557218 0.785376
vt 0.580806 0.018327
vt 0.602672 0.018327
vt 0.513486 0.785433
vn -1.000000 -0.000003 0.000063
vn -1.000000 -0.000003 0.000063
vn -1.000000 -0.000003 0.000063
vn -1.000000 -0.000003 0.000063
vn 0.000000 -1.000000 -0.000000
vn 0.000000 -1.000000 -0.000000
vn 0.000000 -1.000000 -0.000000
vn 0.000000 -1.000000 -0.000000
vn -0.707153 0.000000 -0.707061
vn -0.707153 0.000000 -0.707061
vn -0.707153 0.000000 -0.707061
vn -0.707153 0.000000 -0.707061
vn 0.000000 -1.000000 0.000000
vn 0.000000 -1.000000 0.000000
vn 0.000000 -1.000000 0.000000
vn 0.000000 -1.000000 0.000000
vn 0.000000 -1.000000 -0.000001
vn 0.000000 -1.000000 -0.000001
vn 0.000000 -1.000000 -0.000001
vn 0.000000 -1.000000 -0.000001
vn 0.000000 0.000000 -1.000000
vn 0.000000 0.000000 -1.000000
vn 0.000000 0.000000 -1.000000
vn 0.000000 0.000000 -1.000000
vn 0.000000 -1.000000 0.000000
vn 0.000000 -1.000000 0.000000
vn 0.000000 -1.000000 0.000000
vn 0.000000 -1.000000 0.000000
vn 1.000000 -0.000003 0.000063
vn 1.000000 -0.000003 0.000063
vn 1.000000 -0.000003 0.000063
vn 1.000000 -0.000003 0.000063
vn 0.000000 -1.000000 0.000000
vn 0.000000 -1.000000 0.000000
vn 0.000000 -1.000000 0.000000
vn 0.000000 -1.000000 0.000000
vn 0.707153 0.000000 -0.707061
vn 0.707153 0.000000 -0.707061
vn 0.707153 0.000000 -0.707061
vn 0.707153 0.000000 -0.707061
vn 0.000000 -1.000000 0.000001
vn 0.000000 -1.000000 0.000001
vn 0.000000 -1.000000 0.000001
vn 0.000000 -1.000000 0.000001
vn 0.000000 0.000000 1.000000
vn 0.000000 0.000000 1.000000
vn 0.000000 0.000000 1.000000
vn 0.000000 0.000000 1.000000
vn 0.000000 -1.000000 0.000000
vn 0.000000 -1.000000 0.000000
vn 0.000000 0.000000 1.000000
vn 0.000000 0.000000 1.000000
s off
g DecoTienda Tienda pCube307
usemtl initialShadingGroup
f 67/254/225 69/226/226 70/259/227 68/255/228
f 65/260/229 66/230/230 68/255/231 70/259/232
f 69/253/233 72/231/234 73/250/235 70/227/236
f 71/251/237 65/229/238 70/227/239 73/250/240
s 1
f 68/228/241 66/234/242 83/261/243 84/264/244
s off
f 73/232/245 72/252/246 81/237/247 82/238/248
f 80/246/249 71/233/250 73/232/251 82/238/252
f 76/240/253 77/249/254 79/256/255 78/258/256
f 74/243/257 79/256/258 77/249/259 75/244/260
f 78/242/261 79/241/262 82/245/263 81/247/264
f 80/239/265 82/245/266 79/241/267 74/257/268
s 2
f 68/228/269 84/264/270 85/265/271 67/225/272
s 1
f 84/262/244 83/266/243 75/235/273 77/236/274
s 2
f 85/263/271 84/262/270 77/236/275 76/248/276
g default
v 6.419634 0.099627 -9.151431
v 6.491619 0.099627 -9.079447
v 6.419634 2.386535 -9.151431
v 6.491619 2.386535 -9.079447
v 6.491618 2.386535 -9.223415
v 6.563602 2.386535 -9.151430
v 6.491618 0.099627 -9.223415
v 6.563602 0.099627 -9.151430
vt 0.832095 0.018327
vt 0.847389 0.018327
vt 0.786211 0.361913
vt 0.832095 0.361913
vt 0.816800 0.361913
vt 0.801505 0.361913
vt 0.801505 0.018327
vt 0.816800 0.018327
vt 0.786211 0.018327
vt 0.847390 0.361913
vn -0.707102 0.000000 0.707112
vn -0.707102 0.000000 0.707112
vn -0.707102 0.000000 0.707112
vn -0.707102 0.000000 0.707112
vn 0.707111 0.000000 -0.707103
vn 0.707111 0.000000 -0.707103
vn 0.707111 0.000000 -0.707103
vn 0.707111 0.000000 -0.707103
vn 0.707107 0.000000 0.707106
vn 0.707107 0.000000 0.707106
vn 0.707107 0.000000 0.707106
vn 0.707107 0.000000 0.707106
vn -0.707107 0.000000 -0.707107
vn -0.707107 0.000000 -0.707107
vn -0.707107 0.000000 -0.707107
vn -0.707107 0.000000 -0.707107
s off
g DecoTienda Tienda pCube301
usemtl initialShadingGroup
f 86/267/277 87/268/278 89/276/279 88/270/280
f 90/271/281 91/272/282 93/273/283 92/274/284
f 87/275/285 93/273/286 91/272/287 89/269/288
f 92/274/289 86/267/290 88/270/291 90/271/292
g default
v 2.604334 2.782689 -8.835798
v 2.604334 2.864529 -8.835798
v 2.604334 2.864529 -8.917638
v 2.604334 2.782689 -8.917638
v 4.384243 2.782689 -8.835798
v 4.384243 2.864529 -8.835798
v 4.384243 2.864529 -8.917638
v 4.384243 2.782689 -8.917638
vt 0.893804 0.554708
vt 0.893804 0.287294
vt 0.906100 0.287294
vt 0.856918 0.554708
vt 0.869213 0.287294
vt 0.869213 0.554708
vt 0.881509 0.287294
vt 0.881509 0.554708
vt 0.906100 0.554708
vt 0.856918 0.287294
vn 0.000000 0.000000 1.000000
vn 0.000000 0.000000 1.000000
vn 0.000000 0.000000 1.000000
vn 0.000000 0.000000 1.000000
vn 0.000000 1.000000 0.000000
vn 0.000000 1.000000 0.000000
vn 0.000000 1.000000 0.000000
vn 0.000000 1.000000 0.000000
vn 0.000000 0.000000 -1.000000
vn 0.000000 0.000000 -1.000000
vn 0.000000 0.000000 -1.000000
vn 0.000000 0.000000 -1.000000
vn 0.000000 -1.000000 0.000000
vn 0.000000 -1.000000 0.000000
vn 0.000000 -1.000000 0.000000
vn 0.000000 -1.000000 0.000000
s off
g DecoTienda Tienda pCube300
usemtl initialShadingGroup
f 94/277/293 98/278/294 99/279/295 95/285/296
f 95/280/297 99/286/298 100/281/299 96/282/300
f 96/282/301 100/281/302 101/283/303 97/284/304
f 97/284/305 101/283/306 98/278/307 94/277/308
g default
v 0.864028 0.235814 -9.115469
v 0.919140 0.235814 -9.115469
v 0.864028 0.839290 -9.115469
v 0.919140 0.839290 -9.115469
v 0.864028 0.839290 -9.170580
v 0.919140 0.839290 -9.170580
v 0.864028 0.235814 -9.170580
v 0.919140 0.235814 -9.170580
vt 0.592060 0.785755
vt 0.567220 0.785755
vt 0.567220 0.876421
vt 0.558940 0.876421
vt 0.583780 0.876421
vt 0.575500 0.876421
vt 0.575500 0.785755
vt 0.583780 0.785755
vt 0.558940 0.785755
vt 0.592060 0.876421
vn 0.000000 0.000000 1.000000
vn 0.000000 0.000000 1.000000
vn 0.000000 0.000000 1.000000
vn 0.000000 0.000000 1.000000
vn 0.000000 0.000000 -1.000000
vn 0.000000 0.000000 -1.000000
vn 0.000000 0.000000 -1.000000
vn 0.000000 0.000000 -1.000000
vn 1.000000 0.000000 0.000000
vn 1.000000 0.000000 0.000000
vn 1.000000 0.000000 0.000000
vn 1.000000 0.000000 0.000000
vn -1.000000 0.000000 0.000000
vn -1.000000 0.000000 0.000000
vn -1.000000 0.000000 0.000000
vn -1.000000 0.000000 0.000000
s off
g DecoTienda Tienda pCube299
usemtl initialShadingGroup
f 102/295/309 103/288/310 105/289/311 104/290/312
f 106/291/313 107/292/314 109/293/315 108/294/316
f 103/288/317 109/293/318 107/292/319 105/289/320
f 108/294/321 102/287/322 104/296/323 106/291/324
g default
v 7.787465 0.231186 -9.286228
v 7.974755 0.231186 -9.286228
v 7.787465 0.763707 -9.286228
v 7.974755 0.763707 -9.286228
v 7.787465 0.763707 -9.473517
v 7.974755 0.763707 -9.473517
v 7.787465 0.231186 -9.473517
v 7.974755 0.231186 -9.473517
v 7.808993 0.763707 -9.307755
v 7.953227 0.763707 -9.307755
v 7.953227 0.763707 -9.451990
v 7.808993 0.763707 -9.451990
v 7.783797 0.921914 -9.282560
v 7.978424 0.921914 -9.282560
v 7.978424 0.921914 -9.477186
v 7.783797 0.921914 -9.477186
v 7.836030 0.921914 -9.334793
v 7.926191 0.921914 -9.334793
v 7.926191 0.921914 -9.424954
v 7.836030 0.921914 -9.424954
v 7.836030 2.196861 -9.334793
v 7.926191 2.196861 -9.334793
v 7.926191 2.196861 -9.424954
v 7.836030 2.196861 -9.424954
v 7.806780 2.196858 -9.305545
v 7.955441 2.196858 -9.305545
v 7.955441 2.196858 -9.454204
v 7.806780 2.196858 -9.454204
v 7.806780 2.503926 -9.305545
v 7.955441 2.503926 -9.305545
v 7.955441 2.503926 -9.454204
v 7.806780 2.503926 -9.454204
vt 0.163561 0.689785
vt 0.191700 0.689785
vt 0.326618 0.857342
vt 0.354757 0.857342
vt 0.354757 0.829204
vt 0.326618 0.829204
vt 0.107284 0.689785
vt 0.135423 0.689785
vt 0.391216 0.847768
vt 0.971860 0.851559
vt 0.361080 0.847755
vt 0.687604 0.862929
vt 0.361972 0.847390
vt 0.391213 0.847390
vt 0.361972 0.818150
vt 0.391213 0.818150
vt 0.685202 0.662123
vt 0.725839 0.662123
vt 0.698748 0.662123
vt 0.712293 0.662123
vt 0.174448 0.676368
vt 0.174448 0.662822
vt 0.187994 0.676368
vt 0.187994 0.662822
vt 0.079146 0.770170
vt 0.146150 0.770170
vt 0.101480 0.770170
vt 0.123815 0.770170
vt 0.079146 0.816304
vt 0.146150 0.816304
vt 0.101480 0.816304
vt 0.123815 0.816304
vt 0.170054 0.680762
vt 0.168485 0.770170
vt 0.168485 0.816304
vt 0.170054 0.658428
vt 0.192389 0.658428
vt 0.192389 0.680762
vt 0.725839 0.853671
vt 0.712293 0.853671
vt 0.698748 0.853671
vt 0.685202 0.853671
vt 0.739385 0.853671
vt 0.369819 0.839543
vt 0.739385 0.662123
vt 0.383365 0.839543
vt 0.383365 0.825997
vt 0.369819 0.825997
vt 0.968028 0.875620
vt 0.683821 0.886998
vt 0.356921 0.871762
vt 0.387224 0.871804
vt 0.997269 0.875677
vt 0.329853 0.854108
vt 0.993529 0.851601
vt 0.351522 0.854108
vt 0.351523 0.832438
vt 0.329853 0.832438
vt 0.079146 0.769791
vt 0.191700 0.769791
vt 0.107284 0.769791
vt 0.163561 0.769791
vt 0.135423 0.769791
vt 0.079146 0.689785
vt 0.382747 0.848091
vt 0.386159 0.872215
vt 0.412885 0.847955
vt 0.416464 0.872055
vt 0.709274 0.862928
vt 0.713061 0.886996
vn 0.000000 0.000000 1.000000
vn 0.000000 0.000000 1.000000
vn 0.000000 0.000000 1.000000
vn 0.000000 0.000000 1.000000
vn 0.000000 0.000000 -1.000000
vn 0.000000 0.000000 -1.000000
vn 0.000000 0.000000 -1.000000
vn 0.000000 0.000000 -1.000000
vn 1.000000 0.000000 0.000000
vn 1.000000 0.000000 0.000000
vn 1.000000 0.000000 0.000000
vn 1.000000 0.000000 0.000000
vn -1.000000 0.000000 0.000000
vn -1.000000 0.000000 0.000000
vn -1.000000 0.000000 0.000000
vn -1.000000 0.000000 0.000000
vn 0.000000 1.000000 0.000004
vn 0.000000 1.000000 0.000004
vn 0.000000 1.000000 0.000004
vn 0.000000 1.000000 0.000004
vn 0.000006 1.000000 0.000000
vn 0.000006 1.000000 0.000000
vn 0.000006 1.000000 0.000000
vn 0.000006 1.000000 0.000000
vn 0.000000 1.000000 -0.000004
vn 0.000000 1.000000 -0.000004
vn 0.000000 1.000000 -0.000004
vn 0.000000 1.000000 -0.000004
vn -0.000006 1.000000 0.000000
vn -0.000006 1.000000 0.000000
vn -0.000006 1.000000 0.000000
vn -0.000006 1.000000 0.000000
vn 0.000000 -0.157272 0.987555
vn 0.000000 -0.157272 0.987555
vn 0.000000 -0.157272 0.987555
vn 0.000000 -0.157272 0.987555
vn 0.987554 -0.157284 0.000000
vn 0.987554 -0.157284 0.000000
vn 0.987554 -0.157284 0.000000
vn 0.987554 -0.157284 0.000000
vn 0.000000 -0.157278 -0.987554
vn 0.000000 -0.157278 -0.987554
vn 0.000000 -0.157278 -0.987554
vn 0.000000 -0.157278 -0.987554
vn -0.987555 -0.157276 0.000000
vn -0.987555 -0.157276 0.000000
vn -0.987555 -0.157276 0.000000
vn -0.987555 -0.157276 0.000000
vn 0.000000 1.000000 0.000000
vn 0.000000 1.000000 0.000000
vn 0.000000 1.000000 0.000000
vn 0.000000 1.000000 0.000000
vn 0.000000 1.000000 0.000000
vn 0.000000 1.000000 0.000000
vn 0.000000 1.000000 0.000000
vn 0.000000 1.000000 0.000000
vn 0.000000 1.000000 0.000000
vn 0.000000 1.000000 0.000000
vn 0.000000 1.000000 0.000000
vn 0.000000 1.000000 0.000000
vn 0.000000 1.000000 0.000000
vn 0.000000 1.000000 0.000000
vn 0.000000 1.000000 0.000000
vn 0.000000 1.000000 0.000000
vn 0.000000 0.000000 1.000000
vn 0.000000 0.000000 1.000000
vn 0.000000 0.000000 1.000000
vn 0.000000 0.000000 1.000000
vn 1.000000 0.000000 0.000000
vn 1.000000 0.000000 0.000000
vn 1.000000 0.000000 0.000000
vn 1.000000 0.000000 0.000000
vn 0.000000 0.000000 -1.000000
vn 0.000000 0.000000 -1.000000
vn 0.000000 0.000000 -1.000000
vn 0.000000 0.000000 -1.000000
vn -1.000000 0.000000 0.000000
vn -1.000000 0.000000 0.000000
vn -1.000000 0.000000 0.000000
vn -1.000000 0.000000 0.000000
vn 0.000000 -1.000000 -0.000092
vn 0.000000 -1.000000 -0.000092
vn 0.000000 -1.000000 -0.000092
vn 0.000000 -1.000000 -0.000092
vn -0.000090 -1.000000 0.000000
vn -0.000090 -1.000000 0.000000
vn -0.000090 -1.000000 0.000000
vn -0.000090 -1.000000 0.000000
vn 0.000000 -1.000000 0.000085
vn 0.000000 -1.000000 0.000085
vn 0.000000 -1.000000 0.000085
vn 0.000000 -1.000000 0.000085
vn 0.000090 -1.000000 0.000000
vn 0.000090 -1.000000 0.000000
vn 0.000090 -1.000000 0.000000
vn 0.000090 -1.000000 0.000000
vn 0.000000 0.000000 1.000000
vn 0.000000 0.000000 1.000000
vn 0.000000 0.000000 1.000000
vn 0.000000 0.000000 1.000000
vn 1.000000 0.000000 0.000000
vn 1.000000 0.000000 0.000000
vn 1.000000 0.000000 0.000000
vn 1.000000 0.000000 0.000000
vn 0.000000 0.000000 -1.000000
vn 0.000000 0.000000 -1.000000
vn 0.000000 0.000000 -1.000000
vn 0.000000 0.000000 -1.000000
vn -1.000000 0.000000 0.000000
vn -1.000000 0.000000 0.000000
vn -1.000000 0.000000 0.000000
vn -1.000000 0.000000 0.000000
s off
g DecoTienda Tienda pCube295
usemtl initialShadingGroup
f 110/297/325 111/298/326 113/356/327 112/358/328
f 114/359/329 115/357/330 117/303/331 116/304/332
f 111/360/333 117/303/334 115/357/335 113/355/336
f 116/304/337 110/297/338 112/358/339 114/359/340
f 112/300/341 113/299/342 119/350/343 118/352/344
f 113/299/345 115/302/346 120/354/347 119/350/348
f 115/302/349 114/301/350 121/353/351 120/354/352
f 114/301/353 112/300/354 118/352/355 121/353/356
f 118/306/357 119/351/358 123/349/359 122/345/360
f 119/305/361 120/363/362 124/364/363 123/348/364
f 120/307/365 121/361/366 125/362/367 124/347/368
f 121/308/369 118/365/370 122/366/371 125/346/372
f 122/310/373 123/309/374 127/340/375 126/342/376
f 123/309/377 124/311/378 128/344/379 127/340/380
f 124/311/381 125/312/382 129/343/383 128/344/384
f 125/312/385 122/310/386 126/342/387 129/343/388
f 126/314/389 127/341/390 131/339/391 130/335/392
f 127/313/393 128/315/394 132/337/395 131/338/396
f 128/315/397 129/316/398 133/336/399 132/337/400
f 129/316/401 126/314/402 130/335/403 133/336/404
f 130/318/405 131/317/406 135/329/407 134/332/408
f 131/317/409 132/319/410 136/334/411 135/329/412
f 132/319/413 133/320/414 137/333/415 136/334/416
f 133/320/417 130/318/418 134/332/419 137/333/420
f 134/322/421 135/330/422 139/331/423 138/326/424
f 135/321/425 136/323/426 140/327/427 139/325/428
f 136/323/429 137/324/430 141/328/431 140/327/432
f 137/324/433 134/322/434 138/326/435 141/328/436
g default
v 1.875201 0.805822 -8.916412
v 5.435019 0.805822 -8.916412
v 1.875201 0.887662 -8.916412
v 5.435019 0.887662 -8.916412
v 1.875201 0.887662 -8.998252
v 5.435019 0.887662 -8.998252
v 1.875201 0.805822 -8.998252
v 5.435019 0.805822 -8.998252
vt 0.454414 0.744134
vt 0.454414 0.209306
vt 0.466709 0.209306
vt 0.417527 0.744134
vt 0.429823 0.209306
vt 0.429822 0.744135
vt 0.442118 0.209306
vt 0.442118 0.744134
vt 0.466709 0.744134
vt 0.417527 0.209306
vn 0.000000 0.000000 1.000000
vn 0.000000 0.000000 1.000000
vn 0.000000 0.000000 1.000000
vn 0.000000 0.000000 1.000000
vn 0.000000 1.000000 0.000000
vn 0.000000 1.000000 0.000000
vn 0.000000 1.000000 0.000000
vn 0.000000 1.000000 0.000000
vn 0.000000 0.000000 -1.000000
vn 0.000000 0.000000 -1.000000
vn 0.000000 0.000000 -1.000000
vn 0.000000 0.000000 -1.000000
vn 0.000000 -1.000000 0.000000
vn 0.000000 -1.000000 0.000000
vn 0.000000 -1.000000 0.000000
vn 0.000000 -1.000000 0.000000
s off
g DecoTienda Tienda pCube297
usemtl initialShadingGroup
f 142/367/437 143/368/438 145/369/439 144/375/440
f 144/370/441 145/376/442 147/371/443 146/372/444
f 146/372/445 147/371/446 149/373/447 148/374/448
f 148/374/449 149/373/450 143/368/451 142/367/452
g default
v -3.735170 0.242510 -9.518575
v -2.294194 0.242510 -9.518575
v -3.861475 1.692251 -9.518575
v -2.167890 1.692251 -9.518575
v -3.861475 1.692251 -9.817262
v -2.167890 1.692251 -9.817262
v -3.735170 0.242510 -9.817262
v -2.294194 0.242510 -9.817262
v -3.620924 1.510547 -9.817262
v -2.408441 1.510547 -9.817262
v -2.475554 0.242510 -9.817262
v -3.553811 0.242510 -9.817262
v -3.620924 1.510547 -9.680237
v -2.408441 1.510547 -9.680237
v -2.475554 0.242510 -9.680237
v -3.553811 0.242510 -9.680237
vt 0.648856 0.236962
vt 0.648856 0.491407
vt 0.651130 0.888602
vt 0.909254 0.552685
vt 0.508782 0.208955
vt 0.647550 0.905538
vt 0.647550 0.714761
vt 0.498830 0.018438
vt 0.648856 0.710042
vt 0.603981 0.710042
vt 0.075888 0.691922
vt 0.648856 0.018327
vt 0.626963 0.905538
vt 0.417527 0.926678
vt 0.676979 0.667448
vt 0.463366 0.744513
vt 0.438114 0.926678
vt 0.442779 0.935291
vt 0.442779 0.744513
vt 0.438114 0.744513
vt 0.326618 0.208830
vt 0.336832 0.018327
vt 0.684587 0.858073
vt 0.883252 0.771148
vt 0.417527 0.744513
vt 0.882170 0.588987
vt 0.043792 0.880492
vt 0.463366 0.935291
vt 0.048725 0.689778
vt 0.626963 0.714761
vt 0.603981 0.491407
vt 0.910766 0.807126
vt 0.603981 0.236962
vt 0.077674 0.910549
vt 0.649848 0.669972
vt 0.603981 0.018327
vn 0.000000 1.000000 0.000000
vn 0.000000 1.000000 0.000000
vn 0.000000 1.000000 0.000000
vn 0.000000 1.000000 0.000000
vn 0.000000 0.000000 -1.000000
vn 0.000000 0.000000 -1.000000
vn 0.000000 0.000000 -1.000000
vn 0.000000 0.000000 -1.000000
vn 0.996226 -0.086793 0.000000
vn 0.996226 -0.086793 0.000000
vn 0.996226 -0.086793 0.000000
vn 0.996226 -0.086793 0.000000
vn -0.996226 -0.086793 0.000000
vn -0.996226 -0.086793 0.000000
vn -0.996226 -0.086793 0.000000
vn -0.996226 -0.086793 0.000000
vn 0.000000 0.000000 -1.000000
vn 0.000000 0.000000 -1.000000
vn 0.000000 0.000000 -1.000000
vn 0.000000 0.000000 -1.000000
vn -0.000000 0.000000 -1.000000
vn -0.000000 0.000000 -1.000000
vn -0.000000 0.000000 -1.000000
vn -0.000000 0.000000 -1.000000
vn 0.000000 0.000000 -1.000000
vn 0.000000 0.000000 -1.000000
vn 0.000000 0.000000 -1.000000
vn 0.000000 0.000000 -1.000000
vn 0.000000 -1.000000 0.000000
vn 0.000000 -1.000000 0.000000
vn 0.000000 -1.000000 0.000000
vn 0.000000 -1.000000 0.000000
vn -0.998602 0.052852 0.000000
vn -0.998602 0.052852 0.000000
vn -0.998602 0.052852 0.000000
vn -0.998602 0.052852 0.000000
vn 0.998602 0.052852 0.000000
vn 0.998602 0.052852 0.000000
vn 0.998602 0.052852 0.000000
vn 0.998602 0.052852 0.000000
s off
g DecoTienda Tienda pCube296
usemtl initialShadingGroup
f 152/377/453 153/378/454 155/407/455 154/409/456
f 162/381/457 163/397/458 164/398/459 165/384/460
f 151/385/461 157/386/462 155/407/463 153/378/464
f 156/412/465 150/388/466 152/377/467 154/409/468
f 154/380/469 155/408/470 159/400/471 158/402/472
f 155/379/473 157/411/474 160/391/475 159/399/476
f 156/387/477 154/410/478 158/403/479 161/405/480
f 158/390/481 159/401/482 163/396/483 162/393/484
f 159/389/485 160/406/486 164/383/487 163/382/488
f 161/392/489 158/404/490 162/394/491 165/395/492
