# This file uses centimeters as units for non-parametric coordinates.

mtllib Hierva.mtl
g default
v 0.000000 0.003890 0.305459
v -0.000000 0.825580 0.305459
v 0.000000 0.003890 -0.305459
v -0.000000 0.825580 -0.305459
v 0.156513 1.477924 0.261219
v 0.156513 1.477924 -0.261219
v 0.531441 1.943641 0.194901
v 0.531441 1.943641 -0.194901
v 0.977464 2.150678 0.079191
v 0.977464 2.150678 -0.079191
v 1.291516 2.228186 -0.000000
vt 0.557846 0.057170
vt 0.560618 0.255314
vt 0.413300 0.257376
vt 0.410527 0.059231
vt 0.552214 0.417235
vt 0.426232 0.418998
vt 0.538239 0.561634
vt 0.444242 0.562950
vt 0.511996 0.680602
vt 0.473804 0.681137
vt 0.493991 0.758873
vn -1.000000 -0.000000 0.000000
vn -0.995111 0.098766 0.000000
vn -0.995111 0.098766 0.000000
vn -1.000000 -0.000000 0.000000
vn -0.918179 0.396167 0.000000
vn -0.918179 0.396167 0.000000
vn -0.692465 0.721451 0.000000
vn -0.692465 0.721451 0.000000
vn -0.399503 0.916732 0.000000
vn -0.399503 0.916732 0.000000
vn -0.239612 0.970869 0.000000
s 1
g pPlane1
usemtl initialShadingGroup
f 1/1/1 2/2/2 4/3/3 3/4/4
f 4/3/3 2/2/2 5/5/5 6/6/6
f 6/6/6 5/5/5 7/7/7 8/8/8
f 8/8/8 7/7/7 9/9/9 10/10/10
f 10/10/10 9/9/9 11/11/11
g default
v 0.000000 0.005452 -0.756026
v 0.000000 1.156974 -0.756026
v 0.000000 0.005452 -1.243974
v 0.000000 1.156974 -1.243974
v 0.156513 2.071174 -0.791361
v 0.156513 2.071174 -1.208639
v 0.531441 2.723835 -0.844330
v 0.531441 2.723835 -1.155670
v 0.977464 3.013977 -0.936749
v 0.977464 3.013977 -1.063251
v 1.291516 3.122598 -1.000000
vt 0.386839 0.056809
vt 0.385128 0.334512
vt 0.267454 0.333787
vt 0.269165 0.056084
vt 0.375229 0.558137
vt 0.274597 0.557517
vt 0.361337 0.739577
vt 0.286253 0.739115
vt 0.338258 0.867759
vt 0.307751 0.867571
vt 0.322511 0.947805
vn -1.000000 0.000000 0.000000
vn -0.997448 0.071400 0.000000
vn -0.997448 0.071400 0.000000
vn -1.000000 0.000000 0.000000
vn -0.954640 0.297764 0.000000
vn -0.954640 0.297764 0.000000
vn -0.798835 0.601550 0.000000
vn -0.798835 0.601550 0.000000
vn -0.519621 0.854397 0.000000
vn -0.519621 0.854397 0.000000
vn -0.326872 0.945069 0.000000
s 1
g pPlane2
usemtl initialShadingGroup
f 12/12/12 13/13/13 15/14/14 14/15/15
f 15/14/14 13/13/13 16/16/16 17/17/17
f 17/17/17 16/16/16 18/18/18 19/19/19
f 19/19/19 18/18/18 20/20/20 21/21/21
f 21/21/21 20/20/20 22/22/22
g default
v 0.000000 0.002816 1.347716
v 0.000000 0.597509 1.347716
v 0.000000 0.002816 0.652285
v 0.000000 0.597509 0.652285
v 0.156513 1.069639 1.297356
v 0.156513 1.069639 0.702644
v 0.531441 1.406700 1.221864
v 0.531441 1.406700 0.778136
v 0.977464 1.556542 1.090146
v 0.977464 1.556542 0.909854
v 1.291516 1.612638 1.000000
vt 0.749900 0.053479
vt 0.751766 0.196886
vt 0.584066 0.199069
vt 0.582200 0.055661
vt 0.741184 0.316989
vt 0.597771 0.318856
vt 0.724561 0.438803
vt 0.617558 0.440196
vt 0.694275 0.552680
vt 0.650799 0.553246
vt 0.673538 0.629894
vn -1.000000 0.000000 0.000000
vn -0.990978 0.134024 0.000000
vn -0.990978 0.134024 0.000000
vn -1.000000 0.000000 0.000000
vn -0.862065 0.506798 0.000000
vn -0.862065 0.506798 0.000000
vn -0.574377 0.818591 0.000000
vn -0.574377 0.818591 0.000000
vn -0.301552 0.953450 0.000000
vn -0.301552 0.953450 0.000000
vn -0.175838 0.984419 0.000000
s 1
g pPlane3
usemtl initialShadingGroup
f 23/23/23 24/24/24 26/25/25 25/26/26
f 26/25/25 24/24/24 27/27/27 28/28/28
f 28/28/28 27/27/27 29/29/29 30/30/30
f 30/30/30 29/29/29 31/31/31 32/32/32
f 32/32/32 31/31/31 33/33/33
