# ProBuilder 6.0.9
# https://unity3d.com/unity/features/worldbuilding/probuilder
# 02/06/2026 10:54:09 p. m.

mtllib ./IsladelTesoroV2.mtl
o IsladelTesoroV2

g Cube (1)
v 105 0 49
v 89 0 50
v 105 1 49
v 89 1 50
v 89 0 41
v 89 1 41
v 105 0 41
v 105 1 41
v 151 7.5 41
v 151 7.5 44
v 151 8.5 41
v 151 8.5 44
v 123 2.5 41
v 123 2.5 47
v 123 3.5 41
v 123 3.5 47
v 136 4.5 41
v 136 4.5 45
v 136 5.5 41
v 136 5.5 45
v 146 7.5 41
v 146 7.5 44
v 146 8.5 41
v 146 8.5 44
v 148 8.5 33
v 148 7.5 33
v 151 8.5 36.99999
v 151 7.5 36.99999
v 95.99999 16 41
v 95.99999 0 41
v 95.99999 16 36.99999
v 95.99999 0 36.99999
v 136 10.5 41
v 136 0 41
v 138 10.25 34
v 138 -0.25 34
v 124 12 41
v 124 0 41
v 126 12 34
v 126 0 34
v 114 14 41
v 114 0 41
v 116 14 34
v 116 0 34
v 108 16 41
v 108 0 41
v 110 16 36
v 110 0 36
v 108 0 30.99999
v 108 16 30.99999
v 95.99999 0 30.99999
v 95.99999 16 30.99999

vt 16.03122 0
vt 0 0
vt 16.03122 1
vt 0 1
vt 9 0
vt 9 1
vt 16 0
vt 16 1
vt 3 0
vt 3 1
vt 0 -8
vt 16 -8
vt 0 -7
vt 18.17279 -7
vt 18.17279 -1
vt 18.00001 -1.5
vt 18.00001 -2.5
vt 0 -2.5
vt 0 -1.5
vt 18.11078 0
vt 18.11078 1
vt 18.17279 1
vt 0 -1
vt 0 -5
vt 13.15294 -5
vt 13.15294 -1
vt 12.99999 -1
vt 12.99999 -2
vt 0 -2
vt 13.15294 0
vt 13.15294 1
vt 0 -3
vt 10.44032 -3
vt 10.44032 0
vt 10.00002 -2
vt 10.00002 -3
vt 10.04989 0
vt 10.04989 1
vt 10.44032 1
vt 5 -2
vt 5 1
vt 5.000002 0
vt 4.00001 1
vt 4.00001 -15
vt 0 -15
vt 3.000015 -7
vt 1.999985 -7
vt 5 -3.00001
vt 4.00001 0
vt 10.00003 -1
vt 0 -9.5
vt 0 -7.007799
vt 1.968529 0.9999999
vt 10.15187 -6.006824
vt 12.1646 0.9910916
vt 12.50002 1
vt 14.10002 -7.089498
vt 1.450014 -6.130231
vt 0 -1.75
vt 0 -0.75
vt 10.04987 -9.5
vt 12 -0.5
vt 12 -11
vt 0 -11
vt 0 -6.001579
vt 2.015156 0.9985428
vt 12.12693 -6.001579
vt 14.10601 1
vt 12 0.9999999
vt 14.00002 -6.004463
vt 0 0.9999999
vt 2.000015 -5.99554
vt 0 -11.25
vt 12 1
vt 9.999992 -1
vt 9.999992 -13
vt 0 -13
vt 0 -6.010981
vt 1.961176 1
vt 10.19804 -6.010981
vt 12.15921 0.9999999
vt 9.999992 1
vt 12.00001 -6
vt 2.000008 -6
vt 10 -13
vt 10 1
vt 6 -1
vt 6 -15
vt 0 -6.053482
vt 1.876693 0.9805822
vt 6.321469 -4.043749
vt 8.198162 1
vt 6 1
vt 8.000008 -6
vt 2.000008 -4
vt 6.324555 -15
vt 6.324555 1
vt 12 -15
vt 0 -4
vt 2.000008 1
vt 14.00001 -3.00001
vt 14.00001 1
vt 14.00001 -4
vt 5.385177 -15
vt 5.385177 1
vt 14.00001 1.001358E-05
vt 0 -5
vt 12 -5
vt 2.000008 -5
vt 14.00001 -5
vt 6 1
vt 6 -15

vn 0.06237829 0 0.9980526
vn -1 0 0
vn 0 0 -1
vn 1 0 0
vn 0 1 0
vn 0 -1 0
vn 0.1375683 -0.9904922 0
vn 0.1104315 0 0.9938837
vn -0.1375683 0.9904922 0
vn 0.1520573 -0.9883717 0
vn 0.1520573 0 0.9883717
vn -0.1520573 0.9883717 0
vn 0.2873475 -0.9578264 0
vn 0.09950357 0 0.9950373
vn -0.2873475 0.9578264 0
vn 0.7999977 0 -0.6000029
vn 0 0 1
vn 0.176492 0.9833127 0.04412266
vn 0.1862821 0.9818385 0.03256536
vn 0.1960723 0.9803643 0.02100806
vn 0.5933608 -0.7911501 0.1483391
vn 0.6029133 -0.7776637 0.1753113
vn 0.6124658 -0.7641774 0.2022836
vn -0.09950373 0 -0.9950372
vn 0.1443044 0.9895158 0.00589029
vn 0.1341307 0.9905856 0.02065341
vn 0.1239569 0.9916553 0.03541653
vn 0 -0.9993629 0.03569153
vn -0.01041422 -0.9995641 0.01487025
vn -0.02082844 -0.9997653 -0.00595103
vn 0.195809 0.9790449 0.05594585
vn 0.3440313 0.9337989 0.09829503
vn 0.3288796 0.9374913 0.1118933
vn 0.3137279 0.9411836 0.1254916
vn -0.3162278 0 -0.9486833
vn 0.9284765 0 -0.3713913

usemtl ProBuilderDefault
f 3/3/1 4/4/1 2/2/1 1/1/1
f 4/6/2 6/4/2 5/2/2 2/5/2
f 6/8/3 8/4/3 7/2/3 5/7/3
f 11/10/4 12/4/4 10/2/4 9/9/4
f 8/11/5 6/12/5 4/8/5 3/2/5
f 1/7/6 2/4/6 5/11/6 7/12/6
f 13/14/7 14/15/7 1/4/7 7/13/7
f 15/4/3 13/2/3 7/17/3 8/16/3
f 14/20/8 16/21/8 3/19/8 1/18/8
f 16/23/9 15/13/9 8/14/9 3/22/9
f 17/25/10 18/26/10 14/4/10 13/24/10
f 19/4/3 17/2/3 13/28/3 15/27/3
f 18/30/11 20/31/11 16/23/11 14/29/11
f 20/23/12 19/24/12 15/25/12 16/31/12
f 21/33/13 22/34/13 18/4/13 17/32/13
f 23/4/3 21/2/3 17/36/3 19/35/3
f 22/37/14 24/38/14 20/29/14 18/32/14
f 24/2/15 23/32/15 19/33/15 20/39/15
f 9/40/6 10/41/6 22/4/6 21/29/6
f 27/4/16 28/2/16 26/42/16 25/41/16
f 10/42/17 12/41/17 24/4/17 22/2/17
f 12/4/5 11/29/5 23/40/5 24/41/5
f 31/4/2 32/45/2 30/44/2 29/43/2
f 27/32/5 25/46/5 23/41/5 11/4/5
f 26/47/6 28/48/6 9/41/6 21/4/6
f 28/49/4 27/43/4 11/4/4 9/2/4
f 33/4/17 34/51/17 21/35/17 23/50/17
f 35/54/19 33/55/20 23/53/19 25/52/18
f 34/4/22 36/58/23 26/57/22 21/56/21
f 36/61/24 35/38/24 25/60/24 26/59/24
f 37/4/17 38/64/17 34/63/17 33/62/17
f 39/67/26 37/68/27 33/66/26 35/65/25
f 38/71/29 40/72/30 36/70/29 34/69/28
f 40/63/3 39/74/3 35/60/3 36/73/3
f 41/4/17 42/77/17 38/76/17 37/75/17
f 43/80/31 41/81/31 37/79/31 39/78/31
f 42/4/6 44/84/6 40/83/6 38/82/6
f 44/85/3 43/86/3 39/23/3 40/77/3
f 45/4/17 46/45/17 42/88/17 41/87/17
f 47/91/33 45/92/34 41/90/33 43/89/32
f 46/4/6 48/95/6 44/94/6 42/93/6
f 48/96/35 47/97/35 43/23/35 44/45/35
f 29/4/17 30/45/17 46/98/17 45/74/17
f 31/101/5 29/102/5 45/100/5 47/99/5
f 30/4/6 32/32/6 48/103/6 46/74/6
f 51/98/3 52/74/3 50/4/3 49/45/3
f 49/104/36 50/105/36 47/4/36 48/45/36
f 51/107/6 49/108/6 48/106/6 32/4/6
f 50/109/5 52/110/5 31/102/5 47/2/5
f 52/4/2 51/45/2 32/112/2 31/111/2

g Cube (2)
v 102 0 24
v 93.5 0 24
v 102 16.5 24.00001
v 93.5 16 24.00001
v 93.5 0 17
v 93.5 16 17.00001
v 101.5 0 16.5
v 101.5 16.5 16.5
v 109.5 0 13.5
v 109.5 0 20.5
v 109.5 16.5 13.5
v 109.5 16.5 20.5

vt 8.5 -15.5
vt 4.768372E-07 -15.5
vt 8.5 1
vt 0 0.5
vt 7 -15
vt 0 -15
vt 7.000006 1
vt 6.67572E-06 1
vt 8.01561 -15.5
vt 8.015608 0.5000005
vt 7.000006 -15.5
vt 0 0.999999
vt 8.514693 1
vt 0.4991372 -6.500062
vt 8.51469 -5.999946
vt 8 -6.500001
vt 0 -6
vt 8.499999 0.9999993
vt 0 -6.5
vt 0.4999998 1
vt 8 -9.500004
vt 8 -2.500004
vt 8.544006 1
vt 8.544006 -15.5
vt 8.276477 -15.5
vt 8.276475 1
vt 7.500001 1
vt 8 -6.500004
vt 9.536743E-07 -2.500004
vt 0 -9.50001

vn 1.139501E-07 -3.467906E-07 1
vn -1 -2.980232E-08 2.980232E-08
vn -0.06237844 4.238561E-07 -0.9980526
vn 1 0 1.064369E-07
vn -0.05872157 0.9982668 0.003914769
vn -0.06054994 0.9981596 0.001957375
vn -0.06237831 0.9980526 -1.938691E-08
vn 0 -1 0
vn -0.351124 1.217663E-07 -0.936329
vn 0.4228859 -3.142558E-07 0.906183
vn 0 1 0

usemtl ProBuilderDefault
f 55/115/37 56/116/37 54/114/37 53/113/37
f 56/119/38 58/120/38 57/118/38 54/117/38
f 58/122/39 60/120/39 59/114/39 57/121/39
f 63/119/40 64/120/40 62/114/40 61/123/40
f 60/126/42 58/127/43 56/125/42 55/124/41
f 53/130/44 54/120/44 57/129/44 59/128/44
f 61/133/44 62/134/44 53/132/44 59/131/44
f 63/120/45 61/114/45 59/136/45 60/135/45
f 62/137/46 64/138/46 55/120/46 53/114/46
f 64/141/47 63/142/47 60/140/47 55/139/47

g Cube (4)
v 127 0 22
v 119.7811 0 26.64712
v 127 16.5 22
v 119.7811 16.5 26.64712
v 116 0 23.1471
v 116 16.5 23.1471
v 116.5 0 15.5
v 116.5 16.5 15.5
v 120.5 0 9.999998
v 127.5 0 12.5
v 120.5 16.5 9.999996
v 127.5 16.5 12.5

vt 8.585361 -15.5
vt 0 -15.5
vt 8.585367 1
vt 1.907349E-06 1
vt 5.152343 -15.5
vt 5.152347 1
vt 7.663438 -15.5
vt 7.663436 1
vt 7.433034 -15.5
vt 7.433035 1
vt 0.3791466 1
vt 8.013136 -2.928194
vt 0 -11.34327
vt 6.87258 -7.95271
vt 8.013131 -11.34327
vt 1.140551 -7.952709
vt 7.633986 1
vt 0 -2.928191
vt 0.3791456 -11.34327
vt 7.142289 -10.62917
vt 8.477239 -3.316996
vt 6.800735 1
vt 6.80074 -15.5
vt 9.51315 -15.5
vt 9.513149 1
vt 8.477234 1
vt 8.098087 -11.34327
vt 0 -3.317002
vt 1.334948 -10.62918

vn 0.5412838 -2.539735E-07 0.8408399
vn -0.6793049 5.757562E-08 0.7338562
vn -0.9978694 4.580411E-07 -0.06524389
vn 0.3363363 -6.723908E-08 -0.941742
vn 0 1 0
vn 0 -1 0
vn -0.808736 3.145288E-07 -0.5881718
vn 0.9986178 -4.654463E-07 0.05255961

usemtl ProBuilderDefault
f 67/145/48 68/146/48 66/144/48 65/143/48
f 68/148/49 70/146/49 69/144/49 66/147/49
f 70/150/50 72/146/50 71/144/50 69/149/50
f 75/152/51 76/146/51 74/144/51 73/151/51
f 72/155/52 70/156/52 68/154/52 67/153/52
f 65/159/53 66/160/53 69/158/53 71/157/53
f 73/162/53 74/163/53 65/146/53 71/161/53
f 75/146/54 73/144/54 71/165/54 72/164/54
f 74/166/55 76/167/55 67/146/55 65/144/55
f 76/170/52 75/171/52 72/169/52 67/168/52

g Cube (6)
v 127 0 62.5
v 119.7811 0 67.14712
v 127 20 62.5
v 119.7811 20 67.14712
v 116 0 63.64711
v 116 20 63.64711
v 116.5 0 56
v 116.5 20 56
v 120.5 0 50.5
v 127.5 0 53
v 120.5 20 50.5
v 127.5 20 53

vt 8.585361 -19
vt 0 -19
vt 8.585369 1
vt 5.483627E-06 1
vt 5.152343 -19
vt 5.152352 1
vt 7.663437 -19
vt 7.663436 1
vt 7.433041 -19
vt 7.433036 1
vt 0.3791473 1
vt 8.013135 -2.928194
vt 0 -11.34327
vt 6.872579 -7.952711
vt 8.013131 -11.34327
vt 1.140551 -7.952709
vt 7.633986 1
vt 0 -2.928191
vt 0.3791456 -11.34327
vt 7.142289 -10.62917
vt 8.477239 -3.316996
vt 6.800735 1
vt 6.800741 -19
vt 9.513154 -19
vt 9.513148 1
vt 8.477234 1
vt 8.098086 -11.34327
vt 0 -3.317002
vt 1.334946 -10.62918

vn 0.5412839 -5.226892E-07 0.8408399
vn -0.6793049 1.599727E-07 0.7338562
vn -0.9978694 6.662484E-07 -0.06524389
vn 0.3363363 -5.099756E-08 -0.941742
vn 0 1 0
vn 0 -1 0
vn -0.8087361 5.914272E-07 -0.5881717
vn 0.9986178 -6.652036E-07 0.05255961

usemtl ProBuilderDefault
f 79/174/56 80/175/56 78/173/56 77/172/56
f 80/177/57 82/175/57 81/173/57 78/176/57
f 82/179/58 84/175/58 83/173/58 81/178/58
f 87/181/59 88/175/59 86/173/59 85/180/59
f 84/184/60 82/185/60 80/183/60 79/182/60
f 77/188/61 78/189/61 81/187/61 83/186/61
f 85/191/61 86/192/61 77/175/61 83/190/61
f 87/175/62 85/173/62 83/194/62 84/193/62
f 86/195/63 88/196/63 79/175/63 77/173/63
f 88/199/60 87/200/60 84/198/60 79/197/60

g Cube (8)
v 106.5 0 64.5
v 100 -0.25 65.5
v 106.5 22.5 64.5
v 100 22.25 65.5
v 95.5 0 65.6471
v 95.50002 22.5 65.6471
v 93.49999 -0.25 54
v 93.50001 22.25 54
v 100.5 -0.25 50.5
v 107 0 55
v 100.5 22.25 50.5
v 107 22.5 55

vt 6.576467 -21.5
vt 0 -21.75
vt 6.576479 1
vt 7.629395E-06 0.75
vt 4.502404 -21.75
vt 0 -21.5
vt 4.502411 0.75
vt 1.358986E-05 1
vt 11.81757 -21.5
vt 11.81758 1
vt 7.905703 -21.75
vt 7.905694 0.75
vt 2.582902 1
vt 6.705161 -4.130249
vt 0 -15.51184
vt 9.072357 -7.946118
vt 9.089623 -15.50961
vt 0 -7.953403
vt 6.492478 1
vt 2.381342 -4.132744
vt 2.595395 -15.50989
vt 9.12623 -11.19731
vt 8.476891 -3.315536
vt 7.82624 1
vt 7.826252 -21.5
vt 9.513154 -21.5
vt 9.513149 1
vt 9.121922 1
vt 6.53087 -15.51057
vt 0.6449862 -3.317587
vt 0 -11.19989

vn 0.1520577 -2.854827E-07 0.9883717
vn 0.03267238 -1.043645E-08 0.9994661
vn -0.9855749 5.84903E-07 0.1692401
vn 0.5692101 -7.346758E-08 -0.8221921
vn -0.03535544 0.999175 0.01998352
vn 0.009542777 0.9986089 -0.005393744
vn 0.05444099 0.9980428 -0.030771
vn 0.002198504 -0.9997754 0.02108222
vn -0.03080148 -0.8941 -0.2953658
vn -0.06380145 -0.7884245 -0.6118139
vn 0.007351948 -0.9998649 0.01470389
vn 0.02221785 -0.9995875 0.00832785
vn 0.03708375 -0.9993103 0.001951806
vn -0.447214 4.491708E-07 -0.8944269
vn 0.9986178 -6.053685E-07 0.05255964
vn -0.01844346 0.9998295 -0.000970708
vn -0.01728101 0.9995899 -0.01660389
vn -0.01611856 0.9993502 -0.03223708

usemtl ProBuilderDefault
f 91/203/64 92/204/64 90/202/64 89/201/64
f 92/207/65 94/208/65 93/206/65 90/205/65
f 94/210/66 96/204/66 95/202/66 93/209/66
f 99/212/67 100/208/67 98/206/67 97/211/67
f 96/215/69 94/216/70 92/214/69 91/213/68
f 89/219/72 90/220/73 93/218/72 95/217/71
f 97/222/75 98/223/76 89/208/75 95/221/74
f 99/208/77 97/206/77 95/225/77 96/224/77
f 98/226/78 100/227/78 91/208/78 89/206/78
f 100/230/80 99/231/81 96/229/80 91/228/79

g Cube (3)
v 99 15.5 31
v 97 15.5 31
v 99 16 31
v 97 16 31
v 97 15.5 24
v 99 15.5 24
v 97 16 24
v 99 16 24
v 97 14.75 29.25
v 97 15.25 29.25
v 97 14.75 27.5
v 97 15.25 27.5
v 99 15.25 29.25
v 99 14.75 29.25
v 99 15.25 27.5
v 99 14.75 27.5
v 97 14.75 25.75
v 97 15.25 25.75
v 99 15.25 25.75
v 99 14.75 25.75

vt 2 0.5
vt 0 0.5
vt 2 1
vt 0 1
vt 7 0.5
vt 5.25 -0.25
vt 5.25 0.25
vt 7 1
vt 3.5 -0.25
vt 3.5 0.25
vt 1.75 0.25
vt 1.75 -0.25
vt 2 -2.5
vt 0 -2.5
vt 0 -0.75
vt 2 -0.75
vt 2 -6
vt 0 -6
vt 0 -4.25
vt 2 -4.25

vn 0 0 1
vn 0 0 -1
vn -1 0 0
vn 1 0 0
vn 0 1 0
vn 0 0.919145 -0.3939193
vn 0 -1 0
vn 0 -0.919145 0.3939193
vn 0 0.919145 0.3939193
vn 0 -0.919145 -0.3939193

usemtl ProBuilderDefault
f 103/234/82 104/235/82 102/233/82 101/232/82
f 107/234/83 108/235/83 106/233/83 105/232/83
f 104/239/84 110/238/84 109/237/84 102/236/84
f 110/238/84 112/241/84 111/240/84 109/237/84
f 114/243/85 113/242/85 103/235/85 101/233/85
f 116/240/85 115/241/85 113/242/85 114/243/85
f 110/247/86 113/246/86 115/245/86 112/244/86
f 104/234/87 103/235/87 113/246/87 110/247/87
f 116/244/88 114/247/88 109/246/88 111/245/88
f 114/247/89 101/234/89 102/235/89 109/246/89
f 118/242/84 117/243/84 111/240/84 112/241/84
f 107/235/84 105/233/84 117/243/84 118/242/84
f 115/241/85 116/240/85 120/237/85 119/238/85
f 119/238/85 120/237/85 106/236/85 108/239/85
f 118/251/90 119/250/90 108/249/90 107/248/90
f 112/244/86 115/245/86 119/250/86 118/251/86
f 106/248/91 120/251/91 117/250/91 105/249/91
f 120/251/88 116/244/88 111/245/88 117/250/88

g Cube (5)
v 116.5 16 16.50001
v 116.5 16 18.50001
v 116.5 16.5 16.50001
v 116.5 16.5 18.50001
v 109.5 16 18.49999
v 109.5 16 16.49999
v 109.5 16.5 18.49999
v 109.5 16.5 16.49999
v 114.75 15.25 18.50001
v 114.75 15.75 18.50001
v 113 15.25 18.5
v 113 15.75 18.5
v 114.75 15.75 16.50001
v 114.75 15.25 16.50001
v 113 15.75 16.5
v 113 15.25 16.5
v 111.25 15.25 18.49999
v 111.25 15.75 18.49999
v 111.25 15.75 16.49999
v 111.25 15.25 16.49999

vt 2 0.5
vt 0 0.5
vt 2 1
vt 0 1
vt 7 0.5
vt 5.25 -0.25
vt 5.25 0.25
vt 7 1
vt 3.5 -0.25
vt 3.5 0.25
vt 1.75 0.25
vt 1.75 -0.25
vt 2 -2.5
vt 0 -2.5
vt 0 -0.75
vt 2 -0.75
vt 2 -6
vt 0 -6
vt 0 -4.25
vt 2 -4.25

vn 1 0 3.039837E-06
vn -1 0 -3.039837E-06
vn -3.039837E-06 0 1
vn 3.039837E-06 0 -1
vn 0 1 0
vn -0.3939193 0.919145 -1.19745E-06
vn 0 -1 0
vn 0.3939193 -0.919145 1.19745E-06
vn 0.3939193 0.919145 1.19745E-06
vn -0.3939193 -0.919145 -1.19745E-06

usemtl ProBuilderDefault
f 123/254/92 124/255/92 122/253/92 121/252/92
f 127/254/93 128/255/93 126/253/93 125/252/93
f 124/259/94 130/258/94 129/257/94 122/256/94
f 130/258/94 132/261/94 131/260/94 129/257/94
f 134/263/95 133/262/95 123/255/95 121/253/95
f 136/260/95 135/261/95 133/262/95 134/263/95
f 130/267/96 133/266/96 135/265/96 132/264/96
f 124/254/97 123/255/97 133/266/97 130/267/97
f 136/264/98 134/267/98 129/266/98 131/265/98
f 134/267/99 121/254/99 122/255/99 129/266/99
f 138/262/94 137/263/94 131/260/94 132/261/94
f 127/255/94 125/253/94 137/263/94 138/262/94
f 135/261/95 136/260/95 140/257/95 139/258/95
f 139/258/95 140/257/95 126/256/95 128/259/95
f 138/271/100 139/270/100 128/269/100 127/268/100
f 132/264/96 135/265/96 139/270/96 138/271/96
f 126/268/101 140/271/101 137/270/101 125/269/101
f 140/271/98 136/264/98 131/265/98 137/270/98

g Cube (7)
v 124 19.25 53.25
v 118.5 19.25 53.25
v 124 19.75 53.25
v 118.5 19.75 53.25
v 118.5 16.5 24.75
v 124 16.5 24.75
v 118.5 17 24.75
v 124 17 24.75
v 118.5 19.75 39
v 118.5 18.25 31.875
v 118.5 18.75 31.875
v 118.5 20.25 39
v 124 19.75 39
v 124 20.25 39
v 124 18.75 31.875
v 124 18.25 31.875
v 118.5 20.25 46.125
v 118.5 20.75 46.125
v 124 20.75 46.125
v 124 20.25 46.125

vt 5.5 0.5
vt 0 0.5
vt 5.5 1
vt 0 1
vt 14.25 0
vt 7.125 -1.5
vt 7.125 -1
vt 14.25 0.5
vt 0 -3.25
vt 0 -2.75
vt 21.375 -1
vt 21.375 -1.5
vt 28.5 -2.75
vt 28.5 -3.25
vt 5.5 -27.63235
vt 0 -27.63235
vt 0 -20.37338
vt 5.5 -20.37338
vt 0 -13.13815
vt 5.5 -13.13815
vt 28.5 -0.5
vt 21.375 0.5
vt 21.375 1
vt 28.5 0
vt 0 -0.5
vt 0 0
vt 7.125 1
vt 7.125 0.5
vt 0 -5.997866
vt 5.5 -5.997866

vn 0 0 1
vn 0 0 -1
vn -1 0 0
vn 1 0 0
vn 0 0.9711365 -0.2385247
vn 0 0.9785498 -0.2060105
vn 0 -0.9711365 0.2385247
vn 0 -0.9785498 0.2060105
vn 0 0.9975467 -0.07000328
vn 0 0.990294 0.1389886
vn 0 -0.9975467 0.07000328
vn 0 -0.990294 -0.1389886

usemtl ProBuilderDefault
f 143/274/102 144/275/102 142/273/102 141/272/102
f 147/274/103 148/275/103 146/273/103 145/272/103
f 152/279/104 151/278/104 150/277/104 149/276/104
f 151/278/104 147/281/104 145/280/104 150/277/104
f 156/283/105 155/282/105 154/279/105 153/276/105
f 146/285/105 148/284/105 155/282/105 156/283/105
f 151/289/106 155/288/106 148/287/106 147/286/106
f 152/291/107 154/290/107 155/288/107 151/289/107
f 146/286/108 156/289/108 150/288/108 145/287/108
f 156/289/109 153/291/109 149/290/109 150/288/109
f 144/295/104 158/294/104 157/293/104 142/292/104
f 158/294/104 152/279/104 149/276/104 157/293/104
f 160/299/105 159/298/105 143/297/105 141/296/105
f 153/276/105 154/279/105 159/298/105 160/299/105
f 158/301/110 159/300/110 154/290/110 152/291/110
f 144/274/111 143/275/111 159/300/111 158/301/111
f 153/291/112 160/301/112 157/300/112 149/290/112
f 160/301/113 141/274/113 142/275/113 157/300/113

g Cube (9)
v 116.5507 20.00407 63.30992
v 116.2918 19.03815 63.30992
v 106.6193 22.64566 62.69009
v 106.3605 21.67973 62.69009
v 116.4494 18.99593 57.98101
v 106.518 21.63751 57.36118
v 116.7082 19.96186 57.98101
v 106.7769 22.60344 57.36118

vt 1.018844 -9.295304
vt 0.0188446 -9.295303
vt 1 1
vt 0 0.9999995
vt 5.328199 -9.480107
vt 0 -9.295193
vt 5.380183 0.8150821
vt 0.05198407 1
vt 1.000001 -9.295307
vt 1.018847 1
vt 0.01884604 1
vt 5.380183 -9.295194
vt 0.05198383 -9.480108
vt 5.328198 1
vt 0 0.8150826
vt 0 1
vt 2.384186E-07 -4.331406
vt 1.000002 -4.331407

vn -0.05815326 0.01558213 0.9981861
vn -0.2570507 -0.966398 5.611821E-05
vn 0.05815322 -0.01558212 -0.9981861
vn 0.2570505 0.966398 -5.576517E-05
vn -0.9654739 0.2586975 -0.03059408
vn 0.9654736 -0.2586984 0.03059463

usemtl ProBuilderDefault
f 163/304/114 164/305/114 162/303/114 161/302/114
f 164/308/115 166/309/115 165/307/115 162/306/115
f 166/311/116 168/312/116 167/307/116 165/310/116
f 168/315/117 163/316/117 161/314/117 167/313/117
f 168/318/118 166/319/118 164/304/118 163/317/118
f 161/304/119 162/317/119 165/318/119 167/319/119

