# This file uses centimeters as units for non-parametric coordinates.

mtllib IslasDesiertasBase.mtl
g default
v -106.465524 1.601357 15.900900
v -90.341110 1.601357 19.377983
v -80.646361 2.199802 11.583527
v -109.651311 1.601357 -0.276188
v -92.542538 3.491713 0.205374
v -74.677026 2.199802 1.787651
v -106.974787 1.601357 -15.661458
v -92.060976 1.601357 -21.237456
v -79.354782 2.199802 -13.045422
v -101.100805 1.601357 -21.354706
v -111.557216 1.601357 -8.284096
v -75.247726 2.199802 -5.876285
v -83.915477 1.601357 -17.570997
v -100.344064 1.601357 19.976791
v -92.542538 3.491713 9.344515
v -101.681679 3.034241 0.205374
v -110.043733 1.601357 10.689890
v -83.502709 1.601357 15.505142
v -77.173979 2.199802 6.974981
v -83.403398 3.491713 0.205374
v -92.542538 3.034241 -8.933766
v -101.052354 3.034241 8.715190
v -84.032723 3.491713 8.715190
v -101.052354 3.034241 -8.304441
v -84.032723 3.034241 -8.304441
v -110.565052 0.572432 21.215031
v -102.228132 0.572432 25.364368
v -89.617402 0.572432 24.609445
v -114.456510 0.572432 13.656362
v -113.961783 0.572432 -0.168579
v -80.996227 0.572432 19.726953
v -77.395226 0.572432 14.782970
v -73.017591 0.572432 8.972973
v -69.869680 0.572432 2.433304
v -116.364557 0.572432 -10.264154
v -113.026536 0.572432 -20.123752
v -70.589164 0.572432 -7.228625
v -75.766933 0.572432 -16.266763
v -103.182155 0.572432 -26.742277
v -91.785638 0.572432 -26.594461
v -81.516602 0.572432 -21.972157
v -113.483432 -1.180118 24.842094
v -103.808168 -1.180118 29.882548
v -89.010479 -1.180118 28.996707
v -118.157199 -1.180118 16.144135
v -117.576673 -1.180118 -0.078335
v -78.894216 -1.180118 23.267491
v -74.668728 -1.180118 17.466119
v -69.531921 -1.180118 10.648549
v -65.838097 -1.180118 2.974768
v -120.396140 -1.180118 -11.924690
v -116.056259 -1.180118 -23.397210
v -66.682354 -1.180118 -8.362738
v -72.758055 -1.180118 -18.968274
v -104.927638 -1.180118 -31.260457
v -91.554732 -1.180118 -31.087010
v -79.504836 -1.180118 -25.663101
vt 0.000000 0.000000
vt 0.500000 0.000000
vt 1.000000 0.000000
vt 0.000000 0.500000
vt 0.500000 0.500000
vt 1.000000 0.500000
vt 0.000000 1.000000
vt 0.500000 1.000000
vt 1.000000 1.000000
vt 0.250000 0.250000
vt 0.750000 0.250000
vt 0.250000 0.750000
vt 0.750000 0.750000
vt 0.250000 0.000000
vt 0.500000 0.250000
vt 0.250000 0.500000
vt 0.000000 0.250000
vt 0.750000 0.000000
vt 1.000000 0.250000
vt 0.750000 0.500000
vt 0.500000 0.750000
vt 0.250000 1.000000
vt 0.000000 0.750000
vt 1.000000 0.750000
vt 0.750000 1.000000
vt 0.000000 0.000000
vt 1.000000 0.000000
vt 1.000000 1.000000
vt 0.000000 1.000000
vt 0.000000 0.000000
vt 1.000000 0.000000
vt 1.000000 1.000000
vt 0.000000 1.000000
vt 0.000000 0.000000
vt 1.000000 0.000000
vt 1.000000 1.000000
vt 0.000000 1.000000
vt 0.000000 0.000000
vt 1.000000 0.000000
vt 1.000000 1.000000
vt 0.000000 1.000000
vt 0.000000 0.000000
vt 1.000000 0.000000
vt 1.000000 1.000000
vt 0.000000 1.000000
vt 0.000000 0.000000
vt 1.000000 0.000000
vt 1.000000 1.000000
vt 0.000000 1.000000
vt 0.000000 0.000000
vt 1.000000 0.000000
vt 1.000000 1.000000
vt 0.000000 1.000000
vt 0.000000 0.000000
vt 1.000000 0.000000
vt 1.000000 1.000000
vt 0.000000 1.000000
vt 0.000000 0.000000
vt 1.000000 0.000000
vt 1.000000 1.000000
vt 0.000000 1.000000
vt 0.000000 0.000000
vt 1.000000 0.000000
vt 1.000000 1.000000
vt 0.000000 1.000000
vt 0.000000 0.000000
vt 1.000000 0.000000
vt 1.000000 1.000000
vt 0.000000 1.000000
vt 0.000000 0.000000
vt 1.000000 0.000000
vt 1.000000 1.000000
vt 0.000000 1.000000
vt 0.000000 0.000000
vt 1.000000 0.000000
vt 1.000000 1.000000
vt 0.000000 1.000000
vt 0.000000 0.000000
vt 1.000000 0.000000
vt 1.000000 1.000000
vt 0.000000 1.000000
vt 0.000000 0.000000
vt 1.000000 0.000000
vt 1.000000 1.000000
vt 0.000000 1.000000
vt 0.000000 0.000000
vt 1.000000 0.000000
vt 1.000000 1.000000
vt 0.000000 1.000000
vt 0.000000 0.000000
vt 1.000000 0.000000
vt 1.000000 1.000000
vt 0.000000 1.000000
vt 0.000000 0.000000
vt 1.000000 0.000000
vt 1.000000 1.000000
vt 0.000000 1.000000
vt 0.000000 0.000000
vt 1.000000 0.000000
vt 1.000000 1.000000
vt 0.000000 1.000000
vt 0.000000 0.000000
vt 1.000000 0.000000
vt 1.000000 1.000000
vt 0.000000 1.000000
vt 0.000000 0.000000
vt 1.000000 0.000000
vt 1.000000 1.000000
vt 0.000000 1.000000
vt 0.000000 0.000000
vt 1.000000 0.000000
vt 1.000000 1.000000
vt 0.000000 1.000000
vt 0.000000 0.000000
vt 1.000000 0.000000
vt 1.000000 1.000000
vt 0.000000 1.000000
vt 0.000000 0.000000
vt 1.000000 0.000000
vt 1.000000 1.000000
vt 0.000000 1.000000
vt 0.000000 0.000000
vt 1.000000 0.000000
vt 1.000000 1.000000
vt 0.000000 1.000000
vt 0.000000 0.000000
vt 1.000000 0.000000
vt 1.000000 1.000000
vt 0.000000 1.000000
vt 0.000000 0.000000
vt 1.000000 0.000000
vt 1.000000 1.000000
vt 0.000000 1.000000
vt 0.000000 0.000000
vt 1.000000 0.000000
vt 1.000000 1.000000
vt 0.000000 1.000000
vt 0.000000 0.000000
vt 1.000000 0.000000
vt 1.000000 1.000000
vt 0.000000 1.000000
vt 0.000000 0.000000
vt 1.000000 0.000000
vt 1.000000 1.000000
vt 0.000000 1.000000
vt 0.000000 0.000000
vt 1.000000 0.000000
vt 1.000000 1.000000
vt 0.000000 1.000000
vt 0.000000 0.000000
vt 1.000000 0.000000
vt 1.000000 1.000000
vt 0.000000 1.000000
vn -0.112818 0.986858 0.115683
vn -0.038477 0.986622 0.158418
vn -0.086528 0.994103 0.065365
vn -0.174227 0.984021 0.036695
vn 0.028419 0.983024 0.181265
vn -0.008701 0.995233 0.097137
vn -0.019222 0.999630 -0.019222
vn -0.103976 0.994577 -0.002369
vn -0.184051 0.982861 0.010491
vn 0.102861 0.974389 0.199964
vn 0.073166 0.992594 0.096977
vn 0.215557 0.954703 0.205127
vn 0.218646 0.969637 0.109535
vn 0.222211 0.974801 0.019626
vn 0.067505 0.997558 -0.017932
vn -0.067757 0.995838 -0.060964
vn -0.162970 0.986360 -0.023141
vn 0.002483 0.996186 -0.087223
vn 0.024567 0.988923 -0.146383
vn -0.043160 0.990401 -0.131311
vn -0.120523 0.987960 -0.097003
vn 0.050230 0.995220 -0.083756
vn 0.207273 0.975499 -0.073758
vn 0.152655 0.977644 -0.144598
vn 0.071336 0.985255 -0.155511
vn -0.189974 0.961958 0.196332
vn -0.045392 0.960440 0.274764
vn 0.077847 0.954944 0.286396
vn -0.319000 0.946542 0.047929
vn -0.333096 0.942534 0.026020
vn 0.199772 0.946550 0.253249
vn 0.285481 0.930973 0.227574
vn 0.322622 0.925831 0.196853
vn 0.359670 0.931503 0.054216
vn -0.302812 0.952909 -0.016405
vn -0.216408 0.962089 -0.165989
vn 0.346272 0.931748 -0.109276
vn 0.279332 0.935968 -0.214330
vn -0.080794 0.962240 -0.259937
vn 0.064946 0.955791 -0.286786
vn 0.168552 0.948545 -0.268053
vn -0.234422 0.937879 0.255791
vn -0.065305 0.936706 0.343973
vn 0.087012 0.929215 0.359150
vn -0.381770 0.920167 0.086860
vn -0.435206 0.899575 0.036882
vn 0.239435 0.919139 0.312817
vn 0.337369 0.907575 0.249980
vn 0.354963 0.910163 0.213553
vn 0.391823 0.918387 0.055131
vn -0.392009 0.918718 -0.047817
vn -0.269561 0.934684 -0.231739
vn 0.377651 0.918370 -0.118222
vn 0.319044 0.916973 -0.239524
vn -0.107216 0.938291 -0.328810
vn 0.070824 0.930510 -0.359353
vn 0.205240 0.922728 -0.326267
s 1
g Islas:pPlane1 Islas:group3
usemtl Islas:lambert3SG
f 1/1/1 14/14/2 22/10/3 17/17/4
f 14/14/2 2/2/5 15/15/6 22/10/3
f 22/10/3 15/15/6 5/5/7 16/16/8
f 17/17/4 22/10/3 16/16/8 4/4/9
f 2/2/5 18/18/10 23/11/11 15/15/6
f 18/18/10 3/3/12 19/19/13 23/11/11
f 23/11/11 19/19/13 6/6/14 20/20/15
f 15/15/6 23/11/11 20/20/15 5/5/7
f 4/4/9 16/16/8 24/12/16 11/23/17
f 16/16/8 5/5/7 21/21/18 24/12/16
f 24/12/16 21/21/18 8/8/19 10/22/20
f 11/23/17 24/12/16 10/22/20 7/7/21
f 5/5/7 20/20/15 25/13/22 21/21/18
f 20/20/15 6/6/14 12/24/23 25/13/22
f 25/13/22 12/24/23 9/9/24 13/25/25
f 21/21/18 25/13/22 13/25/25 8/8/19
f 14/26/2 1/27/1 26/28/26 27/29/27
f 2/30/5 14/31/2 27/32/27 28/33/28
f 1/34/1 17/35/4 29/36/29 26/37/26
f 17/38/4 4/39/9 30/40/30 29/41/29
f 18/42/10 2/43/5 28/44/28 31/45/31
f 3/46/12 18/47/10 31/48/31 32/49/32
f 19/50/13 3/51/12 32/52/32 33/53/33
f 6/54/14 19/55/13 33/56/33 34/57/34
f 4/58/9 11/59/17 35/60/35 30/61/30
f 11/62/17 7/63/21 36/64/36 35/65/35
f 12/66/23 6/67/14 34/68/34 37/69/37
f 9/70/24 12/71/23 37/72/37 38/73/38
f 7/74/21 10/75/20 39/76/39 36/77/36
f 10/78/20 8/79/19 40/80/40 39/81/39
f 8/82/19 13/83/25 41/84/41 40/85/40
f 13/86/25 9/87/24 38/88/38 41/89/41
f 27/90/27 26/91/26 42/92/42 43/93/43
f 28/94/28 27/95/27 43/96/43 44/97/44
f 26/98/26 29/99/29 45/100/45 42/101/42
f 29/102/29 30/103/30 46/104/46 45/105/45
f 31/106/31 28/107/28 44/108/44 47/109/47
f 32/110/32 31/111/31 47/112/47 48/113/48
f 33/114/33 32/115/32 48/116/48 49/117/49
f 34/118/34 33/119/33 49/120/49 50/121/50
f 30/122/30 35/123/35 51/124/51 46/125/46
f 35/126/35 36/127/36 52/128/52 51/129/51
f 37/130/37 34/131/34 50/132/50 53/133/53
f 38/134/38 37/135/37 53/136/53 54/137/54
f 36/138/36 39/139/39 55/140/55 52/141/52
f 39/142/39 40/143/40 56/144/56 55/145/55
f 40/146/40 41/147/41 57/148/57 56/149/56
f 41/150/41 38/151/38 54/152/54 57/153/57
g default
v -113.655286 1.601357 99.597948
v -91.950405 1.601357 102.570362
v -74.528198 2.199802 93.678196
v -118.105534 1.601357 80.697393
v -92.308032 3.491713 81.297943
v -66.452805 2.199802 82.042291
v -110.117299 1.601357 63.074745
v -88.949017 1.601357 53.793004
v -72.623782 2.199802 58.931703
v -101.822086 1.601357 58.082947
v -118.160658 1.601357 71.130987
v -67.377557 2.199802 69.563353
v -78.108488 1.601357 54.242608
v -107.118786 1.601357 104.561200
v -93.042214 3.491713 92.253858
v -106.285025 3.034241 82.195281
v -117.905402 1.601357 93.138684
v -79.406980 1.601357 97.634933
v -69.884911 2.199802 88.819597
v -76.190395 3.491713 78.940252
v -89.951785 3.034241 68.341331
v -106.663192 3.034241 92.100325
v -78.234352 3.491713 90.755141
v -103.175069 3.034241 71.594814
v -77.176921 3.034241 65.935296
v -117.060203 0.572432 105.285518
v -108.328284 0.572432 109.412936
v -91.957410 0.572432 107.345834
v -123.098943 0.572432 96.899584
v -123.902647 0.572432 80.660491
v -77.971190 0.572432 101.407918
v -71.724119 0.572432 96.724976
v -66.026118 0.572432 91.155440
v -62.428350 0.572432 83.771084
v -123.644405 0.572432 68.769424
v -115.961520 0.572432 58.785160
v -63.903112 0.572432 69.299195
v -69.747395 0.572432 55.277919
v -103.472148 0.572432 53.782898
v -88.944391 0.572432 49.155038
v -76.027351 0.572432 49.438715
v -118.551886 -1.180118 108.213395
v -107.806707 -1.180118 112.830347
v -91.032101 -1.180118 111.033308
v -125.593995 -1.180118 99.557603
v -127.984190 -1.180118 80.787355
v -77.072993 -1.180118 104.509868
v -70.000374 -1.180118 99.164827
v -63.334289 -1.180118 92.603284
v -59.615988 -1.180118 84.701023
v -127.389710 -1.180118 67.152062
v -117.900062 -1.180118 55.988446
v -61.534228 -1.180118 68.873022
v -67.517669 -1.180118 53.116517
v -104.927638 -1.180118 49.558858
v -89.399122 -1.180118 45.967153
v -74.491763 -1.180118 46.480155
vt 0.000000 0.000000
vt 0.500000 0.000000
vt 1.000000 0.000000
vt 0.000000 0.500000
vt 0.500000 0.500000
vt 1.000000 0.500000
vt 0.000000 1.000000
vt 0.500000 1.000000
vt 1.000000 1.000000
vt 0.250000 0.250000
vt 0.750000 0.250000
vt 0.250000 0.750000
vt 0.750000 0.750000
vt 0.250000 0.000000
vt 0.500000 0.250000
vt 0.250000 0.500000
vt 0.000000 0.250000
vt 0.750000 0.000000
vt 1.000000 0.250000
vt 0.750000 0.500000
vt 0.500000 0.750000
vt 0.250000 1.000000
vt 0.000000 0.750000
vt 1.000000 0.750000
vt 0.750000 1.000000
vt 0.000000 0.000000
vt 1.000000 0.000000
vt 1.000000 1.000000
vt 0.000000 1.000000
vt 0.000000 0.000000
vt 1.000000 0.000000
vt 1.000000 1.000000
vt 0.000000 1.000000
vt 0.000000 0.000000
vt 1.000000 0.000000
vt 1.000000 1.000000
vt 0.000000 1.000000
vt 0.000000 0.000000
vt 1.000000 0.000000
vt 1.000000 1.000000
vt 0.000000 1.000000
vt 0.000000 0.000000
vt 1.000000 0.000000
vt 1.000000 1.000000
vt 0.000000 1.000000
vt 0.000000 0.000000
vt 1.000000 0.000000
vt 1.000000 1.000000
vt 0.000000 1.000000
vt 0.000000 0.000000
vt 1.000000 0.000000
vt 1.000000 1.000000
vt 0.000000 1.000000
vt 0.000000 0.000000
vt 1.000000 0.000000
vt 1.000000 1.000000
vt 0.000000 1.000000
vt 0.000000 0.000000
vt 1.000000 0.000000
vt 1.000000 1.000000
vt 0.000000 1.000000
vt 0.000000 0.000000
vt 1.000000 0.000000
vt 1.000000 1.000000
vt 0.000000 1.000000
vt 0.000000 0.000000
vt 1.000000 0.000000
vt 1.000000 1.000000
vt 0.000000 1.000000
vt 0.000000 0.000000
vt 1.000000 0.000000
vt 1.000000 1.000000
vt 0.000000 1.000000
vt 0.000000 0.000000
vt 1.000000 0.000000
vt 1.000000 1.000000
vt 0.000000 1.000000
vt 0.000000 0.000000
vt 1.000000 0.000000
vt 1.000000 1.000000
vt 0.000000 1.000000
vt 0.000000 0.000000
vt 1.000000 0.000000
vt 1.000000 1.000000
vt 0.000000 1.000000
vt 0.000000 0.000000
vt 1.000000 0.000000
vt 1.000000 1.000000
vt 0.000000 1.000000
vt 0.000000 0.000000
vt 1.000000 0.000000
vt 1.000000 1.000000
vt 0.000000 1.000000
vt 0.000000 0.000000
vt 1.000000 0.000000
vt 1.000000 1.000000
vt 0.000000 1.000000
vt 0.000000 0.000000
vt 1.000000 0.000000
vt 1.000000 1.000000
vt 0.000000 1.000000
vt 0.000000 0.000000
vt 1.000000 0.000000
vt 1.000000 1.000000
vt 0.000000 1.000000
vt 0.000000 0.000000
vt 1.000000 0.000000
vt 1.000000 1.000000
vt 0.000000 1.000000
vt 0.000000 0.000000
vt 1.000000 0.000000
vt 1.000000 1.000000
vt 0.000000 1.000000
vt 0.000000 0.000000
vt 1.000000 0.000000
vt 1.000000 1.000000
vt 0.000000 1.000000
vt 0.000000 0.000000
vt 1.000000 0.000000
vt 1.000000 1.000000
vt 0.000000 1.000000
vt 0.000000 0.000000
vt 1.000000 0.000000
vt 1.000000 1.000000
vt 0.000000 1.000000
vt 0.000000 0.000000
vt 1.000000 0.000000
vt 1.000000 1.000000
vt 0.000000 1.000000
vt 0.000000 0.000000
vt 1.000000 0.000000
vt 1.000000 1.000000
vt 0.000000 1.000000
vt 0.000000 0.000000
vt 1.000000 0.000000
vt 1.000000 1.000000
vt 0.000000 1.000000
vt 0.000000 0.000000
vt 1.000000 0.000000
vt 1.000000 1.000000
vt 0.000000 1.000000
vt 0.000000 0.000000
vt 1.000000 0.000000
vt 1.000000 1.000000
vt 0.000000 1.000000
vt 0.000000 0.000000
vt 1.000000 0.000000
vt 1.000000 1.000000
vt 0.000000 1.000000
vt 0.000000 0.000000
vt 1.000000 0.000000
vt 1.000000 1.000000
vt 0.000000 1.000000
vn -0.108172 0.988576 0.104960
vn -0.026024 0.987220 0.157222
vn -0.058375 0.996523 0.059448
vn -0.140469 0.989568 0.031991
vn 0.030754 0.981905 0.186862
vn -0.000043 0.996345 0.085426
vn -0.013592 0.999796 -0.014954
vn -0.071897 0.997360 -0.010193
vn -0.136859 0.990578 -0.005037
vn 0.079429 0.971310 0.224161
vn 0.049133 0.995454 0.081591
vn 0.182894 0.951780 0.246300
vn 0.192173 0.975150 0.110234
vn 0.223202 0.974656 0.015062
vn 0.049038 0.998703 -0.013689
vn -0.052014 0.996975 -0.057749
vn -0.120354 0.991474 -0.049943
vn -0.016437 0.997482 -0.068988
vn -0.024539 0.989781 -0.140469
vn -0.052368 0.990034 -0.130730
vn -0.087890 0.989371 -0.115844
vn 0.025749 0.997531 -0.065337
vn 0.216214 0.974215 -0.064475
vn 0.165925 0.977684 -0.128851
vn 0.024805 0.989193 -0.144504
vn -0.206937 0.947542 0.243603
vn -0.042362 0.944864 0.324711
vn 0.083296 0.942347 0.324105
vn -0.312088 0.946314 0.084210
vn -0.302884 0.952981 0.009383
vn 0.171065 0.930393 0.324199
vn 0.272790 0.906086 0.323409
vn 0.346392 0.904547 0.248612
vn 0.454128 0.889748 0.046010
vn -0.270405 0.957045 -0.104626
vn -0.183118 0.955356 -0.231868
vn 0.467714 0.876001 -0.117755
vn 0.364862 0.901875 -0.231293
vn -0.106682 0.950937 -0.290411
vn -0.044588 0.940697 -0.336306
vn 0.106385 0.931205 -0.348626
vn -0.283056 0.881777 0.377291
vn -0.020703 0.897257 0.441023
vn 0.112320 0.898503 0.424353
vn -0.418408 0.893023 0.165662
vn -0.433996 0.900761 0.016623
vn 0.215901 0.886243 0.409828
vn 0.330254 0.861639 0.385370
vn 0.412080 0.864332 0.288306
vn 0.523067 0.850308 0.058108
vn -0.376135 0.914581 -0.148541
vn -0.248453 0.910492 -0.330570
vn 0.541902 0.829547 -0.134887
vn 0.438336 0.856184 -0.273515
vn -0.137391 0.911004 -0.388839
vn -0.058271 0.895451 -0.441331
vn 0.151615 0.884755 -0.440707
s 1
g Islas:group3 Islas:pPlane43
usemtl Islas:lambert3SG
f 58/154/58 71/167/59 79/163/60 74/170/61
f 71/167/59 59/155/62 72/168/63 79/163/60
f 79/163/60 72/168/63 62/158/64 73/169/65
f 74/170/61 79/163/60 73/169/65 61/157/66
f 59/155/62 75/171/67 80/164/68 72/168/63
f 75/171/67 60/156/69 76/172/70 80/164/68
f 80/164/68 76/172/70 63/159/71 77/173/72
f 72/168/63 80/164/68 77/173/72 62/158/64
f 61/157/66 73/169/65 81/165/73 68/176/74
f 73/169/65 62/158/64 78/174/75 81/165/73
f 81/165/73 78/174/75 65/161/76 67/175/77
f 68/176/74 81/165/73 67/175/77 64/160/78
f 62/158/64 77/173/72 82/166/79 78/174/75
f 77/173/72 63/159/71 69/177/80 82/166/79
f 82/166/79 69/177/80 66/162/81 70/178/82
f 78/174/75 82/166/79 70/178/82 65/161/76
f 71/179/59 58/180/58 83/181/83 84/182/84
f 59/183/62 71/184/59 84/185/84 85/186/85
f 58/187/58 74/188/61 86/189/86 83/190/83
f 74/191/61 61/192/66 87/193/87 86/194/86
f 75/195/67 59/196/62 85/197/85 88/198/88
f 60/199/69 75/200/67 88/201/88 89/202/89
f 76/203/70 60/204/69 89/205/89 90/206/90
f 63/207/71 76/208/70 90/209/90 91/210/91
f 61/211/66 68/212/74 92/213/92 87/214/87
f 68/215/74 64/216/78 93/217/93 92/218/92
f 69/219/80 63/220/71 91/221/91 94/222/94
f 66/223/81 69/224/80 94/225/94 95/226/95
f 64/227/78 67/228/77 96/229/96 93/230/93
f 67/231/77 65/232/76 97/233/97 96/234/96
f 65/235/76 70/236/82 98/237/98 97/238/97
f 70/239/82 66/240/81 95/241/95 98/242/98
f 84/243/84 83/244/83 99/245/99 100/246/100
f 85/247/85 84/248/84 100/249/100 101/250/101
f 83/251/83 86/252/86 102/253/102 99/254/99
f 86/255/86 87/256/87 103/257/103 102/258/102
f 88/259/88 85/260/85 101/261/101 104/262/104
f 89/263/89 88/264/88 104/265/104 105/266/105
f 90/267/90 89/268/89 105/269/105 106/270/106
f 91/271/91 90/272/90 106/273/106 107/274/107
f 87/275/87 92/276/92 108/277/108 103/278/103
f 92/279/92 93/280/93 109/281/109 108/282/108
f 94/283/94 91/284/91 107/285/107 110/286/110
f 95/287/95 94/288/94 110/289/110 111/290/111
f 93/291/93 96/292/96 112/293/112 109/294/109
f 96/295/96 97/296/97 113/297/113 112/298/112
f 97/299/97 98/300/98 114/301/114 113/302/113
f 98/303/98 95/304/95 111/305/111 114/306/114
g default
v -139.866663 5.264829 180.100707
v -107.898642 5.040811 180.889721
v -88.236277 4.948415 172.104032
v -149.969436 4.642403 159.951632
v -108.256269 9.418863 159.617302
v -74.570272 4.963945 160.733857
v -131.024712 4.990944 138.748633
v -104.922009 3.646136 132.093535
v -85.147845 7.138457 137.413821
v -120.266602 4.014729 134.503951
v -145.908032 3.499510 148.260023
v -75.102989 7.111450 148.273555
v -93.578669 4.793451 132.584692
v -126.755864 4.432517 183.665332
v -108.990452 9.358186 170.573217
v -127.747265 8.961391 160.932664
v -147.337520 4.878419 174.242234
v -95.181145 3.826253 175.962565
v -79.901695 4.531704 167.420886
v -90.106430 9.059783 157.356204
v -106.058162 8.961391 146.540428
v -129.415690 8.961391 171.867235
v -93.039245 7.490824 169.128845
v -123.154170 8.961391 148.798065
v -90.227357 9.451973 144.392397
v -141.303426 1.829681 185.369566
v -125.695771 1.649276 188.034230
v -107.905648 2.318817 185.665193
v -152.444342 1.729121 178.069082
v -155.371738 1.565586 160.214981
v -93.891955 1.424781 179.728583
v -85.288722 1.688000 175.157633
v -75.288265 1.200021 169.792598
v -69.409557 1.578904 162.516658
v -149.184588 0.884665 145.428894
v -135.803089 1.451304 134.232302
v -70.884319 4.325746 148.044768
v -82.895491 3.622613 133.730374
v -121.386994 1.529155 130.606703
v -104.892629 1.174022 127.474397
v -91.928924 1.917045 127.760289
v -140.983065 -1.180118 187.911946
v -124.013583 -1.180118 191.204729
v -106.980339 -1.180118 189.352667
v -153.859582 -1.180118 180.497381
v -157.942821 -1.180118 160.408286
v -93.021231 -1.180118 182.829227
v -84.175616 -1.180118 177.568460
v -72.863250 -1.180118 171.227760
v -66.597198 -1.180118 163.446597
v -150.705350 -1.180118 143.649559
v -137.378617 -1.180118 131.623090
v -68.515435 -1.180118 147.618595
v -81.475838 -1.180118 131.530467
v -122.198571 -1.180118 126.872342
v -105.347360 -1.180118 124.286512
v -90.440000 -1.180118 124.799515
vt 0.000000 0.000000
vt 0.500000 0.000000
vt 1.000000 0.000000
vt 0.000000 0.500000
vt 0.500000 0.500000
vt 1.000000 0.500000
vt 0.000000 1.000000
vt 0.500000 1.000000
vt 1.000000 1.000000
vt 0.250000 0.250000
vt 0.750000 0.250000
vt 0.250000 0.750000
vt 0.750000 0.750000
vt 0.250000 0.000000
vt 0.500000 0.250000
vt 0.250000 0.500000
vt 0.000000 0.250000
vt 0.750000 0.000000
vt 1.000000 0.250000
vt 0.750000 0.500000
vt 0.500000 0.750000
vt 0.250000 1.000000
vt 0.000000 0.750000
vt 1.000000 0.750000
vt 0.750000 1.000000
vt 0.000000 0.000000
vt 1.000000 0.000000
vt 1.000000 1.000000
vt 0.000000 1.000000
vt 0.000000 0.000000
vt 1.000000 0.000000
vt 1.000000 1.000000
vt 0.000000 1.000000
vt 0.000000 0.000000
vt 1.000000 0.000000
vt 1.000000 1.000000
vt 0.000000 1.000000
vt 0.000000 0.000000
vt 1.000000 0.000000
vt 1.000000 1.000000
vt 0.000000 1.000000
vt 0.000000 0.000000
vt 1.000000 0.000000
vt 1.000000 1.000000
vt 0.000000 1.000000
vt 0.000000 0.000000
vt 1.000000 0.000000
vt 1.000000 1.000000
vt 0.000000 1.000000
vt 0.000000 0.000000
vt 1.000000 0.000000
vt 1.000000 1.000000
vt 0.000000 1.000000
vt 0.000000 0.000000
vt 1.000000 0.000000
vt 1.000000 1.000000
vt 0.000000 1.000000
vt 0.000000 0.000000
vt 1.000000 0.000000
vt 1.000000 1.000000
vt 0.000000 1.000000
vt 0.000000 0.000000
vt 1.000000 0.000000
vt 1.000000 1.000000
vt 0.000000 1.000000
vt 0.000000 0.000000
vt 1.000000 0.000000
vt 1.000000 1.000000
vt 0.000000 1.000000
vt 0.000000 0.000000
vt 1.000000 0.000000
vt 1.000000 1.000000
vt 0.000000 1.000000
vt 0.000000 0.000000
vt 1.000000 0.000000
vt 1.000000 1.000000
vt 0.000000 1.000000
vt 0.000000 0.000000
vt 1.000000 0.000000
vt 1.000000 1.000000
vt 0.000000 1.000000
vt 0.000000 0.000000
vt 1.000000 0.000000
vt 1.000000 1.000000
vt 0.000000 1.000000
vt 0.000000 0.000000
vt 1.000000 0.000000
vt 1.000000 1.000000
vt 0.000000 1.000000
vt 0.000000 0.000000
vt 1.000000 0.000000
vt 1.000000 1.000000
vt 0.000000 1.000000
vt 0.000000 0.000000
vt 1.000000 0.000000
vt 1.000000 1.000000
vt 0.000000 1.000000
vt 0.000000 0.000000
vt 1.000000 0.000000
vt 1.000000 1.000000
vt 0.000000 1.000000
vt 0.000000 0.000000
vt 1.000000 0.000000
vt 1.000000 1.000000
vt 0.000000 1.000000
vt 0.000000 0.000000
vt 1.000000 0.000000
vt 1.000000 1.000000
vt 0.000000 1.000000
vt 0.000000 0.000000
vt 1.000000 0.000000
vt 1.000000 1.000000
vt 0.000000 1.000000
vt 0.000000 0.000000
vt 1.000000 0.000000
vt 1.000000 1.000000
vt 0.000000 1.000000
vt 0.000000 0.000000
vt 1.000000 0.000000
vt 1.000000 1.000000
vt 0.000000 1.000000
vt 0.000000 0.000000
vt 1.000000 0.000000
vt 1.000000 1.000000
vt 0.000000 1.000000
vt 0.000000 0.000000
vt 1.000000 0.000000
vt 1.000000 1.000000
vt 0.000000 1.000000
vt 0.000000 0.000000
vt 1.000000 0.000000
vt 1.000000 1.000000
vt 0.000000 1.000000
vt 0.000000 0.000000
vt 1.000000 0.000000
vt 1.000000 1.000000
vt 0.000000 1.000000
vt 0.000000 0.000000
vt 1.000000 0.000000
vt 1.000000 1.000000
vt 0.000000 1.000000
vt 0.000000 0.000000
vt 1.000000 0.000000
vt 1.000000 1.000000
vt 0.000000 1.000000
vt 0.000000 0.000000
vt 1.000000 0.000000
vt 1.000000 1.000000
vt 0.000000 1.000000
vt 0.000000 0.000000
vt 1.000000 0.000000
vt 1.000000 1.000000
vt 0.000000 1.000000
vn -0.149008 0.919424 0.363945
vn -0.023169 0.909435 0.415199
vn -0.094287 0.985092 0.143885
vn -0.279482 0.952750 0.118988
vn 0.095902 0.900922 0.423253
vn 0.046878 0.977054 0.207767
vn 0.008380 0.999869 0.013857
vn -0.128895 0.990619 -0.045384
vn -0.294565 0.953419 -0.064998
vn 0.210409 0.866425 0.452809
vn 0.148903 0.962356 0.227374
vn 0.237056 0.844315 0.480558
vn 0.273938 0.911375 0.307171
vn 0.310905 0.935066 0.170261
vn 0.111110 0.990402 0.082206
vn -0.098271 0.980997 -0.167292
vn -0.270933 0.939680 -0.208797
vn -0.031460 0.983173 -0.179946
vn -0.057959 0.919331 -0.389194
vn -0.080653 0.924656 -0.372164
vn -0.182900 0.929330 -0.320771
vn 0.042869 0.991767 -0.120670
vn 0.311082 0.948214 -0.064173
vn 0.213690 0.908751 -0.358480
vn -0.015960 0.916530 -0.399647
vn -0.232648 0.772584 0.590753
vn -0.023450 0.789106 0.613809
vn 0.144253 0.809991 0.568424
vn -0.554086 0.779922 0.291051
vn -0.617602 0.784269 -0.059079
vn 0.275596 0.789337 0.548630
vn 0.311358 0.763388 0.565946
vn 0.401062 0.771911 0.493258
vn 0.665314 0.727790 0.166371
vn -0.474877 0.804031 -0.357808
vn -0.284861 0.830076 -0.479404
vn 0.696981 0.653386 -0.295473
vn 0.510548 0.631671 -0.583380
vn -0.113262 0.830788 -0.544944
vn -0.054546 0.826706 -0.559984
vn 0.133196 0.772964 -0.620311
vn -0.234717 0.661994 0.711809
vn 0.003186 0.725360 0.688362
vn 0.168365 0.752082 0.637202
vn -0.615791 0.656401 0.435820
vn -0.754560 0.654878 -0.042127
vn 0.302132 0.741779 0.598732
vn 0.343579 0.711576 0.612873
vn 0.447490 0.721248 0.528729
vn 0.769973 0.625845 0.124338
vn -0.545596 0.726934 -0.417002
vn -0.308222 0.776104 -0.550147
vn 0.794984 0.477314 -0.374395
vn 0.612552 0.481043 -0.627198
vn -0.128360 0.799587 -0.586673
vn -0.052893 0.786841 -0.614886
vn 0.222134 0.689544 -0.689337
s 1
g Islas:group3 Islas:pPlane45
usemtl Islas:lambert3SG
f 115/307/115 128/320/116 136/316/117 131/323/118
f 128/320/116 116/308/119 129/321/120 136/316/117
f 136/316/117 129/321/120 119/311/121 130/322/122
f 131/323/118 136/316/117 130/322/122 118/310/123
f 116/308/119 132/324/124 137/317/125 129/321/120
f 132/324/124 117/309/126 133/325/127 137/317/125
f 137/317/125 133/325/127 120/312/128 134/326/129
f 129/321/120 137/317/125 134/326/129 119/311/121
f 118/310/123 130/322/122 138/318/130 125/329/131
f 130/322/122 119/311/121 135/327/132 138/318/130
f 138/318/130 135/327/132 122/314/133 124/328/134
f 125/329/131 138/318/130 124/328/134 121/313/135
f 119/311/121 134/326/129 139/319/136 135/327/132
f 134/326/129 120/312/128 126/330/137 139/319/136
f 139/319/136 126/330/137 123/315/138 127/331/139
f 135/327/132 139/319/136 127/331/139 122/314/133
f 128/332/116 115/333/115 140/334/140 141/335/141
f 116/336/119 128/337/116 141/338/141 142/339/142
f 115/340/115 131/341/118 143/342/143 140/343/140
f 131/344/118 118/345/123 144/346/144 143/347/143
f 132/348/124 116/349/119 142/350/142 145/351/145
f 117/352/126 132/353/124 145/354/145 146/355/146
f 133/356/127 117/357/126 146/358/146 147/359/147
f 120/360/128 133/361/127 147/362/147 148/363/148
f 118/364/123 125/365/131 149/366/149 144/367/144
f 125/368/131 121/369/135 150/370/150 149/371/149
f 126/372/137 120/373/128 148/374/148 151/375/151
f 123/376/138 126/377/137 151/378/151 152/379/152
f 121/380/135 124/381/134 153/382/153 150/383/150
f 124/384/134 122/385/133 154/386/154 153/387/153
f 122/388/133 127/389/139 155/390/155 154/391/154
f 127/392/139 123/393/138 152/394/152 155/395/155
f 141/396/141 140/397/140 156/398/156 157/399/157
f 142/400/142 141/401/141 157/402/157 158/403/158
f 140/404/140 143/405/143 159/406/159 156/407/156
f 143/408/143 144/409/144 160/410/160 159/411/159
f 145/412/145 142/413/142 158/414/158 161/415/161
f 146/416/146 145/417/145 161/418/161 162/419/162
f 147/420/147 146/421/146 162/422/162 163/423/163
f 148/424/148 147/425/147 163/426/163 164/427/164
f 144/428/144 149/429/149 165/430/165 160/431/160
f 149/432/149 150/433/150 166/434/166 165/435/165
f 151/436/151 148/437/148 164/438/164 167/439/167
f 152/440/152 151/441/151 167/442/167 168/443/168
f 150/444/150 153/445/153 169/446/169 166/447/166
f 153/448/153 154/449/154 170/450/170 169/451/169
f 154/452/154 155/453/155 171/454/171 170/455/170
f 155/456/155 152/457/152 168/458/168 171/459/171
