# This file uses meters as units for non-parametric coordinates.

mtllib IslasDesiertas.mtl
g default
v -50.901978 33.244072 1284.761719
v 320.816376 40.054726 1326.850464
v 579.497803 41.759216 1178.333740
v -115.770111 38.877106 897.244080
v 281.801636 79.655617 898.946045
v 682.091614 50.618240 926.817505
v -76.327667 33.244072 515.709106
v 290.140778 38.877106 424.655151
v 605.734863 41.460136 585.882324
v 81.220566 38.350174 429.147461
v -132.777863 38.350174 693.065674
v 667.535645 49.081924 745.732300
v 482.085510 39.890690 497.839874
v 100.521423 38.518410 1335.834229
v 287.114319 75.440170 1112.689941
v 72.080276 68.374466 898.617126
v -106.224213 38.350174 1134.631104
v 489.133362 41.068310 1250.939209
v 633.379639 50.091312 1067.091553
v 491.776001 77.200745 902.690247
v 282.889465 68.374451 678.624512
v 82.546371 64.685936 1111.173584
v 480.235657 73.512230 1092.281616
v 76.717499 63.676552 685.921875
v 483.417603 66.446526 701.304077
v -126.308594 11.343596 1379.169922
v 67.482162 11.343596 1473.797607
v 338.614471 11.343596 1458.731445
v -218.788727 11.343596 1195.403320
v -228.752625 11.343596 901.019531
v 537.652100 11.563669 1356.211182
v 639.032593 12.884108 1237.980469
v 735.754517 13.104181 1102.209351
v 801.805481 13.104181 941.927673
v -258.892883 11.343596 654.370789
v -174.080780 11.343596 433.085846
v 783.211670 13.104181 726.452881
v 673.244629 12.884108 522.559692
v 37.795639 11.343596 287.300049
v 296.181763 11.343596 283.851257
v 526.923096 11.563669 382.250000
v -196.338043 -27.774628 1468.022705
v 31.729614 -27.774628 1579.977417
v 351.157837 -27.774628 1562.314697
v -305.593567 -27.774628 1251.935547
v -317.391052 -27.774628 905.143066
v 585.691040 -27.774628 1441.511475
v 705.151123 -27.774628 1302.196167
v 819.122131 -27.774628 1142.212158
v 896.952393 -27.774628 953.346558
v -352.683533 -27.774628 614.559082
v -251.632751 -27.774628 354.066467
v 875.042603 -27.774628 699.444946
v 745.464355 -27.774628 459.190308
v -3.084930 -27.774628 182.026367
v 301.157898 -27.774628 177.911621
v 573.048706 -27.774628 293.858276
v 748.645142 32.622910 935.547791
v -204.300568 25.580568 677.116211
v -248.421204 11.343596 771.787292
v -117.613037 25.580568 480.246460
v -233.993408 11.343596 538.734375
v 804.704285 13.104180 837.850159
v 731.904053 32.622910 741.542786
v 735.596436 13.104180 618.710693
v 632.893921 31.742619 557.965454
v 62.826035 25.580568 346.620056
v -79.513458 11.343596 345.633118
v 293.401520 25.580568 343.041809
v 165.933121 11.343596 269.010254
v 501.151917 26.460861 431.636108
v 419.824127 11.343596 324.909668
v 607.541748 12.223888 445.936401
v -162.813263 -7.151088 1425.705322
v -97.196136 -27.774628 1538.097412
v 49.074783 -7.151088 1528.312012
v 190.795044 -27.774628 1586.987793
v 345.033478 -7.151088 1511.739258
v -263.321838 -7.151088 1224.510986
v -266.051697 -27.774628 1376.427490
v -274.112732 -7.151088 903.129761
v -314.219849 -27.774628 1083.170532
v 483.975800 -27.774628 1509.143555
v 562.235718 -7.151088 1399.863037
v 652.745728 -27.774628 1373.454712
v 672.868347 -7.151088 1270.842529
v 762.918701 -27.774628 1224.958374
v 778.417358 -7.151088 1122.680542
v 866.835144 -27.774628 1054.427979
v 850.496399 -7.151088 947.771179
v -307.327637 -7.151088 633.897095
v -340.567139 -27.774628 752.864075
v -216.395142 -7.151088 392.046051
v -322.675293 -27.774628 478.453735
v 900.368164 -27.774628 830.708252
v 830.205566 -7.151088 712.631714
v 818.935913 -27.774628 572.488403
v 710.202637 -7.151088 490.130768
v 16.437317 -7.151088 233.326477
v -140.646118 -27.774628 250.915527
v 298.728271 -7.151088 229.637268
v 147.681335 -27.774628 160.424133
v 550.527588 -7.151088 337.016113
v 446.850098 -27.774628 226.292297
v 668.044312 -27.774628 368.902344
v 11.046417 36.769382 1307.822754
v 94.855270 53.115685 1228.706055
v -18.332214 52.442757 1118.048584
v -78.280579 36.769382 1222.297119
v 209.914230 39.550034 1341.524902
v 303.052490 59.260956 1225.443726
v 185.014771 71.907310 1111.997559
v 281.801636 80.833237 1004.641602
v 176.106094 76.122765 898.946045
v 75.125366 68.542679 1002.209351
v -28.606140 54.550484 897.630432
v -113.361755 38.877106 1018.983582
v 414.819397 40.222958 1293.766602
v 480.035034 58.913826 1177.425049
v 386.886444 76.617783 1105.419922
v 540.968384 43.604359 1207.034302
v 599.251465 48.005821 1128.477661
v 563.066528 64.195580 1075.369019
v 663.151489 50.786472 1001.349731
v 593.221313 66.303307 913.922791
v 486.453979 78.378372 999.780701
v 387.497192 80.833237 898.946045
v 72.899094 67.869759 797.200684
v -33.552155 52.442757 693.151611
v -129.526123 38.877106 791.301453
v 281.801636 76.122765 793.250488
v 181.371750 67.869759 679.924072
v 286.153015 54.550484 546.137817
v 183.463440 38.877106 414.389191
v 82.671219 52.442757 552.742798
v -7.377472 36.769382 474.075684
v -103.673523 36.769382 594.446594
v 489.287415 73.667900 803.778320
v 383.749420 68.542679 685.489746
v 683.724365 50.113544 839.059814
v 581.359985 60.158028 726.852173
v 633.011475 47.332893 654.490356
v 553.187744 42.931431 546.790527
v 478.595520 54.203346 593.526978
v 392.042358 38.877106 454.800110
v -83.844360 25.580568 1324.198120
v -42.075409 11.343596 1438.485840
v 88.014084 25.580568 1413.584717
v 202.521790 11.343596 1479.670288
v 331.606232 25.580568 1400.857422
v -169.732971 25.580568 1162.929688
v -185.375427 11.343596 1301.283936
v -179.228729 25.580568 898.715698
v -226.061462 11.343596 1052.103394
v 451.330994 11.343596 1413.607422
v 510.811890 26.460861 1308.552246
v 594.558411 12.223888 1298.454346
v 602.090820 31.742615 1202.102051
v 688.057251 13.104180 1172.432373
v 689.175415 32.622910 1079.859009
v 776.246460 13.104180 1027.710938
v 0.932190 46.119583 1219.388916
v 198.780792 57.242188 1231.931641
v 177.957520 76.795685 1002.790161
v -25.682892 54.550484 1007.872681
v 398.014282 59.933887 1205.620972
v 545.483459 55.853630 1145.817505
v 581.190613 66.976234 998.158020
v 385.645752 82.179085 1002.790161
v -34.588043 54.550484 796.091003
v 177.957520 74.103981 795.101868
v 184.208771 54.550484 542.078552
v -15.421936 46.119583 578.709534
v 385.645752 76.795685 795.101868
v 592.524414 64.284531 822.401672
v 561.988098 53.161930 630.531982
v 385.466187 54.550484 564.341431
v -9.053284 25.580570 1379.279053
v 209.073792 25.580570 1419.709961
v -138.074982 25.580570 1255.747803
v -176.805695 25.580570 1034.745605
v 433.091797 25.580570 1360.229614
v 562.048035 29.101740 1256.550293
v 646.230652 32.622913 1143.084961
v 725.632690 32.622913 1012.783569
v -196.937469 25.580570 782.360107
v -175.686340 25.580570 574.421631
v 751.255127 32.622913 841.840454
v 689.033142 32.622913 644.535889
v -36.598663 25.580570 400.560791
v 176.130798 25.580570 329.679504
v 404.724182 25.580570 380.009216
v 573.737671 29.101740 488.976868
v -70.728058 -7.151088 1490.171875
v 196.520721 -7.151088 1534.589355
v -227.106018 -7.151088 1340.448486
v -271.176025 -7.151088 1068.001831
v 468.036804 -7.151088 1462.497559
v 624.335449 -7.151088 1336.835449
v 726.367065 -7.151088 1199.312256
v 822.604675 -7.151088 1041.383301
v -295.576294 -7.151088 762.103455
v -281.127563 -7.151088 507.484711
v 853.659668 -7.151088 834.195312
v 778.244995 -7.151088 595.056641
v -112.549469 -7.151088 296.760559
v 156.592896 -7.151088 213.442017
v 433.654480 -7.151088 274.442810
v 638.503540 -7.151088 406.514679
vt 0.632469 0.707498
vt 0.625780 0.687412
vt 0.654017 0.691366
vt 0.652341 0.716682
vt 0.617721 0.658599
vt 0.651987 0.661315
vt 0.689396 0.666151
vt 0.686222 0.698295
vt 0.680103 0.726331
vt 0.616835 0.623712
vt 0.651917 0.628213
vt 0.622372 0.588526
vt 0.654883 0.595115
vt 0.690796 0.601203
vt 0.690099 0.633583
vt 0.724694 0.636767
vt 0.723956 0.669441
vt 0.725013 0.603861
vt 0.758508 0.604787
vt 0.757602 0.638270
vt 0.756813 0.671319
vt 0.721227 0.701639
vt 0.716870 0.729778
vt 0.756261 0.703552
vt 0.755625 0.731679
vt 0.633553 0.558823
vt 0.661966 0.565103
vt 0.647713 0.535427
vt 0.671566 0.539240
vt 0.698908 0.540220
vt 0.693989 0.569672
vt 0.662185 0.519221
vt 0.682092 0.518596
vt 0.671606 0.506947
vt 0.687971 0.501397
vt 0.707942 0.491291
vt 0.704848 0.513961
vt 0.729526 0.509031
vt 0.728274 0.539168
vt 0.729150 0.482597
vt 0.752968 0.477324
vt 0.756320 0.505952
vt 0.759051 0.538293
vt 0.726496 0.571029
vt 0.759387 0.571326
vt 0.788507 0.706218
vt 0.789273 0.736771
vt 0.789014 0.671885
vt 0.824396 0.671593
vt 0.821279 0.706699
vt 0.820546 0.738461
vt 0.790549 0.638540
vt 0.792018 0.605638
vt 0.828430 0.606185
vt 0.827144 0.638400
vt 0.871052 0.638630
vt 0.866858 0.670857
vt 0.870652 0.606177
vt 0.909496 0.605870
vt 0.911806 0.639880
vt 0.906297 0.672299
vt 0.857938 0.701968
vt 0.852268 0.730052
vt 0.891425 0.700263
vt 0.877746 0.722105
vt 0.792284 0.572725
vt 0.790385 0.539829
vt 0.822911 0.542365
vt 0.827093 0.574121
vt 0.785337 0.506879
vt 0.780810 0.477542
vt 0.810302 0.483361
vt 0.815609 0.511048
vt 0.846190 0.517726
vt 0.857273 0.544574
vt 0.839092 0.494894
vt 0.860989 0.503821
vt 0.872937 0.521074
vt 0.887989 0.544138
vt 0.865743 0.574444
vt 0.900868 0.573185
vt 0.602582 0.693110
vt 0.592608 0.661854
vt 0.619654 0.718028
vt 0.601682 0.731792
vt 0.582944 0.703059
vt 0.572813 0.667850
vt 0.591650 0.623282
vt 0.598573 0.584423
vt 0.572043 0.624814
vt 0.579741 0.581623
vt 0.641179 0.735688
vt 0.670481 0.746558
vt 0.659612 0.762372
vt 0.626215 0.750876
vt 0.711237 0.750192
vt 0.754599 0.752279
vt 0.753404 0.768651
vt 0.705188 0.766288
vt 0.612165 0.552368
vt 0.629102 0.527903
vt 0.594838 0.545997
vt 0.613587 0.518784
vt 0.646048 0.511883
vt 0.664082 0.498917
vt 0.632213 0.500852
vt 0.651574 0.486781
vt 0.683502 0.485585
vt 0.704171 0.472679
vt 0.674151 0.470901
vt 0.697180 0.456599
vt 0.725956 0.461928
vt 0.750737 0.455463
vt 0.721473 0.444666
vt 0.749105 0.437487
vt 0.791593 0.758637
vt 0.825061 0.761594
vt 0.831905 0.779614
vt 0.794555 0.775676
vt 0.858014 0.753355
vt 0.889088 0.735544
vt 0.904349 0.753977
vt 0.868892 0.772660
vt 0.780522 0.455438
vt 0.812240 0.462349
vt 0.782304 0.437462
vt 0.817655 0.445131
vt 0.842830 0.476575
vt 0.870552 0.495303
vt 0.851744 0.460911
vt 0.882155 0.481107
vt 0.914864 0.710074
vt 0.932641 0.678758
vt 0.951763 0.687231
vt 0.932500 0.724205
vt 0.938927 0.642881
vt 0.935739 0.605490
vt 0.955078 0.605049
vt 0.958608 0.646624
vt 0.925063 0.569732
vt 0.909562 0.538545
vt 0.926058 0.530590
vt 0.943223 0.565285
vt 0.891944 0.514895
vt 0.906669 0.504206
vt 0.565351 0.711857
vt 0.554410 0.673293
vt 0.586202 0.744062
vt 0.571909 0.755617
vt 0.548708 0.720132
vt 0.536633 0.678489
vt 0.553590 0.626189
vt 0.562000 0.578929
vt 0.535644 0.627495
vt 0.544729 0.576279
vt 0.613117 0.764770
vt 0.649733 0.777277
vt 0.640309 0.791801
vt 0.600881 0.778077
vt 0.699581 0.781596
vt 0.752254 0.784214
vt 0.751120 0.799437
vt 0.694179 0.796581
vt 0.578497 0.539934
vt 0.598962 0.510136
vt 0.562578 0.533998
vt 0.584728 0.501681
vt 0.619233 0.490449
vt 0.641955 0.473243
vt 0.606663 0.480326
vt 0.629388 0.463567
vt 0.665463 0.457192
vt 0.690673 0.441592
vt 0.657076 0.443980
vt 0.684393 0.427110
vt 0.717302 0.428563
vt 0.747593 0.420724
vt 0.713284 0.413013
vt 0.746145 0.404538
vt 0.797232 0.791849
vt 0.838113 0.796179
vt 0.844030 0.812109
vt 0.799769 0.807664
vt 0.878604 0.788859
vt 0.918011 0.768180
vt 0.930960 0.780330
vt 0.887803 0.803615
vt 0.783966 0.420707
vt 0.822691 0.429077
vt 0.785576 0.404538
vt 0.827550 0.413582
vt 0.860015 0.446297
vt 0.894933 0.470094
vt 0.867990 0.432207
vt 0.903914 0.455991
vt 0.948648 0.735382
vt 0.969631 0.694641
vt 0.986927 0.701546
vt 0.964131 0.745170
vt 0.977119 0.650092
vt 0.973287 0.604576
vt 0.991004 0.604087
vt 0.995117 0.653440
vt 0.960342 0.561048
vt 0.941605 0.523071
vt 0.956733 0.515738
vt 0.977009 0.556896
vt 0.920491 0.494167
vt 0.933882 0.484417
vt 0.893238 0.468309
vt 0.906272 0.458367
vt 0.883163 0.482255
vt 0.916103 0.769706
vt 0.928306 0.782570
vt 0.903180 0.754855
vt 0.640270 0.474973
vt 0.631663 0.461322
vt 0.652623 0.485629
vt 0.584597 0.742047
vt 0.569616 0.752731
vt 0.600725 0.730613
vt 0.870216 0.494839
vt 0.888658 0.735843
vt 0.663701 0.499392
vt 0.619257 0.717578
vn -0.107203 0.987962 0.111533
vn -0.077625 0.988553 0.129370
vn -0.101093 0.989799 0.100393
vn -0.133685 0.987723 0.080815
vn -0.039853 0.987893 0.149933
vn -0.062789 0.990479 0.122514
vn -0.089130 0.993361 0.072726
vn -0.130693 0.989925 0.054483
vn -0.165315 0.985476 0.038835
vn -0.003410 0.985791 0.167944
vn -0.026046 0.989392 0.142918
vn 0.034599 0.982552 0.182739
vn 0.009194 0.986801 0.161678
vn -0.015478 0.995027 0.098396
vn -0.048095 0.995001 0.087520
vn -0.056658 0.998171 0.021103
vn -0.104391 0.994330 0.020239
vn -0.024236 0.999495 0.020555
vn -0.020852 0.999565 -0.020852
vn -0.051704 0.998582 -0.012638
vn -0.102929 0.994685 -0.002828
vn -0.150519 0.988475 0.016162
vn -0.183963 0.982872 0.010986
vn -0.152172 0.988338 0.005613
vn -0.185796 0.982513 0.012200
vn 0.076738 0.977748 0.195245
vn 0.049960 0.982915 0.177149
vn 0.115713 0.971749 0.205706
vn 0.097348 0.978208 0.183392
vn 0.081268 0.991207 0.104425
vn 0.022574 0.994303 0.104176
vn 0.159966 0.965155 0.207091
vn 0.158036 0.971648 0.175853
vn 0.213857 0.955784 0.201847
vn 0.223783 0.958797 0.175014
vn 0.226980 0.965225 0.129697
vn 0.155666 0.982231 0.104831
vn 0.148353 0.988135 0.039761
vn 0.074061 0.996973 0.023659
vn 0.220305 0.972559 0.074796
vn 0.212465 0.976970 0.019699
vn 0.138348 0.990370 -0.005269
vn 0.070582 0.997291 -0.020716
vn 0.012091 0.999726 0.020028
vn 0.012244 0.999623 -0.024588
vn -0.139754 0.990159 -0.007381
vn -0.175007 0.984525 0.009129
vn -0.089931 0.995669 -0.023561
vn -0.073524 0.995220 -0.064280
vn -0.121374 0.991469 -0.047515
vn -0.154550 0.987552 -0.029254
vn -0.039248 0.998512 -0.037858
vn -0.012220 0.998705 -0.049396
vn -0.000264 0.996223 -0.086835
vn -0.025366 0.996712 -0.076951
vn -0.014215 0.993988 -0.108560
vn -0.058121 0.993444 -0.098440
vn 0.012777 0.993106 -0.116519
vn 0.025780 0.989435 -0.142670
vn -0.006350 0.990643 -0.136334
vn -0.048394 0.990911 -0.125511
vn -0.103175 0.991081 -0.084338
vn -0.131712 0.988882 -0.069018
vn -0.089337 0.990106 -0.108211
vn -0.114986 0.989113 -0.091833
vn 0.014399 0.998358 -0.055441
vn 0.064654 0.996523 -0.052554
vn 0.057595 0.994334 -0.089349
vn 0.020589 0.995441 -0.093136
vn 0.125989 0.991238 -0.039674
vn 0.202979 0.978808 -0.027117
vn 0.191446 0.979031 -0.069619
vn 0.109547 0.991255 -0.073571
vn 0.092623 0.989460 -0.111313
vn 0.054126 0.990843 -0.123697
vn 0.172797 0.978847 -0.109541
vn 0.163114 0.974819 -0.152057
vn 0.098025 0.982958 -0.155514
vn 0.069391 0.985195 -0.156766
vn 0.032459 0.991764 -0.123896
vn 0.050228 0.987497 -0.149425
vn -0.083034 0.982773 0.165114
vn -0.034549 0.981265 0.189541
vn -0.129419 0.982505 0.133920
vn -0.177855 0.966480 0.185158
vn -0.113518 0.966339 0.230873
vn -0.044772 0.963181 0.265100
vn 0.009639 0.979056 0.203364
vn 0.053413 0.976684 0.207931
vn 0.015840 0.959944 0.279745
vn 0.074573 0.957386 0.279016
vn -0.177326 0.980072 0.089523
vn -0.218958 0.975021 0.037316
vn -0.306964 0.950447 0.049231
vn -0.246645 0.961179 0.123695
vn -0.235620 0.971804 0.008982
vn -0.235324 0.971744 0.018357
vn -0.325407 0.945220 0.025878
vn -0.326815 0.945024 0.011038
vn 0.099713 0.973305 0.206724
vn 0.142107 0.967872 0.207435
vn 0.136326 0.954268 0.266059
vn 0.193303 0.949108 0.248654
vn 0.194072 0.958386 0.209363
vn 0.247277 0.946201 0.208706
vn 0.252483 0.939712 0.230640
vn 0.288888 0.930603 0.224770
vn 0.271020 0.942146 0.197254
vn 0.282097 0.944476 0.168485
vn 0.305039 0.926687 0.219549
vn 0.321052 0.926618 0.195714
vn 0.291628 0.949481 0.115931
vn 0.299196 0.953230 0.042823
vn 0.341998 0.929049 0.141087
vn 0.360037 0.931372 0.054030
vn -0.229659 0.972960 0.024596
vn -0.206578 0.978238 -0.019393
vn -0.298093 0.954352 -0.018766
vn -0.323762 0.945322 0.039304
vn -0.171284 0.982654 -0.071088
vn -0.138210 0.984225 -0.110454
vn -0.197477 0.967738 -0.156483
vn -0.248555 0.963880 -0.095684
vn 0.297786 0.954279 -0.025980
vn 0.287995 0.953460 -0.089293
vn 0.362064 0.931629 -0.031253
vn 0.347313 0.931328 -0.109554
vn 0.269208 0.952027 -0.145508
vn 0.230222 0.954744 -0.188316
vn 0.319259 0.931649 -0.173503
vn 0.280546 0.935578 -0.214449
vn -0.103319 0.984022 -0.144999
vn -0.056220 0.983094 -0.174258
vn -0.079190 0.964563 -0.251688
vn -0.145382 0.967239 -0.208118
vn -0.002809 0.981713 -0.190347
vn 0.041912 0.980037 -0.194350
vn 0.061923 0.958311 -0.278935
vn -0.003237 0.961264 -0.275610
vn 0.078039 0.977632 -0.195310
vn 0.110033 0.973504 -0.200455
vn 0.163135 0.951349 -0.261386
vn 0.115075 0.955519 -0.271554
vn 0.159621 0.965759 -0.204525
vn 0.223095 0.943802 -0.243856
vn -0.143888 0.944407 0.295620
vn -0.055344 0.941667 0.331963
vn -0.229448 0.943422 0.239392
vn -0.243946 0.934313 0.259904
vn -0.155748 0.935828 0.316177
vn -0.063783 0.933723 0.352268
vn 0.019598 0.937781 0.346675
vn 0.091785 0.934283 0.344517
vn 0.016757 0.929612 0.368160
vn 0.093151 0.925839 0.366258
vn -0.313664 0.936508 0.156738
vn -0.380494 0.922769 0.061013
vn -0.396856 0.914554 0.078078
vn -0.327558 0.928023 0.177425
vn -0.403035 0.915085 0.013506
vn -0.402397 0.914904 0.032049
vn -0.428606 0.902821 0.034790
vn -0.427881 0.903699 0.015720
vn 0.168341 0.930089 0.326489
vn 0.237543 0.925142 0.296118
vn 0.174734 0.921221 0.347590
vn 0.247250 0.916467 0.314573
vn 0.299628 0.918327 0.258649
vn 0.325304 0.913872 0.242931
vn 0.311080 0.910754 0.271582
vn 0.337109 0.907681 0.249948
vn 0.332353 0.912868 0.237093
vn 0.347354 0.913519 0.211729
vn 0.341547 0.907838 0.243262
vn 0.356833 0.908852 0.216007
vn 0.369900 0.916460 0.152559
vn 0.389403 0.919213 0.058420
vn 0.380023 0.912143 0.153552
vn 0.399181 0.915003 0.058515
vn -0.400656 0.914900 0.049320
vn -0.380315 0.924598 -0.021891
vn -0.403265 0.914296 -0.037951
vn -0.425780 0.903469 0.049557
vn -0.332032 0.934890 -0.125445
vn -0.265734 0.940643 -0.211129
vn -0.284984 0.929214 -0.235257
vn -0.355939 0.923057 -0.145855
vn 0.391719 0.919464 -0.033810
vn 0.375720 0.919125 -0.118508
vn 0.401523 0.915201 -0.034460
vn 0.385227 0.914859 -0.120968
vn 0.347376 0.918785 -0.187520
vn 0.313719 0.920394 -0.233356
vn 0.356563 0.914215 -0.192547
vn 0.323417 0.914975 -0.241295
vn -0.188231 0.943389 -0.273105
vn -0.098575 0.943447 -0.316528
vn -0.107379 0.935427 -0.336817
vn -0.201246 0.933676 -0.296224
vn -0.004179 0.940029 -0.341069
vn 0.076198 0.935647 -0.344614
vn 0.076363 0.927406 -0.366179
vn -0.009342 0.932333 -0.361480
vn 0.142358 0.931904 -0.333600
vn 0.200595 0.928665 -0.312000
vn 0.210278 0.920253 -0.330026
vn 0.148230 0.923130 -0.354767
vn 0.263083 0.924551 -0.275667
vn 0.273339 0.917642 -0.288479
s 1
g pPlane37 group3
usemtl initialShadingGroup
f 1/1/1 106/2/2 162/3/3 109/4/4
f 106/2/2 14/5/5 107/6/6 162/3/3
f 162/3/3 107/6/6 22/7/7 108/8/8
f 109/4/4 162/3/3 108/8/8 17/9/9
f 14/5/5 110/10/10 163/11/11 107/6/6
f 110/10/10 2/12/12 111/13/13 163/11/11
f 163/11/11 111/13/13 15/14/14 112/15/15
f 107/6/6 163/11/11 112/15/15 22/7/7
f 22/7/7 112/15/15 164/16/16 115/17/17
f 112/15/15 15/14/14 113/18/18 164/16/16
f 164/16/16 113/18/18 5/19/19 114/20/20
f 115/17/17 164/16/16 114/20/20 16/21/21
f 17/9/9 108/8/8 165/22/22 117/23/23
f 108/8/8 22/7/7 115/17/17 165/22/22
f 165/22/22 115/17/17 16/21/21 116/24/24
f 117/23/23 165/22/22 116/24/24 4/25/25
f 2/12/12 118/26/26 166/27/27 111/13/13
f 118/26/26 18/28/28 119/29/29 166/27/27
f 166/27/27 119/29/29 23/30/30 120/31/31
f 111/13/13 166/27/27 120/31/31 15/14/14
f 18/28/28 121/32/32 167/33/33 119/29/29
f 121/32/32 3/34/34 122/35/35 167/33/33
f 167/33/33 122/35/35 19/36/36 123/37/37
f 119/29/29 167/33/33 123/37/37 23/30/30
f 23/30/30 123/37/37 168/38/38 126/39/39
f 123/37/37 19/36/36 124/40/40 168/38/38
f 168/38/38 124/40/40 6/41/41 125/42/42
f 126/39/39 168/38/38 125/42/42 20/43/43
f 15/14/14 120/31/31 169/44/44 113/18/18
f 120/31/31 23/30/30 126/39/39 169/44/44
f 169/44/44 126/39/39 20/43/43 127/45/45
f 113/18/18 169/44/44 127/45/45 5/19/19
f 4/25/25 116/24/24 170/46/46 130/47/47
f 116/24/24 16/21/21 128/48/48 170/46/46
f 170/46/46 128/48/48 24/49/49 129/50/50
f 130/47/47 170/46/46 129/50/50 11/51/51
f 16/21/21 114/20/20 171/52/52 128/48/48
f 114/20/20 5/19/19 131/53/53 171/52/52
f 171/52/52 131/53/53 21/54/54 132/55/55
f 128/48/48 171/52/52 132/55/55 24/49/49
f 24/49/49 132/55/55 172/56/56 135/57/57
f 132/55/55 21/54/54 133/58/58 172/56/56
f 172/56/56 133/58/58 8/59/59 134/60/60
f 135/57/57 172/56/56 134/60/60 10/61/61
f 11/51/51 129/50/50 173/62/62 137/63/63
f 129/50/50 24/49/49 135/57/57 173/62/62
f 173/62/62 135/57/57 10/61/61 136/64/64
f 137/63/63 173/62/62 136/64/64 7/65/65
f 5/19/19 127/45/45 174/66/66 131/53/53
f 127/45/45 20/43/43 138/67/67 174/66/66
f 174/66/66 138/67/67 25/68/68 139/69/69
f 131/53/53 174/66/66 139/69/69 21/54/54
f 20/43/43 125/42/42 175/70/70 138/67/67
f 125/42/42 6/41/41 140/71/71 175/70/70
f 175/70/70 140/71/71 12/72/72 141/73/73
f 138/67/67 175/70/70 141/73/73 25/68/68
f 25/68/68 141/73/73 176/74/74 144/75/75
f 141/73/73 12/72/72 142/76/76 176/74/74
f 176/74/74 142/76/76 9/77/77 143/78/78
f 144/75/75 176/74/74 143/78/78 13/79/79
f 21/54/54 139/69/69 177/80/80 133/58/58
f 139/69/69 25/68/68 144/75/75 177/80/80
f 177/80/80 144/75/75 13/79/79 145/81/81
f 133/58/58 177/80/80 145/81/81 8/59/59
f 14/5/5 106/2/2 178/82/82 148/83/83
f 106/2/2 1/1/1 146/225/84 178/82/82
f 178/82/82 146/225/84 26/221/85 147/86/86
f 148/83/83 178/82/82 147/86/86 27/87/87
f 2/12/12 110/10/10 179/88/88 150/89/89
f 110/10/10 14/5/5 148/83/83 179/88/88
f 179/88/88 148/83/83 27/87/87 149/90/90
f 150/89/89 179/88/88 149/90/90 28/91/91
f 1/1/1 109/4/4 180/92/92 146/84/84
f 109/4/4 17/9/9 151/93/93 180/92/92
f 180/92/92 151/93/93 29/94/94 152/95/95
f 146/84/84 180/92/92 152/95/95 26/85/85
f 17/9/9 117/23/23 181/96/96 151/93/93
f 117/23/23 4/25/25 153/97/97 181/96/96
f 181/96/96 153/97/97 30/98/98 154/99/99
f 151/93/93 181/96/96 154/99/99 29/94/94
f 18/28/28 118/26/26 182/100/100 156/101/101
f 118/26/26 2/12/12 150/89/89 182/100/100
f 182/100/100 150/89/89 28/91/91 155/102/102
f 156/101/101 182/100/100 155/102/102 31/103/103
f 3/34/34 121/32/32 183/104/104 158/224/105
f 121/32/32 18/28/28 156/101/101 183/104/104
f 183/104/104 156/101/101 31/103/103 157/106/106
f 158/224/105 183/104/104 157/106/106 32/107/107
f 19/36/36 122/35/35 184/108/108 160/109/109
f 122/35/35 3/34/34 158/105/105 184/108/108
f 184/108/108 158/105/105 32/218/107 159/110/110
f 160/109/109 184/108/108 159/110/110 33/111/111
f 6/41/41 124/40/40 185/112/112 58/113/113
f 124/40/40 19/36/36 160/109/109 185/112/112
f 185/112/112 160/109/109 33/111/111 161/114/114
f 58/113/113 185/112/112 161/114/114 34/115/115
f 4/25/25 130/47/47 186/116/116 153/97/97
f 130/47/47 11/51/51 59/117/117 186/116/116
f 186/116/116 59/117/117 35/118/118 60/119/119
f 153/97/97 186/116/116 60/119/119 30/98/98
f 11/51/51 137/63/63 187/120/120 59/117/117
f 137/63/63 7/65/65 61/223/121 187/120/120
f 187/120/120 61/223/121 36/215/122 62/123/123
f 59/117/117 187/120/120 62/123/123 35/118/118
f 12/72/72 140/71/71 188/124/124 64/125/125
f 140/71/71 6/41/41 58/113/113 188/124/124
f 188/124/124 58/113/113 34/115/115 63/126/126
f 64/125/125 188/124/124 63/126/126 37/127/127
f 9/77/77 142/76/76 189/128/128 66/222/129
f 142/76/76 12/72/72 64/125/125 189/128/128
f 189/128/128 64/125/125 37/127/127 65/130/130
f 66/222/129 189/128/128 65/130/130 38/131/131
f 7/65/65 136/64/64 190/132/132 61/121/121
f 136/64/64 10/61/61 67/133/133 190/132/132
f 190/132/132 67/133/133 39/134/134 68/135/135
f 61/121/121 190/132/132 68/135/135 36/122/122
f 10/61/61 134/60/60 191/136/136 67/133/133
f 134/60/60 8/59/59 69/137/137 191/136/136
f 191/136/136 69/137/137 40/138/138 70/139/139
f 67/133/133 191/136/136 70/139/139 39/134/134
f 8/59/59 145/81/81 192/140/140 69/137/137
f 145/81/81 13/79/79 71/141/141 192/140/140
f 192/140/140 71/141/141 41/142/142 72/143/143
f 69/137/137 192/140/140 72/143/143 40/138/138
f 13/79/79 143/78/78 193/144/144 71/141/141
f 143/78/78 9/77/77 66/129/129 193/144/144
f 193/144/144 66/129/129 38/212/131 73/145/145
f 71/141/141 193/144/144 73/145/145 41/142/142
f 27/87/87 147/86/86 194/146/146 76/147/147
f 147/86/86 26/221/85 74/219/148 194/146/146
f 194/146/146 74/219/148 42/220/149 75/150/150
f 76/147/147 194/146/146 75/150/150 43/151/151
f 28/91/91 149/90/90 195/152/152 78/153/153
f 149/90/90 27/87/87 76/147/147 195/152/152
f 195/152/152 76/147/147 43/151/151 77/154/154
f 78/153/153 195/152/152 77/154/154 44/155/155
f 26/85/85 152/95/95 196/156/156 74/148/148
f 152/95/95 29/94/94 79/157/157 196/156/156
f 196/156/156 79/157/157 45/158/158 80/159/159
f 74/148/148 196/156/156 80/159/159 42/149/149
f 29/94/94 154/99/99 197/160/160 79/157/157
f 154/99/99 30/98/98 81/161/161 197/160/160
f 197/160/160 81/161/161 46/162/162 82/163/163
f 79/157/157 197/160/160 82/163/163 45/158/158
f 31/103/103 155/102/102 198/164/164 84/165/165
f 155/102/102 28/91/91 78/153/153 198/164/164
f 198/164/164 78/153/153 44/155/155 83/166/166
f 84/165/165 198/164/164 83/166/166 47/167/167
f 32/107/107 157/106/106 199/168/168 86/216/169
f 157/106/106 31/103/103 84/165/165 199/168/168
f 199/168/168 84/165/165 47/167/167 85/170/170
f 86/216/169 199/168/168 85/170/170 48/171/171
f 33/111/111 159/110/110 200/172/172 88/173/173
f 159/110/110 32/218/107 86/169/169 200/172/172
f 200/172/172 86/169/169 48/217/171 87/174/174
f 88/173/173 200/172/172 87/174/174 49/175/175
f 34/115/115 161/114/114 201/176/176 90/177/177
f 161/114/114 33/111/111 88/173/173 201/176/176
f 201/176/176 88/173/173 49/175/175 89/178/178
f 90/177/177 201/176/176 89/178/178 50/179/179
f 30/98/98 60/119/119 202/180/180 81/161/161
f 60/119/119 35/118/118 91/181/181 202/180/180
f 202/180/180 91/181/181 51/182/182 92/183/183
f 81/161/161 202/180/180 92/183/183 46/162/162
f 35/118/118 62/123/123 203/184/184 91/181/181
f 62/123/123 36/215/122 93/213/185 203/184/184
f 203/184/184 93/213/185 52/214/186 94/187/187
f 91/181/181 203/184/184 94/187/187 51/182/182
f 37/127/127 63/126/126 204/188/188 96/189/189
f 63/126/126 34/115/115 90/177/177 204/188/188
f 204/188/188 90/177/177 50/179/179 95/190/190
f 96/189/189 204/188/188 95/190/190 53/191/191
f 38/131/131 65/130/130 205/192/192 98/210/193
f 65/130/130 37/127/127 96/189/189 205/192/192
f 205/192/192 96/189/189 53/191/191 97/194/194
f 98/210/193 205/192/192 97/194/194 54/195/195
f 36/122/122 68/135/135 206/196/196 93/185/185
f 68/135/135 39/134/134 99/197/197 206/196/196
f 206/196/196 99/197/197 55/198/198 100/199/199
f 93/185/185 206/196/196 100/199/199 52/186/186
f 39/134/134 70/139/139 207/200/200 99/197/197
f 70/139/139 40/138/138 101/201/201 207/200/200
f 207/200/200 101/201/201 56/202/202 102/203/203
f 99/197/197 207/200/200 102/203/203 55/198/198
f 40/138/138 72/143/143 208/204/204 101/201/201
f 72/143/143 41/142/142 103/205/205 208/204/204
f 208/204/204 103/205/205 57/206/206 104/207/207
f 101/201/201 208/204/204 104/207/207 56/202/202
f 41/142/142 73/145/145 209/208/208 103/205/205
f 73/145/145 38/212/131 98/193/193 209/208/208
f 209/208/208 98/193/193 54/211/195 105/209/209
f 103/205/205 209/208/208 105/209/209 57/206/206
g default
v 1705.632812 103.396500 1743.799561
v 2413.840088 117.901703 1729.808105
v 2915.057617 94.545639 1555.720459
v 1512.176758 110.724274 1269.518555
v 2424.473877 217.699051 1243.226074
v 3170.762451 123.142578 1257.331543
v 1854.019775 91.548157 768.971497
v 2489.861816 98.106873 640.394897
v 2985.841553 141.171417 743.406433
v 2139.580566 100.901787 694.300476
v 1622.282471 95.190590 982.858887
v 3147.380371 158.256775 976.510681
v 2777.262207 120.014458 649.765808
v 1999.536133 111.592522 1780.250000
v 2400.706787 201.759979 1506.068237
v 1967.925171 199.026154 1273.297363
v 1558.431274 116.205902 1577.874878
v 2727.298828 98.948555 1629.999023
v 3059.646240 106.981033 1440.290161
v 2836.356445 200.076660 1209.409058
v 2469.090088 197.958878 940.727722
v 1946.605957 188.563232 1541.625000
v 2776.411377 167.211136 1462.781128
v 2057.788574 183.109818 984.240112
v 2836.461182 200.417343 913.615356
v 1666.060669 43.245640 1837.050049
v 2023.572388 41.085835 1901.517456
v 2424.510742 48.168434 1851.035156
v 1419.246338 41.318256 1650.676392
v 1351.416870 36.345833 1274.377930
v 2746.135254 36.347160 1726.809082
v 2964.893066 38.658588 1612.973145
v 3182.661377 33.267311 1482.809692
v 3311.212158 44.857510 1296.336426
v 1489.228027 26.160681 931.193054
v 1787.779541 34.843094 681.047668
v 3268.554443 85.413925 979.462280
v 3028.298340 78.389832 670.741028
v 2123.994385 34.599369 571.827820
v 2493.000977 30.958712 509.028564
v 2797.106689 47.033340 523.704163
v 1667.037720 -27.774628 1905.369385
v 2054.568848 -27.774628 1979.856445
v 2446.222412 -27.774628 1937.660278
v 1377.810791 -27.774628 1705.702271
v 1289.145264 -27.774628 1279.981445
v 2768.756836 -27.774628 1801.585693
v 2999.243164 -27.774628 1670.879272
v 3243.382324 -27.774628 1520.587402
v 3381.624756 -27.774628 1318.018555
v 1444.092041 -27.774628 889.681213
v 1745.281128 -27.774628 614.115295
v 3328.070557 -27.774628 968.407104
v 3067.283447 -27.774628 618.058899
v 2102.014648 -27.774628 487.268616
v 2487.980713 -27.774628 429.157410
v 2827.066406 -27.774628 450.407410
v 3259.339600 83.000786 1279.748413
v 1527.028564 57.301933 959.439697
v 1395.908203 30.130077 1093.079590
v 1828.594116 71.461838 726.150513
v 1626.733643 29.634140 790.230713
v 3315.982178 66.403931 1147.958984
v 3225.668457 126.395889 984.480835
v 3159.512939 87.639923 812.646484
v 3002.363770 121.669693 706.797363
v 2139.187256 65.495842 618.075073
v 1951.719727 36.080154 614.499451
v 2492.976562 60.567535 558.722168
v 2310.042480 31.654753 534.274353
v 2780.029297 82.144951 573.312317
v 2656.006348 36.223656 503.280151
v 2914.350098 62.971519 576.975769
v 1663.817505 7.230595 1874.694946
v 1854.688843 -27.774628 1956.243896
v 2037.889771 6.771170 1942.710327
v 2254.823730 -27.774628 1973.197754
v 2434.300537 11.099939 1895.890747
v 1393.612183 6.367886 1680.246582
v 1503.468994 -27.774628 1830.242676
v 1316.156128 3.775031 1277.320679
v 1303.891113 -27.774628 1506.586792
v 2619.533447 -27.774628 1874.637085
v 2758.073730 4.581416 1765.249756
v 2887.893311 -27.774628 1735.963745
v 2984.571289 4.871632 1642.929932
v 3125.107178 -27.774628 1599.440674
v 3216.205078 1.509336 1503.006714
v 3331.965088 -27.774628 1433.258423
v 3349.751953 8.176000 1308.326782
v 1463.613525 -1.641691 908.939026
v 1341.009277 -27.774628 1072.971436
v 1762.617188 2.472257 645.254150
v 1583.003174 -27.774628 734.234985
v 3383.129395 -27.774628 1155.432007
v 3300.938232 31.942110 974.036377
v 3208.041504 -27.774628 779.851562
v 3049.079102 27.268080 642.456970
v 2112.163818 3.470473 528.754639
v 1918.463379 -27.774628 536.805054
v 2490.997803 1.543612 467.141479
v 2295.398926 -27.774628 450.470154
v 2812.506104 10.087831 484.463928
v 2669.125488 -27.774628 426.077698
v 2950.038818 -27.774628 511.322693
v 1820.099976 111.062180 1763.806152
v 1970.675293 154.312775 1670.976074
v 1729.825317 156.422592 1556.690552
v 1629.378906 114.459152 1679.842407
v 2207.777344 116.394112 1765.807861
v 2405.193115 163.431686 1627.436035
v 2176.651367 202.656616 1524.977417
v 2408.043457 216.431671 1378.881470
v 2202.327393 215.531723 1262.161255
v 1946.538574 199.808105 1409.412476
v 1719.150146 158.751816 1273.038574
v 1518.061523 115.239105 1431.570312
v 2586.740479 108.549980 1681.579224
v 2745.541260 135.007645 1557.027710
v 2599.516602 188.930618 1484.217529
v 2836.333984 99.707016 1583.945312
v 2976.077148 104.564857 1506.507080
v 2934.721436 139.644119 1445.114624
v 3127.512939 112.239799 1360.192383
v 3022.109131 165.819595 1227.854370
v 2809.905762 187.660538 1344.795532
v 2636.480957 214.958603 1220.087524
v 2008.217407 197.196106 1132.238159
v 1820.256348 143.235184 990.630615
v 1544.683350 101.826950 1120.309814
v 2447.269531 215.814407 1096.452393
v 2271.718018 196.488510 965.172607
v 2482.593506 151.313492 778.219299
v 2315.615723 97.953369 661.897644
v 2107.011963 145.559082 827.308228
v 1981.152100 102.195999 733.104431
v 1751.674438 97.458626 856.080933
v 2846.094971 208.180283 1062.959961
v 2656.949219 202.108490 918.205139
v 3180.479736 142.490753 1122.825073
v 3008.791260 184.365341 942.969727
v 3062.179199 158.413147 838.225403
v 2895.337891 137.821518 692.998535
v 2804.794922 165.233643 769.542114
v 2642.923828 106.118401 634.291077
v 1679.230591 81.280327 1785.463257
v 1834.623169 41.497227 1883.242798
v 2013.978271 74.938248 1852.230469
v 2226.425781 45.484715 1889.131836
v 2418.984863 81.624825 1800.007812
v 1464.545410 77.884354 1612.878052
v 1524.368164 42.857826 1765.681152
v 1403.177979 70.958916 1270.871094
v 1360.395996 39.611408 1473.576172
v 2599.154053 42.611584 1792.177124
v 2731.686768 66.932297 1684.159180
v 2861.234131 36.908199 1669.182007
v 2935.202148 74.726952 1579.001465
v 3077.553955 35.962196 1551.859009
v 3136.384033 69.973312 1457.379639
v 3263.660156 35.022190 1402.794312
v 1775.948242 138.489487 1671.712646
v 2189.672852 163.529739 1654.767090
v 2181.735352 215.936905 1395.847046
v 1710.671631 161.474503 1419.402222
v 2589.488525 151.309952 1593.332886
v 2876.333740 122.367928 1523.090942
v 2986.601318 153.252701 1346.713013
v 2617.243164 207.863190 1358.691406
v 1755.924561 153.361191 1130.790405
v 2235.830322 213.602219 1118.705444
v 2299.464111 150.530777 801.256226
v 1911.407959 126.306458 850.531799
v 2651.041016 217.067673 1071.739624
v 3031.381348 179.970703 1088.506714
v 2948.713867 167.662735 805.542480
v 2650.229248 157.999191 764.041199
v 1833.339722 77.527618 1832.308838
v 2217.943115 79.087532 1838.690674
v 1554.854858 80.621040 1718.230957
v 1412.635498 75.404869 1451.670288
v 2590.854004 74.199463 1744.499390
v 2839.619873 69.944168 1630.980469
v 3038.983887 72.772484 1522.260498
v 3212.823730 72.221947 1380.981934
v 1440.226318 62.322884 1106.743896
v 1666.833862 63.701229 829.109619
v 3266.970459 105.792183 1140.360229
v 3125.384277 130.611633 833.773682
v 1981.261963 70.524803 660.958984
v 2316.719727 60.980644 582.038635
v 2647.075439 67.844833 553.998108
v 2892.852051 102.800362 622.111328
v 1842.906128 6.582407 1922.630005
v 2239.481445 9.460417 1932.846436
v 1509.911133 7.052202 1800.995850
v 1327.345947 5.498303 1491.161621
v 2608.965820 8.139523 1834.696777
v 2876.220947 4.427876 1703.534912
v 3104.289551 3.105414 1576.811401
v 3301.149170 2.463510 1419.342407
v 1365.085205 0.529639 1082.303467
v 1601.221436 -0.142782 760.056580
v 3352.643311 20.854860 1152.467896
v 3185.750000 32.879768 795.303101
v 1932.508789 3.649314 574.129822
v 2302.849609 2.017819 491.199829
v 2663.040039 4.300109 462.255615
v 2932.925293 18.707296 541.687439
vt 0.582569 0.393540
vt 0.547055 0.406716
vt 0.554125 0.373926
vt 0.600797 0.366872
vt 0.491802 0.423700
vt 0.493089 0.385437
vt 0.491660 0.342332
vt 0.560058 0.334376
vt 0.615472 0.330117
vt 0.425663 0.432307
vt 0.423962 0.393744
vt 0.358900 0.434023
vt 0.355340 0.398635
vt 0.349486 0.358703
vt 0.419657 0.350831
vt 0.410257 0.310644
vt 0.483413 0.300946
vt 0.339751 0.319189
vt 0.326783 0.277738
vt 0.396086 0.270071
vt 0.468908 0.259552
vt 0.557286 0.290184
vt 0.618950 0.282193
vt 0.546307 0.244773
vt 0.611600 0.231459
vt 0.301454 0.431007
vt 0.295764 0.400389
vt 0.253660 0.424691
vt 0.244396 0.399789
vt 0.230180 0.369898
vt 0.286710 0.364765
vt 0.216341 0.416224
vt 0.200768 0.397377
vt 0.189111 0.412085
vt 0.167366 0.398156
vt 0.137913 0.380793
vt 0.178909 0.374593
vt 0.158280 0.345739
vt 0.213845 0.334031
vt 0.113219 0.358462
vt 0.095520 0.328030
vt 0.141761 0.310107
vt 0.198622 0.292872
vt 0.274243 0.326071
vt 0.260488 0.283737
vt 0.527180 0.202043
vt 0.593927 0.186374
vt 0.448385 0.217666
vt 0.424841 0.173770
vt 0.499857 0.161046
vt 0.562975 0.146859
vt 0.377407 0.227151
vt 0.311161 0.233083
vt 0.295035 0.185211
vt 0.357414 0.180850
vt 0.339093 0.129070
vt 0.400903 0.125772
vt 0.280553 0.133064
vt 0.269151 0.087358
vt 0.325418 0.083334
vt 0.382996 0.083522
vt 0.464079 0.120939
vt 0.515613 0.113355
vt 0.435484 0.086992
vt 0.478566 0.090148
vt 0.247352 0.238099
vt 0.187367 0.247455
vt 0.180582 0.200273
vt 0.235878 0.190216
vt 0.132071 0.266930
vt 0.087149 0.286433
vt 0.089839 0.239697
vt 0.130137 0.220350
vt 0.137630 0.173158
vt 0.179943 0.152409
vt 0.105528 0.191686
vt 0.119959 0.155264
vt 0.145962 0.133759
vt 0.179868 0.111200
vt 0.227515 0.139992
vt 0.220732 0.096209
vt 0.548022 0.431292
vt 0.492503 0.449707
vt 0.596196 0.405587
vt 0.608699 0.422953
vt 0.551925 0.450715
vt 0.493353 0.468912
vt 0.427397 0.458375
vt 0.361649 0.458935
vt 0.428257 0.477747
vt 0.363073 0.478294
vt 0.628598 0.373832
vt 0.648823 0.334836
vt 0.668580 0.344071
vt 0.644968 0.387631
vt 0.654994 0.281795
vt 0.647603 0.225126
vt 0.667142 0.222314
vt 0.675899 0.285221
vt 0.303699 0.453702
vt 0.254959 0.444744
vt 0.303696 0.472062
vt 0.252432 0.461886
vt 0.217472 0.433987
vt 0.182064 0.422296
vt 0.212166 0.450638
vt 0.176035 0.438936
vt 0.146219 0.408453
vt 0.112273 0.391908
vt 0.132801 0.422809
vt 0.096124 0.404696
vt 0.084988 0.370647
vt 0.066527 0.340397
vt 0.067042 0.381946
vt 0.047714 0.349682
vt 0.627844 0.175601
vt 0.593568 0.133243
vt 0.606270 0.120547
vt 0.643757 0.167405
vt 0.542612 0.099110
vt 0.483733 0.073740
vt 0.494006 0.053594
vt 0.555402 0.082652
vt 0.059297 0.296904
vt 0.064787 0.247087
vt 0.040404 0.302768
vt 0.046358 0.247943
vt 0.083938 0.194440
vt 0.112200 0.143384
vt 0.066316 0.188595
vt 0.092467 0.133048
vt 0.431276 0.062263
vt 0.378594 0.057143
vt 0.380662 0.038946
vt 0.438093 0.042856
vt 0.319979 0.055843
vt 0.262577 0.059490
vt 0.259035 0.041422
vt 0.318980 0.037896
vt 0.213615 0.068907
vt 0.173300 0.085108
vt 0.163764 0.067607
vt 0.206892 0.050918
vt 0.141553 0.109361
vt 0.130414 0.092685
vt 0.553147 0.467637
vt 0.492305 0.486543
vt 0.616933 0.437567
vt 0.623069 0.451064
vt 0.553080 0.483437
vt 0.490283 0.503463
vt 0.427299 0.496198
vt 0.362720 0.496972
vt 0.425400 0.514248
vt 0.361461 0.515417
vt 0.656317 0.399646
vt 0.682831 0.352534
vt 0.694672 0.360828
vt 0.665287 0.411106
vt 0.691634 0.288542
vt 0.682258 0.220080
vt 0.695381 0.218104
vt 0.705109 0.291871
vt 0.302774 0.489717
vt 0.250337 0.478078
vt 0.301394 0.507081
vt 0.248450 0.493827
vt 0.208638 0.466024
vt 0.163896 0.452226
vt 0.205928 0.480793
vt 0.166530 0.467527
vt 0.123025 0.435175
vt 0.083850 0.415192
vt 0.115100 0.446621
vt 0.073511 0.424611
vt 0.053030 0.390996
vt 0.032227 0.357213
vt 0.040936 0.398985
vt 0.018261 0.363924
vt 0.656005 0.160545
vt 0.615552 0.110161
vt 0.623186 0.100861
vt 0.666532 0.154310
vt 0.564023 0.069513
vt 0.500157 0.037381
vt 0.504269 0.023090
vt 0.570578 0.057902
vt 0.022595 0.307433
vt 0.026750 0.247449
vt 0.004883 0.311489
vt 0.005961 0.246169
vt 0.047392 0.181961
vt 0.085938 0.113682
vt 0.027424 0.174807
vt 0.057989 0.112317
vt 0.442037 0.025777
vt 0.381871 0.021689
vt 0.382659 0.004883
vt 0.444594 0.009845
vt 0.318423 0.021101
vt 0.256592 0.025309
vt 0.254696 0.010112
vt 0.318097 0.004883
vt 0.201240 0.035222
vt 0.154975 0.052204
vt 0.146438 0.037731
vt 0.196080 0.020590
vt 0.119638 0.077283
vt 0.108754 0.062391
vt 0.075272 0.122529
vt 0.072499 0.098764
vt 0.099064 0.128566
vt 0.507536 0.039918
vt 0.513620 0.026332
vt 0.499088 0.055244
vt 0.170636 0.453664
vt 0.158113 0.465553
vt 0.171365 0.438105
vt 0.607143 0.441938
vt 0.609991 0.456588
vt 0.602442 0.425868
vt 0.109556 0.144425
vt 0.485914 0.074193
vt 0.184042 0.422463
vt 0.593835 0.406670
vn -0.144298 0.916587 0.372888
vn -0.073584 0.920207 0.384453
vn -0.113849 0.957849 0.263748
vn -0.205293 0.947169 0.246425
vn -0.018929 0.914713 0.403661
vn -0.046645 0.950803 0.306265
vn -0.087650 0.982313 0.165464
vn -0.166477 0.977819 0.127108
vn -0.260683 0.957645 0.122314
vn 0.032911 0.910181 0.412902
vn 0.011980 0.943359 0.331556
vn 0.105878 0.900678 0.421389
vn 0.079392 0.934246 0.347680
vn 0.050181 0.976260 0.210710
vn -0.013783 0.981120 0.192908
vn -0.033396 0.998392 0.045809
vn -0.113713 0.993139 0.027285
vn 0.023717 0.997376 0.068402
vn 0.004402 0.999975 0.005620
vn -0.041608 0.999013 -0.015568
vn -0.121476 0.991831 -0.038915
vn -0.192094 0.981244 0.016132
vn -0.278312 0.960211 0.023198
vn -0.195953 0.978946 -0.057155
vn -0.276523 0.958833 -0.064611
vn 0.184601 0.879212 0.439214
vn 0.149736 0.915892 0.372454
vn 0.214714 0.858438 0.465814
vn 0.185126 0.900022 0.394574
vn 0.161531 0.951240 0.262774
vn 0.111438 0.965226 0.236475
vn 0.210674 0.851597 0.479998
vn 0.204764 0.896589 0.392683
vn 0.242987 0.840345 0.484538
vn 0.260643 0.873609 0.410942
vn 0.280284 0.900681 0.331988
vn 0.209842 0.937184 0.278662
vn 0.210193 0.958373 0.193233
vn 0.142047 0.978408 0.150138
vn 0.288951 0.924066 0.250221
vn 0.291369 0.939961 0.177699
vn 0.199383 0.970893 0.132717
vn 0.120324 0.989058 0.085362
vn 0.076516 0.991495 0.105279
vn 0.046402 0.998147 0.039352
vn -0.195722 0.973144 -0.121178
vn -0.267709 0.951864 -0.149288
vn -0.123420 0.987934 -0.093561
vn -0.115927 0.974576 -0.191737
vn -0.185264 0.964347 -0.188976
vn -0.253171 0.943754 -0.212678
vn -0.046038 0.996377 -0.071504
vn -0.013404 0.998148 -0.059338
vn -0.036393 0.980070 -0.195291
vn -0.052098 0.979239 -0.195898
vn -0.054271 0.949669 -0.308519
vn -0.093449 0.953995 -0.284886
vn -0.052179 0.947325 -0.315994
vn -0.056377 0.920900 -0.385700
vn -0.054616 0.923807 -0.378944
vn -0.074019 0.928973 -0.362670
vn -0.155165 0.954019 -0.256459
vn -0.222717 0.940640 -0.256113
vn -0.118354 0.935640 -0.332520
vn -0.187964 0.930044 -0.315733
vn 0.015830 0.999203 -0.036657
vn 0.091966 0.995753 0.004228
vn 0.054472 0.988669 -0.139883
vn -0.018904 0.983629 -0.179209
vn 0.179116 0.982275 0.055257
vn 0.288670 0.953399 0.087751
vn 0.282263 0.957116 -0.065245
vn 0.148818 0.985718 -0.078828
vn 0.103736 0.966420 -0.235099
vn 0.006970 0.959738 -0.280810
vn 0.244324 0.941726 -0.231210
vn 0.212823 0.908968 -0.358445
vn 0.069586 0.929907 -0.361151
vn -0.016253 0.922744 -0.385070
vn -0.045805 0.949726 -0.309712
vn -0.053461 0.919392 -0.389692
vn -0.084601 0.854828 0.511968
vn -0.013615 0.862256 0.506290
vn -0.192340 0.854057 0.483314
vn -0.227175 0.769712 0.596603
vn -0.111638 0.775754 0.621083
vn -0.019157 0.793881 0.607771
vn 0.048061 0.867233 0.495578
vn 0.129941 0.863775 0.486835
vn 0.059582 0.806689 0.587965
vn 0.151736 0.808743 0.568253
vn -0.314746 0.880139 0.355374
vn -0.402085 0.895560 0.190524
vn -0.544065 0.785782 0.294176
vn -0.384216 0.779898 0.494103
vn -0.432711 0.899817 0.055594
vn -0.433922 0.898315 -0.068867
vn -0.620070 0.781239 -0.071961
vn -0.612723 0.783697 0.101931
vn 0.213304 0.849721 0.482157
vn 0.241330 0.834835 0.494784
vn 0.237755 0.804242 0.544672
vn 0.270360 0.797234 0.539745
vn 0.242348 0.817503 0.522452
vn 0.280730 0.799124 0.531594
vn 0.283237 0.777596 0.561356
vn 0.313452 0.758051 0.571933
vn 0.321005 0.809653 0.491344
vn 0.352864 0.834618 0.422966
vn 0.348091 0.759476 0.549571
vn 0.396898 0.776517 0.489381
vn 0.395227 0.858926 0.325640
vn 0.448098 0.868899 0.210293
vn 0.483994 0.790557 0.375194
vn 0.609782 0.766136 0.202980
vn -0.408891 0.891437 -0.195317
vn -0.362849 0.887605 -0.283723
vn -0.471022 0.805648 -0.359262
vn -0.568924 0.784697 -0.246122
vn -0.311522 0.887302 -0.340073
vn -0.234943 0.880185 -0.412402
vn -0.280190 0.829600 -0.482968
vn -0.375765 0.825074 -0.421964
vn 0.497626 0.865170 0.062047
vn 0.519334 0.838134 -0.166808
vn 0.713893 0.699959 -0.020370
vn 0.721052 0.624014 -0.301149
vn 0.475790 0.794406 -0.377549
vn 0.363443 0.790131 -0.493560
vn 0.627358 0.598077 -0.498723
vn 0.499845 0.641872 -0.581511
vn -0.137852 0.878095 -0.458198
vn -0.086135 0.881026 -0.465160
vn -0.112306 0.830766 -0.545174
vn -0.177233 0.826142 -0.534862
vn -0.065776 0.884853 -0.461203
vn -0.057822 0.884422 -0.463093
vn -0.057717 0.833899 -0.548892
vn -0.082503 0.837876 -0.539589
vn -0.039373 0.877064 -0.478758
vn 0.023815 0.864113 -0.502734
vn 0.105084 0.780882 -0.615777
vn -0.010076 0.814723 -0.579763
vn 0.164739 0.840123 -0.516772
vn 0.308572 0.721237 -0.620162
vn -0.128982 0.703187 0.699208
vn -0.023782 0.740827 0.671274
vn -0.254212 0.676081 0.691586
vn -0.249943 0.636745 0.729441
vn -0.121430 0.679999 0.723088
vn -0.013741 0.724908 0.688709
vn 0.068403 0.760792 0.645381
vn 0.166553 0.764947 0.622186
vn 0.078495 0.744506 0.662985
vn 0.172471 0.749335 0.639336
vn -0.435384 0.673635 0.597208
vn -0.641978 0.669794 0.373149
vn -0.653376 0.619715 0.434801
vn -0.429218 0.626779 0.650323
vn -0.730006 0.669379 0.137922
vn -0.726379 0.683732 -0.069884
vn -0.767922 0.637968 -0.057380
vn -0.769987 0.614058 0.173355
vn 0.252552 0.764678 0.592861
vn 0.294570 0.760658 0.578471
vn 0.254924 0.750367 0.609888
vn 0.301775 0.747505 0.591750
vn 0.318438 0.740983 0.591220
vn 0.340766 0.718787 0.605989
vn 0.331309 0.727778 0.600478
vn 0.351655 0.703051 0.618109
vn 0.367412 0.718419 0.590663
vn 0.424944 0.735411 0.527820
vn 0.375875 0.701879 0.605049
vn 0.442329 0.719631 0.535234
vn 0.543679 0.743595 0.389205
vn 0.710235 0.684565 0.164124
vn 0.574693 0.723333 0.382776
vn 0.741586 0.654129 0.148878
vn -0.654493 0.707627 -0.266275
vn -0.538955 0.743943 -0.395065
vn -0.561124 0.717410 -0.412872
vn -0.687248 0.673154 -0.273044
vn -0.425117 0.772207 -0.472199
vn -0.309867 0.786022 -0.534932
vn -0.320238 0.767311 -0.555591
vn -0.441085 0.748452 -0.495240
vn 0.815537 0.571055 -0.093790
vn 0.798893 0.479757 -0.362771
vn 0.840833 0.529410 -0.112806
vn 0.819287 0.434712 -0.373891
vn 0.703048 0.464853 -0.538178
vn 0.591821 0.522090 -0.614142
vn 0.724401 0.422140 -0.545014
vn 0.619498 0.483568 -0.618373
vn -0.194665 0.797343 -0.571271
vn -0.125064 0.810391 -0.572386
vn -0.130430 0.802813 -0.581790
vn -0.202366 0.786057 -0.584092
vn -0.088610 0.814519 -0.573330
vn -0.051102 0.800190 -0.597566
vn -0.046624 0.787483 -0.614570
vn -0.090219 0.805998 -0.585002
vn 0.019200 0.765854 -0.642728
vn 0.172985 0.714082 -0.678353
vn 0.206403 0.687309 -0.696423
vn 0.035780 0.745722 -0.665296
vn 0.410456 0.626190 -0.662882
vn 0.444776 0.593217 -0.671020
s 1
g group3 pPlane46
usemtl initialShadingGroup
f 210/226/210 315/227/211 371/228/212 318/229/213
f 315/227/211 223/230/214 316/231/215 371/228/212
f 371/228/212 316/231/215 231/232/216 317/233/217
f 318/229/213 371/228/212 317/233/217 226/234/218
f 223/230/214 319/235/219 372/236/220 316/231/215
f 319/235/219 211/237/221 320/238/222 372/236/220
f 372/236/220 320/238/222 224/239/223 321/240/224
f 316/231/215 372/236/220 321/240/224 231/232/216
f 231/232/216 321/240/224 373/241/225 324/242/226
f 321/240/224 224/239/223 322/243/227 373/241/225
f 373/241/225 322/243/227 214/244/228 323/245/229
f 324/242/226 373/241/225 323/245/229 225/246/230
f 226/234/218 317/233/217 374/247/231 326/248/232
f 317/233/217 231/232/216 324/242/226 374/247/231
f 374/247/231 324/242/226 225/246/230 325/249/233
f 326/248/232 374/247/231 325/249/233 213/250/234
f 211/237/221 327/251/235 375/252/236 320/238/222
f 327/251/235 227/253/237 328/254/238 375/252/236
f 375/252/236 328/254/238 232/255/239 329/256/240
f 320/238/222 375/252/236 329/256/240 224/239/223
f 227/253/237 330/257/241 376/258/242 328/254/238
f 330/257/241 212/259/243 331/260/244 376/258/242
f 376/258/242 331/260/244 228/261/245 332/262/246
f 328/254/238 376/258/242 332/262/246 232/255/239
f 232/255/239 332/262/246 377/263/247 335/264/248
f 332/262/246 228/261/245 333/265/249 377/263/247
f 377/263/247 333/265/249 215/266/250 334/267/251
f 335/264/248 377/263/247 334/267/251 229/268/252
f 224/239/223 329/256/240 378/269/253 322/243/227
f 329/256/240 232/255/239 335/264/248 378/269/253
f 378/269/253 335/264/248 229/268/252 336/270/254
f 322/243/227 378/269/253 336/270/254 214/244/228
f 213/250/234 325/249/233 379/271/255 339/272/256
f 325/249/233 225/246/230 337/273/257 379/271/255
f 379/271/255 337/273/257 233/274/258 338/275/259
f 339/272/256 379/271/255 338/275/259 220/276/260
f 225/246/230 323/245/229 380/277/261 337/273/257
f 323/245/229 214/244/228 340/278/262 380/277/261
f 380/277/261 340/278/262 230/279/263 341/280/264
f 337/273/257 380/277/261 341/280/264 233/274/258
f 233/274/258 341/280/264 381/281/265 344/282/266
f 341/280/264 230/279/263 342/283/267 381/281/265
f 381/281/265 342/283/267 217/284/268 343/285/269
f 344/282/266 381/281/265 343/285/269 219/286/270
f 220/276/260 338/275/259 382/287/271 346/288/272
f 338/275/259 233/274/258 344/282/266 382/287/271
f 382/287/271 344/282/266 219/286/270 345/289/273
f 346/288/272 382/287/271 345/289/273 216/290/274
f 214/244/228 336/270/254 383/291/275 340/278/262
f 336/270/254 229/268/252 347/292/276 383/291/275
f 383/291/275 347/292/276 234/293/277 348/294/278
f 340/278/262 383/291/275 348/294/278 230/279/263
f 229/268/252 334/267/251 384/295/279 347/292/276
f 334/267/251 215/266/250 349/296/280 384/295/279
f 384/295/279 349/296/280 221/297/281 350/298/282
f 347/292/276 384/295/279 350/298/282 234/293/277
f 234/293/277 350/298/282 385/299/283 353/300/284
f 350/298/282 221/297/281 351/301/285 385/299/283
f 385/299/283 351/301/285 218/302/286 352/303/287
f 353/300/284 385/299/283 352/303/287 222/304/288
f 230/279/263 348/294/278 386/305/289 342/283/267
f 348/294/278 234/293/277 353/300/284 386/305/289
f 386/305/289 353/300/284 222/304/288 354/306/290
f 342/283/267 386/305/289 354/306/290 217/284/268
f 223/230/214 315/227/211 387/307/291 357/308/292
f 315/227/211 210/226/210 355/450/293 387/307/291
f 387/307/291 355/450/293 235/446/294 356/311/295
f 357/308/292 387/307/291 356/311/295 236/312/296
f 211/237/221 319/235/219 388/313/297 359/314/298
f 319/235/219 223/230/214 357/308/292 388/313/297
f 388/313/297 357/308/292 236/312/296 358/315/299
f 359/314/298 388/313/297 358/315/299 237/316/300
f 210/226/210 318/229/213 389/317/301 355/309/293
f 318/229/213 226/234/218 360/318/302 389/317/301
f 389/317/301 360/318/302 238/319/303 361/320/304
f 355/309/293 389/317/301 361/320/304 235/310/294
f 226/234/218 326/248/232 390/321/305 360/318/302
f 326/248/232 213/250/234 362/322/306 390/321/305
f 390/321/305 362/322/306 239/323/307 363/324/308
f 360/318/302 390/321/305 363/324/308 238/319/303
f 227/253/237 327/251/235 391/325/309 365/326/310
f 327/251/235 211/237/221 359/314/298 391/325/309
f 391/325/309 359/314/298 237/316/300 364/327/311
f 365/326/310 391/325/309 364/327/311 240/328/312
f 212/259/243 330/257/241 392/329/313 367/449/314
f 330/257/241 227/253/237 365/326/310 392/329/313
f 392/329/313 365/326/310 240/328/312 366/331/315
f 367/449/314 392/329/313 366/331/315 241/332/316
f 228/261/245 331/260/244 393/333/317 369/334/318
f 331/260/244 212/259/243 367/330/314 393/333/317
f 393/333/317 367/330/314 241/443/316 368/335/319
f 369/334/318 393/333/317 368/335/319 242/336/320
f 215/266/250 333/265/249 394/337/321 267/338/322
f 333/265/249 228/261/245 369/334/318 394/337/321
f 394/337/321 369/334/318 242/336/320 370/339/323
f 267/338/322 394/337/321 370/339/323 243/340/324
f 213/250/234 339/272/256 395/341/325 362/322/306
f 339/272/256 220/276/260 268/342/326 395/341/325
f 395/341/325 268/342/326 244/343/327 269/344/328
f 362/322/306 395/341/325 269/344/328 239/323/307
f 220/276/260 346/288/272 396/345/329 268/342/326
f 346/288/272 216/290/274 270/448/330 396/345/329
f 396/345/329 270/448/330 245/440/331 271/348/332
f 268/342/326 396/345/329 271/348/332 244/343/327
f 221/297/281 349/296/280 397/349/333 273/350/334
f 349/296/280 215/266/250 267/338/322 397/349/333
f 397/349/333 267/338/322 243/340/324 272/351/335
f 273/350/334 397/349/333 272/351/335 246/352/336
f 218/302/286 351/301/285 398/353/337 275/447/338
f 351/301/285 221/297/281 273/350/334 398/353/337
f 398/353/337 273/350/334 246/352/336 274/355/339
f 275/447/338 398/353/337 274/355/339 247/356/340
f 216/290/274 345/289/273 399/357/341 270/346/330
f 345/289/273 219/286/270 276/358/342 399/357/341
f 399/357/341 276/358/342 248/359/343 277/360/344
f 270/346/330 399/357/341 277/360/344 245/347/331
f 219/286/270 343/285/269 400/361/345 276/358/342
f 343/285/269 217/284/268 278/362/346 400/361/345
f 400/361/345 278/362/346 249/363/347 279/364/348
f 276/358/342 400/361/345 279/364/348 248/359/343
f 217/284/268 354/306/290 401/365/349 278/362/346
f 354/306/290 222/304/288 280/366/350 401/365/349
f 401/365/349 280/366/350 250/367/351 281/368/352
f 278/362/346 401/365/349 281/368/352 249/363/347
f 222/304/288 352/303/287 402/369/353 280/366/350
f 352/303/287 218/302/286 275/354/338 402/369/353
f 402/369/353 275/354/338 247/437/340 282/370/354
f 280/366/350 402/369/353 282/370/354 250/367/351
f 236/312/296 356/311/295 403/371/355 285/372/356
f 356/311/295 235/446/294 283/444/357 403/371/355
f 403/371/355 283/444/357 251/445/358 284/375/359
f 285/372/356 403/371/355 284/375/359 252/376/360
f 237/316/300 358/315/299 404/377/361 287/378/362
f 358/315/299 236/312/296 285/372/356 404/377/361
f 404/377/361 285/372/356 252/376/360 286/379/363
f 287/378/362 404/377/361 286/379/363 253/380/364
f 235/310/294 361/320/304 405/381/365 283/373/357
f 361/320/304 238/319/303 288/382/366 405/381/365
f 405/381/365 288/382/366 254/383/367 289/384/368
f 283/373/357 405/381/365 289/384/368 251/374/358
f 238/319/303 363/324/308 406/385/369 288/382/366
f 363/324/308 239/323/307 290/386/370 406/385/369
f 406/385/369 290/386/370 255/387/371 291/388/372
f 288/382/366 406/385/369 291/388/372 254/383/367
f 240/328/312 364/327/311 407/389/373 293/390/374
f 364/327/311 237/316/300 287/378/362 407/389/373
f 407/389/373 287/378/362 253/380/364 292/391/375
f 293/390/374 407/389/373 292/391/375 256/392/376
f 241/332/316 366/331/315 408/393/377 295/441/378
f 366/331/315 240/328/312 293/390/374 408/393/377
f 408/393/377 293/390/374 256/392/376 294/395/379
f 295/441/378 408/393/377 294/395/379 257/396/380
f 242/336/320 368/335/319 409/397/381 297/398/382
f 368/335/319 241/443/316 295/394/378 409/397/381
f 409/397/381 295/394/378 257/442/380 296/399/383
f 297/398/382 409/397/381 296/399/383 258/400/384
f 243/340/324 370/339/323 410/401/385 299/402/386
f 370/339/323 242/336/320 297/398/382 410/401/385
f 410/401/385 297/398/382 258/400/384 298/403/387
f 299/402/386 410/401/385 298/403/387 259/404/388
f 239/323/307 269/344/328 411/405/389 290/386/370
f 269/344/328 244/343/327 300/406/390 411/405/389
f 411/405/389 300/406/390 260/407/391 301/408/392
f 290/386/370 411/405/389 301/408/392 255/387/371
f 244/343/327 271/348/332 412/409/393 300/406/390
f 271/348/332 245/440/331 302/438/394 412/409/393
f 412/409/393 302/438/394 261/439/395 303/412/396
f 300/406/390 412/409/393 303/412/396 260/407/391
f 246/352/336 272/351/335 413/413/397 305/414/398
f 272/351/335 243/340/324 299/402/386 413/413/397
f 413/413/397 299/402/386 259/404/388 304/415/399
f 305/414/398 413/413/397 304/415/399 262/416/400
f 247/356/340 274/355/339 414/417/401 307/435/402
f 274/355/339 246/352/336 305/414/398 414/417/401
f 414/417/401 305/414/398 262/416/400 306/419/403
f 307/435/402 414/417/401 306/419/403 263/420/404
f 245/347/331 277/360/344 415/421/405 302/410/394
f 277/360/344 248/359/343 308/422/406 415/421/405
f 415/421/405 308/422/406 264/423/407 309/424/408
f 302/410/394 415/421/405 309/424/408 261/411/395
f 248/359/343 279/364/348 416/425/409 308/422/406
f 279/364/348 249/363/347 310/426/410 416/425/409
f 416/425/409 310/426/410 265/427/411 311/428/412
f 308/422/406 416/425/409 311/428/412 264/423/407
f 249/363/347 281/368/352 417/429/413 310/426/410
f 281/368/352 250/367/351 312/430/414 417/429/413
f 417/429/413 312/430/414 266/431/415 313/432/416
f 310/426/410 417/429/413 313/432/416 265/427/411
f 250/367/351 282/370/354 418/433/417 312/430/414
f 282/370/354 247/437/340 307/418/402 418/433/417
f 418/433/417 307/418/402 263/436/404 314/434/418
f 312/430/414 418/433/417 314/434/418 266/431/415
g default
v -36.971527 33.244072 2981.114990
v 466.905731 40.054726 3010.050293
v 897.370422 41.759216 2835.505127
v -119.766998 38.877106 2532.073730
v 477.720551 79.655617 2524.819336
v 1047.067993 50.618240 2532.077637
v 26.907288 33.244072 2103.744629
v 538.831360 38.877106 1928.612793
v 942.078613 41.460136 2021.951660
v 245.403625 38.350174 2015.267456
v -92.592987 38.350174 2292.319092
v 1024.974854 49.081924 2251.317871
v 795.657532 39.890690 1931.346191
v 139.887573 38.518410 3042.165771
v 458.487061 75.440170 2784.929443
v 152.020325 68.374466 2547.082764
v -105.864716 38.350174 2805.763184
v 757.127136 41.068310 2912.042236
v 979.356934 50.091312 2717.099121
v 820.827881 77.200745 2489.337891
v 518.477600 68.374451 2227.676270
v 139.086548 64.685936 2795.173340
v 782.332764 73.512230 2743.687988
v 205.612152 63.676552 2288.465820
v 813.352173 66.446526 2193.397705
v -100.826569 11.343596 3079.231689
v 118.248901 11.343596 3173.119141
v 471.686310 11.343596 3132.710205
v -234.035004 11.343596 2874.923828
v -267.099030 11.343596 2532.241699
v 781.369385 11.563669 3009.109131
v 947.779785 12.884108 2892.784912
v 1076.914185 13.104181 2758.408691
v 1152.752808 13.104181 2569.430176
v -241.816681 11.343596 2247.219727
v -65.273224 11.343596 2022.626709
v 1120.499023 13.104181 2253.050293
v 995.613159 12.884108 1949.812866
v 212.894516 11.343596 1888.995361
v 541.237366 11.343596 1796.080566
v 829.990845 11.563669 1805.899170
v -138.813385 -27.774628 3155.809082
v 120.923370 -27.774628 3257.483398
v 489.700378 -27.774628 3220.154297
v -301.761322 -27.774628 2934.216797
v -362.920563 -27.774628 2537.313232
v 806.257935 -27.774628 3083.993408
v 991.778931 -27.774628 2951.149658
v 1141.192139 -27.774628 2796.355469
v 1220.793945 -27.774628 2590.999512
v -331.540863 -27.774628 2208.564941
v -124.120514 -27.774628 1952.479736
v 1180.270020 -27.774628 2242.007324
v 1048.492065 -27.774628 1897.791260
v 178.465302 -27.774628 1795.578125
v 534.588928 -27.774628 1714.772461
v 863.928833 -27.774628 1732.784912
v 1109.956909 32.622910 2553.273438
v -182.197174 25.580568 2272.175293
v -267.520599 11.343596 2380.625244
v -12.528259 25.580568 2066.689209
v -170.850006 11.343596 2125.157227
v 1150.422241 13.104180 2420.715088
v 1082.806274 32.622910 2258.315918
v 1065.125366 13.104180 2088.785645
v 964.088623 31.742619 1985.603516
v 234.350845 25.580568 1938.828857
v 64.260773 11.343596 1947.816895
v 541.705078 25.580568 1846.499756
v 375.770325 11.343596 1834.429199
v 808.995728 26.460861 1855.340576
v 697.644714 11.343596 1785.910645
v 923.274353 12.223888 1858.025391
v -122.745209 -7.151088 3121.031250
v -23.261200 -27.774628 3222.021973
v 117.153168 -7.151088 3217.591309
v 300.584290 -27.774628 3255.205811
v 479.445343 -7.151088 3178.019531
v -271.542450 -7.151088 2906.264404
v -232.577301 -27.774628 3065.832031
v -317.718292 -7.151088 2534.662598
v -343.574188 -27.774628 2743.089844
v 662.250427 -27.774628 3157.292969
v 794.433960 -7.151088 3047.603027
v 909.746216 -27.774628 3017.627686
v 971.284668 -7.151088 2922.923828
v 1071.419556 -27.774628 2877.514404
v 1110.762085 -7.151088 2778.620361
v 1193.620239 -27.774628 2707.307861
v 1188.528442 -7.151088 2581.288818
v -289.630280 -7.151088 2226.766846
v -364.705597 -27.774628 2361.750000
v -99.361176 -7.151088 1985.755371
v -246.038300 -27.774628 2069.922852
v 1214.802856 -27.774628 2428.056641
v 1151.945923 -7.151088 2247.580078
v 1121.817993 -27.774628 2056.378662
v 1023.069580 -7.151088 1921.846191
v 194.831573 -7.151088 1841.661621
v 18.289398 -27.774628 1862.890869
v 538.484436 -7.151088 1753.473389
v 353.680847 -27.774628 1744.962769
v 847.765015 -7.151088 1766.765015
v 711.842163 -27.774628 1708.733643
v 969.337280 -27.774628 1792.865479
v 30.086670 36.769382 3011.000732
v 140.933350 53.115685 2926.622803
v 3.646545 52.442757 2795.641846
v -70.974213 36.769382 2908.583496
v 295.147919 39.550034 3038.963867
v 461.407196 59.260956 2906.716064
v 292.958466 71.907310 2793.088135
v 464.208771 80.833237 2658.571045
v 309.880585 76.122765 2540.816895
v 141.219757 68.542679 2670.132568
v 4.129761 54.550484 2540.921875
v -119.089813 38.877106 2672.648438
v 626.198914 40.222958 2964.080078
v 764.610718 58.913826 2838.559570
v 628.897095 76.617783 2766.239502
v 843.789917 43.604359 2864.925049
v 931.393982 48.005821 2785.008545
v 896.938477 64.195580 2723.944336
v 1021.071045 50.786472 2635.758301
v 951.012695 66.303307 2505.100586
v 804.352173 78.378372 2625.156982
v 655.550049 80.833237 2501.785156
v 176.175629 67.869759 2421.607666
v 45.174652 52.442757 2298.336182
v -117.014008 38.877106 2406.871826
v 498.170654 76.122765 2380.851562
v 363.225677 67.869759 2260.945557
v 531.560059 54.550484 2066.300781
v 389.637299 38.877106 1965.492798
v 232.256088 52.442757 2142.416016
v 121.574646 36.769382 2065.680664
v -28.265533 36.769382 2183.691406
v 821.919067 73.667900 2342.602051
v 671.830261 68.542679 2200.558838
v 1047.878784 50.113544 2397.147705
v 933.111938 60.158028 2219.997803
v 979.827393 47.332893 2114.936523
v 883.068848 42.931431 1973.040649
v 800.854004 54.203346 2050.171875
v 677.541626 38.877106 1916.883545
v -67.207245 25.580568 3023.387695
v -6.484619 11.343596 3141.183350
v 129.076569 25.580568 3119.487793
v 287.475464 11.343596 3167.887451
v 468.919281 25.580568 3081.051025
v -181.950531 25.580568 2836.806885
v -178.878754 11.343596 2994.416992
v -205.646088 25.580568 2530.279541
v -259.689545 11.343596 2708.936523
v 641.372559 11.343596 3074.809326
v 765.823486 26.460861 2966.407227
v 876.511963 12.223888 2950.533447
v 918.254028 31.742615 2858.821289
v 1016.152588 13.104180 2829.565918
v 1036.230591 32.622910 2733.244629
v 1125.348877 13.104180 2676.845459
v 20.129456 46.119583 2912.005127
v 294.129822 57.242188 2924.288330
v 296.931305 76.795685 2667.526123
v -1.149414 54.550484 2669.198730
v 624.453857 59.933887 2875.620117
v 863.218384 55.853630 2803.092773
v 929.658813 66.976234 2624.632080
v 641.275635 82.179085 2640.458984
v 17.872314 54.550484 2419.056641
v 335.638611 74.103981 2406.176025
v 381.661987 54.550484 2102.467285
v 91.133392 46.119583 2173.493652
v 665.681030 76.795685 2353.724365
v 950.633545 64.284531 2365.294189
v 903.038513 53.161930 2083.996826
v 674.159241 54.550484 2046.571289
v 15.305359 25.580570 3085.340576
v 290.715454 25.580570 3114.952637
v -135.070221 25.580570 2944.505127
v -201.515045 25.580570 2688.406494
v 632.385132 25.580570 3027.098877
v 853.945068 29.101740 2912.286865
v 980.254883 32.622913 2800.094238
v 1082.464478 32.622913 2655.411377
v -206.226288 25.580570 2393.402100
v -112.499969 25.580570 2161.001221
v 1109.708862 32.622913 2413.510498
v 1030.335449 32.622913 2109.881348
v 102.324829 25.580570 1996.049561
v 385.841370 25.580570 1884.774536
v 686.850586 25.580570 1836.617798
v 895.858582 29.101740 1902.879639
v -17.553223 -7.151088 3184.687500
v 292.070984 -7.151088 3213.401855
v -209.119843 -7.151088 3032.965332
v -304.878265 -7.151088 2726.703613
v 651.521118 -7.151088 3117.344971
v 894.319031 -7.151088 2985.020752
v 1045.438965 -7.151088 2854.639404
v 1161.234375 -7.151088 2693.317627
v -318.653412 -7.151088 2370.519775
v -212.595245 -7.151088 2095.894775
v 1184.317139 -7.151088 2425.092773
v 1094.760498 -7.151088 2071.603760
v 38.259460 -7.151088 1904.199951
v 364.920319 -7.151088 1788.573608
v 705.482544 -7.151088 1744.898438
v 947.182617 -7.151088 1822.990601
vt 0.080063 0.657682
vt 0.096416 0.640775
vt 0.105650 0.671238
vt 0.079170 0.683379
vt 0.125052 0.618270
vt 0.139520 0.652292
vt 0.155109 0.691225
vt 0.115167 0.707544
vt 0.081593 0.717975
vt 0.171021 0.600125
vt 0.184822 0.634274
vt 0.224968 0.587442
vt 0.236048 0.618962
vt 0.250043 0.655379
vt 0.200539 0.673138
vt 0.216949 0.709555
vt 0.170965 0.727728
vt 0.267005 0.691823
vt 0.287162 0.729463
vt 0.236107 0.745219
vt 0.189082 0.762608
vt 0.129181 0.745354
vt 0.093889 0.758794
vt 0.146334 0.782472
vt 0.110808 0.800254
vt 0.277388 0.581314
vt 0.287682 0.608167
vt 0.322277 0.580578
vt 0.333366 0.601962
vt 0.349899 0.628081
vt 0.302224 0.640130
vt 0.353599 0.583994
vt 0.366724 0.600313
vt 0.373154 0.585957
vt 0.389145 0.597235
vt 0.411273 0.611695
vt 0.385949 0.619878
vt 0.407358 0.645179
vt 0.370522 0.660268
vt 0.433150 0.630678
vt 0.453209 0.657919
vt 0.428031 0.677598
vt 0.391764 0.698074
vt 0.320990 0.675593
vt 0.341951 0.714546
vt 0.165252 0.816662
vt 0.126954 0.836726
vt 0.211446 0.796577
vt 0.236301 0.832198
vt 0.187990 0.848937
vt 0.148126 0.867483
vt 0.260031 0.781651
vt 0.310678 0.769236
vt 0.335397 0.811706
vt 0.285849 0.820975
vt 0.310740 0.865368
vt 0.261986 0.872035
vt 0.359150 0.857494
vt 0.378391 0.897106
vt 0.330068 0.904786
vt 0.281561 0.907998
vt 0.216686 0.880301
vt 0.180232 0.891860
vt 0.238909 0.908463
vt 0.206231 0.909012
vt 0.362983 0.756705
vt 0.410030 0.740866
vt 0.425977 0.785526
vt 0.383638 0.800811
vt 0.444973 0.718490
vt 0.469846 0.697213
vt 0.481007 0.742577
vt 0.457776 0.763062
vt 0.466035 0.806523
vt 0.440155 0.828972
vt 0.484724 0.787958
vt 0.485593 0.819971
vt 0.473956 0.841511
vt 0.453355 0.864507
vt 0.403402 0.845649
vt 0.420505 0.883354
vt 0.083013 0.620422
vt 0.112384 0.596595
vt 0.065593 0.649126
vt 0.048024 0.637005
vt 0.069640 0.606137
vt 0.102448 0.581668
vt 0.160332 0.578003
vt 0.216801 0.565923
vt 0.152733 0.562302
vt 0.211185 0.549830
vt 0.055718 0.680806
vt 0.055246 0.718225
vt 0.034842 0.713494
vt 0.036201 0.671683
vt 0.067482 0.764298
vt 0.085520 0.811363
vt 0.066752 0.818477
vt 0.047402 0.765492
vt 0.271476 0.561546
vt 0.318212 0.562967
vt 0.268238 0.545805
vt 0.317572 0.547795
vt 0.350829 0.568185
vt 0.377030 0.576031
vt 0.352832 0.553239
vt 0.380983 0.561215
vt 0.402266 0.586343
vt 0.426654 0.599585
vt 0.410151 0.572363
vt 0.436473 0.586448
vt 0.449434 0.617098
vt 0.469722 0.643754
vt 0.460396 0.604916
vt 0.481429 0.633210
vt 0.102163 0.851655
vt 0.124043 0.884350
vt 0.109187 0.899174
vt 0.085302 0.863113
vt 0.157976 0.908777
vt 0.199392 0.925080
vt 0.189481 0.945146
vt 0.144770 0.926635
vt 0.486695 0.684629
vt 0.497816 0.733281
vt 0.499097 0.677084
vt 0.510984 0.729930
vt 0.500809 0.783150
vt 0.496806 0.828290
vt 0.515023 0.784934
vt 0.512206 0.834283
vt 0.241927 0.931552
vt 0.287838 0.932105
vt 0.287775 0.949942
vt 0.236775 0.950920
vt 0.339051 0.929227
vt 0.389532 0.921070
vt 0.395855 0.936469
vt 0.342467 0.945817
vt 0.433289 0.905954
vt 0.466746 0.885383
vt 0.479314 0.897788
vt 0.443002 0.919989
vt 0.486433 0.860828
vt 0.500473 0.871259
vt 0.060450 0.593742
vt 0.096186 0.567699
vt 0.035067 0.627327
vt 0.024224 0.618735
vt 0.053192 0.582124
vt 0.091699 0.554082
vt 0.148175 0.547303
vt 0.207727 0.534466
vt 0.145119 0.532546
vt 0.205341 0.519398
vt 0.021415 0.664103
vt 0.018868 0.709024
vt 0.004883 0.704665
vt 0.008776 0.657191
vt 0.030891 0.766067
vt 0.050616 0.824331
vt 0.035680 0.829589
vt 0.016001 0.766352
vt 0.265953 0.530890
vt 0.316757 0.533600
vt 0.264141 0.516307
vt 0.315861 0.519811
vt 0.353994 0.539505
vt 0.386860 0.548207
vt 0.354757 0.526315
vt 0.387263 0.535330
vt 0.416746 0.560167
vt 0.445070 0.575292
vt 0.422695 0.548800
vt 0.453084 0.565076
vt 0.470147 0.594783
vt 0.491912 0.624582
vt 0.479336 0.585634
vt 0.501837 0.616883
vt 0.070650 0.872816
vt 0.096870 0.911622
vt 0.085721 0.922988
vt 0.056999 0.881702
vt 0.135361 0.941069
vt 0.184039 0.961296
vt 0.180794 0.975674
vt 0.127762 0.953979
vt 0.510201 0.671074
vt 0.522723 0.727341
vt 0.520706 0.665818
vt 0.533796 0.725125
vt 0.527600 0.786194
vt 0.524303 0.841469
vt 0.539399 0.787199
vt 0.537727 0.842890
vt 0.234567 0.967958
vt 0.288429 0.967086
vt 0.289441 0.983931
vt 0.233815 0.983931
vt 0.345177 0.961681
vt 0.400707 0.950440
vt 0.404867 0.963807
vt 0.347545 0.977262
vt 0.450949 0.932135
vt 0.490091 0.908021
vt 0.500111 0.917292
vt 0.458091 0.943474
vt 0.512766 0.879505
vt 0.524280 0.886671
vt 0.525407 0.839019
vt 0.536296 0.846365
vt 0.511451 0.835720
vt 0.181836 0.960457
vt 0.177751 0.974629
vt 0.188085 0.944560
vt 0.384405 0.547906
vt 0.390517 0.535839
vt 0.382567 0.561335
vt 0.036640 0.624861
vt 0.026545 0.615334
vt 0.048916 0.635475
vt 0.497155 0.827794
vt 0.198784 0.924831
vt 0.376390 0.576046
vt 0.065893 0.648508
vn -0.104823 0.988838 0.105888
vn -0.069998 0.990067 0.121933
vn -0.085562 0.992610 0.086054
vn -0.119874 0.990075 0.073357
vn -0.026413 0.989132 0.144640
vn -0.044023 0.993136 0.108369
vn -0.062833 0.996252 0.059443
vn -0.103192 0.993712 0.043455
vn -0.135826 0.990082 0.035891
vn 0.008256 0.986185 0.165442
vn -0.010311 0.991298 0.131232
vn 0.036510 0.981545 0.187716
vn 0.015448 0.987923 0.154172
vn -0.004129 0.996283 0.086044
vn -0.027729 0.996810 0.074839
vn -0.035820 0.999257 0.014216
vn -0.072062 0.997341 0.010903
vn -0.013588 0.999785 0.015652
vn -0.014752 0.999741 -0.017346
vn -0.034524 0.999296 -0.014700
vn -0.069943 0.997477 -0.012145
vn -0.110897 0.993799 0.008134
vn -0.141072 0.989960 0.008854
vn -0.107066 0.994218 -0.008241
vn -0.136540 0.990631 -0.002631
vn 0.064304 0.975147 0.212022
vn 0.040726 0.983694 0.175181
vn 0.091381 0.967878 0.234225
vn 0.070894 0.979894 0.186497
vn 0.056292 0.994034 0.093426
vn 0.018753 0.995586 0.091966
vn 0.127483 0.961411 0.243798
vn 0.120817 0.975414 0.184313
vn 0.182047 0.952295 0.244937
vn 0.192785 0.961805 0.194335
vn 0.200709 0.970571 0.133069
vn 0.120386 0.987761 0.099172
vn 0.119538 0.992114 0.037694
vn 0.051141 0.998473 0.020870
vn 0.202735 0.976578 0.072066
vn 0.206800 0.978231 0.017238
vn 0.116456 0.993195 -0.001023
vn 0.048892 0.998721 -0.012865
vn 0.008526 0.999832 0.016218
vn 0.005631 0.999830 -0.017539
vn -0.097008 0.994968 -0.025064
vn -0.126884 0.991744 -0.018544
vn -0.061975 0.997622 -0.030171
vn -0.054946 0.996467 -0.063511
vn -0.085345 0.994675 -0.057781
vn -0.112958 0.992181 -0.053075
vn -0.029617 0.998979 -0.034125
vn -0.014002 0.999174 -0.038139
vn -0.016175 0.997432 -0.069764
vn -0.028496 0.997329 -0.067257
vn -0.032332 0.994500 -0.099623
vn -0.051727 0.993953 -0.096864
vn -0.019566 0.994698 -0.100959
vn -0.023210 0.990624 -0.134634
vn -0.040221 0.990347 -0.132650
vn -0.055118 0.990071 -0.129310
vn -0.075065 0.993016 -0.091015
vn -0.097505 0.991410 -0.087169
vn -0.070604 0.990080 -0.121481
vn -0.087463 0.989741 -0.112977
vn 0.002953 0.999225 -0.039257
vn 0.043489 0.998406 -0.035984
vn 0.033466 0.997278 -0.065695
vn -0.001426 0.997520 -0.070367
vn 0.108591 0.993684 -0.028302
vn 0.206128 0.978226 -0.024192
vn 0.199746 0.978020 -0.059815
vn 0.093583 0.994092 -0.054995
vn 0.073483 0.993455 -0.087454
vn 0.021379 0.994913 -0.098447
vn 0.180745 0.979042 -0.093850
vn 0.168826 0.976577 -0.133398
vn 0.072224 0.988342 -0.134027
vn 0.022772 0.989943 -0.139621
vn -0.004252 0.994736 -0.102381
vn -0.002820 0.990505 -0.137448
vn -0.082492 0.980712 0.177196
vn -0.022144 0.978650 0.204339
vn -0.130844 0.981288 0.141259
vn -0.192091 0.955276 0.224830
vn -0.123638 0.951503 0.281702
vn -0.032137 0.948392 0.315469
vn 0.022964 0.975786 0.217518
vn 0.056697 0.972131 0.227478
vn 0.034814 0.947184 0.318797
vn 0.082645 0.945154 0.315997
vn -0.162506 0.981977 0.096508
vn -0.186906 0.981250 0.047065
vn -0.294226 0.952149 0.082728
vn -0.248120 0.955260 0.160983
vn -0.191517 0.981379 0.014698
vn -0.186797 0.982396 0.002414
vn -0.287955 0.957613 0.007695
vn -0.298128 0.954065 0.029659
vn 0.088453 0.966623 0.240451
vn 0.119343 0.958549 0.258728
vn 0.126769 0.939521 0.318166
vn 0.169389 0.929793 0.326791
vn 0.164085 0.946902 0.276502
vn 0.222443 0.934995 0.276231
vn 0.223736 0.916341 0.332057
vn 0.272269 0.906609 0.322381
vn 0.255853 0.935879 0.242217
vn 0.276159 0.942075 0.190344
vn 0.306369 0.904948 0.295309
vn 0.341751 0.907491 0.244267
vn 0.302316 0.945804 0.118578
vn 0.333546 0.942091 0.034803
vn 0.391228 0.906729 0.157426
vn 0.445243 0.894331 0.043945
vn -0.180599 0.983405 -0.017255
vn -0.163447 0.984448 -0.064396
vn -0.258203 0.960984 -0.099202
vn -0.281356 0.959276 -0.025088
vn -0.137321 0.984356 -0.110387
vn -0.112446 0.982412 -0.149072
vn -0.169162 0.960387 -0.221452
vn -0.215157 0.961599 -0.170395
vn 0.351882 0.935462 -0.033003
vn 0.355416 0.930304 -0.090631
vn 0.476203 0.878022 -0.048052
vn 0.475896 0.871019 -0.121858
vn 0.336627 0.930777 -0.142606
vn 0.271185 0.944397 -0.185938
vn 0.435393 0.881956 -0.180519
vn 0.359827 0.905144 -0.226359
vn -0.088507 0.980260 -0.176794
vn -0.074043 0.978702 -0.191468
vn -0.104049 0.953266 -0.283650
vn -0.127612 0.957365 -0.259166
vn -0.059206 0.977730 -0.201343
vn -0.033032 0.977493 -0.208365
vn -0.047910 0.942369 -0.331127
vn -0.085444 0.947801 -0.307202
vn 0.002689 0.977209 -0.212261
vn 0.051969 0.975207 -0.215106
vn 0.100651 0.938828 -0.329350
vn 0.011399 0.940001 -0.340982
vn 0.144176 0.967166 -0.209292
vn 0.237144 0.929443 -0.282662
vn -0.164656 0.900727 0.401969
vn -0.042117 0.906214 0.420716
vn -0.267078 0.903057 0.336389
vn -0.287723 0.876048 0.386982
vn -0.168159 0.877093 0.449923
vn -0.037212 0.888949 0.456493
vn 0.042964 0.912386 0.407071
vn 0.104738 0.913142 0.393957
vn 0.048172 0.898501 0.436321
vn 0.112354 0.900582 0.419914
vn -0.349715 0.905108 0.241823
vn -0.409423 0.903330 0.127936
vn -0.445475 0.880298 0.163180
vn -0.376869 0.880618 0.287195
vn -0.408670 0.911232 0.051432
vn -0.387505 0.921736 0.015549
vn -0.423994 0.905442 0.020128
vn -0.451628 0.889681 0.067090
vn 0.162161 0.905953 0.391092
vn 0.214822 0.893670 0.393961
vn 0.172700 0.893260 0.415043
vn 0.227958 0.880012 0.416671
vn 0.272707 0.880698 0.387301
vn 0.318086 0.873292 0.369029
vn 0.286249 0.867000 0.407887
vn 0.333121 0.860059 0.386430
vn 0.351744 0.872337 0.339566
vn 0.393608 0.874783 0.282538
vn 0.368487 0.859240 0.354857
vn 0.413682 0.861649 0.293987
vn 0.451358 0.874369 0.178199
vn 0.509041 0.859616 0.044025
vn 0.472246 0.861648 0.185868
vn 0.528621 0.847335 0.050831
vn -0.374688 0.926517 -0.034295
vn -0.351939 0.925893 -0.137335
vn -0.384406 0.910262 -0.153804
vn -0.407321 0.912390 -0.040434
vn -0.305141 0.921130 -0.241679
vn -0.239676 0.920063 -0.309903
vn -0.265228 0.900788 -0.343853
vn -0.338403 0.901456 -0.269928
vn 0.538750 0.840417 -0.058716
vn 0.535693 0.833483 -0.135423
vn 0.559869 0.826521 -0.058393
vn 0.557066 0.818717 -0.139216
vn 0.496453 0.845491 -0.196669
vn 0.427146 0.867644 -0.254441
vn 0.516091 0.831923 -0.203846
vn 0.445062 0.854202 -0.268811
vn -0.169541 0.924918 -0.340269
vn -0.125961 0.926703 -0.354057
vn -0.133284 0.916262 -0.377756
vn -0.184973 0.911221 -0.368050
vn -0.097236 0.918529 -0.383210
vn -0.052928 0.903552 -0.425196
vn -0.052342 0.887616 -0.457600
vn -0.099107 0.907281 -0.408681
vn 0.019958 0.893744 -0.448133
vn 0.136810 0.894216 -0.426216
vn 0.154579 0.875935 -0.456993
vn 0.026977 0.873761 -0.485608
vn 0.301637 0.889633 -0.342881
vn 0.318828 0.874038 -0.366614
s 1
g group3 pPlane44
usemtl initialShadingGroup
f 419/451/419 524/452/420 580/453/421 527/454/422
f 524/452/420 432/455/423 525/456/424 580/453/421
f 580/453/421 525/456/424 440/457/425 526/458/426
f 527/454/422 580/453/421 526/458/426 435/459/427
f 432/455/423 528/460/428 581/461/429 525/456/424
f 528/460/428 420/462/430 529/463/431 581/461/429
f 581/461/429 529/463/431 433/464/432 530/465/433
f 525/456/424 581/461/429 530/465/433 440/457/425
f 440/457/425 530/465/433 582/466/434 533/467/435
f 530/465/433 433/464/432 531/468/436 582/466/434
f 582/466/434 531/468/436 423/469/437 532/470/438
f 533/467/435 582/466/434 532/470/438 434/471/439
f 435/459/427 526/458/426 583/472/440 535/473/441
f 526/458/426 440/457/425 533/467/435 583/472/440
f 583/472/440 533/467/435 434/471/439 534/474/442
f 535/473/441 583/472/440 534/474/442 422/475/443
f 420/462/430 536/476/444 584/477/445 529/463/431
f 536/476/444 436/478/446 537/479/447 584/477/445
f 584/477/445 537/479/447 441/480/448 538/481/449
f 529/463/431 584/477/445 538/481/449 433/464/432
f 436/478/446 539/482/450 585/483/451 537/479/447
f 539/482/450 421/484/452 540/485/453 585/483/451
f 585/483/451 540/485/453 437/486/454 541/487/455
f 537/479/447 585/483/451 541/487/455 441/480/448
f 441/480/448 541/487/455 586/488/456 544/489/457
f 541/487/455 437/486/454 542/490/458 586/488/456
f 586/488/456 542/490/458 424/491/459 543/492/460
f 544/489/457 586/488/456 543/492/460 438/493/461
f 433/464/432 538/481/449 587/494/462 531/468/436
f 538/481/449 441/480/448 544/489/457 587/494/462
f 587/494/462 544/489/457 438/493/461 545/495/463
f 531/468/436 587/494/462 545/495/463 423/469/437
f 422/475/443 534/474/442 588/496/464 548/497/465
f 534/474/442 434/471/439 546/498/466 588/496/464
f 588/496/464 546/498/466 442/499/467 547/500/468
f 548/497/465 588/496/464 547/500/468 429/501/469
f 434/471/439 532/470/438 589/502/470 546/498/466
f 532/470/438 423/469/437 549/503/471 589/502/470
f 589/502/470 549/503/471 439/504/472 550/505/473
f 546/498/466 589/502/470 550/505/473 442/499/467
f 442/499/467 550/505/473 590/506/474 553/507/475
f 550/505/473 439/504/472 551/508/476 590/506/474
f 590/506/474 551/508/476 426/509/477 552/510/478
f 553/507/475 590/506/474 552/510/478 428/511/479
f 429/501/469 547/500/468 591/512/480 555/513/481
f 547/500/468 442/499/467 553/507/475 591/512/480
f 591/512/480 553/507/475 428/511/479 554/514/482
f 555/513/481 591/512/480 554/514/482 425/515/483
f 423/469/437 545/495/463 592/516/484 549/503/471
f 545/495/463 438/493/461 556/517/485 592/516/484
f 592/516/484 556/517/485 443/518/486 557/519/487
f 549/503/471 592/516/484 557/519/487 439/504/472
f 438/493/461 543/492/460 593/520/488 556/517/485
f 543/492/460 424/491/459 558/521/489 593/520/488
f 593/520/488 558/521/489 430/522/490 559/523/491
f 556/517/485 593/520/488 559/523/491 443/518/486
f 443/518/486 559/523/491 594/524/492 562/525/493
f 559/523/491 430/522/490 560/526/494 594/524/492
f 594/524/492 560/526/494 427/527/495 561/528/496
f 562/525/493 594/524/492 561/528/496 431/529/497
f 439/504/472 557/519/487 595/530/498 551/508/476
f 557/519/487 443/518/486 562/525/493 595/530/498
f 595/530/498 562/525/493 431/529/497 563/531/499
f 551/508/476 595/530/498 563/531/499 426/509/477
f 432/455/423 524/452/420 596/532/500 566/533/501
f 524/452/420 419/451/419 564/675/502 596/532/500
f 596/532/500 564/675/502 444/671/503 565/536/504
f 566/533/501 596/532/500 565/536/504 445/537/505
f 420/462/430 528/460/428 597/538/506 568/539/507
f 528/460/428 432/455/423 566/533/501 597/538/506
f 597/538/506 566/533/501 445/537/505 567/540/508
f 568/539/507 597/538/506 567/540/508 446/541/509
f 419/451/419 527/454/422 598/542/510 564/534/502
f 527/454/422 435/459/427 569/543/511 598/542/510
f 598/542/510 569/543/511 447/544/512 570/545/513
f 564/534/502 598/542/510 570/545/513 444/535/503
f 435/459/427 535/473/441 599/546/514 569/543/511
f 535/473/441 422/475/443 571/547/515 599/546/514
f 599/546/514 571/547/515 448/548/516 572/549/517
f 569/543/511 599/546/514 572/549/517 447/544/512
f 436/478/446 536/476/444 600/550/518 574/551/519
f 536/476/444 420/462/430 568/539/507 600/550/518
f 600/550/518 568/539/507 446/541/509 573/552/520
f 574/551/519 600/550/518 573/552/520 449/553/521
f 421/484/452 539/482/450 601/554/522 576/674/523
f 539/482/450 436/478/446 574/551/519 601/554/522
f 601/554/522 574/551/519 449/553/521 575/556/524
f 576/674/523 601/554/522 575/556/524 450/557/525
f 437/486/454 540/485/453 602/558/526 578/559/527
f 540/485/453 421/484/452 576/555/523 602/558/526
f 602/558/526 576/555/523 450/668/525 577/560/528
f 578/559/527 602/558/526 577/560/528 451/561/529
f 424/491/459 542/490/458 603/562/530 476/563/531
f 542/490/458 437/486/454 578/559/527 603/562/530
f 603/562/530 578/559/527 451/561/529 579/564/532
f 476/563/531 603/562/530 579/564/532 452/565/533
f 422/475/443 548/497/465 604/566/534 571/547/515
f 548/497/465 429/501/469 477/567/535 604/566/534
f 604/566/534 477/567/535 453/568/536 478/569/537
f 571/547/515 604/566/534 478/569/537 448/548/516
f 429/501/469 555/513/481 605/570/538 477/567/535
f 555/513/481 425/515/483 479/673/539 605/570/538
f 605/570/538 479/673/539 454/665/540 480/573/541
f 477/567/535 605/570/538 480/573/541 453/568/536
f 430/522/490 558/521/489 606/574/542 482/575/543
f 558/521/489 424/491/459 476/563/531 606/574/542
f 606/574/542 476/563/531 452/565/533 481/576/544
f 482/575/543 606/574/542 481/576/544 455/577/545
f 427/527/495 560/526/494 607/578/546 484/672/547
f 560/526/494 430/522/490 482/575/543 607/578/546
f 607/578/546 482/575/543 455/577/545 483/580/548
f 484/672/547 607/578/546 483/580/548 456/581/549
f 425/515/483 554/514/482 608/582/550 479/571/539
f 554/514/482 428/511/479 485/583/551 608/582/550
f 608/582/550 485/583/551 457/584/552 486/585/553
f 479/571/539 608/582/550 486/585/553 454/572/540
f 428/511/479 552/510/478 609/586/554 485/583/551
f 552/510/478 426/509/477 487/587/555 609/586/554
f 609/586/554 487/587/555 458/588/556 488/589/557
f 485/583/551 609/586/554 488/589/557 457/584/552
f 426/509/477 563/531/499 610/590/558 487/587/555
f 563/531/499 431/529/497 489/591/559 610/590/558
f 610/590/558 489/591/559 459/592/560 490/593/561
f 487/587/555 610/590/558 490/593/561 458/588/556
f 431/529/497 561/528/496 611/594/562 489/591/559
f 561/528/496 427/527/495 484/579/547 611/594/562
f 611/594/562 484/579/547 456/662/549 491/595/563
f 489/591/559 611/594/562 491/595/563 459/592/560
f 445/537/505 565/536/504 612/596/564 494/597/565
f 565/536/504 444/671/503 492/669/566 612/596/564
f 612/596/564 492/669/566 460/670/567 493/600/568
f 494/597/565 612/596/564 493/600/568 461/601/569
f 446/541/509 567/540/508 613/602/570 496/603/571
f 567/540/508 445/537/505 494/597/565 613/602/570
f 613/602/570 494/597/565 461/601/569 495/604/572
f 496/603/571 613/602/570 495/604/572 462/605/573
f 444/535/503 570/545/513 614/606/574 492/598/566
f 570/545/513 447/544/512 497/607/575 614/606/574
f 614/606/574 497/607/575 463/608/576 498/609/577
f 492/598/566 614/606/574 498/609/577 460/599/567
f 447/544/512 572/549/517 615/610/578 497/607/575
f 572/549/517 448/548/516 499/611/579 615/610/578
f 615/610/578 499/611/579 464/612/580 500/613/581
f 497/607/575 615/610/578 500/613/581 463/608/576
f 449/553/521 573/552/520 616/614/582 502/615/583
f 573/552/520 446/541/509 496/603/571 616/614/582
f 616/614/582 496/603/571 462/605/573 501/616/584
f 502/615/583 616/614/582 501/616/584 465/617/585
f 450/557/525 575/556/524 617/618/586 504/666/587
f 575/556/524 449/553/521 502/615/583 617/618/586
f 617/618/586 502/615/583 465/617/585 503/620/588
f 504/666/587 617/618/586 503/620/588 466/621/589
f 451/561/529 577/560/528 618/622/590 506/623/591
f 577/560/528 450/668/525 504/619/587 618/622/590
f 618/622/590 504/619/587 466/667/589 505/624/592
f 506/623/591 618/622/590 505/624/592 467/625/593
f 452/565/533 579/564/532 619/626/594 508/627/595
f 579/564/532 451/561/529 506/623/591 619/626/594
f 619/626/594 506/623/591 467/625/593 507/628/596
f 508/627/595 619/626/594 507/628/596 468/629/597
f 448/548/516 478/569/537 620/630/598 499/611/579
f 478/569/537 453/568/536 509/631/599 620/630/598
f 620/630/598 509/631/599 469/632/600 510/633/601
f 499/611/579 620/630/598 510/633/601 464/612/580
f 453/568/536 480/573/541 621/634/602 509/631/599
f 480/573/541 454/665/540 511/663/603 621/634/602
f 621/634/602 511/663/603 470/664/604 512/637/605
f 509/631/599 621/634/602 512/637/605 469/632/600
f 455/577/545 481/576/544 622/638/606 514/639/607
f 481/576/544 452/565/533 508/627/595 622/638/606
f 622/638/606 508/627/595 468/629/597 513/640/608
f 514/639/607 622/638/606 513/640/608 471/641/609
f 456/581/549 483/580/548 623/642/610 516/660/611
f 483/580/548 455/577/545 514/639/607 623/642/610
f 623/642/610 514/639/607 471/641/609 515/644/612
f 516/660/611 623/642/610 515/644/612 472/645/613
f 454/572/540 486/585/553 624/646/614 511/635/603
f 486/585/553 457/584/552 517/647/615 624/646/614
f 624/646/614 517/647/615 473/648/616 518/649/617
f 511/635/603 624/646/614 518/649/617 470/636/604
f 457/584/552 488/589/557 625/650/618 517/647/615
f 488/589/557 458/588/556 519/651/619 625/650/618
f 625/650/618 519/651/619 474/652/620 520/653/621
f 517/647/615 625/650/618 520/653/621 473/648/616
f 458/588/556 490/593/561 626/654/622 519/651/619
f 490/593/561 459/592/560 521/655/623 626/654/622
f 626/654/622 521/655/623 475/656/624 522/657/625
f 519/651/619 626/654/622 522/657/625 474/652/620
f 459/592/560 491/595/563 627/658/626 521/655/623
f 491/595/563 456/662/549 516/643/611 627/658/626
f 627/658/626 516/643/611 472/661/613 523/659/627
f 521/655/623 627/658/626 523/659/627 475/656/624
