# This file uses centimeters as units for non-parametric coordinates.

mtllib Lava.mtl
g default
v -3.164798 19.121460 2.808464
v -2.888454 19.962498 2.604241
v -3.363590 19.849476 0.737744
v -3.903003 18.845005 1.311550
v -2.945797 18.437252 -2.369159
v -3.499851 18.628334 -1.588955
v -3.084247 19.950768 -0.965580
v -2.210186 20.124969 -2.126217
v -0.000377 20.079758 -3.145706
v 1.098828 20.143463 -2.823146
v 0.979473 18.938021 -3.208347
v 0.237561 18.778116 -3.487564
v 0.389416 17.114828 -4.119873
v 1.192814 17.214485 -4.075401
v 0.599713 16.026890 -4.603420
v 1.468708 16.086998 -4.506492
v 0.886998 14.797480 -5.084713
v 1.579632 14.782995 -4.922775
v -0.000324 20.990261 -2.462639
v 1.086460 21.032612 -2.087955
v -2.695873 20.700993 -0.670757
v -1.933048 20.828968 -1.719738
v -0.985233 20.934460 -2.354301
v -1.088535 20.427059 -2.665157
v 2.263653 20.300056 -2.163402
v 3.285572 20.614498 -1.177883
v 3.228161 19.063049 -2.550934
v 3.992573 19.265284 -1.918972
v 3.584378 19.970638 -1.472782
v 2.834011 19.737305 -2.292125
v 2.884716 21.188835 -0.606727
v 1.817852 21.091381 -1.623851
v -2.792408 20.494152 0.749092
v -2.380420 20.825603 2.018162
v -1.628940 20.408241 2.977875
v -1.455410 20.954975 2.670472
v 0.184323 20.565880 3.470955
v -1.069027 20.466919 3.398407
v -0.920536 20.953129 2.874375
v 0.301335 21.145992 3.028740
v 0.198239 19.704178 4.077248
v -0.895725 19.566795 3.894341
v 0.208638 18.659779 4.391102
v -0.765110 18.613712 4.327927
v 0.318783 17.716187 4.833107
v -0.669513 17.673079 4.732682
v 0.391720 16.767307 5.367817
v -0.601703 16.731972 5.269596
v 1.749653 20.598747 3.238327
v 1.418301 21.226398 2.902130
v 2.915608 20.230782 2.734093
v 2.448475 20.908054 2.322506
v 2.923184 18.519524 3.872601
v 2.299321 18.504086 4.295407
v 3.090336 17.351255 4.508240
v 2.296406 17.351913 5.052025
v 2.984295 19.429897 3.448952
v 2.214627 19.580883 3.803757
v 4.107174 20.243866 0.385159
v 3.633694 20.342621 2.049084
v 4.480244 18.123869 2.337529
v 5.000256 18.208961 1.240792
v 4.062031 19.687004 2.110863
v 4.517605 19.716797 0.727082
v 3.031941 21.011250 1.604866
v 3.335568 21.140808 0.244164
v 0.778752 21.270557 -1.255100
v 1.341358 21.232841 -0.944809
v 2.267697 21.421383 -0.184044
v -1.424267 20.986912 -1.241119
v -0.851474 21.126148 -1.826458
v -0.129429 21.220776 -1.658283
v -2.330402 20.739307 0.682610
v -2.030338 20.947594 -0.308246
v -1.808109 20.977940 1.428406
v -1.043361 21.111942 2.000084
v -0.558147 21.121723 2.195919
v 0.478298 21.304153 2.434498
v 1.181599 21.362160 2.488560
v 1.775593 21.213078 1.851559
v 2.652256 21.437817 0.283608
v 2.223606 21.287666 1.180416
v -0.669689 20.513176 -0.817527
v 0.329846 20.036903 -0.401001
v 0.952427 20.146774 -0.006740
v 1.716114 20.831577 0.713864
v -0.464138 20.132061 0.976654
v -1.267009 20.505371 0.302811
v 0.128498 20.187855 1.323277
v 1.087338 20.845264 1.607224
v -3.116153 19.885265 -0.266937
v -2.768520 20.553814 0.013478
v -2.188205 20.822212 0.235096
v -1.469562 20.737900 0.865963
v -0.703083 20.672939 1.446007
v -0.250995 20.598579 1.834626
v 0.753559 21.113472 1.957566
v 1.517620 21.287868 2.189576
v 2.059628 21.043404 2.592152
v 2.490025 20.519882 3.024674
v 2.673527 19.615398 3.758972
v 2.714642 18.534645 4.213246
v 2.881474 17.246395 4.944714
v 3.238453 20.208870 2.307885
v 2.745640 20.911091 1.996334
v 2.014317 21.207256 1.543816
v 1.436665 20.707371 1.201596
v 0.570904 19.870995 0.730179
v -0.105137 19.714790 0.316433
v -1.026661 20.369343 -0.288387
v -1.766109 20.972553 -0.831535
v -2.367588 20.797398 -1.290161
v -2.692280 20.097343 -1.646324
v -3.297260 18.571636 -2.078190
v 1.308331 14.773160 -5.183880
v 1.098950 16.092506 -4.676105
v 0.845639 17.202282 -4.217216
v 0.678158 18.905643 -3.578819
v 0.629940 20.138748 -3.081257
v 0.537114 21.001842 -2.349468
v 0.289746 21.254356 -1.489303
v -0.240429 20.238941 -0.659370
v -0.658741 20.009502 -0.042762
v -0.935955 20.271065 0.623658
v -1.140491 20.696499 1.167092
v -1.465862 21.072079 1.733166
v -1.937679 20.922199 2.395935
v -2.152179 20.182304 2.784874
v 3.805531 19.283802 -2.296596
v 3.353619 19.983799 -1.999309
v 2.870007 20.595345 -1.673938
v 2.404255 21.154064 -1.162079
v 1.846333 21.317829 -0.580597
v 1.423260 20.454006 0.403221
v 1.088803 20.286655 1.027260
v 0.663029 20.507446 1.507233
v 0.279705 20.901871 1.848328
v -0.040668 21.184288 2.332657
v -0.284710 21.035023 2.987633
v -0.426746 20.554745 3.583546
v -0.393017 19.703732 4.165161
v -0.304401 18.698719 4.499565
v -0.215229 17.754763 4.899220
v -0.124248 16.876472 5.375061
v -1.603069 20.301662 -2.435283
v -1.439182 20.889473 -2.090728
v -1.077602 21.058422 -1.545948
v -0.347553 20.868141 -1.188369
v 0.069615 20.759899 -1.032806
v 0.578816 20.683064 -0.804023
v 1.116459 20.714787 -0.465267
v 1.560513 20.901089 -0.071190
v 1.888760 21.159996 0.264035
v 2.470837 21.410164 0.721379
v 3.299473 21.143745 0.972000
v 4.126606 20.508327 1.213394
v 4.600399 19.863190 1.446343
v 5.030308 18.322464 1.803532
v -0.494083 20.436050 -2.876808
v -0.476581 20.991325 -2.440429
v -0.528660 21.180439 -1.778679
v -0.717167 20.973179 -1.336326
v -1.021000 20.765915 -0.976200
v -1.331539 20.699417 -0.520477
v -1.567554 20.751621 0.005387
v -1.733463 20.770428 0.552903
v -2.083675 20.841675 1.050141
v -2.692997 20.661114 1.426491
v -3.292377 20.061234 1.881577
v -3.669986 19.110521 2.297676
v 2.953076 19.080479 2.981255
v 2.956402 18.500454 3.440663
v 2.973851 17.367798 3.935551
v 2.947537 19.702835 2.525429
v 3.050618 19.788357 2.182621
v 3.368214 19.636795 2.050610
v 3.606594 19.204865 1.961319
v 3.992848 17.973804 2.178315
v 4.646046 16.650406 1.774762
v 4.359730 17.965927 1.070401
v 4.121815 19.460979 0.539063
v 3.958493 19.803383 0.331505
v 3.818104 18.568129 2.019883
v 4.273022 18.877735 2.223137
v 4.873486 19.090675 1.648381
v 4.769574 18.951618 0.990872
v 4.206753 18.709711 0.882630
v 3.482128 19.844246 -0.931225
v 0.972126 20.614143 3.347302
v 0.933331 21.261299 2.990162
v 0.946560 21.367828 2.492131
v 1.166790 21.258446 2.061680
v 1.439068 21.090839 1.713593
v 1.713284 21.031803 1.355645
v 1.945240 21.138565 0.950867
v 2.177975 21.349182 0.523712
v 2.526165 21.440086 0.096726
v 3.123677 21.184418 -0.184112
v 3.631474 20.411781 -0.338688
v 3.606823 20.073067 -0.286270
v 3.577244 19.601116 -1.217098
v 3.846127 19.031055 -1.474079
v 3.977192 17.888968 -2.216922
v 2.629856 19.510746 -2.169033
v 2.970356 18.942825 -2.388332
v 2.180020 19.847454 -2.223770
v 1.342190 19.630550 -2.635029
v 1.055554 18.854191 -3.019859
v 1.403759 17.141953 -3.414779
v 1.634381 15.885809 -3.777809
v 1.711224 14.686075 -4.455276
v 1.216832 13.544809 -5.246662
v 0.721257 14.730984 -4.793907
v 0.437146 15.985179 -4.119724
v 0.215771 16.953964 -3.788799
v 0.078488 18.704782 -3.245605
v -0.143673 19.647118 -2.923298
v -0.429638 19.996418 -2.838939
v -1.045742 20.020309 -2.682563
v -1.498333 19.824837 -2.454948
v -1.875560 19.456844 -2.243263
v -2.211582 18.231358 -2.026214
v -2.952923 16.759743 -1.891666
v -3.096576 18.313969 -1.065536
v -2.970722 19.318926 -0.601474
v -2.985172 19.421074 -0.200370
v -3.183872 19.244175 0.475952
v -3.348148 18.573101 0.881737
v -3.166248 16.834949 2.186669
v -2.388157 18.929102 2.639031
v -2.276973 19.327023 2.466778
v -1.933857 19.933163 2.640534
v -1.508030 20.091404 2.833153
v -1.175052 19.881561 3.137085
v -0.741802 18.381601 3.556572
v -0.949283 19.401970 3.415642
v -0.640178 17.502804 3.853230
v -0.653515 16.209038 4.698449
v 0.149739 15.462769 5.321724
v 0.788052 16.328114 4.971962
v 0.580525 17.436131 4.103119
v 0.425434 18.381073 3.787514
v 0.380108 19.396982 3.515694
v 0.371807 20.294334 3.312325
v 0.917355 20.531479 3.270977
v 1.642498 20.407986 3.228783
v 0.345181 19.768322 3.411438
v 0.204670 20.088791 3.843865
v -0.416530 20.090897 3.964794
v -0.999279 19.953632 3.715828
v -1.006473 19.601788 3.275612
v 0.406033 18.925289 3.644089
v 0.203663 19.219839 4.224312
v -0.353016 19.239136 4.329514
v -0.850429 19.137188 4.118416
v -0.805980 18.933338 3.470574
v 0.502766 17.974907 3.927990
v 0.236691 18.240776 4.562653
v -0.262821 18.279755 4.648125
v -0.698391 18.201679 4.485478
v -0.684848 18.002066 3.683773
v 0.717312 16.840624 4.591332
v 0.362500 17.199905 5.131237
v -0.166500 17.278273 5.168564
v -0.643352 17.161516 5.034771
v -0.727977 16.798759 4.327027
v -0.562656 15.935261 4.896660
v -0.538189 16.427309 5.442623
v -0.068294 16.493868 5.545384
v 0.378437 16.424149 5.522934
v 0.682354 15.956061 5.187043
v 1.938908 19.381710 3.565674
v 2.850926 19.405716 2.702259
v 2.948902 19.849628 3.126198
v 2.601864 20.089897 3.438134
v 2.080960 20.100842 3.545632
v 1.832508 19.988110 3.364510
v 2.010258 18.254959 3.803177
v 1.900692 17.403313 4.373402
v 2.869343 17.884836 3.689938
v 2.943585 17.907417 4.147171
v 2.752018 17.923828 4.521885
v 2.306233 17.946899 4.571244
v 1.976528 17.794622 4.096051
v 1.939076 18.982599 3.663590
v 2.262104 19.090277 4.049004
v 2.708325 19.112120 3.995789
v 2.977642 19.037909 3.668885
v 2.975209 18.876862 3.150444
v 2.615017 16.035881 4.655678
v -3.744373 17.175135 2.133793
v -3.941822 17.370724 1.978630
v -4.009075 17.546795 1.874089
v -3.838413 17.665071 2.538941
v -3.808902 17.461527 2.536557
v -3.686855 17.194733 2.514584
v -3.346904 17.321598 -2.241493
v -3.292560 17.490791 -2.358822
v -3.242389 17.691568 -2.427467
v -3.588848 17.650944 -2.170429
v -3.595096 17.446888 -2.167473
v -3.498218 17.271095 -2.126457
v 1.398114 13.623787 -5.220001
v 1.532658 13.807893 -5.216873
v 1.580471 14.012416 -5.171020
v 1.299214 14.001303 -5.452274
v 1.283581 13.798936 -5.459957
v 1.246678 13.631861 -5.352768
v 4.187298 18.240110 -2.138031
v 4.257260 18.528814 -2.169349
v 4.208340 18.742565 -2.125129
v 4.034611 18.630434 -2.464439
v 4.104733 18.434933 -2.475582
v 4.129887 18.247684 -2.415008
v -0.218578 15.887691 5.537293
v -0.405018 16.139774 5.517922
v -0.512912 16.340893 5.479771
v 0.022686 15.923584 5.582444
v -0.004749 16.113636 5.640156
v -0.041446 16.312454 5.612221
v 2.430828 16.148760 5.027127
v 2.316136 16.508450 5.163197
v 2.297100 16.735352 5.181233
v 2.935314 16.381622 5.197266
v 2.904003 16.165535 5.176224
v 2.809887 16.059687 5.017823
v 4.666310 16.920841 2.001641
v 4.696148 17.018152 2.204968
v 4.675572 17.209503 2.293782
v 5.106488 17.300282 1.933480
v 5.073620 17.094519 1.936783
v 4.953503 16.923700 1.895493
v 3.268734 16.525263 4.819405
v 3.185925 16.308138 4.846848
v 2.852566 16.076042 4.765564
v -3.743839 17.591034 -1.707225
v -3.701404 17.388733 -1.785637
v -3.586063 17.237999 -2.014602
v 0.869526 14.101456 -5.386299
v 0.919239 13.888635 -5.402630
v 1.054486 13.643789 -5.286838
v 3.556149 18.571671 -2.676460
v 3.671452 18.387178 -2.663788
v 3.782528 18.212027 -2.543144
v 0.370175 16.310902 5.551159
v 0.297657 16.103191 5.576191
v 0.174054 15.925753 5.546494
v 5.142002 17.355537 1.507969
v 5.100201 17.150505 1.599362
v 4.923786 16.991276 1.721947
v -3.431369 17.722357 2.883374
v -3.456623 17.521549 2.810952
v -3.446880 17.286430 2.657265
v 2.963559 16.594387 4.178894
v 2.927754 16.393005 4.271492
v 2.777050 16.097342 4.402085
v 4.506871 16.761509 2.035557
v 4.412075 16.877903 2.171559
v 4.328106 17.054955 2.216339
v 4.622288 17.085724 1.326809
v 4.661000 16.913795 1.414944
v 4.664601 16.782066 1.561348
v 4.114209 18.210423 -1.786560
v 4.083538 18.372204 -1.630905
v 4.036244 18.556110 -1.553730
v 3.323254 18.233366 -2.547886
v 3.448506 18.064838 -2.546467
v 3.604962 17.973019 -2.461960
v 1.391705 13.585163 -5.139770
v 1.537106 13.668900 -5.026996
v 1.605297 13.821746 -4.920013
v 0.798474 13.982154 -5.205135
v 0.865231 13.806627 -5.275440
v 1.011204 13.613100 -5.281105
v -2.645679 17.084352 -2.050190
v -2.528782 17.241875 -2.098243
v -2.451008 17.422743 -2.102817
v -3.067096 17.146313 -1.390239
v -3.050052 16.962589 -1.488166
v -3.012729 16.849579 -1.649624
v -3.405468 16.961735 1.846375
v -3.487400 17.171227 1.646054
v -3.501758 17.333143 1.525589
v -2.697712 17.526083 2.557850
v -2.764835 17.342518 2.517723
v -2.872532 17.093433 2.470131
v -0.241001 15.532724 5.219986
v -0.395763 15.693247 5.063298
v -0.505176 15.829013 4.965393
v 0.575421 15.766937 5.221409
v 0.446774 15.600388 5.259178
v 0.342144 15.499106 5.299229
v 2.379551 16.109066 4.818894
v 2.164181 16.392242 4.856026
v 2.082867 16.573204 4.804779
vt 0.038177 0.691898
vt 0.000000 0.584142
vt 0.029300 0.545017
vt 0.050307 0.631074
vt 0.246975 0.902864
vt 0.230967 0.798352
vt 0.189612 0.776999
vt 0.181782 0.853986
vt 0.676633 0.920297
vt 0.698206 0.834639
vt 0.682951 0.858602
vt 0.639513 0.942611
vt 0.749901 0.740368
vt 0.778735 0.727674
vt 0.808558 0.665121
vt 0.838675 0.648861
vt 0.866829 0.576191
vt 0.883501 0.557327
vt 0.587320 0.979965
vt 0.632284 0.958534
vt 0.252638 0.941228
vt 0.195220 0.899581
vt 0.444747 0.970427
vt 0.385620 0.952802
vt 0.378131 0.984091
vt 0.434110 0.997269
vt 0.513132 0.974949
vt 0.488217 1.000000
vt 0.537452 0.993962
vt 0.579412 0.950648
vt 0.879045 0.783558
vt 0.875764 0.820681
vt 0.804684 0.864960
vt 0.827470 0.829802
vt 0.948003 0.739658
vt 0.943222 0.767409
vt 0.728251 0.892927
vt 0.755018 0.854466
vt 0.687520 0.924456
vt 0.766475 0.876835
vt 0.111252 0.740098
vt 0.107577 0.766577
vt 0.150510 0.805741
vt 0.161766 0.845104
vt 0.176188 0.696548
vt 0.138808 0.718432
vt 0.113912 0.628365
vt 0.155276 0.628839
vt 0.278032 0.080936
vt 0.325964 0.068783
vt 0.327778 0.109461
vt 0.272630 0.127303
vt 0.339453 0.663689
vt 0.282348 0.665284
vt 0.250998 0.584750
vt 0.318929 0.583110
vt 0.222797 0.674959
vt 0.194012 0.598676
vt 0.313780 0.514510
vt 0.244262 0.517026
vt 0.245205 0.467893
vt 0.310107 0.463977
vt 0.313076 0.409709
vt 0.250777 0.413779
vt 0.258342 0.352385
vt 0.316499 0.347442
vt 0.319595 0.297620
vt 0.263881 0.303818
vt 0.267603 0.239036
vt 0.325960 0.231068
vt 0.327064 0.164293
vt 0.269799 0.177637
vt 0.405070 0.582792
vt 0.404773 0.666822
vt 0.596012 0.651704
vt 0.542251 0.653530
vt 0.577879 0.570066
vt 0.638713 0.554787
vt 0.583793 0.373689
vt 0.626275 0.383537
vt 0.629610 0.433693
vt 0.581650 0.435965
vt 0.621493 0.249846
vt 0.586195 0.230194
vt 0.593345 0.139147
vt 0.630922 0.173597
vt 0.632328 0.493797
vt 0.579589 0.501747
vt 0.821280 0.657618
vt 0.870761 0.575376
vt 0.892643 0.608531
vt 0.855992 0.685347
vt 0.902376 0.486905
vt 0.919385 0.517434
vt 0.768372 0.790064
vt 0.735437 0.745391
vt 0.689879 0.574677
vt 0.640171 0.667881
vt 0.762891 0.824129
vt 0.833000 0.753604
vt 0.563555 0.934755
vt 0.609254 0.903480
vt 0.670870 0.859797
vt 0.645078 0.881171
vt 0.389610 0.961284
vt 0.422938 0.981170
vt 0.523330 0.955097
vt 0.487989 0.968705
vt 0.452906 0.978388
vt 0.206651 0.847445
vt 0.243285 0.890090
vt 0.291566 0.920352
vt 0.244348 0.746850
vt 0.212856 0.766515
vt 0.192319 0.782119
vt 0.182587 0.797232
vt 0.380043 0.713339
vt 0.332632 0.716783
vt 0.285982 0.727762
vt 0.425155 0.708200
vt 0.498446 0.710667
vt 0.540437 0.720843
vt 0.685955 0.840082
vt 0.691500 0.826264
vt 0.655469 0.799230
vt 0.577932 0.735863
vt 0.490470 0.884417
vt 0.534414 0.855323
vt 0.575172 0.829051
vt 0.601783 0.815135
vt 0.617842 0.813414
vt 0.328043 0.752535
vt 0.276920 0.761573
vt 0.310552 0.735075
vt 0.364058 0.710268
vt 0.342108 0.696637
vt 0.409495 0.684441
vt 0.451421 0.694171
vt 0.390983 0.715682
vt 0.431788 0.721102
vt 0.485372 0.712694
vt 0.634148 0.810454
vt 0.419130 0.935015
vt 0.452486 0.910479
vt 0.467819 0.721571
vt 0.513261 0.723415
vt 0.303471 0.799363
vt 0.280852 0.845335
vt 0.240663 0.815895
vt 0.255098 0.789330
vt 0.327679 0.869113
vt 0.354852 0.819420
vt 0.484563 0.685125
vt 0.435045 0.707054
vt 0.388376 0.765189
vt 0.540397 0.719706
vt 0.518648 0.696936
vt 0.557331 0.736007
vt 0.083712 0.744456
vt 0.129339 0.794592
vt 0.174777 0.814312
vt 0.449836 0.704130
vt 0.459547 0.661337
vt 0.490709 0.575752
vt 0.532706 0.437361
vt 0.520803 0.504323
vt 0.535680 0.375530
vt 0.526847 0.151341
vt 0.537728 0.236409
vt 0.739252 0.597209
vt 0.684214 0.697416
vt 0.613166 0.762906
vt 0.587081 0.757382
vt 0.596114 0.767694
vt 0.575683 0.746146
vt 0.549040 0.750462
vt 0.503266 0.774394
vt 0.452339 0.817897
vt 0.376953 0.898397
vt 0.410496 0.859725
vt 0.313902 0.963564
vt 0.343047 0.941397
vt 0.314832 0.927073
vt 0.280238 0.798336
vt 0.757605 0.662519
vt 0.821614 0.578762
vt 0.702251 0.733618
vt 0.637225 0.848191
vt 0.897580 0.771644
vt 0.837857 0.823865
vt 0.207283 0.480707
vt 0.197111 0.529599
vt 0.219704 0.363138
vt 0.210276 0.426012
vt 0.229452 0.249818
vt 0.227368 0.314281
vt 0.230751 0.129017
vt 0.228632 0.183592
vt 0.235453 0.089404
vt 0.791271 0.525548
vt 0.820847 0.440449
vt 0.023568 0.625011
vt 0.649639 0.402083
vt 0.650955 0.431983
vt 0.641790 0.214119
vt 0.632709 0.278537
vt 0.646505 0.481413
vt 0.722634 0.535888
vt 0.682102 0.546631
vt 0.658932 0.518576
vt 0.757492 0.497892
vt 0.786652 0.432369
vt 0.869274 0.511085
vt 0.862990 0.603023
vt 0.849292 0.650231
vt 0.807300 0.365296
vt 0.848927 0.360911
vt 0.923602 0.404187
vt 0.944022 0.430069
vt 0.888458 0.429009
vt 0.833432 0.719289
vt 0.849315 0.740062
vt 0.873738 0.733800
vt 0.919300 0.693084
vt 0.866956 0.754705
vt 0.815673 0.798646
vt 0.767146 0.839947
vt 0.701712 0.857864
vt 0.699755 0.814435
vt 0.775454 0.678132
vt 0.830361 0.584654
vt 0.880311 0.518794
vt 0.795454 0.558069
vt 0.723776 0.632293
vt 0.674696 0.701979
vt 0.612940 0.829370
vt 0.563021 0.899564
vt 0.525246 0.931020
vt 0.456506 0.933196
vt 0.405004 0.908347
vt 0.364706 0.867481
vt 0.343055 0.747674
vt 0.213919 0.710368
vt 0.189418 0.771828
vt 0.169387 0.756855
vt 0.124173 0.702067
vt 0.102854 0.618132
vt 0.130617 0.571292
vt 0.119330 0.525654
vt 0.147123 0.610864
vt 0.179742 0.606586
vt 0.204928 0.562548
vt 0.245945 0.447958
vt 0.258803 0.390938
vt 0.221496 0.525157
vt 0.225076 0.496883
vt 0.266071 0.347319
vt 0.272425 0.290474
vt 0.256183 0.198011
vt 0.258747 0.120023
vt 0.264587 0.081298
vt 0.379116 0.043841
vt 0.392417 0.089307
vt 0.392112 0.161111
vt 0.388063 0.248556
vt 0.378062 0.309940
vt 0.368925 0.357220
vt 0.363445 0.416550
vt 0.357908 0.468592
vt 0.352166 0.510137
vt 0.349845 0.564873
vt 0.404008 0.580822
vt 0.483188 0.560287
vt 0.504369 0.509473
vt 0.517239 0.438732
vt 0.519872 0.395692
vt 0.525696 0.258720
vt 0.513022 0.206573
vt 0.641949 0.349279
vt 0.620693 0.323747
vt 0.584979 0.306533
vt 0.539118 0.305219
vt 0.533550 0.318941
vt 0.013488 0.473632
vt 0.019139 0.450143
vt 0.007123 0.421221
vt 0.000181 0.439936
vt 0.036104 0.419676
vt 0.025399 0.396608
vt 0.266008 0.738913
vt 0.261715 0.717458
vt 0.224709 0.706575
vt 0.221880 0.725027
vt 0.254491 0.695994
vt 0.235702 0.686820
vt 0.903430 0.505042
vt 0.903272 0.490779
vt 0.888154 0.508287
vt 0.886604 0.525130
vt 0.892828 0.477072
vt 0.882908 0.487994
vt 0.985114 0.701120
vt 0.994711 0.683586
vt 0.992200 0.696178
vt 0.981983 0.714382
vt 0.990416 0.656495
vt 0.995020 0.675062
vt 0.281204 0.059891
vt 0.287314 0.039695
vt 0.321098 0.037944
vt 0.325926 0.056941
vt 0.295884 0.026058
vt 0.312808 0.026098
vt 0.531817 0.087318
vt 0.538247 0.067815
vt 0.603719 0.026554
vt 0.602610 0.043987
vt 0.561444 0.042618
vt 0.602157 0.029013
vt 0.884123 0.277707
vt 0.892469 0.265817
vt 0.940443 0.283721
vt 0.941011 0.301949
vt 0.898727 0.270535
vt 0.932177 0.272928
vt 0.025563 0.416933
vt 0.188592 0.693967
vt 0.649886 0.076029
vt 0.960321 0.333469
vt 0.840973 0.536372
vt 0.942503 0.729381
vt 0.643206 0.128900
vt 0.853807 0.274354
vt 0.883414 0.256635
vt 0.909342 0.261057
vt 0.917605 0.286147
vt 0.934887 0.290546
vt 0.918016 0.329007
vt 0.948409 0.651635
vt 0.970050 0.633321
vt 0.977027 0.632775
vt 0.947627 0.661168
vt 0.965297 0.685048
vt 0.918849 0.694376
vt 0.899181 0.473101
vt 0.889771 0.469032
vt 0.877287 0.474584
vt 0.857649 0.485651
vt 0.861637 0.487992
vt 0.828994 0.516282
vt 0.336021 0.682970
vt 0.320315 0.652386
vt 0.289003 0.618438
vt 0.271731 0.612680
vt 0.223022 0.678426
vt 0.250650 0.624309
vt 0.083193 0.468107
vt 0.086246 0.413130
vt 0.098335 0.376613
vt 0.111250 0.377316
vt 0.041820 0.392059
vt 0.117254 0.408004
vt 0.347650 0.001516
vt 0.327750 0.000000
vt 0.273767 0.029785
vt 0.290970 0.019257
vt 0.269454 0.066445
vt 0.238029 0.078836
vt 0.370031 0.026529
vt 0.527833 0.100828
vt 0.616453 0.046225
vt 0.597181 0.053712
vt 0.623007 0.073016
vt 0.565276 0.053495
vt 0.082564 0.445782
vt 0.029885 0.403743
vt 0.331178 0.667634
vt 0.199589 0.679864
vt 0.898595 0.467316
vt 0.849387 0.518136
vt 0.958741 0.638911
vt 0.956239 0.710043
vt 0.251054 0.056600
vt 0.278910 0.046230
vt 0.537064 0.079940
vt 0.643708 0.056160
vt 0.866737 0.259935
vt 0.955410 0.309840
vt 0.639002 0.105440
vt 0.259518 0.613543
vt 0.840561 0.504259
vt 0.933792 0.677072
vt 0.358219 0.011388
vt 0.921015 0.307334
vt 0.115537 0.395034
vn -0.803529 0.567826 0.178650
vn -0.881641 0.320787 0.346128
vn -0.233811 0.195745 0.952374
vn -0.491409 0.472559 0.731578
vn -0.712685 0.472071 -0.518873
vn -0.737952 0.381255 -0.556840
vn -0.969345 0.220542 0.108312
vn -0.927499 0.354912 -0.117405
vn 0.468426 0.433541 -0.769818
vn 0.760889 0.265685 -0.591997
vn 0.189353 0.353018 -0.916256
vn 0.243316 0.466513 -0.850390
vn 0.082067 0.388479 -0.917796
vn 0.795603 0.343798 -0.498817
vn 0.102128 0.374694 -0.921506
vn 0.840798 0.295951 -0.453290
vn 0.219527 0.344439 -0.912781
vn 0.860015 0.210726 -0.464724
vn 0.163593 0.796443 -0.582165
vn 0.263955 0.787857 -0.556426
vn -0.553142 0.771062 -0.315432
vn -0.684509 0.722322 -0.098479
vn -0.372350 0.340148 -0.863513
vn -0.496287 0.318445 -0.807646
vn -0.425610 0.765303 -0.482873
vn -0.313784 0.744581 -0.589185
vn -0.189018 0.418194 -0.888474
vn -0.100235 0.787224 -0.608467
vn 0.034634 0.784248 -0.619480
vn -0.178966 0.381669 -0.906808
vn 0.857640 0.505708 -0.093346
vn 0.474036 0.593467 -0.650451
vn 0.412342 0.684678 -0.600991
vn 0.712090 0.612797 -0.342648
vn 0.891070 0.453777 -0.009042
vn 0.500514 0.518882 -0.692999
vn 0.256440 0.866640 -0.427988
vn 0.473604 0.828223 -0.299576
vn 0.241281 0.816458 -0.524576
vn 0.336997 0.519890 -0.784951
vn -0.497233 0.809041 0.313387
vn -0.615925 0.786352 0.047814
vn -0.962612 0.251929 -0.099553
vn -0.718782 0.695234 -0.001563
vn -0.300785 0.839082 0.453288
vn -0.382092 0.810386 0.444163
vn -0.369744 0.245455 0.896126
vn -0.503842 0.296182 0.811430
vn -0.074296 0.387296 0.918957
vn 0.575867 0.240913 0.781241
vn 0.627313 0.384035 0.677492
vn -0.096798 0.439317 0.893102
vn -0.080743 0.806561 0.585611
vn -0.160225 0.877068 0.452858
vn -0.141005 0.674661 0.724534
vn 0.170872 0.563169 0.808483
vn -0.234139 0.866779 0.440310
vn -0.488602 0.504751 0.711684
vn 0.561617 0.459231 0.688254
vn -0.144214 0.523422 0.839781
vn -0.162130 0.379553 0.910853
vn 0.644298 0.317196 0.695893
vn 0.700323 0.229818 0.675819
vn -0.124936 0.311813 0.941894
vn -0.088992 0.310745 0.946318
vn 0.722063 0.260907 0.640744
vn 0.714570 0.359204 0.600301
vn -0.093826 0.390848 0.915661
vn -0.103624 0.462023 0.880793
vn 0.718509 0.417345 0.556388
vn 0.681775 0.443074 0.582124
vn -0.101881 0.476752 0.873114
vn 0.104511 0.367864 0.923988
vn 0.034184 0.733369 0.678970
vn 0.495549 0.808921 0.316351
vn 0.430997 0.816813 0.383482
vn 0.491166 0.681303 0.542754
vn 0.778413 0.473705 0.411918
vn 0.460515 0.357111 0.812649
vn 0.938553 0.125584 0.321476
vn 0.943937 0.232048 0.234811
vn 0.446711 0.472203 0.759917
vn 0.965969 0.205159 0.157526
vn 0.488037 0.503633 0.712863
vn 0.469333 0.391297 0.791589
vn 0.973293 0.212959 0.085731
vn 0.927529 0.292411 0.232778
vn 0.461454 0.589661 0.662843
vn 0.699440 0.692042 0.178499
vn 0.835966 0.473349 0.277672
vn 0.847060 0.236469 -0.475995
vn 0.811316 0.489311 -0.319908
vn 0.876264 0.315654 0.364039
vn 0.792028 0.025476 -0.609953
vn 0.644224 0.746829 -0.164992
vn 0.510041 0.844072 0.165533
vn 0.617730 0.358864 0.699733
vn 0.375354 0.809173 0.452049
vn 0.631517 0.730556 -0.259757
vn 0.851958 0.387042 -0.352655
vn -0.094558 0.981375 0.167216
vn -0.172244 0.977230 0.123908
vn -0.113540 0.989080 -0.093964
vn -0.207547 0.978208 -0.005855
vn -0.152967 0.984423 0.086678
vn -0.193247 0.975333 -0.106687
vn -0.069509 0.988659 0.133124
vn -0.050213 0.996814 0.061966
vn -0.077392 0.996891 -0.014781
vn -0.227640 0.969463 0.091226
vn -0.119352 0.989300 0.083911
vn -0.024835 0.998869 0.040558
vn 0.093122 0.984436 -0.149041
vn -0.005717 0.989619 -0.143601
vn -0.118767 0.982853 -0.141048
vn -0.211736 0.970379 -0.116328
vn -0.188635 0.975183 -0.115907
vn -0.187660 0.954492 -0.231795
vn 0.015183 0.976298 -0.215897
vn -0.093102 0.995322 -0.025803
vn 0.246204 0.968989 -0.021065
vn 0.169854 0.985444 -0.007036
vn 0.062640 0.993164 -0.098498
vn 0.262679 0.964796 0.012958
vn 0.120042 0.974880 0.187614
vn 0.043509 0.986014 0.160886
vn -0.171613 0.669879 0.722365
vn -0.340094 0.645860 0.683520
vn -0.523202 0.659267 0.540024
vn -0.653699 0.682150 0.327643
vn -0.647421 0.747792 0.147154
vn 0.543544 0.805238 -0.236964
vn 0.387102 0.825734 -0.410262
vn 0.377339 0.779735 -0.499628
vn 0.351566 0.840055 -0.413169
vn 0.126650 0.741667 -0.658703
vn 0.016436 0.807886 -0.589109
vn -0.266855 0.675311 -0.687563
vn -0.181091 0.682963 -0.707649
vn -0.179539 0.778133 -0.601893
vn -0.316727 0.677809 -0.663520
vn -0.474655 0.877242 0.071754
vn 0.008335 0.860672 0.509092
vn -0.047385 0.753866 0.655317
vn -0.123765 0.884022 -0.450763
vn -0.262930 0.827246 -0.496519
vn 0.590960 0.806069 -0.031907
vn 0.405753 0.906283 0.118384
vn 0.202351 0.978803 -0.031602
vn 0.354438 0.902578 -0.244390
vn 0.432815 0.861124 0.266713
vn 0.525673 0.801175 0.285984
vn -0.268961 0.940874 -0.205952
vn 0.086480 0.996207 0.009651
vn 0.408472 0.889342 0.205479
vn -0.583806 0.703995 -0.404427
vn -0.502263 0.787553 -0.357060
vn -0.505563 0.810550 -0.295659
vn -0.900878 0.398970 -0.171003
vn -0.690234 0.720369 -0.068159
vn -0.329856 0.943689 -0.025412
vn 0.183451 0.980507 0.070362
vn 0.266691 0.752423 0.602275
vn 0.225386 0.575220 0.786335
vn -0.282729 0.389176 0.876702
vn -0.077552 0.518251 0.851705
vn -0.449999 0.295289 0.842796
vn -0.377375 0.374902 0.846780
vn -0.414967 0.519127 0.747201
vn 0.497380 0.576494 0.648281
vn 0.359368 0.830721 0.425155
vn 0.009883 0.968085 0.250427
vn -0.748208 0.662787 -0.029962
vn -0.608559 0.793207 -0.021881
vn -0.695559 0.711326 0.101057
vn -0.516433 0.800314 0.304621
vn -0.222132 0.834484 0.504275
vn 0.080660 0.775292 0.626432
vn 0.251510 0.847072 0.468201
vn 0.242784 0.759251 0.603816
vn -0.447188 0.782309 -0.433607
vn -0.048326 0.995970 0.075552
vn -0.448783 0.335920 -0.828101
vn -0.137489 0.153517 -0.978534
vn -0.611811 0.187054 -0.768569
vn -0.530041 0.244398 -0.811989
vn -0.600616 0.215166 -0.770042
vn -0.501205 0.230030 -0.834194
vn -0.015195 0.301034 -0.953492
vn 0.109964 0.406384 -0.907061
vn -0.817321 0.101560 0.567162
vn -0.711503 0.249447 0.656917
vn -0.899529 0.028982 0.435898
vn -0.878847 0.054558 0.473975
vn -0.927314 0.170213 0.333342
vn -0.919585 0.069459 0.386704
vn -0.873750 0.118936 0.471610
vn -0.908033 0.181709 0.377436
vn -0.800993 0.081117 0.593153
vn 0.419652 0.331689 0.844911
vn 0.280413 0.232469 0.931304
vn -0.965121 0.136293 -0.223530
vn 0.999732 -0.023061 -0.001974
vn 0.992095 0.024951 -0.122980
vn 0.964400 0.053552 -0.258969
vn 0.995298 0.004130 -0.096772
vn 0.994915 -0.008117 -0.100390
vn 0.075016 -0.137300 0.987685
vn 0.667693 -0.297379 0.682460
vn 0.964192 -0.173953 0.200187
vn -0.267099 -0.024218 0.963365
vn -0.378217 0.042273 0.924751
vn 0.342416 -0.224715 -0.912280
vn 0.459585 -0.223487 -0.859555
vn 0.681533 -0.166195 -0.712665
vn -0.319075 -0.000608 0.947729
vn 0.303657 0.135997 0.943026
vn 0.871604 0.215210 0.440445
vn 0.772747 -0.027860 -0.634103
vn 0.332206 -0.194755 -0.922881
vn 0.902568 -0.047794 -0.427887
vn 0.985167 0.162539 -0.055025
vn 0.904303 0.251368 0.345038
vn 0.884914 0.248287 0.394057
vn -0.504172 -0.019889 -0.863374
vn -0.338332 -0.015999 -0.940891
vn 0.314646 -0.041049 -0.948321
vn 0.631587 0.004617 -0.775291
vn 0.908328 0.197906 -0.368474
vn 0.936657 0.259309 -0.235442
vn 0.954328 0.220210 -0.201905
vn 0.970777 0.130807 -0.201199
vn -0.918816 0.011284 -0.394525
vn -0.919714 -0.034671 -0.391054
vn -0.899529 0.030014 -0.435828
vn -0.860528 0.048000 -0.507137
vn -0.782062 -0.050470 -0.621154
vn -0.449526 -0.142438 -0.881838
vn -0.355249 -0.046117 -0.933634
vn -0.433376 -0.052552 -0.899680
vn 0.060784 -0.055352 -0.996615
vn 0.258451 -0.052960 -0.964572
vn -0.768255 -0.058476 0.637468
vn -0.924033 -0.073222 0.375237
vn -0.955669 -0.226090 -0.188625
vn -0.832439 -0.140260 -0.536072
vn -0.688664 -0.192142 -0.699159
vn 0.203915 0.008202 0.978954
vn 0.304613 0.018308 0.952300
vn -0.071844 -0.392527 0.916930
vn -0.456194 -0.413889 0.787771
vn -0.836269 -0.217441 0.503362
vn -0.987673 -0.155113 0.021015
vn -0.989660 -0.143317 0.005836
vn -0.960399 -0.141287 0.240148
vn -0.977491 -0.181746 0.107145
vn -0.994165 -0.107831 0.002905
vn -0.999915 -0.012892 0.001920
vn -0.997846 0.020919 0.062183
vn -0.984975 -0.076410 0.154873
vn -0.963005 -0.169625 0.209401
vn 0.777486 0.068227 0.625188
vn 0.838753 0.264143 0.476154
vn 0.883129 0.341066 0.322114
vn 0.918147 0.294424 0.265182
vn 0.934540 0.238954 0.263696
vn 0.946651 0.162005 0.278578
vn 0.954576 0.104247 0.279137
vn 0.960587 0.118490 0.251463
vn 0.951283 0.145674 0.271734
vn 0.795178 -0.065157 0.602865
vn 0.165596 -0.441198 0.881999
vn -0.309321 -0.084730 0.947176
vn -0.618658 0.132191 0.774460
vn -0.719577 0.180282 0.670602
vn -0.807667 0.130676 0.574976
vn -0.826762 0.339756 0.448364
vn -0.826313 0.300235 0.476514
vn 0.997933 -0.063626 0.008993
vn 0.963631 0.072550 0.257199
vn 0.512454 0.355001 0.781899
vn -0.506461 0.329806 0.796696
vn -0.850675 0.180577 0.493705
vn -0.975750 -0.057376 -0.211235
vn -0.852067 -0.507807 -0.126938
vn -0.798944 -0.327057 0.504700
vn -0.889496 0.143275 0.433900
vn -0.655929 -0.754812 0.004068
vn -0.465977 -0.743362 0.479873
vn -0.001280 0.041156 -0.999152
vn -0.011115 -0.324728 -0.945742
vn -0.798026 -0.168675 -0.578536
vn -0.812708 0.236856 -0.532358
vn -0.054252 -0.523196 -0.850484
vn -0.406490 -0.673374 -0.617521
vn 0.882679 0.098650 -0.459507
vn 0.807688 -0.229173 -0.543250
vn 0.228661 -0.245262 -0.942104
vn 0.282424 0.258281 -0.923866
vn 0.605136 -0.589563 -0.535002
vn 0.134810 -0.593935 -0.793138
vn 0.937871 0.345307 -0.034080
vn 0.997288 0.071202 -0.018649
vn 0.663041 -0.000890 -0.748582
vn 0.520852 0.371803 -0.768424
vn 0.935020 -0.354386 0.012190
vn 0.705167 -0.444507 -0.552406
vn -0.078367 0.183467 0.979897
vn -0.067553 -0.049455 0.996489
vn 0.477282 -0.169019 0.862342
vn 0.505277 -0.010592 0.862892
vn -0.085968 -0.446314 0.890738
vn 0.309856 -0.369239 0.876158
vn -0.379090 0.169496 0.909704
vn -0.440546 -0.272026 0.855524
vn 0.244770 -0.518222 0.819472
vn 0.440228 0.160844 0.883362
vn -0.419712 -0.694103 0.584862
vn 0.107650 -0.880850 0.460993
vn 0.317503 0.009653 0.948208
vn 0.412196 -0.435363 0.800346
vn 0.786803 -0.419159 0.453042
vn 0.847938 0.090364 0.522337
vn 0.432395 -0.664439 0.609554
vn 0.620559 -0.754284 0.214386
vn -0.165247 0.026530 0.985895
vn -0.886178 0.001841 0.463341
vn 0.979225 0.091994 0.180708
vn 0.801165 -0.087564 -0.592003
vn -0.483954 0.278875 -0.829468
vn 0.009423 0.190063 -0.981727
vn 0.935228 -0.067502 -0.347552
vn -0.213607 -0.113999 0.970245
vn 0.449894 -0.644114 0.618637
vn 0.664724 -0.719974 0.199450
vn 0.662435 -0.662628 -0.349435
vn 0.674367 -0.671964 -0.306093
vn 0.386871 -0.224954 -0.894274
vn 0.903440 0.217810 0.369262
vn 0.949941 -0.266028 0.163835
vn 0.651675 -0.596017 -0.469130
vn 0.303936 -0.518026 -0.799545
vn 0.332992 -0.460172 -0.823018
vn -0.390390 -0.106014 -0.914525
vn 0.978389 -0.009569 -0.206550
vn 0.630336 -0.659849 -0.408993
vn 0.179461 -0.765029 -0.618486
vn -0.382584 -0.526282 -0.759379
vn -0.295045 -0.526411 -0.797396
vn -0.907434 0.106960 -0.406354
vn 0.363828 -0.094779 -0.926632
vn 0.026759 -0.524022 -0.851285
vn -0.281911 -0.725885 -0.627389
vn -0.619618 -0.778777 0.097878
vn -0.687596 -0.725931 0.015340
vn -0.641533 -0.169688 0.748092
vn -0.647572 -0.302665 -0.699317
vn -0.567193 -0.820287 -0.073629
vn -0.288694 -0.855175 0.430502
vn 0.071969 -0.603364 0.794212
vn -0.041853 -0.591210 0.805431
vn 0.297890 -0.097756 0.949582
vn 0.332203 -0.392913 0.857473
vn -0.043759 -0.535239 0.843567
vn -0.479519 -0.478187 0.735798
vn -0.512284 -0.541756 0.666382
vn -0.874598 -0.349008 0.336559
vn -0.726502 -0.109982 0.678306
vn 0.664797 -0.194051 0.721380
vn -0.866064 0.047157 0.497703
vn 0.546153 -0.822381 -0.159396
vn 0.000410 -0.998055 0.062341
vn 0.629913 -0.720831 -0.289159
vn -0.465692 -0.823467 0.324088
vn -0.633282 -0.640379 -0.434591
vn -0.054460 -0.349860 0.935218
vn 0.195469 -0.365922 -0.909886
vn -0.798049 -0.494790 0.343948
vn 0.893684 -0.348216 -0.282975
vn -0.396784 -0.164123 -0.903121
vn 0.953265 0.031472 0.300493
vn 0.175637 -0.114985 -0.977717
vn -0.678662 -0.287315 0.675920
vn -0.803178 -0.417353 0.425114
vn -0.799884 -0.353110 0.485283
vn 0.851751 -0.523126 -0.029315
vn 0.212403 -0.529682 0.821171
vn 0.781308 -0.437417 -0.445224
vn 0.777230 -0.496751 -0.386201
vn -0.636336 -0.637556 0.434281
vn -0.730854 -0.310651 -0.607741
vn 0.004344 -0.346021 -0.938217
vn 0.547821 -0.293112 0.783567
vn 0.574800 -0.541822 -0.613216
vn 0.256659 -0.374533 0.890983
s 1
g polySurface8 group3
usemtl initialShadingGroup
f 169/1/1 170/2/2 1/3/3 2/4/4
f 113/5/5 114/6/6 6/7/7 7/8/8
f 10/9/9 11/10/10 118/11/11 119/12/12
f 117/13/13 118/11/11 11/10/10 14/14/14
f 116/15/15 117/13/13 14/14/14 16/16/16
f 115/17/17 116/15/15 16/16/16 18/18/18
f 119/12/12 120/19/19 20/20/20 10/9/9
f 112/21/21 113/5/5 7/8/8 21/22/22
f 24/23/23 145/24/24 146/25/25 23/26/26
f 159/27/27 160/28/28 19/29/29 9/30/30
f 29/31/31 130/32/32 131/33/33 26/34/34
f 28/35/35 129/36/36 130/32/32 29/31/31
f 131/33/33 132/37/37 31/38/38 26/34/34
f 20/20/20 32/39/39 25/40/40 10/9/9
f 34/41/41 168/42/42 169/1/1 2/4/4
f 7/8/8 91/43/43 92/44/44 21/22/22
f 36/45/45 127/46/46 128/47/47 35/48/48
f 269/49/49 270/50/50 47/51/51 144/52/52
f 40/53/53 139/54/54 140/55/55 37/56/56
f 39/57/57 36/45/45 35/48/48 38/58/58
f 248/59/59 249/60/60 141/61/61 41/62/62
f 253/63/63 254/64/64 142/65/65 43/66/66
f 258/67/67 259/68/68 143/69/69 45/70/70
f 263/71/71 264/72/72 144/52/52 47/51/51
f 37/56/56 189/73/73 190/74/74 40/53/53
f 52/75/75 99/76/76 100/77/77 51/78/78
f 287/79/79 288/80/80 57/81/81 101/82/82
f 281/83/83 282/84/84 103/85/85 55/86/86
f 274/87/87 275/88/88 101/82/82 57/81/81
f 156/89/89 157/90/90 64/91/91 59/92/92
f 64/91/91 157/90/90 185/93/93 186/94/94
f 66/95/95 155/96/96 156/89/89 59/92/92
f 52/75/75 51/78/78 104/97/97 105/98/98
f 31/38/38 198/99/99 199/100/100 26/34/34
f 20/20/20 67/101/101 68/102/102 32/39/39
f 69/103/103 31/38/38 132/37/37 133/104/104
f 23/26/26 146/25/25 147/105/105 71/106/106
f 67/101/101 20/20/20 120/19/19 121/107/107
f 72/108/108 19/29/29 160/28/28 161/109/109
f 21/22/22 92/44/44 93/110/110 74/111/111
f 111/112/112 112/21/21 21/22/22 74/111/111
f 76/113/113 126/114/114 127/46/46 36/45/45
f 75/115/115 167/116/116 168/42/42 34/41/41
f 78/117/117 138/118/118 139/54/54 40/53/53
f 39/57/57 77/119/119 76/113/113 36/45/45
f 190/74/74 191/120/120 78/117/117 40/53/53
f 98/121/121 99/76/76 52/75/75 80/122/122
f 31/38/38 69/103/103 197/123/123 198/99/99
f 66/95/95 81/124/124 154/125/125 155/96/96
f 80/122/122 52/75/75 105/98/98 106/126/126
f 121/107/107 149/127/127 150/128/128 67/101/101
f 67/101/101 150/128/128 151/129/129 68/102/102
f 152/130/130 153/131/131 69/103/103 133/104/104
f 124/132/132 125/133/133 95/134/134 87/135/135
f 87/135/135 95/134/134 96/136/136 89/137/137
f 136/138/138 137/139/139 97/140/140 90/141/141
f 196/142/142 197/123/123 69/103/103 153/131/131
f 72/108/108 161/109/109 162/143/143 148/144/144
f 192/145/145 193/146/146 90/141/141 97/140/140
f 88/147/147 165/148/148 166/149/149 94/150/150
f 164/151/151 165/148/148 88/147/147 110/152/152
f 89/137/137 108/153/153 109/154/154 87/135/135
f 109/154/154 123/155/155 124/132/132 87/135/135
f 107/156/156 135/157/157 136/138/138 90/141/141
f 193/146/146 194/158/158 107/156/156 90/141/141
f 92/44/44 91/43/43 3/159/159 33/160/160
f 93/110/110 92/44/44 33/160/160 73/161/161
f 94/150/150 166/149/149 167/116/116 75/115/115
f 95/134/134 125/133/133 126/114/114 76/113/113
f 96/136/136 95/134/134 76/113/113 77/119/119
f 78/117/117 97/140/140 137/139/139 138/118/118
f 191/120/120 192/145/145 97/140/140 78/117/117
f 79/162/162 50/163/163 99/76/76 98/121/121
f 100/77/77 99/76/76 50/163/163 49/164/164
f 58/165/165 101/82/82 275/88/88 276/166/166
f 286/167/167 287/79/79 101/82/82 58/165/165
f 56/168/168 103/85/85 282/84/84 283/169/169
f 105/98/98 104/97/97 60/170/170 65/171/171
f 106/126/126 105/98/98 65/171/171 82/172/172
f 86/173/173 107/156/156 194/158/158 195/174/174
f 134/175/175 135/157/157 107/156/156 86/173/173
f 109/154/154 108/153/153 85/176/176 84/177/177
f 122/178/178 123/155/155 109/154/154 84/177/177
f 163/179/179 164/151/151 110/152/152 83/180/180
f 22/181/181 112/21/21 111/112/112 70/182/182
f 8/183/183 113/5/5 112/21/21 22/181/181
f 8/183/183 5/184/184 114/6/6 113/5/5
f 15/185/185 116/15/15 115/17/17 17/186/186
f 13/187/187 117/13/13 116/15/15 15/185/185
f 12/188/188 118/11/11 117/13/13 13/187/187
f 119/12/12 118/11/11 12/188/188 9/30/30
f 9/30/30 19/29/29 120/19/19 119/12/12
f 121/107/107 120/19/19 19/29/29 72/108/108
f 72/108/108 148/144/144 149/127/127 121/107/107
f 83/180/180 110/152/152 123/155/155 122/178/178
f 124/132/132 123/155/155 110/152/152 88/147/147
f 88/147/147 94/150/150 125/133/133 124/132/132
f 126/114/114 125/133/133 94/150/150 75/115/115
f 127/46/46 126/114/114 75/115/115 34/41/41
f 128/47/47 127/46/46 34/41/41 2/4/4
f 130/32/32 129/36/36 27/189/189 30/190/190
f 131/33/33 130/32/32 30/190/190 25/40/40
f 32/39/39 132/37/37 131/33/33 25/40/40
f 133/104/104 132/37/37 32/39/39 68/102/102
f 151/129/129 152/130/130 133/104/104 68/102/102
f 85/176/176 108/153/153 135/157/157 134/175/175
f 136/138/138 135/157/157 108/153/153 89/137/137
f 96/136/136 137/139/139 136/138/138 89/137/137
f 138/118/118 137/139/139 96/136/136 77/119/119
f 139/54/54 138/118/118 77/119/119 39/57/57
f 140/55/55 139/54/54 39/57/57 38/58/58
f 42/191/191 141/61/61 249/60/60 250/192/192
f 44/193/193 142/65/65 254/64/64 255/194/194
f 46/195/195 143/69/69 259/68/68 260/196/196
f 48/197/197 144/52/52 264/72/72 265/198/198
f 268/199/199 269/49/49 144/52/52 48/197/197
f 146/25/25 145/24/24 8/183/183 22/181/181
f 147/105/105 146/25/25 22/181/181 70/182/182
f 148/144/144 162/143/143 163/179/179 83/180/180
f 149/127/127 148/144/144 83/180/180 122/178/178
f 150/128/128 149/127/127 122/178/178 84/177/177
f 151/129/129 150/128/128 84/177/177 85/176/176
f 134/175/175 152/130/130 151/129/129 85/176/176
f 86/173/173 153/131/131 152/130/130 134/175/175
f 195/174/174 196/142/142 153/131/131 86/173/173
f 155/96/96 154/125/125 82/172/172 65/171/171
f 156/89/89 155/96/96 65/171/171 60/170/170
f 60/170/170 63/200/200 157/90/90 156/89/89
f 184/201/201 185/93/93 157/90/90 63/200/200
f 23/26/26 160/28/28 159/27/27 24/23/23
f 161/109/109 160/28/28 23/26/26 71/106/106
f 162/143/143 161/109/109 71/106/106 147/105/105
f 163/179/179 162/143/143 147/105/105 70/182/182
f 111/112/112 164/151/151 163/179/179 70/182/182
f 74/111/111 165/148/148 164/151/151 111/112/112
f 166/149/149 165/148/148 74/111/111 93/110/110
f 167/116/116 166/149/149 93/110/110 73/161/161
f 168/42/42 167/116/116 73/161/161 33/160/160
f 169/1/1 168/42/42 33/160/160 3/159/159
f 4/202/202 170/2/2 169/1/1 3/159/159
f 288/80/80 289/203/203 171/204/204 57/81/81
f 173/205/205 280/206/206 281/83/83 55/86/86
f 171/204/204 273/207/207 274/87/87 57/81/81
f 176/208/208 60/170/170 104/97/97 175/209/209
f 174/210/210 175/209/209 104/97/97 51/78/78
f 176/208/208 177/211/211 63/200/200 60/170/170
f 177/211/211 183/212/212 184/201/201 63/200/200
f 186/94/94 187/213/213 181/214/214 64/91/91
f 181/214/214 182/215/215 59/92/92 64/91/91
f 184/201/201 183/212/212 178/216/216 61/217/217
f 158/218/218 185/93/93 184/201/201 61/217/217
f 186/94/94 185/93/93 158/218/218 62/219/219
f 180/220/220 187/213/213 186/94/94 62/219/219
f 199/100/100 200/221/221 188/222/222 26/34/34
f 190/74/74 189/73/73 49/164/164 50/163/163
f 79/162/162 191/120/120 190/74/74 50/163/163
f 98/121/121 192/145/145 191/120/120 79/162/162
f 80/122/122 193/146/146 192/145/145 98/121/121
f 106/126/126 194/158/158 193/146/146 80/122/122
f 195/174/174 194/158/158 106/126/126 82/172/172
f 154/125/125 196/142/142 195/174/174 82/172/172
f 81/124/124 197/123/123 196/142/142 154/125/125
f 198/99/99 197/123/123 81/124/124 66/95/95
f 199/100/100 198/99/99 66/95/95 59/92/92
f 182/215/215 200/221/221 199/100/100 59/92/92
f 26/34/34 188/222/222 201/223/223 29/31/31
f 201/223/223 202/224/224 28/35/35 29/31/31
f 205/225/225 204/226/226 30/190/190 27/189/189
f 204/226/226 206/227/227 25/40/40 30/190/190
f 206/227/227 207/228/228 10/9/9 25/40/40
f 207/228/228 208/229/229 11/10/10 10/9/9
f 208/229/229 209/230/230 14/14/14 11/10/10
f 209/230/230 210/231/231 16/16/16 14/14/14
f 210/231/231 211/232/232 18/18/18 16/16/16
f 15/185/185 17/186/186 213/233/233 214/234/234
f 214/234/234 215/235/235 13/187/187 15/185/185
f 12/188/188 13/187/187 215/235/235 216/236/236
f 9/30/30 12/188/188 216/236/236 217/237/237
f 217/237/237 218/238/238 159/27/27 9/30/30
f 218/238/238 219/239/239 24/23/23 159/27/27
f 145/24/24 24/23/23 219/239/239 220/240/240
f 8/183/183 145/24/24 220/240/240 221/241/241
f 221/241/241 222/242/242 5/184/184 8/183/183
f 224/243/243 225/244/244 7/8/8 6/7/7
f 7/8/8 225/244/244 226/245/245 91/43/43
f 226/245/245 227/246/246 3/159/159 91/43/43
f 227/246/246 228/247/247 4/202/202 3/159/159
f 231/248/248 2/4/4 1/3/3 230/249/249
f 231/248/248 232/250/250 128/47/47 2/4/4
f 232/250/250 233/251/251 35/48/48 128/47/47
f 233/251/251 234/252/252 38/58/58 35/48/48
f 255/194/194 256/253/253 235/254/254 44/193/193
f 250/192/192 251/255/255 236/256/256 42/191/191
f 260/196/196 261/257/257 237/258/258 46/195/195
f 265/198/198 266/259/259 238/260/260 48/197/197
f 238/260/260 267/261/261 268/199/199 48/197/197
f 47/51/51 270/50/50 271/262/262 240/263/263
f 262/264/264 263/71/71 47/51/51 240/263/263
f 241/265/265 257/266/266 258/67/67 45/70/70
f 242/267/267 252/268/268 253/63/63 43/66/66
f 243/269/269 247/270/270 248/59/59 41/62/62
f 244/271/271 245/272/272 189/73/73 37/56/56
f 245/272/272 246/273/273 49/164/164 189/73/73
f 248/59/59 247/270/270 244/271/271 37/56/56
f 140/55/55 249/60/60 248/59/59 37/56/56
f 250/192/192 249/60/60 140/55/55 38/58/58
f 234/252/252 251/255/255 250/192/192 38/58/58
f 253/63/63 252/268/268 243/269/269 41/62/62
f 141/61/61 254/64/64 253/63/63 41/62/62
f 255/194/194 254/64/64 141/61/61 42/191/191
f 236/256/256 256/253/253 255/194/194 42/191/191
f 258/67/67 257/266/266 242/267/267 43/66/66
f 142/65/65 259/68/68 258/67/67 43/66/66
f 260/196/196 259/68/68 142/65/65 44/193/193
f 235/254/254 261/257/257 260/196/196 44/193/193
f 45/70/70 263/71/71 262/264/264 241/265/265
f 143/69/69 264/72/72 263/71/71 45/70/70
f 265/198/198 264/72/72 143/69/69 46/195/195
f 237/258/258 266/259/259 265/198/198 46/195/195
f 276/166/166 277/274/274 272/275/275 58/165/165
f 274/87/87 273/207/207 174/210/210 51/78/78
f 100/77/77 275/88/88 274/87/87 51/78/78
f 276/166/166 275/88/88 100/77/77 49/164/164
f 246/273/273 277/274/274 276/166/166 49/164/164
f 285/276/276 286/167/167 58/165/165 272/275/275
f 283/169/169 284/277/277 279/278/278 56/168/168
f 281/83/83 280/206/206 172/279/279 53/280/280
f 102/281/281 282/84/84 281/83/83 53/280/280
f 283/169/169 282/84/84 102/281/281 54/282/282
f 278/283/283 284/277/277 283/169/169 54/282/282
f 54/282/282 286/167/167 285/276/276 278/283/283
f 102/281/281 287/79/79 286/167/167 54/282/282
f 53/280/280 288/80/80 287/79/79 102/281/281
f 172/279/279 289/203/203 288/80/80 53/280/280
f 293/284/284 292/285/285 295/286/286 294/287/287
f 292/285/285 291/288/288 296/289/289 295/286/286
f 299/290/290 298/291/291 301/292/292 300/293/293
f 298/291/291 297/294/294 302/295/295 301/292/292
f 305/296/296 304/297/297 307/298/298 306/299/299
f 304/297/297 303/300/300 308/301/301 307/298/298
f 311/302/302 310/303/303 313/304/304 312/305/305
f 310/303/303 309/306/306 314/307/307 313/304/304
f 320/308/308 319/309/309 346/310/310 345/311/311
f 319/309/309 318/312/312 347/313/313 346/310/310
f 323/314/314 322/315/315 325/316/316 324/317/317
f 322/315/315 321/318/318 326/319/319 325/316/316
f 329/320/320 328/321/321 331/322/322 330/323/323
f 328/321/321 327/324/324 332/325/325 331/322/322
f 170/2/2 294/287/287 351/326/326 1/3/3
f 114/6/6 300/293/293 336/327/327 6/7/7
f 306/299/299 115/17/17 18/18/18 305/296/296
f 312/305/305 129/36/36 28/35/35 311/302/302
f 333/328/328 55/86/86 103/85/85 324/317/317
f 62/219/219 158/218/218 330/323/323 348/329/329
f 324/317/317 103/85/85 56/168/168 323/314/314
f 5/184/184 299/290/290 300/293/293 114/6/6
f 17/186/186 115/17/17 306/299/299 339/330/330
f 342/331/331 27/189/189 129/36/36 312/305/305
f 330/323/323 158/218/218 61/217/217 329/320/320
f 4/202/202 293/284/284 294/287/287 170/2/2
f 55/86/86 333/328/328 354/332/332 173/205/205
f 329/320/320 61/217/217 178/216/216 359/333/333
f 332/325/325 327/324/324 357/334/334 179/335/335
f 332/325/325 179/335/335 362/336/336 350/337/337
f 62/219/219 348/329/329 360/338/338 180/220/220
f 202/224/224 365/339/339 311/302/302 28/35/35
f 309/306/306 363/340/340 203/341/341 314/307/307
f 203/341/341 368/342/342 344/343/343 314/307/307
f 27/189/189 342/331/331 366/344/344 205/225/225
f 305/296/296 18/18/18 211/232/232 371/345/345
f 303/300/300 369/346/346 212/347/347 308/301/301
f 212/347/347 374/348/348 341/349/349 308/301/301
f 339/330/330 372/350/350 213/233/233 17/186/186
f 222/242/242 377/351/351 299/290/290 5/184/184
f 297/294/294 375/352/352 223/353/353 302/295/295
f 380/354/354 338/355/355 302/295/295 223/353/353
f 6/7/7 336/327/327 378/356/356 224/243/243
f 228/247/247 383/357/357 293/284/284 4/202/202
f 296/289/289 291/288/288 381/358/358 229/359/359
f 386/360/360 353/361/361 296/289/289 229/359/359
f 351/326/326 384/362/362 230/249/249 1/3/3
f 392/363/363 347/313/313 318/312/312 239/364/364
f 315/365/365 387/366/366 239/364/364 318/312/312
f 268/199/199 267/261/261 389/367/367 317/368/368
f 320/308/308 269/49/49 268/199/199 317/368/368
f 345/311/311 270/50/50 269/49/49 320/308/308
f 271/262/262 270/50/50 345/311/311 390/369/369
f 279/278/278 395/370/370 323/314/314 56/168/168
f 335/371/371 326/319/319 290/372/372 356/373/373
f 321/318/318 393/374/374 290/372/372 326/319/319
f 291/288/288 292/285/285 382/375/375 381/358/358
f 292/285/285 293/284/284 383/357/357 382/375/375
f 294/287/287 295/286/286 352/376/376 351/326/326
f 295/286/286 296/289/289 353/361/361 352/376/376
f 297/294/294 298/291/291 376/377/377 375/352/352
f 298/291/291 299/290/290 377/351/351 376/377/377
f 300/293/293 301/292/292 337/378/378 336/327/327
f 301/292/292 302/295/295 338/355/355 337/378/378
f 303/300/300 304/297/297 370/379/379 369/346/346
f 304/297/297 305/296/296 371/345/345 370/379/379
f 306/299/299 307/298/298 340/380/380 339/330/330
f 307/298/298 308/301/301 341/349/349 340/380/380
f 309/306/306 310/303/303 364/381/381 363/340/340
f 310/303/303 311/302/302 365/339/339 364/381/381
f 312/305/305 313/304/304 343/382/382 342/331/331
f 313/304/304 314/307/307 344/343/343 343/382/382
f 315/365/365 316/383/383 388/384/384 387/366/366
f 316/383/383 317/368/368 389/367/367 388/384/384
f 317/368/368 316/383/383 319/309/309 320/308/308
f 316/383/383 315/365/365 318/312/312 319/309/309
f 321/318/318 322/315/315 394/385/385 393/374/374
f 322/315/315 323/314/314 395/370/370 394/385/385
f 324/317/317 325/316/316 334/386/386 333/328/328
f 325/316/316 326/319/319 335/371/371 334/386/386
f 327/324/324 328/321/321 358/387/387 357/334/334
f 328/321/321 329/320/320 359/333/333 358/387/387
f 330/323/323 331/322/322 349/388/388 348/329/329
f 331/322/322 332/325/325 350/337/337 349/388/388
f 333/328/328 334/386/386 355/389/389 354/332/332
f 334/386/386 335/371/371 356/373/373 355/389/389
f 336/327/327 337/378/378 379/390/390 378/356/356
f 337/378/378 338/355/355 380/354/354 379/390/390
f 339/330/330 340/380/380 373/391/391 372/350/350
f 340/380/380 341/349/349 374/348/348 373/391/391
f 342/331/331 343/382/382 367/392/392 366/344/344
f 343/382/382 344/343/343 368/342/342 367/392/392
f 345/311/311 346/310/310 391/393/393 390/369/369
f 346/310/310 347/313/313 392/363/363 391/393/393
f 348/329/329 349/388/388 361/394/394 360/338/338
f 349/388/388 350/337/337 362/336/336 361/394/394
f 351/326/326 352/376/376 385/395/395 384/362/362
f 352/376/376 353/361/361 386/360/360 385/395/395
