# This file uses meters as units for non-parametric coordinates.

mtllib PalmerasCollider.mtl
g default
v -61.549427 81.636414 -12.182976
v -54.486107 79.544670 -1.685726
v -42.923126 74.494743 0.605385
v -33.633606 69.444817 -6.651413
v -32.059692 67.353065 -19.205389
v -39.123013 69.444817 -29.702639
v -50.685993 74.494743 -31.993872
v -59.975517 79.544670 -24.736952
v -123.868454 334.677704 -100.373154
v -122.473839 340.047485 -97.893173
v -119.590866 345.043152 -99.804298
v -116.908829 346.738831 -104.986465
v -115.997406 344.141449 -110.404251
v -117.390778 338.772278 -112.884483
v -120.273994 333.776154 -110.974480
v -122.957031 332.079742 -105.791817
v -99.633369 322.376038 -90.256393
v -97.694641 328.091675 -87.366455
v -94.018127 333.348053 -89.272232
v -90.757652 335.066071 -94.857513
v -89.822853 332.239410 -100.850380
v -91.761581 326.523804 -103.740311
v -95.438103 321.267456 -101.834412
v -98.698578 319.549408 -96.249260
v -61.549427 81.636414 -12.182976
v -54.486107 79.544670 -1.685726
v -43.777351 109.519302 -4.718157
v -50.726280 110.673180 -14.566967
v -42.923126 74.494743 0.605385
v -32.121864 106.916283 -2.720119
v -33.633606 69.444817 -6.651413
v -22.587387 104.388939 -9.743402
v -32.059692 67.353065 -19.205389
v -20.759323 103.417732 -21.673809
v -39.123013 69.444817 -29.702639
v -27.708252 104.571617 -31.522619
v -50.685993 74.494743 -31.993872
v -39.363739 107.174637 -33.520657
v -59.975517 79.544670 -24.736952
v -48.898216 109.701981 -26.497250
v -38.801716 141.959198 -6.497974
v -45.472618 142.118011 -15.732542
v -27.569736 141.362549 -4.682594
v -18.356558 140.677536 -11.349890
v -16.559078 140.305450 -22.594181
v -23.229980 140.464249 -31.828749
v -34.461716 141.060928 -33.644127
v -43.674896 141.745926 -26.976833
v -38.178520 176.373230 -8.762850
v -44.444817 175.497757 -17.364021
v -27.637877 176.812485 -7.113712
v -18.997908 176.558212 -13.382618
v -17.319550 175.759399 -23.897276
v -23.585846 174.883926 -32.498325
v -34.126244 174.444687 -34.147709
v -42.766457 174.698944 -27.878803
v -39.090939 209.462830 -14.558140
v -44.905376 207.238953 -22.401329
v -29.229692 210.403442 -13.095514
v -21.098278 209.509827 -18.870289
v -19.459713 207.305435 -28.499638
v -25.274151 205.081573 -36.342827
v -35.135395 204.140945 -37.805328
v -43.267056 205.034576 -32.030678
v -41.683449 240.969147 -26.412823
v -46.926914 237.043015 -33.083473
v -32.568996 242.772385 -25.373455
v -24.922762 241.396347 -30.574022
v -23.223766 237.647110 -38.968292
v -28.467232 233.720947 -45.638695
v -37.581684 231.917740 -46.678062
v -45.227917 233.293762 -41.477493
v -47.087311 268.396454 -43.212303
v -51.658340 263.381195 -48.632206
v -38.853447 271.134705 -42.850220
v -31.780178 269.991882 -47.757965
v -30.011049 265.637451 -55.061016
v -34.582077 260.622162 -60.480919
v -42.815945 257.883942 -60.843002
v -49.889214 259.026764 -55.935257
v -57.045792 291.867493 -60.609364
v -60.885944 286.387054 -65.030060
v -50.039917 295.727997 -61.192028
v -43.972317 295.707214 -66.436981
v -42.397415 291.817261 -73.271889
v -46.237568 286.336823 -77.692719
v -53.243687 282.476318 -77.109802
v -59.311043 282.497101 -71.864723
v -73.915398 311.979187 -75.142479
v -76.810814 306.224030 -78.692543
v -68.740822 316.975098 -76.684181
v -64.318756 318.285187 -82.414566
v -63.239223 315.142029 -88.977173
v -66.134880 309.386810 -92.527359
v -71.309212 304.390930 -90.985649
v -75.731529 303.080841 -85.255142
v -97.694641 328.091675 -87.366455
v -99.633369 322.376038 -90.256393
v -94.018127 333.348053 -89.272232
v -90.757652 335.066071 -94.857513
v -89.822853 332.239410 -100.850380
v -91.761581 326.523804 -103.740311
v -95.438103 321.267456 -101.834412
v -98.698578 319.549408 -96.249260
vt 0.329370 0.099781
vt 0.000000 0.099781
vt 0.329370 0.202201
vt 0.000000 0.202201
vt 0.329370 0.309544
vt 0.000000 0.309544
vt 0.329370 0.412734
vt 0.000000 0.412734
vt 0.329370 0.514586
vt 0.000000 0.514586
vt 0.329370 0.613948
vt 0.000000 0.613948
vt 0.329370 0.709365
vt 0.000000 0.709365
vt 0.329370 0.802067
vt 0.000000 0.802067
vt 0.329370 0.899206
vt 0.000000 0.899206
vt 0.000000 0.000000
vt 0.041171 0.000000
vt 0.041171 0.099781
vt 0.082342 0.000000
vt 0.082342 0.099781
vt 0.123514 0.000000
vt 0.123514 0.099781
vt 0.164685 0.000000
vt 0.164685 0.099781
vt 0.205856 0.000000
vt 0.205856 0.099781
vt 0.247027 0.000000
vt 0.247027 0.099781
vt 0.288199 0.000000
vt 0.329370 0.000000
vt 0.288199 0.099781
vt 0.041171 0.202201
vt 0.082342 0.202201
vt 0.123514 0.202201
vt 0.164685 0.202201
vt 0.205856 0.202201
vt 0.247027 0.202201
vt 0.288199 0.202201
vt 0.041171 0.309544
vt 0.082342 0.309544
vt 0.123514 0.309544
vt 0.164685 0.309544
vt 0.205856 0.309544
vt 0.247027 0.309544
vt 0.288199 0.309544
vt 0.041171 0.412734
vt 0.082342 0.412734
vt 0.123514 0.412734
vt 0.164685 0.412734
vt 0.205856 0.412734
vt 0.247027 0.412734
vt 0.288199 0.412734
vt 0.041171 0.514586
vt 0.082342 0.514586
vt 0.123514 0.514586
vt 0.164685 0.514586
vt 0.205856 0.514586
vt 0.247027 0.514586
vt 0.288199 0.514586
vt 0.041171 0.613948
vt 0.082342 0.613948
vt 0.123514 0.613948
vt 0.164685 0.613948
vt 0.205856 0.613948
vt 0.247027 0.613948
vt 0.288199 0.613948
vt 0.041171 0.709365
vt 0.082342 0.709365
vt 0.123514 0.709365
vt 0.164685 0.709365
vt 0.205856 0.709365
vt 0.247027 0.709365
vt 0.288199 0.709365
vt 0.041171 0.802067
vt 0.082342 0.802067
vt 0.123514 0.802067
vt 0.164685 0.802067
vt 0.205856 0.802067
vt 0.247027 0.802067
vt 0.288199 0.802067
vt 0.041171 0.899206
vt 0.082342 0.899206
vt 0.123514 0.899206
vt 0.164685 0.899206
vt 0.205856 0.899206
vt 0.247027 0.899206
vt 0.288199 0.899206
vt 0.041171 0.992370
vt 0.000000 0.992310
vt 0.082343 0.992443
vt 0.123514 0.992490
vt 0.164685 0.992482
vt 0.205856 0.992424
vt 0.247027 0.992350
vt 0.288199 0.992301
vt 0.329370 0.992310
vt 0.000000 0.000000
vt 0.041171 0.000000
vt 0.082342 0.000000
vt 0.123514 0.000000
vt 0.164685 0.000000
vt 0.205856 0.000000
vt 0.247027 0.000000
vt 0.288199 0.000000
vt 0.329370 0.000000
vt 0.041171 0.899206
vt 0.000000 0.899206
vt 0.082342 0.899206
vt 0.123514 0.899206
vt 0.164685 0.899206
vt 0.205856 0.899206
vt 0.247027 0.899206
vt 0.288199 0.899206
vt 0.329370 0.899206
vn -0.909473 0.356127 0.214554
vn -0.457828 0.249535 0.853303
vn -0.476614 0.188276 0.858715
vn -0.937754 0.266049 0.223239
vn 0.275003 0.006907 0.961419
vn 0.270366 0.013229 0.962667
vn 0.835353 -0.219267 0.504090
vn 0.848733 -0.151357 0.506699
vn 0.926004 -0.305020 -0.222441
vn 0.950328 -0.215278 -0.224795
vn 0.519109 -0.211339 -0.828168
vn 0.532608 -0.146425 -0.833600
vn -0.183252 0.017506 -0.982910
vn -0.188928 0.020956 -0.981767
vn -0.788734 0.256723 -0.558563
vn -0.810506 0.194422 -0.552521
vn -0.500517 0.094997 0.860499
vn -0.965682 0.106660 0.236816
vn 0.256560 0.042716 0.965584
vn 0.857343 -0.018938 0.514397
vn 0.973177 -0.054794 -0.223436
vn 0.542263 -0.044591 -0.839025
vn -0.206707 0.006877 -0.978379
vn -0.841718 0.069996 -0.535361
vn -0.508540 0.098341 0.855404
vn -0.967612 0.034664 0.250052
vn 0.236151 0.120646 0.964198
vn 0.845227 0.089796 0.526809
vn 0.976309 0.023307 -0.215123
vn 0.538180 -0.040978 -0.841833
vn -0.227871 -0.064985 -0.971520
vn -0.857892 -0.033529 -0.512736
vn -0.508410 0.198875 0.837836
vn -0.965277 0.027558 0.259772
vn 0.224634 0.271721 0.935792
vn 0.832091 0.209132 0.513700
vn 0.977198 0.042507 -0.208031
vn 0.547388 -0.136477 -0.825676
vn -0.226028 -0.217461 -0.949538
vn -0.860499 -0.147182 -0.487729
vn -0.516103 0.314823 0.796570
vn -0.964404 0.007353 0.264331
vn 0.211953 0.453769 0.865546
vn 0.817745 0.356004 0.452278
vn 0.971967 0.071679 -0.223926
vn 0.561260 -0.246850 -0.789970
vn -0.201864 -0.405891 -0.891349
vn -0.845340 -0.296969 -0.444082
vn -0.525898 0.359179 0.770988
vn -0.952852 -0.077461 0.293383
vn 0.195765 0.591608 0.782097
vn 0.793310 0.501493 0.345203
vn 0.945817 0.145833 -0.290108
vn 0.562387 -0.284171 -0.776510
vn -0.162489 -0.542507 -0.824187
vn -0.803675 -0.459121 -0.378568
vn -0.495036 0.297542 0.816338
vn -0.888813 -0.241795 0.389291
vn 0.183035 0.657831 0.730587
vn 0.731412 0.644947 0.221540
vn 0.865226 0.291489 -0.407944
vn 0.522214 -0.211137 -0.826265
vn -0.130898 -0.593611 -0.794035
vn -0.729736 -0.617375 -0.293824
vn -0.416312 0.194198 0.888241
vn -0.742768 -0.423465 0.518626
vn 0.144159 0.691230 0.708109
vn 0.599271 0.791034 0.123046
vn 0.711123 0.466386 -0.526107
vn 0.427076 -0.105124 -0.898084
vn -0.115885 -0.621068 -0.775142
vn -0.613331 -0.767115 -0.188041
vn -0.374457 0.142187 0.916278
vn -0.646563 -0.503536 0.573069
vn 0.105901 0.703617 0.702644
vn 0.504511 0.859109 0.086025
vn 0.608130 0.545773 -0.576464
vn 0.361874 -0.067198 -0.929802
vn -0.112036 -0.645972 -0.755095
vn -0.536591 -0.834085 -0.127955
vn -0.545395 -0.566909 0.617381
vn -0.343626 0.108965 0.932764
vn -0.345117 0.105722 0.932586
vn -0.545487 -0.567927 0.616363
vn 0.045132 0.721234 0.691220
vn 0.043263 0.719182 0.693474
vn 0.391027 0.919060 0.049264
vn 0.390538 0.919191 0.050676
vn 0.500553 0.600421 -0.623652
vn 0.500472 0.599422 -0.624676
vn 0.310989 -0.057508 -0.948672
vn 0.309532 -0.060757 -0.948946
vn -0.075756 -0.682055 -0.727366
vn -0.077651 -0.684196 -0.725152
vn -0.433850 -0.897795 -0.075749
vn -0.434354 -0.897672 -0.074307
vn 0.000000 0.000000 0.000000
vn 0.000000 0.000000 0.000000
vn 0.000000 0.000000 0.000000
vn 0.000000 0.000000 0.000000
vn 0.000000 0.000000 0.000000
vn 0.000000 0.000000 0.000000
vn 0.000000 0.000000 0.000000
vn 0.000000 0.000000 0.000000
s 1
g sweep3 group3
usemtl lambert4SG
f 25/100/1 26/101/2 27/21/3 28/2/4
f 26/101/2 29/102/5 30/23/6 27/21/3
f 29/102/5 31/103/7 32/25/8 30/23/6
f 31/103/7 33/104/9 34/27/10 32/25/8
f 33/104/9 35/105/11 36/29/12 34/27/10
f 35/105/11 37/106/13 38/31/14 36/29/12
f 37/106/13 39/107/15 40/34/16 38/31/14
f 39/107/15 25/108/1 28/1/4 40/34/16
f 28/2/4 27/21/3 41/35/17 42/4/18
f 27/21/3 30/23/6 43/36/19 41/35/17
f 30/23/6 32/25/8 44/37/20 43/36/19
f 32/25/8 34/27/10 45/38/21 44/37/20
f 34/27/10 36/29/12 46/39/22 45/38/21
f 36/29/12 38/31/14 47/40/23 46/39/22
f 38/31/14 40/34/16 48/41/24 47/40/23
f 40/34/16 28/1/4 42/3/18 48/41/24
f 42/4/18 41/35/17 49/42/25 50/6/26
f 41/35/17 43/36/19 51/43/27 49/42/25
f 43/36/19 44/37/20 52/44/28 51/43/27
f 44/37/20 45/38/21 53/45/29 52/44/28
f 45/38/21 46/39/22 54/46/30 53/45/29
f 46/39/22 47/40/23 55/47/31 54/46/30
f 47/40/23 48/41/24 56/48/32 55/47/31
f 48/41/24 42/3/18 50/5/26 56/48/32
f 50/6/26 49/42/25 57/49/33 58/8/34
f 49/42/25 51/43/27 59/50/35 57/49/33
f 51/43/27 52/44/28 60/51/36 59/50/35
f 52/44/28 53/45/29 61/52/37 60/51/36
f 53/45/29 54/46/30 62/53/38 61/52/37
f 54/46/30 55/47/31 63/54/39 62/53/38
f 55/47/31 56/48/32 64/55/40 63/54/39
f 56/48/32 50/5/26 58/7/34 64/55/40
f 58/8/34 57/49/33 65/56/41 66/10/42
f 57/49/33 59/50/35 67/57/43 65/56/41
f 59/50/35 60/51/36 68/58/44 67/57/43
f 60/51/36 61/52/37 69/59/45 68/58/44
f 61/52/37 62/53/38 70/60/46 69/59/45
f 62/53/38 63/54/39 71/61/47 70/60/46
f 63/54/39 64/55/40 72/62/48 71/61/47
f 64/55/40 58/7/34 66/9/42 72/62/48
f 66/10/42 65/56/41 73/63/49 74/12/50
f 65/56/41 67/57/43 75/64/51 73/63/49
f 67/57/43 68/58/44 76/65/52 75/64/51
f 68/58/44 69/59/45 77/66/53 76/65/52
f 69/59/45 70/60/46 78/67/54 77/66/53
f 70/60/46 71/61/47 79/68/55 78/67/54
f 71/61/47 72/62/48 80/69/56 79/68/55
f 72/62/48 66/9/42 74/11/50 80/69/56
f 74/12/50 73/63/49 81/70/57 82/14/58
f 73/63/49 75/64/51 83/71/59 81/70/57
f 75/64/51 76/65/52 84/72/60 83/71/59
f 76/65/52 77/66/53 85/73/61 84/72/60
f 77/66/53 78/67/54 86/74/62 85/73/61
f 78/67/54 79/68/55 87/75/63 86/74/62
f 79/68/55 80/69/56 88/76/64 87/75/63
f 80/69/56 74/11/50 82/13/58 88/76/64
f 82/14/58 81/70/57 89/77/65 90/16/66
f 81/70/57 83/71/59 91/78/67 89/77/65
f 83/71/59 84/72/60 92/79/68 91/78/67
f 84/72/60 85/73/61 93/80/69 92/79/68
f 85/73/61 86/74/62 94/81/70 93/80/69
f 86/74/62 87/75/63 95/82/71 94/81/70
f 87/75/63 88/76/64 96/83/72 95/82/71
f 88/76/64 82/13/58 90/15/66 96/83/72
f 90/16/66 89/77/65 97/109/73 98/110/74
f 89/77/65 91/78/67 99/111/75 97/109/73
f 91/78/67 92/79/68 100/112/76 99/111/75
f 92/79/68 93/80/69 101/113/77 100/112/76
f 93/80/69 94/81/70 102/114/78 101/113/77
f 94/81/70 95/82/71 103/115/79 102/114/78
f 95/82/71 96/83/72 104/116/80 103/115/79
f 96/83/72 90/15/66 98/117/74 104/116/80
f 17/18/81 18/84/82 10/91/83 9/92/84
f 18/84/82 19/85/85 11/93/86 10/91/83
f 19/85/85 20/86/87 12/94/88 11/93/86
f 20/86/87 21/87/89 13/95/90 12/94/88
f 21/87/89 22/88/91 14/96/92 13/95/90
f 22/88/91 23/89/93 15/97/94 14/96/92
f 23/89/93 24/90/95 16/98/96 15/97/94
f 24/90/95 17/17/81 9/99/84 16/98/96
f 1/19/97 2/20/98 26/101/2 25/100/1
f 2/20/98 3/22/99 29/102/5 26/101/2
f 3/22/99 4/24/100 31/103/7 29/102/5
f 4/24/100 5/26/101 33/104/9 31/103/7
f 5/26/101 6/28/102 35/105/11 33/104/9
f 6/28/102 7/30/103 37/106/13 35/105/11
f 7/30/103 8/32/104 39/107/15 37/106/13
f 8/32/104 1/33/97 25/108/1 39/107/15
f 18/84/82 17/18/81 98/110/74 97/109/73
f 19/85/85 18/84/82 97/109/73 99/111/75
f 20/86/87 19/85/85 99/111/75 100/112/76
f 21/87/89 20/86/87 100/112/76 101/113/77
f 22/88/91 21/87/89 101/113/77 102/114/78
f 23/89/93 22/88/91 102/114/78 103/115/79
f 24/90/95 23/89/93 103/115/79 104/116/80
f 17/17/81 24/90/95 104/116/80 98/117/74
g default
v 295.446106 58.787312 13.910938
v 297.857086 57.909626 1.365168
v 290.773621 55.790710 -9.090055
v 278.344971 53.671799 -11.330309
v 267.851715 52.794117 -4.043297
v 265.440735 53.671803 8.502472
v 272.524323 55.790710 18.957819
v 284.952850 57.909626 21.198072
v 289.133179 123.019936 1.073837
v 291.301941 121.006996 -9.763985
v 285.058289 119.824234 -19.028641
v 274.059448 120.164497 -21.292892
v 264.748413 121.828468 -15.230392
v 262.579651 123.841408 -4.392447
v 268.823303 125.024178 4.872210
v 279.822144 124.683914 7.136337
v 295.586853 163.619080 -5.339554
v 297.566010 161.847702 -15.184635
v 292.231262 162.530426 -23.848103
v 282.707733 165.267365 -26.254974
v 274.574219 168.455231 -20.995344
v 272.595184 170.226608 -11.150263
v 277.929810 169.543884 -2.486795
v 287.453339 166.806931 -0.079926
v 312.401520 201.777710 -10.210991
v 314.002289 199.812607 -19.012974
v 309.816833 201.707123 -26.936985
v 302.297058 206.351486 -29.341492
v 295.847961 211.025055 -24.817715
v 294.247223 212.990158 -16.015732
v 298.432648 211.095642 -8.091597
v 305.952423 206.451279 -5.687212
v 338.304016 236.633530 -14.797934
v 339.535339 234.642288 -22.575222
v 336.155396 236.760498 -29.650356
v 330.144379 241.747360 -31.878922
v 325.023254 246.681641 -27.955214
v 323.791901 248.672852 -20.177801
v 327.171753 246.554642 -13.102667
v 333.182892 241.567780 -10.874226
v 366.887299 271.938660 -20.393782
v 367.876801 270.097229 -27.162912
v 364.603027 271.541748 -33.277390
v 358.983917 275.426117 -35.155560
v 354.310822 279.474915 -31.697136
v 353.321289 281.316376 -24.928005
v 356.595093 279.871796 -18.813530
v 362.214172 275.987457 -16.935358
v 388.948639 311.552368 -26.863623
v 390.149414 310.564148 -32.707161
v 387.252014 311.628235 -37.907227
v 381.953949 314.121429 -39.417473
v 377.358551 316.583191 -36.353336
v 376.157928 317.571472 -30.509554
v 379.055176 316.507324 -25.309608
v 384.353363 314.014130 -23.799360
vt 0.000000 0.000000
vt 0.044989 0.000000
vt 0.089978 0.000000
vt 0.134967 0.000000
vt 0.179957 0.000000
vt 0.224946 0.000000
vt 0.269935 0.000000
vt 0.314924 0.000000
vt 0.359913 0.000000
vt 0.000000 0.231197
vt 0.044989 0.231197
vt 0.089978 0.231197
vt 0.134967 0.231197
vt 0.179957 0.231197
vt 0.224946 0.231197
vt 0.269935 0.231197
vt 0.314924 0.231197
vt 0.359913 0.231197
vt 0.000000 0.377371
vt 0.044989 0.377371
vt 0.089978 0.377371
vt 0.134967 0.377371
vt 0.179957 0.377371
vt 0.224946 0.377371
vt 0.269935 0.377371
vt 0.314924 0.377371
vt 0.359913 0.377371
vt 0.000000 0.524868
vt 0.044989 0.524868
vt 0.089978 0.524868
vt 0.134967 0.524868
vt 0.179957 0.524868
vt 0.224946 0.524868
vt 0.269935 0.524868
vt 0.314924 0.524868
vt 0.359913 0.524868
vt 0.000000 0.678287
vt 0.044989 0.678287
vt 0.089978 0.678287
vt 0.134967 0.678287
vt 0.179957 0.678287
vt 0.224946 0.678287
vt 0.269935 0.678287
vt 0.314924 0.678287
vt 0.359913 0.678287
vt 0.000000 0.839085
vt 0.044989 0.839085
vt 0.089978 0.839085
vt 0.134967 0.839085
vt 0.179957 0.839085
vt 0.224946 0.839085
vt 0.269935 0.839085
vt 0.314924 0.839085
vt 0.359913 0.839085
vt 0.000000 1.000000
vt 0.044989 1.000000
vt 0.089978 1.000000
vt 0.134967 1.000000
vt 0.179957 1.000000
vt 0.224946 1.000000
vt 0.269935 1.000000
vt 0.314924 1.000000
vt 0.359913 1.000000
vn 0.808079 0.190231 0.557512
vn 0.979138 0.067445 -0.191675
vn 0.978441 -0.022721 -0.205272
vn 0.819968 0.107921 0.562144
vn 0.547765 -0.080185 -0.832781
vn 0.527411 -0.120057 -0.841085
vn -0.224511 -0.158360 -0.961518
vn -0.229367 -0.123490 -0.965474
vn -0.850127 -0.121425 -0.512386
vn -0.840587 -0.038016 -0.540340
vn -0.976748 -0.000379 0.214389
vn -0.981092 0.082790 0.174942
vn -0.567270 0.135431 0.812320
vn -0.582712 0.174192 0.793791
vn 0.160212 0.215297 0.963317
vn 0.156058 0.187365 0.969815
vn 0.943708 -0.284894 -0.168082
vn 0.789023 -0.140597 0.598059
vn 0.513521 -0.232622 -0.825944
vn -0.209588 -0.025345 -0.977461
vn -0.791791 0.207611 -0.574426
vn -0.930570 0.340333 0.134958
vn -0.555308 0.303201 0.774404
vn 0.151993 0.107462 0.982522
vn 0.855991 -0.498480 -0.137107
vn 0.711833 -0.329067 0.620491
vn 0.477981 -0.342544 -0.808825
vn -0.172459 0.031299 -0.984519
vn -0.701909 0.393436 -0.593744
vn -0.828458 0.547309 0.118789
vn -0.490005 0.413325 0.767501
vn 0.142923 0.054944 0.988208
vn 0.782782 -0.611268 -0.116636
vn 0.661880 -0.423294 0.618658
vn 0.450747 -0.423205 -0.785955
vn -0.137229 0.029417 -0.990103
vn -0.630338 0.475609 -0.613572
vn -0.744910 0.657284 0.114395
vn -0.419047 0.473320 0.774834
vn 0.162569 0.027024 0.986327
vn 0.814253 -0.567813 -0.120751
vn 0.702873 -0.385931 0.597517
vn 0.477188 -0.415865 -0.774176
vn -0.128158 -0.008934 -0.991713
vn -0.656269 0.424076 -0.624076
vn -0.776959 0.616922 0.125470
vn -0.413181 0.448469 0.792563
vn 0.201458 0.030623 0.979018
vn 0.857465 -0.492208 -0.149948
vn 0.751891 -0.324820 0.573718
vn 0.495359 -0.370626 -0.785656
vn -0.139547 -0.026264 -0.989867
vn -0.696006 0.353971 -0.624724
vn -0.832106 0.542098 0.117175
vn -0.451376 0.416312 0.789268
vn 0.214294 0.051098 0.975432
s 1
g group3 sweep8
usemtl lambert4SG
f 105/118/105 106/119/106 114/128/107 113/127/108
f 106/119/106 107/120/109 115/129/110 114/128/107
f 107/120/109 108/121/111 116/130/112 115/129/110
f 108/121/111 109/122/113 117/131/114 116/130/112
f 109/122/113 110/123/115 118/132/116 117/131/114
f 110/123/115 111/124/117 119/133/118 118/132/116
f 111/124/117 112/125/119 120/134/120 119/133/118
f 112/125/119 105/126/105 113/135/108 120/134/120
f 113/127/108 114/128/107 122/137/121 121/136/122
f 114/128/107 115/129/110 123/138/123 122/137/121
f 115/129/110 116/130/112 124/139/124 123/138/123
f 116/130/112 117/131/114 125/140/125 124/139/124
f 117/131/114 118/132/116 126/141/126 125/140/125
f 118/132/116 119/133/118 127/142/127 126/141/126
f 119/133/118 120/134/120 128/143/128 127/142/127
f 120/134/120 113/135/108 121/144/122 128/143/128
f 121/136/122 122/137/121 130/146/129 129/145/130
f 122/137/121 123/138/123 131/147/131 130/146/129
f 123/138/123 124/139/124 132/148/132 131/147/131
f 124/139/124 125/140/125 133/149/133 132/148/132
f 125/140/125 126/141/126 134/150/134 133/149/133
f 126/141/126 127/142/127 135/151/135 134/150/134
f 127/142/127 128/143/128 136/152/136 135/151/135
f 128/143/128 121/144/122 129/153/130 136/152/136
f 129/145/130 130/146/129 138/155/137 137/154/138
f 130/146/129 131/147/131 139/156/139 138/155/137
f 131/147/131 132/148/132 140/157/140 139/156/139
f 132/148/132 133/149/133 141/158/141 140/157/140
f 133/149/133 134/150/134 142/159/142 141/158/141
f 134/150/134 135/151/135 143/160/143 142/159/142
f 135/151/135 136/152/136 144/161/144 143/160/143
f 136/152/136 129/153/130 137/162/138 144/161/144
f 137/154/138 138/155/137 146/164/145 145/163/146
f 138/155/137 139/156/139 147/165/147 146/164/145
f 139/156/139 140/157/140 148/166/148 147/165/147
f 140/157/140 141/158/141 149/167/149 148/166/148
f 141/158/141 142/159/142 150/168/150 149/167/149
f 142/159/142 143/160/143 151/169/151 150/168/150
f 143/160/143 144/161/144 152/170/152 151/169/151
f 144/161/144 137/162/138 145/171/146 152/170/152
f 145/163/146 146/164/145 154/173/153 153/172/154
f 146/164/145 147/165/147 155/174/155 154/173/153
f 147/165/147 148/166/148 156/175/156 155/174/155
f 148/166/148 149/167/149 157/176/157 156/175/156
f 149/167/149 150/168/150 158/177/158 157/176/157
f 150/168/150 151/169/151 159/178/159 158/177/158
f 151/169/151 152/170/152 160/179/160 159/178/159
f 152/170/152 145/171/146 153/180/154 160/179/160
g default
v -441.890625 63.903156 -39.412086
v -450.208557 62.440285 -29.761478
v -449.303345 58.908600 -17.466627
v -439.705200 55.376923 -9.729502
v -427.037079 53.914051 -11.082458
v -418.719177 55.376923 -20.732944
v -419.624359 58.908600 -33.027916
v -429.222504 62.440285 -40.764923
v -439.399597 102.589569 -31.118662
v -447.062714 101.477158 -22.169582
v -446.111267 100.402489 -10.422705
v -437.102753 99.995094 -2.759436
v -425.313965 100.493622 -3.668619
v -417.651062 101.606018 -12.617821
v -418.602295 102.680695 -24.364576
v -427.611053 103.088081 -32.027969
v -442.654846 142.733871 -29.852121
v -449.746246 142.520950 -21.650583
v -449.053192 143.616043 -10.884010
v -440.981934 145.377655 -3.859358
v -430.260010 146.773849 -4.691448
v -423.168579 146.986755 -12.892988
v -423.861664 145.891678 -23.659437
v -431.933136 144.130066 -30.684090
v -448.446899 181.086029 -36.497036
v -455.100616 182.020920 -29.252426
v -454.817383 185.062256 -19.855471
v -447.763031 188.428513 -13.810999
v -438.070129 190.147751 -14.659504
v -431.416138 189.212875 -21.904238
v -431.699402 186.171524 -31.301069
v -438.753754 182.805267 -37.345665
v -457.160461 218.563293 -49.926125
v -463.225098 219.647812 -43.479038
v -463.189026 223.277679 -35.333946
v -457.073425 227.326584 -30.261827
v -448.460571 229.422714 -31.234173
v -442.395721 228.338211 -37.681137
v -442.431763 224.708328 -45.826347
v -448.547607 220.659424 -50.898346
v -469.258850 253.936768 -66.305954
v -474.626923 254.793854 -60.499596
v -474.845245 258.698151 -53.573051
v -469.785583 263.362640 -49.584061
v -462.412384 266.054840 -50.869255
v -457.044098 265.197754 -56.675735
v -456.825989 261.293427 -63.602280
v -461.885437 256.628998 -67.591141
v -488.498413 282.820709 -86.116852
v -493.049286 283.317566 -80.833473
v -493.730438 287.499176 -75.273064
v -490.142944 292.915924 -72.692490
v -484.388428 296.394806 -74.603737
v -479.837799 295.897919 -79.887115
v -479.156647 291.716370 -85.447647
v -482.744141 286.299591 -88.028099
v -511.457733 311.651520 -108.053108
v -515.400330 312.102875 -103.516403
v -515.842041 315.531647 -98.579193
v -512.524353 319.929352 -96.133522
v -507.390564 322.719818 -97.612183
v -503.448181 322.268494 -102.148773
v -503.006531 318.839691 -107.085983
v -506.324188 314.442017 -109.531647
vt 0.000000 0.000000
vt 0.045201 0.000000
vt 0.090402 0.000000
vt 0.135603 0.000000
vt 0.180804 0.000000
vt 0.226005 0.000000
vt 0.271206 0.000000
vt 0.316407 0.000000
vt 0.361607 0.000000
vt 0.000000 0.139732
vt 0.045201 0.139732
vt 0.090402 0.139732
vt 0.135603 0.139732
vt 0.180804 0.139732
vt 0.226005 0.139732
vt 0.271206 0.139732
vt 0.316407 0.139732
vt 0.361607 0.139732
vt 0.000000 0.281763
vt 0.045201 0.281763
vt 0.090402 0.281763
vt 0.135603 0.281763
vt 0.180804 0.281763
vt 0.226005 0.281763
vt 0.271206 0.281763
vt 0.316407 0.281763
vt 0.361607 0.281763
vt 0.000000 0.420468
vt 0.045201 0.420468
vt 0.090402 0.420468
vt 0.135603 0.420468
vt 0.180804 0.420468
vt 0.226005 0.420468
vt 0.271206 0.420468
vt 0.316407 0.420468
vt 0.361607 0.420468
vt 0.000000 0.564110
vt 0.045201 0.564110
vt 0.090402 0.564110
vt 0.135603 0.564110
vt 0.180804 0.564110
vt 0.226005 0.564110
vt 0.271206 0.564110
vt 0.316407 0.564110
vt 0.361607 0.564110
vt 0.000000 0.707974
vt 0.045201 0.707974
vt 0.090402 0.707974
vt 0.135603 0.707974
vt 0.180804 0.707974
vt 0.226005 0.707974
vt 0.271206 0.707974
vt 0.316407 0.707974
vt 0.361607 0.707974
vt 0.000000 0.848826
vt 0.045201 0.848826
vt 0.090402 0.848826
vt 0.135603 0.848826
vt 0.180804 0.848826
vt 0.226005 0.848826
vt 0.271206 0.848826
vt 0.316407 0.848826
vt 0.361607 0.848826
vt 0.000000 1.000000
vt 0.045201 1.000000
vt 0.090402 1.000000
vt 0.135603 1.000000
vt 0.180804 1.000000
vt 0.226005 1.000000
vt 0.271206 1.000000
vt 0.316407 1.000000
vt 0.361607 1.000000
vn -0.441901 0.214707 -0.870991
vn -0.953230 0.129550 -0.273075
vn -0.958239 0.039157 -0.283276
vn -0.448857 0.108570 -0.886983
vn -0.868668 -0.017410 0.495089
vn -0.871504 -0.035067 0.489134
vn -0.265008 -0.133645 0.954940
vn -0.275392 -0.070398 0.958751
vn 0.470134 -0.155355 0.868815
vn 0.462408 -0.049983 0.885257
vn 0.944112 -0.077710 0.320334
vn 0.943738 0.013505 0.330418
vn 0.909695 0.060132 -0.410901
vn 0.906070 0.086830 -0.414122
vn 0.343734 0.183987 -0.920867
vn 0.337960 0.128061 -0.932407
vn -0.951065 -0.116850 -0.286044
vn -0.445372 -0.106988 -0.888930
vn -0.877345 -0.038213 0.478336
vn -0.301794 0.077537 0.950215
vn 0.430936 0.164795 0.887208
vn 0.925620 0.177655 0.334166
vn 0.901366 0.106634 -0.419725
vn 0.336979 -0.012088 -0.941435
vn -0.931917 -0.237645 -0.273962
vn -0.413496 -0.300805 -0.859382
vn -0.885572 -0.016047 0.464225
vn -0.330968 0.226508 0.916054
vn 0.398975 0.354833 0.845525
vn 0.905096 0.301201 0.300131
vn 0.899047 0.090570 -0.428383
vn 0.356763 -0.161472 -0.920134
vn -0.903505 -0.347048 -0.251468
vn -0.375430 -0.437802 -0.816935
vn -0.889298 -0.031785 0.456223
vn -0.355197 0.314280 0.880377
vn 0.372129 0.491177 0.787569
vn 0.881405 0.404688 0.243626
vn 0.887867 0.102374 -0.448566
vn 0.372575 -0.247959 -0.894261
vn -0.850935 -0.494226 -0.177906
vn -0.315707 -0.572168 -0.756937
vn -0.861372 -0.093800 0.499239
vn -0.362550 0.368930 0.855832
vn 0.326275 0.624547 0.709567
vn 0.820968 0.546440 0.165572
vn 0.858127 0.180380 -0.480708
vn 0.399547 -0.282231 -0.872186
vn -0.775160 -0.623352 -0.102757
vn -0.266395 -0.683076 -0.680030
vn -0.830438 -0.179361 0.527450
vn -0.399463 0.381943 0.833396
vn 0.251575 0.725285 0.640837
vn 0.744394 0.663330 0.076615
vn 0.807008 0.234954 -0.541788
vn 0.392225 -0.324029 -0.860909
vn -0.753183 -0.652217 -0.085610
vn -0.260505 -0.707348 -0.657112
vn -0.823070 -0.210697 0.527411
vn -0.423370 0.367694 0.827985
vn 0.219486 0.743644 0.631521
vn 0.723499 0.688619 0.048514
vn 0.785984 0.234816 -0.571919
vn 0.374947 -0.343681 -0.860987
s 1
g group3 sweep2
usemtl lambert4SG
f 161/181/161 162/182/162 170/191/163 169/190/164
f 162/182/162 163/183/165 171/192/166 170/191/163
f 163/183/165 164/184/167 172/193/168 171/192/166
f 164/184/167 165/185/169 173/194/170 172/193/168
f 165/185/169 166/186/171 174/195/172 173/194/170
f 166/186/171 167/187/173 175/196/174 174/195/172
f 167/187/173 168/188/175 176/197/176 175/196/174
f 168/188/175 161/189/161 169/198/164 176/197/176
f 169/190/164 170/191/163 178/200/177 177/199/178
f 170/191/163 171/192/166 179/201/179 178/200/177
f 171/192/166 172/193/168 180/202/180 179/201/179
f 172/193/168 173/194/170 181/203/181 180/202/180
f 173/194/170 174/195/172 182/204/182 181/203/181
f 174/195/172 175/196/174 183/205/183 182/204/182
f 175/196/174 176/197/176 184/206/184 183/205/183
f 176/197/176 169/198/164 177/207/178 184/206/184
f 177/199/178 178/200/177 186/209/185 185/208/186
f 178/200/177 179/201/179 187/210/187 186/209/185
f 179/201/179 180/202/180 188/211/188 187/210/187
f 180/202/180 181/203/181 189/212/189 188/211/188
f 181/203/181 182/204/182 190/213/190 189/212/189
f 182/204/182 183/205/183 191/214/191 190/213/190
f 183/205/183 184/206/184 192/215/192 191/214/191
f 184/206/184 177/207/178 185/216/186 192/215/192
f 185/208/186 186/209/185 194/218/193 193/217/194
f 186/209/185 187/210/187 195/219/195 194/218/193
f 187/210/187 188/211/188 196/220/196 195/219/195
f 188/211/188 189/212/189 197/221/197 196/220/196
f 189/212/189 190/213/190 198/222/198 197/221/197
f 190/213/190 191/214/191 199/223/199 198/222/198
f 191/214/191 192/215/192 200/224/200 199/223/199
f 192/215/192 185/216/186 193/225/194 200/224/200
f 193/217/194 194/218/193 202/227/201 201/226/202
f 194/218/193 195/219/195 203/228/203 202/227/201
f 195/219/195 196/220/196 204/229/204 203/228/203
f 196/220/196 197/221/197 205/230/205 204/229/204
f 197/221/197 198/222/198 206/231/206 205/230/205
f 198/222/198 199/223/199 207/232/207 206/231/206
f 199/223/199 200/224/200 208/233/208 207/232/207
f 200/224/200 193/225/194 201/234/202 208/233/208
f 201/226/202 202/227/201 210/236/209 209/235/210
f 202/227/201 203/228/203 211/237/211 210/236/209
f 203/228/203 204/229/204 212/238/212 211/237/211
f 204/229/204 205/230/205 213/239/213 212/238/212
f 205/230/205 206/231/206 214/240/214 213/239/213
f 206/231/206 207/232/207 215/241/215 214/240/214
f 207/232/207 208/233/208 216/242/216 215/241/215
f 208/233/208 201/234/202 209/243/210 216/242/216
f 209/235/210 210/236/209 218/245/217 217/244/218
f 210/236/209 211/237/211 219/246/219 218/245/217
f 211/237/211 212/238/212 220/247/220 219/246/219
f 212/238/212 213/239/213 221/248/221 220/247/220
f 213/239/213 214/240/214 222/249/222 221/248/221
f 214/240/214 215/241/215 223/250/223 222/249/222
f 215/241/215 216/242/216 224/251/224 223/250/223
f 216/242/216 209/243/210 217/252/218 224/251/224
g default
v 112.523659 58.651749 -14.140812
v 109.450073 58.004292 -1.707445
v 116.027100 56.441200 9.190182
v 128.402267 54.878113 12.168028
v 139.326385 54.230656 5.481958
v 142.400101 54.878113 -6.951408
v 135.822952 56.441200 -17.848911
v 123.447777 58.004292 -20.826881
v 116.013168 90.946396 -11.859028
v 113.143623 90.769325 -0.075344
v 119.428818 90.035347 10.272572
v 131.187012 89.174416 13.122845
v 141.530334 88.690849 6.806190
v 144.399872 88.867928 -4.977493
v 138.114807 89.601906 -15.325409
v 126.356606 90.462837 -18.175806
v 118.400024 123.645493 -10.986279
v 115.714127 123.852951 0.126461
v 121.668327 123.722717 9.887611
v 132.774719 123.331093 12.579348
v 142.527298 122.907471 6.624653
v 145.213196 122.700020 -4.488087
v 139.258987 122.830246 -14.249237
v 128.152588 123.221878 -16.940849
v 120.097649 156.637909 -11.401079
v 117.586212 157.198563 -0.974081
v 123.191757 157.505676 8.181652
v 133.630814 157.379349 10.702793
v 142.788162 156.893570 5.112541
v 145.299606 156.332916 -5.314457
v 139.694061 156.025803 -14.470192
v 129.255127 156.152130 -16.991455
v 121.452843 188.632065 -13.094109
v 119.106651 189.565186 -3.349247
v 124.369019 190.275650 5.202936
v 134.157272 190.347290 7.552734
v 142.737686 189.738098 2.323692
v 145.083878 188.804977 -7.421169
v 139.821503 188.094513 -15.973351
v 130.033249 188.022873 -18.323273
v 122.313904 220.319946 -16.330458
v 120.125999 221.619629 -7.288248
v 125.037971 222.816315 0.628551
v 134.172821 223.209030 2.782389
v 142.179016 222.567734 -2.088303
v 144.367050 221.268082 -11.130388
v 139.454956 220.071381 -19.047188
v 130.320236 219.678635 -21.201025
v 122.203369 251.566788 -21.345013
v 120.158951 253.299347 -13.046858
v 124.702255 255.074127 -5.818413
v 133.171875 255.851532 -3.894110
v 140.606476 255.176147 -8.401102
v 142.650772 253.443604 -16.699379
v 138.107468 251.668793 -23.927826
v 129.637848 250.891418 -25.852129
v 121.438545 282.255951 -29.334551
v 119.514114 284.686127 -21.908773
v 123.671715 287.087646 -15.451118
v 131.476105 288.053680 -13.744661
v 138.355530 287.018341 -17.788857
v 140.280075 284.588226 -25.214880
v 136.122360 282.186737 -31.672413
v 128.317963 281.220703 -33.378868
v 120.759148 312.091858 -40.636162
v 118.964401 314.965851 -34.087116
v 122.747482 317.719666 -28.388189
v 129.892380 318.740143 -26.877819
v 136.213745 317.429596 -30.440937
v 138.008499 314.555603 -36.990108
v 134.225540 311.801788 -42.688911
v 127.080521 310.781281 -44.199158
v 119.964729 341.100311 -54.387543
v 118.314850 344.072266 -48.613144
v 121.733856 346.928925 -43.608662
v 128.219116 347.996948 -42.305195
v 133.971512 346.650665 -45.466690
v 135.621384 343.678741 -51.241093
v 132.202377 340.822052 -56.245575
v 125.717125 339.754059 -57.549042
v 118.865303 369.492981 -69.635620
v 117.369362 372.350067 -64.543732
v 120.432129 375.119629 -60.152992
v 126.259499 376.179199 -59.035664
v 131.437683 374.908112 -61.846146
v 132.933640 372.050964 -66.937912
v 129.870865 369.281433 -71.328522
v 124.043617 368.221893 -72.446106
vt 0.000000 0.000000
vt 0.039830 0.000000
vt 0.079660 0.000000
vt 0.119490 0.000000
vt 0.159320 0.000000
vt 0.199150 0.000000
vt 0.238980 0.000000
vt 0.278810 0.000000
vt 0.318639 0.000000
vt 0.000000 0.101136
vt 0.039830 0.101136
vt 0.079660 0.101136
vt 0.119490 0.101136
vt 0.159320 0.101136
vt 0.199150 0.101136
vt 0.238980 0.101136
vt 0.278810 0.101136
vt 0.318639 0.101136
vt 0.000000 0.203001
vt 0.039830 0.203001
vt 0.079660 0.203001
vt 0.119490 0.203001
vt 0.159320 0.203001
vt 0.199150 0.203001
vt 0.238980 0.203001
vt 0.278810 0.203001
vt 0.318639 0.203001
vt 0.000000 0.305615
vt 0.039830 0.305615
vt 0.079660 0.305615
vt 0.119490 0.305615
vt 0.159320 0.305615
vt 0.199150 0.305615
vt 0.238980 0.305615
vt 0.278810 0.305615
vt 0.318639 0.305615
vt 0.000000 0.405213
vt 0.039830 0.405213
vt 0.079660 0.405213
vt 0.119490 0.405213
vt 0.159320 0.405213
vt 0.199150 0.405213
vt 0.238980 0.405213
vt 0.278810 0.405213
vt 0.318639 0.405213
vt 0.000000 0.504180
vt 0.039830 0.504180
vt 0.079660 0.504180
vt 0.119490 0.504180
vt 0.159320 0.504180
vt 0.199150 0.504180
vt 0.238980 0.504180
vt 0.278810 0.504180
vt 0.318639 0.504180
vt 0.000000 0.602471
vt 0.039830 0.602471
vt 0.079660 0.602471
vt 0.119490 0.602471
vt 0.159320 0.602471
vt 0.199150 0.602471
vt 0.238980 0.602471
vt 0.278810 0.602471
vt 0.318639 0.602471
vt 0.000000 0.700993
vt 0.039830 0.700993
vt 0.079660 0.700993
vt 0.119490 0.700993
vt 0.159320 0.700993
vt 0.199150 0.700993
vt 0.238980 0.700993
vt 0.278810 0.700993
vt 0.318639 0.700993
vt 0.000000 0.800108
vt 0.039830 0.800108
vt 0.079660 0.800108
vt 0.119490 0.800108
vt 0.159320 0.800108
vt 0.199150 0.800108
vt 0.238980 0.800108
vt 0.278810 0.800108
vt 0.318639 0.800108
vt 0.000000 0.899846
vt 0.039830 0.899846
vt 0.079660 0.899846
vt 0.119490 0.899846
vt 0.159320 0.899846
vt 0.199150 0.899846
vt 0.238980 0.899846
vt 0.278810 0.899846
vt 0.318639 0.899846
vt 0.000000 1.000000
vt 0.039830 1.000000
vt 0.079660 1.000000
vt 0.119490 1.000000
vt 0.159320 1.000000
vt 0.199150 1.000000
vt 0.238980 1.000000
vt 0.278810 1.000000
vt 0.318639 1.000000
vn -0.801716 0.127763 -0.583891
vn -0.980665 0.102166 0.166907
vn -0.982284 0.089258 0.164776
vn -0.804328 0.102017 -0.585363
vn -0.577647 0.032227 0.815650
vn -0.579144 0.039813 0.814252
vn 0.159526 -0.040318 0.986370
vn 0.159233 -0.016869 0.987097
vn 0.803219 -0.073967 0.591074
vn 0.804706 -0.048165 0.591717
vn 0.988432 -0.049777 -0.143267
vn 0.988824 -0.036228 -0.144622
vn 0.601870 0.019121 -0.798365
vn 0.599473 0.012528 -0.800297
vn -0.141576 0.093074 -0.985542
vn -0.145060 0.070032 -0.986941
vn -0.984439 0.068262 0.161925
vn -0.808050 0.055031 -0.586538
vn -0.581234 0.057209 0.811723
vn 0.158471 0.028637 0.986948
vn 0.806054 -0.000821 0.591842
vn 0.989067 -0.014198 -0.146783
vn 0.595691 -0.003553 -0.803206
vn -0.150638 0.025165 -0.988269
vn -0.985204 0.059401 0.160765
vn -0.810377 0.019617 -0.585580
vn -0.582361 0.080078 0.808977
vn 0.157184 0.069915 0.985091
vn 0.805949 0.034955 0.590952
vn 0.988935 -0.004702 -0.148274
vn 0.593212 -0.025916 -0.804629
vn -0.154496 -0.015880 -0.987866
vn -0.985373 0.054787 0.161362
vn -0.811741 -0.016219 -0.583792
vn -0.580897 0.109147 0.806626
vn 0.158396 0.115715 0.980572
vn 0.805981 0.071107 0.587655
vn 0.988923 0.000761 -0.148425
vn 0.593551 -0.054590 -0.802943
vn -0.155055 -0.061818 -0.985970
vn -0.985663 0.041572 0.163522
vn -0.812340 -0.065170 -0.579532
vn -0.578960 0.139054 0.803411
vn 0.160133 0.171027 0.972166
vn 0.805605 0.120109 0.580151
vn 0.988593 0.015265 -0.149837
vn 0.595094 -0.083419 -0.799315
vn -0.153659 -0.117290 -0.981138
vn -0.985191 0.029748 0.168860
vn -0.814731 -0.128574 -0.565405
vn -0.579273 0.184724 0.793927
vn 0.154945 0.247909 0.956312
vn 0.799995 0.184980 0.570781
vn 0.988360 0.030546 -0.149033
vn 0.597395 -0.127641 -0.791724
vn -0.154725 -0.194719 -0.968579
vn -0.985612 0.036530 0.165026
vn -0.814276 -0.192568 -0.547606
vn -0.584446 0.256854 0.769707
vn 0.146302 0.344083 0.927471
vn 0.794402 0.250395 0.553379
vn 0.988553 0.025995 -0.148620
vn 0.598958 -0.201092 -0.775120
vn -0.154621 -0.293021 -0.943521
vn -0.987012 0.048518 0.153142
vn -0.809386 -0.246041 -0.533252
vn -0.589565 0.326773 0.738669
vn 0.143432 0.430296 0.891220
vn 0.794341 0.301628 0.527298
vn 0.988513 0.011627 -0.150687
vn 0.600587 -0.273048 -0.751492
vn -0.148952 -0.381128 -0.912445
vn -0.988151 0.049598 0.145251
vn -0.804657 -0.287795 -0.519328
vn -0.593837 0.370256 0.714331
vn 0.142016 0.489205 0.860529
vn 0.794995 0.339525 0.502698
vn 0.987812 0.006029 -0.155536
vn 0.600913 -0.318668 -0.733044
vn -0.144258 -0.441512 -0.885583
vn -0.988618 0.047380 0.142792
vn -0.802470 -0.306162 -0.512158
vn -0.596074 0.385773 0.704184
vn 0.140891 0.512645 0.846962
vn 0.794996 0.356018 0.491155
vn 0.987278 0.005613 -0.158907
vn 0.600524 -0.335503 -0.725816
vn -0.142573 -0.465512 -0.873482
s 1
g group3 sweep6
usemtl lambert4SG
f 225/253/225 226/254/226 234/263/227 233/262/228
f 226/254/226 227/255/229 235/264/230 234/263/227
f 227/255/229 228/256/231 236/265/232 235/264/230
f 228/256/231 229/257/233 237/266/234 236/265/232
f 229/257/233 230/258/235 238/267/236 237/266/234
f 230/258/235 231/259/237 239/268/238 238/267/236
f 231/259/237 232/260/239 240/269/240 239/268/238
f 232/260/239 225/261/225 233/270/228 240/269/240
f 233/262/228 234/263/227 242/272/241 241/271/242
f 234/263/227 235/264/230 243/273/243 242/272/241
f 235/264/230 236/265/232 244/274/244 243/273/243
f 236/265/232 237/266/234 245/275/245 244/274/244
f 237/266/234 238/267/236 246/276/246 245/275/245
f 238/267/236 239/268/238 247/277/247 246/276/246
f 239/268/238 240/269/240 248/278/248 247/277/247
f 240/269/240 233/270/228 241/279/242 248/278/248
f 241/271/242 242/272/241 250/281/249 249/280/250
f 242/272/241 243/273/243 251/282/251 250/281/249
f 243/273/243 244/274/244 252/283/252 251/282/251
f 244/274/244 245/275/245 253/284/253 252/283/252
f 245/275/245 246/276/246 254/285/254 253/284/253
f 246/276/246 247/277/247 255/286/255 254/285/254
f 247/277/247 248/278/248 256/287/256 255/286/255
f 248/278/248 241/279/242 249/288/250 256/287/256
f 249/280/250 250/281/249 258/290/257 257/289/258
f 250/281/249 251/282/251 259/291/259 258/290/257
f 251/282/251 252/283/252 260/292/260 259/291/259
f 252/283/252 253/284/253 261/293/261 260/292/260
f 253/284/253 254/285/254 262/294/262 261/293/261
f 254/285/254 255/286/255 263/295/263 262/294/262
f 255/286/255 256/287/256 264/296/264 263/295/263
f 256/287/256 249/288/250 257/297/258 264/296/264
f 257/289/258 258/290/257 266/299/265 265/298/266
f 258/290/257 259/291/259 267/300/267 266/299/265
f 259/291/259 260/292/260 268/301/268 267/300/267
f 260/292/260 261/293/261 269/302/269 268/301/268
f 261/293/261 262/294/262 270/303/270 269/302/269
f 262/294/262 263/295/263 271/304/271 270/303/270
f 263/295/263 264/296/264 272/305/272 271/304/271
f 264/296/264 257/297/258 265/306/266 272/305/272
f 265/298/266 266/299/265 274/308/273 273/307/274
f 266/299/265 267/300/267 275/309/275 274/308/273
f 267/300/267 268/301/268 276/310/276 275/309/275
f 268/301/268 269/302/269 277/311/277 276/310/276
f 269/302/269 270/303/270 278/312/278 277/311/277
f 270/303/270 271/304/271 279/313/279 278/312/278
f 271/304/271 272/305/272 280/314/280 279/313/279
f 272/305/272 265/306/266 273/315/274 280/314/280
f 273/307/274 274/308/273 282/317/281 281/316/282
f 274/308/273 275/309/275 283/318/283 282/317/281
f 275/309/275 276/310/276 284/319/284 283/318/283
f 276/310/276 277/311/277 285/320/285 284/319/284
f 277/311/277 278/312/278 286/321/286 285/320/285
f 278/312/278 279/313/279 287/322/287 286/321/286
f 279/313/279 280/314/280 288/323/288 287/322/287
f 280/314/280 273/315/274 281/324/282 288/323/288
f 281/316/282 282/317/281 290/326/289 289/325/290
f 282/317/281 283/318/283 291/327/291 290/326/289
f 283/318/283 284/319/284 292/328/292 291/327/291
f 284/319/284 285/320/285 293/329/293 292/328/292
f 285/320/285 286/321/286 294/330/294 293/329/293
f 286/321/286 287/322/287 295/331/295 294/330/294
f 287/322/287 288/323/288 296/332/296 295/331/295
f 288/323/288 281/324/282 289/333/290 296/332/296
f 289/325/290 290/326/289 298/335/297 297/334/298
f 290/326/289 291/327/291 299/336/299 298/335/297
f 291/327/291 292/328/292 300/337/300 299/336/299
f 292/328/292 293/329/293 301/338/301 300/337/300
f 293/329/293 294/330/294 302/339/302 301/338/301
f 294/330/294 295/331/295 303/340/303 302/339/302
f 295/331/295 296/332/296 304/341/304 303/340/303
f 296/332/296 289/333/290 297/342/298 304/341/304
f 297/334/298 298/335/297 306/344/305 305/343/306
f 298/335/297 299/336/299 307/345/307 306/344/305
f 299/336/299 300/337/300 308/346/308 307/345/307
f 300/337/300 301/338/301 309/347/309 308/346/308
f 301/338/301 302/339/302 310/348/310 309/347/309
f 302/339/302 303/340/303 311/349/311 310/348/310
f 303/340/303 304/341/304 312/350/312 311/349/311
f 304/341/304 297/342/298 305/351/306 312/350/312
