# This file uses centimeters as units for non-parametric coordinates.

mtllib PiedrasPrueba.mtl
g default
v -1.433306 -0.028359 4.905293
v 1.469549 -0.030293 5.100949
v -0.874758 2.164194 4.394748
v 0.981486 2.181306 4.505136
v -0.849168 2.197768 2.687401
v 1.151547 2.193399 2.677888
v -1.360084 -0.032337 2.068583
v 1.520207 -0.032016 2.036113
v -1.743918 0.398486 1.672638
v -1.881449 0.404479 5.263949
v 1.922134 0.398698 5.535929
v 1.928049 0.397751 1.604488
v -1.436017 1.389561 2.054752
v -1.527779 1.421755 4.898500
v 1.594765 1.379750 5.134543
v 1.684990 1.389757 2.013863
v -1.776535 0.101966 5.197900
v -1.672481 0.101664 1.730923
v 1.835719 0.102593 5.472126
v 1.867045 0.101338 1.673344
v -1.798396 0.871788 5.148850
v -1.659938 0.844452 1.791690
v 1.837575 0.841338 5.409582
v 1.847572 0.844580 1.724321
v 1.285195 1.869015 4.817709
v -1.198789 1.894032 4.629830
v 1.449345 1.876868 2.343966
v -1.143238 1.880857 2.366032
v 0.418039 1.394199 5.692214
v -0.415260 1.406189 5.630757
v -0.340653 1.884147 5.202216
v 0.405074 1.876868 5.254113
v -0.285990 2.223603 4.660771
v 0.383032 2.235394 4.693089
v -0.313873 2.408085 3.237811
v -0.314888 2.386673 3.938573
v 0.397427 2.402516 3.947931
v 0.406044 2.421089 3.239042
v -0.992247 2.220804 3.926787
v -0.993463 2.238219 3.281816
v 1.326213 2.239636 3.299815
v 1.282048 2.236212 3.965090
v -0.273595 2.277033 2.471524
v 0.424349 2.278950 2.455287
v -0.309379 1.867061 1.878295
v 0.454372 1.866006 1.857463
v -0.367303 1.353733 1.410105
v 0.466136 1.353709 1.387267
v 0.451032 -0.060237 1.624502
v -0.374447 -0.060416 1.639338
v -0.442393 -0.072759 3.975924
v -0.432537 -0.074775 3.057843
v 0.482331 -0.074824 3.062966
v 0.473761 -0.073108 3.990301
v -1.713594 -0.053892 3.184374
v -1.724199 -0.051689 4.002256
v 1.989703 -0.052943 4.078490
v 1.988901 -0.054393 3.219177
v -0.421657 -0.054089 5.358453
v 0.406067 -0.055353 5.410336
v 2.287672 1.398111 3.320461
v 2.278898 1.391554 4.151780
v 1.839232 1.878858 4.072020
v 1.869857 1.883756 3.327570
v -1.916336 1.418051 4.059589
v -1.909011 1.409620 3.273622
v -1.483972 1.893814 3.281528
v -1.484331 1.896872 3.990718
v -2.284654 0.098783 3.191212
v -2.299142 0.098902 4.067121
v -2.395880 0.401309 3.221684
v -2.416490 0.402839 4.113828
v -0.456745 0.098782 5.997746
v 0.441610 0.098749 6.063685
v -0.487476 0.398910 6.099620
v 0.437936 0.397258 6.165056
v 2.685876 0.101068 4.172594
v 2.674207 0.100708 3.243140
v 2.790429 0.399895 4.201242
v 2.773539 0.400017 3.255332
v 0.494378 0.389590 0.887119
v -0.409802 0.389804 0.911457
v -0.391071 0.094405 1.007911
v 0.495894 0.094200 0.986090
v -2.258738 0.859666 3.254815
v -2.278306 0.866640 4.112183
v -0.479157 0.854701 5.962180
v 0.424188 0.846269 6.026588
v 2.643433 0.848962 4.198267
v 2.629297 0.852028 3.287786
v -0.405527 0.813412 1.061047
v 0.477312 0.813530 1.035144
v 2.770510 0.231544 3.246732
v 2.889581 0.400113 3.754153
v 2.785533 0.231771 4.193464
v 2.727526 0.608948 3.269981
v 2.745042 0.607642 4.204120
v 0.036467 0.388324 0.815875
v -0.411420 0.584933 0.959729
v 0.485831 0.584884 0.934208
v 0.500752 0.225381 0.892741
v -0.402613 0.225654 0.915960
v -0.994717 1.414990 5.316564
v -0.798150 1.889314 4.953270
v -1.367053 1.674613 4.765530
v 1.004958 1.385272 5.484838
v 1.447234 1.636063 4.980873
v 0.850782 1.871696 5.088595
v 1.105963 2.071227 4.640056
v 0.710981 2.225482 4.598503
v -0.629673 2.204207 4.516315
v -1.025011 2.069069 4.487200
v -0.944052 2.202639 4.188659
v 1.121828 2.224892 4.271242
v 1.260474 2.230718 2.951518
v 0.846153 2.249670 2.564246
v -0.608884 2.251484 2.580296
v -0.931313 2.234356 2.947163
v -0.749397 1.873127 2.059427
v -0.985313 2.084010 2.546636
v 1.305364 2.078106 2.532321
v 0.970491 1.870883 2.028942
v 1.576036 1.645632 2.173806
v 1.081941 1.371433 1.603207
v -0.916786 1.370545 1.645800
v -1.295036 1.647269 2.204163
v -0.928065 -0.050840 1.828289
v -1.560179 -0.047770 2.562778
v 1.036952 -0.050371 1.796312
v 1.767770 -0.047591 2.557434
v 1.735636 -0.046113 4.651089
v 0.979534 -0.047529 5.281153
v -0.995583 -0.045293 5.133979
v -1.608941 -0.044062 4.495202
v 2.021326 1.383952 4.649589
v 1.622209 1.872852 4.458471
v 2.074493 1.397301 2.661861
v 1.732107 1.881487 2.822953
v -1.750930 1.401943 2.661216
v -1.373899 1.888198 2.811634
v -1.804000 1.421619 4.469233
v -1.403048 1.896322 4.311319
v -2.072663 0.100867 2.461202
v -1.536383 0.011519 1.875638
v -1.629062 0.013762 5.056028
v -2.136171 0.100767 4.621278
v -1.856480 0.231812 5.260856
v -2.253557 0.404220 4.674835
v -2.167879 0.400526 2.449295
v -1.734895 0.230766 1.671024
v -1.131290 0.100688 5.673942
v 1.656288 0.012924 5.309362
v 1.125993 0.100844 5.865838
v 1.912639 0.231450 5.538251
v 1.167062 0.397823 5.950868
v -1.199075 0.401976 5.759109
v 2.362567 0.102209 4.830557
v 1.708237 0.011786 1.825832
v 2.367882 0.101620 2.454192
v 1.928746 0.230077 1.607254
v 2.452783 0.399564 2.427434
v 2.465601 0.399405 4.873944
v -1.080578 0.394052 1.178535
v -1.038166 0.098399 1.262854
v 1.200076 0.393580 1.120520
v 1.172737 0.097919 1.211089
v -2.051378 0.854166 2.524147
v -1.719840 0.604490 1.712460
v -1.863993 0.621142 5.226233
v -2.137197 0.871022 4.616591
v -1.678942 1.146403 5.032940
v -1.561491 1.114049 1.911524
v -1.157028 0.864242 5.623379
v 1.899287 0.603539 5.493346
v 1.122241 0.842739 5.808153
v 1.730473 1.107458 5.283713
v 2.344455 0.844510 4.808506
v 1.899663 0.604108 1.641970
v 2.336100 0.851034 2.502478
v 1.775758 1.114601 1.856160
v -1.039835 0.828137 1.319926
v 1.155819 0.828823 1.261356
v 0.000146 1.400215 5.748414
v -0.451665 1.129103 5.814610
v -0.030848 0.849483 6.087256
v 0.420860 1.118204 5.878068
v 0.413289 1.648238 5.485237
v 0.034175 1.880508 5.297242
v -0.377756 1.659656 5.427447
v 0.391860 2.076637 4.995820
v 0.051144 2.234383 4.716770
v -0.305450 2.074304 4.952598
v 0.387977 2.340988 4.328655
v 0.024429 2.415089 3.944972
v -0.296118 2.325522 4.308912
v 0.026244 2.436453 3.229862
v 0.413250 2.378970 2.841256
v 0.060958 2.287130 2.427117
v -0.290801 2.371497 2.848792
v -0.321354 2.413668 3.591305
v -0.666456 2.343719 3.260475
v -1.011246 2.233183 3.616432
v -0.666190 2.322611 3.927291
v 0.402110 2.429077 3.596330
v 0.849773 2.343608 3.948890
v 1.341790 2.241297 3.639477
v 0.877678 2.354259 3.267764
v -1.256854 2.086450 3.285794
v -1.516044 1.896371 3.661005
v -1.255829 2.079148 3.952723
v 1.594835 2.078177 4.013770
v 1.913673 1.882686 3.719490
v 1.636719 2.080895 3.318983
v 0.439965 2.097259 2.133445
v 0.059813 1.864710 1.809110
v -0.283715 2.097820 2.153286
v 0.461842 1.617301 1.609069
v 0.038363 1.347965 1.323414
v -0.338805 1.617956 1.630772
v 0.471020 1.077796 1.191061
v 0.028526 0.808468 0.967247
v -0.390183 1.077615 1.215685
v 0.032909 -0.063567 1.571793
v -0.376391 -0.002020 1.221988
v 0.047454 0.093017 0.917010
v 0.470743 -0.002009 1.202180
v 0.462498 -0.077474 2.336543
v 0.007259 -0.075010 3.036520
v -0.401113 -0.077580 2.341110
v -0.002589 -0.073184 3.975441
v 0.435535 -0.073910 4.705936
v -0.007719 -0.057491 5.443337
v -0.429422 -0.072968 4.673501
v -0.444864 -0.073265 3.520076
v -1.093907 -0.071593 3.984037
v -1.763676 -0.055082 3.614757
v -1.083924 -0.073914 3.122697
v 0.487722 -0.073390 3.528432
v 1.239545 -0.074425 3.141422
v 2.068501 -0.055940 3.663691
v 1.234911 -0.072767 4.028214
v -2.100338 0.004953 4.033052
v -2.354391 0.098184 3.658476
v -2.088240 0.003825 3.196167
v 2.440396 0.004690 3.243519
v 2.784980 0.100546 3.729698
v 2.446978 0.005582 4.130443
v 0.418380 0.003010 5.838499
v -0.009207 0.098099 6.117657
v -0.434804 0.003684 5.776427
v 2.361744 1.396234 3.762919
v 2.479657 1.117802 4.179856
v 2.735061 0.851403 3.772204
v 2.475677 1.122945 3.305854
v 2.086287 1.653938 3.327881
v 2.066338 1.647611 4.116929
v -1.957742 1.414520 3.700399
v -2.102119 1.133006 3.266010
v -2.326600 0.863339 3.721209
v -2.115965 1.141319 4.090151
v -1.705146 1.673204 4.026392
v -1.702159 1.665713 3.278132
v -2.397426 0.230728 4.095159
v -2.471341 0.401974 3.702986
v -2.379629 0.230524 3.202644
v -2.377632 0.617645 4.119788
v -2.356120 0.613395 3.239557
v 0.444891 0.229435 6.159151
v -0.027691 0.397479 6.224788
v -0.475360 0.229633 6.092732
v 0.430457 0.604412 6.121559
v -0.489917 0.609285 6.056643
v -0.017955 1.123170 5.937432
v 0.017981 1.653853 5.535797
v 0.047354 2.076604 5.030404
v 0.039169 2.346087 4.337828
v 0.043990 2.391518 2.823908
v -0.678140 2.343084 3.600587
v 0.881629 2.359335 3.612352
v -1.281483 2.084137 3.637826
v 1.665902 2.080728 3.679513
v 0.064945 2.100461 2.094866
v 0.049424 1.613070 1.551806
v 0.031212 1.071814 1.124395
v 0.043060 -0.004574 1.139321
v 0.019463 -0.079452 2.297990
v -0.005787 -0.075181 4.713937
v -1.114042 -0.073834 3.565385
v 1.280470 -0.074643 3.592729
v -2.150741 0.002639 3.641035
v 2.541241 0.003558 3.706130
v -0.007341 0.001408 5.885508
v 2.566911 1.121588 3.771513
v 2.144809 1.652228 3.746434
v -2.160958 1.137599 3.714569
v -1.742117 1.670305 3.682203
v -2.453781 0.230409 3.681333
v -2.429504 0.615541 3.716813
v -0.017866 0.229164 6.216997
v -0.033056 0.605919 6.182291
v 2.886011 0.231714 3.744050
v 2.840941 0.608793 3.764978
v 0.030855 0.581777 0.864467
v 0.043628 0.224693 0.821292
v -0.898190 1.667953 5.140891
v 0.932434 1.640504 5.295059
v 0.757895 2.073492 4.861223
v -0.696380 2.070646 4.750025
v -0.634822 2.282257 4.237302
v 0.767248 2.307255 4.286000
v 0.852778 2.328202 2.906503
v -0.626922 2.324557 2.910240
v -0.661690 2.090384 2.301058
v 0.897023 2.087164 2.276671
v 1.031658 1.631026 1.806224
v -0.836059 1.631582 1.842303
v -0.994618 -0.071801 2.464232
v 1.123378 -0.071708 2.458439
v 1.091627 -0.069202 4.663729
v -1.032454 -0.067228 4.570396
v 1.829508 1.640328 4.558286
v 1.912137 1.652504 2.742349
v 1.534235 2.078019 2.908172
v 1.396565 2.073899 4.345761
v -1.568434 1.658340 2.734112
v -1.608081 1.675502 4.390766
v -1.190916 2.073015 4.228641
v -1.170916 2.084553 2.898473
v -1.896924 0.008853 2.532170
v -1.952944 0.010427 4.538497
v -2.230331 0.231483 4.664543
v -2.155207 0.231072 2.438668
v -1.049196 0.009659 5.484303
v 1.027550 0.008672 5.662358
v 1.165179 0.230431 5.950082
v -1.179861 0.230856 5.755469
v 2.140712 0.010299 4.731789
v 2.161339 0.009440 2.527284
v 2.451192 0.231185 2.424362
v 2.456917 0.231790 4.872122
v -1.073076 0.228319 1.181329
v 1.203862 0.227659 1.125721
v 1.085253 0.005707 1.407574
v -0.966205 0.005620 1.453169
v -2.134004 0.610288 2.477807
v -2.223983 0.620624 4.658698
v -1.988787 1.145739 4.548972
v -1.917799 1.125968 2.588255
v -1.193101 0.615860 5.715086
v 1.153595 0.603410 5.903975
v 1.070461 1.111355 5.662154
v -1.085948 1.138852 5.483966
v 2.430464 0.605420 4.853485
v 2.414165 0.608183 2.453049
v 2.219345 1.122109 2.576993
v 2.200525 1.111350 4.736768
v -0.986685 1.094812 1.466031
v 1.122759 1.095944 1.414582
v 1.182826 0.594335 1.164533
v -1.070315 0.594271 1.224414
v 0.019922 2.444761 3.589600
v 0.000834 -0.073024 3.505986
vt 0.375000 1.000000
vt 0.375000 0.000000
vt 0.625000 1.000000
vt 0.625000 0.000000
vt 0.375000 0.250000
vt 0.625000 0.250000
vt 0.375000 0.500000
vt 0.125000 0.250000
vt 0.625000 0.500000
vt 0.875000 0.250000
vt 0.375000 0.750000
vt 0.125000 0.000000
vt 0.625000 0.750000
vt 0.875000 0.000000
vt 0.125000 0.050503
vt 0.375000 0.699497
vt 0.375709 0.067918
vt 0.623846 0.067918
vt 0.875000 0.050503
vt 0.625000 0.699497
vt 0.375000 0.537534
vt 0.125000 0.212465
vt 0.376272 0.193024
vt 0.623076 0.193024
vt 0.625000 0.537534
vt 0.875000 0.212465
vt 0.375606 0.026993
vt 0.125000 0.025251
vt 0.375000 0.724749
vt 0.623898 0.026993
vt 0.875000 0.025251
vt 0.625000 0.724749
vt 0.375938 0.131281
vt 0.125000 0.131484
vt 0.375000 0.618516
vt 0.623567 0.131281
vt 0.875000 0.131484
vt 0.625000 0.618516
vt 0.622416 0.229587
vt 0.376571 0.229563
vt 0.625000 0.518767
vt 0.875000 0.231233
vt 0.375000 0.518767
vt 0.125000 0.231233
vt 0.528068 0.193024
vt 0.468412 0.193024
vt 0.464235 0.231232
vt 0.531202 0.231355
vt 0.457721 0.268649
vt 0.535771 0.269642
vt 0.454302 0.421712
vt 0.455780 0.328609
vt 0.535859 0.329841
vt 0.535779 0.416468
vt 0.375000 0.317626
vt 0.307374 0.250000
vt 0.388448 0.375000
vt 0.375000 0.420933
vt 0.204067 0.250000
vt 0.612901 0.375000
vt 0.794854 0.250000
vt 0.625000 0.419854
vt 0.625000 0.312506
vt 0.687506 0.250000
vt 0.456961 0.480974
vt 0.536731 0.479814
vt 0.463505 0.518203
vt 0.533104 0.518101
vt 0.467672 0.553420
vt 0.530504 0.553540
vt 0.532130 0.772166
vt 0.467356 0.771998
vt 0.473034 0.904770
vt 0.467086 0.845562
vt 0.531310 0.846153
vt 0.522050 0.902699
vt 0.375000 0.849809
vt 0.224809 0.000000
vt 0.387078 0.875000
vt 0.375000 0.907479
vt 0.282479 -0.000000
vt 0.612199 0.875000
vt 0.716743 0.000000
vt 0.625000 0.908257
vt 0.625000 0.851575
vt 0.773425 0.000000
vt 0.500000 0.985238
vt 0.473569 0.000000
vt 0.473569 1.000000
vt 0.522519 1.000000
vt 0.522519 0.000000
vt 0.778027 0.196038
vt 0.710115 0.193283
vt 0.703123 0.229332
vt 0.782151 0.229791
vt 0.288768 0.193303
vt 0.220501 0.196161
vt 0.216111 0.229811
vt 0.294478 0.229335
vt 0.222101 0.026574
vt 0.282757 0.026959
vt 0.223035 0.065407
vt 0.282681 0.067717
vt 0.470553 0.026993
vt 0.526539 0.026993
vt 0.471272 0.067918
vt 0.525875 0.067918
vt 0.716527 0.026962
vt 0.776413 0.026591
vt 0.716888 0.067734
vt 0.775700 0.065507
vt 0.528825 0.684933
vt 0.470750 0.684956
vt 0.470187 0.725607
vt 0.529456 0.725610
vt 0.222651 0.131386
vt 0.284659 0.131295
vt 0.470638 0.131281
vt 0.526304 0.131281
vt 0.714787 0.131294
vt 0.776078 0.131382
vt 0.469935 0.618605
vt 0.529283 0.618621
vt 0.498149 0.164198
vt 0.497750 0.214072
vt 0.496879 0.249782
vt 0.495673 0.297773
vt 0.495680 0.450510
vt 0.418386 0.359856
vt 0.577001 0.358330
vt 0.255973 0.240616
vt 0.741277 0.240616
vt 0.497260 0.500349
vt 0.498588 0.534375
vt 0.499294 0.584249
vt 0.499787 0.747084
vt 0.499502 0.809635
vt 0.504401 0.948177
vt 0.426863 0.869702
vt 0.571344 0.869936
vt 0.253099 0.012626
vt 0.745607 0.012626
vt 0.498212 0.012626
vt 0.744057 0.164890
vt 0.742317 0.214764
vt 0.254737 0.164944
vt 0.255780 0.214819
vt 0.252897 0.044308
vt 0.253690 0.097424
vt 0.498382 0.044843
vt 0.498327 0.097960
vt 0.745993 0.044352
vt 0.745355 0.097468
vt 0.499693 0.653226
vt 0.499789 0.706343
vt 0.423788 0.214072
vt 0.573962 0.214072
vt 0.577597 0.245396
vt 0.419282 0.245002
vt 0.415839 0.290063
vt 0.579834 0.290243
vt 0.580512 0.454368
vt 0.415168 0.456339
vt 0.418621 0.505062
vt 0.578639 0.504671
vt 0.575556 0.531295
vt 0.423031 0.531231
vt 0.423614 0.804603
vt 0.575888 0.805377
vt 0.573642 0.952739
vt 0.424151 0.953062
vt 0.667117 0.214072
vt 0.825200 0.218652
vt 0.830854 0.240616
vt 0.660423 0.240616
vt 0.173867 0.218707
vt 0.331913 0.214072
vt 0.337590 0.240616
vt 0.168383 0.240616
vt 0.176136 0.012626
vt 0.326963 0.012626
vt 0.325267 0.044843
vt 0.177630 0.040825
vt 0.425682 0.012626
vt 0.572530 0.012626
vt 0.571122 0.044843
vt 0.427260 0.044843
vt 0.672670 0.012626
vt 0.822937 0.012626
vt 0.821487 0.040869
vt 0.674506 0.044843
vt 0.426642 0.709239
vt 0.573147 0.709227
vt 0.574740 0.742241
vt 0.425047 0.742218
vt 0.177687 0.093941
vt 0.326003 0.097960
vt 0.328245 0.164198
vt 0.176492 0.168833
vt 0.427233 0.097960
vt 0.571094 0.097960
vt 0.571990 0.164198
vt 0.426158 0.164198
vt 0.673839 0.097960
vt 0.821516 0.093985
vt 0.822669 0.168778
vt 0.671388 0.164198
vt 0.425340 0.581105
vt 0.573954 0.581169
vt 0.573233 0.656110
vt 0.426461 0.656123
vt 0.495050 0.373153
vt 0.498388 0.876792
vt 0.497989 0.193024
vt 0.469735 0.164198
vt 0.498253 0.131281
vt 0.527025 0.164198
vt 0.529390 0.214072
vt 0.497393 0.231580
vt 0.466672 0.214072
vt 0.533716 0.248882
vt 0.496281 0.271054
vt 0.460823 0.248389
vt 0.536211 0.296621
vt 0.495210 0.331339
vt 0.456216 0.295115
vt 0.495203 0.415461
vt 0.537060 0.450623
vt 0.496395 0.478680
vt 0.455380 0.452818
vt 0.455883 0.369951
vt 0.421375 0.398356
vt 0.414651 0.421322
vt 0.381724 0.346313
vt 0.255720 0.250000
vt 0.416254 0.323157
vt 0.535538 0.369325
vt 0.579040 0.322607
vt 0.618950 0.343753
vt 0.741180 0.250000
vt 0.574340 0.395734
vt 0.580389 0.418161
vt 0.211972 0.240616
vt 0.256051 0.229475
vt 0.298481 0.240616
vt 0.698348 0.240616
vt 0.741585 0.229461
vt 0.786387 0.240616
vt 0.535114 0.501234
vt 0.498062 0.518064
vt 0.460091 0.501722
vt 0.531592 0.533636
vt 0.498958 0.554647
vt 0.465936 0.533557
vt 0.529765 0.583511
vt 0.499553 0.618627
vt 0.468999 0.583431
vt 0.499706 0.773890
vt 0.468755 0.745856
vt 0.499796 0.725731
vt 0.530871 0.745885
vt 0.532236 0.808737
vt 0.499090 0.846531
vt 0.466892 0.808210
vt 0.499468 0.908110
vt 0.530653 0.950904
vt 0.511260 0.992619
vt 0.498044 0.000000
vt 0.486517 0.945004
vt 0.473302 0.952385
vt 0.467657 0.875124
vt 0.430056 0.889885
vt 0.424017 0.906124
vt 0.381039 0.862404
vt 0.253644 0.000000
vt 0.424455 0.843336
vt 0.529478 0.874974
vt 0.574590 0.844339
vt 0.618600 0.863287
vt 0.745084 0.000000
vt 0.567125 0.888850
vt 0.573525 0.905478
vt 0.284478 0.012626
vt 0.252776 0.026859
vt 0.220945 0.012626
vt 0.777574 0.012626
vt 0.745965 0.026870
vt 0.714739 0.012626
vt 0.527716 0.012626
vt 0.498338 0.026993
vt 0.469155 0.012626
vt 0.743224 0.194061
vt 0.712749 0.164371
vt 0.744780 0.131332
vt 0.776851 0.166208
vt 0.779579 0.216082
vt 0.706976 0.214245
vt 0.255297 0.194143
vt 0.221799 0.166290
vt 0.254177 0.131334
vt 0.286491 0.164385
vt 0.291336 0.214259
vt 0.218779 0.216164
vt 0.282308 0.044709
vt 0.253267 0.067115
vt 0.222762 0.043169
vt 0.283427 0.097826
vt 0.223031 0.096286
vt 0.525998 0.044843
vt 0.498369 0.067918
vt 0.471170 0.044843
vt 0.525949 0.097960
vt 0.471123 0.097960
vt 0.775857 0.043236
vt 0.745765 0.067182
vt 0.717130 0.044720
vt 0.775734 0.096352
vt 0.716137 0.097837
vt 0.499757 0.683861
vt 0.470499 0.653957
vt 0.528964 0.653941
vt 0.528881 0.707057
vt 0.470749 0.707073
vt 0.425132 0.193024
vt 0.421910 0.230385
vt 0.376425 0.214072
vt 0.572857 0.193024
vt 0.622770 0.214072
vt 0.575483 0.230484
vt 0.622005 0.241811
vt 0.579361 0.263690
vt 0.416921 0.263152
vt 0.376718 0.241713
vt 0.375000 0.283813
vt 0.341187 0.250000
vt 0.625000 0.281253
vt 0.656253 0.250000
vt 0.625000 0.459927
vt 0.834927 0.250000
vt 0.580105 0.485047
vt 0.416290 0.486028
vt 0.375000 0.460466
vt 0.164534 0.250000
vt 0.421192 0.518457
vt 0.375000 0.509384
vt 0.125000 0.240616
vt 0.625000 0.509384
vt 0.875000 0.240616
vt 0.576871 0.518375
vt 0.625000 0.528151
vt 0.875000 0.221849
vt 0.574612 0.550027
vt 0.424346 0.549931
vt 0.375000 0.528151
vt 0.125000 0.221849
vt 0.423943 0.766549
vt 0.375000 0.799904
vt 0.174904 0.000000
vt 0.575763 0.766771
vt 0.625000 0.800787
vt 0.824213 0.000000
vt 0.625000 0.954128
vt 0.670872 0.000000
vt 0.573760 1.000000
vt 0.573760 0.000000
vt 0.424285 1.000000
vt 0.424285 0.000000
vt 0.375000 0.953739
vt 0.328739 -0.000000
vt 0.669447 0.193024
vt 0.664181 0.229289
vt 0.823777 0.199894
vt 0.827404 0.230434
vt 0.175341 0.199976
vt 0.171678 0.230447
vt 0.329955 0.193024
vt 0.334372 0.229289
vt 0.177125 0.025988
vt 0.125000 0.012626
vt 0.375000 0.737374
vt 0.375661 0.012626
vt 0.325651 0.026993
vt 0.375632 0.044843
vt 0.325492 0.067918
vt 0.177775 0.061890
vt 0.125000 0.037877
vt 0.375000 0.712123
vt 0.426775 0.026993
vt 0.623800 0.012626
vt 0.571563 0.026993
vt 0.623907 0.044843
vt 0.571026 0.067918
vt 0.427344 0.067918
vt 0.674028 0.026993
vt 0.875000 0.012626
vt 0.625000 0.737374
vt 0.821937 0.025999
vt 0.875000 0.037877
vt 0.625000 0.712123
vt 0.821407 0.061957
vt 0.674358 0.067918
vt 0.426649 0.688205
vt 0.426191 0.725239
vt 0.573109 0.688186
vt 0.573605 0.725241
vt 0.177286 0.131435
vt 0.125000 0.090993
vt 0.375000 0.659007
vt 0.375809 0.097960
vt 0.326891 0.131281
vt 0.376101 0.164198
vt 0.125000 0.171975
vt 0.375000 0.578025
vt 0.426860 0.131281
vt 0.623733 0.097960
vt 0.571393 0.131281
vt 0.623345 0.164198
vt 0.672874 0.131281
vt 0.875000 0.090993
vt 0.625000 0.659007
vt 0.821906 0.131433
vt 0.875000 0.171975
vt 0.625000 0.578025
vt 0.426038 0.618565
vt 0.573515 0.618578
vn 0.210703 0.587516 0.781300
vn -0.050126 0.599502 0.798802
vn -0.056124 0.522836 0.850584
vn 0.213381 0.517032 0.828943
vn -0.311541 0.590413 0.744550
vn -0.326551 0.519136 0.789850
vn -0.341385 0.421459 0.840136
vn -0.062455 0.426540 0.902310
vn 0.214412 0.427754 0.878097
vn -0.043662 0.677274 0.734434
vn -0.286771 0.662412 0.692079
vn 0.198640 0.660927 0.723684
vn 0.173626 0.741730 0.647835
vn -0.037640 0.758462 0.650629
vn -0.248634 0.744373 0.619751
vn -0.033721 0.845755 0.532505
vn -0.198573 0.834529 0.513935
vn 0.132333 0.832436 0.538087
vn 0.084174 0.924335 0.372183
vn -0.030943 0.928522 0.369985
vn -0.146994 0.919331 0.364998
vn -0.027295 0.973814 0.225701
vn -0.123404 0.967042 0.222715
vn 0.068402 0.974136 0.215361
vn 0.081878 0.989982 0.115033
vn -0.024202 0.991717 0.126145
vn -0.130641 0.983886 0.122070
vn -0.130124 0.989768 -0.058541
vn -0.017188 0.997630 -0.066623
vn -0.012151 0.983418 -0.180949
vn -0.117787 0.978045 -0.171911
vn 0.094630 0.993633 -0.061145
vn 0.092121 0.980827 -0.171731
vn 0.106872 0.923833 -0.367574
vn -0.011280 0.926295 -0.376630
vn -0.132599 0.919655 -0.369666
vn -0.138337 0.989934 0.029880
vn -0.246407 0.968725 0.029232
vn -0.232849 0.966664 0.106503
vn -0.241147 0.969419 -0.045555
vn -0.404840 0.912840 -0.053178
vn -0.394652 0.918558 0.022390
vn -0.376638 0.921534 0.094439
vn 0.094130 0.995232 0.025564
vn 0.192876 0.980952 0.023051
vn 0.192719 0.979897 -0.051586
vn 0.181819 0.977497 0.106962
vn 0.331148 0.933117 0.140121
vn 0.340908 0.939730 0.026260
vn 0.347634 0.935705 -0.060063
vn -0.562246 0.826927 0.008460
vn -0.543518 0.833454 0.099716
vn -0.579258 0.810338 -0.088386
vn -0.684377 0.718840 -0.122053
vn -0.675229 0.737601 -0.003251
vn -0.659000 0.743113 0.116196
vn 0.541850 0.839825 0.033051
vn 0.559746 0.822559 -0.100411
vn 0.508226 0.835487 0.208970
vn 0.621903 0.739991 0.256225
vn 0.672803 0.739106 0.032536
vn 0.688424 0.711230 -0.142215
vn -0.014414 0.820583 -0.571346
vn -0.167813 0.812741 -0.557934
vn 0.134609 0.816265 -0.561776
vn 0.156537 0.730929 -0.664258
vn -0.017016 0.739768 -0.672647
vn -0.195398 0.731231 -0.653545
vn -0.019320 0.679309 -0.733598
vn -0.218938 0.668938 -0.710344
vn 0.175582 0.665953 -0.725036
vn 0.192482 0.602495 -0.774565
vn -0.022107 0.614794 -0.788378
vn -0.240629 0.604774 -0.759175
vn -0.024411 0.547147 -0.836681
vn -0.256933 0.537685 -0.803044
vn 0.204814 0.538107 -0.817614
vn 0.217474 0.455332 -0.863353
vn -0.026323 0.463716 -0.885593
vn -0.272640 0.452216 -0.849216
vn 0.026674 -0.997158 -0.070464
vn -0.001329 -0.997519 -0.070382
vn -0.005875 -0.968446 -0.249156
vn 0.069891 -0.967972 -0.241134
vn -0.031091 -0.996832 -0.073203
vn -0.085234 -0.965035 -0.247875
vn -0.191185 -0.784373 -0.590091
vn -0.013585 -0.793781 -0.608052
vn 0.158080 -0.793065 -0.588268
vn -0.000071 -0.999955 -0.009509
vn -0.010310 -0.999868 -0.012588
vn 0.009242 -0.999882 -0.012307
vn 0.001901 -0.999997 0.001830
vn -0.000030 -0.999990 0.004424
vn -0.002454 -0.999995 0.002212
vn -0.002801 -0.999995 0.001630
vn -0.000511 -1.000000 -0.000916
vn -0.001675 -0.999927 0.011998
vn -0.010779 -0.999819 0.015708
vn 0.001347 -0.999999 0.001049
vn 0.006535 -0.999877 0.014280
vn 0.020163 -0.997189 0.072169
vn -0.005977 -0.997441 0.071252
vn -0.034546 -0.996562 0.075309
vn -0.000125 -0.999997 0.002252
vn -0.015111 -0.999883 0.002229
vn -0.019126 -0.999806 -0.004628
vn -0.017540 -0.999812 0.008215
vn -0.077631 -0.996701 0.023700
vn -0.078588 -0.996907 0.001134
vn -0.084285 -0.996202 -0.021860
vn -0.000566 -0.999998 0.001840
vn 0.012660 -0.999918 0.001667
vn 0.014699 -0.999855 0.008610
vn 0.016572 -0.999846 -0.005827
vn 0.073779 -0.996930 -0.026231
vn 0.069073 -0.997611 0.000993
vn 0.067932 -0.997203 0.031178
vn -0.266308 -0.963883 -0.003200
vn -0.271294 -0.960228 -0.066043
vn -0.256406 -0.964534 0.062689
vn -0.590799 -0.795422 0.135132
vn -0.621116 -0.783609 -0.013128
vn -0.624208 -0.766682 -0.150211
vn 0.232943 -0.972489 -0.001667
vn 0.217120 -0.972133 0.088417
vn 0.235669 -0.968609 -0.079100
vn 0.575091 -0.795934 -0.189100
vn 0.581580 -0.813449 -0.008069
vn 0.532115 -0.821410 0.205278
vn -0.018294 -0.969968 0.242545
vn -0.098337 -0.965604 0.240705
vn 0.056075 -0.969599 0.238188
vn 0.131812 -0.803929 0.579934
vn -0.041138 -0.805098 0.591714
vn -0.223441 -0.794710 0.564367
vn 0.790070 0.576873 -0.207381
vn 0.788840 0.614471 0.012545
vn 0.831511 0.555508 0.000506
vn 0.822393 0.516660 -0.238184
vn 0.735718 0.611827 0.290493
vn 0.778440 0.550864 0.300964
vn 0.835235 0.449040 0.317405
vn 0.887667 0.460395 -0.009117
vn 0.861962 0.430672 -0.267476
vn 0.741763 0.670233 0.023974
vn 0.689616 0.668699 0.277979
vn 0.750092 0.637633 -0.175459
vn -0.775265 0.613753 0.149237
vn -0.791156 0.611447 -0.014341
vn -0.835855 0.548635 -0.018610
vn -0.819120 0.549660 0.164060
vn -0.789576 0.591034 -0.165075
vn -0.829386 0.527573 -0.183808
vn -0.878151 0.433186 -0.202977
vn -0.893310 0.448936 -0.021299
vn -0.877685 0.443011 0.182787
vn -0.743017 0.669202 -0.009719
vn -0.745376 0.650588 -0.145435
vn -0.728507 0.671883 0.133609
vn -0.938784 -0.343954 -0.019508
vn -0.926482 -0.304032 -0.221801
vn -0.903252 -0.377657 0.203745
vn -0.975491 0.031231 0.217811
vn -0.997879 0.061776 -0.020527
vn -0.969283 0.081977 -0.231886
vn -0.956033 0.292441 -0.021903
vn -0.931217 0.290012 -0.220746
vn -0.939780 0.274501 0.203622
vn -0.065093 -0.321443 0.944689
vn -0.345930 -0.325864 0.879855
vn 0.209754 -0.300377 0.930471
vn 0.221425 0.110130 0.968939
vn -0.071092 0.090108 0.993392
vn -0.368304 0.074673 0.926702
vn -0.067641 0.288891 0.954969
vn -0.357312 0.278371 0.891537
vn 0.217910 0.298777 0.929111
vn 0.950187 -0.311352 -0.014277
vn 0.882128 -0.334267 0.331838
vn 0.912845 -0.279366 -0.297772
vn 0.943088 0.123989 -0.308565
vn 0.993188 0.115174 -0.017668
vn 0.932275 0.089059 0.350618
vn 0.948839 0.315392 -0.015250
vn 0.894418 0.294066 0.336960
vn 0.906707 0.304065 -0.292279
vn 0.249466 0.119974 -0.960923
vn -0.026881 0.116525 -0.992824
vn -0.027174 0.332436 -0.942734
vn 0.234367 0.326065 -0.915835
vn -0.305373 0.107275 -0.946171
vn -0.290934 0.319183 -0.901931
vn -0.022299 -0.310080 -0.950449
vn -0.290226 -0.305617 -0.906845
vn 0.241797 -0.298634 -0.923229
vn -0.573263 0.605594 0.551929
vn -0.435516 0.591832 0.678278
vn -0.412930 0.653427 0.634446
vn -0.541970 0.660284 0.519898
vn -0.371910 0.732072 0.570748
vn -0.489317 0.734575 0.470072
vn 0.348692 0.591674 0.726867
vn 0.336531 0.653751 0.677758
vn 0.505780 0.604728 0.615216
vn 0.477272 0.658973 0.581349
vn 0.431787 0.729728 0.530148
vn 0.309070 0.728762 0.611050
vn 0.258726 0.812758 0.522002
vn 0.372685 0.803726 0.463822
vn 0.293138 0.883009 0.366559
vn 0.184822 0.912423 0.365136
vn -0.310953 0.819214 0.481868
vn -0.418552 0.815264 0.400198
vn -0.237715 0.907957 0.345117
vn -0.328698 0.889510 0.317380
vn -0.215259 0.955200 0.203116
vn -0.352195 0.916739 0.188543
vn 0.165813 0.964219 0.206853
vn 0.307395 0.918387 0.249146
vn 0.185494 0.971044 -0.150550
vn 0.343648 0.926304 -0.154490
vn 0.317469 0.898294 -0.303778
vn 0.200996 0.918368 -0.340883
vn -0.224764 0.962977 -0.148850
vn -0.397296 0.905383 -0.149793
vn -0.238054 0.909682 -0.340307
vn -0.370674 0.880771 -0.294691
vn -0.297662 0.801610 -0.518478
vn -0.469126 0.790638 -0.393461
vn -0.340359 0.722450 -0.601848
vn -0.529897 0.715361 -0.455487
vn 0.255778 0.808067 -0.530665
vn 0.433103 0.797601 -0.419827
vn 0.505101 0.707622 -0.494109
vn 0.298914 0.720930 -0.625228
vn 0.330817 0.649803 -0.684336
vn 0.559347 0.629899 -0.538849
vn 0.596869 0.564833 -0.569835
vn 0.355935 0.587572 -0.726684
vn -0.372306 0.657640 -0.654903
vn -0.578571 0.648766 -0.494326
vn -0.399250 0.596423 -0.696332
vn -0.616543 0.588705 -0.522782
vn -0.097462 -0.992080 -0.079238
vn -0.054526 -0.995709 -0.074770
vn -0.027161 -0.999448 -0.019126
vn -0.088552 -0.995201 -0.041641
vn 0.047824 -0.996241 -0.072222
vn 0.023992 -0.999524 -0.019418
vn 0.085301 -0.993310 -0.077845
vn 0.076764 -0.996086 -0.043825
vn 0.020191 -0.999550 0.022200
vn 0.067927 -0.996414 0.050446
vn 0.073385 -0.993566 0.086258
vn 0.039369 -0.996309 0.076282
vn -0.025574 -0.999415 0.022694
vn -0.081816 -0.995624 0.045146
vn -0.054201 -0.995489 0.077872
vn -0.090582 -0.992151 0.086204
vn 0.649468 0.606834 0.458196
vn 0.605612 0.661624 0.442139
vn 0.541714 0.732707 0.411931
vn 0.756029 0.551442 -0.352607
vn 0.718194 0.616315 -0.323038
vn 0.659372 0.694256 -0.288507
vn 0.550966 0.802517 -0.228917
vn 0.455021 0.817940 0.352038
vn -0.756879 0.579006 -0.303127
vn -0.715197 0.639281 -0.282512
vn -0.659194 0.706949 -0.256294
vn -0.718981 0.612250 0.328963
vn -0.676971 0.668407 0.308127
vn -0.611367 0.741234 0.277132
vn -0.511198 0.828308 0.229307
vn -0.571318 0.793545 -0.209483
vn -0.272022 -0.955446 -0.114578
vn -0.236584 -0.950823 -0.199911
vn -0.595558 -0.762368 -0.253191
vn -0.488539 -0.763789 -0.421848
vn -0.254085 -0.959807 0.119212
vn -0.217509 -0.954141 0.205680
vn -0.439849 -0.791389 0.424543
vn -0.550142 -0.794634 0.256711
vn -0.839602 -0.377828 0.390275
vn -0.671343 -0.354404 0.650919
vn -0.716707 0.046113 0.695849
vn -0.906325 0.024521 0.421870
vn -0.882273 -0.288266 -0.372153
vn -0.725001 -0.282615 -0.628095
vn -0.918657 0.088641 -0.384983
vn -0.755462 0.099670 -0.647567
vn -0.145817 -0.960762 0.235954
vn -0.315981 -0.792407 0.521773
vn 0.102697 -0.966263 0.236196
vn 0.170211 -0.963690 0.205744
vn 0.370425 -0.816203 0.443394
vn 0.233235 -0.806967 0.542591
vn 0.373101 -0.296626 0.879095
vn 0.609337 -0.314133 0.728031
vn 0.634174 0.108587 0.765527
vn 0.387270 0.119167 0.914232
vn -0.484858 -0.332482 0.808931
vn -0.514036 0.067291 0.855125
vn 0.203878 -0.969260 0.137724
vn 0.473328 -0.823867 0.311776
vn 0.232910 -0.964923 -0.121150
vn 0.204113 -0.959480 -0.194258
vn 0.444137 -0.790061 -0.422546
vn 0.540225 -0.794160 -0.278329
vn 0.856070 -0.274828 -0.437737
vn 0.693503 -0.277206 -0.664989
vn 0.715108 0.119787 -0.688674
vn 0.883692 0.120403 -0.452318
vn 0.791481 -0.333513 0.512179
vn 0.835074 0.088978 0.542895
vn -0.491670 0.105710 -0.864342
vn -0.469989 -0.292644 -0.832748
vn -0.313174 -0.775435 -0.548290
vn 0.442609 0.119130 -0.888766
vn 0.429071 -0.288944 -0.855809
vn 0.278236 -0.791764 -0.543778
vn 0.123405 -0.964288 -0.234351
vn -0.143259 -0.959516 -0.242498
vn -0.884640 0.285691 -0.368500
vn -0.726511 0.297890 -0.619228
vn -0.837532 0.423153 -0.345660
vn -0.685758 0.434768 -0.583706
vn -0.874238 0.267509 0.405150
vn -0.688513 0.277930 0.669855
vn -0.643227 0.441700 0.625428
vn -0.815742 0.439702 0.375803
vn -0.759470 0.549261 0.348595
vn -0.601558 0.545990 0.583115
vn -0.793750 0.515268 -0.323202
vn -0.648473 0.525584 -0.550676
vn -0.496392 0.280935 0.821383
vn -0.471443 0.431046 0.769377
vn 0.374532 0.310813 0.873568
vn 0.604814 0.310176 0.733479
vn 0.565176 0.455021 0.688137
vn 0.361093 0.443137 0.820513
vn 0.353173 0.530782 0.770415
vn 0.530364 0.548373 0.646531
vn -0.450468 0.529194 0.719050
vn 0.799100 0.294074 0.524366
vn 0.743428 0.448167 0.496449
vn 0.852446 0.292343 -0.433442
vn 0.686432 0.300713 -0.662105
vn 0.651537 0.422192 -0.630280
vn 0.815877 0.409248 -0.408485
vn 0.784193 0.489976 -0.380742
vn 0.623092 0.503721 -0.598348
vn 0.690032 0.548232 0.472544
vn -0.420327 0.532745 -0.734512
vn -0.443795 0.445291 -0.777665
vn 0.374263 0.526677 -0.763242
vn 0.394583 0.443451 -0.804770
vn 0.420781 0.315019 -0.850709
vn -0.471169 0.310404 -0.825620
vn -0.021395 0.999363 0.028562
vn -0.000186 -0.999998 0.002020
s 1
g PiedraV2
usemtl initialShadingGroup
f 29/45/1 183/214/2 273/124/3 186/217/4
f 183/214/2 30/46/5 184/215/6 273/124/3
f 273/124/3 184/215/6 87/118/7 185/216/8
f 186/217/4 273/124/3 185/216/8 88/119/9
f 30/46/5 183/214/2 274/125/10 189/220/11
f 183/214/2 29/45/1 187/218/12 274/125/10
f 274/125/10 187/218/12 32/48/13 188/219/14
f 189/220/11 274/125/10 188/219/14 31/47/15
f 31/47/15 188/219/14 275/126/16 192/223/17
f 188/219/14 32/48/13 190/221/18 275/126/16
f 275/126/16 190/221/18 34/50/19 191/222/20
f 192/223/17 275/126/16 191/222/20 33/49/21
f 33/49/21 191/222/20 276/127/22 195/226/23
f 191/222/20 34/50/19 193/224/24 276/127/22
f 276/127/22 193/224/24 37/53/25 194/225/26
f 195/226/23 276/127/22 194/225/26 36/52/27
f 35/51/28 196/227/29 277/128/30 199/230/31
f 196/227/29 38/54/32 197/228/33 277/128/30
f 277/128/30 197/228/33 44/66/34 198/229/35
f 199/230/31 277/128/30 198/229/35 43/65/36
f 36/52/27 200/231/37 278/129/38 203/236/39
f 200/231/37 35/51/28 201/232/40 278/129/38
f 278/129/38 201/232/40 40/57/41 202/234/42
f 203/236/39 278/129/38 202/234/42 39/55/43
f 38/54/32 204/237/44 279/130/45 207/241/46
f 204/237/44 37/53/25 205/238/47 279/130/45
f 279/130/45 205/238/47 42/63/48 206/239/49
f 207/241/46 279/130/45 206/239/49 41/60/50
f 39/56/43 202/235/42 280/131/51 210/245/52
f 202/235/42 40/59/41 208/243/53 280/131/51
f 280/131/51 208/243/53 67/98/54 209/244/55
f 210/245/52 280/131/51 209/244/55 68/99/56
f 41/61/50 206/240/49 281/132/57 213/248/58
f 206/240/49 42/64/48 211/246/59 281/132/57
f 281/132/57 211/246/59 63/94/60 212/247/61
f 213/248/58 281/132/57 212/247/61 64/95/62
f 43/65/36 198/229/35 282/133/63 216/251/64
f 198/229/35 44/66/34 214/249/65 282/133/63
f 282/133/63 214/249/65 46/68/66 215/250/67
f 216/251/64 282/133/63 215/250/67 45/67/68
f 45/67/68 215/250/67 283/134/69 219/254/70
f 215/250/67 46/68/66 217/252/71 283/134/69
f 283/134/69 217/252/71 48/70/72 218/253/73
f 219/254/70 283/134/69 218/253/73 47/69/74
f 47/69/74 218/253/73 284/135/75 222/257/76
f 218/253/73 48/70/72 220/255/77 284/135/75
f 284/135/75 220/255/77 92/123/78 221/256/79
f 222/257/76 284/135/75 221/256/79 91/122/80
f 49/71/81 223/258/82 285/136/83 226/261/84
f 223/258/82 50/72/85 224/259/86 285/136/83
f 285/136/83 224/259/86 83/114/87 225/260/88
f 226/261/84 285/136/83 225/260/88 84/115/89
f 50/72/85 223/258/82 286/137/90 229/264/91
f 223/258/82 49/71/81 227/262/92 286/137/90
f 286/137/90 227/262/92 53/75/93 228/263/94
f 229/264/91 286/137/90 228/263/94 52/74/95
f 51/73/96 230/265/97 287/138/98 233/269/99
f 230/265/97 54/76/100 231/266/101 287/138/98
f 287/138/98 231/266/101 60/90/102 232/267/103
f 233/269/99 287/138/98 232/267/103 59/87/104
f 52/74/95 234/271/105 288/139/106 237/276/107
f 234/271/105 51/73/96 235/272/108 288/139/106
f 288/139/106 235/272/108 56/79/109 236/274/110
f 237/276/107 288/139/106 236/274/110 55/77/111
f 54/76/100 238/277/112 289/140/113 241/281/114
f 238/277/112 53/75/93 239/278/115 289/140/113
f 289/140/113 239/278/115 58/85/116 240/279/117
f 241/281/114 289/140/113 240/279/117 57/82/118
f 55/78/111 236/275/110 290/141/119 244/285/120
f 236/275/110 56/81/109 242/283/121 290/141/119
f 290/141/119 242/283/121 70/101/122 243/284/123
f 244/285/120 290/141/119 243/284/123 69/100/124
f 57/83/118 240/280/117 291/142/125 247/288/126
f 240/280/117 58/86/116 245/286/127 291/142/125
f 291/142/125 245/286/127 78/109/128 246/287/129
f 247/288/126 291/142/125 246/287/129 77/108/130
f 59/88/104 232/268/103 292/143/131 250/291/132
f 232/268/103 60/91/102 248/289/133 292/143/131
f 292/143/131 248/289/133 74/105/134 249/290/135
f 250/291/132 292/143/131 249/290/135 73/104/136
f 61/92/137 251/292/138 293/144/139 254/295/140
f 251/292/138 62/93/141 252/293/142 293/144/139
f 293/144/139 252/293/142 89/120/143 253/294/144
f 254/295/140 293/144/139 253/294/144 90/121/145
f 62/93/141 251/292/138 294/145/146 256/297/147
f 251/292/138 61/92/137 255/296/148 294/145/146
f 294/145/146 255/296/148 64/95/62 212/247/61
f 256/297/147 294/145/146 212/247/61 63/94/60
f 65/96/149 257/298/150 295/146/151 260/301/152
f 257/298/150 66/97/153 258/299/154 295/146/151
f 295/146/151 258/299/154 85/116/155 259/300/156
f 260/301/152 295/146/151 259/300/156 86/117/157
f 66/97/153 257/298/150 296/147/158 262/303/159
f 257/298/150 65/96/149 261/302/160 296/147/158
f 296/147/158 261/302/160 68/99/56 209/244/55
f 262/303/159 296/147/158 209/244/55 67/98/54
f 69/100/124 243/284/123 297/148/161 265/306/162
f 243/284/123 70/101/122 263/304/163 297/148/161
f 297/148/161 263/304/163 72/103/164 264/305/165
f 265/306/162 297/148/161 264/305/165 71/102/166
f 71/102/166 264/305/165 298/149/167 267/308/168
f 264/305/165 72/103/164 266/307/169 298/149/167
f 298/149/167 266/307/169 86/117/157 259/300/156
f 267/308/168 298/149/167 259/300/156 85/116/155
f 73/104/136 249/290/135 299/150/170 270/311/171
f 249/290/135 74/105/134 268/309/172 299/150/170
f 299/150/170 268/309/172 76/107/173 269/310/174
f 270/311/171 299/150/170 269/310/174 75/106/175
f 75/106/175 269/310/174 300/151/176 272/313/177
f 269/310/174 76/107/173 271/312/178 300/151/176
f 300/151/176 271/312/178 88/119/9 185/216/8
f 272/313/177 300/151/176 185/216/8 87/118/7
f 77/108/130 246/287/129 301/152/179 95/316/180
f 246/287/129 78/109/128 93/314/181 301/152/179
f 301/152/179 93/314/181 80/111/182 94/315/183
f 95/316/180 301/152/179 94/315/183 79/110/184
f 79/110/184 94/315/183 302/153/185 97/318/186
f 94/315/183 80/111/182 96/317/187 302/153/185
f 302/153/185 96/317/187 90/121/145 253/294/144
f 97/318/186 302/153/185 253/294/144 89/120/143
f 81/112/188 98/319/189 303/154/190 100/321/191
f 98/319/189 82/113/192 99/320/193 303/154/190
f 303/154/190 99/320/193 91/122/80 221/256/79
f 100/321/191 303/154/190 221/256/79 92/123/78
f 82/113/192 98/319/189 304/155/194 102/323/195
f 98/319/189 81/112/188 101/322/196 304/155/194
f 304/155/194 101/322/196 84/115/89 225/260/88
f 102/323/195 304/155/194 225/260/88 83/114/87
f 14/23/197 103/324/198 305/156/199 105/326/200
f 103/324/198 30/46/5 189/220/11 305/156/199
f 305/156/199 189/220/11 31/47/15 104/325/201
f 105/326/200 305/156/199 104/325/201 26/40/202
f 29/45/1 106/327/203 306/157/204 187/218/12
f 106/327/203 15/24/205 107/328/206 306/157/204
f 306/157/204 107/328/206 25/39/207 108/329/208
f 187/218/12 306/157/204 108/329/208 32/48/13
f 32/48/13 108/329/208 307/158/209 190/221/18
f 108/329/208 25/39/207 109/330/210 307/158/209
f 307/158/209 109/330/210 4/6/211 110/331/212
f 190/221/18 307/158/209 110/331/212 34/50/19
f 26/40/202 104/325/201 308/159/213 112/333/214
f 104/325/201 31/47/15 192/223/17 308/159/213
f 308/159/213 192/223/17 33/49/21 111/332/215
f 112/333/214 308/159/213 111/332/215 3/5/216
f 3/5/216 111/332/215 309/160/217 113/334/218
f 111/332/215 33/49/21 195/226/23 309/160/217
f 309/160/217 195/226/23 36/52/27 203/236/39
f 113/334/218 309/160/217 203/236/39 39/55/43
f 34/50/19 110/331/212 310/161/219 193/224/24
f 110/331/212 4/6/211 114/336/220 310/161/219
f 310/161/219 114/336/220 42/63/48 205/238/47
f 193/224/24 310/161/219 205/238/47 37/53/25
f 38/54/32 207/242/46 311/162/221 197/228/33
f 207/242/46 41/62/50 115/338/222 311/162/221
f 311/162/221 115/338/222 6/9/223 116/340/224
f 197/228/33 311/162/221 116/340/224 44/66/34
f 40/58/41 201/233/40 312/163/225 118/342/226
f 201/233/40 35/51/28 199/230/31 312/163/225
f 312/163/225 199/230/31 43/65/36 117/341/227
f 118/342/226 312/163/225 117/341/227 5/7/228
f 5/7/228 117/341/227 313/164/229 120/345/230
f 117/341/227 43/65/36 216/251/64 313/164/229
f 313/164/229 216/251/64 45/67/68 119/344/231
f 120/345/230 313/164/229 119/344/231 28/43/232
f 44/66/34 116/340/224 314/165/233 214/249/65
f 116/340/224 6/9/223 121/347/234 314/165/233
f 314/165/233 121/347/234 27/41/235 122/349/236
f 214/249/65 314/165/233 122/349/236 46/68/66
f 46/68/66 122/349/236 315/166/237 217/252/71
f 122/349/236 27/41/235 123/350/238 315/166/237
f 315/166/237 123/350/238 16/25/239 124/352/240
f 217/252/71 315/166/237 124/352/240 48/70/72
f 28/43/232 119/344/231 316/167/241 126/354/242
f 119/344/231 45/67/68 219/254/70 316/167/241
f 316/167/241 219/254/70 47/69/74 125/353/243
f 126/354/242 316/167/241 125/353/243 13/21/244
f 7/11/245 127/356/246 317/168/247 128/357/248
f 127/356/246 50/72/85 229/264/91 317/168/247
f 317/168/247 229/264/91 52/74/95 237/276/107
f 128/357/248 317/168/247 237/276/107 55/77/111
f 49/71/81 129/359/249 318/169/250 227/262/92
f 129/359/249 8/13/251 130/360/252 318/169/250
f 318/169/250 130/360/252 58/85/116 239/278/115
f 227/262/92 318/169/250 239/278/115 53/75/93
f 54/76/100 241/282/114 319/170/253 231/266/101
f 241/282/114 57/84/118 131/362/254 319/170/253
f 319/170/253 131/362/254 2/3/255 132/364/256
f 231/266/101 319/170/253 132/364/256 60/90/102
f 56/80/109 235/273/108 320/171/257 134/368/258
f 235/273/108 51/73/96 233/270/99 320/171/257
f 320/171/257 233/270/99 59/89/104 133/366/259
f 134/368/258 320/171/257 133/366/259 1/1/260
f 15/24/205 135/370/261 321/172/262 107/328/206
f 135/370/261 62/93/141 256/297/147 321/172/262
f 321/172/262 256/297/147 63/94/60 136/371/263
f 107/328/206 321/172/262 136/371/263 25/39/207
f 61/92/137 137/372/264 322/173/265 255/296/148
f 137/372/264 16/26/239 123/351/238 322/173/265
f 322/173/265 123/351/238 27/42/235 138/373/266
f 255/296/148 322/173/265 138/373/266 64/95/62
f 64/95/62 138/373/266 323/174/267 213/248/58
f 138/373/266 27/42/235 121/348/234 323/174/267
f 323/174/267 121/348/234 6/10/223 115/339/222
f 213/248/58 323/174/267 115/339/222 41/61/50
f 25/39/207 136/371/263 324/175/268 109/330/210
f 136/371/263 63/94/60 211/246/59 324/175/268
f 324/175/268 211/246/59 42/64/48 114/337/220
f 109/330/210 324/175/268 114/337/220 4/6/211
f 13/22/244 139/374/269 325/176/270 126/355/242
f 139/374/269 66/97/153 262/303/159 325/176/270
f 325/176/270 262/303/159 67/98/54 140/375/271
f 126/355/242 325/176/270 140/375/271 28/44/232
f 65/96/149 141/376/272 326/177/273 261/302/160
f 141/376/272 14/23/197 105/326/200 326/177/273
f 326/177/273 105/326/200 26/40/202 142/377/274
f 261/302/160 326/177/273 142/377/274 68/99/56
f 68/99/56 142/377/274 327/178/275 210/245/52
f 142/377/274 26/40/202 112/333/214 327/178/275
f 327/178/275 112/333/214 3/5/216 113/335/218
f 210/245/52 327/178/275 113/335/218 39/56/43
f 28/44/232 140/375/271 328/179/276 120/346/230
f 140/375/271 67/98/54 208/243/53 328/179/276
f 328/179/276 208/243/53 40/59/41 118/343/226
f 120/346/230 328/179/276 118/343/226 5/8/228
f 7/12/245 128/358/248 329/180/277 144/379/278
f 128/358/248 55/78/111 244/285/120 329/180/277
f 329/180/277 244/285/120 69/100/124 143/378/279
f 144/379/278 329/180/277 143/378/279 18/28/280
f 56/81/109 134/369/258 330/181/281 242/283/121
f 134/369/258 1/2/260 145/381/282 330/181/281
f 330/181/281 145/381/282 17/27/283 146/382/284
f 242/283/121 330/181/281 146/382/284 70/101/122
f 70/101/122 146/382/284 331/182/285 263/304/163
f 146/382/284 17/27/283 147/383/286 331/182/285
f 331/182/285 147/383/286 10/17/287 148/384/288
f 263/304/163 331/182/285 148/384/288 72/103/164
f 18/28/280 143/378/279 332/183/289 150/386/290
f 143/378/279 69/100/124 265/306/162 332/183/289
f 332/183/289 265/306/162 71/102/166 149/385/291
f 150/386/290 332/183/289 149/385/291 9/15/292
f 1/2/260 133/367/259 333/184/293 145/381/282
f 133/367/259 59/88/104 250/291/132 333/184/293
f 333/184/293 250/291/132 73/104/136 151/388/294
f 145/381/282 333/184/293 151/388/294 17/27/283
f 60/91/102 132/365/256 334/185/295 248/289/133
f 132/365/256 2/4/255 152/389/296 334/185/295
f 334/185/295 152/389/296 19/30/297 153/390/298
f 248/289/133 334/185/295 153/390/298 74/105/134
f 74/105/134 153/390/298 335/186/299 268/309/172
f 153/390/298 19/30/297 154/391/300 335/186/299
f 335/186/299 154/391/300 11/18/301 155/392/302
f 268/309/172 335/186/299 155/392/302 76/107/173
f 17/27/283 151/388/294 336/187/303 147/383/286
f 151/388/294 73/104/136 270/311/171 336/187/303
f 336/187/303 270/311/171 75/106/175 156/393/304
f 147/383/286 336/187/303 156/393/304 10/17/287
f 2/4/255 131/363/254 337/188/305 152/389/296
f 131/363/254 57/83/118 247/288/126 337/188/305
f 337/188/305 247/288/126 77/108/130 157/394/306
f 152/389/296 337/188/305 157/394/306 19/30/297
f 58/86/116 130/361/252 338/189/307 245/286/127
f 130/361/252 8/14/251 158/395/308 338/189/307
f 338/189/307 158/395/308 20/31/309 159/397/310
f 245/286/127 338/189/307 159/397/310 78/109/128
f 78/109/128 159/397/310 339/190/311 93/314/181
f 159/397/310 20/31/309 160/398/312 339/190/311
f 339/190/311 160/398/312 12/19/313 161/400/314
f 93/314/181 339/190/311 161/400/314 80/111/182
f 19/30/297 157/394/306 340/191/315 154/391/300
f 157/394/306 77/108/130 95/316/180 340/191/315
f 340/191/315 95/316/180 79/110/184 162/401/316
f 154/391/300 340/191/315 162/401/316 11/18/301
f 9/16/292 163/402/317 341/192/318 150/387/290
f 163/402/317 82/113/192 102/323/195 341/192/318
f 341/192/318 102/323/195 83/114/87 164/403/319
f 150/387/290 341/192/318 164/403/319 18/29/280
f 81/112/188 165/404/320 342/193/321 101/322/196
f 165/404/320 12/20/313 160/399/312 342/193/321
f 342/193/321 160/399/312 20/32/309 166/405/322
f 101/322/196 342/193/321 166/405/322 84/115/89
f 84/115/89 166/405/322 343/194/323 226/261/84
f 166/405/322 20/32/309 158/396/308 343/194/323
f 343/194/323 158/396/308 8/13/251 129/359/249
f 226/261/84 343/194/323 129/359/249 49/71/81
f 18/29/280 164/403/319 344/195/324 144/380/278
f 164/403/319 83/114/87 224/259/86 344/195/324
f 344/195/324 224/259/86 50/72/85 127/356/246
f 144/380/278 344/195/324 127/356/246 7/11/245
f 9/15/292 149/385/291 345/196/325 168/407/326
f 149/385/291 71/102/166 267/308/168 345/196/325
f 345/196/325 267/308/168 85/116/155 167/406/327
f 168/407/326 345/196/325 167/406/327 22/34/328
f 72/103/164 148/384/288 346/197/329 266/307/169
f 148/384/288 10/17/287 169/409/330 346/197/329
f 346/197/329 169/409/330 21/33/331 170/410/332
f 266/307/169 346/197/329 170/410/332 86/117/157
f 86/117/157 170/410/332 347/198/333 260/301/152
f 170/410/332 21/33/331 171/411/334 347/198/333
f 347/198/333 171/411/334 14/23/197 141/376/272
f 260/301/152 347/198/333 141/376/272 65/96/149
f 22/34/328 167/406/327 348/199/335 172/412/336
f 167/406/327 85/116/155 258/299/154 348/199/335
f 348/199/335 258/299/154 66/97/153 139/374/269
f 172/412/336 348/199/335 139/374/269 13/22/244
f 10/17/287 156/393/304 349/200/337 169/409/330
f 156/393/304 75/106/175 272/313/177 349/200/337
f 349/200/337 272/313/177 87/118/7 173/414/338
f 169/409/330 349/200/337 173/414/338 21/33/331
f 76/107/173 155/392/302 350/201/339 271/312/178
f 155/392/302 11/18/301 174/415/340 350/201/339
f 350/201/339 174/415/340 23/36/341 175/416/342
f 271/312/178 350/201/339 175/416/342 88/119/9
f 88/119/9 175/416/342 351/202/343 186/217/4
f 175/416/342 23/36/341 176/417/344 351/202/343
f 351/202/343 176/417/344 15/24/205 106/327/203
f 186/217/4 351/202/343 106/327/203 29/45/1
f 21/33/331 173/414/338 352/203/345 171/411/334
f 173/414/338 87/118/7 184/215/6 352/203/345
f 352/203/345 184/215/6 30/46/5 103/324/198
f 171/411/334 352/203/345 103/324/198 14/23/197
f 11/18/301 162/401/316 353/204/346 174/415/340
f 162/401/316 79/110/184 97/318/186 353/204/346
f 353/204/346 97/318/186 89/120/143 177/418/347
f 174/415/340 353/204/346 177/418/347 23/36/341
f 80/111/182 161/400/314 354/205/348 96/317/187
f 161/400/314 12/19/313 178/419/349 354/205/348
f 354/205/348 178/419/349 24/37/350 179/421/351
f 96/317/187 354/205/348 179/421/351 90/121/145
f 90/121/145 179/421/351 355/206/352 254/295/140
f 179/421/351 24/37/350 180/422/353 355/206/352
f 355/206/352 180/422/353 16/26/239 137/372/264
f 254/295/140 355/206/352 137/372/264 61/92/137
f 23/36/341 177/418/347 356/207/354 176/417/344
f 177/418/347 89/120/143 252/293/142 356/207/354
f 356/207/354 252/293/142 62/93/141 135/370/261
f 176/417/344 356/207/354 135/370/261 15/24/205
f 13/21/244 125/353/243 357/208/355 172/413/336
f 125/353/243 47/69/74 222/257/76 357/208/355
f 357/208/355 222/257/76 91/122/80 181/424/356
f 172/413/336 357/208/355 181/424/356 22/35/328
f 48/70/72 124/352/240 358/209/357 220/255/77
f 124/352/240 16/25/239 180/423/353 358/209/357
f 358/209/357 180/423/353 24/38/350 182/425/358
f 220/255/77 358/209/357 182/425/358 92/123/78
f 92/123/78 182/425/358 359/210/359 100/321/191
f 182/425/358 24/38/350 178/420/349 359/210/359
f 359/210/359 178/420/349 12/20/313 165/404/320
f 100/321/191 359/210/359 165/404/320 81/112/188
f 22/35/328 181/424/356 360/211/360 168/408/326
f 181/424/356 91/122/80 99/320/193 360/211/360
f 360/211/360 99/320/193 82/113/192 163/402/317
f 168/408/326 360/211/360 163/402/317 9/16/292
f 35/51/28 200/231/37 361/212/361 196/227/29
f 200/231/37 36/52/27 194/225/26 361/212/361
f 361/212/361 194/225/26 37/53/25 204/237/44
f 196/227/29 361/212/361 204/237/44 38/54/32
f 51/73/96 234/271/105 362/213/362 230/265/97
f 234/271/105 52/74/95 228/263/94 362/213/362
f 362/213/362 228/263/94 53/75/93 238/277/112
f 230/265/97 362/213/362 238/277/112 54/76/100
g default
v -1.557888 -0.046478 -2.556371
v 1.473911 -0.050518 -2.272761
v -0.912459 2.214028 -3.126925
v 0.925697 2.256235 -2.982164
v -0.880067 2.264065 -4.766723
v 1.233056 2.253703 -4.774240
v -1.451733 -0.051969 -5.504574
v 1.570363 -0.050449 -5.565257
v -1.880631 0.380100 -5.957690
v -2.059510 0.383470 -2.134271
v 2.045486 0.380336 -1.785261
v 2.043940 0.379018 -6.054793
v -1.547070 1.402115 -5.513501
v -1.661655 1.436407 -2.566598
v 1.683302 1.382140 -2.265257
v 1.803204 1.405456 -5.572029
v -1.956219 0.081441 -2.177282
v -1.830668 0.083572 -5.913176
v 1.982977 0.083243 -1.818901
v 2.015990 0.082448 -6.001238
v -1.979379 0.864612 -2.269543
v -1.794410 0.833301 -5.829655
v 1.967605 0.824989 -1.933778
v 1.957723 0.834897 -5.929873
v 1.343693 1.881281 -2.599561
v -1.300287 1.918589 -2.837903
v 1.557143 1.893540 -5.216284
v -1.228580 1.897039 -5.181229
v 0.333634 1.407089 -1.687572
v -0.333075 1.416748 -1.726968
v -0.297742 1.900070 -2.174897
v 0.369107 1.891506 -2.137302
v -0.275031 2.249896 -2.730104
v 0.393083 2.264945 -2.706011
v -0.313414 2.442982 -4.215588
v -0.313786 2.423846 -3.544343
v 0.352410 2.445662 -3.538161
v 0.354477 2.466552 -4.213437
v -1.038011 2.241258 -3.519348
v -1.047349 2.264251 -4.188302
v 1.421827 2.262947 -4.169328
v 1.397802 2.262178 -3.499596
v -0.266858 2.326930 -5.058356
v 0.401753 2.329609 -5.086915
v -0.271257 1.873504 -5.659389
v 0.396141 1.871802 -5.685806
v -0.297329 1.353669 -6.146598
v 0.370143 1.353306 -6.170913
v 0.368816 -0.085034 -6.050473
v -0.299703 -0.085209 -6.034634
v -0.336653 -0.072341 -3.627918
v -0.329596 -0.073860 -4.298114
v 0.338335 -0.073703 -4.294748
v 0.331251 -0.072192 -3.625205
v -1.897440 -0.076163 -4.175680
v -1.892480 -0.072970 -3.506679
v 2.236296 -0.075032 -3.453364
v 2.215999 -0.077646 -4.125696
v -0.342794 -0.077123 -1.897377
v 0.325049 -0.079067 -1.863682
v 2.363288 1.409133 -4.034832
v 2.371967 1.401989 -3.366405
v 1.919069 1.895901 -3.405564
v 1.924913 1.901888 -4.077390
v -1.957477 1.428827 -3.431173
v -1.970418 1.421349 -4.098967
v -1.527668 1.912858 -4.139784
v -1.512907 1.918184 -3.471191
v -2.407855 0.079973 -4.147820
v -2.405189 0.079716 -3.475610
v -2.501674 0.380644 -4.096571
v -2.500405 0.381303 -3.424594
v -0.339884 0.080795 -1.301687
v 0.328264 0.081029 -1.265152
v -0.363831 0.377717 -1.234813
v 0.303988 0.377116 -1.200288
v 2.869664 0.083503 -3.397746
v 2.843006 0.083407 -4.068605
v 2.929540 0.380076 -3.379534
v 2.901833 0.379869 -4.047845
v 0.369677 0.373307 -6.688346
v -0.298290 0.373518 -6.668877
v -0.282715 0.076085 -6.604871
v 0.385842 0.075863 -6.622666
v -2.359300 0.847107 -4.074785
v -2.356638 0.853111 -3.406728
v -0.369683 0.837642 -1.370957
v 0.297302 0.831201 -1.334705
v 2.779225 0.836280 -3.357416
v 2.753165 0.838949 -4.025223
v -0.307930 0.790164 -6.516052
v 0.359965 0.790117 -6.538785
vt 0.454302 0.421712
vt 0.388448 0.375000
vt 0.534324 0.329347
vt 0.625000 0.312506
vt 0.612901 0.375000
vt 0.307374 0.250000
vt 0.794854 0.250000
vt 0.522519 1.000000
vt 0.500000 0.985238
vt 0.473034 0.904770
vt 0.387078 0.875000
vt 0.526128 0.850468
vt 0.625000 0.851575
vt 0.612199 0.875000
vt 0.224809 0.000000
vt 0.716743 0.000000
vt 0.473569 0.000000
vt 0.469569 0.231233
vt 0.520475 0.196912
vt 0.525374 0.231233
vt 0.457561 0.267541
vt 0.455793 0.325084
vt 0.375000 0.317626
vt 0.535013 0.269119
vt 0.625000 0.250000
vt 0.535779 0.416468
vt 0.625000 0.419854
vt 0.625000 0.500000
vt 0.375000 0.420933
vt 0.456370 0.482712
vt 0.375000 0.500000
vt 0.468114 0.518767
vt 0.375000 0.518767
vt 0.536270 0.481148
vt 0.528287 0.518767
vt 0.625000 0.518767
vt 0.474012 0.549854
vt 0.375000 0.537534
vt 0.472341 0.849230
vt 0.375000 0.849809
vt 0.527424 0.769466
vt 0.625000 0.750000
vt 0.522050 0.902699
vt 0.625000 0.908257
vt 0.625000 1.000000
vt 0.375000 0.907479
vt 0.473569 1.000000
vt 0.375000 1.000000
vt 0.625000 0.196912
vt 0.704185 0.231233
vt 0.772238 0.199679
vt 0.875000 0.231233
vt 0.778562 0.231233
vt 0.875000 0.250000
vt 0.625000 0.231233
vt 0.687506 0.250000
vt 0.125000 0.212465
vt 0.219464 0.231233
vt 0.284664 0.196912
vt 0.375000 0.231233
vt 0.292987 0.231233
vt 0.375000 0.250000
vt 0.125000 0.231233
vt 0.204067 0.250000
vt 0.125000 0.250000
vt 0.125000 0.000000
vt 0.229736 0.025251
vt 0.125000 0.025251
vt 0.282479 -0.000000
vt 0.275372 0.025251
vt 0.230783 0.062293
vt 0.125000 0.050503
vt 0.375000 0.000000
vt 0.479158 0.025251
vt 0.522519 0.000000
vt 0.517601 0.025251
vt 0.375000 0.025251
vt 0.479882 0.064435
vt 0.625000 0.000000
vt 0.723937 0.025251
vt 0.773425 0.000000
vt 0.875000 0.000000
vt 0.768324 0.025251
vt 0.875000 0.025251
vt 0.625000 0.025251
vt 0.724086 0.064435
vt 0.375000 0.699497
vt 0.478075 0.724749
vt 0.521054 0.687912
vt 0.625000 0.724749
vt 0.521534 0.724749
vt 0.375000 0.724749
vt 0.472113 0.769374
vt 0.375000 0.750000
vt 0.229963 0.131484
vt 0.125000 0.131484
vt 0.275696 0.064435
vt 0.278317 0.131484
vt 0.375000 0.196912
vt 0.226005 0.199898
vt 0.375000 0.064435
vt 0.479050 0.131484
vt 0.516887 0.064435
vt 0.517487 0.131484
vt 0.375000 0.131484
vt 0.475582 0.196912
vt 0.625000 0.064435
vt 0.721268 0.131484
vt 0.767625 0.062471
vt 0.875000 0.050503
vt 0.768440 0.131484
vt 0.875000 0.131484
vt 0.875000 0.212465
vt 0.625000 0.131484
vt 0.714284 0.196912
vt 0.477350 0.618516
vt 0.523938 0.550110
vt 0.625000 0.537534
vt 0.625000 0.618516
vt 0.521876 0.618516
vt 0.625000 0.699497
vt 0.375000 0.618516
vt 0.478492 0.687962
vn 0.205481 0.595497 0.776634
vn -0.306467 0.596458 0.741832
vn -0.340674 0.425717 0.838276
vn 0.208916 0.436797 0.874964
vn 0.178405 0.735318 0.653819
vn -0.254030 0.736281 0.627183
vn 0.104351 0.914208 0.391580
vn -0.156141 0.910406 0.383120
vn 0.075950 0.991400 0.106571
vn -0.125865 0.985199 0.116364
vn -0.123292 0.990877 -0.054421
vn 0.087328 0.994540 -0.057125
vn 0.113628 0.915505 -0.385927
vn -0.141180 0.910136 -0.389514
vn -0.421957 0.904082 -0.067739
vn -0.385387 0.917472 0.098600
vn 0.356768 0.920747 0.157931
vn 0.371205 0.925441 -0.075933
vn -0.690893 0.711845 -0.126268
vn -0.665545 0.736592 0.120340
vn 0.623809 0.736839 0.260634
vn 0.697752 0.700847 -0.148174
vn 0.158946 0.726537 -0.668491
vn -0.196767 0.727494 -0.657294
vn 0.190489 0.601300 -0.775985
vn -0.240079 0.603650 -0.760243
vn 0.217145 0.451102 -0.865653
vn -0.273344 0.448808 -0.850797
vn 0.029562 -0.996114 -0.082970
vn -0.037260 -0.995334 -0.089009
vn -0.199258 -0.749897 -0.630833
vn 0.169622 -0.758621 -0.629065
vn 0.004966 -0.999987 -0.001007
vn -0.005446 -0.999985 -0.000243
vn -0.004930 -0.999980 0.003968
vn 0.002931 -0.999989 0.003706
vn 0.023805 -0.996159 0.084263
vn -0.044598 -0.994591 0.093802
vn -0.085517 -0.996011 0.025490
vn -0.100360 -0.994600 -0.026421
vn 0.092115 -0.995168 -0.033996
vn 0.086047 -0.995488 0.039998
vn -0.617504 -0.774664 0.136323
vn -0.671916 -0.721927 -0.165378
vn 0.628444 -0.750294 -0.205224
vn 0.573657 -0.790014 0.216324
vn 0.144978 -0.764869 0.627660
vn -0.234927 -0.757072 0.609633
vn 0.797780 0.564064 -0.213025
vn 0.730452 0.618830 0.288944
vn 0.836687 0.447241 0.316117
vn 0.870821 0.415292 -0.263066
vn -0.776195 0.612244 0.150593
vn -0.793468 0.585135 -0.167407
vn -0.884107 0.422988 -0.198584
vn -0.882296 0.432765 0.185116
vn -0.976143 0.022317 0.215977
vn -0.970609 0.085680 -0.224895
vn 0.217639 0.119406 0.968698
vn -0.366417 0.075490 0.927383
vn 0.944949 0.121534 -0.303811
vn 0.935142 0.087958 0.343181
vn 0.245601 0.118813 -0.962062
vn -0.301818 0.106428 -0.947407
vn -0.572681 0.612380 0.545001
vn -0.493604 0.729672 0.473217
vn 0.505280 0.608336 0.612061
vn 0.436846 0.722203 0.536273
vn 0.267100 0.901199 0.341318
vn -0.323962 0.893590 0.310717
vn 0.321117 0.899734 -0.295571
vn -0.367729 0.883609 -0.289846
vn -0.521724 0.723621 -0.451860
vn 0.499316 0.717950 -0.485007
vn 0.591696 0.590737 -0.548567
vn -0.610224 0.607947 -0.507963
vn -0.091008 -0.993197 -0.072646
vn 0.076858 -0.994498 -0.071185
vn 0.061593 -0.995220 0.075786
vn -0.081480 -0.993833 0.075209
vn -0.525112 -0.717857 -0.457099
vn -0.471824 -0.744960 0.471611
vn -0.714253 0.056670 0.697590
vn -0.752481 0.100808 -0.650853
vn 0.406633 -0.770350 0.491132
vn 0.632355 0.107072 0.767244
vn 0.490049 -0.741741 -0.457901
vn 0.710053 0.124120 -0.693122
vn -0.682393 0.446763 -0.578570
vn -0.648921 0.438834 0.621551
vn 0.572717 0.449291 0.685662
vn 0.636335 0.442045 -0.632198
s 1
g PiedraV1
usemtl initialShadingGroup
f 391/444/363 392/531/364 449/527/365 450/529/366
f 392/531/364 391/444/363 394/445/367 393/443/368
f 393/443/368 394/445/367 396/449/369 395/446/370
f 395/446/370 396/449/369 399/428/371 398/447/372
f 397/426/373 400/451/374 406/459/375 405/455/376
f 398/447/372 397/426/373 402/427/377 401/448/378
f 400/451/374 399/428/371 404/429/379 403/430/380
f 401/431/378 402/489/377 429/483/381 430/486/382
f 403/432/380 404/481/379 425/475/383 426/478/384
f 405/455/376 406/459/375 408/460/385 407/457/386
f 407/457/386 408/460/385 410/542/387 409/462/388
f 409/462/388 410/542/387 454/545/389 453/541/390
f 411/466/391 412/518/392 445/513/393 446/516/394
f 412/518/392 411/466/391 415/437/395 414/464/396
f 413/435/397 416/468/398 422/433/399 421/434/400
f 414/464/396 413/435/397 418/436/401 417/465/402
f 416/468/398 415/437/395 420/438/403 419/439/404
f 417/440/402 418/494/401 432/495/405 431/492/406
f 419/441/404 420/506/403 440/508/407 439/505/408
f 421/442/400 422/500/399 436/501/409 435/499/410
f 423/476/411 424/540/412 451/533/413 452/536/414
f 424/540/412 423/476/411 426/478/384 425/475/383
f 427/484/415 428/525/416 447/520/417 448/523/418
f 428/525/416 427/484/415 430/486/382 429/483/381
f 431/492/406 432/495/405 434/522/419 433/496/420
f 433/496/420 434/522/419 448/523/418 447/520/417
f 435/499/410 436/501/409 438/528/421 437/503/422
f 437/503/422 438/528/421 450/529/366 449/527/365
f 439/505/408 440/508/407 442/534/423 441/511/424
f 441/511/424 442/534/423 452/536/414 451/533/413
f 443/514/425 444/548/426 453/541/390 454/545/389
f 444/548/426 443/514/425 446/516/394 445/513/393
f 376/524/427 392/531/364 393/443/368 388/485/428
f 391/444/363 377/474/429 387/480/430 394/445/367
f 394/445/367 387/480/430 366/450/431 396/449/369
f 388/485/428 393/443/368 395/446/370 365/487/432
f 365/487/432 395/446/370 398/447/372 401/448/378
f 396/449/369 366/450/431 404/429/379 399/428/371
f 400/451/374 403/452/380 368/453/433 406/459/375
f 402/454/377 397/426/373 405/455/376 367/456/434
f 367/456/434 405/455/376 407/457/386 390/458/435
f 406/459/375 368/453/433 389/461/436 408/460/385
f 408/460/385 389/461/436 378/543/437 410/542/387
f 390/458/435 407/457/386 409/462/388 375/463/438
f 369/519/439 412/518/392 414/464/396 417/465/402
f 411/466/391 370/467/440 420/438/403 415/437/395
f 416/468/398 419/469/404 364/470/441 422/433/399
f 418/471/401 413/435/397 421/472/400 363/473/442
f 377/474/429 424/540/412 425/475/383 387/480/430
f 423/476/411 378/538/437 389/477/436 426/478/384
f 426/478/384 389/477/436 368/479/433 403/432/380
f 387/480/430 425/475/383 404/481/379 366/450/431
f 375/482/438 428/525/416 429/483/381 390/488/435
f 427/484/415 376/524/427 388/485/428 430/486/382
f 430/486/382 388/485/428 365/487/432 401/431/378
f 390/488/435 429/483/381 402/489/377 367/490/434
f 369/491/439 417/440/402 431/492/406 380/493/443
f 418/494/401 363/498/442 379/502/444 432/495/405
f 432/495/405 379/502/444 372/526/445 434/522/419
f 380/493/443 431/492/406 433/496/420 371/497/446
f 363/498/442 421/442/400 435/499/410 379/502/444
f 422/500/399 364/504/441 381/510/447 436/501/409
f 436/501/409 381/510/447 373/532/448 438/528/421
f 379/502/444 435/499/410 437/503/422 372/526/445
f 364/504/441 419/441/404 439/505/408 381/510/447
f 420/506/403 370/507/440 382/509/449 440/508/407
f 440/508/407 382/509/449 374/535/450 442/534/423
f 381/510/447 439/505/408 441/511/424 373/532/448
f 371/512/446 444/548/426 445/513/393 380/517/443
f 443/514/425 374/546/450 382/515/449 446/516/394
f 446/516/394 382/515/449 370/467/440 411/466/391
f 380/517/443 445/513/393 412/518/392 369/519/439
f 371/497/446 433/496/420 447/520/417 384/521/451
f 434/522/419 372/526/445 383/530/452 448/523/418
f 448/523/418 383/530/452 376/524/427 427/484/415
f 384/521/451 447/520/417 428/525/416 375/482/438
f 372/526/445 437/503/422 449/527/365 383/530/452
f 438/528/421 373/532/448 385/539/453 450/529/366
f 450/529/366 385/539/453 377/474/429 391/444/363
f 383/530/452 449/527/365 392/531/364 376/524/427
f 373/532/448 441/511/424 451/533/413 385/539/453
f 442/534/423 374/535/450 386/537/454 452/536/414
f 452/536/414 386/537/454 378/538/437 423/476/411
f 385/539/453 451/533/413 424/540/412 377/474/429
f 375/463/438 409/462/388 453/541/390 384/547/451
f 410/542/387 378/543/437 386/544/454 454/545/389
f 454/545/389 386/544/454 374/546/450 443/514/425
f 384/547/451 453/541/390 444/548/426 371/512/446
f 397/426/373 398/447/372 399/428/371 400/451/374
f 413/435/397 414/464/396 415/437/395 416/468/398
