# This file uses centimeters as units for non-parametric coordinates.

mtllib Piedras.mtl
g default
v 3.470958 0.000000 18.837708
v 5.842619 0.000000 18.837708
v 3.728047 2.622263 18.051683
v 5.585528 2.622263 18.051683
v 3.728047 2.622263 14.042933
v 5.585528 2.622263 14.042933
v 3.470958 0.000000 13.327600
v 5.842619 0.000000 13.327600
v 3.728047 2.622263 16.047306
v 5.842619 0.000000 16.086308
v 5.585528 2.622263 16.047306
v 4.656788 2.622263 18.108261
v 4.656788 3.476938 16.140535
v 4.656788 2.622263 13.846371
v 4.656788 0.000000 13.130716
v 4.656788 0.000000 18.999697
v 3.178499 2.082757 15.045123
v 2.769287 0.000000 14.669825
v 6.544290 0.000000 14.669825
v 6.135078 2.622263 15.045123
v 3.438805 2.082757 17.049494
v 3.101650 0.000000 17.502792
v 6.211926 0.000000 17.502792
v 5.874772 2.622263 17.049494
v 4.622162 5.093837 15.709493
v 4.180158 4.949018 15.527036
v 3.937064 4.763569 15.049172
v 5.380060 5.030391 15.049172
v 5.086726 5.116650 15.527036
v 4.688966 4.732557 14.402795
v 4.229120 4.684227 14.569326
v 5.135687 4.851859 14.569326
v 4.656788 5.137179 17.049496
v 4.397877 6.494406 15.596496
v 4.163416 6.373837 15.380497
v 4.288718 6.884744 14.981158
v 4.034118 6.268754 15.109825
v 4.825921 6.490182 15.109825
v 4.660868 6.512951 15.380497
v 4.460505 6.270456 14.648246
v 4.199170 6.245986 14.839149
v 4.696622 6.385099 14.839149
v 4.215963 4.227172 17.525181
v 4.487308 4.856314 17.261818
v 4.656788 4.956678 17.380812
v 4.656788 4.266764 17.650326
v 4.087655 4.292771 17.049496
v 4.366223 4.960639 17.049496
v 4.826269 4.856314 17.261818
v 5.097613 4.227172 17.525181
v 4.947353 4.960639 17.049496
v 5.225922 4.292771 17.049496
v 4.656788 4.300173 16.394697
v 4.656788 4.952796 16.711048
v 4.487308 4.856314 16.837172
v 4.215963 4.227172 16.573809
v 4.830134 4.856314 16.833622
v 5.097613 4.235368 16.573809
v 1.829081 0.000000 15.045777
v 1.550956 0.000000 16.086308
v 1.957950 2.082757 16.047306
v 2.236077 2.082757 15.421597
v 1.829084 0.000000 17.126839
v 2.236079 2.082757 16.673019
v 2.719401 2.082757 17.049494
v 2.312407 0.000000 17.502792
v 2.312405 0.000000 14.669825
v 2.719399 2.082757 15.045123
v 3.406020 3.219517 16.047308
v 3.240963 3.219517 15.746302
v 3.085352 3.219517 15.746302
v 3.085353 3.461412 16.047308
v 3.319146 3.219517 16.348316
v 3.085352 3.219517 16.348316
v 2.668572 3.219517 16.047308
v 2.806376 3.219517 16.348316
v 2.806375 3.219517 15.746302
v 2.893800 2.623468 15.334964
v 3.229367 2.623468 15.334964
v 3.619981 2.922413 16.047306
v 3.414391 2.623468 16.759651
v 2.893801 2.623468 16.759651
v 2.480455 2.623468 16.551044
v 2.254455 2.623468 16.047306
v 2.480454 2.623468 15.543571
vt 0.434121 0.231805
vt 0.507776 0.027520
vt 0.563461 0.104504
vt 0.537896 0.123599
vt 0.098613 0.140726
vt 0.151972 0.261547
vt 0.088700 0.330291
vt 0.059547 0.301057
vt 0.542002 0.004898
vt 0.756070 0.058831
vt 0.692193 0.124265
vt 0.669346 0.096946
vt 0.588950 0.818472
vt 0.502126 0.877534
vt 0.331607 0.799450
vt 0.446618 0.705563
vt 0.453480 0.777324
vt 0.430659 0.783062
vt 0.697049 0.234454
vt 0.784465 0.100626
vt 0.413772 0.321475
vt 0.354735 0.251583
vt 0.237779 0.134647
vt 0.248777 0.138234
vt 0.241948 0.150193
vt 0.229479 0.142880
vt 0.254259 0.156897
vt 0.257700 0.145969
vt 0.177097 0.282332
vt 0.375589 0.356920
vt 0.234579 0.163354
vt 0.227079 0.154195
vt 0.015298 0.088629
vt 0.403852 0.846178
vt 0.246401 0.165125
vt 0.483520 0.703322
vt 0.507493 0.797841
vt 0.462647 0.867903
vt 0.653937 0.229639
vt 0.268391 0.096103
vt 0.253435 0.087571
vt 0.179903 0.129195
vt 0.299457 0.175580
vt 0.291399 0.193497
vt 0.173094 0.147637
vt 0.203730 0.207100
vt 0.219189 0.214223
vt 0.581097 0.183991
vt 0.605358 0.176130
vt 0.610312 0.183938
vt 0.591524 0.197451
vt 0.597759 0.151920
vt 0.611688 0.171177
vt 0.610511 0.142624
vt 0.618377 0.166721
vt 0.616088 0.191141
vt 0.623528 0.215650
vt 0.642972 0.160183
vt 0.624257 0.173866
vt 0.653249 0.173904
vt 0.629377 0.181600
vt 0.636794 0.205887
vt 0.623142 0.186969
vt 0.617306 0.178949
vt 0.461542 0.845410
vt 0.449823 0.841987
vt 0.448763 0.836435
vt 0.459723 0.834287
vt 0.329535 0.820340
vt 0.402417 0.830545
vt 0.515028 0.817355
vt 0.584463 0.791586
vt 0.471828 0.842159
vt 0.471317 0.833941
vt 0.458381 0.821140
vt 0.469790 0.823979
vt 0.447904 0.826412
vt 0.433195 0.861058
vt 0.462215 0.857144
vt 0.423629 0.833383
vt 0.496856 0.842931
vt 0.495030 0.825057
vt 0.474788 0.799384
vt 0.455727 0.797423
vt 0.425042 0.817407
vt 0.437574 0.803555
vt 0.489914 0.809861
vt 0.488858 0.861165
vt 0.425234 0.844855
vt 0.405123 0.809804
vt 0.476986 0.777860
vt 0.527508 0.243484
vt 0.518204 0.841708
vt 0.088702 0.098618
vt 0.419996 0.877534
vt 0.577453 0.771783
vt 0.410148 0.711673
vt 0.326741 0.024659
vt 0.377752 0.219957
vt 0.711194 0.154315
vt 0.650052 0.196173
vt 0.121926 0.071137
vt 0.262532 0.004883
vt 0.644949 0.272077
vt 0.564483 0.259607
vt 0.600970 0.211615
vt 0.589598 0.086201
vt 0.633229 0.146037
vt 0.584938 0.161122
vt 0.523985 0.203346
vt 0.280607 0.209808
vt 0.191000 0.195801
vt 0.284178 0.102896
vt 0.192853 0.114340
vt 0.325324 0.277362
vt 0.129155 0.238219
vt 0.459279 0.272077
vt 0.330365 0.836079
vt 0.286510 0.041147
vt 0.447747 0.278523
vt 0.120248 0.356920
vt 0.004883 0.139605
vt 0.726496 0.021650
vt 0.475577 0.052945
vn -0.611668 0.299294 0.732315
vn 0.000000 0.309014 0.951057
vn 0.000000 0.308863 0.951107
vn -0.662061 0.323548 0.676012
vn -0.630543 0.284829 -0.722003
vn -0.004044 0.271786 -0.962349
vn 0.000000 0.271391 -0.962469
vn -0.593278 0.272062 -0.757630
vn 0.614697 0.287655 0.734440
vn 0.990201 0.136576 0.029147
vn 0.980794 0.193996 -0.020209
vn 0.665799 0.303930 0.681424
vn -0.768109 0.235018 0.595631
vn -0.857156 0.291934 0.424332
vn -0.818325 0.235999 -0.524069
vn -0.974818 0.222970 0.003804
vn -0.965481 0.260457 -0.002870
vn -0.806645 0.275848 -0.522716
vn 0.966125 0.185454 0.179472
vn 0.988700 0.089778 0.120054
vn 0.984824 0.168199 -0.042792
vn 0.977873 0.207237 0.028587
vn -0.754981 0.151787 0.637937
vn -0.040576 0.294677 0.954735
vn -0.262107 0.937263 -0.229866
vn -0.990492 0.133918 -0.031475
vn 0.886228 0.463242 0.002455
vn 0.638858 0.410053 0.650936
vn 0.622354 0.265516 -0.736326
vn 0.592134 0.258929 -0.763108
vn -0.032034 0.246691 -0.968565
vn -0.700174 0.126546 -0.702668
vn -0.748057 0.236063 -0.620229
vn -0.859451 0.283751 -0.425240
vn 0.627214 0.361825 -0.689700
vn -0.811285 0.255072 0.526075
vn -0.805312 0.290016 0.517073
vn -0.887628 0.412476 0.204889
vn -0.012474 0.760555 0.649154
vn 0.008262 0.229838 0.973194
vn -0.719840 0.215273 0.659916
vn -0.969253 0.245922 -0.008478
vn 0.676350 0.272707 0.684238
vn 0.948159 0.315786 0.035694
vn -0.663006 0.254882 -0.703888
vn 0.000929 0.251776 -0.967785
vn 0.645070 0.285790 -0.708667
vn -0.712772 0.373136 0.593907
vn -0.637395 0.481071 0.601913
vn -0.834936 0.550347 -0.000533
vn -0.944119 0.329606 -0.000000
vn 0.000000 0.331705 0.943383
vn 0.000000 0.556840 0.830620
vn 0.637307 0.391832 0.663557
vn 0.637395 0.481071 0.601913
vn -0.660609 0.488294 -0.570232
vn -0.797261 0.369154 -0.477598
vn 0.923930 0.382561 0.000660
vn 0.834448 0.551070 0.004280
vn 0.732485 0.394741 -0.554658
vn 0.659646 0.490591 -0.569375
vn -0.001658 0.392955 -0.919556
vn -0.005671 0.592722 -0.805387
vn -0.000058 0.999996 -0.002829
vn 0.800556 0.590980 -0.099259
vn 0.517914 0.568123 -0.639532
vn -0.087329 0.681634 -0.726463
vn -0.010937 0.999940 -0.000000
vn -0.383699 0.235920 -0.892814
vn -0.334803 0.278482 -0.900197
vn -0.260795 0.294748 0.919299
vn -0.302996 0.258871 0.917158
vn 0.465246 0.628903 0.622918
vn -0.072924 0.674240 0.734903
vn -0.744333 0.667809 0.000001
vn -0.498560 0.635842 0.589189
vn -0.498558 0.635843 -0.589189
vn 0.545455 0.402256 -0.735302
vn 0.915988 0.383046 -0.119336
vn -0.219820 0.510971 -0.831016
vn 0.499490 0.473447 0.725505
vn -0.177307 0.511758 0.840635
vn -0.639636 0.511362 0.573912
vn -0.855497 0.517808 0.000001
vn -0.639634 0.511363 -0.573913
s 1
g Piedra11
usemtl initialShadingGroup
f 1/124/1 16/2/2 12/3/3 3/4/4
f 5/116/5 14/6/6 15/7/7 7/8/8
f 2/123/9 23/10/10 24/11/11 4/12/12
f 22/117/13 1/1/1 3/110/4 21/92/14
f 59/97/15 60/16/16 61/17/17 62/18/18
f 11/99/19 10/120/20 19/21/21 20/22/22
f 35/23/23 34/24/24 36/25/25 37/26/26
f 38/27/27 36/25/25 34/24/24 39/28/28
f 15/7/7 14/6/6 6/29/29 8/121/30
f 12/3/3 16/2/2 2/9/9 4/107/12
f 37/26/26 36/25/25 40/31/31 41/32/32
f 7/122/8 18/33/33 17/94/34 5/5/5
f 20/22/22 19/21/21 8/30/30 6/115/29
f 40/31/31 36/25/25 38/27/27 42/35/35
f 60/16/16 63/36/36 64/91/37 61/17/17
f 24/11/11 23/10/10 10/20/20 11/100/19
f 9/103/38 13/119/39 25/40/40 26/41/41
f 17/94/34 9/102/38 26/114/41 27/42/42
f 13/119/39 11/98/19 29/113/43 25/40/40
f 11/99/19 20/22/22 28/44/44 29/43/43
f 14/6/6 5/116/5 31/112/45 30/46/46
f 5/5/5 17/94/34 27/42/42 31/45/45
f 20/22/22 6/115/29 32/111/47 28/44/44
f 6/29/29 14/6/6 30/46/46 32/47/47
f 26/41/41 25/40/40 34/24/24 35/23/23
f 27/42/42 26/114/41 35/23/23 37/26/26
f 25/40/40 29/113/43 39/28/28 34/24/24
f 29/43/43 28/44/44 38/27/27 39/28/28
f 30/46/46 31/112/45 41/32/32 40/31/31
f 31/45/45 27/42/42 37/26/26 41/32/32
f 28/44/44 32/111/47 42/35/35 38/27/27
f 32/47/47 30/46/46 40/31/31 42/35/35
f 43/48/48 44/49/49 48/50/50 47/51/51
f 44/49/49 43/109/48 46/52/52 45/53/53
f 45/53/53 46/52/52 50/54/54 49/55/55
f 47/51/51 48/50/50 55/56/56 56/106/57
f 49/55/55 50/108/54 52/58/58 51/59/59
f 51/59/59 52/58/58 58/60/60 57/61/61
f 53/62/62 54/63/63 57/61/61 58/101/60
f 54/63/63 53/62/62 56/57/57 55/56/56
f 44/49/49 45/53/53 33/64/64 48/50/50
f 45/53/53 49/55/55 51/59/59 33/64/64
f 48/50/50 33/64/64 54/63/63 55/56/56
f 33/64/64 51/59/59 57/61/61 54/63/63
f 3/4/4 12/3/3 46/52/52 43/109/48
f 21/92/14 3/110/4 43/48/48 47/51/51
f 12/3/3 4/107/12 50/54/54 46/52/52
f 4/12/12 24/11/11 52/58/58 50/108/54
f 13/39/39 9/104/38 56/57/57 53/62/62
f 9/105/38 21/92/14 47/51/51 56/106/57
f 24/11/11 11/100/19 58/60/60 52/58/58
f 11/19/19 13/39/39 53/62/62 58/101/60
f 69/65/65 70/66/66 71/67/67 72/68/68
f 17/34/34 18/118/33 67/69/69 68/70/70
f 22/13/13 21/93/14 65/71/71 66/72/72
f 73/73/73 69/65/65 72/68/68 74/74/74
f 74/74/74 72/68/68 75/75/75 76/76/76
f 66/72/72 65/71/71 64/37/37 63/96/36
f 68/70/70 67/69/69 59/15/15 62/90/18
f 72/68/68 71/67/67 77/77/77 75/75/75
f 9/38/38 17/95/34 79/78/78 80/79/79
f 17/34/34 68/70/70 78/80/80 79/89/78
f 21/14/14 9/38/38 80/79/79 81/88/81
f 65/71/71 21/93/14 81/81/81 82/82/82
f 61/17/17 64/91/37 83/83/83 84/84/84
f 64/37/37 65/71/71 82/82/82 83/87/83
f 68/70/70 62/90/18 85/85/85 78/80/80
f 62/18/18 61/17/17 84/84/84 85/86/85
f 79/89/78 78/80/80 71/67/67 70/66/66
f 80/79/79 79/78/78 70/66/66 69/65/65
f 81/88/81 80/79/79 69/65/65 73/73/73
f 82/82/82 81/81/81 73/73/73 74/74/74
f 83/87/83 82/82/82 74/74/74 76/76/76
f 84/84/84 83/83/83 76/76/76 75/75/75
f 85/86/85 84/84/84 75/75/75 77/77/77
f 78/80/80 85/85/85 77/77/77 71/67/67
g default
v 4.094968 0.000000 9.804582
v 7.275113 0.000000 9.744693
v 4.887963 2.496737 9.085157
v 6.453677 2.496737 9.025269
v 4.857749 2.554221 5.231123
v 6.568628 2.574105 5.231123
v 4.189159 0.000000 4.584256
v 7.395532 0.000000 4.584256
v 4.819319 2.731299 7.167201
v 3.859031 0.000000 7.199797
v 7.589924 0.000000 7.199797
v 6.598793 2.740479 7.167201
v 5.710257 2.498806 9.256358
v 5.706281 3.617644 7.214329
v 5.714074 2.559376 4.988169
v 5.888280 0.000000 4.293426
v 5.660390 0.000000 10.072693
v 4.408966 2.563801 6.113335
v 3.466650 0.000000 5.792596
v 7.982305 0.000000 5.792596
v 7.011951 2.594054 6.113335
v 4.601018 2.501244 8.218371
v 3.715922 0.000000 8.606086
v 7.733033 0.000000 8.606086
v 6.819495 2.501372 8.218371
v 5.654484 5.027055 6.818863
v 5.201236 4.846063 6.644490
v 4.979786 4.695287 6.169551
v 6.386456 4.901913 6.169551
v 6.125805 4.981873 6.644490
v 5.708230 4.669070 5.520747
v 5.239370 4.634408 5.693953
v 6.163939 4.770218 5.693953
v 5.710317 5.745779 8.162261
v 5.473179 6.340866 6.605012
v 5.247138 6.072855 6.498140
v 5.403851 7.267652 6.153293
v 5.147626 6.151282 6.204031
v 5.849900 6.332173 6.204031
v 5.777555 6.203074 6.498140
v 5.522904 6.148777 5.817688
v 5.282489 5.928091 5.918622
v 5.812907 6.058311 5.918622
v 5.282407 4.118261 8.622466
v 5.479353 4.808304 8.429105
v 5.710237 5.030898 8.493069
v 5.710257 4.136880 8.758417
v 5.131719 4.151881 8.162984
v 5.419475 5.096251 8.163370
v 5.941121 4.808304 8.429105
v 6.138107 4.118261 8.622466
v 6.001401 5.096379 8.163001
v 6.288855 4.152649 8.162929
v 5.710317 4.236203 7.550515
v 5.710639 5.020991 7.823501
v 5.479353 4.808056 7.894904
v 5.282407 4.134686 7.700672
v 5.942906 4.808758 7.893264
v 6.138469 4.139297 7.700339
v 6.303976 4.945619 6.428489
v 5.066238 3.661224 5.489553
v 5.463033 4.641355 5.564080
v 5.725525 3.681846 5.283460
v 5.062027 4.652878 5.910241
v 6.377731 3.740763 5.489553
v 6.324572 4.838332 5.910241
v 5.950179 4.712911 5.564080
v 5.566681 5.780119 6.716676
v 5.244260 5.659856 6.545375
v 5.090903 5.527938 6.192863
v 5.910443 5.805401 6.545375
v 6.104456 5.749375 6.192863
v 5.284118 5.476038 5.842296
v 5.625807 5.511578 5.683690
v 5.950301 5.621583 5.842296
v 5.413303 4.561110 8.495544
v 5.449080 5.027386 8.307636
v 5.303164 4.605465 8.163083
v 5.168599 4.136321 8.417274
v 5.476309 4.126321 8.729465
v 5.710252 4.594226 8.609000
v 5.589138 4.987818 8.464005
v 5.944205 4.126321 8.729465
v 6.007192 4.561110 8.495544
v 5.831337 4.987881 8.464005
v 5.449080 5.027581 8.018856
v 5.413156 4.562956 7.826725
v 5.168599 4.136321 7.908695
v 6.251915 4.136321 8.417274
v 6.117589 4.605977 8.162856
v 5.971394 5.027823 8.307636
v 6.252156 4.139395 7.908473
v 6.009074 4.566029 7.825090
v 5.973001 5.026021 8.017381
v 5.710500 4.605812 7.694121
v 5.832943 4.981776 7.854806
v 5.944447 4.195097 7.584960
v 5.476309 4.192024 7.585182
v 5.589138 4.983151 7.856282
v 5.710257 5.560596 8.313771
v 5.580110 5.595098 8.162539
v 5.840645 5.595098 8.162317
v 5.710498 5.556095 8.009304
v 5.710257 3.439564 8.970067
v 5.084974 3.431292 8.820911
v 4.868892 3.449317 8.162984
v 6.335539 3.431292 8.820911
v 6.551621 3.449830 8.162984
v 5.084974 3.486797 7.511045
v 5.710257 3.773108 7.391840
v 6.335539 3.489871 7.511045
v 4.677495 0.000000 10.032194
v 5.719271 1.311132 9.640149
v 5.260313 2.497568 9.236776
v 4.627783 1.311132 9.425776
v 5.263146 2.555246 5.036381
v 5.732815 1.311132 4.651214
v 4.946591 0.000000 4.342647
v 4.610433 1.311132 4.920691
v 7.640706 0.000000 9.283739
v 7.148321 1.311132 8.384535
v 6.744788 2.499194 8.704891
v 6.720074 1.311132 9.365887
v 3.808249 0.000000 9.283739
v 4.670802 2.499194 8.708630
v 4.278989 1.311132 8.384535
v 3.642068 0.000000 6.491555
v 4.399309 1.311132 7.180296
v 4.540765 2.573734 6.606421
v 4.055894 1.311132 5.975604
v 7.028390 1.311132 7.180296
v 7.806887 0.000000 6.491555
v 7.371462 1.311132 5.975604
v 6.877052 2.600888 6.606421
v 5.334276 6.275363 6.562831
v 5.416212 6.951844 6.391400
v 5.250843 6.905284 6.176633
v 5.177783 6.184205 6.369477
v 5.609950 7.005709 6.176633
v 5.626968 6.351848 6.562831
v 5.808101 6.346562 6.369477
v 6.164591 2.565723 5.036381
v 6.839936 1.311132 4.920691
v 6.751527 0.000000 4.342647
v 6.743729 0.000000 10.032194
v 6.150851 2.497568 9.229676
v 5.444167 6.859869 5.968139
v 5.378404 6.104309 5.862707
v 5.198164 6.105715 6.047349
v 3.642068 0.000000 5.112201
v 4.543825 2.557185 5.622505
v 7.806887 0.000000 5.112201
v 6.880113 2.584338 5.622505
v 5.828483 6.268071 6.047349
v 5.671097 6.180792 5.862707
v 3.808249 0.000000 7.908040
v 4.670802 2.499194 7.725564
v 7.640706 0.000000 7.908040
v 6.749712 2.499706 7.725564
v 5.302474 3.447838 7.196744
v 5.694354 4.170928 7.004042
v 5.413472 4.951535 6.774989
v 5.043703 3.836518 6.825387
v 5.041432 4.760165 6.428489
v 4.713390 3.699548 6.160512
v 6.110793 3.458827 7.196744
v 6.355195 3.916057 6.825387
v 5.900618 5.023092 6.774989
v 6.708737 3.820560 6.160512
v 5.087796 1.311132 9.612827
v 5.155913 1.311132 4.700394
v 7.059902 1.311132 8.973908
v 4.367099 1.311132 8.973908
v 4.207793 1.311132 6.575629
v 7.219804 1.311132 6.575629
v 5.274501 6.722430 6.380484
v 5.596815 6.812565 6.380484
v 6.334873 1.311132 4.700394
v 6.348557 1.311132 9.611861
v 5.299096 6.636262 6.008085
v 4.216841 1.311132 5.384859
v 7.210272 1.311132 5.384859
v 5.621410 6.726398 6.008084
v 4.356290 1.311132 7.784965
v 7.071290 1.311132 7.784965
v 5.350257 4.035514 6.969582
v 4.809411 3.739278 6.530648
v 6.041270 4.077422 6.969582
v 6.600317 3.847892 6.530648
v 5.379199 3.665328 5.328846
v 4.821651 3.673080 5.790128
v 6.612558 3.781694 5.790128
v 6.070211 3.707236 5.328846
v 5.394372 5.727775 6.666870
v 5.132157 5.588795 6.380122
v 5.745377 5.804461 6.666870
v 6.041863 5.787543 6.380122
v 5.447908 5.483306 5.728369
v 5.153337 5.490634 6.005358
v 6.063042 5.689383 6.005358
v 5.798914 5.559993 5.728369
v 5.325747 4.584224 8.343161
v 5.550956 4.576732 8.586061
v 5.869542 4.576732 8.586061
v 5.325802 4.584224 7.983267
v 6.094749 4.584224 8.343161
v 6.095858 4.586273 7.982269
v 5.870542 4.586163 7.723472
v 5.551028 4.584114 7.724569
v 5.594045 5.458354 8.300361
v 5.826465 5.458354 8.300361
v 5.594014 5.456197 8.023870
v 5.827519 5.454001 8.022919
v 5.367865 3.434616 8.947352
v 4.921086 3.441117 8.532453
v 6.052649 3.434616 8.947352
v 6.499428 3.441117 8.532453
v 5.367865 3.656637 7.402575
v 4.921086 3.441117 7.793515
v 6.499428 3.443166 7.793515
v 6.052649 3.658685 7.402575
vt 0.332927 0.462428
vt 0.480566 0.335632
vt 0.495043 0.383138
vt 0.381687 0.475576
vt 0.514487 0.335008
vt 0.516906 0.382692
vt 0.516882 0.425845
vt 0.501306 0.426098
vt 0.487523 0.427839
vt 0.330911 0.566237
vt 0.297033 0.452724
vt 0.331099 0.423631
vt 0.375041 0.572942
vt 0.286075 0.441472
vt 0.317167 0.409179
vt 0.346562 0.372006
vt 0.369412 0.395289
vt 0.387259 0.416259
vt 0.572452 0.338447
vt 0.706229 0.482470
vt 0.656384 0.492903
vt 0.553808 0.385786
vt 0.707421 0.505893
vt 0.657700 0.513609
vt 0.614997 0.520243
vt 0.613956 0.503268
vt 0.610358 0.488783
vt 0.327356 0.505975
vt 0.328667 0.482508
vt 0.378066 0.493273
vt 0.376718 0.513954
vt 0.420279 0.503524
vt 0.419320 0.520587
vt 0.412007 0.629618
vt 0.399512 0.650871
vt 0.353489 0.632856
vt 0.364033 0.613987
vt 0.386444 0.672771
vt 0.377416 0.555924
vt 0.428425 0.557467
vt 0.311977 0.614921
vt 0.320669 0.599542
vt 0.552210 0.611183
vt 0.656909 0.555591
vt 0.053516 0.419033
vt 0.084700 0.453130
vt 0.705919 0.554477
vt 0.021227 0.381239
vt 0.037137 0.362430
vt 0.067879 0.402859
vt 0.096518 0.439889
vt 0.197866 0.563606
vt 0.192296 0.559228
vt 0.194428 0.552492
vt 0.201019 0.557965
vt 0.186752 0.556683
vt 0.190217 0.550429
vt 0.193430 0.545424
vt 0.197690 0.548748
vt 0.206133 0.553248
vt 0.182829 0.537473
vt 0.188916 0.542855
vt 0.186786 0.547454
vt 0.180278 0.543873
vt 0.182226 0.552371
vt 0.176160 0.548766
vt 0.301990 0.394742
vt 0.325089 0.351196
vt 0.274477 0.430895
vt 0.262039 0.421597
vt 0.102520 0.379094
vt 0.076100 0.336282
vt 0.538699 0.382830
vt 0.532154 0.426011
vt 0.551860 0.335059
vt 0.200024 0.544250
vt 0.208689 0.546975
vt 0.196367 0.540983
vt 0.202361 0.533493
vt 0.207003 0.537959
vt 0.213551 0.540751
vt 0.420152 0.606931
vt 0.371170 0.593805
vt 0.326918 0.583109
vt 0.084631 0.389510
vt 0.109919 0.428479
vt 0.055927 0.347339
vt 0.192311 0.539183
vt 0.196324 0.531192
vt 0.187697 0.532990
vt 0.191671 0.526226
vt 0.328320 0.530147
vt 0.377253 0.534945
vt 0.419617 0.537796
vt 0.657109 0.534610
vt 0.614703 0.537468
vt 0.706321 0.530013
vt 0.503282 0.590869
vt 0.162133 0.628166
vt 0.265416 0.604414
vt 0.516831 0.585350
vt 0.152581 0.619304
vt 0.166180 0.591988
vt 0.173230 0.597544
vt 0.180356 0.603586
vt 0.275356 0.595341
vt 0.282719 0.584283
vt 0.243685 0.577318
vt 0.249837 0.569880
vt 0.530316 0.590676
vt 0.140164 0.616819
vt 0.111105 0.495463
vt 0.142032 0.518217
vt 0.158223 0.588293
vt 0.117076 0.483357
vt 0.125369 0.472873
vt 0.151884 0.501377
vt 0.146652 0.509473
vt 0.266243 0.478233
vt 0.257507 0.469830
vt 0.291737 0.559148
vt 0.257703 0.552232
vt 0.239728 0.500996
vt 0.233121 0.495257
vt 0.288131 0.572067
vt 0.254487 0.561417
vt 0.134741 0.463475
vt 0.237905 0.455764
vt 0.217686 0.486733
vt 0.157783 0.493869
vt 0.248097 0.462250
vt 0.225795 0.490512
vt 0.184998 0.573141
vt 0.211829 0.569823
vt 0.178992 0.569404
vt 0.217837 0.564823
vt 0.222913 0.559091
vt 0.173260 0.565149
vt 0.164967 0.537644
vt 0.168176 0.530676
vt 0.172068 0.524104
vt 0.219297 0.522633
vt 0.214092 0.518067
vt 0.228930 0.545603
vt 0.226439 0.552462
vt 0.176800 0.518334
vt 0.201073 0.512778
vt 0.207910 0.514874
vt 0.480241 0.506319
vt 0.504994 0.502166
vt 0.495457 0.516564
vt 0.479152 0.514429
vt 0.505767 0.511536
vt 0.507398 0.518375
vt 0.507229 0.523962
vt 0.495103 0.523769
vt 0.478994 0.523550
vt 0.510786 0.501267
vt 0.512203 0.512968
vt 0.508761 0.484978
vt 0.517066 0.484952
vt 0.517110 0.501119
vt 0.517141 0.512821
vt 0.523433 0.501238
vt 0.522077 0.512953
vt 0.525371 0.484932
vt 0.532995 0.485953
vt 0.537900 0.510318
vt 0.528504 0.511494
vt 0.495275 0.530962
vt 0.478893 0.532673
vt 0.507324 0.529540
vt 0.505530 0.536333
vt 0.504707 0.545667
vt 0.500763 0.561051
vt 0.538832 0.516493
vt 0.526900 0.518348
vt 0.555130 0.514309
vt 0.555295 0.523433
vt 0.539201 0.523712
vt 0.527101 0.523953
vt 0.539010 0.530930
vt 0.527046 0.529573
vt 0.555350 0.532559
vt 0.553936 0.540681
vt 0.529540 0.545667
vt 0.528791 0.536354
vt 0.517060 0.560224
vt 0.517115 0.546948
vt 0.523519 0.546742
vt 0.525395 0.561050
vt 0.517165 0.535537
vt 0.522211 0.535277
vt 0.510717 0.546755
vt 0.512141 0.535232
vt 0.508718 0.561085
vt 0.514104 0.520467
vt 0.517160 0.520151
vt 0.517168 0.524100
vt 0.513825 0.524088
vt 0.520217 0.520457
vt 0.520511 0.524084
vt 0.514075 0.527727
vt 0.517174 0.528080
vt 0.520281 0.527743
vt 0.505120 0.459948
vt 0.455562 0.499006
vt 0.516998 0.459833
vt 0.453755 0.510315
vt 0.453235 0.523194
vt 0.528879 0.459868
vt 0.578667 0.498829
vt 0.580517 0.510119
vt 0.581063 0.522986
vt 0.504386 0.580413
vt 0.516995 0.577252
vt 0.456688 0.546986
vt 0.453328 0.536085
vt 0.580951 0.535871
vt 0.541291 0.583364
vt 0.529571 0.580453
vt 0.577589 0.546778
vt 0.533338 0.561033
vt 0.074367 0.472860
vt 0.605615 0.557163
vt 0.492639 0.583271
vt 0.480285 0.540795
vt 0.296235 0.630815
vt 0.161887 0.677603
vt 0.539511 0.461163
vt 0.554012 0.506205
vt 0.544585 0.428293
vt 0.494496 0.461291
vt 0.422882 0.488770
vt 0.501143 0.486040
vt 0.538196 0.537258
vt 0.496076 0.537280
vt 0.529229 0.502106
vt 0.496364 0.510386
vt 0.181736 0.513046
vt 0.164476 0.486957
vt 0.223744 0.528144
vt 0.245517 0.507888
vt 0.167367 0.561089
vt 0.149764 0.584939
vt 0.190847 0.577094
vt 0.236337 0.583955
vt 0.145041 0.455147
vt 0.124328 0.418910
vt 0.273927 0.487700
vt 0.306745 0.464904
vt 0.127019 0.615194
vt 0.171575 0.638039
vt 0.039146 0.435731
vt 0.004883 0.400802
vt 0.342452 0.651913
vt 0.328632 0.554632
vt 0.286922 0.382998
vt 0.306510 0.336282
vt 0.343986 0.439431
vt 0.423145 0.580972
vt 0.651506 0.475559
vt 0.700603 0.463061
vt 0.478027 0.385450
vt 0.459154 0.338515
vt 0.154055 0.648677
vt 0.481400 0.611183
vt 0.143766 0.637916
vt 0.128982 0.637020
vt 0.101950 0.650278
vn -0.608220 0.435457 0.663660
vn -0.189546 0.353353 0.916086
vn -0.165367 0.335683 0.927346
vn -0.596135 0.396927 0.697906
vn -0.000775 0.314568 0.949235
vn 0.002219 0.312573 0.949891
vn 0.003713 0.303819 0.952723
vn -0.191652 0.317393 0.928726
vn -0.629483 0.335091 0.701046
vn -0.590678 0.294298 -0.751324
vn -0.255992 0.274331 -0.926936
vn -0.204425 0.284114 -0.936744
vn -0.530213 0.339198 -0.777058
vn -0.004384 0.262058 -0.965042
vn -0.002860 0.267880 -0.963448
vn 0.004620 0.270721 -0.962647
vn -0.194998 0.291885 -0.936365
vn -0.521655 0.369733 -0.768878
vn 0.597382 0.435681 0.673288
vn 0.821709 0.449319 0.350579
vn 0.840813 0.399958 0.364784
vn 0.598755 0.395754 0.696327
vn 0.911665 0.410605 0.016474
vn 0.935819 0.352466 0.003421
vn 0.963049 0.269325 0.000557
vn 0.878208 0.303414 0.369717
vn 0.631494 0.315229 0.708411
vn -0.917263 0.397943 0.016429
vn -0.854590 0.432597 0.287291
vn -0.878331 0.380123 0.289899
vn -0.939746 0.341868 0.002172
vn -0.906958 0.297944 0.297754
vn -0.964038 0.265754 -0.002115
vn -0.909960 0.414073 -0.022741
vn -0.894635 0.370809 0.249257
vn -0.909603 0.315559 0.270267
vn -0.934533 0.355873 -0.001530
vn -0.918451 0.379004 0.113153
vn -0.938234 0.325253 0.118017
vn -0.938564 0.301685 0.167581
vn -0.917076 0.250041 0.310568
vn -0.963639 0.267185 -0.003543
vn 0.935642 0.302135 0.182453
vn 0.935156 0.333543 0.119296
vn 0.906894 0.322755 0.270874
vn 0.914241 0.247349 0.320909
vn 0.913180 0.391676 0.112662
vn 0.889770 0.383327 0.247728
vn 0.904254 0.426392 -0.022688
vn 0.932053 0.362320 -0.000737
vn 0.965948 0.258693 0.004726
vn -0.770650 0.089101 0.630999
vn -0.573089 0.169306 0.801813
vn -0.801320 0.245668 0.545466
vn -0.927067 0.124037 0.353782
vn -0.078015 0.266299 0.960728
vn -0.157928 0.527793 0.834562
vn -0.186421 0.966489 -0.176483
vn -0.938481 0.319946 -0.129951
vn -0.988890 0.117494 -0.091056
vn 0.925740 0.376367 -0.036791
vn 0.832446 0.549985 -0.067457
vn 0.655697 0.412790 0.632191
vn 0.833514 0.358386 0.420493
vn 0.446711 0.311107 0.838846
vn 0.681285 0.309784 0.663238
vn 0.206648 0.300643 -0.931080
vn 0.220924 0.324455 -0.919740
vn 0.248446 0.273228 -0.929312
vn 0.598005 0.289355 -0.747438
vn 0.557961 0.367101 -0.744256
vn 0.568582 0.416472 -0.709412
vn 0.217285 0.348045 0.911950
vn 0.256286 0.318180 0.912732
vn 0.236327 0.365908 0.900145
vn -0.715726 0.165095 -0.678586
vn -0.858071 0.106971 -0.502266
vn -0.103353 0.356244 -0.928659
vn -0.062014 0.211874 -0.975328
vn -0.509457 0.139839 -0.849058
vn -0.694725 0.108131 -0.711102
vn -0.791235 0.424775 -0.439902
vn -0.811858 0.375608 -0.446996
vn -0.849365 0.292301 -0.439476
vn 0.823093 0.387732 -0.414948
vn 0.856124 0.282019 -0.433033
vn 0.802690 0.446950 -0.394872
vn 0.647987 0.326992 -0.687888
vn 0.427625 0.267906 -0.863344
vn 0.806314 0.338295 -0.485195
vn 0.631167 0.308705 -0.711568
vn -0.921482 0.376587 -0.095147
vn -0.940400 0.324242 -0.102544
vn -0.953604 0.269596 -0.134006
vn 0.937136 0.333793 -0.101777
vn 0.952856 0.272817 -0.132803
vn 0.916205 0.389413 -0.094474
vn -0.698454 0.561173 0.444125
vn -0.415637 0.287256 0.862978
vn -0.738197 0.282264 0.612693
vn -0.015843 0.706622 0.707414
vn -0.015147 0.272465 0.962047
vn -0.015508 0.186449 0.982342
vn -0.402113 0.177305 0.898259
vn -0.705694 0.188727 0.682918
vn -0.900194 0.251663 0.355411
vn -0.965628 0.258702 -0.025233
vn -0.901148 0.199848 0.384699
vn -0.974748 0.216135 -0.056152
vn 0.677695 0.558716 0.478086
vn 0.385947 0.296410 0.873605
vn 0.716752 0.288731 0.634745
vn 0.661889 0.258922 0.703464
vn 0.367632 0.225431 0.902235
vn 0.886524 0.256336 0.385183
vn 0.966081 0.258227 0.002644
vn 0.954738 0.297364 -0.007038
vn 0.859731 0.279806 0.427283
vn -0.291357 0.262426 -0.919915
vn -0.011259 0.250570 -0.968033
vn -0.612116 0.275075 -0.741382
vn -0.631637 0.224875 -0.741934
vn -0.338678 0.219957 -0.914831
vn -0.020704 0.222866 -0.974629
vn -0.849341 0.271346 -0.452760
vn -0.849931 0.222154 -0.477770
vn 0.857188 0.264341 -0.441987
vn 0.611712 0.265906 -0.745052
vn 0.615456 0.273690 -0.739126
vn 0.842718 0.290188 -0.453451
vn 0.275918 0.256584 -0.926301
vn 0.305726 0.246095 -0.919765
vn -0.448647 0.113361 0.886491
vn -0.733106 0.102804 0.672300
vn -0.025158 0.161944 0.986479
vn -0.920768 0.107184 0.375096
vn -0.990879 0.118194 -0.064720
vn 0.393559 0.220809 0.892387
vn 0.669647 0.270121 0.691815
vn 0.854341 0.316064 0.412560
vn 0.938880 0.343816 -0.017171
vn -0.400261 0.162028 -0.901963
vn -0.032354 0.199147 -0.979435
vn -0.668551 0.145051 -0.729383
vn -0.867649 0.131141 -0.479570
vn 0.830272 0.324777 -0.452955
vn 0.625358 0.290151 -0.724389
vn 0.342934 0.247941 -0.906047
vn -0.648691 0.369382 0.665400
vn -0.673657 0.348589 0.651668
vn -0.881472 0.330377 0.337427
vn -0.880378 0.362819 0.305446
vn -0.691104 0.292285 0.661018
vn -0.844675 0.271770 0.461156
vn -0.956721 0.291008 -0.000261
vn -0.950579 0.310484 -0.000066
vn -0.935344 0.353740 -0.000026
vn -0.348455 0.323850 0.879602
vn -0.487510 0.283208 0.825910
vn -0.272256 0.331245 0.903412
vn 0.000001 0.307036 0.951698
vn -0.000008 0.302360 0.953194
vn -0.000053 0.307085 0.951682
vn 0.348462 0.323857 0.879597
vn 0.487331 0.283186 0.826023
vn 0.272258 0.331249 0.903410
vn 0.648690 0.369389 0.665397
vn 0.673641 0.348577 0.651692
vn 0.691009 0.292226 0.661144
vn -0.883931 0.331599 -0.329710
vn -0.885686 0.363955 -0.288265
vn -0.846902 0.271732 -0.457076
vn -0.708380 0.298214 -0.639739
vn -0.706331 0.358470 -0.610407
vn -0.705182 0.381658 -0.597541
vn 0.881189 0.330293 0.338250
vn 0.844303 0.271712 0.461871
vn 0.880252 0.362759 0.305881
vn 0.935493 0.353339 0.001994
vn 0.950646 0.310252 0.004060
vn 0.956572 0.291488 0.002414
vn 0.886174 0.331118 -0.324123
vn 0.848492 0.273452 -0.453085
vn 0.886922 0.362991 -0.285670
vn 0.705425 0.380445 -0.598028
vn 0.706500 0.357975 -0.610502
vn 0.707923 0.300280 -0.639279
vn -0.002445 0.349610 -0.936892
vn -0.004597 0.344334 -0.938836
vn 0.408806 0.355025 -0.840735
vn 0.365298 0.365912 -0.855959
vn -0.003197 0.326348 -0.945244
vn 0.505135 0.297341 -0.810202
vn -0.415513 0.355238 -0.837350
vn -0.509910 0.295173 -0.808001
vn -0.368852 0.367019 -0.853959
vn -0.675846 0.342785 0.652481
vn 0.000235 0.493709 0.869627
vn 0.002015 0.999929 -0.011740
vn -0.866280 0.499539 -0.004452
vn 0.675662 0.342781 0.652673
vn 0.865925 0.500156 -0.004258
vn -0.678193 0.343757 -0.649527
vn -0.000279 0.493324 -0.869846
vn 0.677398 0.345386 -0.649492
vn -0.222887 0.316708 0.921964
vn -0.640883 0.341489 0.687499
vn 0.002793 0.297075 0.954850
vn -0.899849 0.318726 0.297800
vn -0.953618 0.301002 -0.003188
vn 0.256281 0.303633 0.917675
vn 0.647230 0.305805 0.698267
vn 0.891534 0.308094 0.332033
vn 0.953877 0.300196 -0.000770
vn -0.473327 0.500256 -0.725056
vn -0.002275 0.485007 -0.874507
vn -0.812354 0.410632 -0.414081
vn -0.922871 0.319690 -0.214726
vn 0.923295 0.319225 -0.213591
vn 0.812316 0.410597 -0.414190
vn 0.471460 0.500616 -0.726023
s 1
g Piedra10
usemtl initialShadingGroup
f 86/389/86 197/126/87 255/127/88 200/388/89
f 197/126/87 102/129/90 198/130/91 255/127/88
f 255/127/88 198/130/91 98/131/92 199/132/93
f 200/388/89 255/127/88 199/132/93 88/133/94
f 90/375/95 201/135/96 256/136/97 204/384/98
f 201/135/96 100/138/99 202/139/100 256/136/97
f 256/136/97 202/139/100 101/140/101 203/141/102
f 204/384/98 256/136/97 203/141/102 92/142/103
f 87/387/104 205/144/105 257/145/106 208/386/107
f 205/144/105 109/147/108 206/148/109 257/145/106
f 257/145/106 206/148/109 110/149/110 207/150/111
f 208/386/107 257/145/106 207/150/111 89/151/112
f 108/152/113 209/153/114 258/154/115 211/155/116
f 209/153/114 86/125/86 200/128/89 258/154/115
f 258/154/115 200/128/89 88/358/94 210/156/117
f 211/155/116 258/154/115 210/156/117 107/157/118
f 104/158/119 212/159/120 259/160/121 215/161/122
f 212/159/120 95/162/123 213/380/124 259/160/121
f 259/160/121 213/380/124 94/352/125 214/165/126
f 215/161/122 259/160/121 214/165/126 103/166/127
f 97/348/128 216/378/129 260/169/130 219/170/131
f 216/378/129 96/379/132 217/172/133 260/169/130
f 260/169/130 217/172/133 105/173/134 218/174/135
f 219/170/131 260/169/130 218/174/135 106/175/136
f 121/176/137 220/177/138 261/178/139 223/179/140
f 220/177/138 120/180/141 221/181/142 261/178/139
f 261/178/139 221/181/142 122/182/143 222/183/144
f 223/179/140 261/178/139 222/183/144 123/184/145
f 124/185/146 224/186/147 262/187/148 226/188/149
f 224/186/147 122/182/143 221/181/142 262/187/148
f 262/187/148 221/181/142 120/180/141 225/189/150
f 226/188/149 262/187/148 225/189/150 125/190/151
f 101/140/101 202/139/100 263/191/152 229/192/153
f 202/139/100 100/138/99 227/193/154 263/191/152
f 263/191/152 227/193/154 91/194/155 228/382/156
f 229/192/153 263/191/152 228/382/156 93/383/157
f 98/131/92 198/130/91 264/197/158 231/198/159
f 198/130/91 102/129/90 230/199/160 264/197/158
f 264/197/158 230/199/160 87/143/104 208/146/107
f 231/198/159 264/197/158 208/146/107 89/356/112
f 123/184/145 222/183/144 265/200/161 234/201/162
f 222/183/144 122/182/143 232/202/163 265/200/161
f 265/200/161 232/202/163 126/203/164 233/204/165
f 234/201/162 265/200/161 233/204/165 127/205/166
f 92/385/103 235/206/167 266/207/168 204/137/98
f 235/206/167 104/158/119 215/161/122 266/207/168
f 266/207/168 215/161/122 103/166/127 236/208/169
f 204/137/98 266/207/168 236/208/169 90/134/95
f 106/175/136 218/174/135 267/209/170 238/210/171
f 218/174/135 105/173/134 237/211/172 267/209/170
f 267/209/170 237/211/172 93/196/157 228/195/156
f 238/210/171 267/209/170 228/195/156 91/373/155
f 126/203/164 232/202/163 268/212/173 240/213/174
f 232/202/163 122/182/143 224/186/147 268/212/173
f 268/212/173 224/186/147 124/185/146 239/214/175
f 240/213/174 268/212/173 239/214/175 128/215/176
f 95/381/123 241/216/177 269/217/178 213/163/124
f 241/216/177 108/152/113 211/155/116 269/217/178
f 269/217/178 211/155/116 107/157/118 242/218/179
f 213/163/124 269/217/178 242/218/179 94/164/125
f 110/149/110 206/148/109 270/219/180 244/220/181
f 206/148/109 109/147/108 243/221/182 270/219/180
f 270/219/180 243/221/182 96/171/132 216/168/129
f 244/220/181 270/219/180 216/168/129 97/349/128
f 94/353/125 245/390/183 271/223/184 248/377/185
f 245/390/183 99/392/186 246/226/187 271/223/184
f 271/223/184 246/226/187 111/227/188 247/228/189
f 248/377/185 271/223/184 247/228/189 112/229/190
f 103/166/127 214/165/126 272/230/191 250/231/192
f 214/165/126 94/352/125 248/224/185 272/230/191
f 272/230/191 248/224/185 112/371/190 249/232/193
f 250/231/192 272/230/191 249/232/193 113/233/194
f 99/392/186 251/393/195 273/235/196 246/226/187
f 251/393/195 97/394/128 252/376/197 273/235/196
f 273/235/196 252/376/197 115/369/198 253/238/199
f 246/226/187 273/235/196 253/238/199 111/227/188
f 97/348/128 219/170/131 274/239/200 252/236/197
f 219/170/131 106/175/136 254/240/201 274/239/200
f 274/239/200 254/240/201 114/241/202 145/242/203
f 252/236/197 274/239/200 145/242/203 115/237/198
f 100/138/99 201/135/96 275/243/204 148/244/205
f 201/135/96 90/375/95 146/374/206 275/243/204
f 275/243/204 146/374/206 117/367/207 147/247/208
f 148/244/205 275/243/204 147/247/208 116/248/209
f 90/134/95 236/208/169 276/249/210 146/245/206
f 236/208/169 103/166/127 250/231/192 276/249/210
f 276/249/210 250/231/192 113/233/194 149/250/211
f 146/245/206 276/249/210 149/250/211 117/246/207
f 106/175/136 238/210/171 277/251/212 254/240/201
f 238/210/171 91/373/155 150/372/213 277/251/212
f 277/251/212 150/372/213 118/365/214 151/254/215
f 254/240/201 277/251/212 151/254/215 114/241/202
f 91/194/155 227/193/154 278/255/216 150/252/213
f 227/193/154 100/138/99 148/244/205 278/255/216
f 278/255/216 148/244/205 116/248/209 152/256/217
f 150/252/213 278/255/216 152/256/217 118/253/214
f 112/229/190 247/228/189 279/257/218 154/370/219
f 247/228/189 111/227/188 153/259/220 279/257/218
f 279/257/218 153/259/220 120/180/141 220/177/138
f 154/370/219 279/257/218 220/177/138 121/176/137
f 113/233/194 249/232/193 280/260/221 155/261/222
f 249/232/193 112/371/190 154/258/219 280/260/221
f 280/260/221 154/258/219 121/176/137 223/179/140
f 155/261/222 280/260/221 223/179/140 123/184/145
f 111/227/188 253/238/199 281/262/223 153/259/220
f 253/238/199 115/369/198 156/368/224 281/262/223
f 281/262/223 156/368/224 125/190/151 225/189/150
f 153/259/220 281/262/223 225/189/150 120/180/141
f 115/237/198 145/242/203 282/264/225 156/263/224
f 145/242/203 114/241/202 157/265/226 282/264/225
f 282/264/225 157/265/226 124/185/146 226/188/149
f 156/263/224 282/264/225 226/188/149 125/190/151
f 116/248/209 147/247/208 283/266/227 159/267/228
f 147/247/208 117/367/207 158/366/229 283/266/227
f 283/266/227 158/366/229 127/205/166 233/204/165
f 159/267/228 283/266/227 233/204/165 126/203/164
f 117/246/207 149/250/211 284/269/230 158/268/229
f 149/250/211 113/233/194 155/261/222 284/269/230
f 284/269/230 155/261/222 123/184/145 234/201/162
f 158/268/229 284/269/230 234/201/162 127/205/166
f 114/241/202 151/254/215 285/270/231 157/265/226
f 151/254/215 118/365/214 160/364/232 285/270/231
f 285/270/231 160/364/232 128/215/176 239/214/175
f 157/265/226 285/270/231 239/214/175 124/185/146
f 118/253/214 152/256/217 286/272/233 160/271/232
f 152/256/217 116/248/209 159/267/228 286/272/233
f 286/272/233 159/267/228 126/203/164 240/213/174
f 160/271/232 286/272/233 240/213/174 128/215/176
f 129/273/234 161/363/235 287/275/236 164/276/237
f 161/363/235 130/277/238 162/278/239 287/275/236
f 287/275/236 162/278/239 134/279/240 163/280/241
f 164/276/237 287/275/236 163/280/241 133/281/242
f 130/277/238 161/274/235 288/282/243 167/283/244
f 161/274/235 129/359/234 165/284/245 288/282/243
f 288/282/243 165/284/245 132/285/246 166/286/247
f 167/283/244 288/282/243 166/286/247 131/287/248
f 131/287/248 166/286/247 289/288/249 170/289/250
f 166/286/247 132/285/246 168/290/251 289/288/249
f 289/288/249 168/290/251 136/291/252 169/362/253
f 170/289/250 289/288/249 169/362/253 135/293/254
f 133/281/242 163/280/241 290/294/255 173/295/256
f 163/280/241 134/279/240 171/296/257 290/294/255
f 290/294/255 171/296/257 141/297/258 172/361/259
f 173/295/256 290/294/255 172/361/259 142/351/260
f 135/293/254 169/292/253 291/300/261 176/301/262
f 169/292/253 136/355/252 174/302/263 291/300/261
f 291/300/261 174/302/263 138/303/264 175/304/265
f 176/301/262 291/300/261 175/304/265 137/305/266
f 137/305/266 175/304/265 292/306/267 179/307/268
f 175/304/265 138/303/264 177/308/269 292/306/267
f 292/306/267 177/308/269 144/309/270 178/360/271
f 179/307/268 292/306/267 178/360/271 143/311/272
f 139/312/273 180/313/274 293/314/275 182/315/276
f 180/313/274 140/316/277 181/317/278 293/314/275
f 293/314/275 181/317/278 143/311/272 178/310/271
f 182/315/276 293/314/275 178/310/271 144/347/270
f 140/316/277 180/313/274 294/318/279 184/319/280
f 180/313/274 139/312/273 183/320/281 294/318/279
f 294/318/279 183/320/281 142/299/260 172/298/259
f 184/319/280 294/318/279 172/298/259 141/297/258
f 130/277/238 167/283/244 295/321/282 162/278/239
f 167/283/244 131/287/248 185/322/283 295/321/282
f 295/321/282 185/322/283 119/323/284 186/324/285
f 162/278/239 295/321/282 186/324/285 134/279/240
f 131/287/248 170/289/250 296/325/286 185/322/283
f 170/289/250 135/293/254 176/301/262 296/325/286
f 296/325/286 176/301/262 137/305/266 187/326/287
f 185/322/283 296/325/286 187/326/287 119/323/284
f 134/279/240 186/324/285 297/327/288 171/296/257
f 186/324/285 119/323/284 188/328/289 297/327/288
f 297/327/288 188/328/289 140/316/277 184/319/280
f 171/296/257 297/327/288 184/319/280 141/297/258
f 119/323/284 187/326/287 298/329/290 188/328/289
f 187/326/287 137/305/266 179/307/268 298/329/290
f 298/329/290 179/307/268 143/311/272 181/317/278
f 188/328/289 298/329/290 181/317/278 140/316/277
f 88/133/94 199/132/93 299/330/291 190/357/292
f 199/132/93 98/131/92 189/332/293 299/330/291
f 299/330/291 189/332/293 132/285/246 165/284/245
f 190/357/292 299/330/291 165/284/245 129/359/234
f 107/157/118 210/156/117 300/333/294 191/334/295
f 210/156/117 88/358/94 190/331/292 300/333/294
f 300/333/294 190/331/292 129/273/234 164/276/237
f 191/334/295 300/333/294 164/276/237 133/281/242
f 98/131/92 231/198/159 301/335/296 189/332/293
f 231/198/159 89/356/112 192/354/297 301/335/296
f 301/335/296 192/354/297 136/291/252 168/290/251
f 189/332/293 301/335/296 168/290/251 132/285/246
f 89/151/112 207/150/111 302/337/298 192/336/297
f 207/150/111 110/149/110 193/338/299 302/337/298
f 302/337/298 193/338/299 138/303/264 174/302/263
f 192/336/297 302/337/298 174/302/263 136/355/252
f 99/225/186 245/222/183 303/339/300 195/340/301
f 245/222/183 94/391/125 194/350/302 303/339/300
f 303/339/300 194/350/302 142/299/260 183/320/281
f 195/340/301 303/339/300 183/320/281 139/312/273
f 94/164/125 242/218/179 304/342/303 194/341/302
f 242/218/179 107/157/118 191/334/295 304/342/303
f 304/342/303 191/334/295 133/281/242 173/295/256
f 194/341/302 304/342/303 173/295/256 142/351/260
f 110/149/110 244/220/181 305/343/304 193/338/299
f 244/220/181 97/349/128 196/346/305 305/343/304
f 305/343/304 196/346/305 144/309/270 177/308/269
f 193/338/299 305/343/304 177/308/269 138/303/264
f 97/167/128 251/234/195 306/345/306 196/344/305
f 251/234/195 99/225/186 195/340/301 306/345/306
f 306/345/306 195/340/301 139/312/273 182/315/276
f 196/344/305 306/345/306 182/315/276 144/347/270
g default
v -9.246033 0.938721 -2.270050
v -6.575485 0.938370 -2.362488
v -8.520050 1.316742 -2.647125
v -6.873245 1.317322 -2.607178
v -8.520050 1.306137 -4.615295
v -7.108337 1.292175 -4.319519
v -8.840973 0.938721 -4.880066
v -6.665436 0.938721 -4.912170
v -8.964539 0.257256 -4.997681
v -6.541855 0.257256 -5.029724
v -6.442215 0.257256 -2.418152
v -9.369598 0.257256 -2.329437
v -6.570694 1.314568 -3.247925
v -8.952728 1.308861 -3.879028
v -9.857361 0.938721 -3.740723
v -10.050262 0.257256 -3.740723
v -5.867111 0.257256 -3.483765
v -6.071136 0.938721 -3.305084
v -7.647812 1.317322 -2.243408
v -7.668396 0.938721 -1.776154
v -7.668396 0.257256 -1.773407
v -7.732086 0.257256 -5.787292
v -7.732086 0.938721 -5.603821
v -7.850174 1.304314 -4.867188
v -7.703354 1.573769 -3.223724
v -7.350113 1.573769 -3.393890
v -7.214264 1.573769 -3.683289
v -7.749390 1.602486 -3.764282
v -7.793930 1.573769 -4.263550
v -7.462524 1.573769 -4.026489
v -8.092773 1.573769 -3.381653
v -8.285797 1.573769 -3.812073
v -8.092773 1.573769 -4.151123
vt 0.897276 0.649675
vt 0.938316 0.650589
vt 0.936602 0.671067
vt 0.903006 0.667840
vt 0.909593 0.700583
vt 0.922952 0.702594
vt 0.929860 0.711451
vt 0.912934 0.718841
vt 0.920059 0.757289
vt 0.942103 0.734668
vt 0.963737 0.754878
vt 0.931495 0.781532
vt 0.969376 0.689772
vt 0.948952 0.691709
vt 0.841323 0.736997
vt 0.841283 0.684220
vt 0.875272 0.685542
vt 0.873258 0.733533
vt 0.992376 0.749692
vt 0.938121 0.803844
vt 0.942619 0.626960
vt 0.994167 0.690622
vt 0.893014 0.626960
vt 0.819521 0.745550
vt 0.816513 0.689013
vt 0.915848 0.735661
vt 0.925170 0.725213
vt 0.888296 0.776905
vt 0.891907 0.756195
vt 0.885473 0.802092
vt 0.897645 0.708852
vt 0.895731 0.725200
vt 0.904710 0.735122
vt 0.895497 0.757988
vt 0.873132 0.688641
vt 0.943183 0.732483
vt 0.931773 0.669283
vt 0.846577 0.670169
vt 0.834156 0.649657
vt 0.951655 0.658516
vt 0.975480 0.650754
vt 0.968238 0.747337
vt 0.979866 0.774494
vt 0.878215 0.771121
vt 0.860205 0.789044
vn 0.017173 0.326077 0.945187
vn 0.638466 0.320311 0.699830
vn 0.353565 0.849487 0.391618
vn 0.008828 0.871737 0.489895
vn -0.004383 0.975251 0.221055
vn 0.168486 0.972014 0.163709
vn 0.361907 0.925437 -0.112199
vn 0.000108 1.000000 -0.000812
vn 0.035104 0.893616 -0.447457
vn 0.405616 0.863415 -0.299983
vn 0.652836 0.561878 -0.508033
vn 0.017449 0.534852 -0.844766
vn 0.866452 0.499181 -0.008928
vn 0.507426 0.861551 -0.015764
vn -0.804492 0.586586 -0.093326
vn -0.566623 0.524367 0.635592
vn -0.281202 0.911228 0.300980
vn -0.407957 0.911565 -0.051196
vn 0.761572 0.275576 -0.586571
vn -0.013292 0.268985 -0.963053
vn 0.713528 0.080388 0.696000
vn 0.959589 0.262336 -0.101831
vn 0.032206 -0.001920 0.999479
vn -0.960275 0.244772 -0.134010
vn -0.685793 0.107015 0.719886
vn 0.092757 0.934584 -0.343436
vn 0.319705 0.905102 -0.280319
vn -0.581376 0.481276 -0.656030
vn -0.347341 0.847887 -0.400552
vn -0.644545 0.228956 -0.729480
vn -0.217186 0.962057 0.165159
vn -0.306636 0.951827 -0.000229
vn -0.208212 0.949188 -0.235988
s 1
g Piedra4
usemtl initialShadingGroup
f 326/395/307 308/396/308 310/431/309 325/398/310
f 331/399/311 332/400/312 333/401/313 334/402/314
f 330/403/315 312/404/316 314/405/317 329/406/318
f 308/434/308 324/407/319 319/408/320 310/397/309
f 321/409/321 307/410/322 309/429/323 320/412/324
f 329/406/318 314/405/317 316/437/325 328/414/326
f 324/407/319 308/434/308 317/435/327 323/416/328
f 308/396/308 326/395/307 327/417/329 317/415/327
f 307/410/322 321/409/321 322/418/330 318/419/331
f 335/420/332 334/402/314 333/401/313 336/421/333
f 313/438/334 321/409/321 320/412/324 311/423/335
f 322/418/330 321/409/321 313/438/334 315/439/336
f 314/436/317 324/407/319 323/416/328 316/413/325
f 319/408/320 324/407/319 314/436/317 312/430/316
f 337/425/337 331/399/311 334/402/314 338/426/338
f 307/432/322 326/395/307 325/398/310 309/411/323
f 327/417/329 326/395/307 307/432/322 318/433/331
f 313/422/334 329/406/318 328/414/326 315/424/336
f 311/428/335 330/403/315 329/406/318 313/422/334
f 338/426/338 334/402/314 335/420/332 339/427/339
f 325/398/310 310/431/309 332/400/312 331/399/311
f 310/397/309 319/408/320 333/401/313 332/400/312
f 319/408/320 312/430/316 336/421/333 333/401/313
f 312/404/316 330/403/315 335/420/332 336/421/333
f 309/411/323 325/398/310 331/399/311 337/425/337
f 320/412/324 309/429/323 337/425/337 338/426/338
f 330/403/315 311/428/335 339/427/339 335/420/332
f 311/423/335 320/412/324 338/426/338 339/427/339
g default
v -2.739685 -0.260918 8.666107
v 0.566467 -0.260918 9.866974
v -2.433929 0.989555 8.666107
v 0.341125 1.461838 9.184143
v -2.433929 0.989555 6.996765
v 0.273438 1.461838 6.436157
v -2.739685 -0.260918 6.433594
v 0.069275 -0.260918 5.578278
v 0.919556 -0.260918 7.415619
v 0.919556 -0.260918 8.666107
v 0.607727 0.989555 7.140656
v 0.428650 0.989555 8.788300
v -1.376648 1.868317 8.759552
v -0.649689 1.868317 8.760284
v -0.370117 1.868317 7.414520
v -1.656464 1.868317 7.411224
v -1.985565 -0.260918 10.668701
v -0.041199 -0.260918 10.668701
v -0.341248 0.989555 10.667053
v -1.685486 0.989555 10.667053
v -0.742310 1.717484 9.947479
v -1.284454 1.717484 9.947479
v -1.821228 0.989555 5.589355
v -0.735168 0.753227 5.620392
v -0.926575 -0.260918 5.026184
v -1.954926 -0.260918 5.026184
v -1.481232 1.643829 6.444000
v -0.918762 1.643829 6.444000
vt 0.559338 0.755167
vt 0.517288 0.635285
vt 0.568303 0.629152
vt 0.558155 0.693694
vt 0.635550 0.686088
vt 0.636177 0.662461
vt 0.681196 0.655809
vt 0.681712 0.695486
vt 0.746012 0.719745
vt 0.759942 0.667755
vt 0.790965 0.615648
vt 0.800300 0.710104
vt 0.641642 0.565533
vt 0.687569 0.566915
vt 0.690654 0.611254
vt 0.636599 0.610631
vt 0.716397 0.775422
vt 0.633812 0.775422
vt 0.637400 0.731743
vt 0.695309 0.732961
vt 0.758689 0.592276
vt 0.710622 0.632368
vt 0.624123 0.626814
vt 0.596005 0.572110
vt 0.594353 0.661855
vt 0.594063 0.681800
vt 0.716496 0.692277
vt 0.718316 0.671632
vt 0.756551 0.640114
vt 0.753062 0.705599
vt 0.770911 0.760519
vt 0.800309 0.674675
vt 0.567153 0.709987
vt 0.559869 0.647225
vt 0.514739 0.702292
vt 0.562522 0.583078
vn -0.683693 0.166387 0.710549
vn 0.517118 0.167201 0.839424
vn 0.419283 0.347277 0.838809
vn -0.582635 0.356298 0.730471
vn -0.453597 0.884134 0.112057
vn 0.266001 0.959551 0.092223
vn 0.273386 0.956912 -0.097870
vn -0.470081 0.880568 -0.060191
vn -0.529570 0.554669 -0.641793
vn 0.258328 0.525650 -0.810530
vn 0.228547 0.422460 -0.877094
vn -0.523176 0.447040 -0.725563
vn 0.950594 0.292302 0.104548
vn 0.961710 0.227614 -0.152664
vn 0.951414 0.247500 -0.183180
vn 0.941152 0.323928 0.096456
vn -0.922060 0.301231 -0.243035
vn -0.956294 0.232872 0.176842
vn -0.884560 0.434588 0.169373
vn -0.879577 0.455792 -0.136376
vn 0.683518 0.274119 -0.676507
vn 0.675704 0.567146 -0.470923
vn 0.724366 0.638661 0.259626
vn 0.869648 0.266458 0.415587
vn 0.227041 0.878548 0.420244
vn -0.435862 0.826480 0.356308
vn -0.314093 0.854741 -0.413235
vn 0.087319 0.865125 -0.493896
s 1
g Piedra7
usemtl initialShadingGroup
f 356/474/340 357/441/341 358/473/342 359/443/343
f 352/444/344 353/445/345 354/446/346 355/447/347
f 362/469/348 363/449/349 364/471/350 365/451/351
f 349/452/352 348/453/353 350/454/354 351/455/355
f 346/456/356 340/457/357 342/458/358 344/459/359
f 347/460/360 345/461/361 350/454/354 348/453/353
f 345/461/361 343/462/362 351/455/355 350/454/354
f 343/462/362 341/463/363 349/452/352 351/455/355
f 359/443/343 358/473/342 360/464/364 361/465/365
f 343/462/362 345/461/361 354/446/346 353/445/345
f 363/449/349 362/469/348 366/466/366 367/467/367
f 344/459/359 342/458/358 352/444/344 355/447/347
f 341/463/363 343/462/362 358/442/342 357/475/341
f 342/458/358 340/457/357 356/440/340 359/472/343
f 343/462/362 353/445/345 360/464/364 358/442/342
f 353/445/345 352/444/344 361/465/365 360/464/364
f 352/444/344 342/458/358 359/472/343 361/465/365
f 345/461/361 347/460/360 364/450/350 363/468/349
f 346/456/356 344/459/359 362/448/348 365/470/351
f 344/459/359 355/447/347 366/466/366 362/448/348
f 355/447/347 354/446/346 367/467/367 366/466/366
f 354/446/346 345/461/361 363/468/349 367/467/367
g default
v -2.819916 0.839325 3.356792
v -0.150421 0.829155 3.614910
v -2.044098 1.572472 2.893463
v -0.527832 1.712868 3.260792
v -2.040894 1.594475 1.433800
v -0.538300 1.763206 1.721199
v -2.415863 0.811485 1.097244
v -0.239319 0.839325 1.066269
v -2.538452 0.206856 0.980774
v -0.115723 0.206856 0.948715
v -0.016113 0.206856 3.560261
v -2.943512 0.206856 3.474358
v -0.243011 1.658928 2.728554
v -2.439117 1.610893 2.141457
v -3.431244 0.849327 2.237679
v -3.624146 0.206856 2.237679
v 0.559021 0.206856 2.494637
v 0.354980 0.891312 2.673332
v -1.231110 1.589157 3.266197
v -1.242218 0.830841 3.851456
v -1.242279 0.206856 4.034180
v -1.305969 0.206856 0.191116
v -1.305969 0.844994 0.374634
v -1.419250 1.584412 0.916840
v -1.266083 1.951233 2.868416
v -0.811768 1.951233 2.719223
v -0.637085 1.951233 2.363182
v -1.324280 1.951233 2.242256
v -1.382538 1.951233 1.528183
v -0.952850 1.955078 1.921829
v -1.766846 1.951233 2.642853
v -2.015106 1.951233 2.179695
v -1.766846 1.951218 1.750549
vt 0.796255 0.510559
vt 0.802711 0.473083
vt 0.837309 0.485183
vt 0.828454 0.513346
vt 0.846097 0.517540
vt 0.853107 0.502695
vt 0.866524 0.499656
vt 0.866463 0.523167
vt 0.911532 0.534251
vt 0.892374 0.498953
vt 0.934404 0.492514
vt 0.941490 0.535451
vt 0.866026 0.450095
vt 0.857440 0.481344
vt 0.851295 0.603797
vt 0.813544 0.584419
vt 0.832869 0.544089
vt 0.862116 0.564126
vt 0.930606 0.449569
vt 0.963417 0.538851
vt 0.782580 0.464328
vt 0.876376 0.427393
vt 0.774025 0.509010
vt 0.848686 0.625970
vt 0.802505 0.605128
vt 0.889175 0.529708
vt 0.879978 0.512315
vt 0.922154 0.576304
vt 0.889711 0.559065
vt 0.941757 0.586723
vt 0.849704 0.535892
vt 0.864221 0.546230
vt 0.880384 0.541793
vt 0.895278 0.555642
vt 0.836582 0.549749
vt 0.890074 0.497486
vt 0.834415 0.489411
vt 0.799496 0.566905
vt 0.777311 0.570714
vt 0.829657 0.449714
vt 0.833235 0.427393
vt 0.920521 0.469732
vt 0.957267 0.488382
vt 0.900389 0.590703
vt 0.905993 0.612412
vn -0.094266 0.412908 0.905881
vn 0.541779 0.350038 0.764166
vn 0.384262 0.643508 0.661997
vn -0.133383 0.640418 0.756356
vn -0.123625 0.897377 0.423593
vn 0.152733 0.958110 0.242278
vn 0.357769 0.933003 -0.038826
vn -0.001619 0.999998 0.001438
vn 0.027837 0.669578 -0.742220
vn 0.650618 0.639497 -0.409562
vn 0.703658 0.449078 -0.550631
vn 0.043020 0.463838 -0.884875
vn 0.910663 0.413110 -0.005789
vn 0.785929 0.618139 0.014834
vn -0.830603 0.548174 -0.098003
vn -0.534332 0.526947 0.660920
vn -0.418528 0.722888 0.549789
vn -0.639249 0.764591 -0.082234
vn 0.760068 0.288575 -0.582255
vn -0.007528 0.289547 -0.957134
vn 0.665211 0.146028 0.732236
vn 0.956806 0.271883 -0.102962
vn -0.062165 0.210104 0.975701
vn -0.943559 0.298876 -0.142724
vn -0.583425 0.268910 0.766357
vn 0.015170 0.924911 -0.379881
vn 0.240390 0.944446 -0.224129
vn -0.617137 0.416001 -0.667896
vn -0.551497 0.621461 -0.556450
vn -0.641682 0.247983 -0.725775
vn -0.314458 0.880463 0.354826
vn -0.446409 0.894711 0.014513
vn -0.304379 0.912539 -0.273177
s 1
g Piedra9
usemtl initialShadingGroup
f 387/476/368 369/477/369 371/512/370 386/479/371
f 392/480/372 393/481/373 394/482/374 395/483/375
f 391/484/376 373/485/377 375/486/378 390/487/379
f 369/515/369 385/488/380 380/489/381 371/478/370
f 382/490/382 368/491/383 370/510/384 381/493/385
f 390/487/379 375/486/378 377/518/386 389/495/387
f 385/488/380 369/515/369 378/516/388 384/497/389
f 369/477/369 387/476/368 388/498/390 378/496/388
f 368/491/383 382/490/382 383/499/391 379/500/392
f 396/501/393 395/483/375 394/482/374 397/502/394
f 374/519/395 382/490/382 381/493/385 372/504/396
f 383/499/391 382/490/382 374/519/395 376/520/397
f 375/517/378 385/488/380 384/497/389 377/494/386
f 380/489/381 385/488/380 375/517/378 373/511/377
f 398/506/398 392/480/372 395/483/375 399/507/399
f 368/513/383 387/476/368 386/479/371 370/492/384
f 388/498/390 387/476/368 368/513/383 379/514/392
f 374/503/395 390/487/379 389/495/387 376/505/397
f 372/509/396 391/484/376 390/487/379 374/503/395
f 399/507/399 395/483/375 396/501/393 400/508/400
f 386/479/371 371/512/370 393/481/373 392/480/372
f 371/478/370 380/489/381 394/482/374 393/481/373
f 380/489/381 373/511/377 397/502/394 394/482/374
f 373/485/377 391/484/376 396/501/393 397/502/394
f 370/492/384 386/479/371 392/480/372 398/506/398
f 381/493/385 370/510/384 398/506/398 399/507/399
f 391/484/376 372/509/396 400/508/400 396/501/393
f 372/504/396 381/493/385 399/507/399 400/508/400
g default
v 5.688783 0.000000 -2.536160
v 5.251059 0.000000 -2.973884
v 4.653116 0.000000 -3.134103
v 4.055172 0.000000 -2.973884
v 3.617448 0.000000 -2.536160
v 3.457230 0.000000 -1.938217
v 3.617448 0.000000 -1.340274
v 4.055172 0.000000 -0.902550
v 4.653116 0.000000 -0.742331
v 5.251059 0.000000 -0.902550
v 5.688783 0.000000 -1.340274
v 5.849001 0.000000 -1.938217
v 5.346977 2.228407 -2.366298
v 5.053717 2.117938 -2.679675
v 4.653116 1.967034 -2.794379
v 4.252515 1.816129 -2.679675
v 3.959254 1.705660 -2.366298
v 3.851913 1.665225 -1.938217
v 3.959254 1.705660 -1.510136
v 4.252515 1.816129 -1.196759
v 4.653116 1.967034 -1.082055
v 5.053717 2.117938 -1.196759
v 5.346977 2.228407 -1.510136
v 5.454318 2.268842 -1.938217
v 4.793495 3.971701 -2.080573
v 4.697791 3.930460 -2.184784
v 4.447182 4.548347 -1.938217
v 4.567058 3.874124 -2.222928
v 4.436323 3.817787 -2.184784
v 4.340619 3.776546 -2.080573
v 4.305590 3.761450 -1.938217
v 4.340619 3.776546 -1.795861
v 4.436323 3.817787 -1.691649
v 4.567058 3.874124 -1.653506
v 4.697791 3.930460 -1.691649
v 4.793495 3.971701 -1.795861
v 4.828525 3.986796 -1.938217
vt 0.022466 0.875003
vt 0.041320 0.864478
vt 0.074046 0.929788
vt 0.063681 0.940597
vt 0.061253 0.855867
vt 0.084782 0.919430
vt 0.082027 0.849368
vt 0.096754 0.910550
vt 0.103411 0.845266
vt 0.110363 0.904434
vt 0.125133 0.843895
vt 0.125133 0.902217
vt 0.146855 0.845266
vt 0.139902 0.904434
vt 0.168238 0.849368
vt 0.153511 0.910550
vt 0.189012 0.855867
vt 0.165483 0.919430
vt 0.208945 0.864478
vt 0.176219 0.929788
vt 0.227800 0.875003
vt 0.186584 0.940598
vt 0.245382 0.887219
vt 0.052930 0.951155
vt 0.121792 0.008906
vt 0.107824 0.985808
vt 0.111179 0.018485
vt 0.111377 0.982130
vt 0.115441 0.979018
vt 0.120093 0.976903
vt 0.125133 0.976155
vt 0.130172 0.976903
vt 0.134824 0.979018
vt 0.138888 0.982130
vt 0.142441 0.985808
vt 0.145737 0.989690
vt 0.101252 0.993531
vt 0.149013 0.993531
vt 0.114793 0.004899
vt 0.104529 0.989690
vt 0.106729 0.004899
vt 0.197335 0.951155
vt 0.099712 0.008879
vt 0.095520 0.015825
vt 0.095306 0.024045
vt 0.099329 0.031370
vt 0.106615 0.035645
vt 0.115062 0.035555
vt 0.122192 0.031197
vt 0.126091 0.023957
vt 0.125904 0.015846
vt 0.004883 0.887219
vn 0.856583 0.169093 -0.487518
vn 0.494650 0.166415 -0.853011
vn 0.483829 0.214147 -0.848558
vn 0.845931 0.222497 -0.484660
vn -0.013583 0.172317 -0.984948
vn -0.024602 0.207222 -0.977985
vn -0.514132 0.191468 -0.836067
vn -0.521867 0.208288 -0.827207
vn -0.856951 0.214741 -0.468530
vn -0.860014 0.215764 -0.462409
vn -0.974306 0.225227 -0.000000
vn -0.975474 0.220115 -0.000000
vn -0.856951 0.214741 0.468530
vn -0.860014 0.215764 0.462409
vn -0.514132 0.191468 0.836067
vn -0.521867 0.208288 0.827207
vn -0.013584 0.172317 0.984948
vn -0.024602 0.207222 0.977985
vn 0.494650 0.166415 0.853011
vn 0.483829 0.214147 0.848558
vn 0.856583 0.169092 0.487518
vn 0.845931 0.222496 0.484660
vn 0.985218 0.171303 0.000000
vn 0.974131 0.225983 0.000000
vn 0.804995 0.353197 -0.476692
vn 0.442346 0.328518 -0.834510
vn -0.304631 0.952470 0.000000
vn -0.065068 0.290107 -0.954780
vn -0.549206 0.249026 -0.797721
vn -0.869687 0.219288 -0.442218
vn -0.977968 0.208755 -0.000000
vn -0.869687 0.219288 0.442218
vn -0.549206 0.249026 0.797721
vn -0.065068 0.290107 0.954780
vn 0.442346 0.328518 0.834510
vn 0.804995 0.353197 0.476692
vn 0.932435 0.361337 0.000000
s 1
g Piedra2
usemtl initialShadingGroup
f 401/521/401 402/522/402 414/523/403 413/524/404
f 402/522/402 403/525/405 415/526/406 414/523/403
f 403/525/405 404/527/407 416/528/408 415/526/406
f 404/527/407 405/529/409 417/530/410 416/528/408
f 405/529/409 406/531/411 418/532/412 417/530/410
f 406/531/411 407/533/413 419/534/414 418/532/412
f 407/533/413 408/535/415 420/536/416 419/534/414
f 408/535/415 409/537/417 421/538/418 420/536/416
f 409/537/417 410/539/419 422/540/420 421/538/418
f 410/539/419 411/541/421 423/542/422 422/540/420
f 411/541/421 412/543/423 424/562/424 423/542/422
f 412/572/423 401/521/401 413/524/404 424/544/424
f 425/545/425 426/571/426 427/547/427
f 426/571/426 428/570/428 427/547/427
f 428/570/428 429/569/429 427/547/427
f 429/569/429 430/568/430 427/547/427
f 430/568/430 431/567/431 427/547/427
f 431/567/431 432/566/432 427/547/427
f 432/566/432 433/565/433 427/547/427
f 433/565/433 434/564/434 427/547/427
f 434/564/434 435/563/435 427/547/427
f 435/563/435 436/561/436 427/547/427
f 436/561/436 437/559/437 427/547/427
f 437/559/437 425/545/425 427/547/427
f 413/524/404 414/523/403 426/546/426 425/560/425
f 414/523/403 415/526/406 428/548/428 426/546/426
f 415/526/406 416/528/408 429/549/429 428/548/428
f 416/528/408 417/530/410 430/550/430 429/549/429
f 417/530/410 418/532/412 431/551/431 430/550/430
f 418/532/412 419/534/414 432/552/432 431/551/431
f 419/534/414 420/536/416 433/553/433 432/552/432
f 420/536/416 421/538/418 434/554/434 433/553/433
f 421/538/418 422/540/420 435/555/435 434/554/434
f 422/540/420 423/542/422 436/556/436 435/555/435
f 423/542/422 424/562/424 437/558/437 436/556/436
f 424/544/424 413/524/404 425/560/425 437/557/437
g default
v 6.651695 0.000000 1.594882
v 6.152126 0.000000 1.095313
v 5.469703 0.000000 0.912458
v 4.787279 0.000000 1.095313
v 4.287711 0.000000 1.594882
v 4.104856 0.000000 2.277305
v 4.287711 0.000000 2.959728
v 4.787279 0.000000 3.459296
v 5.469703 0.000000 3.642151
v 6.152126 0.000000 3.459296
v 6.651695 0.000000 2.959728
v 6.834549 0.000000 2.277305
v 6.463294 1.245677 1.703655
v 6.043353 1.245677 1.283713
v 5.469703 1.245677 1.130004
v 4.896052 1.245677 1.283713
v 4.476111 1.245677 1.703655
v 4.322402 1.245677 2.277305
v 4.476111 1.245677 2.850955
v 4.896052 1.245677 3.270896
v 5.469703 1.245677 3.424605
v 6.043353 1.245677 3.270896
v 6.463294 1.245677 2.850955
v 6.617003 1.245677 2.277305
v 5.928425 2.579627 2.012462
v 5.734545 2.579627 1.818583
v 5.469703 3.028565 2.277305
v 5.469704 2.579627 1.747619
v 5.204861 2.579627 1.818583
v 5.010981 2.579627 2.012462
v 4.940017 2.579627 2.277305
v 5.010981 2.579627 2.542147
v 5.204861 2.579627 2.736027
v 5.469704 2.579627 2.806990
v 5.734545 2.579627 2.736027
v 5.928425 2.579627 2.542147
v 5.999388 2.579627 2.277305
vt 0.236466 0.925135
vt 0.254930 0.907956
vt 0.280827 0.941908
vt 0.266790 0.955683
vt 0.276150 0.893454
vt 0.296691 0.930812
vt 0.299734 0.882514
vt 0.314051 0.922673
vt 0.325018 0.875730
vt 0.332470 0.917724
vt 0.351202 0.873455
vt 0.351432 0.916119
vt 0.377421 0.875821
vt 0.370376 0.917923
vt 0.402807 0.882746
vt 0.388731 0.923098
vt 0.426534 0.893926
vt 0.405946 0.931509
vt 0.447892 0.908812
vt 0.421526 0.942934
vt 0.466403 0.926576
vt 0.435073 0.957078
vt 0.482037 0.946052
vt 0.254800 0.971876
vt 0.039878 0.010313
vt 0.314511 0.980044
vt 0.025087 0.025104
vt 0.322518 0.974367
vt 0.331452 0.970174
vt 0.341001 0.967597
vt 0.350851 0.966719
vt 0.360686 0.967570
vt 0.370186 0.970126
vt 0.379028 0.974312
vt 0.386885 0.980001
vt 0.393402 0.987016
vt 0.302624 0.995117
vt 0.398159 0.995117
vt 0.030501 0.004899
vt 0.307756 0.987032
vt 0.019674 0.004899
vt 0.446345 0.973615
vt 0.010297 0.010313
vt 0.004883 0.019690
vt 0.004883 0.030518
vt 0.010297 0.039895
vt 0.019674 0.045309
vt 0.030501 0.045309
vt 0.039878 0.039895
vt 0.045292 0.030518
vt 0.045292 0.019690
vt 0.220591 0.943715
vn 0.853113 0.172037 -0.492545
vn 0.492545 0.172037 -0.853113
vn 0.480482 0.276671 -0.832220
vn 0.832220 0.276671 -0.480482
vn 0.000000 0.172037 -0.985091
vn -0.000000 0.276671 -0.960965
vn -0.492545 0.172037 -0.853113
vn -0.480482 0.276671 -0.832220
vn -0.853113 0.172037 -0.492545
vn -0.832220 0.276671 -0.480483
vn -0.985091 0.172037 -0.000000
vn -0.960965 0.276670 -0.000000
vn -0.853114 0.172037 0.492545
vn -0.832220 0.276671 0.480483
vn -0.492545 0.172037 0.853114
vn -0.480482 0.276671 0.832220
vn 0.000000 0.172037 0.985091
vn -0.000000 0.276671 0.960965
vn 0.492545 0.172037 0.853114
vn 0.480482 0.276671 0.832220
vn 0.853114 0.172037 0.492545
vn 0.832220 0.276671 0.480482
vn 0.985091 0.172037 0.000000
vn 0.960965 0.276671 0.000000
vn 0.768268 0.461540 -0.443559
vn 0.443560 0.461540 -0.768268
vn -0.000000 1.000000 0.000000
vn 0.000000 0.461540 -0.887119
vn -0.443559 0.461540 -0.768268
vn -0.768268 0.461540 -0.443560
vn -0.887120 0.461540 0.000000
vn -0.768268 0.461540 0.443560
vn -0.443559 0.461540 0.768268
vn 0.000000 0.461540 0.887119
vn 0.443560 0.461540 0.768268
vn 0.768268 0.461540 0.443559
vn 0.887119 0.461540 -0.000000
s 1
g Piedra
usemtl initialShadingGroup
f 438/573/438 439/574/439 451/575/440 450/576/441
f 439/574/439 440/577/442 452/578/443 451/575/440
f 440/577/442 441/579/444 453/580/445 452/578/443
f 441/579/444 442/581/446 454/582/447 453/580/445
f 442/581/446 443/583/448 455/584/449 454/582/447
f 443/583/448 444/585/450 456/586/451 455/584/449
f 444/585/450 445/587/452 457/588/453 456/586/451
f 445/587/452 446/589/454 458/590/455 457/588/453
f 446/589/454 447/591/456 459/592/457 458/590/455
f 447/591/456 448/593/458 460/594/459 459/592/457
f 448/593/458 449/595/460 461/614/461 460/594/459
f 449/624/460 438/573/438 450/576/441 461/596/461
f 462/597/462 463/623/463 464/599/464
f 463/623/463 465/622/465 464/599/464
f 465/622/465 466/621/466 464/599/464
f 466/621/466 467/620/467 464/599/464
f 467/620/467 468/619/468 464/599/464
f 468/619/468 469/618/469 464/599/464
f 469/618/469 470/617/470 464/599/464
f 470/617/470 471/616/471 464/599/464
f 471/616/471 472/615/472 464/599/464
f 472/615/472 473/613/473 464/599/464
f 473/613/473 474/611/474 464/599/464
f 474/611/474 462/597/462 464/599/464
f 450/576/441 451/575/440 463/598/463 462/612/462
f 451/575/440 452/578/443 465/600/465 463/598/463
f 452/578/443 453/580/445 466/601/466 465/600/465
f 453/580/445 454/582/447 467/602/467 466/601/466
f 454/582/447 455/584/449 468/603/468 467/602/467
f 455/584/449 456/586/451 469/604/469 468/603/468
f 456/586/451 457/588/453 470/605/470 469/604/469
f 457/588/453 458/590/455 471/606/471 470/605/470
f 458/590/455 459/592/457 472/607/472 471/606/471
f 459/592/457 460/594/459 473/608/473 472/607/472
f 460/594/459 461/614/461 474/610/474 473/608/473
f 461/596/461 450/576/441 462/612/462 474/609/474
g default
v -3.276886 0.767494 -1.695648
v -0.381958 0.701569 -1.798950
v -2.971191 1.787636 -1.829773
v -0.581207 1.558929 -1.902588
v -2.810684 1.684113 -4.306274
v -0.747894 1.994003 -3.938965
v -2.883453 0.716736 -4.383911
v -0.455765 0.766167 -4.361755
v -2.784882 0.380901 -4.434143
v -0.348312 0.380901 -4.466187
v -0.248688 0.380894 -1.854645
v -3.190979 0.380901 -1.765930
v -0.181076 1.591202 -2.609528
v -3.506714 1.615623 -3.347107
v -3.819733 0.537674 -3.177246
v -3.864258 0.380898 -3.177246
v 0.326416 0.380898 -2.920288
v 0.122406 0.611031 -2.741577
v -1.663437 1.688507 -1.408691
v -1.596283 0.843185 -1.190857
v -1.480621 0.380901 -1.209869
v -1.538559 0.380901 -5.223755
v -1.533340 0.767624 -5.066589
v -1.763290 1.850502 -4.644226
v -1.911850 2.568459 -2.424683
v -1.276840 2.586479 -2.671936
v -0.992920 2.552689 -3.092407
v -1.945602 2.641342 -3.210083
v -1.953262 2.485123 -3.935547
v -1.390991 2.530853 -3.591064
v -2.541672 2.542305 -2.654114
v -2.822174 2.553146 -3.279541
v -2.486252 2.529831 -3.772217
vt 0.260696 0.835864
vt 0.214763 0.840755
vt 0.196410 0.790462
vt 0.258771 0.807201
vt 0.259848 0.762753
vt 0.236138 0.758956
vt 0.225782 0.744861
vt 0.256524 0.736679
vt 0.242036 0.682177
vt 0.208639 0.707644
vt 0.186566 0.665905
vt 0.226940 0.645663
vt 0.151310 0.766094
vt 0.186200 0.765175
vt 0.358660 0.719512
vt 0.354397 0.775319
vt 0.302666 0.790909
vt 0.320824 0.722302
vt 0.144314 0.702821
vt 0.223930 0.631684
vt 0.210113 0.851849
vt 0.139973 0.761406
vt 0.258805 0.851849
vt 0.364127 0.718286
vt 0.368077 0.773003
vt 0.253764 0.712027
vt 0.235395 0.725564
vt 0.280056 0.643378
vt 0.299988 0.687605
vt 0.275944 0.631852
vt 0.280728 0.753554
vt 0.283939 0.730334
vt 0.272865 0.714253
vt 0.279188 0.677615
vt 0.316423 0.776440
vt 0.203293 0.717045
vt 0.218774 0.809337
vt 0.319380 0.824938
vt 0.320070 0.839012
vt 0.167358 0.800650
vt 0.155423 0.800906
vt 0.158199 0.705689
vt 0.179367 0.653596
vt 0.331202 0.672600
vt 0.340485 0.664791
vn 0.013834 0.127379 0.991758
vn 0.647298 0.205216 0.734093
vn 0.574074 0.484054 0.660402
vn 0.045355 0.490774 0.870106
vn 0.035216 0.838203 0.544219
vn 0.361709 0.827863 0.428730
vn 0.600057 0.799932 0.006373
vn -0.005547 0.999050 -0.043227
vn 0.068957 0.464989 -0.882627
vn 0.707543 0.502696 -0.496668
vn 0.732963 0.398458 -0.551359
vn 0.104449 0.333907 -0.936801
vn 0.932556 0.358469 -0.042879
vn 0.893356 0.449031 0.016907
vn -0.981168 0.179252 -0.071959
vn -0.710252 0.185803 0.678984
vn -0.608497 0.479981 0.631941
vn -0.915905 0.381244 -0.125579
vn 0.692322 0.462031 -0.554272
vn 0.009734 0.299670 -0.953993
vn 0.685656 0.205957 0.698182
vn 0.838572 0.519556 -0.163887
vn 0.074331 -0.063295 0.995223
vn -0.990732 -0.085648 -0.105423
vn -0.550213 -0.164995 0.818561
vn 0.007239 0.813008 -0.582208
vn 0.395821 0.836889 -0.378077
vn -0.633430 0.141469 -0.760758
vn -0.592131 0.323562 -0.738030
vn -0.592237 0.118183 -0.797049
vn -0.456469 0.802263 0.384720
vn -0.667212 0.742094 -0.064228
vn -0.425530 0.745751 -0.512620
s 1
g Piedra8
usemtl initialShadingGroup
f 494/625/475 476/626/476 478/661/477 493/628/478
f 499/629/479 500/630/480 501/631/481 502/632/482
f 498/633/483 480/634/484 482/635/485 497/636/486
f 476/664/476 492/637/487 487/638/488 478/627/477
f 489/639/489 475/640/490 477/659/491 488/642/492
f 497/636/486 482/635/485 484/667/493 496/644/494
f 492/637/487 476/664/476 485/665/495 491/646/496
f 476/626/476 494/625/475 495/647/497 485/645/495
f 475/640/490 489/639/489 490/648/498 486/649/499
f 503/650/500 502/632/482 501/631/481 504/651/501
f 481/668/502 489/639/489 488/642/492 479/653/503
f 490/648/498 489/639/489 481/668/502 483/669/504
f 482/666/485 492/637/487 491/646/496 484/643/493
f 487/638/488 492/637/487 482/666/485 480/660/484
f 505/655/505 499/629/479 502/632/482 506/656/506
f 475/662/490 494/625/475 493/628/478 477/641/491
f 495/647/497 494/625/475 475/662/490 486/663/499
f 481/652/502 497/636/486 496/644/494 483/654/504
f 479/658/503 498/633/483 497/636/486 481/652/502
f 506/656/506 502/632/482 503/650/500 507/657/507
f 493/628/478 478/661/477 500/630/480 499/629/479
f 478/627/477 487/638/488 501/631/481 500/630/480
f 487/638/488 480/660/484 504/651/501 501/631/481
f 480/634/484 498/633/483 503/650/500 504/651/501
f 477/641/491 493/628/478 499/629/479 505/655/505
f 488/642/492 477/659/491 505/655/505 506/656/506
f 498/633/483 479/658/503 507/657/507 503/650/500
f 479/653/503 488/642/492 506/656/506 507/657/507
g default
v 5.953156 0.000000 -10.470369
v 5.453588 0.000000 -10.969937
v 4.771165 0.000000 -11.152792
v 4.088741 0.000000 -10.969937
v 3.589173 0.000000 -10.470369
v 3.406318 0.000000 -9.787946
v 3.589173 0.000000 -9.105522
v 4.088741 0.000000 -8.605954
v 4.771165 0.000000 -8.423100
v 5.453588 0.000000 -8.605954
v 5.953156 0.000000 -9.105522
v 6.136011 0.000000 -9.787946
v 5.512622 2.000000 -10.216026
v 5.199245 2.000000 -10.529404
v 4.771165 2.000000 -10.644108
v 4.343083 2.000000 -10.529404
v 4.029706 2.000000 -10.216026
v 3.915002 2.000000 -9.787946
v 4.029706 2.000000 -9.359865
v 4.343083 2.000000 -9.046488
v 4.771165 2.000000 -8.931784
v 5.199245 2.000000 -9.046488
v 5.512622 2.000000 -9.359865
v 5.627326 2.000000 -9.787946
v 5.017732 4.141726 -9.930302
v 4.913520 4.141726 -10.034513
v 4.771165 4.862520 -9.787946
v 4.771165 4.141726 -10.072657
v 4.628809 4.141726 -10.034513
v 4.524597 4.141726 -9.930302
v 4.486453 4.141726 -9.787946
v 4.524597 4.141726 -9.645590
v 4.628809 4.141726 -9.541378
v 4.771165 4.141726 -9.503235
v 4.913520 4.141726 -9.541378
v 5.017732 4.141726 -9.645590
v 5.055876 4.141726 -9.787946
vt 0.632148 0.821659
vt 0.652327 0.808236
vt 0.687433 0.869472
vt 0.674857 0.877922
vt 0.674096 0.797516
vt 0.700994 0.862745
vt 0.697093 0.789705
vt 0.715310 0.857857
vt 0.720926 0.784954
vt 0.730136 0.854891
vt 0.745185 0.783356
vt 0.745221 0.853899
vt 0.769447 0.784941
vt 0.760304 0.854897
vt 0.793292 0.789681
vt 0.775127 0.857871
vt 0.816306 0.797487
vt 0.789436 0.862767
vt 0.838095 0.808210
vt 0.802987 0.869502
vt 0.858292 0.821648
vt 0.815549 0.877960
vt 0.876570 0.837543
vt 0.663479 0.887953
vt 0.066541 0.004899
vt 0.725873 0.935001
vt 0.070767 0.020669
vt 0.730395 0.932742
vt 0.735178 0.931099
vt 0.740138 0.930102
vt 0.745185 0.929767
vt 0.750232 0.930101
vt 0.755190 0.931098
vt 0.759971 0.932740
vt 0.764491 0.935000
vt 0.768667 0.937839
vt 0.717930 0.941207
vt 0.772424 0.941207
vt 0.059222 0.009125
vt 0.721693 0.937839
vt 0.054997 0.016444
vt 0.826910 0.887996
vt 0.054997 0.024895
vt 0.059222 0.032214
vt 0.066541 0.036440
vt 0.074993 0.036440
vt 0.082312 0.032214
vt 0.086537 0.024895
vt 0.086537 0.016444
vt 0.082312 0.009125
vt 0.074993 0.004899
vt 0.613877 0.837526
vn 0.839303 0.246494 -0.484572
vn 0.484572 0.246494 -0.839303
vn 0.484084 0.250305 -0.838457
vn 0.838457 0.250305 -0.484084
vn -0.000000 0.246494 -0.969144
vn -0.000000 0.250305 -0.968167
vn -0.484572 0.246494 -0.839304
vn -0.484084 0.250305 -0.838457
vn -0.839304 0.246494 -0.484572
vn -0.838457 0.250305 -0.484083
vn -0.969144 0.246494 0.000000
vn -0.968167 0.250305 0.000000
vn -0.839304 0.246494 0.484572
vn -0.838457 0.250305 0.484084
vn -0.484572 0.246494 0.839304
vn -0.484083 0.250305 0.838458
vn -0.000000 0.246494 0.969144
vn -0.000000 0.250305 0.968167
vn 0.484572 0.246494 0.839303
vn 0.484084 0.250305 0.838457
vn 0.839304 0.246494 0.484572
vn 0.838457 0.250305 0.484084
vn 0.969144 0.246494 0.000000
vn 0.968167 0.250305 0.000000
vn 0.834848 0.265905 -0.481999
vn 0.482001 0.265905 -0.834847
vn -0.000002 1.000000 0.000000
vn 0.000000 0.265906 -0.963999
vn -0.482000 0.265905 -0.834848
vn -0.834848 0.265905 -0.481999
vn -0.963999 0.265905 0.000000
vn -0.834848 0.265906 0.482000
vn -0.481999 0.265906 0.834848
vn 0.000000 0.265906 0.963999
vn 0.481999 0.265905 0.834848
vn 0.834847 0.265906 0.482000
vn 0.963999 0.265906 0.000000
s 1
g Piedra1
usemtl initialShadingGroup
f 508/670/508 509/671/509 521/672/510 520/673/511
f 509/671/509 510/674/512 522/675/513 521/672/510
f 510/674/512 511/676/514 523/677/515 522/675/513
f 511/676/514 512/678/516 524/679/517 523/677/515
f 512/678/516 513/680/518 525/681/519 524/679/517
f 513/680/518 514/682/520 526/683/521 525/681/519
f 514/682/520 515/684/522 527/685/523 526/683/521
f 515/684/522 516/686/524 528/687/525 527/685/523
f 516/686/524 517/688/526 529/689/527 528/687/525
f 517/688/526 518/690/528 530/691/529 529/689/527
f 518/690/528 519/692/530 531/711/531 530/691/529
f 519/721/530 508/670/508 520/673/511 531/693/531
f 532/694/532 533/720/533 534/696/534
f 533/720/533 535/719/535 534/696/534
f 535/719/535 536/718/536 534/696/534
f 536/718/536 537/717/537 534/696/534
f 537/717/537 538/716/538 534/696/534
f 538/716/538 539/715/539 534/696/534
f 539/715/539 540/714/540 534/696/534
f 540/714/540 541/713/541 534/696/534
f 541/713/541 542/712/542 534/696/534
f 542/712/542 543/710/543 534/696/534
f 543/710/543 544/708/544 534/696/534
f 544/708/544 532/694/532 534/696/534
f 520/673/511 521/672/510 533/695/533 532/709/532
f 521/672/510 522/675/513 535/697/535 533/695/533
f 522/675/513 523/677/515 536/698/536 535/697/535
f 523/677/515 524/679/517 537/699/537 536/698/536
f 524/679/517 525/681/519 538/700/538 537/699/537
f 525/681/519 526/683/521 539/701/539 538/700/538
f 526/683/521 527/685/523 540/702/540 539/701/539
f 527/685/523 528/687/525 541/703/541 540/702/540
f 528/687/525 529/689/527 542/704/542 541/703/541
f 529/689/527 530/691/529 543/705/543 542/704/542
f 530/691/529 531/711/531 544/707/544 543/705/543
f 531/693/531 520/673/511 532/709/532 544/706/544
g default
v -9.671967 0.322533 4.010689
v -7.002472 0.322533 4.268806
v -8.804932 1.573013 3.464684
v -7.464447 1.573013 3.806828
v -8.804932 1.573013 2.214203
v -7.655823 1.573013 2.454926
v -9.266907 0.322533 1.752228
v -7.091370 0.322533 1.720169
v -9.390472 -0.048496 1.634659
v -6.967773 -0.048496 1.602615
v -6.868164 -0.048496 4.214153
v -9.795532 -0.048496 4.128250
v -7.218140 1.573013 3.327225
v -9.157135 1.573013 2.807549
v -10.283295 0.322533 2.891571
v -10.476166 -0.048496 2.891571
v -6.293030 -0.048496 3.148529
v -6.497070 0.322533 3.327225
v -8.094940 1.573013 3.793316
v -8.094330 0.322533 4.504570
v -8.094330 -0.048496 4.688072
v -8.158020 -0.048496 0.845016
v -8.158020 0.322533 1.028519
v -8.259644 1.573013 2.009155
v -8.140137 1.908234 3.292656
v -7.852600 1.908234 3.198219
v -7.742004 1.908234 2.972855
v -8.177002 1.908234 2.896317
v -8.213867 1.908234 2.500526
v -7.944122 1.908234 2.693504
v -8.457123 1.908234 3.149879
v -8.614258 1.908234 2.856712
v -8.457123 1.908234 2.592010
vt 0.809154 0.111417
vt 0.835797 0.083928
vt 0.869370 0.123315
vt 0.847392 0.141867
vt 0.860847 0.157024
vt 0.869874 0.151830
vt 0.877945 0.155121
vt 0.869547 0.167256
vt 0.891396 0.191913
vt 0.898325 0.167398
vt 0.950367 0.183453
vt 0.934252 0.224052
vt 0.922129 0.101347
vt 0.884831 0.132534
vt 0.804787 0.232886
vt 0.784215 0.194297
vt 0.836027 0.166207
vt 0.846479 0.194710
vt 0.964307 0.147496
vt 0.945034 0.233206
vt 0.830532 0.071337
vt 0.936988 0.096232
vt 0.798009 0.102648
vt 0.794991 0.243319
vt 0.771177 0.199931
vt 0.878055 0.177398
vt 0.880470 0.166479
vt 0.895387 0.247562
vt 0.868270 0.203218
vt 0.901733 0.260210
vt 0.856281 0.167947
vt 0.860161 0.178555
vt 0.870133 0.181641
vt 0.874975 0.202712
vt 0.836167 0.171607
vt 0.898493 0.162975
vt 0.861173 0.125306
vt 0.780754 0.160429
vt 0.767488 0.155979
vt 0.891940 0.079679
vt 0.902927 0.071337
vt 0.951175 0.152348
vt 0.963891 0.187662
vt 0.853979 0.250669
vt 0.849056 0.263987
vn -0.106227 0.446220 0.888596
vn 0.516536 0.413457 0.749830
vn 0.441067 0.554590 0.705613
vn -0.134748 0.552574 0.822499
vn -0.096675 0.890645 0.444303
vn 0.200863 0.932643 0.299718
vn 0.501248 0.853713 -0.141154
vn 0.000000 1.000000 -0.000000
vn 0.056607 0.631326 -0.773449
vn 0.661320 0.575728 -0.480825
vn 0.666805 0.532659 -0.521197
vn 0.043027 0.557062 -0.829356
vn 0.872749 0.487326 -0.028690
vn 0.822604 0.566414 -0.049980
vn -0.803698 0.589067 -0.084080
vn -0.533660 0.552379 0.640379
vn -0.476085 0.620850 0.622807
vn -0.739299 0.666698 -0.094606
vn 0.700011 0.465661 -0.541428
vn -0.012155 0.456419 -0.889682
vn 0.669401 0.249325 0.699814
vn 0.879360 0.456391 -0.135769
vn -0.059799 0.342045 0.937779
vn -0.872971 0.470330 -0.129277
vn -0.548950 0.430236 0.716624
vn 0.120626 0.872890 -0.472771
vn 0.421652 0.830864 -0.363146
vn -0.581937 0.477181 -0.658519
vn -0.547353 0.556302 -0.625247
vn -0.608934 0.396503 -0.687012
vn -0.316839 0.881172 0.350925
vn -0.443756 0.896121 0.006969
vn -0.290249 0.897859 -0.331066
s 1
g Piedra6
usemtl initialShadingGroup
f 564/722/545 546/723/546 548/758/547 563/725/548
f 569/726/549 570/727/550 571/728/551 572/729/552
f 568/730/553 550/731/554 552/732/555 567/733/556
f 546/761/546 562/734/557 557/735/558 548/724/547
f 559/736/559 545/737/560 547/756/561 558/739/562
f 567/733/556 552/732/555 554/764/563 566/741/564
f 562/734/557 546/761/546 555/762/565 561/743/566
f 546/723/546 564/722/545 565/744/567 555/742/565
f 545/737/560 559/736/559 560/745/568 556/746/569
f 573/747/570 572/729/552 571/728/551 574/748/571
f 551/765/572 559/736/559 558/739/562 549/750/573
f 560/745/568 559/736/559 551/765/572 553/766/574
f 552/763/555 562/734/557 561/743/566 554/740/563
f 557/735/558 562/734/557 552/763/555 550/757/554
f 575/752/575 569/726/549 572/729/552 576/753/576
f 545/759/560 564/722/545 563/725/548 547/738/561
f 565/744/567 564/722/545 545/759/560 556/760/569
f 551/749/572 567/733/556 566/741/564 553/751/574
f 549/755/573 568/730/553 567/733/556 551/749/572
f 576/753/576 572/729/552 573/747/570 577/754/577
f 563/725/548 548/758/547 570/727/550 569/726/549
f 548/724/547 557/735/558 571/728/551 570/727/550
f 557/735/558 550/757/554 574/748/571 571/728/551
f 550/731/554 568/730/553 573/747/570 574/748/571
f 547/738/561 563/725/548 569/726/549 575/752/575
f 558/739/562 547/756/561 575/752/575 576/753/576
f 568/730/553 549/755/573 577/754/577 573/747/570
f 549/750/573 558/739/562 576/753/576 577/754/577
g default
v -9.273926 -0.260918 9.790161
v -6.259277 -0.260918 10.400421
v -8.968170 0.989555 9.790161
v -6.484680 1.461838 9.790161
v -8.968170 0.989555 8.120819
v -6.335388 1.461838 8.128693
v -9.273926 -0.260918 7.557648
v -6.539612 -0.260918 7.270813
v -5.614685 -0.260918 8.539673
v -5.614685 -0.260918 9.790161
v -5.935059 0.989555 8.329926
v -6.174377 0.989555 9.790161
v -7.910889 2.120667 9.790161
v -7.184357 2.120667 9.790161
v -6.904541 2.120667 8.539673
v -8.190704 2.120667 8.539673
v -8.172882 -0.260918 10.626465
v -6.922363 -0.260918 10.626465
v -7.115356 0.989555 10.626465
v -7.979889 0.989555 10.626465
v -7.276550 1.717484 10.332489
v -7.818695 1.717484 10.332489
v -8.355469 0.989555 7.509369
v -7.269409 0.753227 7.540375
v -7.460815 -0.260918 6.946198
v -8.489166 -0.260918 6.946198
v -8.015472 1.643829 7.928223
v -7.453003 1.643829 7.928223
vt 0.821511 0.272033
vt 0.860367 0.366532
vt 0.806687 0.388242
vt 0.814203 0.333285
vt 0.766307 0.340836
vt 0.766459 0.362136
vt 0.726281 0.369015
vt 0.725159 0.332421
vt 0.684195 0.304426
vt 0.663057 0.355824
vt 0.636777 0.409937
vt 0.628315 0.308095
vt 0.768755 0.456826
vt 0.720026 0.457160
vt 0.718388 0.413431
vt 0.768121 0.411195
vt 0.689242 0.248191
vt 0.774196 0.248191
vt 0.768666 0.291352
vt 0.710635 0.290419
vt 0.663282 0.432239
vt 0.712570 0.393179
vt 0.768864 0.392384
vt 0.800318 0.444147
vt 0.789274 0.361618
vt 0.787457 0.339693
vt 0.700000 0.333025
vt 0.697038 0.355027
vt 0.671189 0.385658
vt 0.674816 0.318609
vt 0.657633 0.263787
vt 0.623682 0.343511
vt 0.806223 0.317153
vt 0.816694 0.363575
vt 0.856809 0.323239
vt 0.821719 0.431328
vn -0.396277 0.079027 0.914724
vn 0.319771 0.137473 0.937469
vn 0.309018 0.212126 0.927098
vn -0.377518 0.206488 0.902687
vn -0.497668 0.839466 0.218230
vn 0.379578 0.896965 0.226660
vn 0.430473 0.877949 -0.209521
vn -0.552009 0.826456 -0.110711
vn -0.300635 0.500020 -0.812157
vn 0.182306 0.449939 -0.874254
vn 0.149364 0.438527 -0.886219
vn -0.264616 0.459982 -0.847582
vn 0.896402 0.348254 0.274196
vn 0.933478 0.291233 -0.209291
vn 0.896316 0.336902 -0.288295
vn 0.839035 0.417978 0.348302
vn -0.887444 0.338883 -0.312413
vn -0.924205 0.214576 0.315915
vn -0.871121 0.379555 0.311586
vn -0.881005 0.439084 -0.176170
vn 0.489938 0.332038 -0.806047
vn 0.661712 0.551908 -0.507478
vn 0.729240 0.556393 0.398291
vn 0.583242 0.268335 0.766698
vn 0.321063 0.567612 0.758113
vn -0.386429 0.556953 0.735171
vn -0.216073 0.650243 -0.728352
vn 0.124003 0.605136 -0.786406
s 1
g Piedra5
usemtl initialShadingGroup
f 594/801/578 595/768/579 596/800/580 597/770/581
f 590/771/582 591/772/583 592/773/584 593/774/585
f 600/796/586 601/776/587 602/798/588 603/778/589
f 587/779/590 586/780/591 588/781/592 589/782/593
f 584/783/594 578/784/595 580/785/596 582/786/597
f 585/787/598 583/788/599 588/781/592 586/780/591
f 583/788/599 581/789/600 589/782/593 588/781/592
f 581/789/600 579/790/601 587/779/590 589/782/593
f 597/770/581 596/800/580 598/791/602 599/792/603
f 581/789/600 583/788/599 592/773/584 591/772/583
f 601/776/587 600/796/586 604/793/604 605/794/605
f 582/786/597 580/785/596 590/771/582 593/774/585
f 579/790/601 581/789/600 596/769/580 595/802/579
f 580/785/596 578/784/595 594/767/578 597/799/581
f 581/789/600 591/772/583 598/791/602 596/769/580
f 591/772/583 590/771/582 599/792/603 598/791/602
f 590/771/582 580/785/596 597/799/581 599/792/603
f 583/788/599 585/787/598 602/777/588 601/795/587
f 584/783/594 582/786/597 600/775/586 603/797/589
f 582/786/597 593/774/585 604/793/604 600/775/586
f 593/774/585 592/773/584 605/794/605 604/793/604
f 592/773/584 583/788/599 601/795/587 605/794/605
g default
v 5.471443 0.000000 -6.105552
v 5.088759 0.000000 -6.488236
v 4.566003 0.000000 -6.628308
v 4.043247 0.000000 -6.488236
v 3.660563 0.000000 -6.105552
v 3.520491 0.000000 -5.582797
v 3.660563 0.000000 -5.060040
v 4.043247 0.000000 -4.677357
v 4.566003 0.000000 -4.537285
v 5.088759 0.000000 -4.677357
v 5.471443 0.000000 -5.060040
v 5.611515 0.000000 -5.582797
v 5.133981 2.000000 -5.910719
v 4.893926 2.000000 -6.150775
v 4.566003 2.000000 -6.238642
v 4.238081 2.000000 -6.150775
v 3.998025 2.000000 -5.910719
v 3.910158 2.000000 -5.582797
v 3.998025 2.000000 -5.254874
v 4.238081 2.000000 -5.014818
v 4.566003 2.000000 -4.926951
v 4.893926 2.000000 -5.014818
v 5.133981 2.000000 -5.254874
v 5.221848 2.000000 -5.582797
v 4.754881 3.238262 -5.691845
v 4.675052 3.238262 -5.771675
v 4.566003 3.534158 -5.582797
v 4.566003 3.238262 -5.800894
v 4.456955 3.238262 -5.771675
v 4.377125 3.238262 -5.691845
v 4.347906 3.238262 -5.582797
v 4.377125 3.238262 -5.473748
v 4.456955 3.238262 -5.393919
v 4.566003 3.238262 -5.364699
v 4.675052 3.238262 -5.393919
v 4.754881 3.238262 -5.473748
v 4.784100 3.238262 -5.582797
vt 0.310567 0.096355
vt 0.326675 0.086493
vt 0.358356 0.148002
vt 0.349044 0.154603
vt 0.343986 0.078418
vt 0.368344 0.142767
vt 0.362292 0.072426
vt 0.378855 0.138984
vt 0.381312 0.068739
vt 0.389720 0.136716
vt 0.400714 0.067494
vt 0.400754 0.136002
vt 0.420137 0.068747
vt 0.411769 0.136854
vt 0.439220 0.072465
vt 0.422573 0.139259
vt 0.457617 0.078531
vt 0.432985 0.143175
vt 0.475023 0.086744
vt 0.442832 0.148533
vt 0.491197 0.096827
vt 0.451967 0.155239
vt 0.505989 0.108437
vt 0.340541 0.162468
vt 0.152019 0.007437
vt 0.385028 0.185441
vt 0.145086 0.014370
vt 0.388522 0.183457
vt 0.392309 0.182013
vt 0.396290 0.181136
vt 0.400366 0.180842
vt 0.404438 0.181136
vt 0.408408 0.182014
vt 0.412175 0.183461
vt 0.415636 0.185449
vt 0.418684 0.187939
vt 0.379345 0.190878
vt 0.421206 0.190878
vt 0.147624 0.004899
vt 0.381933 0.187931
vt 0.142548 0.004899
vt 0.460276 0.163175
vt 0.138153 0.007437
vt 0.135615 0.011832
vt 0.135615 0.016908
vt 0.138153 0.021303
vt 0.142548 0.023841
vt 0.147624 0.023841
vt 0.152019 0.021303
vt 0.154557 0.016908
vt 0.154557 0.011832
vt 0.295762 0.107637
vn 0.850042 0.191238 -0.490772
vn 0.490772 0.191238 -0.850042
vn 0.487210 0.224736 -0.843872
vn 0.843872 0.224737 -0.487210
vn 0.000000 0.191237 -0.981544
vn 0.000000 0.224736 -0.974420
vn -0.490772 0.191238 -0.850042
vn -0.487210 0.224736 -0.843872
vn -0.850042 0.191237 -0.490772
vn -0.843872 0.224736 -0.487210
vn -0.981544 0.191237 0.000000
vn -0.974420 0.224736 -0.000000
vn -0.850042 0.191238 0.490772
vn -0.843872 0.224736 0.487210
vn -0.490772 0.191238 0.850042
vn -0.487210 0.224736 0.843872
vn 0.000000 0.191238 0.981544
vn 0.000000 0.224736 0.974420
vn 0.490772 0.191238 0.850042
vn 0.487210 0.224736 0.843872
vn 0.850042 0.191238 0.490772
vn 0.843872 0.224737 0.487210
vn 0.981544 0.191238 0.000000
vn 0.974420 0.224736 0.000000
vn 0.811650 0.348758 -0.468606
vn 0.468607 0.348758 -0.811650
vn -0.000000 1.000000 -0.000000
vn 0.000000 0.348758 -0.937213
vn -0.468607 0.348758 -0.811650
vn -0.811650 0.348758 -0.468607
vn -0.937213 0.348758 -0.000000
vn -0.811650 0.348758 0.468607
vn -0.468606 0.348758 0.811650
vn 0.000000 0.348758 0.937213
vn 0.468607 0.348758 0.811650
vn 0.811650 0.348758 0.468607
vn 0.937213 0.348758 0.000000
s 1
g Piedra3
usemtl initialShadingGroup
f 606/803/606 607/804/607 619/805/608 618/806/609
f 607/804/607 608/807/610 620/808/611 619/805/608
f 608/807/610 609/809/612 621/810/613 620/808/611
f 609/809/612 610/811/614 622/812/615 621/810/613
f 610/811/614 611/813/616 623/814/617 622/812/615
f 611/813/616 612/815/618 624/816/619 623/814/617
f 612/815/618 613/817/620 625/818/621 624/816/619
f 613/817/620 614/819/622 626/820/623 625/818/621
f 614/819/622 615/821/624 627/822/625 626/820/623
f 615/821/624 616/823/626 628/824/627 627/822/625
f 616/823/626 617/825/628 629/844/629 628/824/627
f 617/854/628 606/803/606 618/806/609 629/826/629
f 630/827/630 631/853/631 632/829/632
f 631/853/631 633/852/633 632/829/632
f 633/852/633 634/851/634 632/829/632
f 634/851/634 635/850/635 632/829/632
f 635/850/635 636/849/636 632/829/632
f 636/849/636 637/848/637 632/829/632
f 637/848/637 638/847/638 632/829/632
f 638/847/638 639/846/639 632/829/632
f 639/846/639 640/845/640 632/829/632
f 640/845/640 641/843/641 632/829/632
f 641/843/641 642/841/642 632/829/632
f 642/841/642 630/827/630 632/829/632
f 618/806/609 619/805/608 631/828/631 630/842/630
f 619/805/608 620/808/611 633/830/633 631/828/631
f 620/808/611 621/810/613 634/831/634 633/830/633
f 621/810/613 622/812/615 635/832/635 634/831/634
f 622/812/615 623/814/617 636/833/636 635/832/635
f 623/814/617 624/816/619 637/834/637 636/833/636
f 624/816/619 625/818/621 638/835/638 637/834/637
f 625/818/621 626/820/623 639/836/639 638/835/638
f 626/820/623 627/822/625 640/837/640 639/836/639
f 627/822/625 628/824/627 641/838/641 640/837/640
f 628/824/627 629/844/629 642/840/642 641/838/641
f 629/826/629 618/806/609 630/842/630 642/839/642
