# This file uses centimeters as units for non-parametric coordinates.

mtllib PiedraPrueba.mtl
g default
v -9.020927 -0.061282 4.809102
v -7.142305 -0.061502 4.879016
v -8.749142 2.286614 4.634593
v -7.345245 2.301850 4.692996
v -8.617857 2.363474 3.252972
v -7.225678 2.331197 3.259428
v -8.854871 -0.067837 2.873916
v -7.101443 -0.063856 2.982458
v -9.710184 1.012683 2.018160
v -9.824080 1.020700 5.599522
v -6.315153 1.042275 5.769033
v -6.173485 1.044333 2.184012
v -9.133692 1.991898 2.653188
v -9.298520 1.880811 5.113627
v -6.860231 1.872569 5.257976
v -6.534738 1.879883 2.722106
v -9.501078 -0.051157 5.245655
v -9.212915 -0.061120 2.444969
v -6.721367 -0.054467 5.326510
v -6.682655 -0.056085 2.557698
v -9.539029 1.538162 5.316879
v -9.354534 1.653163 2.391613
v -6.590550 1.477584 5.522066
v -6.270741 1.415136 2.455808
v -7.102411 2.134857 4.972120
v -9.012586 2.133560 4.879582
v -6.828454 2.164810 2.940023
v -8.853024 2.282978 2.981839
v -7.657338 1.915432 5.589200
v -8.543464 1.922411 5.543037
v -8.446918 2.135780 5.256601
v -7.723163 2.152116 5.268450
v -8.326069 2.330981 4.727316
v -7.781615 2.343639 4.748895
v -8.291603 2.448335 3.620273
v -8.299522 2.431304 4.201373
v -7.758399 2.441372 4.224460
v -7.724969 2.452490 3.670689
v -8.769006 2.349082 4.180511
v -8.740503 2.373302 3.630646
v -7.205998 2.353220 3.700789
v -7.249559 2.351077 4.253589
v -8.230377 2.390156 3.168941
v -7.677910 2.388616 3.191409
v -8.262078 2.302673 2.721619
v -7.533583 2.253011 2.712030
v -8.337053 1.972293 2.287133
v -7.414659 1.893221 2.287534
v -7.650995 -0.074314 2.858058
v -8.318929 -0.078460 2.812964
v -8.385798 -0.072396 4.219278
v -8.339544 -0.073916 3.508503
v -7.671323 -0.073948 3.552141
v -7.699772 -0.071484 4.250867
v -8.982773 -0.072638 3.452588
v -9.064162 -0.072687 4.213762
v -7.014475 -0.072794 4.297237
v -7.007348 -0.075250 3.589459
v -8.440554 -0.074299 4.903314
v -7.728450 -0.073028 4.924212
v -6.249945 1.879665 3.586562
v -6.350121 1.940217 4.487398
v -6.725113 2.219874 4.384654
v -6.648171 2.204100 3.637426
v -9.694480 1.876183 4.293406
v -9.576538 1.921579 3.409955
v -9.143981 2.270002 3.552170
v -9.217433 2.217634 4.233609
v -9.628622 -0.069519 3.279359
v -9.760893 -0.071856 4.328344
v -10.197601 1.035983 3.168649
v -10.330183 1.079632 4.439420
v -8.612171 -0.073289 5.627152
v -7.640629 -0.073673 5.633172
v -8.741770 0.978840 6.231125
v -7.515023 0.979961 6.277482
v -6.231986 -0.072381 4.452226
v -6.250697 -0.074478 3.531390
v -5.651562 1.085694 4.646012
v -5.665326 1.036011 3.405766
v -7.329836 0.938829 1.541064
v -8.569052 0.958405 1.467207
v -8.429404 -0.083364 2.066309
v -7.526431 -0.076263 2.106734
v -9.849128 1.581057 3.308333
v -9.968906 1.573773 4.350477
v -8.649126 1.489987 5.914127
v -7.578432 1.482422 5.961559
v -5.956368 1.510591 4.577804
v -5.896637 1.432274 3.513482
v -8.434073 1.594730 1.901362
v -7.332707 1.498792 1.950844
v -10.051805 0.364834 5.758957
v -8.786578 0.319806 6.417202
v -7.530956 0.312290 6.503394
v -6.091026 0.340994 6.003446
v -5.345658 0.408423 4.659929
v -5.413407 0.409227 3.389304
v -6.043896 0.388848 1.900194
v -7.419930 0.348895 1.269692
v -8.592018 0.296844 1.236235
v -9.862244 0.181169 1.833869
v -10.376815 0.234327 3.032057
v -10.601411 0.392110 4.509012
v -9.794076 0.016403 5.517845
v -8.714536 -0.000660 6.085194
v -7.575992 -0.003368 6.130608
v -6.360046 0.017360 5.711904
v -5.655448 0.005506 4.520041
v -5.680441 0.005429 3.542284
v -6.290674 0.014640 2.156965
v -7.445039 0.001677 1.622786
v -8.498035 -0.037318 1.643338
v -9.591473 -0.057456 2.052979
v -9.945058 -0.054530 3.225763
v -10.160678 -0.023567 4.413109
vt 0.454302 0.421712
vt 0.388448 0.375000
vt 0.534324 0.329347
vt 0.625000 0.312506
vt 0.612901 0.375000
vt 0.307374 0.250000
vt 0.794854 0.250000
vt 0.522519 1.000000
vt 0.500000 0.985238
vt 0.473034 0.904770
vt 0.387078 0.875000
vt 0.526128 0.850468
vt 0.625000 0.851575
vt 0.612199 0.875000
vt 0.224809 0.000000
vt 0.716743 0.000000
vt 0.473569 0.000000
vt 0.469569 0.231233
vt 0.520475 0.196912
vt 0.525374 0.231233
vt 0.457561 0.267541
vt 0.455793 0.325084
vt 0.375000 0.317626
vt 0.535013 0.269119
vt 0.625000 0.250000
vt 0.535779 0.416468
vt 0.625000 0.419854
vt 0.625000 0.500000
vt 0.375000 0.420933
vt 0.456370 0.482712
vt 0.375000 0.500000
vt 0.468114 0.518767
vt 0.375000 0.518767
vt 0.536270 0.481148
vt 0.528287 0.518767
vt 0.625000 0.518767
vt 0.474012 0.549854
vt 0.375000 0.537534
vt 0.472341 0.849230
vt 0.375000 0.849809
vt 0.527424 0.769466
vt 0.625000 0.750000
vt 0.522050 0.902699
vt 0.625000 0.908257
vt 0.625000 1.000000
vt 0.375000 0.907479
vt 0.473569 1.000000
vt 0.375000 1.000000
vt 0.625000 0.196912
vt 0.704185 0.231233
vt 0.772238 0.199679
vt 0.875000 0.231233
vt 0.778562 0.231233
vt 0.875000 0.250000
vt 0.625000 0.231233
vt 0.687506 0.250000
vt 0.125000 0.212465
vt 0.219464 0.231233
vt 0.284664 0.196912
vt 0.375000 0.231233
vt 0.292987 0.231233
vt 0.375000 0.250000
vt 0.125000 0.231233
vt 0.204067 0.250000
vt 0.125000 0.250000
vt 0.125000 0.000000
vt 0.229736 0.025251
vt 0.125000 0.025251
vt 0.282479 -0.000000
vt 0.275372 0.025251
vt 0.230783 0.062293
vt 0.125000 0.050503
vt 0.375000 0.000000
vt 0.479158 0.025251
vt 0.522519 0.000000
vt 0.517601 0.025251
vt 0.375000 0.025251
vt 0.479882 0.064435
vt 0.625000 0.000000
vt 0.723937 0.025251
vt 0.773425 0.000000
vt 0.875000 0.000000
vt 0.768324 0.025251
vt 0.875000 0.025251
vt 0.625000 0.025251
vt 0.724086 0.064435
vt 0.375000 0.699497
vt 0.478075 0.724749
vt 0.521054 0.687912
vt 0.625000 0.724749
vt 0.521534 0.724749
vt 0.375000 0.724749
vt 0.472113 0.769374
vt 0.375000 0.750000
vt 0.229963 0.131484
vt 0.125000 0.131484
vt 0.275696 0.064435
vt 0.278317 0.131484
vt 0.375000 0.196912
vt 0.226005 0.199898
vt 0.375000 0.064435
vt 0.479050 0.131484
vt 0.516887 0.064435
vt 0.517487 0.131484
vt 0.375000 0.131484
vt 0.475582 0.196912
vt 0.625000 0.064435
vt 0.721268 0.131484
vt 0.767625 0.062471
vt 0.875000 0.050503
vt 0.768440 0.131484
vt 0.875000 0.131484
vt 0.875000 0.212465
vt 0.625000 0.131484
vt 0.714284 0.196912
vt 0.477350 0.618516
vt 0.523938 0.550110
vt 0.625000 0.537534
vt 0.625000 0.618516
vt 0.521876 0.618516
vt 0.625000 0.699497
vt 0.375000 0.618516
vt 0.478492 0.687962
vt 0.375000 0.044304
vt 0.479510 0.044304
vt 0.517254 0.044304
vt 0.625000 0.044304
vt 0.724009 0.044304
vt 0.767984 0.043349
vt 0.625000 0.712470
vt 0.875000 0.037530
vt 0.521301 0.706837
vt 0.478278 0.706861
vt 0.125000 0.037530
vt 0.375000 0.712470
vt 0.230245 0.043263
vt 0.275530 0.044304
vt 0.375000 0.034915
vt 0.479336 0.034915
vt 0.517425 0.034915
vt 0.625000 0.034915
vt 0.723974 0.034915
vt 0.768152 0.034430
vt 0.625000 0.718521
vt 0.875000 0.031479
vt 0.521416 0.715664
vt 0.478178 0.715677
vt 0.125000 0.031479
vt 0.375000 0.718521
vt 0.229994 0.034386
vt 0.275452 0.034915
vn -0.210927 0.719344 0.661857
vn -0.231473 0.597751 0.767537
vn 0.130519 0.713943 0.687932
vn 0.149162 0.593855 0.790624
vn -0.126682 0.880779 0.456267
vn 0.087495 0.877080 0.472309
vn -0.079510 0.960305 0.267381
vn 0.034662 0.962358 0.269566
vn -0.084447 0.991752 0.096422
vn 0.062180 0.993524 0.095102
vn -0.068623 0.996973 -0.036548
vn 0.078812 0.996253 -0.035619
vn -0.033832 0.986108 -0.162625
vn 0.079487 0.979565 -0.184754
vn -0.206584 0.978308 -0.015356
vn -0.223874 0.971240 0.081073
vn 0.200507 0.976716 0.076316
vn 0.224600 0.974346 -0.014351
vn -0.487512 0.868054 -0.093886
vn -0.485813 0.867589 0.106187
vn 0.422408 0.889241 0.175564
vn 0.475858 0.877332 -0.062033
vn -0.074902 0.882622 -0.464078
vn 0.145969 0.863836 -0.482163
vn -0.104436 0.755228 -0.647089
vn 0.194095 0.711785 -0.675047
vn -0.130227 0.631623 -0.764260
vn 0.236751 0.607633 -0.758110
vn 0.010479 -0.999939 0.003627
vn -0.003515 -0.999973 0.006419
vn 0.040681 -0.996392 -0.074485
vn -0.016541 -0.998806 -0.045962
vn -0.001820 -0.999997 0.001671
vn 0.001378 -0.999999 -0.000327
vn 0.001819 -0.999993 0.003193
vn 0.009324 -0.999955 -0.002040
vn -0.001811 -0.999997 0.001863
vn -0.008231 -0.999964 -0.002116
vn -0.002463 -0.999991 -0.003491
vn -0.000380 -0.999978 0.006655
vn -0.000447 -0.999980 -0.006315
vn -0.001639 -0.999953 0.009573
vn -0.020543 -0.999726 -0.011250
vn -0.052673 -0.998486 0.015841
vn 0.080879 -0.996313 -0.028625
vn 0.074170 -0.996740 0.031748
vn 0.020946 -0.997278 0.070689
vn -0.026502 -0.996911 0.073940
vn 0.635284 0.732935 0.243354
vn 0.731959 0.634562 0.248127
vn 0.713571 0.693713 -0.097874
vn 0.805026 0.577529 -0.135620
vn -0.666666 0.725312 -0.171692
vn -0.772036 0.596741 -0.218772
vn -0.658361 0.745821 0.101546
vn -0.774379 0.623339 0.108558
vn -0.947470 -0.180363 -0.264141
vn -0.984960 -0.108789 0.134237
vn -0.883513 0.395172 -0.251485
vn -0.871894 0.471723 0.131446
vn -0.278414 -0.114580 0.953602
vn 0.147739 -0.128006 0.980708
vn -0.256915 0.400210 0.879674
vn 0.163059 0.415260 0.894970
vn 0.968497 -0.044693 -0.244982
vn 0.882057 0.428569 -0.195714
vn 0.965054 -0.026834 0.260673
vn 0.845866 0.471153 0.250050
vn -0.178045 0.463104 -0.868236
vn 0.242452 0.469713 -0.848874
vn 0.227184 -0.072753 -0.971130
vn -0.206538 -0.123988 -0.970551
vn -0.509859 0.741465 0.436203
vn -0.390385 0.855650 0.339797
vn 0.413650 0.735296 0.536874
vn 0.324781 0.850286 0.414162
vn 0.191893 0.945518 0.263008
vn -0.225820 0.945591 0.234230
vn 0.217811 0.963982 -0.152633
vn -0.158247 0.978448 -0.132653
vn -0.346110 0.875738 -0.336588
vn 0.392146 0.851012 -0.349285
vn 0.552604 0.688060 -0.470322
vn -0.459449 0.763564 -0.453737
vn -0.012339 -0.999922 -0.001783
vn 0.009310 -0.999924 -0.008134
vn 0.007931 -0.999934 0.008306
vn -0.011336 -0.999900 0.008502
vn -0.009850 -0.999885 -0.011518
vn -0.072555 -0.994905 0.069996
vn -0.728979 -0.049784 0.682724
vn -0.644579 0.467226 0.605160
vn -0.707461 -0.078911 -0.702333
vn -0.642771 0.440400 -0.626812
vn 0.053756 -0.996137 0.069438
vn 0.668444 -0.071858 0.740283
vn 0.566214 0.493960 0.659853
vn 0.058910 -0.996427 -0.060516
vn 0.724430 -0.069576 -0.685829
vn 0.662708 0.456681 -0.593515
vn -0.535339 0.648564 -0.541089
vn -0.584485 0.634185 0.506150
vn 0.460670 0.650578 0.603765
vn 0.623580 0.590684 -0.512094
vn -0.135256 -0.874472 0.465838
vn -0.415927 -0.832908 0.365060
vn 0.071206 -0.889192 0.451960
vn 0.319804 -0.877396 0.357634
vn 0.519728 -0.843538 0.135378
vn 0.520279 -0.844007 -0.130240
vn 0.396596 -0.844842 -0.359100
vn 0.137187 -0.866728 -0.479544
vn -0.057714 -0.892455 -0.447429
vn -0.247036 -0.930472 -0.270546
vn -0.366353 -0.927269 -0.077184
vn -0.518984 -0.851842 0.070857
s 1
g PiedraPrueba1
usemtl initialShadingGroup
f 30/106/1 87/102/2 29/19/3
f 29/19/3 87/102/2 88/104/4
f 30/106/1 29/19/3 31/18/5
f 31/18/5 29/19/3 32/20/6
f 31/18/5 32/20/6 33/21/7
f 33/21/7 32/20/6 34/24/8
f 33/21/7 34/24/8 36/22/9
f 36/22/9 34/24/8 37/3/10
f 35/1/11 38/26/12 43/30/13
f 43/30/13 38/26/12 44/34/14
f 35/1/11 40/2/15 36/22/9
f 36/22/9 40/2/15 39/23/16
f 37/3/10 42/4/17 38/26/12
f 38/26/12 42/4/17 41/5/18
f 40/64/15 67/58/19 39/6/16
f 39/6/16 67/58/19 68/61/20
f 42/56/17 63/50/21 41/7/18
f 41/7/18 63/50/21 64/53/22
f 43/30/13 44/34/14 45/32/23
f 45/32/23 44/34/14 46/35/24
f 45/32/23 46/35/24 47/37/25
f 47/37/25 46/35/24 48/117/26
f 47/37/25 48/117/26 91/116/27
f 91/116/27 48/117/26 92/120/28
f 49/41/29 50/93/30 84/91/31
f 84/91/31 50/93/30 83/88/32
f 50/93/30 49/41/29 52/39/33
f 52/39/33 49/41/29 53/12/34
f 54/43/35 60/8/36 51/10/37
f 51/10/37 60/8/36 59/9/38
f 52/39/33 51/10/37 55/40/39
f 55/40/39 51/10/37 56/11/40
f 53/12/34 58/13/41 54/43/35
f 54/43/35 58/13/41 57/14/42
f 55/15/39 56/69/40 69/67/43
f 69/67/43 56/69/40 70/70/44
f 58/81/41 78/83/45 57/16/42
f 57/16/42 78/83/45 77/80/46
f 60/75/36 74/76/47 59/17/38
f 59/17/38 74/76/47 73/74/48
f 62/115/49 89/108/50 61/51/51
f 61/51/51 89/108/50 90/111/52
f 61/51/51 64/53/22 62/115/49
f 62/115/49 64/53/22 63/50/21
f 66/100/53 85/95/54 65/59/55
f 65/59/55 85/95/54 86/98/56
f 65/59/55 68/61/20 66/100/53
f 66/100/53 68/61/20 67/58/19
f 103/136/57 104/137/58 71/71/59
f 71/71/59 104/137/58 72/97/60
f 72/97/60 86/98/56 71/71/59
f 71/71/59 86/98/56 85/95/54
f 94/125/61 95/126/62 75/78/63
f 75/78/63 95/126/62 76/103/64
f 75/78/63 76/103/64 87/102/2
f 87/102/2 76/103/64 88/104/4
f 98/129/65 80/109/66 97/128/67
f 97/128/67 80/109/66 79/86/68
f 80/109/66 90/111/52 79/86/68
f 79/86/68 90/111/52 89/108/50
f 82/123/69 91/116/27 81/89/70
f 81/89/70 91/116/27 92/120/28
f 81/89/70 100/132/71 82/123/69
f 82/123/69 100/132/71 101/133/72
f 14/99/73 30/106/1 26/60/74
f 26/60/74 30/106/1 31/18/5
f 15/49/75 25/55/76 29/19/3
f 29/19/3 25/55/76 32/20/6
f 25/55/76 4/25/77 32/20/6
f 32/20/6 4/25/77 34/24/8
f 26/60/74 31/18/5 3/62/78
f 3/62/78 31/18/5 33/21/7
f 33/21/7 36/22/9 3/62/78
f 3/62/78 36/22/9 39/23/16
f 34/24/8 4/25/77 37/3/10
f 37/3/10 4/25/77 42/4/17
f 41/27/18 6/28/79 38/26/12
f 38/26/12 6/28/79 44/34/14
f 40/29/15 35/1/11 5/31/80
f 5/31/80 35/1/11 43/30/13
f 43/30/13 45/32/23 5/31/80
f 5/31/80 45/32/23 28/33/81
f 44/34/14 6/28/79 46/35/24
f 46/35/24 6/28/79 27/36/82
f 46/35/24 27/36/82 48/117/26
f 48/117/26 27/36/82 16/118/83
f 45/32/23 47/37/25 28/33/81
f 28/33/81 47/37/25 13/38/84
f 50/93/30 52/39/33 7/94/85
f 7/94/85 52/39/33 55/40/39
f 49/41/29 8/42/86 53/12/34
f 53/12/34 8/42/86 58/13/41
f 57/44/42 2/45/87 54/43/35
f 54/43/35 2/45/87 60/8/36
f 56/46/40 51/10/37 1/48/88
f 1/48/88 51/10/37 59/47/38
f 15/49/75 62/115/49 25/55/76
f 25/55/76 62/115/49 63/50/21
f 16/113/83 27/52/82 61/51/51
f 61/51/51 27/52/82 64/53/22
f 27/52/82 6/54/79 64/53/22
f 64/53/22 6/54/79 41/7/18
f 25/55/76 63/50/21 4/25/77
f 4/25/77 63/50/21 42/56/17
f 13/57/84 66/100/53 28/63/81
f 28/63/81 66/100/53 67/58/19
f 14/99/73 26/60/74 65/59/55
f 65/59/55 26/60/74 68/61/20
f 26/60/74 3/62/78 68/61/20
f 68/61/20 3/62/78 39/6/16
f 28/63/81 67/58/19 5/65/80
f 5/65/80 67/58/19 40/64/15
f 55/15/39 69/67/43 7/66/85
f 7/66/85 69/67/43 18/68/89
f 56/69/40 1/73/88 70/70/44
f 70/70/44 1/73/88 17/77/90
f 93/124/91 10/101/92 104/137/58
f 104/137/58 10/101/92 72/97/60
f 102/134/93 103/136/57 9/72/94
f 9/72/94 103/136/57 71/71/59
f 59/17/38 73/74/48 1/73/88
f 1/73/88 73/74/48 17/77/90
f 60/75/36 2/79/87 74/76/47
f 74/76/47 2/79/87 19/85/95
f 95/126/62 96/127/96 76/103/64
f 76/103/64 96/127/96 11/107/97
f 93/124/91 94/125/61 10/101/92
f 10/101/92 94/125/61 75/78/63
f 57/16/42 77/80/46 2/79/87
f 2/79/87 77/80/46 19/85/95
f 58/81/41 8/82/86 78/83/45
f 78/83/45 8/82/86 20/84/98
f 99/131/99 12/110/100 98/129/65
f 98/129/65 12/110/100 80/109/66
f 96/127/96 97/128/67 11/107/97
f 11/107/97 97/128/67 79/86/68
f 82/123/69 101/133/72 9/87/94
f 9/87/94 101/133/72 102/135/93
f 12/121/100 99/130/99 81/89/70
f 81/89/70 99/130/99 100/132/71
f 20/90/98 8/42/86 84/91/31
f 84/91/31 8/42/86 49/41/29
f 18/92/89 83/88/32 7/94/85
f 7/94/85 83/88/32 50/93/30
f 9/72/94 71/71/59 22/96/101
f 22/96/101 71/71/59 85/95/54
f 10/101/92 21/105/102 72/97/60
f 72/97/60 21/105/102 86/98/56
f 21/105/102 14/99/73 86/98/56
f 86/98/56 14/99/73 65/59/55
f 22/96/101 85/95/54 13/57/84
f 13/57/84 85/95/54 66/100/53
f 75/78/63 87/102/2 10/101/92
f 10/101/92 87/102/2 21/105/102
f 11/107/97 23/114/103 76/103/64
f 76/103/64 23/114/103 88/104/4
f 23/114/103 15/49/75 88/104/4
f 88/104/4 15/49/75 29/19/3
f 87/102/2 30/106/1 21/105/102
f 21/105/102 30/106/1 14/99/73
f 79/86/68 89/108/50 11/107/97
f 11/107/97 89/108/50 23/114/103
f 12/110/100 24/112/104 80/109/66
f 80/109/66 24/112/104 90/111/52
f 24/112/104 16/113/83 90/111/52
f 90/111/52 16/113/83 61/51/51
f 89/108/50 62/115/49 23/114/103
f 23/114/103 62/115/49 15/49/75
f 13/38/84 47/37/25 22/122/101
f 22/122/101 47/37/25 91/116/27
f 48/117/26 16/118/83 92/120/28
f 92/120/28 16/118/83 24/119/104
f 24/119/104 12/121/100 92/120/28
f 92/120/28 12/121/100 81/89/70
f 91/116/27 82/123/69 22/122/101
f 22/122/101 82/123/69 9/87/94
f 35/1/11 36/22/9 38/26/12
f 38/26/12 36/22/9 37/3/10
f 52/39/33 53/12/34 51/10/37
f 51/10/37 53/12/34 54/43/35
f 106/139/105 94/125/61 105/138/106
f 105/138/106 94/125/61 93/124/91
f 106/139/105 107/140/107 94/125/61
f 94/125/61 107/140/107 95/126/62
f 107/140/107 108/141/108 95/126/62
f 95/126/62 108/141/108 96/127/96
f 109/142/109 97/128/67 108/141/108
f 108/141/108 97/128/67 96/127/96
f 110/143/110 98/129/65 109/142/109
f 109/142/109 98/129/65 97/128/67
f 110/143/110 111/145/111 98/129/65
f 98/129/65 111/145/111 99/131/99
f 99/130/99 111/144/111 100/132/71
f 100/132/71 111/144/111 112/146/112
f 101/133/72 100/132/71 113/147/113
f 113/147/113 100/132/71 112/146/112
f 102/135/93 101/133/72 114/149/114
f 114/149/114 101/133/72 113/147/113
f 115/150/115 103/136/57 114/148/114
f 114/148/114 103/136/57 102/134/93
f 115/150/115 116/151/116 103/136/57
f 103/136/57 116/151/116 104/137/58
f 116/151/116 105/138/106 104/137/58
f 104/137/58 105/138/106 93/124/91
f 73/74/48 106/139/105 17/77/90
f 17/77/90 106/139/105 105/138/106
f 74/76/47 107/140/107 73/74/48
f 73/74/48 107/140/107 106/139/105
f 74/76/47 19/85/95 107/140/107
f 107/140/107 19/85/95 108/141/108
f 19/85/95 77/80/46 108/141/108
f 108/141/108 77/80/46 109/142/109
f 78/83/45 110/143/110 77/80/46
f 77/80/46 110/143/110 109/142/109
f 20/84/98 111/145/111 78/83/45
f 78/83/45 111/145/111 110/143/110
f 111/144/111 20/90/98 112/146/112
f 112/146/112 20/90/98 84/91/31
f 112/146/112 84/91/31 113/147/113
f 113/147/113 84/91/31 83/88/32
f 114/149/114 113/147/113 18/92/89
f 18/92/89 113/147/113 83/88/32
f 69/67/43 115/150/115 18/68/89
f 18/68/89 115/150/115 114/148/114
f 69/67/43 70/70/44 115/150/115
f 115/150/115 70/70/44 116/151/116
f 70/70/44 17/77/90 116/151/116
f 116/151/116 17/77/90 105/138/106
