# This file uses meters as units for non-parametric coordinates.

mtllib Plantitas.mtl
g default
v -10.918431 0.000000 0.000000
v 9.737697 0.000000 0.000000
v -10.918431 46.468903 -2.093384
v 9.737697 46.468903 -2.093384
v -10.918431 68.351135 -8.115112
v 9.737697 68.351135 -8.115112
v -10.918431 80.415222 -14.485779
v 9.737697 80.415222 -14.485779
v -10.918431 99.850952 -36.033203
v 9.737697 99.850952 -36.033203
vt 0.408582 0.001184
vt 0.591419 0.001184
vt 0.591418 0.412919
vt 0.408582 0.412919
vt 0.591418 0.613808
vt 0.408582 0.613808
vt 0.591418 0.734567
vt 0.408582 0.734568
vt 0.591418 0.991418
vt 0.408581 0.991418
vn 0.000000 0.045003 0.998987
vn 0.000000 0.045003 0.998987
vn 0.000000 0.117899 0.993026
vn 0.000000 0.117899 0.993026
vn 0.000000 0.342922 0.939364
vn 0.000000 0.342922 0.939364
vn 0.000000 0.663278 0.748373
vn 0.000000 0.663278 0.748373
vn 0.000000 0.742556 0.669784
vn 0.000000 0.742556 0.669784
s 1
g pPlane40
usemtl initialShadingGroup
f 1/1/1 2/2/2 4/3/3 3/4/4
f 3/4/4 4/3/3 6/5/5 5/6/6
f 5/6/6 6/5/5 8/7/7 7/8/8
f 7/8/8 8/7/7 10/9/9 9/10/10
g default
v -10.522831 0.000000 0.000000
v 10.133419 0.000000 0.000000
v -10.522831 34.924744 -0.063293
v 10.133419 34.924744 -0.063293
v -10.522831 53.391235 -9.636230
v 10.133419 53.391235 -9.636230
v -10.522831 65.769104 -23.690552
v 10.133419 65.769104 -23.690552
v -10.522831 76.789795 -44.259766
v 10.133419 76.789795 -44.259766
vt 0.412309 0.053877
vt 0.595147 0.053877
vt 0.595147 0.363012
vt 0.412309 0.363012
vt 0.595147 0.547125
vt 0.412309 0.547125
vt 0.595147 0.712894
vt 0.412309 0.712894
vt 0.595147 0.919448
vt 0.412309 0.919448
vn 0.000000 0.001812 0.999998
vn 0.000000 0.001812 0.999998
vn 0.000000 0.177614 0.984100
vn 0.000000 0.177614 0.984100
vn 0.000000 0.608106 0.793856
vn 0.000000 0.608106 0.793856
vn 0.000000 0.828541 0.559928
vn 0.000000 0.828541 0.559928
vn 0.000000 0.881454 0.472271
vn 0.000000 0.881454 0.472271
s 1
g pPlane39
usemtl initialShadingGroup
f 11/11/11 12/12/12 14/13/13 13/14/14
f 13/14/14 14/13/13 16/15/15 15/16/16
f 15/16/16 16/15/15 18/17/17 17/18/18
f 17/18/18 18/17/17 20/19/19 19/20/20
g default
v -10.320123 0.000000 0.000000
v 10.336005 0.000000 0.000000
v -10.320123 34.880249 0.000000
v 10.336005 34.880249 0.000000
v -10.320123 50.896912 -6.091858
v 10.336005 50.896912 -6.091858
v -10.320123 61.250488 -17.434814
v 10.336005 61.250488 -17.434814
v -10.320123 64.574951 -26.329651
v 10.336005 64.574951 -26.329651
vt 0.409727 0.136818
vt 0.592564 0.136818
vt 0.592564 0.445559
vt 0.409727 0.445559
vt 0.592564 0.597238
vt 0.409727 0.597238
vt 0.592564 0.733177
vt 0.409727 0.733177
vt 0.592564 0.817228
vt 0.409727 0.817228
vn 0.000000 0.000000 1.000000
vn 0.000000 0.000000 1.000000
vn 0.000000 0.118842 0.992913
vn 0.000000 0.118842 0.992913
vn 0.000000 0.551513 0.834167
vn 0.000000 0.551513 0.834167
vn 0.000000 0.828515 0.559967
vn 0.000000 0.828515 0.559967
vn 0.000000 0.936712 0.350100
vn 0.000000 0.936712 0.350100
s 1
g pPlane38
usemtl initialShadingGroup
f 21/21/21 22/22/22 24/23/23 23/24/24
f 23/24/24 24/23/23 26/25/25 25/26/26
f 25/26/26 26/25/25 28/27/27 27/28/28
f 27/28/28 28/27/27 30/29/29 29/30/30
