# This file uses meters as units for non-parametric coordinates.

mtllib PruebaHoja.mtl
g default
v -29.610231 518.303589 -0.000000
v 29.610231 518.303589 -0.000000
v -29.610231 618.303589 0.000000
v 29.610231 618.303589 0.000000
v -29.610231 716.950684 -26.638767
v 29.610231 716.950684 -26.638767
v -29.610231 761.794067 -84.050186
v 29.610231 761.794067 -84.050186
vt 0.397284 0.020307
vt 0.602716 0.020307
vt 0.602716 0.367201
vt 0.397284 0.367201
vt 0.602716 0.721659
vt 0.397284 0.721659
vt 0.602716 0.974369
vt 0.397284 0.974369
vn 0.000000 -0.000000 1.000000
vn 0.000000 -0.000000 1.000000
vn 0.000000 -0.000000 1.000000
vn 0.000000 -0.000000 1.000000
vn 0.000000 0.260703 0.965419
vn 0.000000 0.260703 0.965419
vn 0.000000 0.260703 0.965419
vn 0.000000 0.260703 0.965419
vn 0.000000 0.788086 0.615565
vn 0.000000 0.788086 0.615565
vn 0.000000 0.788086 0.615565
vn 0.000000 0.788086 0.615565
s off
g pPlane36
usemtl initialShadingGroup
f 1/1/1 2/2/2 4/3/3 3/4/4
f 3/4/5 4/3/6 6/5/7 5/6/8
f 5/6/9 6/5/10 8/7/11 7/8/12
