# This file uses centimeters as units for non-parametric coordinates.

mtllib PuebloBOTest.mtl
g default
v -11.788437 1.624996 -19.750000
v -15.788437 1.624996 -19.750000
v -11.788437 2.124996 -19.750000
v -15.788437 2.124996 -19.750000
v -15.788437 1.624996 -37.250000
v -15.788437 2.124996 -37.250000
v -11.788437 1.624996 -37.250000
v -11.788437 2.124996 -37.250000
vt 4.000000 1.000000
vt 0.000000 1.000000
vt 0.000000 0.500000
vt 4.000000 0.500000
vt 17.500000 1.000000
vt 17.500000 0.500000
vt 0.000000 -16.500000
vt 4.000000 -16.500000
vt 0.000000 1.000000
vt 0.000000 0.500000
vt 4.000000 1.000000
vt 0.000000 1.000000
vt 0.000000 0.500000
vt 4.000000 0.500000
vt 17.500000 1.000000
vt 0.000000 1.000000
vt 0.000000 0.500000
vt 17.500000 0.500000
vt 4.000000 1.000000
vt 0.000000 1.000000
vt 4.000000 1.000000
vt 0.000000 1.000000
vt 0.000000 -16.500000
vt 4.000000 -16.500000
vn 0.000000 0.000000 1.000000
vn 0.000000 0.000000 1.000000
vn 0.000000 0.000000 1.000000
vn 0.000000 0.000000 1.000000
vn -1.000000 0.000000 0.000000
vn -1.000000 0.000000 0.000000
vn -1.000000 0.000000 0.000000
vn -1.000000 0.000000 0.000000
vn 0.000000 0.000000 -1.000000
vn 0.000000 0.000000 -1.000000
vn 0.000000 0.000000 -1.000000
vn 0.000000 0.000000 -1.000000
vn 1.000000 0.000000 0.000000
vn 1.000000 0.000000 0.000000
vn 1.000000 0.000000 0.000000
vn 1.000000 0.000000 0.000000
vn 0.000000 1.000000 0.000000
vn 0.000000 1.000000 0.000000
vn 0.000000 1.000000 0.000000
vn 0.000000 1.000000 0.000000
vn 0.000000 -1.000000 0.000000
vn 0.000000 -1.000000 0.000000
vn 0.000000 -1.000000 0.000000
vn 0.000000 -1.000000 0.000000
s off
g Cube_1_
usemtl ProBuilderDefault
f 3/1/1 4/2/2 2/3/3 1/4/4
f 4/5/5 6/9/6 5/10/7 2/6/8
f 6/11/9 8/12/10 7/13/11 5/14/12
f 8/15/13 3/16/14 1/17/15 7/18/16
f 8/7/17 6/8/18 4/19/19 3/20/20
f 1/21/21 2/22/22 5/23/23 7/24/24
g default
v 31.211563 -0.125004 -3.000000
v -20.788437 -0.125004 -3.000000
v 31.211563 2.124996 -3.000000
v -20.788437 2.124996 -3.000000
v -20.788437 -0.125004 -14.750000
v -20.788437 2.124996 -14.750000
v 31.211563 -0.125004 -14.750000
v 31.211563 2.124996 -14.750000
vt 52.000000 1.000000
vt 0.000000 1.000000
vt 0.000000 -1.250000
vt 52.000000 -1.250000
vt 11.750000 1.000000
vt 11.750000 -1.250000
vt 0.000000 -10.750000
vt 52.000000 -10.750000
vt 0.000000 1.000000
vt 0.000000 -1.250000
vt 52.000000 1.000000
vt 0.000000 1.000000
vt 0.000000 -1.250000
vt 52.000000 -1.250000
vt 11.750000 1.000000
vt 0.000000 1.000000
vt 0.000000 -1.250000
vt 11.750000 -1.250000
vt 52.000000 1.000000
vt 0.000000 1.000000
vt 52.000000 1.000000
vt 0.000000 1.000000
vt 0.000000 -10.750000
vt 52.000000 -10.750000
vn 0.000000 0.000000 1.000000
vn 0.000000 0.000000 1.000000
vn 0.000000 0.000000 1.000000
vn 0.000000 0.000000 1.000000
vn -1.000000 0.000000 0.000000
vn -1.000000 0.000000 0.000000
vn -1.000000 0.000000 0.000000
vn -1.000000 0.000000 0.000000
vn 0.000000 0.000000 -1.000000
vn 0.000000 0.000000 -1.000000
vn 0.000000 0.000000 -1.000000
vn 0.000000 0.000000 -1.000000
vn 1.000000 0.000000 0.000000
vn 1.000000 0.000000 0.000000
vn 1.000000 0.000000 0.000000
vn 1.000000 0.000000 0.000000
vn 0.000000 1.000000 0.000000
vn 0.000000 1.000000 0.000000
vn 0.000000 1.000000 0.000000
vn 0.000000 1.000000 0.000000
vn 0.000000 -1.000000 0.000000
vn 0.000000 -1.000000 0.000000
vn 0.000000 -1.000000 0.000000
vn 0.000000 -1.000000 0.000000
s off
g Cube_5_1
usemtl ProBuilderDefault
f 11/25/25 12/26/26 10/27/27 9/28/28
f 12/29/29 14/33/30 13/34/31 10/30/32
f 14/35/33 16/36/34 15/37/35 13/38/36
f 16/39/37 11/40/38 9/41/39 15/42/40
f 16/31/41 14/32/42 12/43/43 11/44/44
f 9/45/45 10/46/46 13/47/47 15/48/48
g default
v 11.211563 1.624996 -19.750000
v 7.211563 1.624996 -19.750000
v 11.211563 2.124996 -19.750000
v 7.211563 2.124996 -19.750000
v 7.211563 1.624996 -37.250000
v 7.211563 2.124996 -37.250000
v 11.211563 1.624996 -37.250000
v 11.211563 2.124996 -37.250000
vt 4.000000 1.000000
vt 0.000000 1.000000
vt 0.000000 0.500000
vt 4.000000 0.500000
vt 17.500000 1.000000
vt 17.500000 0.500000
vt 0.000000 -16.500000
vt 4.000000 -16.500000
vt 0.000000 1.000000
vt 0.000000 0.500000
vt 4.000000 1.000000
vt 0.000000 1.000000
vt 0.000000 0.500000
vt 4.000000 0.500000
vt 17.500000 1.000000
vt 0.000000 1.000000
vt 0.000000 0.500000
vt 17.500000 0.500000
vt 4.000000 1.000000
vt 0.000000 1.000000
vt 4.000000 1.000000
vt 0.000000 1.000000
vt 0.000000 -16.500000
vt 4.000000 -16.500000
vn 0.000000 0.000000 1.000000
vn 0.000000 0.000000 1.000000
vn 0.000000 0.000000 1.000000
vn 0.000000 0.000000 1.000000
vn -1.000000 0.000000 0.000000
vn -1.000000 0.000000 0.000000
vn -1.000000 0.000000 0.000000
vn -1.000000 0.000000 0.000000
vn 0.000000 0.000000 -1.000000
vn 0.000000 0.000000 -1.000000
vn 0.000000 0.000000 -1.000000
vn 0.000000 0.000000 -1.000000
vn 1.000000 0.000000 0.000000
vn 1.000000 0.000000 0.000000
vn 1.000000 0.000000 0.000000
vn 1.000000 0.000000 0.000000
vn 0.000000 1.000000 0.000000
vn 0.000000 1.000000 0.000000
vn 0.000000 1.000000 0.000000
vn 0.000000 1.000000 0.000000
vn 0.000000 -1.000000 0.000000
vn 0.000000 -1.000000 0.000000
vn 0.000000 -1.000000 0.000000
vn 0.000000 -1.000000 0.000000
s off
g Cube_3_1
usemtl ProBuilderDefault
f 19/49/49 20/50/50 18/51/51 17/52/52
f 20/53/53 22/57/54 21/58/55 18/54/56
f 22/59/57 24/60/58 23/61/59 21/62/60
f 24/63/61 19/64/62 17/65/63 23/66/64
f 24/55/65 22/56/66 20/67/67 19/68/68
f 17/69/69 18/70/70 21/71/71 23/72/72
g default
v 23.211563 1.624996 -14.750000
v -15.788437 1.624996 -14.750000
v 23.211563 2.124996 -14.750000
v -15.788437 2.124996 -14.750000
v -15.788437 1.624996 -19.750000
v -15.788437 2.124996 -19.750000
v 23.211563 1.624996 -19.750000
v 23.211563 2.124996 -19.750000
vt 39.000000 1.000000
vt 0.000000 1.000000
vt 0.000000 0.500000
vt 39.000000 0.500000
vt 5.000000 1.000000
vt 5.000000 0.500000
vt 0.000000 -4.000000
vt 39.000000 -4.000000
vt 0.000000 1.000000
vt 0.000000 0.500000
vt 39.000000 1.000000
vt 0.000000 1.000000
vt 0.000000 0.500000
vt 39.000000 0.500000
vt 5.000000 1.000000
vt 0.000000 1.000000
vt 0.000000 0.500000
vt 5.000000 0.500000
vt 39.000000 1.000000
vt 0.000000 1.000000
vt 39.000000 1.000000
vt 0.000000 1.000000
vt 0.000000 -4.000000
vt 39.000000 -4.000000
vn 0.000000 0.000000 1.000000
vn 0.000000 0.000000 1.000000
vn 0.000000 0.000000 1.000000
vn 0.000000 0.000000 1.000000
vn -1.000000 0.000000 0.000000
vn -1.000000 0.000000 0.000000
vn -1.000000 0.000000 0.000000
vn -1.000000 0.000000 0.000000
vn 0.000000 0.000000 -1.000000
vn 0.000000 0.000000 -1.000000
vn 0.000000 0.000000 -1.000000
vn 0.000000 0.000000 -1.000000
vn 1.000000 0.000000 0.000000
vn 1.000000 0.000000 0.000000
vn 1.000000 0.000000 0.000000
vn 1.000000 0.000000 0.000000
vn 0.000000 1.000000 0.000000
vn 0.000000 1.000000 0.000000
vn 0.000000 1.000000 0.000000
vn 0.000000 1.000000 0.000000
vn 0.000000 -1.000000 0.000000
vn 0.000000 -1.000000 0.000000
vn 0.000000 -1.000000 0.000000
vn 0.000000 -1.000000 0.000000
s off
g Cube1
usemtl ProBuilderDefault
f 27/73/73 28/74/74 26/75/75 25/76/76
f 28/77/77 30/81/78 29/82/79 26/78/80
f 30/83/81 32/84/82 31/85/83 29/86/84
f 32/87/85 27/88/86 25/89/87 31/90/88
f 32/79/89 30/80/90 28/91/91 27/92/92
f 25/93/93 26/94/94 29/95/95 31/96/96
g default
v -0.788437 1.624996 -19.750000
v -4.788437 1.624996 -19.750000
v -0.788437 2.124996 -19.750000
v -4.788437 2.124996 -19.750000
v -4.788437 1.624996 -37.250000
v -4.788437 2.124996 -37.250000
v -0.788437 1.624996 -37.250000
v -0.788437 2.124996 -37.250000
vt 4.000000 1.000000
vt 0.000000 1.000000
vt 0.000000 0.500000
vt 4.000000 0.500000
vt 17.500000 1.000000
vt 17.500000 0.500000
vt 0.000000 -16.500000
vt 4.000000 -16.500000
vt 0.000000 1.000000
vt 0.000000 0.500000
vt 4.000000 1.000000
vt 0.000000 1.000000
vt 0.000000 0.500000
vt 4.000000 0.500000
vt 17.500000 1.000000
vt 0.000000 1.000000
vt 0.000000 0.500000
vt 17.500000 0.500000
vt 4.000000 1.000000
vt 0.000000 1.000000
vt 4.000000 1.000000
vt 0.000000 1.000000
vt 0.000000 -16.500000
vt 4.000000 -16.500000
vn 0.000000 0.000000 1.000000
vn 0.000000 0.000000 1.000000
vn 0.000000 0.000000 1.000000
vn 0.000000 0.000000 1.000000
vn -1.000000 0.000000 0.000000
vn -1.000000 0.000000 0.000000
vn -1.000000 0.000000 0.000000
vn -1.000000 0.000000 0.000000
vn 0.000000 0.000000 -1.000000
vn 0.000000 0.000000 -1.000000
vn 0.000000 0.000000 -1.000000
vn 0.000000 0.000000 -1.000000
vn 1.000000 0.000000 0.000000
vn 1.000000 0.000000 0.000000
vn 1.000000 0.000000 0.000000
vn 1.000000 0.000000 0.000000
vn 0.000000 1.000000 0.000000
vn 0.000000 1.000000 0.000000
vn 0.000000 1.000000 0.000000
vn 0.000000 1.000000 0.000000
vn 0.000000 -1.000000 0.000000
vn 0.000000 -1.000000 0.000000
vn 0.000000 -1.000000 0.000000
vn 0.000000 -1.000000 0.000000
s off
g Cube_4_1
usemtl ProBuilderDefault
f 35/97/97 36/98/98 34/99/99 33/100/100
f 36/101/101 38/105/102 37/106/103 34/102/104
f 38/107/105 40/108/106 39/109/107 37/110/108
f 40/111/109 35/112/110 33/113/111 39/114/112
f 40/103/113 38/104/114 36/115/115 35/116/116
f 33/117/117 34/118/118 37/119/119 39/120/120
g default
v 23.211563 1.624996 -19.750000
v 19.211563 1.624996 -19.750000
v 23.211563 2.124996 -19.750000
v 19.211563 2.124996 -19.750000
v 19.211563 1.624996 -37.250000
v 19.211563 2.124996 -37.250000
v 23.211563 1.624996 -37.250000
v 23.211563 2.124996 -37.250000
vt 4.000000 1.000000
vt 0.000000 1.000000
vt 0.000000 0.500000
vt 4.000000 0.500000
vt 17.500000 1.000000
vt 17.500000 0.500000
vt 0.000000 -16.500000
vt 4.000000 -16.500000
vt 0.000000 1.000000
vt 0.000000 0.500000
vt 4.000000 1.000000
vt 0.000000 1.000000
vt 0.000000 0.500000
vt 4.000000 0.500000
vt 17.500000 1.000000
vt 0.000000 1.000000
vt 0.000000 0.500000
vt 17.500000 0.500000
vt 4.000000 1.000000
vt 0.000000 1.000000
vt 4.000000 1.000000
vt 0.000000 1.000000
vt 0.000000 -16.500000
vt 4.000000 -16.500000
vn 0.000000 0.000000 1.000000
vn 0.000000 0.000000 1.000000
vn 0.000000 0.000000 1.000000
vn 0.000000 0.000000 1.000000
vn -1.000000 0.000000 0.000000
vn -1.000000 0.000000 0.000000
vn -1.000000 0.000000 0.000000
vn -1.000000 0.000000 0.000000
vn 0.000000 0.000000 -1.000000
vn 0.000000 0.000000 -1.000000
vn 0.000000 0.000000 -1.000000
vn 0.000000 0.000000 -1.000000
vn 1.000000 0.000000 0.000000
vn 1.000000 0.000000 0.000000
vn 1.000000 0.000000 0.000000
vn 1.000000 0.000000 0.000000
vn 0.000000 1.000000 0.000000
vn 0.000000 1.000000 0.000000
vn 0.000000 1.000000 0.000000
vn 0.000000 1.000000 0.000000
vn 0.000000 -1.000000 0.000000
vn 0.000000 -1.000000 0.000000
vn 0.000000 -1.000000 0.000000
vn 0.000000 -1.000000 0.000000
s off
g Cube_2_1
usemtl ProBuilderDefault
f 43/121/121 44/122/122 42/123/123 41/124/124
f 44/125/125 46/129/126 45/130/127 42/126/128
f 46/131/129 48/132/130 47/133/131 45/134/132
f 48/135/133 43/136/134 41/137/135 47/138/136
f 48/127/137 46/128/138 44/139/139 43/140/140
f 41/141/141 42/142/142 45/143/143 47/144/144
g default
v 35.963958 2.090007 5.870527
v 35.963958 2.589994 5.866928
v 36.192351 2.098288 7.018548
v 36.192351 2.598275 7.014948
v 36.842650 2.105309 7.991797
v 36.842650 2.605296 7.988188
v 37.815963 2.110000 8.642098
v 37.815963 2.609987 8.638488
v 38.963958 2.111647 8.870458
v 38.963958 2.611634 8.866848
v 40.112059 2.110000 8.642098
v 40.112059 2.609987 8.638488
v 41.085250 2.105309 7.991797
v 41.085250 2.605296 7.988188
v 41.735656 2.098288 7.018548
v 41.735656 2.598275 7.014948
v 41.963958 2.090007 5.870527
v 41.963958 2.589994 5.866928
v 41.735656 2.081725 4.722508
v 41.735656 2.581712 4.718907
v 41.085250 2.074704 3.749268
v 41.085250 2.574692 3.745658
v 40.112059 2.070013 3.098968
v 40.112059 2.570000 3.095358
v 38.963958 2.068366 2.870607
v 38.963958 2.568353 2.867003
v 37.815963 2.070013 3.098968
v 37.815963 2.570000 3.095358
v 36.842650 2.074704 3.749268
v 36.842650 2.574692 3.745658
v 36.192351 2.081725 4.722508
v 36.192351 2.581712 4.718907
v 38.963958 2.090007 5.870527
v 38.963958 2.589994 5.866928
vt -3.000000 0.000000
vt 0.000000 0.000000
vt -2.771638 1.148050
vt -2.121320 2.121320
vt -1.148050 2.771638
vt 0.000000 3.000000
vt 1.148050 2.771638
vt 2.121320 2.121320
vt 2.771638 1.148050
vt 3.000000 0.000000
vt 2.771638 -1.148050
vt 2.121320 -2.121320
vt 1.148051 -2.771638
vt -0.000000 -3.000000
vt -1.148051 -2.771638
vt -2.121320 -2.121320
vt -2.771638 -1.148050
vt 0.585271 0.250000
vt -0.585271 0.250000
vt -0.585271 -0.250000
vt 0.585271 -0.250000
vt 2.771638 1.148050
vt 0.000000 0.000000
vt 3.000000 0.000000
vt 2.121320 2.121320
vt 0.000000 0.000000
vt 2.771638 1.148050
vt 1.148050 2.771638
vt 0.000000 0.000000
vt 2.121320 2.121320
vt 0.000000 3.000000
vt 0.000000 0.000000
vt 1.148050 2.771638
vt -1.148050 2.771638
vt 0.000000 0.000000
vt 0.000000 3.000000
vt -2.121320 2.121320
vt 0.000000 0.000000
vt -1.148050 2.771638
vt -2.771638 1.148050
vt 0.000000 0.000000
vt -2.121320 2.121320
vt -3.000000 0.000000
vt 0.000000 0.000000
vt -2.771638 1.148050
vt -2.771638 -1.148050
vt 0.000000 0.000000
vt -3.000000 0.000000
vt -2.121320 -2.121320
vt 0.000000 0.000000
vt -2.771638 -1.148050
vt -1.148051 -2.771638
vt 0.000000 0.000000
vt -2.121320 -2.121320
vt -0.000000 -3.000000
vt 0.000000 0.000000
vt -1.148051 -2.771638
vt 1.148051 -2.771638
vt 0.000000 0.000000
vt -0.000000 -3.000000
vt 2.121320 -2.121320
vt 0.000000 0.000000
vt 1.148051 -2.771638
vt 2.771638 -1.148050
vt 0.000000 0.000000
vt 2.121320 -2.121320
vt 3.000000 0.000000
vt 0.000000 0.000000
vt 2.771638 -1.148050
vt 0.585271 0.250000
vt -0.585271 0.250000
vt -0.585271 -0.250000
vt -0.585271 -0.250000
vt 0.585271 -0.250000
vt 0.585271 0.250000
vt 0.585271 0.250000
vt -0.585271 0.250000
vt -0.585271 -0.250000
vt -0.585271 -0.250000
vt 0.585271 -0.250000
vt 0.585271 0.250000
vt 0.585271 0.250000
vt -0.585271 0.250000
vt -0.585271 -0.250000
vt -0.585271 -0.250000
vt 0.585271 -0.250000
vt 0.585271 0.250000
vt 0.585271 0.250000
vt -0.585271 0.250000
vt -0.585271 -0.250000
vt -0.585271 -0.250000
vt 0.585271 -0.250000
vt 0.585271 0.250000
vt 0.585271 0.250000
vt -0.585271 0.250000
vt -0.585271 -0.250000
vt -0.585271 -0.250000
vt 0.585271 -0.250000
vt 0.585271 0.250000
vt 0.585271 0.250000
vt -0.585271 0.250000
vt -0.585271 -0.250000
vt -0.585271 -0.250000
vt 0.585271 -0.250000
vt 0.585271 0.250000
vt 0.585271 0.250000
vt -0.585271 0.250000
vt -0.585271 -0.250000
vt -0.585271 -0.250000
vt 0.585271 -0.250000
vt 0.585271 0.250000
vt 0.585271 0.250000
vt -0.585271 0.250000
vt -0.585271 -0.250000
vt -0.585271 -0.250000
vt 0.585271 -0.250000
vt 0.585271 0.250000
vt 0.585271 0.250000
vt -0.585271 0.250000
vt -0.585271 -0.250000
vt -0.585271 -0.250000
vt 0.585271 -0.250000
vt 0.585271 0.250000
vt 0.585271 0.250000
vt -0.585271 0.250000
vt -0.585271 -0.250000
vt -0.585271 -0.250000
vt 0.585271 -0.250000
vt 0.585271 0.250000
vt 0.585271 0.250000
vt -0.585271 0.250000
vt -0.585271 -0.250000
vt -0.585271 -0.250000
vt 0.585271 -0.250000
vt 0.585271 0.250000
vt 0.585271 0.250000
vt -0.585271 0.250000
vt -0.585271 -0.250000
vt -0.585271 -0.250000
vt 0.585271 -0.250000
vt 0.585271 0.250000
vt 0.585271 0.250000
vt -0.585271 0.250000
vt -0.585271 -0.250000
vt -0.585271 -0.250000
vt 0.585271 -0.250000
vt 0.585271 0.250000
vt 0.585271 0.250000
vt -0.585271 0.250000
vt -0.585271 -0.250000
vt -0.585271 -0.250000
vt 0.585271 -0.250000
vt 0.585271 0.250000
vt 0.585271 0.250000
vt -0.585271 0.250000
vt -0.585271 -0.250000
vt -0.585271 -0.250000
vt 0.585271 -0.250000
vt 0.585271 0.250000
vn 0.000000 -0.999974 0.007213
vn 0.000000 -0.999974 0.007213
vn 0.000000 -0.999974 0.007213
vn 0.000000 -0.999974 0.007214
vn 0.000000 -0.999974 0.007214
vn 0.000000 -0.999974 0.007214
vn 0.000000 -0.999974 0.007214
vn 0.000000 -0.999974 0.007214
vn 0.000000 -0.999974 0.007214
vn 0.000000 -0.999974 0.007214
vn 0.000000 -0.999974 0.007214
vn 0.000000 -0.999974 0.007214
vn 0.000000 -0.999974 0.007214
vn 0.000000 -0.999974 0.007214
vn 0.000000 -0.999974 0.007214
vn 0.000000 -0.999974 0.007214
vn 0.000000 -0.999974 0.007214
vn 0.000000 -0.999974 0.007214
vn 0.000000 -0.999974 0.007214
vn 0.000000 -0.999974 0.007214
vn 0.000000 -0.999974 0.007214
vn 0.000000 -0.999974 0.007214
vn 0.000000 -0.999974 0.007214
vn 0.000000 -0.999974 0.007214
vn 0.000000 -0.999974 0.007214
vn 0.000000 -0.999974 0.007214
vn 0.000000 -0.999974 0.007214
vn 0.000000 -0.999974 0.007214
vn 0.000000 -0.999974 0.007214
vn 0.000000 -0.999974 0.007214
vn 0.000000 -0.999974 0.007214
vn 0.000000 -0.999974 0.007214
vn 0.000000 -0.999974 0.007214
vn 0.000000 -0.999974 0.007214
vn 0.000000 -0.999974 0.007214
vn 0.000000 -0.999974 0.007214
vn 0.000000 -0.999974 0.007214
vn 0.000000 -0.999974 0.007214
vn 0.000000 -0.999974 0.007214
vn 0.000000 -0.999974 0.007214
vn 0.000000 -0.999974 0.007214
vn 0.000000 -0.999974 0.007214
vn 0.000000 -0.999974 0.007214
vn 0.000000 -0.999974 0.007214
vn 0.000000 -0.999974 0.007214
vn 0.000000 -0.999974 0.007214
vn 0.000000 -0.999974 0.007214
vn 0.000000 -0.999974 0.007214
vn 0.000000 0.999974 -0.007214
vn 0.000000 0.999974 -0.007214
vn 0.000000 0.999974 -0.007214
vn 0.000000 0.999974 -0.007214
vn 0.000000 0.999974 -0.007214
vn 0.000000 0.999974 -0.007214
vn 0.000000 0.999974 -0.007214
vn 0.000000 0.999974 -0.007214
vn 0.000000 0.999974 -0.007214
vn 0.000000 0.999974 -0.007214
vn 0.000000 0.999974 -0.007214
vn 0.000000 0.999974 -0.007214
vn 0.000000 0.999974 -0.007214
vn 0.000000 0.999974 -0.007214
vn 0.000000 0.999974 -0.007214
vn 0.000000 0.999974 -0.007214
vn 0.000000 0.999974 -0.007214
vn 0.000000 0.999974 -0.007214
vn 0.000000 0.999974 -0.007214
vn 0.000000 0.999974 -0.007214
vn 0.000000 0.999974 -0.007214
vn 0.000000 0.999974 -0.007214
vn 0.000000 0.999974 -0.007214
vn 0.000000 0.999974 -0.007214
vn 0.000000 0.999974 -0.007214
vn 0.000000 0.999974 -0.007214
vn 0.000000 0.999974 -0.007214
vn 0.000000 0.999974 -0.007214
vn 0.000000 0.999974 -0.007214
vn 0.000000 0.999974 -0.007214
vn 0.000000 0.999974 -0.007214
vn 0.000000 0.999974 -0.007214
vn 0.000000 0.999974 -0.007214
vn 0.000000 0.999974 -0.007214
vn 0.000000 0.999974 -0.007214
vn 0.000000 0.999974 -0.007214
vn 0.000000 0.999974 -0.007214
vn 0.000000 0.999974 -0.007214
vn 0.000000 0.999974 -0.007214
vn 0.000000 0.999974 -0.007214
vn 0.000000 0.999974 -0.007214
vn 0.000000 0.999974 -0.007214
vn 0.000000 0.999974 -0.007214
vn 0.000000 0.999974 -0.007214
vn 0.000000 0.999974 -0.007214
vn 0.000000 0.999974 -0.007214
vn 0.000000 0.999974 -0.007214
vn 0.000000 0.999974 -0.007214
vn -0.923880 0.002760 0.382674
vn -1.000000 0.000000 0.000000
vn -1.000000 0.000000 0.000000
vn -1.000000 0.000000 0.000000
vn -0.923880 0.002760 0.382674
vn -0.923880 0.002760 0.382674
vn -0.707107 0.005101 0.707088
vn -0.923880 0.002760 0.382674
vn -0.923880 0.002760 0.382674
vn -0.923880 0.002760 0.382674
vn -0.707107 0.005101 0.707088
vn -0.707107 0.005101 0.707088
vn -0.382683 0.006664 0.923855
vn -0.707107 0.005101 0.707088
vn -0.707107 0.005101 0.707088
vn -0.707107 0.005101 0.707088
vn -0.382683 0.006664 0.923855
vn -0.382683 0.006664 0.923855
vn -0.000000 0.007214 0.999974
vn -0.382683 0.006664 0.923855
vn -0.382683 0.006664 0.923855
vn -0.382683 0.006664 0.923855
vn -0.000000 0.007214 0.999974
vn -0.000000 0.007214 0.999974
vn 0.382683 0.006664 0.923855
vn -0.000000 0.007214 0.999974
vn -0.000000 0.007214 0.999974
vn -0.000000 0.007214 0.999974
vn 0.382683 0.006664 0.923855
vn 0.382683 0.006664 0.923855
vn 0.707107 0.005101 0.707088
vn 0.382683 0.006664 0.923855
vn 0.382683 0.006664 0.923855
vn 0.382683 0.006664 0.923855
vn 0.707107 0.005101 0.707088
vn 0.707107 0.005101 0.707088
vn 0.923880 0.002760 0.382674
vn 0.707107 0.005101 0.707088
vn 0.707107 0.005101 0.707088
vn 0.707107 0.005101 0.707088
vn 0.923880 0.002760 0.382674
vn 0.923880 0.002760 0.382674
vn 1.000000 -0.000000 -0.000000
vn 0.923880 0.002760 0.382674
vn 0.923880 0.002760 0.382674
vn 0.923880 0.002760 0.382674
vn 1.000000 -0.000000 -0.000000
vn 1.000000 -0.000000 -0.000000
vn 0.923880 -0.002760 -0.382674
vn 1.000000 -0.000000 -0.000000
vn 1.000000 -0.000000 -0.000000
vn 1.000000 -0.000000 -0.000000
vn 0.923880 -0.002760 -0.382674
vn 0.923880 -0.002760 -0.382674
vn 0.707107 -0.005101 -0.707088
vn 0.923880 -0.002760 -0.382674
vn 0.923880 -0.002760 -0.382674
vn 0.923880 -0.002760 -0.382674
vn 0.707107 -0.005101 -0.707088
vn 0.707107 -0.005101 -0.707088
vn 0.382683 -0.006664 -0.923855
vn 0.707107 -0.005101 -0.707088
vn 0.707107 -0.005101 -0.707088
vn 0.707107 -0.005101 -0.707088
vn 0.382683 -0.006664 -0.923855
vn 0.382683 -0.006664 -0.923855
vn 0.000000 -0.007214 -0.999974
vn 0.382683 -0.006664 -0.923855
vn 0.382683 -0.006664 -0.923855
vn 0.382683 -0.006664 -0.923855
vn 0.000000 -0.007214 -0.999974
vn 0.000000 -0.007214 -0.999974
vn -0.382683 -0.006664 -0.923855
vn 0.000000 -0.007214 -0.999974
vn 0.000000 -0.007214 -0.999974
vn 0.000000 -0.007214 -0.999974
vn -0.382683 -0.006664 -0.923855
vn -0.382683 -0.006664 -0.923855
vn -0.707107 -0.005101 -0.707088
vn -0.382683 -0.006664 -0.923855
vn -0.382683 -0.006664 -0.923855
vn -0.382683 -0.006664 -0.923855
vn -0.707107 -0.005101 -0.707088
vn -0.707107 -0.005101 -0.707088
vn -0.923880 -0.002760 -0.382674
vn -0.707107 -0.005101 -0.707088
vn -0.707107 -0.005101 -0.707088
vn -0.707107 -0.005101 -0.707088
vn -0.923880 -0.002760 -0.382674
vn -0.923880 -0.002760 -0.382674
vn -1.000000 0.000000 0.000000
vn -0.923880 -0.002760 -0.382674
vn -0.923880 -0.002760 -0.382674
vn -0.923880 -0.002760 -0.382674
vn -1.000000 0.000000 0.000000
vn -1.000000 0.000000 0.000000
s off
g Cylinder
usemtl ProBuilderDefault
f 49/145/145 81/146/146 51/147/147
f 51/147/148 81/146/149 53/148/150
f 53/148/151 81/146/152 55/149/153
f 55/149/154 81/146/155 57/150/156
f 57/150/157 81/146/158 59/151/159
f 59/151/160 81/146/161 61/152/162
f 61/152/163 81/146/164 63/153/165
f 63/153/166 81/146/167 65/154/168
f 65/154/169 81/146/170 67/155/171
f 67/155/172 81/146/173 69/156/174
f 69/156/175 81/146/176 71/157/177
f 71/157/178 81/146/179 73/158/180
f 73/158/181 81/146/182 75/159/183
f 75/159/184 81/146/185 77/160/186
f 77/160/187 81/146/188 79/161/189
f 79/161/190 81/146/191 49/145/192
f 52/166/193 82/167/194 50/168/195
f 54/169/196 82/170/197 52/171/198
f 56/172/199 82/173/200 54/174/201
f 58/175/202 82/176/203 56/177/204
f 60/178/205 82/179/206 58/180/207
f 62/181/208 82/182/209 60/183/210
f 64/184/211 82/185/212 62/186/213
f 66/187/214 82/188/215 64/189/216
f 68/190/217 82/191/218 66/192/219
f 70/193/220 82/194/221 68/195/222
f 72/196/223 82/197/224 70/198/225
f 74/199/226 82/200/227 72/201/228
f 76/202/229 82/203/230 74/204/231
f 78/205/232 82/206/233 76/207/234
f 80/208/235 82/209/236 78/210/237
f 50/211/238 82/212/239 80/213/240
f 52/162/241 50/163/242 49/164/243
f 49/164/244 51/165/245 52/162/246
f 54/214/247 52/215/248 51/216/249
f 51/217/250 53/218/251 54/219/252
f 56/220/253 54/221/254 53/222/255
f 53/223/256 55/224/257 56/225/258
f 58/226/259 56/227/260 55/228/261
f 55/229/262 57/230/263 58/231/264
f 60/232/265 58/233/266 57/234/267
f 57/235/268 59/236/269 60/237/270
f 62/238/271 60/239/272 59/240/273
f 59/241/274 61/242/275 62/243/276
f 64/244/277 62/245/278 61/246/279
f 61/247/280 63/248/281 64/249/282
f 66/250/283 64/251/284 63/252/285
f 63/253/286 65/254/287 66/255/288
f 68/256/289 66/257/290 65/258/291
f 65/259/292 67/260/293 68/261/294
f 70/262/295 68/263/296 67/264/297
f 67/265/298 69/266/299 70/267/300
f 72/268/301 70/269/302 69/270/303
f 69/271/304 71/272/305 72/273/306
f 74/274/307 72/275/308 71/276/309
f 71/277/310 73/278/311 74/279/312
f 76/280/313 74/281/314 73/282/315
f 73/283/316 75/284/317 76/285/318
f 78/286/319 76/287/320 75/288/321
f 75/289/322 77/290/323 78/291/324
f 80/292/325 78/293/326 77/294/327
f 77/295/328 79/296/329 80/297/330
f 50/298/331 80/299/332 79/300/333
f 79/301/334 49/302/335 50/303/336
g default
v 38.562560 2.000000 5.868968
v 38.562560 6.000000 5.868487
v 38.593154 2.001108 6.022577
v 38.593154 6.001108 6.022088
v 38.680159 2.002048 6.152798
v 38.680159 6.002048 6.152308
v 38.810363 2.002675 6.239808
v 38.810363 6.002675 6.239318
v 38.963958 2.002896 6.270358
v 38.963958 6.002895 6.269877
v 39.117553 2.002675 6.239808
v 39.117553 6.002675 6.239318
v 39.247756 2.002048 6.152798
v 39.247756 6.002048 6.152308
v 39.334853 2.001108 6.022577
v 39.334853 6.001108 6.022088
v 39.365355 2.000000 5.868968
v 39.365355 6.000000 5.868487
v 39.334853 1.998892 5.715367
v 39.334853 5.998892 5.714878
v 39.247756 1.997953 5.585148
v 39.247756 5.997952 5.584658
v 39.117553 1.997325 5.498138
v 39.117553 5.997325 5.497647
v 38.963958 1.997105 5.467578
v 38.963958 5.997105 5.467097
v 38.810363 1.997325 5.498138
v 38.810363 5.997325 5.497647
v 38.680159 1.997953 5.585148
v 38.680159 5.997952 5.584658
v 38.593154 1.998892 5.715367
v 38.593154 5.998892 5.714878
v 38.963958 2.000000 5.868968
v 38.963958 6.000000 5.868487
vt -3.000008 -0.052652
vt 0.000003 -0.052652
vt -2.771640 1.095401
vt -2.121315 2.068668
vt -1.148050 2.718991
vt -0.000003 2.947347
vt 1.148068 2.718987
vt 2.121318 2.068672
vt 2.771645 1.095404
vt 3.000015 -0.052652
vt 2.771646 -1.200695
vt 2.121320 -2.173965
vt 1.148056 -2.824287
vt 0.000009 -3.052643
vt -1.148061 -2.824283
vt -2.121311 -2.173969
vt -2.771637 -1.200700
vt 2.771640 1.307486
vt -0.000003 0.159433
vt 3.000008 0.159433
vt 2.121329 2.280722
vt 1.148090 2.931018
vt -0.000003 3.159393
vt -1.148062 2.931032
vt -2.121357 2.280699
vt -2.771658 1.307457
vt -3.000015 0.159433
vt -2.771646 -0.988657
vt -2.121323 -1.961922
vt -1.148035 -2.612267
vt -0.000006 -2.840615
vt 1.148058 -2.612255
vt 2.121290 -1.961948
vt 2.771640 -0.988657
vt 0.741589 22.350309
vt -0.428957 22.350309
vt -0.636926 -7.544334
vt 0.533620 -7.544334
vt 0.717786 22.357990
vt -0.452755 22.357990
vt -0.629062 -7.536860
vt 0.541478 -7.536860
vt 0.673836 22.363960
vt -0.496699 22.363960
vt -0.614505 -7.531173
vt 0.556029 -7.531174
vt 0.616363 22.367229
vt -0.554187 22.367229
vt -0.595554 -7.528107
vt 0.574996 -7.528106
vt 0.554193 22.367229
vt -0.616357 22.367229
vt -0.574990 -7.528106
vt 0.595560 -7.528107
vt 0.496704 22.363960
vt -0.673830 22.363960
vt -0.556024 -7.531174
vt 0.614511 -7.531173
vt 0.452758 22.357990
vt -0.717782 22.357990
vt -0.541474 -7.536860
vt 0.629066 -7.536860
vt 0.428958 22.350309
vt -0.741588 22.350309
vt -0.533618 -7.544334
vt 0.636927 -7.544334
vt 0.428922 22.342171
vt -0.741624 22.342171
vt -0.533654 -7.552478
vt 0.636892 -7.552477
vt 0.452718 22.334801
vt -0.717823 22.334801
vt -0.541515 -7.560050
vt 0.629026 -7.560050
vt 0.496718 22.329260
vt -0.673817 22.329260
vt -0.556010 -7.565877
vt 0.614524 -7.565878
vt 0.554164 22.326300
vt -0.616386 22.326300
vt -0.575018 -7.569044
vt 0.595531 -7.569043
vt 0.616380 22.326300
vt -0.554170 22.326300
vt -0.595537 -7.569043
vt 0.575012 -7.569044
vt 0.673811 22.329260
vt -0.496723 22.329260
vt -0.614530 -7.565878
vt 0.556005 -7.565877
vt 0.717819 22.334801
vt -0.452721 22.334801
vt -0.629029 -7.560050
vt 0.541511 -7.560050
vt 0.741622 22.342171
vt -0.428923 22.342171
vt -0.636893 -7.552477
vt 0.533653 -7.552478
vn 0.000000 -0.999974 0.007213
vn 0.000000 -0.999974 0.007213
vn 0.000000 -0.999974 0.007213
vn 0.000000 -0.999974 0.007214
vn 0.000000 -0.999974 0.007214
vn 0.000000 -0.999974 0.007214
vn 0.000000 -0.999974 0.007214
vn 0.000000 -0.999974 0.007214
vn 0.000000 -0.999974 0.007214
vn 0.000000 -0.999974 0.007214
vn 0.000000 -0.999974 0.007214
vn 0.000000 -0.999974 0.007214
vn 0.000000 -0.999974 0.007214
vn 0.000000 -0.999974 0.007214
vn 0.000000 -0.999974 0.007214
vn 0.000000 -0.999974 0.007214
vn 0.000000 -0.999974 0.007214
vn 0.000000 -0.999974 0.007214
vn 0.000000 -0.999974 0.007214
vn 0.000000 -0.999974 0.007214
vn 0.000000 -0.999974 0.007214
vn 0.000000 -0.999974 0.007214
vn 0.000000 -0.999974 0.007214
vn 0.000000 -0.999974 0.007214
vn 0.000000 -0.999974 0.007214
vn 0.000000 -0.999974 0.007214
vn 0.000000 -0.999974 0.007214
vn 0.000000 -0.999974 0.007214
vn 0.000000 -0.999974 0.007214
vn 0.000000 -0.999974 0.007214
vn 0.000000 -0.999974 0.007214
vn 0.000000 -0.999974 0.007214
vn 0.000000 -0.999974 0.007214
vn 0.000000 -0.999974 0.007214
vn 0.000000 -0.999974 0.007214
vn 0.000000 -0.999974 0.007214
vn 0.000000 -0.999974 0.007214
vn 0.000000 -0.999974 0.007214
vn 0.000000 -0.999974 0.007214
vn 0.000000 -0.999974 0.007214
vn 0.000000 -0.999974 0.007214
vn 0.000000 -0.999974 0.007214
vn 0.000000 -0.999974 0.007214
vn 0.000000 -0.999974 0.007214
vn 0.000000 -0.999974 0.007214
vn 0.000000 -0.999974 0.007214
vn 0.000000 -0.999974 0.007214
vn 0.000000 -0.999974 0.007214
vn 0.000000 0.999974 -0.007215
vn 0.000000 0.999974 -0.007215
vn 0.000000 0.999974 -0.007215
vn 0.000000 0.999974 -0.007215
vn 0.000000 0.999974 -0.007215
vn 0.000000 0.999974 -0.007215
vn 0.000000 0.999974 -0.007215
vn 0.000000 0.999974 -0.007215
vn 0.000000 0.999974 -0.007215
vn 0.000000 0.999974 -0.007215
vn 0.000000 0.999974 -0.007215
vn 0.000000 0.999974 -0.007215
vn 0.000000 0.999974 -0.007215
vn 0.000000 0.999974 -0.007215
vn 0.000000 0.999974 -0.007215
vn 0.000000 0.999974 -0.007215
vn 0.000000 0.999974 -0.007215
vn 0.000000 0.999974 -0.007215
vn 0.000000 0.999974 -0.007215
vn 0.000000 0.999974 -0.007215
vn 0.000000 0.999974 -0.007215
vn 0.000000 0.999974 -0.007215
vn 0.000000 0.999974 -0.007215
vn 0.000000 0.999974 -0.007215
vn 0.000000 0.999974 -0.007215
vn 0.000000 0.999974 -0.007215
vn 0.000000 0.999974 -0.007215
vn 0.000000 0.999974 -0.007215
vn 0.000000 0.999974 -0.007215
vn 0.000000 0.999974 -0.007215
vn 0.000000 0.999974 -0.007215
vn 0.000000 0.999974 -0.007215
vn 0.000000 0.999974 -0.007215
vn 0.000000 0.999974 -0.007215
vn 0.000000 0.999974 -0.007215
vn 0.000000 0.999974 -0.007215
vn 0.000000 0.999974 -0.007215
vn 0.000000 0.999974 -0.007215
vn 0.000000 0.999974 -0.007215
vn 0.000000 0.999974 -0.007215
vn 0.000000 0.999974 -0.007215
vn 0.000000 0.999974 -0.007215
vn 0.000000 0.999974 -0.007215
vn 0.000000 0.999974 -0.007215
vn 0.000000 0.999974 -0.007215
vn 0.000000 0.999974 -0.007215
vn 0.000000 0.999974 -0.007215
vn 0.000000 0.999974 -0.007215
vn -0.923874 0.000046 0.382696
vn -1.000000 0.000000 -0.000000
vn -1.000000 0.000000 -0.000000
vn -1.000000 0.000000 -0.000000
vn -0.923874 0.000046 0.382696
vn -0.923874 0.000046 0.382696
vn -0.707098 0.000085 0.707115
vn -0.923874 0.000046 0.382696
vn -0.923874 0.000046 0.382696
vn -0.923874 0.000046 0.382696
vn -0.707098 0.000085 0.707115
vn -0.707098 0.000085 0.707115
vn -0.382677 0.000111 0.923882
vn -0.707098 0.000085 0.707115
vn -0.707098 0.000085 0.707115
vn -0.707098 0.000085 0.707115
vn -0.382677 0.000111 0.923882
vn -0.382677 0.000111 0.923882
vn -0.000000 0.000121 1.000000
vn -0.382677 0.000111 0.923882
vn -0.382677 0.000111 0.923882
vn -0.382677 0.000111 0.923882
vn -0.000000 0.000121 1.000000
vn -0.000000 0.000121 1.000000
vn 0.382677 0.000111 0.923882
vn -0.000000 0.000121 1.000000
vn -0.000000 0.000121 1.000000
vn -0.000000 0.000121 1.000000
vn 0.382677 0.000111 0.923882
vn 0.382677 0.000111 0.923882
vn 0.707098 0.000085 0.707116
vn 0.382677 0.000111 0.923882
vn 0.382677 0.000111 0.923882
vn 0.382677 0.000111 0.923882
vn 0.707098 0.000085 0.707116
vn 0.707098 0.000085 0.707116
vn 0.923874 0.000046 0.382696
vn 0.707098 0.000085 0.707116
vn 0.707098 0.000085 0.707116
vn 0.707098 0.000085 0.707116
vn 0.923874 0.000046 0.382696
vn 0.923874 0.000046 0.382696
vn 1.000000 -0.000000 0.000000
vn 0.923874 0.000046 0.382696
vn 0.923874 0.000046 0.382696
vn 0.923874 0.000046 0.382696
vn 1.000000 -0.000000 0.000000
vn 1.000000 -0.000000 0.000000
vn 0.923874 -0.000046 -0.382696
vn 1.000000 -0.000000 0.000000
vn 1.000000 -0.000000 0.000000
vn 1.000000 -0.000000 0.000000
vn 0.923874 -0.000046 -0.382696
vn 0.923874 -0.000046 -0.382696
vn 0.707098 -0.000085 -0.707115
vn 0.923874 -0.000046 -0.382696
vn 0.923874 -0.000046 -0.382696
vn 0.923874 -0.000046 -0.382696
vn 0.707098 -0.000085 -0.707115
vn 0.707098 -0.000085 -0.707115
vn 0.382677 -0.000111 -0.923882
vn 0.707098 -0.000085 -0.707115
vn 0.707098 -0.000085 -0.707115
vn 0.707098 -0.000085 -0.707115
vn 0.382677 -0.000111 -0.923882
vn 0.382677 -0.000111 -0.923882
vn 0.000000 -0.000121 -1.000000
vn 0.382677 -0.000111 -0.923882
vn 0.382677 -0.000111 -0.923882
vn 0.382677 -0.000111 -0.923882
vn 0.000000 -0.000121 -1.000000
vn 0.000000 -0.000121 -1.000000
vn -0.382677 -0.000111 -0.923882
vn 0.000000 -0.000121 -1.000000
vn 0.000000 -0.000121 -1.000000
vn 0.000000 -0.000121 -1.000000
vn -0.382677 -0.000111 -0.923882
vn -0.382677 -0.000111 -0.923882
vn -0.707098 -0.000085 -0.707115
vn -0.382677 -0.000111 -0.923882
vn -0.382677 -0.000111 -0.923882
vn -0.382677 -0.000111 -0.923882
vn -0.707098 -0.000085 -0.707115
vn -0.707098 -0.000085 -0.707115
vn -0.923874 -0.000046 -0.382696
vn -0.707098 -0.000085 -0.707115
vn -0.707098 -0.000085 -0.707115
vn -0.707098 -0.000085 -0.707115
vn -0.923874 -0.000046 -0.382696
vn -0.923874 -0.000046 -0.382696
vn -1.000000 0.000000 -0.000000
vn -0.923874 -0.000046 -0.382696
vn -0.923874 -0.000046 -0.382696
vn -0.923874 -0.000046 -0.382696
vn -1.000000 0.000000 -0.000000
vn -1.000000 0.000000 -0.000000
s off
g Cylinder_1_
usemtl ProBuilderDefault
f 83/304/337 115/305/338 85/306/339
f 85/306/340 115/305/341 87/307/342
f 87/307/343 115/305/344 89/308/345
f 89/308/346 115/305/347 91/309/348
f 91/309/349 115/305/350 93/310/351
f 93/310/352 115/305/353 95/311/354
f 95/311/355 115/305/356 97/312/357
f 97/312/358 115/305/359 99/313/360
f 99/313/361 115/305/362 101/314/363
f 101/314/364 115/305/365 103/315/366
f 103/315/367 115/305/368 105/316/369
f 105/316/370 115/305/371 107/317/372
f 107/317/373 115/305/374 109/318/375
f 109/318/376 115/305/377 111/319/378
f 111/319/379 115/305/380 113/320/381
f 113/320/382 115/305/383 83/304/384
f 86/321/385 116/322/386 84/323/387
f 88/324/388 116/322/389 86/321/390
f 90/325/391 116/322/392 88/324/393
f 92/326/394 116/322/395 90/325/396
f 94/327/397 116/322/398 92/326/399
f 96/328/400 116/322/401 94/327/402
f 98/329/403 116/322/404 96/328/405
f 100/330/406 116/322/407 98/329/408
f 102/331/409 116/322/410 100/330/411
f 104/332/412 116/322/413 102/331/414
f 106/333/415 116/322/416 104/332/417
f 108/334/418 116/322/419 106/333/420
f 110/335/421 116/322/422 108/334/423
f 112/336/424 116/322/425 110/335/426
f 114/337/427 116/322/428 112/336/429
f 84/323/430 116/322/431 114/337/432
f 86/338/433 84/339/434 83/340/435
f 83/340/436 85/341/437 86/338/438
f 88/342/439 86/343/440 85/344/441
f 85/344/442 87/345/443 88/342/444
f 90/346/445 88/347/446 87/348/447
f 87/348/448 89/349/449 90/346/450
f 92/350/451 90/351/452 89/352/453
f 89/352/454 91/353/455 92/350/456
f 94/354/457 92/355/458 91/356/459
f 91/356/460 93/357/461 94/354/462
f 96/358/463 94/359/464 93/360/465
f 93/360/466 95/361/467 96/358/468
f 98/362/469 96/363/470 95/364/471
f 95/364/472 97/365/473 98/362/474
f 100/366/475 98/367/476 97/368/477
f 97/368/478 99/369/479 100/366/480
f 102/370/481 100/371/482 99/372/483
f 99/372/484 101/373/485 102/370/486
f 104/374/487 102/375/488 101/376/489
f 101/376/490 103/377/491 104/374/492
f 106/378/493 104/379/494 103/380/495
f 103/380/496 105/381/497 106/378/498
f 108/382/499 106/383/500 105/384/501
f 105/384/502 107/385/503 108/382/504
f 110/386/505 108/387/506 107/388/507
f 107/388/508 109/389/509 110/386/510
f 112/390/511 110/391/512 109/392/513
f 109/392/514 111/393/515 112/390/516
f 114/394/517 112/395/518 111/396/519
f 111/396/520 113/397/521 114/394/522
f 84/398/523 114/399/524 113/400/525
f 113/400/526 83/401/527 84/398/528
g default
v -25.034736 2.000000 14.246905
v -24.907329 2.000000 4.247706
v -25.034736 5.000000 14.246905
v -24.907329 5.000000 4.247706
v -17.907936 2.000000 4.336864
v -17.907936 5.000000 4.336864
v -18.035332 2.000000 14.336074
v -18.035332 5.000000 14.336074
vt 10.000000 1.000000
vt 0.000000 1.000000
vt 0.000000 -2.000000
vt 10.000000 -2.000000
vt 7.000000 1.000000
vt 7.000000 -2.000000
vt 0.000000 -6.000000
vt 10.000000 -6.000000
vt 0.000000 1.000000
vt 0.000000 -2.000000
vt 10.000000 1.000000
vt 0.000000 1.000000
vt 0.000000 -2.000000
vt 10.000000 -2.000000
vt 7.000000 1.000000
vt 0.000000 1.000000
vt 0.000000 -2.000000
vt 7.000000 -2.000000
vt 10.000000 1.000000
vt 0.000000 1.000000
vt 10.000000 1.000000
vt 0.000000 1.000000
vt 0.000000 -6.000000
vt 10.000000 -6.000000
vn -0.999919 0.000000 -0.012741
vn -0.999919 0.000000 -0.012741
vn -0.999919 0.000000 -0.012741
vn -0.999919 0.000000 -0.012741
vn 0.012741 0.000000 -0.999919
vn 0.012741 0.000000 -0.999919
vn 0.012741 0.000000 -0.999919
vn 0.012741 0.000000 -0.999919
vn 0.999919 0.000000 0.012741
vn 0.999919 0.000000 0.012741
vn 0.999919 0.000000 0.012741
vn 0.999919 0.000000 0.012741
vn -0.012741 0.000000 0.999919
vn -0.012741 0.000000 0.999919
vn -0.012741 0.000000 0.999919
vn -0.012741 0.000000 0.999919
vn 0.000000 1.000000 0.000000
vn 0.000000 1.000000 0.000000
vn 0.000000 1.000000 0.000000
vn 0.000000 1.000000 0.000000
vn 0.000000 -1.000000 0.000000
vn 0.000000 -1.000000 0.000000
vn 0.000000 -1.000000 0.000000
vn 0.000000 -1.000000 0.000000
s off
g Cube_3_ group1
usemtl ProBuilderDefault
f 119/402/529 120/403/530 118/404/531 117/405/532
f 120/406/533 122/410/534 121/411/535 118/407/536
f 122/412/537 124/413/538 123/414/539 121/415/540
f 124/416/541 119/417/542 117/418/543 123/419/544
f 124/408/545 122/409/546 120/420/547 119/421/548
f 117/422/549 118/423/550 121/424/551 123/425/552
g default
v -10.292129 17.790119 7.253698
v -10.292116 17.790119 2.582098
v -8.056532 20.709881 4.917898
v -8.056531 17.790119 4.917898
v -5.620545 17.790119 2.582098
v -5.620555 17.790119 7.253698
vt 2.828428 3.774917
vt 0.000000 0.000000
vt 5.656855 0.000000
vt -1.767768 1.060673
vt 1.060676 -1.767747
vt 1.000000 1.000000
vt 3.889100 1.060652
vt 1.060660 3.889067
vt 0.000000 0.000000
vt 5.656855 0.000000
vt 0.000000 0.000000
vt 5.656855 0.000000
vt 0.000000 0.000000
vt 5.656855 0.000000
vn -0.793988 0.607934 -0.000002
vn -0.793988 0.607934 -0.000002
vn -0.793988 0.607934 -0.000002
vn 0.000000 -1.000000 0.000000
vn 0.000000 -1.000000 0.000000
vn 0.000000 -1.000000 0.000000
vn -0.010461 0.999945 0.000000
vn 0.458845 0.756124 -0.466625
vn -0.477964 0.742017 -0.470066
vn 0.000000 -1.000000 0.000000
vn 0.000000 -1.000000 0.000000
vn 0.000000 -1.000000 0.000000
vn -0.010461 0.999945 0.000000
vn 0.458849 0.756120 0.466626
vn 0.458845 0.756124 -0.466625
vn 0.000000 -1.000000 0.000000
vn 0.000000 -1.000000 0.000000
vn 0.000000 -1.000000 0.000000
vn -0.010461 0.999945 0.000000
vn -0.477959 0.742019 0.470066
vn 0.458849 0.756120 0.466626
vn 0.000000 -1.000000 0.000000
vn 0.000000 -1.000000 0.000000
vn 0.000000 -1.000000 0.000000
s off
g Cone group2
usemtl ProBuilderDefault
f 127/426/553 126/427/554 125/428/555
f 125/429/556 126/430/557 128/431/558
f 127/426/559 129/434/560 126/435/561
f 126/430/562 129/432/563 128/431/564
f 127/426/565 130/436/566 129/437/567
f 129/432/568 130/433/569 128/431/570
f 127/426/571 125/438/572 130/439/573
f 130/433/574 125/429/575 128/431/576
g default
v -9.956129 2.000000 17.417898
v -9.956198 2.000000 6.917898
v -9.956129 8.000000 17.417898
v -9.956198 8.000000 6.917898
v -9.956186 2.000000 2.917898
v -5.956205 2.000000 2.917898
v -9.956186 8.000000 2.917898
v -5.956205 8.000000 2.917898
v -5.956215 2.000000 6.917898
v -5.956155 2.000000 17.417898
v -5.956215 8.000000 6.917898
v -5.956155 8.000000 17.417898
v -5.956205 18.000000 6.917898
v -9.956183 18.000000 6.917898
v -5.956195 18.000000 2.917898
v -9.956171 18.000000 2.917898
vt 10.500000 1.000000
vt 0.000000 1.000000
vt 0.000000 -5.000000
vt 10.500000 -5.000000
vt 3.999977 1.000000
vt 3.999977 -5.000000
vt 0.000007 -2.999985
vt 10.500010 -2.999984
vt 0.000000 0.999992
vt 10.500010 0.999992
vt 0.000000 -3.000012
vt 3.999999 -2.999984
vt 4.000005 1.000000
vt 4.000001 -5.000000
vt 4.000006 -3.000012
vt 4.000001 0.999965
vt 0.000000 -9.000000
vt 3.999984 -9.000000
vt 4.000001 -9.000000
vt 0.000000 1.000000
vt 0.000000 -5.000000
vt 10.500000 1.000000
vt 0.000000 1.000000
vt 0.000000 -5.000000
vt 10.500000 -5.000000
vt 3.999977 1.000000
vt 0.000000 1.000000
vt 0.000000 -5.000000
vt 3.999977 -5.000000
vt 10.500000 1.000000
vt 0.000000 1.000000
vt 0.000007 -2.999985
vt 10.500010 -2.999984
vt 0.000000 0.999992
vt 0.000000 1.000000
vt 0.000000 -5.000000
vt 4.000005 1.000000
vt 3.999977 -5.000000
vt 3.999977 1.000000
vt 0.000000 1.000000
vt 0.000000 -5.000000
vt 0.000000 1.000000
vt 0.000007 -2.999985
vt 3.999977 1.000000
vt 0.000000 1.000000
vt 4.000005 1.000000
vt 0.000000 1.000000
vt 0.000000 -9.000000
vt 3.999984 -9.000000
vt 4.000005 1.000000
vt 0.000000 1.000000
vt 0.000000 -9.000000
vt 3.999977 1.000000
vt 0.000000 1.000000
vt 0.000000 -9.000000
vt 3.999984 -9.000000
vn -1.000000 0.000000 0.000007
vn -1.000000 0.000000 0.000007
vn -1.000000 0.000000 0.000007
vn -1.000000 0.000000 0.000007
vn -0.000007 0.000000 -1.000000
vn -0.000007 0.000000 -1.000000
vn -0.000007 0.000000 -1.000000
vn -0.000007 0.000000 -1.000000
vn 1.000000 0.000000 -0.000006
vn 1.000000 0.000000 -0.000006
vn 1.000000 0.000000 -0.000006
vn 1.000000 0.000000 -0.000006
vn 0.000008 0.000000 1.000000
vn 0.000008 0.000000 1.000000
vn 0.000008 0.000000 1.000000
vn 0.000008 0.000000 1.000000
vn 0.000000 1.000000 0.000000
vn 0.000000 1.000000 0.000000
vn 0.000000 1.000000 0.000000
vn 0.000000 1.000000 0.000000
vn 0.000000 -1.000000 0.000000
vn 0.000000 -1.000000 0.000000
vn 0.000000 -1.000000 0.000000
vn 0.000000 -1.000000 0.000000
vn 0.000000 -1.000000 0.000000
vn 0.000000 -1.000000 0.000000
vn 0.000000 -1.000000 0.000000
vn 0.000000 -1.000000 0.000000
vn -1.000000 0.000000 0.000007
vn -1.000000 0.000000 0.000007
vn -1.000000 0.000000 0.000007
vn -1.000000 0.000000 0.000007
vn 1.000000 0.000000 -0.000006
vn 1.000000 0.000000 -0.000006
vn 1.000000 0.000000 -0.000006
vn 1.000000 0.000000 -0.000006
vn 0.000000 1.000000 0.000000
vn 0.000000 1.000000 0.000000
vn 0.000000 1.000000 0.000000
vn 0.000000 1.000000 0.000000
vn 0.000008 0.000000 1.000000
vn 0.000008 0.000000 1.000000
vn 0.000008 0.000000 1.000000
vn 0.000008 0.000000 1.000000
vn 1.000000 0.000000 -0.000006
vn 1.000000 0.000000 -0.000006
vn 1.000000 0.000000 -0.000006
vn 1.000000 0.000000 -0.000006
vn -1.000000 0.000000 0.000007
vn -1.000000 0.000000 0.000007
vn -1.000000 0.000000 0.000007
vn -1.000000 0.000000 0.000007
vn -0.000007 0.000000 -1.000000
vn -0.000007 0.000000 -1.000000
vn -0.000007 0.000000 -1.000000
vn -0.000007 0.000000 -1.000000
s off
g group2 Cube_18_
usemtl ProBuilderDefault
f 133/440/577 134/441/578 132/442/579 131/443/580
f 137/444/581 138/459/582 136/460/583 135/445/584
f 141/461/585 142/462/586 140/463/587 139/464/588
f 142/465/589 133/466/590 131/467/591 140/468/592
f 142/446/593 141/447/594 134/469/595 133/448/596
f 131/449/597 132/470/598 139/471/599 140/472/600
f 135/473/601 136/450/602 139/451/603 132/452/604
f 137/474/605 135/475/606 132/453/607 134/476/608
f 136/477/609 138/478/610 141/479/611 139/480/612
f 145/454/613 146/455/614 144/481/615 143/482/616
f 143/483/617 144/484/618 134/456/619 141/457/620
f 145/485/621 143/486/622 141/487/623 138/488/624
f 144/489/625 146/490/626 137/491/627 134/458/628
f 146/492/629 145/493/630 138/494/631 137/495/632
g default
v -23.397914 2.000000 3.516863
v -23.391508 2.000000 3.016944
v -23.397914 5.000000 3.516863
v -23.391508 5.000000 3.016944
v -22.891588 2.000000 3.023280
v -22.891588 5.000000 3.023280
v -22.897930 2.000000 3.523265
v -22.897930 5.000000 3.523265
vt 0.500000 1.000000
vt 0.000000 1.000000
vt 0.000000 -2.000000
vt 0.500000 -2.000000
vt 0.000000 0.500000
vt 0.500000 0.500000
vt 0.500000 1.000000
vt 0.000000 1.000000
vt 0.000000 -2.000000
vt 0.500000 -2.000000
vt 0.500000 1.000000
vt 0.000000 1.000000
vt 0.000000 -2.000000
vt 0.500000 -2.000000
vt 0.500000 1.000000
vt 0.000000 1.000000
vt 0.000000 -2.000000
vt 0.500000 -2.000000
vt 0.500000 1.000000
vt 0.000000 1.000000
vt 0.500000 1.000000
vt 0.000000 1.000000
vt 0.000000 0.500000
vt 0.500000 0.500000
vn -0.999918 0.000000 -0.012815
vn -0.999918 0.000000 -0.012815
vn -0.999918 0.000000 -0.012815
vn -0.999918 0.000000 -0.012815
vn 0.012741 0.000000 -0.999919
vn 0.012741 0.000000 -0.999919
vn 0.012741 0.000000 -0.999919
vn 0.012741 0.000000 -0.999919
vn 0.999919 0.000000 0.012741
vn 0.999919 0.000000 0.012741
vn 0.999919 0.000000 0.012741
vn 0.999919 0.000000 0.012741
vn -0.012741 0.000000 0.999919
vn -0.012741 0.000000 0.999919
vn -0.012741 0.000000 0.999919
vn -0.012741 0.000000 0.999919
vn 0.000000 1.000000 0.000000
vn 0.000000 1.000000 0.000000
vn 0.000000 1.000000 0.000000
vn 0.000000 1.000000 0.000000
vn 0.000000 -1.000000 0.000000
vn 0.000000 -1.000000 0.000000
vn 0.000000 -1.000000 0.000000
vn 0.000000 -1.000000 0.000000
s off
g group1 Cube_15_
usemtl ProBuilderDefault
f 149/496/633 150/497/634 148/498/635 147/499/636
f 150/502/637 152/503/638 151/504/639 148/505/640
f 152/506/641 154/507/642 153/508/643 151/509/644
f 154/510/645 149/511/646 147/512/647 153/513/648
f 154/500/649 152/501/650 150/514/651 149/515/652
f 147/516/653 148/517/654 151/518/655 153/519/656
g default
v -17.484419 2.000000 10.342753
v -17.478013 2.000000 9.842834
v -17.484419 5.000000 10.342753
v -17.478013 5.000000 9.842834
v -16.978086 2.000000 9.849163
v -16.978086 5.000000 9.849163
v -16.984427 2.000000 10.349146
v -16.984427 5.000000 10.349146
vt 0.500000 1.000000
vt 0.000000 1.000000
vt 0.000000 -2.000000
vt 0.500000 -2.000000
vt 0.000000 0.500000
vt 0.500000 0.500000
vt 0.500000 1.000000
vt 0.000000 1.000000
vt 0.000000 -2.000000
vt 0.500000 -2.000000
vt 0.500000 1.000000
vt 0.000000 1.000000
vt 0.000000 -2.000000
vt 0.500000 -2.000000
vt 0.500000 1.000000
vt 0.000000 1.000000
vt 0.000000 -2.000000
vt 0.500000 -2.000000
vt 0.500000 1.000000
vt 0.000000 1.000000
vt 0.500000 1.000000
vt 0.000000 1.000000
vt 0.000000 0.500000
vt 0.500000 0.500000
vn -0.999918 0.000000 -0.012815
vn -0.999918 0.000000 -0.012815
vn -0.999918 0.000000 -0.012815
vn -0.999918 0.000000 -0.012815
vn 0.012741 0.000000 -0.999919
vn 0.012741 0.000000 -0.999919
vn 0.012741 0.000000 -0.999919
vn 0.012741 0.000000 -0.999919
vn 0.999919 0.000000 0.012741
vn 0.999919 0.000000 0.012741
vn 0.999919 0.000000 0.012741
vn 0.999919 0.000000 0.012741
vn -0.012741 0.000000 0.999919
vn -0.012741 0.000000 0.999919
vn -0.012741 0.000000 0.999919
vn -0.012741 0.000000 0.999919
vn 0.000000 1.000000 0.000000
vn 0.000000 1.000000 0.000000
vn 0.000000 1.000000 0.000000
vn 0.000000 1.000000 0.000000
vn 0.000000 -1.000000 0.000000
vn 0.000000 -1.000000 0.000000
vn 0.000000 -1.000000 0.000000
vn 0.000000 -1.000000 0.000000
s off
g group1 Cube_13_
usemtl ProBuilderDefault
f 157/520/657 158/521/658 156/522/659 155/523/660
f 158/526/661 160/527/662 159/528/663 156/529/664
f 160/530/665 162/531/666 161/532/667 159/533/668
f 162/534/669 157/535/670 155/536/671 161/537/672
f 162/524/673 160/525/674 158/538/675 157/539/676
f 155/540/677 156/541/678 159/542/679 161/543/680
g default
v -25.983656 2.000000 10.234518
v -25.977324 2.000000 9.734522
v -25.983656 5.000000 10.234518
v -25.977324 5.000000 9.734522
v -25.477330 2.000000 9.740935
v -25.477330 5.000000 9.740935
v -25.483736 2.000000 10.240854
v -25.483736 5.000000 10.240854
vt 0.500000 1.000000
vt 0.000000 1.000000
vt 0.000000 -2.000000
vt 0.500000 -2.000000
vt 0.000000 0.500000
vt 0.500000 0.500000
vt 0.500000 1.000000
vt 0.000000 1.000000
vt 0.000000 -2.000000
vt 0.500000 -2.000000
vt 0.500000 1.000000
vt 0.000000 1.000000
vt 0.000000 -2.000000
vt 0.500000 -2.000000
vt 0.500000 1.000000
vt 0.000000 1.000000
vt 0.000000 -2.000000
vt 0.500000 -2.000000
vt 0.500000 1.000000
vt 0.000000 1.000000
vt 0.500000 1.000000
vt 0.000000 1.000000
vt 0.000000 0.500000
vt 0.500000 0.500000
vn -0.999920 0.000000 -0.012664
vn -0.999920 0.000000 -0.012664
vn -0.999920 0.000000 -0.012664
vn -0.999920 0.000000 -0.012664
vn 0.012741 0.000000 -0.999919
vn 0.012741 0.000000 -0.999919
vn 0.012741 0.000000 -0.999919
vn 0.012741 0.000000 -0.999919
vn 0.999919 0.000000 0.012741
vn 0.999919 0.000000 0.012741
vn 0.999919 0.000000 0.012741
vn 0.999919 0.000000 0.012741
vn -0.012741 0.000000 0.999919
vn -0.012741 0.000000 0.999919
vn -0.012741 0.000000 0.999919
vn -0.012741 0.000000 0.999919
vn 0.000000 1.000000 0.000000
vn 0.000000 1.000000 0.000000
vn 0.000000 1.000000 0.000000
vn 0.000000 1.000000 0.000000
vn 0.000000 -1.000000 0.000000
vn 0.000000 -1.000000 0.000000
vn 0.000000 -1.000000 0.000000
vn 0.000000 -1.000000 0.000000
s off
g group1 Cube_10_
usemtl ProBuilderDefault
f 165/544/681 166/545/682 164/546/683 163/547/684
f 166/550/685 168/551/686 167/552/687 164/553/688
f 168/554/689 170/555/690 169/556/691 167/557/692
f 170/558/693 165/559/694 163/560/695 169/561/696
f 170/548/697 168/549/698 166/562/699 165/563/700
f 163/564/701 164/565/702 167/566/703 169/567/704
g default
v -19.898182 2.000000 3.561484
v -19.891844 2.000000 3.061482
v -19.898182 5.000000 3.561484
v -19.891844 5.000000 3.061482
v -19.391850 2.000000 3.067894
v -19.391850 5.000000 3.067894
v -19.398192 2.000000 3.567878
v -19.398192 5.000000 3.567878
vt 0.500000 1.000000
vt 0.000000 1.000000
vt 0.000000 -2.000000
vt 0.500000 -2.000000
vt 0.000000 0.500000
vt 0.500000 0.500000
vt 0.500000 1.000000
vt 0.000000 1.000000
vt 0.000000 -2.000000
vt 0.500000 -2.000000
vt 0.500000 1.000000
vt 0.000000 1.000000
vt 0.000000 -2.000000
vt 0.500000 -2.000000
vt 0.500000 1.000000
vt 0.000000 1.000000
vt 0.000000 -2.000000
vt 0.500000 -2.000000
vt 0.500000 1.000000
vt 0.000000 1.000000
vt 0.500000 1.000000
vt 0.000000 1.000000
vt 0.000000 0.500000
vt 0.500000 0.500000
vn -0.999920 0.000000 -0.012675
vn -0.999920 0.000000 -0.012675
vn -0.999920 0.000000 -0.012675
vn -0.999920 0.000000 -0.012675
vn 0.012741 0.000000 -0.999919
vn 0.012741 0.000000 -0.999919
vn 0.012741 0.000000 -0.999919
vn 0.012741 0.000000 -0.999919
vn 0.999919 0.000000 0.012741
vn 0.999919 0.000000 0.012741
vn 0.999919 0.000000 0.012741
vn 0.999919 0.000000 0.012741
vn -0.012741 0.000000 0.999919
vn -0.012741 0.000000 0.999919
vn -0.012741 0.000000 0.999919
vn -0.012741 0.000000 0.999919
vn 0.000000 1.000000 0.000000
vn 0.000000 1.000000 0.000000
vn 0.000000 1.000000 0.000000
vn 0.000000 1.000000 0.000000
vn 0.000000 -1.000000 0.000000
vn 0.000000 -1.000000 0.000000
vn 0.000000 -1.000000 0.000000
vn 0.000000 -1.000000 0.000000
s off
g group1 Cube_16_
usemtl ProBuilderDefault
f 173/568/705 174/569/706 172/570/707 171/571/708
f 174/574/709 176/575/710 175/576/711 172/577/712
f 176/578/713 178/579/714 177/580/715 175/581/716
f 178/582/717 173/583/718 171/584/719 177/585/720
f 178/572/721 176/573/722 174/586/723 173/587/724
f 171/588/725 172/589/726 175/590/727 177/591/728
g default
v -24.971070 5.000000 9.247267
v -24.958322 5.000000 8.247363
v -24.971070 10.500000 9.247267
v -24.958322 10.500000 8.247363
v -23.958413 5.000000 8.260095
v -23.958413 10.500000 8.260095
v -23.971150 5.000000 9.260010
v -23.971150 10.500000 9.260010
vt 1.000000 1.000000
vt 0.000000 1.000000
vt 0.000000 -4.500000
vt 1.000000 -4.500000
vt 0.000000 0.000000
vt 1.000000 0.000000
vt 1.000000 1.000000
vt 0.000000 1.000000
vt 0.000000 -4.500000
vt 1.000000 -4.500000
vt 1.000000 1.000000
vt 0.000000 1.000000
vt 0.000000 -4.500000
vt 1.000000 -4.500000
vt 1.000000 1.000000
vt 0.000000 1.000000
vt 0.000000 -4.500000
vt 1.000000 -4.500000
vt 1.000000 1.000000
vt 0.000000 1.000000
vt 1.000000 1.000000
vt 0.000000 1.000000
vt 0.000000 0.000000
vt 1.000000 0.000000
vn -0.999919 0.000000 -0.012749
vn -0.999919 0.000000 -0.012749
vn -0.999919 0.000000 -0.012749
vn -0.999919 0.000000 -0.012749
vn 0.012741 0.000000 -0.999919
vn 0.012741 0.000000 -0.999919
vn 0.012741 0.000000 -0.999919
vn 0.012741 0.000000 -0.999919
vn 0.999919 0.000000 0.012741
vn 0.999919 0.000000 0.012741
vn 0.999919 0.000000 0.012741
vn 0.999919 0.000000 0.012741
vn -0.012741 0.000000 0.999919
vn -0.012741 0.000000 0.999919
vn -0.012741 0.000000 0.999919
vn -0.012741 0.000000 0.999919
vn 0.000000 1.000000 0.000000
vn 0.000000 1.000000 0.000000
vn 0.000000 1.000000 0.000000
vn 0.000000 1.000000 0.000000
vn 0.000000 -1.000000 0.000000
vn 0.000000 -1.000000 0.000000
vn 0.000000 -1.000000 0.000000
vn 0.000000 -1.000000 0.000000
s off
g group1 Cube_17_
usemtl ProBuilderDefault
f 181/592/729 182/593/730 180/594/731 179/595/732
f 182/598/733 184/599/734 183/600/735 180/601/736
f 184/602/737 186/603/738 185/604/739 183/605/740
f 186/606/741 181/607/742 179/608/743 185/609/744
f 186/596/745 184/597/746 182/610/747 181/611/748
f 179/612/749 180/613/750 183/614/751 185/615/752
g default
v -26.066484 2.000000 16.733986
v -26.060142 2.000000 16.234002
v -26.066484 5.000000 16.733986
v -26.060142 5.000000 16.234002
v -25.560158 2.000000 16.240403
v -25.560158 5.000000 16.240403
v -25.566564 2.000000 16.740322
v -25.566564 5.000000 16.740322
vt 0.500000 1.000000
vt 0.000000 1.000000
vt 0.000000 -2.000000
vt 0.500000 -2.000000
vt 0.000000 0.500000
vt 0.500000 0.500000
vt 0.500000 1.000000
vt 0.000000 1.000000
vt 0.000000 -2.000000
vt 0.500000 -2.000000
vt 0.500000 1.000000
vt 0.000000 1.000000
vt 0.000000 -2.000000
vt 0.500000 -2.000000
vt 0.500000 1.000000
vt 0.000000 1.000000
vt 0.000000 -2.000000
vt 0.500000 -2.000000
vt 0.500000 1.000000
vt 0.000000 1.000000
vt 0.500000 1.000000
vt 0.000000 1.000000
vt 0.000000 0.500000
vt 0.500000 0.500000
vn -0.999920 0.000000 -0.012685
vn -0.999920 0.000000 -0.012685
vn -0.999920 0.000000 -0.012685
vn -0.999920 0.000000 -0.012685
vn 0.012741 0.000000 -0.999919
vn 0.012741 0.000000 -0.999919
vn 0.012741 0.000000 -0.999919
vn 0.012741 0.000000 -0.999919
vn 0.999919 0.000000 0.012741
vn 0.999919 0.000000 0.012741
vn 0.999919 0.000000 0.012741
vn 0.999919 0.000000 0.012741
vn -0.012741 0.000000 0.999919
vn -0.012741 0.000000 0.999919
vn -0.012741 0.000000 0.999919
vn -0.012741 0.000000 0.999919
vn 0.000000 1.000000 0.000000
vn 0.000000 1.000000 0.000000
vn 0.000000 1.000000 0.000000
vn 0.000000 1.000000 0.000000
vn 0.000000 -1.000000 0.000000
vn 0.000000 -1.000000 0.000000
vn 0.000000 -1.000000 0.000000
vn 0.000000 -1.000000 0.000000
s off
g group1 Cube_5_
usemtl ProBuilderDefault
f 189/616/753 190/617/754 188/618/755 187/619/756
f 190/622/757 192/623/758 191/624/759 188/625/760
f 192/626/761 194/627/762 193/628/763 191/629/764
f 194/630/765 189/631/766 187/632/767 193/633/768
f 194/620/769 192/621/770 190/634/771 189/635/772
f 187/636/773 188/637/774 191/638/775 193/639/776
g default
v -17.567165 2.000000 16.842290
v -17.560823 2.000000 16.342305
v -17.567165 5.000000 16.842290
v -17.560823 5.000000 16.342305
v -17.060839 2.000000 16.348706
v -17.060839 5.000000 16.348706
v -17.067245 2.000000 16.848625
v -17.067245 5.000000 16.848625
vt 0.500000 1.000000
vt 0.000000 1.000000
vt 0.000000 -2.000000
vt 0.500000 -2.000000
vt 0.000000 0.500000
vt 0.500000 0.500000
vt 0.500000 1.000000
vt 0.000000 1.000000
vt 0.000000 -2.000000
vt 0.500000 -2.000000
vt 0.500000 1.000000
vt 0.000000 1.000000
vt 0.000000 -2.000000
vt 0.500000 -2.000000
vt 0.500000 1.000000
vt 0.000000 1.000000
vt 0.000000 -2.000000
vt 0.500000 -2.000000
vt 0.500000 1.000000
vt 0.000000 1.000000
vt 0.500000 1.000000
vt 0.000000 1.000000
vt 0.000000 0.500000
vt 0.500000 0.500000
vn -0.999920 0.000000 -0.012685
vn -0.999920 0.000000 -0.012685
vn -0.999920 0.000000 -0.012685
vn -0.999920 0.000000 -0.012685
vn 0.012741 0.000000 -0.999919
vn 0.012741 0.000000 -0.999919
vn 0.012741 0.000000 -0.999919
vn 0.012741 0.000000 -0.999919
vn 0.999919 0.000000 0.012741
vn 0.999919 0.000000 0.012741
vn 0.999919 0.000000 0.012741
vn 0.999919 0.000000 0.012741
vn -0.012741 0.000000 0.999919
vn -0.012741 0.000000 0.999919
vn -0.012741 0.000000 0.999919
vn -0.012741 0.000000 0.999919
vn 0.000000 1.000000 0.000000
vn 0.000000 1.000000 0.000000
vn 0.000000 1.000000 0.000000
vn 0.000000 1.000000 0.000000
vn 0.000000 -1.000000 0.000000
vn 0.000000 -1.000000 0.000000
vn 0.000000 -1.000000 0.000000
vn 0.000000 -1.000000 0.000000
s off
g group1 Cube_6_
usemtl ProBuilderDefault
f 197/640/777 198/641/778 196/642/779 195/643/780
f 198/646/781 200/647/782 199/648/783 196/649/784
f 200/650/785 202/651/786 201/652/787 199/653/788
f 202/654/789 197/655/790 195/656/791 201/657/792
f 202/644/793 200/645/794 198/658/795 197/659/796
f 195/660/797 196/661/798 199/662/799 201/663/800
g default
v -17.398365 2.000000 3.593356
v -17.392016 2.000000 3.093365
v -17.398365 5.000000 3.593356
v -17.392016 5.000000 3.093365
v -16.892033 2.000000 3.099766
v -16.892033 5.000000 3.099766
v -16.898439 2.000000 3.599685
v -16.898439 5.000000 3.599685
vt 0.500000 1.000000
vt 0.000000 1.000000
vt 0.000000 -2.000000
vt 0.500000 -2.000000
vt 0.000000 0.500000
vt 0.500000 0.500000
vt 0.500000 1.000000
vt 0.000000 1.000000
vt 0.000000 -2.000000
vt 0.500000 -2.000000
vt 0.500000 1.000000
vt 0.000000 1.000000
vt 0.000000 -2.000000
vt 0.500000 -2.000000
vt 0.500000 1.000000
vt 0.000000 1.000000
vt 0.000000 -2.000000
vt 0.500000 -2.000000
vt 0.500000 1.000000
vt 0.000000 1.000000
vt 0.500000 1.000000
vt 0.000000 1.000000
vt 0.000000 0.500000
vt 0.500000 0.500000
vn -0.999919 0.000000 -0.012700
vn -0.999919 0.000000 -0.012700
vn -0.999919 0.000000 -0.012700
vn -0.999919 0.000000 -0.012700
vn 0.012741 0.000000 -0.999919
vn 0.012741 0.000000 -0.999919
vn 0.012741 0.000000 -0.999919
vn 0.012741 0.000000 -0.999919
vn 0.999919 0.000000 0.012741
vn 0.999919 0.000000 0.012741
vn 0.999919 0.000000 0.012741
vn 0.999919 0.000000 0.012741
vn -0.012741 0.000000 0.999919
vn -0.012741 0.000000 0.999919
vn -0.012741 0.000000 0.999919
vn -0.012741 0.000000 0.999919
vn 0.000000 1.000000 0.000000
vn 0.000000 1.000000 0.000000
vn 0.000000 1.000000 0.000000
vn 0.000000 1.000000 0.000000
vn 0.000000 -1.000000 0.000000
vn 0.000000 -1.000000 0.000000
vn 0.000000 -1.000000 0.000000
vn 0.000000 -1.000000 0.000000
s off
g group1 Cube_12_
usemtl ProBuilderDefault
f 205/664/801 206/665/802 204/666/803 203/667/804
f 206/670/805 208/671/806 207/672/807 204/673/808
f 208/674/809 210/675/810 209/676/811 207/677/812
f 210/678/813 205/679/814 203/680/815 209/681/816
f 210/668/817 208/669/818 206/682/819 205/683/820
f 203/684/821 204/685/822 207/686/823 209/687/824
g default
v -25.897666 2.000000 3.485055
v -25.891334 2.000000 2.985060
v -25.897666 5.000000 3.485055
v -25.891334 5.000000 2.985060
v -25.391340 2.000000 2.991472
v -25.391340 5.000000 2.991472
v -25.397746 2.000000 3.491391
v -25.397746 5.000000 3.491391
vt 0.500000 1.000000
vt 0.000000 1.000000
vt 0.000000 -2.000000
vt 0.500000 -2.000000
vt 0.000000 0.500000
vt 0.500000 0.500000
vt 0.500000 1.000000
vt 0.000000 1.000000
vt 0.000000 -2.000000
vt 0.500000 -2.000000
vt 0.500000 1.000000
vt 0.000000 1.000000
vt 0.000000 -2.000000
vt 0.500000 -2.000000
vt 0.500000 1.000000
vt 0.000000 1.000000
vt 0.000000 -2.000000
vt 0.500000 -2.000000
vt 0.500000 1.000000
vt 0.000000 1.000000
vt 0.500000 1.000000
vt 0.000000 1.000000
vt 0.000000 0.500000
vt 0.500000 0.500000
vn -0.999920 0.000000 -0.012660
vn -0.999920 0.000000 -0.012660
vn -0.999920 0.000000 -0.012660
vn -0.999920 0.000000 -0.012660
vn 0.012741 0.000000 -0.999919
vn 0.012741 0.000000 -0.999919
vn 0.012741 0.000000 -0.999919
vn 0.012741 0.000000 -0.999919
vn 0.999919 0.000000 0.012741
vn 0.999919 0.000000 0.012741
vn 0.999919 0.000000 0.012741
vn 0.999919 0.000000 0.012741
vn -0.012741 0.000000 0.999919
vn -0.012741 0.000000 0.999919
vn -0.012741 0.000000 0.999919
vn -0.012741 0.000000 0.999919
vn 0.000000 1.000000 0.000000
vn 0.000000 1.000000 0.000000
vn 0.000000 1.000000 0.000000
vn 0.000000 1.000000 0.000000
vn 0.000000 -1.000000 0.000000
vn 0.000000 -1.000000 0.000000
vn 0.000000 -1.000000 0.000000
vn 0.000000 -1.000000 0.000000
s off
g group1 Cube_9_
usemtl ProBuilderDefault
f 213/688/825 214/689/826 212/690/827 211/691/828
f 214/694/829 216/695/830 215/696/831 212/697/832
f 216/698/833 218/699/834 217/700/835 215/701/836
f 218/702/837 213/703/838 211/704/839 217/705/840
f 218/692/841 216/693/842 214/706/843 213/707/844
f 211/708/845 212/709/846 215/710/847 217/711/848
g default
v -25.881731 5.000000 2.235113
v -16.882450 5.000000 2.349839
v -21.382085 7.000000 2.292481
v -17.067258 5.000000 16.848639
v -21.566906 7.000000 16.791272
v -26.066476 5.000000 16.733978
vt -0.500003 1.500000
vt -4.999992 -0.500000
vt 3.999987 -0.500000
vt 0.500020 1.500000
vt -3.999969 -0.500000
vt 5.000008 -0.500000
vt 0.152297 -9.000006
vt 0.152285 5.500007
vt -4.772133 5.500007
vt -4.772122 -9.000004
vt -1.066132 5.500006
vt -1.066121 -9.000007
vt 3.858299 -9.000009
vt 3.858286 5.500006
vt 4.999996 -9.000005
vt 5.000008 5.500006
vt -3.999969 5.500006
vt -3.999984 -9.000009
vn 0.012747 -0.000007 -0.999919
vn 0.012747 -0.000007 -0.999919
vn 0.012747 -0.000007 -0.999919
vn -0.012744 0.000000 0.999919
vn -0.012744 0.000000 0.999919
vn -0.012744 0.000000 0.999919
vn 0.406106 0.913811 0.005176
vn 0.406106 0.913811 0.005176
vn 0.406106 0.913811 0.005176
vn 0.406106 0.913811 0.005176
vn 0.406106 0.913811 0.005176
vn 0.406106 0.913811 0.005176
vn -0.406106 0.913811 -0.005176
vn -0.406106 0.913811 -0.005176
vn -0.406106 0.913811 -0.005176
vn -0.406106 0.913811 -0.005176
vn -0.406106 0.913811 -0.005176
vn -0.406106 0.913811 -0.005176
vn 0.000000 -1.000000 0.000000
vn 0.000000 -1.000000 0.000000
vn 0.000000 -1.000000 0.000000
vn 0.000000 -1.000000 0.000000
vn 0.000000 -1.000000 0.000000
vn 0.000000 -1.000000 0.000000
s off
g group1 Prism_2_
usemtl ProBuilderDefault
f 221/712/849 220/713/850 219/714/851
f 223/715/852 224/716/853 222/717/854
f 221/718/855 223/719/856 222/720/857
f 222/720/858 220/721/859 221/718/860
f 223/722/861 221/723/862 219/724/863
f 219/724/864 224/725/865 223/722/866
f 220/726/867 222/727/868 224/728/869
f 224/728/870 219/729/871 220/726/872
g default
v -24.920050 8.000000 5.247583
v -18.420593 8.000000 5.330443
v -21.670316 10.000000 5.289018
v -18.522504 8.000000 13.329835
v -21.772238 10.000000 13.288399
v -25.021953 8.000000 13.246966
vt -0.499997 1.500011
vt -3.749975 -0.499989
vt 2.749981 -0.499989
vt 0.500009 1.500000
vt -2.749969 -0.500000
vt 3.749986 -0.500000
vt 0.360321 -5.999990
vt 0.360315 2.000011
vt -3.455750 2.000011
vt -3.455744 -5.999984
vt -1.211986 2.000010
vt -1.211979 -5.999991
vt 2.604087 -5.999989
vt 2.604079 2.000010
vt 3.749979 -5.999985
vt 3.749986 2.000010
vt -2.749969 2.000010
vt -2.749977 -5.999989
vn 0.012748 0.000000 -0.999919
vn 0.012748 0.000000 -0.999919
vn 0.012748 0.000000 -0.999919
vn -0.012744 0.000000 0.999919
vn -0.012744 0.000000 0.999919
vn -0.012744 0.000000 0.999919
vn 0.524058 0.851657 0.006679
vn 0.524058 0.851657 0.006679
vn 0.524058 0.851657 0.006679
vn 0.524058 0.851657 0.006679
vn 0.524058 0.851657 0.006679
vn 0.524058 0.851657 0.006679
vn -0.524058 0.851657 -0.006679
vn -0.524058 0.851657 -0.006679
vn -0.524058 0.851657 -0.006679
vn -0.524058 0.851657 -0.006679
vn -0.524058 0.851657 -0.006679
vn -0.524058 0.851657 -0.006679
vn 0.000000 -1.000000 0.000000
vn 0.000000 -1.000000 0.000000
vn 0.000000 -1.000000 0.000000
vn 0.000000 -1.000000 0.000000
vn 0.000000 -1.000000 0.000000
vn 0.000000 -1.000000 0.000000
s off
g group1 Prism_3_
usemtl ProBuilderDefault
f 227/730/873 226/731/874 225/732/875
f 229/733/876 230/734/877 228/735/878
f 227/736/879 229/737/880 228/738/881
f 228/738/882 226/739/883 227/736/884
f 229/740/885 227/741/886 225/742/887
f 225/742/888 230/743/889 229/740/890
f 226/744/891 228/745/892 230/746/893
f 230/746/894 225/747/895 226/744/896
g default
v 7.152223 2.500000 3.130837
v 13.152169 2.500000 8.630844
v 7.152223 2.750000 3.130837
v 13.152169 2.750000 8.630844
v 13.152155 2.500000 14.130850
v -2.847806 2.500000 14.130802
v 13.152155 2.750000 14.130850
v -2.847806 2.750000 14.130802
v -2.847807 2.500000 8.630794
v 3.152237 2.500000 3.130823
v -2.847807 2.750000 8.630794
v 3.152237 2.750000 3.130823
vt 8.139410 1.000000
vt 0.000000 1.000000
vt 0.000000 0.750000
vt 8.139410 0.750000
vt 16.000000 1.000000
vt 16.000000 0.750000
vt 4.000000 1.000000
vt 4.000000 0.750000
vt 0.000000 -9.000000
vt 5.500000 -15.000000
vt 5.500000 1.000000
vt 0.000000 -5.000000
vt 5.500000 -5.000000
vt 0.000000 -15.000000
vt 5.500000 -9.000000
vt 5.500000 0.750000
vt 0.000000 1.000000
vt 0.000000 0.750000
vt 8.139410 1.000000
vt 0.000000 1.000000
vt 0.000000 0.750000
vt 8.139410 0.750000
vt 0.000000 1.000000
vt 0.000000 0.750000
vt 0.000000 1.000000
vt 0.000000 1.000000
vt 0.000000 -15.000000
vt 5.500000 -15.000000
vt 5.500000 1.000000
vt 0.000000 1.000000
vt 0.000000 0.750000
vt 5.500000 0.750000
vt 5.500000 1.000000
vt 0.000000 1.000000
vt 0.000000 0.750000
vt 5.500000 -15.000000
vt 5.500000 1.000000
vt 0.000000 -15.000000
vn 0.675728 0.000000 -0.737151
vn 0.675728 0.000000 -0.737151
vn 0.675728 0.000000 -0.737151
vn 0.675728 0.000000 -0.737151
vn -0.000004 0.000000 1.000000
vn -0.000004 0.000000 1.000000
vn -0.000004 0.000000 1.000000
vn -0.000004 0.000000 1.000000
vn -0.675722 0.000000 -0.737157
vn -0.675722 0.000000 -0.737157
vn -0.675722 0.000000 -0.737157
vn -0.675722 0.000000 -0.737157
vn 0.000004 0.000000 -1.000000
vn 0.000004 0.000000 -1.000000
vn 0.000004 0.000000 -1.000000
vn 0.000004 0.000000 -1.000000
vn 0.000000 1.000000 0.000000
vn 0.000000 1.000000 0.000000
vn 0.000000 1.000000 0.000000
vn 0.000000 1.000000 0.000000
vn 0.000000 -1.000000 0.000000
vn 0.000000 -1.000000 0.000000
vn 0.000000 -1.000000 0.000000
vn 0.000000 -1.000000 0.000000
vn 0.000000 -1.000000 0.000000
vn 0.000000 -1.000000 0.000000
vn 0.000000 -1.000000 0.000000
vn 0.000000 -1.000000 0.000000
vn 1.000000 0.000000 0.000004
vn 1.000000 0.000000 0.000004
vn 1.000000 0.000000 0.000004
vn 1.000000 0.000000 0.000004
vn -1.000000 0.000000 -0.000004
vn -1.000000 0.000000 -0.000004
vn -1.000000 0.000000 -0.000004
vn -1.000000 0.000000 -0.000004
vn 0.000000 1.000000 0.000000
vn 0.000000 1.000000 0.000000
vn 0.000000 1.000000 0.000000
vn 0.000000 1.000000 0.000000
s off
g Cube_20_ group3
usemtl ProBuilderDefault
f 233/748/897 234/749/898 232/750/899 231/751/900
f 237/752/901 238/764/902 236/765/903 235/753/904
f 241/766/905 242/767/906 240/768/907 239/769/908
f 242/754/909 233/770/910 231/771/911 240/755/912
f 242/756/913 241/757/914 234/758/915 233/759/916
f 231/760/917 232/772/918 239/761/919 240/762/920
f 235/773/921 236/774/922 239/775/923 232/776/924
f 237/777/925 235/778/926 232/763/927 234/758/928
f 236/779/929 238/780/930 241/781/931 239/782/932
f 238/783/933 237/784/934 234/749/935 241/785/936
g default
v 27.756434 2.000000 10.532090
v 27.724869 2.000000 4.532136
v 27.756434 5.000000 10.532090
v 27.724869 5.000000 4.532136
v 31.724815 2.000000 4.511076
v 31.724815 5.000000 4.511076
v 31.756381 2.000000 10.511030
v 31.756381 5.000000 10.511030
vt 6.000000 1.000000
vt 0.000000 1.000000
vt 0.000000 -2.000000
vt 6.000000 -2.000000
vt 4.000000 1.000000
vt 4.000000 -2.000000
vt 0.000000 -3.000000
vt 6.000000 -3.000000
vt 0.000000 1.000000
vt 0.000000 -2.000000
vt 6.000000 1.000000
vt 0.000000 1.000000
vt 0.000000 -2.000000
vt 6.000000 -2.000000
vt 4.000000 1.000000
vt 0.000000 1.000000
vt 0.000000 -2.000000
vt 4.000000 -2.000000
vt 6.000000 1.000000
vt 0.000000 1.000000
vt 6.000000 1.000000
vt 0.000000 1.000000
vt 0.000000 -3.000000
vt 6.000000 -3.000000
vn -0.999986 0.000000 0.005261
vn -0.999986 0.000000 0.005261
vn -0.999986 0.000000 0.005261
vn -0.999986 0.000000 0.005261
vn -0.005264 0.000000 -0.999986
vn -0.005264 0.000000 -0.999986
vn -0.005264 0.000000 -0.999986
vn -0.005264 0.000000 -0.999986
vn 0.999986 0.000000 -0.005264
vn 0.999986 0.000000 -0.005264
vn 0.999986 0.000000 -0.005264
vn 0.999986 0.000000 -0.005264
vn 0.005264 0.000000 0.999986
vn 0.005264 0.000000 0.999986
vn 0.005264 0.000000 0.999986
vn 0.005264 0.000000 0.999986
vn -0.000000 1.000000 0.000000
vn -0.000000 1.000000 0.000000
vn -0.000000 1.000000 0.000000
vn -0.000000 1.000000 0.000000
vn 0.000000 -1.000000 0.000000
vn 0.000000 -1.000000 0.000000
vn 0.000000 -1.000000 0.000000
vn 0.000000 -1.000000 0.000000
s off
g Cube_2_ group5
usemtl ProBuilderDefault
f 245/786/937 246/787/938 244/788/939 243/789/940
f 246/790/941 248/794/942 247/795/943 244/791/944
f 248/796/945 250/797/946 249/798/947 247/799/948
f 250/800/949 245/801/950 243/802/951 249/803/952
f 250/792/953 248/793/954 246/804/955 245/805/956
f 243/806/957 244/807/958 247/808/959 249/809/960
g default
v 7.152181 2.750000 5.630821
v 10.152152 2.750000 8.630833
v 7.152181 10.000000 5.630821
v 10.152152 10.000000 8.630833
v 10.152168 2.750000 12.630843
v 0.152136 2.750000 12.630793
v 10.152168 10.000000 12.630843
v 0.152136 10.000000 12.630793
v 0.152209 2.750000 8.630807
v 3.152193 2.750000 5.630817
v 0.152209 10.000000 8.630807
v 3.152193 10.000000 5.630817
vt 4.242640 1.000000
vt 0.000000 1.000000
vt 0.000000 -6.250000
vt 4.242640 -6.250000
vt 10.000000 1.000000
vt 10.000000 -6.250000
vt 4.000000 1.000000
vt 4.000000 -6.250000
vt 0.000000 -6.000000
vt 3.000000 -9.000000
vt 3.000000 1.000000
vt 0.000000 -2.000000
vt 3.000000 -2.000000
vt 0.000000 -9.000000
vt 3.000000 -6.000000
vt 4.000000 -9.000000
vt 0.000000 1.000000
vt 0.000000 -6.250000
vt 4.242640 1.000000
vt 0.000000 1.000000
vt 0.000000 -6.250000
vt 4.242640 -6.250000
vt 0.000000 1.000000
vt 0.000000 -6.250000
vt 0.000000 1.000000
vt 0.000000 1.000000
vt 0.000000 -9.000000
vt 4.000000 1.000000
vt 0.000000 1.000000
vt 0.000000 -6.250000
vt 4.000000 -6.250000
vt 4.000000 1.000000
vt 4.000000 -6.250000
vt 4.000000 1.000000
vt 0.000000 1.000000
vt 0.000000 -6.250000
vt 4.000000 -9.000000
vt 4.000000 1.000000
vt 0.000000 -9.000000
vn 0.707112 0.000000 -0.707102
vn 0.707112 0.000000 -0.707102
vn 0.707112 0.000000 -0.707102
vn 0.707112 0.000000 -0.707102
vn -0.000004 0.000000 1.000000
vn -0.000004 0.000000 1.000000
vn -0.000004 0.000000 1.000000
vn -0.000004 0.000000 1.000000
vn -0.707104 0.000000 -0.707109
vn -0.707104 0.000000 -0.707109
vn -0.707104 0.000000 -0.707109
vn -0.707104 0.000000 -0.707109
vn 0.000004 0.000000 -1.000000
vn 0.000004 0.000000 -1.000000
vn 0.000004 0.000000 -1.000000
vn 0.000004 0.000000 -1.000000
vn 0.000000 1.000000 0.000000
vn 0.000000 1.000000 0.000000
vn 0.000000 1.000000 0.000000
vn 0.000000 1.000000 0.000000
vn 0.000000 -1.000000 0.000000
vn 0.000000 -1.000000 0.000000
vn 0.000000 -1.000000 0.000000
vn 0.000000 -1.000000 0.000000
vn 0.000000 -1.000000 0.000000
vn 0.000000 -1.000000 0.000000
vn 0.000000 -1.000000 0.000000
vn 0.000000 -1.000000 0.000000
vn 1.000000 0.000000 0.000004
vn 1.000000 0.000000 0.000004
vn 1.000000 0.000000 0.000004
vn 1.000000 0.000000 0.000004
vn -1.000000 0.000000 -0.000004
vn -1.000000 0.000000 -0.000004
vn -1.000000 0.000000 -0.000004
vn -1.000000 0.000000 -0.000004
vn 0.000000 1.000000 0.000000
vn 0.000000 1.000000 0.000000
vn 0.000000 1.000000 0.000000
vn 0.000000 1.000000 0.000000
s off
g group3 Cube_19_
usemtl ProBuilderDefault
f 253/810/961 254/811/962 252/812/963 251/813/964
f 257/814/965 258/826/966 256/827/967 255/815/968
f 261/828/969 262/829/970 260/830/971 259/831/972
f 262/816/973 253/832/974 251/833/975 260/817/976
f 262/818/977 261/819/978 254/820/979 253/821/980
f 251/822/981 252/834/982 259/823/983 260/824/984
f 255/835/985 256/836/986 259/825/987 252/837/988
f 257/838/989 255/839/990 252/840/991 254/841/992
f 256/842/993 258/843/994 261/844/995 259/845/996
f 258/846/997 257/847/998 254/811/999 261/848/1000
g default
v 7.152211 9.875000 4.130827
v 12.152197 9.875000 8.630852
v 7.152211 10.125000 4.130827
v 12.152197 10.125000 8.630852
v 12.152185 9.875000 14.130849
v -1.847834 9.875000 14.130794
v 12.152185 10.125000 14.130849
v -1.847834 10.125000 14.130794
v -1.847835 9.875000 8.630786
v 3.152222 9.875000 4.130824
v -1.847835 10.125000 8.630786
v 3.152222 10.125000 4.130824
vt 6.726812 1.000000
vt 0.000000 1.000000
vt 0.000000 0.750000
vt 6.726812 0.750000
vt 14.000000 1.000000
vt 14.000000 0.750000
vt 4.000000 1.000000
vt 4.000000 0.750000
vt 0.000000 -8.000000
vt 4.500000 -13.000000
vt 4.500000 1.000000
vt 0.000000 -4.000000
vt 4.500000 -4.000000
vt 0.000000 -13.000000
vt 4.500000 -8.000000
vt 5.500000 -13.000000
vt 5.500000 1.000000
vt 5.500000 0.750000
vt 0.000000 1.000000
vt 0.000000 0.750000
vt 6.726812 1.000000
vt 0.000000 1.000000
vt 0.000000 0.750000
vt 6.726812 0.750000
vt 0.000000 1.000000
vt 0.000000 0.750000
vt 0.000000 1.000000
vt 0.000000 1.000000
vt 0.000000 -13.000000
vt 0.000000 1.000000
vt 0.000000 0.750000
vt 5.500000 1.000000
vt 5.500000 0.750000
vt 5.500000 1.000000
vt 0.000000 1.000000
vt 0.000000 0.750000
vt 5.500000 -13.000000
vt 5.500000 1.000000
vt 0.000000 -13.000000
vn 0.668967 0.000000 -0.743292
vn 0.668967 0.000000 -0.743292
vn 0.668967 0.000000 -0.743292
vn 0.668967 0.000000 -0.743292
vn -0.000004 0.000000 1.000000
vn -0.000004 0.000000 1.000000
vn -0.000004 0.000000 1.000000
vn -0.000004 0.000000 1.000000
vn -0.668962 0.000000 -0.743297
vn -0.668962 0.000000 -0.743297
vn -0.668962 0.000000 -0.743297
vn -0.668962 0.000000 -0.743297
vn 0.000004 0.000000 -1.000000
vn 0.000004 0.000000 -1.000000
vn 0.000004 0.000000 -1.000000
vn 0.000004 0.000000 -1.000000
vn 0.000000 1.000000 0.000000
vn 0.000000 1.000000 0.000000
vn 0.000000 1.000000 0.000000
vn 0.000000 1.000000 0.000000
vn 0.000000 -1.000000 0.000000
vn 0.000000 -1.000000 0.000000
vn 0.000000 -1.000000 0.000000
vn 0.000000 -1.000000 0.000000
vn 0.000000 -1.000000 0.000000
vn 0.000000 -1.000000 0.000000
vn 0.000000 -1.000000 0.000000
vn 0.000000 -1.000000 0.000000
vn 1.000000 0.000000 0.000004
vn 1.000000 0.000000 0.000004
vn 1.000000 0.000000 0.000004
vn 1.000000 0.000000 0.000004
vn -1.000000 0.000000 -0.000004
vn -1.000000 0.000000 -0.000004
vn -1.000000 0.000000 -0.000004
vn -1.000000 0.000000 -0.000004
vn 0.000000 1.000000 0.000000
vn 0.000000 1.000000 0.000000
vn 0.000000 1.000000 0.000000
vn 0.000000 1.000000 0.000000
s off
g group3 Cube_22_
usemtl ProBuilderDefault
f 265/849/1001 266/850/1002 264/851/1003 263/852/1004
f 269/853/1005 270/867/1006 268/868/1007 267/854/1008
f 273/869/1009 274/870/1010 272/871/1011 271/872/1012
f 274/855/1013 265/873/1014 263/874/1015 272/856/1016
f 274/857/1017 273/858/1018 266/859/1019 265/860/1020
f 263/861/1021 264/875/1022 271/862/1023 272/863/1024
f 267/876/1025 268/877/1026 271/864/1027 264/865/1028
f 269/878/1029 267/879/1030 264/866/1031 266/880/1032
f 268/881/1033 270/882/1034 273/883/1035 271/884/1036
f 270/885/1037 269/886/1038 266/850/1039 273/887/1040
g default
v 17.489603 2.000000 11.762467
v 17.489603 2.000000 3.762467
v 17.489603 8.000000 11.762467
v 17.489603 8.000000 3.762467
v 23.489603 2.000000 3.762467
v 23.489603 8.000000 3.762467
v 23.489603 2.000000 11.762467
v 23.489603 8.000000 11.762467
vt 8.000000 1.000000
vt 0.000000 1.000000
vt 0.000000 -5.000000
vt 8.000000 -5.000000
vt 6.000000 1.000000
vt 6.000000 -5.000000
vt 0.000000 1.000000
vt 0.000000 -5.000000
vt 8.000000 1.000000
vt 0.000000 1.000000
vt 0.000000 -5.000000
vt 8.000000 -5.000000
vt 6.000000 1.000000
vt 0.000000 1.000000
vt 0.000000 -5.000000
vt 6.000000 -5.000000
vt 0.000000 -5.000000
vt 8.000000 -5.000000
vt 8.000000 1.000000
vt 0.000000 1.000000
vt 8.000000 1.000000
vt 0.000000 1.000000
vt 0.000000 -5.000000
vt 8.000000 -5.000000
vn -1.000000 0.000000 0.000000
vn -1.000000 0.000000 0.000000
vn -1.000000 0.000000 0.000000
vn -1.000000 0.000000 0.000000
vn -0.000000 0.000000 -1.000000
vn -0.000000 0.000000 -1.000000
vn -0.000000 0.000000 -1.000000
vn -0.000000 0.000000 -1.000000
vn 1.000000 0.000000 -0.000000
vn 1.000000 0.000000 -0.000000
vn 1.000000 0.000000 -0.000000
vn 1.000000 0.000000 -0.000000
vn 0.000000 0.000000 1.000000
vn 0.000000 0.000000 1.000000
vn 0.000000 0.000000 1.000000
vn 0.000000 0.000000 1.000000
vn 0.000000 1.000000 0.000000
vn 0.000000 1.000000 0.000000
vn 0.000000 1.000000 0.000000
vn 0.000000 1.000000 0.000000
vn 0.000000 -1.000000 0.000000
vn 0.000000 -1.000000 0.000000
vn 0.000000 -1.000000 0.000000
vn 0.000000 -1.000000 0.000000
s off
g Cube group4
usemtl ProBuilderDefault
f 277/888/1041 278/889/1042 276/890/1043 275/891/1044
f 278/892/1045 280/894/1046 279/895/1047 276/893/1048
f 280/896/1049 282/897/1050 281/898/1051 279/899/1052
f 282/900/1053 277/901/1054 275/902/1055 281/903/1056
f 282/904/1057 280/905/1058 278/906/1059 277/907/1060
f 275/908/1061 276/909/1062 279/910/1063 281/911/1064
g default
v 7.152223 5.875000 3.130837
v 13.152169 5.875000 8.630844
v 7.152223 6.125000 3.130837
v 13.152169 6.125000 8.630844
v 13.152155 5.875000 14.130850
v -2.847806 5.875000 14.130802
v 13.152155 6.125000 14.130850
v -2.847806 6.125000 14.130802
v -2.847807 5.875000 8.630794
v 3.152237 5.875000 3.130823
v -2.847807 6.125000 8.630794
v 3.152237 6.125000 3.130823
vt 8.139410 1.000000
vt 0.000000 1.000000
vt 0.000000 0.750000
vt 8.139410 0.750000
vt 16.000000 1.000000
vt 16.000000 0.750000
vt 4.000000 1.000000
vt 4.000000 0.750000
vt 0.000000 -9.000000
vt 5.500000 -15.000000
vt 5.500000 1.000000
vt 0.000000 -5.000000
vt 5.500000 -5.000000
vt 0.000000 -15.000000
vt 5.500000 -9.000000
vt 5.500000 0.750000
vt 0.000000 1.000000
vt 0.000000 0.750000
vt 8.139410 1.000000
vt 0.000000 1.000000
vt 0.000000 0.750000
vt 8.139410 0.750000
vt 0.000000 1.000000
vt 0.000000 0.750000
vt 0.000000 1.000000
vt 0.000000 1.000000
vt 0.000000 -15.000000
vt 5.500000 -15.000000
vt 5.500000 1.000000
vt 0.000000 1.000000
vt 0.000000 0.750000
vt 5.500000 0.750000
vt 5.500000 1.000000
vt 0.000000 1.000000
vt 0.000000 0.750000
vt 5.500000 -15.000000
vt 5.500000 1.000000
vt 0.000000 -15.000000
vn 0.675729 0.000000 -0.737150
vn 0.675729 0.000000 -0.737150
vn 0.675729 0.000000 -0.737150
vn 0.675729 0.000000 -0.737150
vn -0.000004 0.000000 1.000000
vn -0.000004 0.000000 1.000000
vn -0.000004 0.000000 1.000000
vn -0.000004 0.000000 1.000000
vn -0.675722 0.000000 -0.737157
vn -0.675722 0.000000 -0.737157
vn -0.675722 0.000000 -0.737157
vn -0.675722 0.000000 -0.737157
vn 0.000004 0.000000 -1.000000
vn 0.000004 0.000000 -1.000000
vn 0.000004 0.000000 -1.000000
vn 0.000004 0.000000 -1.000000
vn 0.000000 1.000000 0.000000
vn 0.000000 1.000000 0.000000
vn 0.000000 1.000000 0.000000
vn 0.000000 1.000000 0.000000
vn 0.000000 -1.000000 0.000000
vn 0.000000 -1.000000 0.000000
vn 0.000000 -1.000000 0.000000
vn 0.000000 -1.000000 0.000000
vn 0.000000 -1.000000 0.000000
vn 0.000000 -1.000000 0.000000
vn 0.000000 -1.000000 0.000000
vn 0.000000 -1.000000 0.000000
vn 1.000000 0.000000 0.000004
vn 1.000000 0.000000 0.000004
vn 1.000000 0.000000 0.000004
vn 1.000000 0.000000 0.000004
vn -1.000000 0.000000 -0.000004
vn -1.000000 0.000000 -0.000004
vn -1.000000 0.000000 -0.000004
vn -1.000000 0.000000 -0.000004
vn 0.000000 1.000000 0.000000
vn 0.000000 1.000000 0.000000
vn 0.000000 1.000000 0.000000
vn 0.000000 1.000000 0.000000
s off
g group3 Cube_23_
usemtl ProBuilderDefault
f 285/912/1065 286/913/1066 284/914/1067 283/915/1068
f 289/916/1069 290/928/1070 288/929/1071 287/917/1072
f 293/930/1073 294/931/1074 292/932/1075 291/933/1076
f 294/918/1077 285/934/1078 283/935/1079 292/919/1080
f 294/920/1081 293/921/1082 286/922/1083 285/923/1084
f 283/924/1085 284/936/1086 291/925/1087 292/926/1088
f 287/937/1089 288/938/1090 291/939/1091 284/940/1092
f 289/941/1093 287/942/1094 284/927/1095 286/922/1096
f 288/943/1097 290/944/1098 293/945/1099 291/946/1100
f 290/947/1101 289/948/1102 286/913/1103 293/949/1104
g default
v 16.489633 8.000000 11.762467
v 24.489603 8.000000 11.762467
v 20.489618 13.000000 11.762467
v 24.489580 8.000000 3.762467
v 20.489595 13.000000 3.762467
v 16.489611 8.000000 3.762467
vt -3.499969 -2.000000
vt 4.500000 -2.000000
vt 0.500015 3.000000
vt -4.500000 -2.000000
vt 3.499969 -2.000000
vt -0.500015 3.000000
vt -2.000000 2.030254
vt -2.000000 -4.372861
vt 5.999997 -4.372861
vt 5.999997 2.030254
vt -5.999997 2.654966
vt -5.999997 -3.748149
vt 2.000000 -3.748149
vt 2.000000 2.654966
vt -4.500000 5.999997
vt -4.500000 -2.000000
vt 3.499969 -2.000000
vt 3.499969 5.999997
vn 0.000003 0.000000 1.000000
vn 0.000003 0.000000 1.000000
vn 0.000003 0.000000 1.000000
vn -0.000003 0.000000 -1.000000
vn -0.000003 0.000000 -1.000000
vn -0.000003 0.000000 -1.000000
vn 0.780870 0.624694 -0.000002
vn 0.780870 0.624694 -0.000002
vn 0.780870 0.624694 -0.000002
vn 0.780870 0.624694 -0.000002
vn 0.780870 0.624694 -0.000002
vn 0.780870 0.624694 -0.000002
vn -0.780870 0.624694 0.000002
vn -0.780870 0.624694 0.000002
vn -0.780870 0.624694 0.000002
vn -0.780870 0.624694 0.000002
vn -0.780870 0.624694 0.000002
vn -0.780870 0.624694 0.000002
vn 0.000000 -1.000000 0.000000
vn 0.000000 -1.000000 0.000000
vn 0.000000 -1.000000 0.000000
vn 0.000000 -1.000000 0.000000
vn 0.000000 -1.000000 0.000000
vn 0.000000 -1.000000 0.000000
s off
g group4 Prism
usemtl ProBuilderDefault
f 295/950/1105 296/951/1106 297/952/1107
f 298/953/1108 300/954/1109 299/955/1110
f 297/956/1111 296/957/1112 298/958/1113
f 298/958/1114 299/959/1115 297/956/1116
f 299/960/1117 300/961/1118 295/962/1119
f 295/962/1120 297/963/1121 299/960/1122
f 298/964/1123 296/965/1124 295/966/1125
f 295/966/1126 300/967/1127 298/964/1128
g default
v 26.724887 5.000000 4.537404
v 32.724814 5.000000 4.505818
v 29.724850 7.000000 4.521611
v 32.756362 5.000000 10.505762
v 29.756397 7.000000 10.521555
v 26.756434 5.000000 10.537347
vt 0.000000 1.500000
vt -3.000000 -0.500000
vt 3.000000 -0.500000
vt 0.832050 -2.999994
vt 0.832050 2.999994
vt -2.773501 2.999994
vt -2.773501 -2.999994
vt -0.832050 2.999994
vt -0.832050 -2.999994
vt 2.773501 -2.999994
vt 2.773501 2.999994
vt 3.000000 -2.999994
vt 3.000000 2.999994
vt -3.000000 2.999994
vt -3.000000 -2.999994
vt 0.000000 1.500000
vt -3.000000 -0.500000
vt 3.000000 -0.500000
vn -0.005264 0.000000 -0.999986
vn -0.005264 0.000000 -0.999986
vn -0.005264 0.000000 -0.999986
vn 0.005262 0.000000 0.999986
vn 0.005262 0.000000 0.999986
vn 0.005262 0.000000 0.999986
vn 0.554693 0.832050 -0.002919
vn 0.554693 0.832050 -0.002919
vn 0.554693 0.832050 -0.002919
vn 0.554693 0.832050 -0.002919
vn 0.554693 0.832050 -0.002919
vn 0.554693 0.832050 -0.002919
vn -0.554693 0.832050 0.002919
vn -0.554693 0.832050 0.002919
vn -0.554693 0.832050 0.002919
vn -0.554693 0.832050 0.002919
vn -0.554693 0.832050 0.002919
vn -0.554693 0.832050 0.002919
vn 0.000000 -1.000000 0.000000
vn 0.000000 -1.000000 0.000000
vn 0.000000 -1.000000 0.000000
vn 0.000000 -1.000000 0.000000
vn 0.000000 -1.000000 0.000000
vn 0.000000 -1.000000 0.000000
s off
g group5 Prism_1_
usemtl ProBuilderDefault
f 303/968/1129 302/969/1130 301/970/1131
f 305/983/1132 306/984/1133 304/985/1134
f 303/971/1135 305/972/1136 304/973/1137
f 304/973/1138 302/974/1139 303/971/1140
f 305/975/1141 303/976/1142 301/977/1143
f 301/977/1144 306/978/1145 305/975/1146
f 302/979/1147 304/980/1148 306/981/1149
f 306/981/1150 301/982/1151 302/979/1152
g default
v -24.022079 5.000000 13.259733
v -23.920163 5.000000 5.260357
v -24.022079 8.000000 13.259733
v -23.920163 8.000000 5.260357
v -18.920594 5.000000 5.324037
v -18.920594 8.000000 5.324037
v -19.022498 5.000000 13.323423
v -19.022498 8.000000 13.323423
vt 8.000000 1.000000
vt 0.000000 1.000000
vt 0.000000 -2.000000
vt 8.000000 -2.000000
vt 5.000000 1.000000
vt 5.000000 -2.000000
vt 0.000000 -4.000000
vt 8.000000 -4.000000
vt 0.000000 1.000000
vt 0.000000 -2.000000
vt 8.000000 1.000000
vt 0.000000 1.000000
vt 0.000000 -2.000000
vt 8.000000 -2.000000
vt 5.000000 1.000000
vt 0.000000 1.000000
vt 0.000000 -2.000000
vt 5.000000 -2.000000
vt 8.000000 1.000000
vt 0.000000 1.000000
vt 8.000000 1.000000
vt 0.000000 1.000000
vt 0.000000 -4.000000
vt 8.000000 -4.000000
vn -0.999919 0.000000 -0.012740
vn -0.999919 0.000000 -0.012740
vn -0.999919 0.000000 -0.012740
vn -0.999919 0.000000 -0.012740
vn 0.012741 0.000000 -0.999919
vn 0.012741 0.000000 -0.999919
vn 0.012741 0.000000 -0.999919
vn 0.012741 0.000000 -0.999919
vn 0.999919 0.000000 0.012741
vn 0.999919 0.000000 0.012741
vn 0.999919 0.000000 0.012741
vn 0.999919 0.000000 0.012741
vn -0.012741 0.000000 0.999919
vn -0.012741 0.000000 0.999919
vn -0.012741 0.000000 0.999919
vn -0.012741 0.000000 0.999919
vn 0.000000 1.000000 0.000000
vn 0.000000 1.000000 0.000000
vn 0.000000 1.000000 0.000000
vn 0.000000 1.000000 0.000000
vn 0.000000 -1.000000 0.000000
vn 0.000000 -1.000000 0.000000
vn 0.000000 -1.000000 0.000000
vn 0.000000 -1.000000 0.000000
s off
g group1 Cube_4_
usemtl ProBuilderDefault
f 309/986/1153 310/987/1154 308/988/1155 307/989/1156
f 310/990/1157 312/994/1158 311/995/1159 308/991/1160
f 312/996/1161 314/997/1162 313/998/1163 311/999/1164
f 314/1000/1165 309/1001/1166 307/1002/1167 313/1003/1168
f 314/992/1169 312/993/1170 310/1004/1171 309/1005/1172
f 307/1006/1173 308/1007/1174 311/1008/1175 313/1009/1176
g default
v -17.535329 2.000000 14.342479
v -17.528998 2.000000 13.842483
v -17.535329 5.000000 14.342479
v -17.528998 5.000000 13.842483
v -17.029003 2.000000 13.848896
v -17.029003 5.000000 13.848896
v -17.035404 2.000000 14.348809
v -17.035404 5.000000 14.348809
vt 0.500000 1.000000
vt 0.000000 1.000000
vt 0.000000 -2.000000
vt 0.500000 -2.000000
vt 0.000000 0.500000
vt 0.500000 0.500000
vt 0.500000 1.000000
vt 0.000000 1.000000
vt 0.000000 -2.000000
vt 0.500000 -2.000000
vt 0.500000 1.000000
vt 0.000000 1.000000
vt 0.000000 -2.000000
vt 0.500000 -2.000000
vt 0.500000 1.000000
vt 0.000000 1.000000
vt 0.000000 -2.000000
vt 0.500000 -2.000000
vt 0.500000 1.000000
vt 0.000000 1.000000
vt 0.500000 1.000000
vt 0.000000 1.000000
vt 0.000000 0.500000
vt 0.500000 0.500000
vn -0.999920 0.000000 -0.012664
vn -0.999920 0.000000 -0.012664
vn -0.999920 0.000000 -0.012664
vn -0.999920 0.000000 -0.012664
vn 0.012741 0.000000 -0.999919
vn 0.012741 0.000000 -0.999919
vn 0.012741 0.000000 -0.999919
vn 0.012741 0.000000 -0.999919
vn 0.999919 0.000000 0.012741
vn 0.999919 0.000000 0.012741
vn 0.999919 0.000000 0.012741
vn 0.999919 0.000000 0.012741
vn -0.012741 0.000000 0.999919
vn -0.012741 0.000000 0.999919
vn -0.012741 0.000000 0.999919
vn -0.012741 0.000000 0.999919
vn 0.000000 1.000000 0.000000
vn 0.000000 1.000000 0.000000
vn 0.000000 1.000000 0.000000
vn 0.000000 1.000000 0.000000
vn 0.000000 -1.000000 0.000000
vn 0.000000 -1.000000 0.000000
vn 0.000000 -1.000000 0.000000
vn 0.000000 -1.000000 0.000000
s off
g group1 Cube_14_
usemtl ProBuilderDefault
f 317/1010/1177 318/1011/1178 316/1012/1179 315/1013/1180
f 318/1016/1181 320/1017/1182 319/1018/1183 316/1019/1184
f 320/1020/1185 322/1021/1186 321/1022/1187 319/1023/1188
f 322/1024/1189 317/1025/1190 315/1026/1191 321/1027/1192
f 322/1014/1193 320/1015/1194 318/1028/1195 317/1029/1196
f 315/1030/1197 316/1031/1198 319/1032/1199 321/1033/1200
g default
v -26.034648 2.000000 14.234175
v -26.028317 2.000000 13.734180
v -26.034648 5.000000 14.234175
v -26.028317 5.000000 13.734180
v -25.528314 2.000000 13.740584
v -25.528314 5.000000 13.740584
v -25.534720 2.000000 14.240503
v -25.534720 5.000000 14.240503
vt 0.500000 1.000000
vt 0.000000 1.000000
vt 0.000000 -2.000000
vt 0.500000 -2.000000
vt 0.000000 0.500000
vt 0.500000 0.500000
vt 0.500000 1.000000
vt 0.000000 1.000000
vt 0.000000 -2.000000
vt 0.500000 -2.000000
vt 0.500000 1.000000
vt 0.000000 1.000000
vt 0.000000 -2.000000
vt 0.500000 -2.000000
vt 0.500000 1.000000
vt 0.000000 1.000000
vt 0.000000 -2.000000
vt 0.500000 -2.000000
vt 0.500000 1.000000
vt 0.000000 1.000000
vt 0.500000 1.000000
vt 0.000000 1.000000
vt 0.000000 0.500000
vt 0.500000 0.500000
vn -0.999920 0.000000 -0.012664
vn -0.999920 0.000000 -0.012664
vn -0.999920 0.000000 -0.012664
vn -0.999920 0.000000 -0.012664
vn 0.012741 0.000000 -0.999919
vn 0.012741 0.000000 -0.999919
vn 0.012741 0.000000 -0.999919
vn 0.012741 0.000000 -0.999919
vn 0.999919 0.000000 0.012741
vn 0.999919 0.000000 0.012741
vn 0.999919 0.000000 0.012741
vn 0.999919 0.000000 0.012741
vn -0.012741 0.000000 0.999919
vn -0.012741 0.000000 0.999919
vn -0.012741 0.000000 0.999919
vn -0.012741 0.000000 0.999919
vn 0.000000 1.000000 0.000000
vn 0.000000 1.000000 0.000000
vn 0.000000 1.000000 0.000000
vn 0.000000 1.000000 0.000000
vn 0.000000 -1.000000 0.000000
vn 0.000000 -1.000000 0.000000
vn 0.000000 -1.000000 0.000000
vn 0.000000 -1.000000 0.000000
s off
g group1 Cube_11_
usemtl ProBuilderDefault
f 325/1034/1201 326/1035/1202 324/1036/1203 323/1037/1204
f 326/1040/1205 328/1041/1206 327/1042/1207 324/1043/1208
f 328/1044/1209 330/1045/1210 329/1046/1211 327/1047/1212
f 330/1048/1213 325/1049/1214 323/1050/1215 329/1051/1216
f 330/1038/1217 328/1039/1218 326/1052/1219 325/1053/1220
f 323/1054/1221 324/1055/1222 327/1056/1223 329/1057/1224
