# This file uses centimeters as units for non-parametric coordinates.

mtllib techo y base casa pobre.mtl
g default
v -0.073854 6.378866 3.153536
v 0.073854 6.378866 3.153536
v -0.141894 6.554123 3.153536
v 0.141894 6.554123 3.153536
v -0.141894 6.554123 -3.180166
v 0.141894 6.554123 -3.180166
v -0.073854 6.378866 -3.180166
v 0.073854 6.378866 -3.180166
v 2.418516 2.460786 -3.180166
v 2.418516 2.460786 3.153536
v 2.576655 2.601211 -3.180166
v 2.576655 2.601211 3.153536
v -2.418516 2.460786 -3.180166
v -2.418516 2.460786 3.153536
v -2.576655 2.601211 3.153536
v -2.576655 2.601211 -3.180166
v -1.571241 4.078261 -3.180166
v -1.571241 4.078261 3.153536
v -1.445719 3.925227 3.153536
v -1.445719 3.925227 -3.180166
v 1.571241 4.078261 -3.180166
v 1.445719 3.925227 -3.180166
v 1.445719 3.925227 3.153536
v 1.571241 4.078261 3.153536
v 1.445719 3.925227 -2.781553
v 0.073854 6.378866 -2.781553
v -0.073854 6.378866 -2.781553
v -1.445719 3.925227 -2.781553
v 1.445719 3.925227 2.801968
v 0.073854 6.378866 2.801968
v -0.073854 6.378866 2.801968
v -1.445719 3.925227 2.801968
v 1.830583 3.345855 -2.781553
v 1.830583 3.345855 2.801968
v -1.830583 3.345855 -2.781553
v -1.830583 3.345855 2.801968
v -0.155509 7.043995 -5.454122
v 0.155509 7.043995 -5.454122
v 0.155509 6.851922 -5.454122
v -0.155509 6.851922 -5.454122
vt 0.431100 0.842994
vt 0.431114 0.852701
vt 0.677086 0.405332
vt 0.432224 0.321973
vt 0.572632 0.260220
vt 0.591277 0.260643
vt 0.542132 0.097619
vt 0.575200 0.107381
vt 0.562818 0.109831
vt 0.542384 0.110239
vt 0.550793 0.262731
vt 0.560497 0.262538
vt 0.039958 0.945633
vt 0.039944 0.955340
vt 0.430382 0.645901
vt 0.014170 0.645337
vt 0.639103 0.100280
vt 0.429952 0.645895
vt 0.846864 0.542113
vt 0.430652 0.542734
vt 0.599398 0.100175
vt 0.018162 0.013781
vt 0.014013 0.760869
vt 0.040208 0.760904
vt 0.014573 0.525564
vt 0.430776 0.528482
vt 0.430226 0.761433
vt 0.820842 0.657683
vt 0.847036 0.657644
vt 0.606709 0.217363
vt 0.430824 0.658265
vt 0.631505 0.217412
vt 0.454217 0.852667
vt 0.407123 0.761401
vt 0.454203 0.842960
vt 0.453927 0.658231
vt 0.820773 0.611976
vt 0.453859 0.612524
vt 0.407185 0.715694
vt 0.040270 0.715197
vt 0.595633 0.107843
vt 0.529914 0.108284
vt 0.562566 0.097212
vt 0.016021 0.319055
vt 0.635004 0.405244
vt 0.538575 0.260900
vt 0.406873 0.946131
vt 0.622566 0.402543
vt 0.667220 0.397896
vt 0.429975 0.946162
vt 0.671263 0.217557
vt 0.980566 0.824387
vt 0.676319 0.100251
vt 0.658955 0.213352
vt 0.662626 0.097878
vt 0.966668 0.824273
vt 0.657341 0.213243
vt 0.970083 0.408077
vt 0.652778 0.097802
vt 0.645066 0.217544
vt 0.983980 0.408191
vt 0.013750 0.642976
vt 0.619250 0.213055
vt 0.624349 0.097636
vt 0.906119 0.408073
vt 0.618933 0.212922
vt 0.908513 0.824278
vt 0.613043 0.097540
vt 0.433541 0.134113
vt 0.894616 0.824358
vt 0.434364 0.016700
vt 0.017339 0.131194
vt 0.892222 0.408153
vt 0.638013 0.100178
vt 0.604497 0.405216
vt 0.614218 0.397591
vt 0.625231 0.397686
vt 0.847312 0.842373
vt 0.013750 0.955304
vt 0.620536 0.414730
vt 0.432093 0.340622
vt 0.640695 0.405357
vt 0.015891 0.337703
vt 0.013763 0.945598
vt 0.650503 0.397845
vt 0.821118 0.842412
vn 0.000000 0.000000 1.000000
vn 0.000000 0.000000 1.000000
vn 0.000000 0.000000 1.000000
vn 0.000000 0.000000 1.000000
vn 0.000000 1.000000 0.000000
vn 0.000000 1.000000 0.000000
vn 0.000000 1.000000 0.000000
vn 0.000000 1.000000 0.000000
vn 0.000000 0.000000 -1.000000
vn 0.000000 0.000000 -1.000000
vn 0.000000 0.000000 -1.000000
vn 0.000000 0.000000 -1.000000
vn 0.000000 -1.000000 0.000000
vn 0.000000 -1.000000 0.000000
vn 0.000000 -1.000000 0.000000
vn 0.000000 -1.000000 0.000000
vn 0.663984 -0.747747 0.000000
vn 0.663984 -0.747747 0.000000
vn 0.663984 -0.747747 0.000000
vn 0.663984 -0.747747 0.000000
vn -0.663984 -0.747747 0.000000
vn -0.663984 -0.747747 0.000000
vn -0.663984 -0.747747 0.000000
vn -0.663984 -0.747747 0.000000
vn -0.872836 -0.488015 0.000000
vn -0.872836 -0.488015 0.000000
vn -0.872836 -0.488015 0.000000
vn -0.872836 -0.488015 0.000000
vn 0.000000 0.000000 -1.000000
vn 0.000000 0.000000 -1.000000
vn -0.000000 0.000000 -1.000000
vn -0.000001 0.000000 -1.000000
vn 0.866040 0.499976 0.000000
vn 0.866040 0.499976 0.000000
vn 0.851447 0.524441 0.000000
vn 0.851447 0.524441 0.000000
vn 0.000000 0.000000 1.000000
vn 0.000000 0.000000 1.000000
vn 0.000000 0.000000 1.000000
vn 0.000000 0.000000 1.000000
vn 0.872836 -0.488015 0.000000
vn 0.872836 -0.488015 0.000000
vn 0.872836 -0.488015 0.000000
vn 0.872836 -0.488015 0.000000
vn 0.000000 0.000000 1.000000
vn 0.000000 0.000000 1.000000
vn 0.000000 0.000000 1.000000
vn 0.000000 0.000000 1.000000
vn -0.866040 0.499976 0.000000
vn -0.866040 0.499976 0.000000
vn -0.851447 0.524441 0.000000
vn -0.851447 0.524441 0.000000
vn 0.000000 0.000000 -1.000000
vn 0.000000 0.000000 -1.000000
vn 0.000001 0.000000 -1.000000
vn 0.000000 0.000000 -1.000000
vn -0.826661 0.562700 0.000000
vn -0.826661 0.562700 0.000000
vn 0.000000 0.000000 1.000000
vn 0.000000 0.000000 1.000000
vn 0.000001 0.000000 -1.000000
vn 0.000001 0.000000 -1.000000
vn -0.000001 0.000000 -1.000000
vn -0.000001 0.000000 -1.000000
vn 0.000000 0.000000 1.000000
vn 0.000000 0.000000 1.000000
vn 0.826661 0.562700 0.000000
vn 0.826661 0.562700 0.000000
vn -0.872835 -0.488015 0.000000
vn -0.872835 -0.488015 0.000000
vn -0.872835 -0.488015 0.000000
vn -0.872835 -0.488015 0.000000
vn 0.000000 -1.000000 0.000000
vn 0.000000 -1.000000 0.000000
vn 0.000000 -1.000000 0.000000
vn 0.000000 -1.000000 0.000000
vn 0.872835 -0.488015 0.000000
vn 0.872835 -0.488015 0.000000
vn 0.872835 -0.488015 0.000000
vn 0.872835 -0.488015 0.000000
vn 0.832967 -0.553322 0.000000
vn 0.832967 -0.553322 0.000000
vn 0.832967 -0.553322 0.000000
vn 0.832967 -0.553322 0.000000
vn -0.832967 -0.553322 0.000000
vn -0.832967 -0.553322 0.000000
vn -0.832967 -0.553322 0.000000
vn -0.832967 -0.553322 0.000000
vn -0.832967 -0.553323 -0.000000
vn -0.832967 -0.553323 -0.000000
vn -0.832967 -0.553323 -0.000000
vn -0.832967 -0.553323 -0.000000
vn 0.832967 -0.553322 -0.000000
vn 0.832967 -0.553322 -0.000000
vn 0.832967 -0.553322 -0.000000
vn 0.832967 -0.553322 -0.000000
vn -0.832967 -0.553323 0.000001
vn -0.832967 -0.553323 0.000001
vn -0.832967 -0.553323 0.000001
vn -0.832967 -0.553323 0.000001
vn 0.832967 -0.553323 0.000001
vn 0.832967 -0.553323 0.000001
vn 0.832967 -0.553323 0.000001
vn 0.832967 -0.553323 0.000001
vn 0.000000 0.977573 0.210596
vn 0.000000 0.977573 0.210596
vn 0.000000 0.977573 0.210596
vn 0.000000 0.977573 0.210596
vn 0.983116 -0.182101 -0.017962
vn 0.983116 -0.182101 -0.017962
vn 0.983116 -0.182101 -0.017962
vn 0.983116 -0.182101 -0.017962
vn 0.000000 -0.979039 -0.203672
vn 0.000000 -0.979039 -0.203672
vn 0.000000 -0.979039 -0.203672
vn 0.000000 -0.979039 -0.203672
vn -0.983116 -0.182101 -0.017962
vn -0.983116 -0.182101 -0.017962
vn -0.983116 -0.182101 -0.017962
vn -0.983116 -0.182101 -0.017962
s off
g Techo
usemtl initialShadingGroup
f 1/76/1 2/48/2 4/80/3 3/75/4
f 3/4/5 4/81/6 6/83/7 5/44/8
f 37/7/9 38/43/10 39/9/11 40/10/12
f 7/79/13 8/84/14 26/13/15 27/14/16
f 10/56/17 9/58/18 11/61/19 12/52/20
f 13/65/21 14/67/22 15/70/23 16/73/24
f 26/13/25 8/84/26 22/23/27 25/24/28
s 1
f 8/85/29 6/82/30 21/60/31 22/57/32
s 2
f 6/83/33 4/81/34 24/26/35 21/25/36
s 3
f 4/3/37 2/49/38 23/54/39 24/51/40
s off
f 7/78/41 27/86/42 28/28/43 20/29/44
s 4
f 1/76/45 3/75/46 18/30/47 19/66/48
s 5
f 3/4/49 5/44/50 17/72/51 18/69/52
s 6
f 5/45/53 7/77/54 20/63/55 17/32/56
s 5
f 18/69/52 17/72/51 16/22/57 15/71/58
s 4
f 19/66/48 18/30/47 15/21/59 14/68/60
s 6
f 17/32/56 20/63/55 13/64/61 16/74/62
s 1
f 22/57/32 21/60/31 11/17/63 9/59/64
s 3
f 24/51/40 23/54/39 10/55/65 12/53/66
s 2
f 21/25/36 24/26/35 12/18/67 11/62/68
s off
f 2/50/69 30/47/70 29/34/71 23/27/72
f 31/35/73 30/33/74 2/2/75 1/1/76
f 32/36/77 31/35/78 1/1/79 19/31/80
f 14/20/81 13/19/82 35/37/83 36/38/84
f 9/16/85 10/15/86 34/39/87 33/40/88
f 25/24/89 22/23/90 9/16/91 33/40/92
f 20/29/93 28/28/94 35/37/95 13/19/96
f 23/27/97 29/34/98 34/39/99 10/15/100
f 32/36/101 19/31/102 14/20/103 36/38/104
f 5/6/105 6/5/106 38/8/107 37/41/108
f 6/5/109 8/12/110 39/9/111 38/8/112
f 8/12/113 7/11/114 40/10/115 39/9/116
f 7/11/117 5/46/118 37/42/119 40/10/120
g default
v -3.000000 -1.000000 4.000000
v 3.000000 -1.000000 4.000000
v -3.000000 0.000000 4.000000
v 3.000000 0.000000 4.000000
v -3.000000 0.000000 -4.000000
v 3.000000 0.000000 -4.000000
v -3.000000 -1.000000 -4.000000
v 3.000000 -1.000000 -4.000000
v -1.669106 0.000000 2.743270
v 1.669106 0.000000 2.743270
v 1.669106 0.000000 -2.743270
v -1.669106 0.000000 -2.743270
vt 0.963739 0.859476
vt 0.905039 0.408061
vt 0.435615 0.539481
vt 0.829890 0.542134
vt 0.833427 0.016434
vt 0.439152 0.013781
vt 0.437771 0.989222
vt 0.907111 0.013901
vt 0.523627 0.457487
vt 0.742989 0.458963
vt 0.526053 0.096952
vt 0.745415 0.098429
vt 0.973539 0.408065
vt 0.437983 0.923509
vt 0.907825 0.408184
vt 0.437771 0.923114
vt 0.972825 0.013782
vt 0.438031 0.857401
vt 0.963692 0.925205
vt 0.839326 0.408344
vt 0.837627 0.014064
vt 0.963479 0.925190
vt 0.963480 0.990919
vt 0.903341 0.013781
vn 0.000000 0.000000 1.000000
vn 0.000000 0.000000 1.000000
vn 0.000000 0.000000 1.000000
vn 0.000000 0.000000 1.000000
vn 0.000000 0.000000 -1.000000
vn 0.000000 0.000000 -1.000000
vn 0.000000 0.000000 -1.000000
vn 0.000000 0.000000 -1.000000
vn 1.000000 0.000000 0.000000
vn 1.000000 0.000000 0.000000
vn 1.000000 0.000000 0.000000
vn 1.000000 0.000000 0.000000
vn -1.000000 0.000000 0.000000
vn -1.000000 0.000000 0.000000
vn -1.000000 0.000000 0.000000
vn -1.000000 0.000000 0.000000
vn 0.000000 1.000000 0.000000
vn 0.000000 1.000000 0.000000
vn 0.000000 1.000000 0.000000
vn 0.000000 1.000000 0.000000
vn 0.000000 1.000000 0.000000
vn 0.000000 1.000000 0.000000
vn 0.000000 1.000000 0.000000
vn 0.000000 1.000000 0.000000
vn 0.000000 1.000000 0.000000
vn 0.000000 1.000000 0.000000
vn 0.000000 1.000000 0.000000
vn 0.000000 1.000000 0.000000
vn 0.000000 1.000000 0.000000
vn 0.000000 1.000000 0.000000
vn 0.000000 1.000000 0.000000
vn 0.000000 1.000000 0.000000
s off
g Base
usemtl initialShadingGroup
f 41/110/121 42/88/122 44/106/123 43/107/124
f 45/103/125 46/99/126 48/101/127 47/94/128
f 42/109/129 48/93/130 46/100/131 44/105/132
f 47/104/133 41/87/134 43/108/135 45/102/136
f 43/90/137 44/89/138 50/95/139 49/96/140
f 44/89/141 46/92/142 51/97/143 50/95/144
f 46/92/145 45/91/146 52/98/147 51/97/148
f 45/91/149 43/90/150 49/96/151 52/98/152
