# This file uses centimeters as units for non-parametric coordinates.

mtllib Tendedero.mtl
g default
v -2.633782 2.711589 -0.902848
v -2.770835 2.584378 -0.902848
v 2.633782 2.711590 -0.902848
v 2.770835 2.584378 -0.902848
v 2.633782 2.711590 -1.064670
v 2.770835 2.584378 -1.064670
v -2.633782 2.711589 -1.064670
v -2.770835 2.584378 -1.064670
v 1.801539 2.516367 -0.902848
v 1.801539 2.516367 -1.064670
v 1.801539 2.354545 -1.064670
v 1.801539 2.354545 -0.902848
v 0.900769 2.381297 -0.902848
v 0.900769 2.381297 -1.064670
v 0.900769 2.219475 -1.064670
v 0.900769 2.219475 -0.902848
v -0.000000 2.320219 -0.902848
v -0.000000 2.320219 -1.064670
v 0.000000 2.158396 -1.064670
v 0.000000 2.158396 -0.902848
v -0.900770 2.381297 -0.902848
v -0.900770 2.381297 -1.064670
v -0.900770 2.219475 -1.064670
v -0.900770 2.219475 -0.902848
v -1.801539 2.516367 -0.902848
v -1.801539 2.516367 -1.064670
v -1.801539 2.354546 -1.064670
v -1.801539 2.354546 -0.902848
v 1.885644 1.998671 -4.060276
v 1.998178 2.048681 -4.079071
v 2.198377 0.981240 -4.959677
v 2.310295 1.035937 -4.958884
v 2.246789 0.881360 -4.903123
v 2.358707 0.936057 -4.902329
v 1.917696 1.965778 -3.955883
v 2.030230 2.015788 -3.974677
v 2.255737 1.204764 -4.698493
v 2.166254 1.164998 -4.683548
v 2.202871 1.110465 -4.609406
v 2.292354 1.150231 -4.624351
v 2.180676 1.453067 -4.436120
v 2.104960 1.419419 -4.423474
v 2.135944 1.373276 -4.360738
v 2.211659 1.406924 -4.373384
v 2.089488 1.754582 -4.235898
v 1.998489 1.714142 -4.220699
v 2.035726 1.658684 -4.145300
v 2.126726 1.699124 -4.160498
v 2.618535 -0.002749 -4.864508
v 2.777459 0.049242 -4.863121
v 1.972063 1.970825 -4.769364
v 2.130987 2.022816 -4.767978
v 1.970999 1.978530 -4.936402
v 2.129924 2.030521 -4.935015
v 2.617471 0.004956 -5.031545
v 2.776396 0.056947 -5.030158
v 2.276219 1.524887 -4.809013
v 2.149849 1.483546 -4.810116
v 2.149004 1.489672 -4.942937
v 2.275374 1.531013 -4.941835
v 2.428051 1.028785 -4.843102
v 2.321123 0.993804 -4.844035
v 2.320408 0.998987 -4.956421
v 2.427336 1.033968 -4.955488
v 2.600533 0.538398 -4.855450
v 2.472021 0.496357 -4.856571
v 2.471161 0.502587 -4.991644
v 2.599674 0.544628 -4.990523
v 2.617533 -0.000207 -0.740248
v 2.786742 0.030510 -0.740213
v 2.051633 3.117148 -0.736490
v 2.220842 3.147865 -0.736455
v 2.051630 3.117355 -0.908465
v 2.220840 3.148072 -0.908430
v 2.617530 -0.000000 -0.912223
v 2.786739 0.030717 -0.912188
v 2.344987 2.365401 -0.755012
v 2.210438 2.340976 -0.755039
v 2.210436 2.341141 -0.891787
v 2.344985 2.365566 -0.891760
v 2.476111 1.584196 -0.766473
v 2.362263 1.563529 -0.766496
v 2.362261 1.563668 -0.882205
v 2.476110 1.584335 -0.882182
v 2.629077 0.806930 -0.755732
v 2.492248 0.782091 -0.755760
v 2.492245 0.782258 -0.894826
v 2.629075 0.807097 -0.894798
v 2.246839 3.193057 -0.707795
v 2.427952 3.232646 -0.734682
v 1.900410 1.753376 -5.161194
v 2.081523 1.792965 -5.188082
v 1.946225 1.579530 -5.108558
v 2.127338 1.619119 -5.135445
v 2.292653 3.019210 -0.655158
v 2.473766 3.058800 -0.682045
v 2.154274 2.131026 -4.066587
v 2.010259 2.099546 -4.045207
v 2.046690 1.961310 -4.003353
v 2.190704 1.992790 -4.024733
v 2.232605 2.477890 -2.948373
v 2.110747 2.451254 -2.930282
v 2.141572 2.334286 -2.894867
v 2.263430 2.360922 -2.912958
v 2.328399 2.852304 -1.840423
v 2.181945 2.820291 -1.818681
v 2.218992 2.679712 -1.776117
v 2.365447 2.711725 -1.797859
v -2.246839 3.193057 -0.707795
v -2.427952 3.232646 -0.734682
v -1.900410 1.753376 -5.161194
v -2.081523 1.792965 -5.188082
v -1.946225 1.579530 -5.108558
v -2.127338 1.619119 -5.135445
v -2.292653 3.019210 -0.655158
v -2.473766 3.058800 -0.682045
v -2.154274 2.131026 -4.066587
v -2.010259 2.099546 -4.045207
v -2.046690 1.961310 -4.003353
v -2.190704 1.992790 -4.024733
v -2.232605 2.477890 -2.948373
v -2.110747 2.451254 -2.930282
v -2.141572 2.334286 -2.894867
v -2.263430 2.360922 -2.912958
v -2.328399 2.852304 -1.840423
v -2.181945 2.820291 -1.818681
v -2.218992 2.679712 -1.776117
v -2.365447 2.711725 -1.797859
v -1.885644 1.998671 -4.060276
v -1.998178 2.048681 -4.079071
v -2.198377 0.981240 -4.959677
v -2.310295 1.035937 -4.958884
v -2.246789 0.881360 -4.903123
v -2.358707 0.936057 -4.902329
v -1.917696 1.965778 -3.955883
v -2.030230 2.015788 -3.974677
v -2.255737 1.204764 -4.698493
v -2.166254 1.164998 -4.683548
v -2.202871 1.110465 -4.609406
v -2.292354 1.150231 -4.624351
v -2.180676 1.453067 -4.436120
v -2.104960 1.419419 -4.423474
v -2.135944 1.373276 -4.360738
v -2.211659 1.406924 -4.373384
v -2.089488 1.754582 -4.235898
v -1.998489 1.714142 -4.220699
v -2.035726 1.658684 -4.145300
v -2.126726 1.699124 -4.160498
v -2.617533 -0.000207 -0.740248
v -2.786742 0.030510 -0.740213
v -2.051633 3.117148 -0.736490
v -2.220842 3.147865 -0.736455
v -2.051630 3.117355 -0.908465
v -2.220840 3.148072 -0.908430
v -2.617530 -0.000000 -0.912223
v -2.786739 0.030717 -0.912188
v -2.344987 2.365401 -0.755012
v -2.210438 2.340976 -0.755039
v -2.210436 2.341141 -0.891787
v -2.344985 2.365566 -0.891760
v -2.476111 1.584196 -0.766473
v -2.362263 1.563529 -0.766496
v -2.362261 1.563668 -0.882205
v -2.476110 1.584335 -0.882182
v -2.629077 0.806930 -0.755732
v -2.492248 0.782091 -0.755760
v -2.492245 0.782258 -0.894826
v -2.629075 0.807097 -0.894798
v -2.618535 -0.002749 -4.864508
v -2.777459 0.049242 -4.863121
v -1.972063 1.970825 -4.769364
v -2.130987 2.022816 -4.767978
v -1.970999 1.978530 -4.936402
v -2.129924 2.030521 -4.935015
v -2.617471 0.004956 -5.031545
v -2.776396 0.056947 -5.030158
v -2.276219 1.524887 -4.809013
v -2.149849 1.483546 -4.810116
v -2.149004 1.489672 -4.942937
v -2.275374 1.531013 -4.941835
v -2.428051 1.028785 -4.843102
v -2.321123 0.993804 -4.844035
v -2.320408 0.998987 -4.956421
v -2.427336 1.033968 -4.955488
v -2.600533 0.538398 -4.855450
v -2.472021 0.496357 -4.856571
v -2.471161 0.502587 -4.991644
v -2.599674 0.544628 -4.990523
v -2.306243 1.770279 -4.615346
v -2.332609 1.679327 -4.615346
v 2.306243 1.770279 -4.615346
v 2.332609 1.679327 -4.615346
v 2.306243 1.770279 -4.777168
v 2.332609 1.679327 -4.777168
v -2.306243 1.770279 -4.777168
v -2.332609 1.679327 -4.777168
v 1.577498 1.630702 -4.615346
v 1.577498 1.630702 -4.777168
v 1.577498 1.515004 -4.777168
v 1.577498 1.515004 -4.615346
v 0.788749 1.534130 -4.615346
v 0.788749 1.534130 -4.777168
v 0.788749 1.418433 -4.777168
v 0.788749 1.418433 -4.615346
v -0.000000 1.490461 -4.615346
v -0.000000 1.490461 -4.777168
v 0.000000 1.374763 -4.777168
v 0.000000 1.374763 -4.615346
v -0.788749 1.534130 -4.615346
v -0.788749 1.534130 -4.777168
v -0.788749 1.418433 -4.777168
v -0.788749 1.418433 -4.615346
v -1.577499 1.630702 -4.615346
v -1.577499 1.630702 -4.777168
v -1.577498 1.515004 -4.777168
v -1.577498 1.515004 -4.615346
v -2.281299 3.046132 -0.881854
v 2.281299 3.046132 -0.881854
v -1.955557 1.874889 -4.886033
v 1.955557 1.874889 -4.886033
v 0.892468 2.438933 -0.940767
v 0.892468 1.570674 -4.885084
v -0.000000 2.390745 -0.940767
v -0.000000 1.497670 -4.885084
v -0.892468 2.438933 -0.940767
v -0.892468 1.570674 -4.885084
v -2.009701 0.261783 -4.961679
v -0.892468 0.101085 -4.861409
v 0.892468 0.101085 -4.861409
v 2.009701 0.261783 -4.961679
v -0.000000 0.062520 -4.938185
v 2.036992 2.104326 -3.884989
v 0.892468 1.673993 -3.899005
v -0.000000 1.607192 -3.899005
v -0.892468 1.673993 -3.899005
v -2.036992 2.104326 -3.884989
v 2.118428 2.408582 -2.883944
v 0.892468 1.908153 -2.912925
v -0.000000 1.847557 -2.912925
v -0.892468 1.908153 -2.912925
v -2.118428 2.408582 -2.883944
v 2.199864 2.693244 -1.882899
v 0.892468 2.118675 -1.926847
v -0.000000 2.064283 -1.926846
v -0.892468 2.118675 -1.926847
v -2.199864 2.693244 -1.882899
vt 0.932872 0.007820
vt 0.030384 0.145723
vt 0.044920 0.877920
vt 0.062383 0.877920
vt 0.932872 0.583775
vt 0.069723 0.384485
vt 0.988899 0.614743
vt 0.147036 0.394728
vt 0.168104 0.873373
vt 0.988899 0.115786
vt 0.160764 0.977976
vt 0.915408 0.007820
vt 0.168104 0.484541
vt 0.932872 0.491524
vt 0.988899 0.507239
vt 0.044920 0.489088
vt 0.182680 0.581749
vt 0.932872 0.393229
vt 0.988899 0.408944
vt 0.030343 0.586296
vt 0.189271 0.678957
vt 0.932872 0.295797
vt 0.988899 0.311513
vt 0.023752 0.683504
vt 0.182680 0.776165
vt 0.932872 0.198366
vt 0.988899 0.214081
vt 0.030344 0.780712
vt 0.971436 0.115786
vt 0.971436 0.214081
vt 0.185567 0.873373
vt 0.047830 0.144957
vt 0.988899 0.008283
vt 0.915408 0.100071
vt 0.046944 0.124797
vt 0.147036 0.963186
vt 0.932872 0.100071
vt 0.047807 0.780712
vt 0.971436 0.311513
vt 0.200143 0.776165
vt 0.915408 0.198366
vt 0.041215 0.683504
vt 0.971436 0.408944
vt 0.206735 0.678957
vt 0.915408 0.295797
vt 0.047807 0.586296
vt 0.971436 0.507239
vt 0.200143 0.581749
vt 0.915408 0.393229
vt 0.062383 0.489088
vt 0.048914 0.173604
vt 0.971436 0.614743
vt 0.185567 0.484541
vt 0.915408 0.491524
vt 0.048028 0.153444
vt 0.083451 0.399275
vt 0.069723 0.982523
vt 0.971436 0.008283
vt 0.083451 0.967733
vt 0.029498 0.125563
vt 0.031467 0.174370
vt 0.160764 0.379938
vt 0.030581 0.154210
vt 0.915408 0.583775
vt 0.161558 0.161699
vt 0.148115 0.161609
vt 0.149652 0.124347
vt 0.160522 0.124420
vt 0.028285 0.031756
vt 0.041728 0.031756
vt 0.041728 0.045199
vt 0.028285 0.045199
vt 0.105344 0.128870
vt 0.116215 0.128837
vt 0.117627 0.169781
vt 0.104183 0.169822
vt 0.030806 0.116144
vt 0.030751 0.102701
vt 0.043059 0.102651
vt 0.043113 0.116094
vt 0.144445 0.215141
vt 0.156151 0.211338
vt 0.163390 0.251662
vt 0.152519 0.251550
vt 0.100830 0.329247
vt 0.089157 0.325345
vt 0.097541 0.289006
vt 0.108412 0.288987
vt 0.160961 0.044344
vt 0.150271 0.044272
vt 0.148255 0.010328
vt 0.161558 0.008387
vt 0.110020 0.209398
vt 0.099331 0.209417
vt 0.089157 0.174925
vt 0.101588 0.169809
vt 0.104183 0.008640
vt 0.117488 0.010564
vt 0.115890 0.049072
vt 0.105200 0.049105
vt 0.153632 0.331152
vt 0.164321 0.331262
vt 0.156850 0.369071
vt 0.144445 0.363891
vt 0.159880 0.084145
vt 0.150836 0.084084
vt 0.111893 0.249062
vt 0.102848 0.249078
vt 0.115179 0.088774
vt 0.106134 0.088801
vt 0.157487 0.291522
vt 0.166531 0.291615
vt 0.346028 0.002560
vt 0.364074 0.002560
vt 0.362347 0.058674
vt 0.347755 0.058674
vt 0.022928 0.197040
vt 0.022928 0.215085
vt 0.004883 0.215085
vt 0.004883 0.197040
vt 0.299760 0.189505
vt 0.314352 0.189505
vt 0.316079 0.245620
vt 0.298033 0.245620
vt 0.004883 0.116988
vt 0.022928 0.116988
vt 0.022929 0.135033
vt 0.004883 0.135033
vt 0.274024 0.005795
vt 0.292070 0.005795
vt 0.290343 0.061909
vt 0.275751 0.061909
vt 0.194146 0.233824
vt 0.176100 0.233824
vt 0.177827 0.177710
vt 0.192419 0.177710
vt 0.347877 0.170874
vt 0.362226 0.170874
vt 0.364074 0.226993
vt 0.346028 0.226993
vt 0.192298 0.065510
vt 0.177948 0.065510
vt 0.176100 0.009391
vt 0.194146 0.009391
vt 0.298033 0.021187
vt 0.316079 0.021187
vt 0.314230 0.077305
vt 0.299881 0.077305
vt 0.275872 0.174109
vt 0.290222 0.174109
vt 0.292070 0.230228
vt 0.274024 0.230228
vt 0.348980 0.114775
vt 0.361122 0.114775
vt 0.191194 0.121608
vt 0.179052 0.121608
vt 0.313127 0.133404
vt 0.300985 0.133404
vt 0.276976 0.118011
vt 0.289118 0.118011
vt 0.382481 0.004975
vt 0.401040 0.004975
vt 0.399264 0.090471
vt 0.384257 0.090471
vt 0.007033 0.089790
vt 0.025592 0.089790
vt 0.025592 0.108349
vt 0.007033 0.108349
vt 0.591704 0.109924
vt 0.576697 0.109924
vt 0.574921 0.024428
vt 0.593480 0.024428
vt 0.048694 0.071023
vt 0.030135 0.071098
vt 0.030060 0.052539
vt 0.048619 0.052464
vt 0.526738 0.016237
vt 0.545297 0.016237
vt 0.543521 0.101734
vt 0.528513 0.101734
vt 0.439190 0.007022
vt 0.457749 0.007022
vt 0.455973 0.092519
vt 0.440966 0.092519
vt 0.384382 0.261445
vt 0.399139 0.261445
vt 0.401040 0.346944
vt 0.382481 0.346944
vt 0.441091 0.263492
vt 0.455848 0.263492
vt 0.457749 0.348992
vt 0.439190 0.348992
vt 0.593480 0.366397
vt 0.574921 0.366397
vt 0.576822 0.280898
vt 0.591579 0.280898
vt 0.528638 0.272707
vt 0.543396 0.272707
vt 0.545296 0.358206
vt 0.526738 0.358206
vt 0.385517 0.175959
vt 0.398004 0.175959
vt 0.442226 0.178007
vt 0.454713 0.178007
vt 0.577957 0.195412
vt 0.590444 0.195412
vt 0.529774 0.187221
vt 0.542260 0.187221
vt 0.665612 0.008245
vt 0.685828 0.008245
vt 0.683894 0.134876
vt 0.667547 0.134876
vt 0.048461 0.186057
vt 0.048461 0.206273
vt 0.028245 0.206273
vt 0.028245 0.186057
vt 0.709537 0.139282
vt 0.693190 0.139282
vt 0.691256 0.012650
vt 0.711472 0.012650
vt 0.049243 0.210902
vt 0.049243 0.231118
vt 0.029027 0.231118
vt 0.029027 0.210902
vt 0.611968 0.006182
vt 0.632184 0.006182
vt 0.630250 0.132814
vt 0.613903 0.132814
vt 0.660185 0.519162
vt 0.639969 0.519162
vt 0.641904 0.392531
vt 0.658251 0.392531
vt 0.667683 0.388123
vt 0.683758 0.388123
vt 0.685828 0.514757
vt 0.665613 0.514757
vt 0.658115 0.139284
vt 0.642040 0.139284
vt 0.639969 0.012650
vt 0.660185 0.012650
vt 0.711471 0.519162
vt 0.691255 0.519162
vt 0.693326 0.392529
vt 0.709401 0.392529
vt 0.614039 0.386060
vt 0.630114 0.386060
vt 0.632184 0.512694
vt 0.611968 0.512694
vt 0.668919 0.261500
vt 0.682521 0.261500
vt 0.656878 0.265907
vt 0.643276 0.265907
vt 0.694562 0.265906
vt 0.708164 0.265906
vt 0.615275 0.259438
vt 0.628877 0.259438
vt 0.789833 0.008358
vt 0.769617 0.008497
vt 0.772426 0.135113
vt 0.788773 0.135000
vt 0.029512 0.043846
vt 0.015217 0.029552
vt 0.000923 0.043846
vt 0.015218 0.058141
vt 0.857760 0.139670
vt 0.874095 0.139030
vt 0.871070 0.012420
vt 0.850870 0.013212
vt 0.014991 0.000697
vt 0.000696 0.014992
vt 0.014991 0.029287
vt 0.029286 0.014992
vt 0.763327 0.005956
vt 0.743112 0.006096
vt 0.745921 0.132711
vt 0.762268 0.132598
vt 0.718809 0.517716
vt 0.739025 0.517577
vt 0.736215 0.390962
vt 0.719868 0.391075
vt 0.790386 0.388242
vt 0.774312 0.388353
vt 0.773116 0.514998
vt 0.793331 0.514858
vt 0.718255 0.137833
vt 0.734329 0.137722
vt 0.735525 0.011077
vt 0.715309 0.011217
vt 0.870701 0.519335
vt 0.890901 0.518543
vt 0.883874 0.392088
vt 0.867812 0.392718
vt 0.763881 0.385839
vt 0.747807 0.385950
vt 0.746611 0.512595
vt 0.766827 0.512455
vt 0.788275 0.261630
vt 0.774674 0.261724
vt 0.720366 0.264444
vt 0.733968 0.264350
vt 0.877681 0.265611
vt 0.864090 0.266144
vt 0.761770 0.259228
vt 0.748169 0.259322
vt 0.129566 0.166137
vt 0.143008 0.166331
vt 0.142259 0.129045
vt 0.131390 0.128888
vt 0.037203 0.096378
vt 0.046670 0.086834
vt 0.037126 0.077367
vt 0.027659 0.086911
vt 0.095541 0.125634
vt 0.084674 0.125368
vt 0.082389 0.166273
vt 0.095828 0.166601
vt 0.027678 0.014396
vt 0.036756 0.024312
vt 0.045834 0.016001
vt 0.036756 0.006085
vt 0.137583 0.188229
vt 0.125685 0.185078
vt 0.120679 0.225739
vt 0.131527 0.225028
vt 0.069637 0.351599
vt 0.081414 0.348025
vt 0.074049 0.311466
vt 0.063183 0.311142
vt 0.132644 0.048820
vt 0.143332 0.048974
vt 0.146065 0.015081
vt 0.132807 0.012859
vt 0.063799 0.231540
vt 0.074484 0.231858
vt 0.085618 0.197663
vt 0.073334 0.192201
vt 0.099268 0.005455
vt 0.085925 0.007096
vt 0.086701 0.045628
vt 0.097388 0.045889
vt 0.134802 0.304571
vt 0.124135 0.305269
vt 0.133679 0.342610
vt 0.145780 0.336753
vt 0.132883 0.088636
vt 0.141927 0.088766
vt 0.060819 0.271135
vt 0.069860 0.271404
vt 0.086564 0.085336
vt 0.095606 0.085557
vt 0.128770 0.265214
vt 0.119744 0.265805
vt 0.569805 0.026575
vt 0.551246 0.026603
vt 0.553150 0.112097
vt 0.568157 0.112074
vt 0.033859 0.260744
vt 0.020735 0.247621
vt 0.007612 0.260744
vt 0.020735 0.273867
vt 0.429836 0.261348
vt 0.414830 0.261534
vt 0.414114 0.347046
vt 0.432672 0.346816
vt 0.014162 0.058749
vt 0.001039 0.071872
vt 0.014162 0.084996
vt 0.027286 0.071872
vt 0.523150 0.010857
vt 0.504591 0.010885
vt 0.506495 0.096379
vt 0.521502 0.096356
vt 0.480118 0.353945
vt 0.498677 0.353918
vt 0.496774 0.268424
vt 0.481766 0.268446
vt 0.568288 0.283048
vt 0.553530 0.283070
vt 0.551757 0.368572
vt 0.570316 0.368544
vt 0.481635 0.097473
vt 0.496393 0.097451
vt 0.498165 0.011949
vt 0.479606 0.011976
vt 0.428432 0.004874
vt 0.409874 0.005104
vt 0.412835 0.090573
vt 0.427591 0.090390
vt 0.521633 0.267330
vt 0.506875 0.267352
vt 0.505103 0.352854
vt 0.523662 0.352826
vt 0.567025 0.197564
vt 0.554538 0.197582
vt 0.482898 0.182957
vt 0.495385 0.182938
vt 0.415030 0.176038
vt 0.427516 0.175883
vt 0.520370 0.181846
vt 0.507883 0.181864
vt 0.227255 0.231794
vt 0.245300 0.231954
vt 0.244070 0.175826
vt 0.229478 0.175697
vt 0.014434 0.192139
vt 0.027194 0.179378
vt 0.014434 0.166618
vt 0.001674 0.179378
vt 0.323877 0.061895
vt 0.338469 0.061923
vt 0.340305 0.005812
vt 0.322259 0.005777
vt 0.015932 0.165455
vt 0.028692 0.152694
vt 0.015932 0.139934
vt 0.003172 0.152694
vt 0.269918 0.012789
vt 0.251872 0.012668
vt 0.253226 0.068793
vt 0.267818 0.068890
vt 0.205029 0.230851
vt 0.223074 0.231071
vt 0.222032 0.174939
vt 0.207440 0.174762
vt 0.230593 0.063502
vt 0.244941 0.063629
vt 0.247286 0.007529
vt 0.229241 0.007370
vt 0.208930 0.062571
vt 0.223279 0.062746
vt 0.225811 0.006655
vt 0.207767 0.006435
vt 0.321823 0.230209
vt 0.339868 0.230244
vt 0.338129 0.174123
vt 0.323780 0.174095
vt 0.266949 0.181087
vt 0.252600 0.180992
vt 0.250379 0.237096
vt 0.268424 0.237217
vt 0.231200 0.119609
vt 0.243341 0.119716
vt 0.209350 0.118679
vt 0.221490 0.118827
vt 0.337134 0.118022
vt 0.324993 0.117998
vt 0.266219 0.124982
vt 0.254078 0.124901
vt 0.189840 0.356132
vt 0.202248 0.352545
vt 0.224588 0.455549
vt 0.208808 0.455538
vt 0.011660 0.217622
vt 0.023506 0.219582
vt 0.020157 0.239825
vt 0.008311 0.237865
vt 0.104169 0.452917
vt 0.088389 0.452888
vt 0.110986 0.349939
vt 0.123385 0.353557
vt 0.013220 0.276505
vt 0.025066 0.278465
vt 0.021716 0.298708
vt 0.009870 0.296748
vt 0.885231 0.033402
vt 0.903940 0.033154
vt 0.905125 0.122498
vt 0.886416 0.122746
vt 0.938101 0.026935
vt 0.956803 0.026741
vt 0.957693 0.112492
vt 0.938991 0.112686
vt 0.942791 0.478944
vt 0.961492 0.478750
vt 0.962382 0.564501
vt 0.943680 0.564695
vt 0.122253 0.982653
vt 0.109842 0.986227
vt 0.087615 0.883197
vt 0.103395 0.883226
vt 0.891277 0.489148
vt 0.909986 0.488900
vt 0.911171 0.578244
vt 0.892462 0.578493
vt 0.208510 0.885848
vt 0.224290 0.885859
vt 0.201807 0.988832
vt 0.189405 0.985228
vt 0.941838 0.387109
vt 0.960540 0.386915
vt 0.074637 0.775596
vt 0.090417 0.775625
vt 0.890058 0.397277
vt 0.908767 0.397029
vt 0.221756 0.778280
vt 0.237536 0.778290
vt 0.940891 0.295815
vt 0.959592 0.295621
vt 0.068875 0.668008
vt 0.084655 0.668037
vt 0.888847 0.305947
vt 0.907555 0.305699
vt 0.227787 0.670706
vt 0.243567 0.670717
vt 0.939944 0.204521
vt 0.958645 0.204327
vt 0.075024 0.560442
vt 0.090804 0.560470
vt 0.887635 0.214617
vt 0.906344 0.214369
vt 0.221905 0.563125
vt 0.237685 0.563136
vt 0.218333 0.987955
vt 0.254873 0.828640
vt 0.366448 0.836060
vt 0.333290 0.985945
vt 0.269128 0.637058
vt 0.256569 0.474089
vt 0.369962 0.493090
vt 0.380572 0.646231
vt 0.263386 0.732952
vt 0.375513 0.741295
vt 0.666772 0.984641
vt 0.691961 0.865941
vt 0.851223 0.870159
vt 0.835131 0.987955
vt 0.706923 0.664854
vt 0.699579 0.543733
vt 0.866574 0.565372
vt 0.865056 0.684252
vt 0.702790 0.765647
vt 0.860457 0.777378
vt 0.598688 0.661434
vt 0.592153 0.529219
vt 0.594900 0.757619
vt 0.584412 0.853305
vt 0.558381 0.983097
vt 0.489186 0.653517
vt 0.481411 0.510587
vt 0.484499 0.749404
vt 0.474943 0.844929
vt 0.446101 0.985135
vn -0.000000 0.000000 1.000000
vn -0.000000 0.000000 1.000000
vn 0.000000 0.000000 1.000000
vn 0.000000 0.000000 1.000000
vn 0.680303 0.732931 0.000000
vn 0.680303 0.732931 0.000000
vn 0.680303 0.732931 0.000000
vn 0.680303 0.732931 0.000000
vn 0.000000 0.000000 -1.000000
vn 0.000000 0.000000 -1.000000
vn 0.000000 0.000000 -1.000000
vn 0.000000 0.000000 -1.000000
vn -0.680302 0.732932 0.000000
vn -0.680302 0.732932 0.000000
vn -0.680302 0.732932 0.000000
vn -0.680302 0.732932 0.000000
vn -0.230716 -0.973021 0.000000
vn -0.230716 -0.973021 0.000000
vn -0.191517 -0.981489 0.000000
vn -0.191517 -0.981489 0.000000
vn 0.228374 0.973573 0.000000
vn 0.228374 0.973573 0.000000
vn 0.187219 0.982318 0.000000
vn 0.187219 0.982318 0.000000
vn -0.187219 0.982318 0.000000
vn -0.187219 0.982318 0.000000
vn -0.228374 0.973573 0.000000
vn -0.228374 0.973573 0.000000
vn 0.000000 0.000000 -1.000000
vn 0.000000 0.000000 -1.000000
vn 0.000000 0.000000 -1.000000
vn 0.000000 0.000000 -1.000000
vn 0.191517 -0.981489 0.000000
vn 0.191517 -0.981489 0.000000
vn 0.230716 -0.973021 0.000000
vn 0.230716 -0.973021 0.000000
vn -0.000000 0.000000 1.000000
vn -0.000000 0.000000 1.000000
vn -0.000000 0.000000 1.000000
vn -0.000000 0.000000 1.000000
vn -0.108239 0.994125 0.000000
vn -0.108239 0.994125 0.000000
vn 0.000000 0.000000 -1.000000
vn 0.000000 0.000000 -1.000000
vn 0.108239 -0.994125 0.000000
vn 0.108239 -0.994125 0.000000
vn 0.000000 0.000000 1.000000
vn -0.000000 0.000000 1.000000
vn -0.000000 1.000000 0.000000
vn -0.000000 1.000000 0.000000
vn 0.000000 0.000000 -1.000000
vn 0.000000 0.000000 -1.000000
vn 0.000000 -1.000000 0.000000
vn 0.000000 -1.000000 0.000000
vn 0.000000 0.000000 1.000000
vn 0.000000 0.000000 1.000000
vn 0.108239 0.994125 0.000000
vn 0.108239 0.994125 0.000000
vn 0.000000 0.000000 -1.000000
vn 0.000000 0.000000 -1.000000
vn -0.108239 -0.994125 0.000000
vn -0.108239 -0.994125 0.000000
vn 0.000000 0.000000 1.000000
vn 0.000000 0.000000 1.000000
vn -0.310764 0.370310 -0.875383
vn -0.310765 0.370310 -0.875383
vn -0.323352 0.406467 -0.854534
vn -0.323352 0.406467 -0.854534
vn 0.204447 -0.405402 -0.890983
vn 0.204447 -0.405402 -0.890983
vn 0.204447 -0.405402 -0.890983
vn 0.204447 -0.405402 -0.890983
vn 0.334445 -0.439234 0.833799
vn 0.334445 -0.439234 0.833799
vn 0.322510 -0.404034 0.856004
vn 0.322510 -0.404034 0.856005
vn -0.323954 0.869285 0.373360
vn -0.323954 0.869285 0.373360
vn -0.323954 0.869285 0.373360
vn -0.323954 0.869285 0.373360
vn 0.912014 0.374403 -0.167492
vn 0.912014 0.374403 -0.167492
vn 0.910010 0.379676 -0.166518
vn 0.910404 0.378645 -0.166709
vn -0.893747 -0.428063 0.134087
vn -0.893747 -0.428063 0.134087
vn -0.895592 -0.423927 0.134910
vn -0.896038 -0.422920 0.135110
vn -0.388375 0.682286 -0.619395
vn -0.388364 0.683433 -0.618137
vn -0.386153 0.741007 -0.549358
vn -0.386153 0.741007 -0.549359
vn -0.910951 -0.381316 0.157371
vn -0.911598 -0.380313 0.156047
vn -0.914283 -0.376089 0.150482
vn -0.914283 -0.376089 0.150482
vn 0.370475 -0.698076 0.612730
vn 0.370475 -0.698076 0.612730
vn 0.375450 -0.649215 0.661481
vn 0.375483 -0.648797 0.661873
vn 0.901706 0.417437 -0.112576
vn 0.901254 0.417342 -0.116477
vn 0.903633 0.417801 -0.094281
vn 0.903633 0.417801 -0.094281
vn -0.364149 0.532177 -0.764319
vn -0.364153 0.532191 -0.764308
vn -0.903139 -0.402219 0.150195
vn -0.903005 -0.402671 0.149797
vn 0.364718 -0.534051 0.762739
vn 0.364715 -0.534043 0.762746
vn 0.903676 0.400410 -0.151792
vn 0.903541 0.400867 -0.151389
vn -0.003214 -0.016843 0.999853
vn -0.003214 -0.016843 0.999853
vn -0.001987 -0.020593 0.999786
vn -0.001987 -0.020593 0.999786
vn -0.310962 0.949320 0.045765
vn -0.310962 0.949320 0.045765
vn -0.310962 0.949320 0.045765
vn -0.310962 0.949320 0.045765
vn -0.014698 0.071523 -0.997331
vn -0.014698 0.071523 -0.997331
vn -0.015925 0.075262 -0.997037
vn -0.015925 0.075262 -0.997037
vn 0.310962 -0.949320 -0.045765
vn 0.310962 -0.949320 -0.045765
vn 0.310962 -0.949320 -0.045765
vn 0.310962 -0.949320 -0.045765
vn 0.940383 0.339980 0.009695
vn 0.940383 0.339980 0.009695
vn 0.941718 0.336270 0.009516
vn 0.941718 0.336270 0.009516
vn -0.959519 -0.281560 -0.006879
vn -0.959519 -0.281560 -0.006879
vn -0.958400 -0.285340 -0.007061
vn -0.958400 -0.285340 -0.007061
vn 0.014778 -0.071766 0.997312
vn 0.014778 -0.071766 0.997312
vn 0.016596 -0.077314 0.996869
vn 0.016596 -0.077314 0.996869
vn -0.941632 -0.336510 -0.009529
vn -0.941632 -0.336510 -0.009529
vn -0.939644 -0.342014 -0.009795
vn -0.939644 -0.342014 -0.009795
vn 0.003889 0.014784 -0.999883
vn 0.003889 0.014784 -0.999883
vn 0.002068 0.020349 -0.999791
vn 0.002068 0.020349 -0.999791
vn 0.958473 0.285095 0.007050
vn 0.958473 0.285095 0.007050
vn 0.960127 0.279484 0.006781
vn 0.960127 0.279484 0.006781
vn 0.005987 -0.044942 0.998972
vn 0.005987 -0.044942 0.998972
vn -0.950772 -0.309782 -0.008238
vn -0.950772 -0.309782 -0.008238
vn -0.006727 0.047207 -0.998863
vn -0.006727 0.047207 -0.998863
vn 0.950029 0.312049 0.008346
vn 0.950029 0.312049 0.008346
vn -0.003695 0.019233 0.999808
vn -0.003695 0.019233 0.999808
vn -0.003217 0.016596 0.999857
vn -0.003217 0.016596 0.999857
vn -0.178612 0.983919 0.001187
vn -0.178612 0.983919 0.001187
vn -0.178612 0.983919 0.001187
vn -0.178612 0.983919 0.001187
vn -0.003245 0.019002 -0.999814
vn -0.003245 0.019002 -0.999814
vn -0.003724 0.021638 -0.999759
vn -0.003724 0.021638 -0.999759
vn 0.178613 -0.983919 -0.001186
vn 0.178613 -0.983919 -0.001186
vn 0.178613 -0.983919 -0.001186
vn 0.178613 -0.983919 -0.001186
vn 0.979998 0.199009 0.000223
vn 0.979998 0.199009 0.000223
vn 0.980527 0.196382 0.000220
vn 0.980527 0.196382 0.000220
vn -0.987417 -0.158138 -0.000174
vn -0.987417 -0.158138 -0.000174
vn -0.986989 -0.160785 -0.000177
vn -0.986989 -0.160785 -0.000177
vn 0.003275 -0.019164 0.999811
vn 0.003275 -0.019164 0.999811
vn 0.003984 -0.023077 0.999726
vn 0.003984 -0.023077 0.999726
vn -0.980495 -0.196545 -0.000222
vn -0.980495 -0.196544 -0.000222
vn -0.979705 -0.200444 -0.000226
vn -0.979705 -0.200444 -0.000226
vn 0.003956 -0.020672 -0.999779
vn 0.003956 -0.020672 -0.999779
vn 0.003246 -0.016759 -0.999854
vn 0.003246 -0.016759 -0.999854
vn 0.987016 0.160622 0.000179
vn 0.987016 0.160622 0.000179
vn 0.987647 0.156695 0.000174
vn 0.987647 0.156695 0.000174
vn -0.000129 -0.000414 1.000000
vn -0.000129 -0.000414 1.000000
vn -0.984062 -0.177823 -0.000198
vn -0.984062 -0.177823 -0.000198
vn -0.000157 0.001992 -0.999998
vn -0.000157 0.001992 -0.999998
vn 0.983776 0.179402 0.000202
vn 0.983776 0.179402 0.000202
vn -0.245668 0.923233 -0.295447
vn -0.245668 0.923233 -0.295447
vn -0.245529 0.923865 -0.293578
vn -0.245529 0.923865 -0.293578
vn -0.073816 -0.306763 -0.948919
vn -0.073816 -0.306763 -0.948919
vn -0.073816 -0.306763 -0.948919
vn -0.073816 -0.306763 -0.948919
vn 0.243566 -0.932024 0.268342
vn 0.243566 -0.932024 0.268342
vn 0.243413 -0.932604 0.266458
vn 0.243413 -0.932604 0.266458
vn 0.073814 0.306763 0.948919
vn 0.073814 0.306763 0.948919
vn 0.073814 0.306763 0.948919
vn 0.073814 0.306763 0.948919
vn 0.965578 0.206622 -0.158005
vn 0.965579 0.206622 -0.158005
vn 0.965752 0.207235 -0.156133
vn 0.965752 0.207235 -0.156133
vn -0.967834 -0.215994 0.129016
vn -0.967833 -0.215994 0.129016
vn -0.967715 -0.215393 0.130897
vn -0.967715 -0.215393 0.130897
vn -0.243558 0.932058 -0.268229
vn -0.243558 0.932058 -0.268229
vn -0.243331 0.932918 -0.265431
vn -0.243331 0.932918 -0.265431
vn -0.965741 -0.207201 0.156245
vn -0.965741 -0.207201 0.156245
vn -0.965482 -0.206291 0.159024
vn -0.965482 -0.206291 0.159024
vn 0.245743 -0.922887 0.296463
vn 0.245743 -0.922887 0.296463
vn 0.245537 -0.923828 0.293690
vn 0.245537 -0.923828 0.293690
vn 0.967721 0.215431 -0.130785
vn 0.967721 0.215431 -0.130785
vn 0.967896 0.216323 -0.127994
vn 0.967896 0.216322 -0.127994
vn -0.244613 0.927846 -0.281543
vn -0.244613 0.927846 -0.281543
vn -0.966861 -0.211515 0.142969
vn -0.966861 -0.211515 0.142969
vn 0.244526 -0.928207 0.280426
vn 0.244526 -0.928207 0.280426
vn 0.966775 0.211153 -0.144087
vn 0.966775 0.211153 -0.144087
vn 0.245668 0.923233 -0.295447
vn 0.245529 0.923866 -0.293578
vn 0.245529 0.923865 -0.293578
vn 0.245668 0.923233 -0.295447
vn 0.073816 -0.306763 -0.948919
vn 0.073816 -0.306763 -0.948919
vn 0.073816 -0.306763 -0.948919
vn 0.073816 -0.306763 -0.948919
vn -0.243566 -0.932024 0.268342
vn -0.243413 -0.932604 0.266458
vn -0.243413 -0.932604 0.266458
vn -0.243566 -0.932024 0.268342
vn -0.073813 0.306763 0.948919
vn -0.073813 0.306763 0.948919
vn -0.073813 0.306763 0.948919
vn -0.073813 0.306763 0.948919
vn -0.965578 0.206622 -0.158005
vn -0.965752 0.207236 -0.156132
vn -0.965752 0.207236 -0.156132
vn -0.965578 0.206622 -0.158005
vn 0.967834 -0.215994 0.129016
vn 0.967715 -0.215393 0.130897
vn 0.967715 -0.215393 0.130897
vn 0.967833 -0.215994 0.129016
vn 0.243558 0.932058 -0.268229
vn 0.243331 0.932918 -0.265432
vn 0.243331 0.932918 -0.265432
vn 0.243558 0.932058 -0.268229
vn 0.965741 -0.207202 0.156245
vn 0.965482 -0.206292 0.159024
vn 0.965482 -0.206292 0.159024
vn 0.965741 -0.207202 0.156245
vn -0.245743 -0.922887 0.296463
vn -0.245537 -0.923828 0.293690
vn -0.245537 -0.923828 0.293690
vn -0.245743 -0.922887 0.296463
vn -0.967721 0.215431 -0.130785
vn -0.967896 0.216322 -0.127994
vn -0.967896 0.216322 -0.127994
vn -0.967721 0.215431 -0.130785
vn 0.244613 0.927846 -0.281543
vn 0.244613 0.927846 -0.281543
vn 0.966861 -0.211516 0.142969
vn 0.966861 -0.211515 0.142969
vn -0.244526 -0.928207 0.280426
vn -0.244526 -0.928207 0.280426
vn -0.966775 0.211154 -0.144087
vn -0.966775 0.211154 -0.144087
vn 0.310765 0.370309 -0.875383
vn 0.323352 0.406466 -0.854534
vn 0.323352 0.406466 -0.854534
vn 0.310765 0.370309 -0.875383
vn -0.204447 -0.405402 -0.890983
vn -0.204447 -0.405402 -0.890983
vn -0.204447 -0.405402 -0.890983
vn -0.204447 -0.405402 -0.890983
vn -0.334447 -0.439233 0.833798
vn -0.322512 -0.404034 0.856004
vn -0.322512 -0.404034 0.856004
vn -0.334447 -0.439233 0.833798
vn 0.323954 0.869285 0.373360
vn 0.323954 0.869285 0.373360
vn 0.323954 0.869285 0.373360
vn 0.323954 0.869285 0.373360
vn -0.912014 0.374403 -0.167492
vn -0.910404 0.378646 -0.166709
vn -0.910010 0.379676 -0.166518
vn -0.912014 0.374403 -0.167492
vn 0.893747 -0.428063 0.134087
vn 0.896038 -0.422920 0.135110
vn 0.895592 -0.423928 0.134910
vn 0.893747 -0.428063 0.134087
vn 0.388376 0.682286 -0.619395
vn 0.386153 0.741007 -0.549358
vn 0.386153 0.741007 -0.549358
vn 0.388365 0.683433 -0.618136
vn 0.910951 -0.381316 0.157371
vn 0.914283 -0.376089 0.150481
vn 0.914283 -0.376089 0.150481
vn 0.911598 -0.380313 0.156047
vn -0.370474 -0.698077 0.612730
vn -0.375484 -0.648796 0.661873
vn -0.375450 -0.649215 0.661481
vn -0.370474 -0.698077 0.612730
vn -0.901706 0.417437 -0.112575
vn -0.903634 0.417800 -0.094281
vn -0.903634 0.417800 -0.094281
vn -0.901255 0.417341 -0.116477
vn 0.364150 0.532177 -0.764318
vn 0.364154 0.532190 -0.764307
vn 0.903139 -0.402220 0.150195
vn 0.903004 -0.402671 0.149797
vn -0.364716 -0.534042 0.762746
vn -0.364718 -0.534050 0.762739
vn -0.903677 0.400410 -0.151791
vn -0.903541 0.400867 -0.151388
vn 0.003696 0.019233 0.999808
vn 0.003217 0.016596 0.999857
vn 0.003217 0.016596 0.999857
vn 0.003696 0.019233 0.999808
vn 0.178612 0.983919 0.001187
vn 0.178612 0.983919 0.001187
vn 0.178612 0.983919 0.001187
vn 0.178612 0.983919 0.001187
vn 0.003245 0.019002 -0.999814
vn 0.003723 0.021638 -0.999759
vn 0.003723 0.021638 -0.999759
vn 0.003245 0.019002 -0.999814
vn -0.178613 -0.983919 -0.001186
vn -0.178613 -0.983919 -0.001186
vn -0.178613 -0.983919 -0.001186
vn -0.178613 -0.983919 -0.001186
vn -0.979998 0.199010 0.000223
vn -0.980527 0.196382 0.000221
vn -0.980527 0.196382 0.000221
vn -0.979998 0.199010 0.000223
vn 0.987417 -0.158138 -0.000174
vn 0.986989 -0.160785 -0.000177
vn 0.986989 -0.160785 -0.000177
vn 0.987417 -0.158138 -0.000174
vn -0.003275 -0.019164 0.999811
vn -0.003985 -0.023077 0.999726
vn -0.003985 -0.023077 0.999726
vn -0.003275 -0.019164 0.999811
vn 0.980495 -0.196545 -0.000222
vn 0.979705 -0.200444 -0.000226
vn 0.979705 -0.200444 -0.000226
vn 0.980495 -0.196545 -0.000222
vn -0.003956 -0.020672 -0.999779
vn -0.003246 -0.016759 -0.999854
vn -0.003246 -0.016759 -0.999854
vn -0.003956 -0.020672 -0.999779
vn -0.987016 0.160622 0.000179
vn -0.987647 0.156695 0.000175
vn -0.987647 0.156695 0.000175
vn -0.987016 0.160622 0.000179
vn 0.000129 -0.000414 1.000000
vn 0.000129 -0.000414 1.000000
vn 0.984062 -0.177823 -0.000198
vn 0.984062 -0.177823 -0.000198
vn 0.000157 0.001992 -0.999998
vn 0.000157 0.001992 -0.999998
vn -0.983776 0.179402 0.000202
vn -0.983776 0.179402 0.000202
vn 0.003213 -0.016843 0.999853
vn 0.001987 -0.020593 0.999786
vn 0.001987 -0.020593 0.999786
vn 0.003213 -0.016843 0.999853
vn 0.310962 0.949320 0.045765
vn 0.310962 0.949320 0.045765
vn 0.310962 0.949320 0.045765
vn 0.310962 0.949320 0.045765
vn 0.014698 0.071523 -0.997331
vn 0.015925 0.075262 -0.997037
vn 0.015925 0.075262 -0.997037
vn 0.014698 0.071523 -0.997331
vn -0.310963 -0.949320 -0.045765
vn -0.310963 -0.949320 -0.045765
vn -0.310963 -0.949320 -0.045765
vn -0.310963 -0.949320 -0.045765
vn -0.940383 0.339980 0.009695
vn -0.941718 0.336270 0.009516
vn -0.941718 0.336270 0.009516
vn -0.940383 0.339980 0.009695
vn 0.959519 -0.281560 -0.006879
vn 0.958400 -0.285340 -0.007061
vn 0.958400 -0.285340 -0.007061
vn 0.959519 -0.281560 -0.006879
vn -0.014776 -0.071766 0.997312
vn -0.016595 -0.077314 0.996869
vn -0.016595 -0.077314 0.996869
vn -0.014776 -0.071766 0.997312
vn 0.941632 -0.336511 -0.009529
vn 0.939644 -0.342014 -0.009795
vn 0.939644 -0.342014 -0.009795
vn 0.941631 -0.336511 -0.009529
vn -0.003889 0.014784 -0.999883
vn -0.002068 0.020349 -0.999791
vn -0.002068 0.020349 -0.999791
vn -0.003889 0.014784 -0.999883
vn -0.958474 0.285094 0.007050
vn -0.960127 0.279483 0.006781
vn -0.960127 0.279483 0.006781
vn -0.958474 0.285094 0.007050
vn -0.005985 -0.044942 0.998972
vn -0.005985 -0.044942 0.998972
vn 0.950772 -0.309783 -0.008238
vn 0.950772 -0.309783 -0.008238
vn 0.006726 0.047207 -0.998863
vn 0.006726 0.047207 -0.998863
vn -0.950029 0.312049 0.008346
vn -0.950029 0.312049 0.008346
vn -0.000001 0.000000 1.000000
vn -0.000001 0.000000 1.000000
vn -0.000000 0.000000 1.000000
vn -0.000000 0.000000 1.000000
vn 0.960460 0.278419 0.000000
vn 0.960460 0.278419 0.000000
vn 0.960460 0.278419 0.000000
vn 0.960460 0.278419 0.000000
vn 0.000000 0.000000 -1.000000
vn 0.000000 0.000000 -1.000000
vn 0.000000 0.000000 -1.000000
vn 0.000000 0.000000 -1.000000
vn -0.960459 0.278421 0.000000
vn -0.960459 0.278421 0.000000
vn -0.960459 0.278421 0.000000
vn -0.960459 0.278421 0.000000
vn -0.212638 -0.977131 0.000000
vn -0.212638 -0.977131 0.000000
vn -0.166626 -0.986020 0.000000
vn -0.166626 -0.986020 0.000000
vn 0.188112 0.982148 0.000000
vn 0.188112 0.982148 0.000000
vn 0.153767 0.988107 0.000000
vn 0.153767 0.988107 0.000000
vn -0.153767 0.988107 0.000000
vn -0.153767 0.988107 0.000000
vn -0.188112 0.982148 0.000000
vn -0.188112 0.982148 0.000000
vn 0.000001 0.000000 -1.000000
vn 0.000001 0.000000 -1.000000
vn 0.000000 0.000000 -1.000000
vn 0.000000 0.000000 -1.000000
vn 0.166626 -0.986020 0.000000
vn 0.166626 -0.986020 0.000000
vn 0.212638 -0.977131 0.000000
vn 0.212638 -0.977131 0.000000
vn 0.000000 0.000000 1.000000
vn 0.000000 0.000000 1.000000
vn 0.000001 0.000000 1.000000
vn 0.000001 0.000000 1.000000
vn -0.088551 0.996072 0.000000
vn -0.088551 0.996072 0.000000
vn 0.000000 0.000000 -1.000000
vn 0.000000 0.000000 -1.000000
vn 0.088551 -0.996072 0.000000
vn 0.088551 -0.996072 0.000000
vn -0.000000 0.000000 1.000000
vn 0.000000 0.000000 1.000000
vn 0.000000 1.000000 0.000000
vn 0.000000 1.000000 0.000000
vn 0.000000 0.000000 -1.000000
vn 0.000000 0.000000 -1.000000
vn -0.000000 -1.000000 0.000000
vn -0.000000 -1.000000 0.000000
vn -0.000000 0.000000 1.000000
vn -0.000000 0.000000 1.000000
vn 0.088551 0.996072 0.000000
vn 0.088551 0.996072 0.000000
vn 0.000000 0.000000 -1.000000
vn 0.000000 0.000000 -1.000000
vn -0.088551 -0.996072 0.000000
vn -0.088551 -0.996072 0.000000
vn -0.000000 0.000000 1.000000
vn -0.000000 0.000000 1.000000
vn 0.375879 0.882250 -0.283461
vn 0.265293 0.917291 -0.296978
vn 0.255780 0.932454 -0.255161
vn 0.376544 0.891080 -0.253360
vn -0.265293 0.917292 -0.296978
vn -0.375879 0.882250 -0.283461
vn -0.376544 0.891080 -0.253360
vn -0.255780 0.932454 -0.255161
vn -0.000000 0.950214 -0.311599
vn -0.000000 0.965012 -0.262205
vn 0.049764 0.015962 -0.998634
vn 0.014580 0.013743 -0.999799
vn 0.006975 0.013262 -0.999888
vn 0.049764 0.015962 -0.998634
vn -0.014580 0.013743 -0.999799
vn -0.049764 0.015962 -0.998634
vn -0.049764 0.015962 -0.998634
vn -0.006974 0.013262 -0.999888
vn -0.000000 0.010130 -0.999949
vn 0.000000 0.010130 -0.999949
vn -0.224020 0.957264 -0.182920
vn -0.335476 0.921600 -0.195217
vn -0.311633 0.939152 -0.144495
vn -0.210748 0.968990 -0.129011
vn -0.000000 0.985244 -0.171155
vn -0.000000 0.994227 -0.107300
vn 0.224020 0.957264 -0.182920
vn 0.210748 0.968990 -0.129011
vn 0.335476 0.921600 -0.195217
vn 0.311633 0.939152 -0.144495
vn -0.247051 0.942783 -0.223887
vn -0.366468 0.904384 -0.218612
vn -0.000000 0.974822 -0.222983
vn 0.247051 0.942783 -0.223887
vn 0.366468 0.904384 -0.218612
s 1
g pCube8
usemtl initialShadingGroup
f 1/59/1 2/57/2 28/3/3 25/4/4
s off
f 3/55/5 4/51/6 6/61/7 5/63/8
s 2
f 26/9/9 27/31/10 8/11/11 7/36/12
s off
f 7/35/13 8/32/14 2/2/15 1/60/16
s 3
f 2/58/17 8/33/18 27/10/19 28/29/20
s 4
f 7/12/21 1/1/22 25/37/23 26/34/24
f 10/54/25 9/14/26 3/5/27 5/64/28
s 2
f 5/8/29 6/62/30 11/53/31 10/13/32
s 3
f 12/47/33 11/15/34 6/7/35 4/52/36
s 1
f 9/50/37 12/16/38 4/6/39 3/56/40
s 4
f 14/49/41 13/18/42 9/14/26 10/54/25
s 2
f 10/13/32 11/53/31 15/48/43 14/17/44
s 3
f 16/43/45 15/19/46 11/15/34 12/47/33
s 1
f 13/46/47 16/20/48 12/16/38 9/50/37
s 4
f 18/45/49 17/22/50 13/18/42 14/49/41
s 2
f 14/17/44 15/48/43 19/44/51 18/21/52
s 3
f 20/39/53 19/23/54 15/19/46 16/43/45
s 1
f 17/42/55 20/24/56 16/20/48 13/46/47
s 4
f 22/41/57 21/26/58 17/22/50 18/45/49
s 2
f 18/21/52 19/44/51 23/40/59 22/25/60
s 3
f 24/30/61 23/27/62 19/23/54 20/39/53
s 1
f 21/38/63 24/28/64 20/24/56 17/42/55
s 4
f 26/34/24 25/37/23 21/26/58 22/41/57
s 2
f 22/25/60 23/40/59 27/31/10 26/9/9
s 3
f 28/29/20 27/10/19 23/27/62 24/30/61
s 1
f 25/4/4 28/3/3 24/28/64 21/38/63
s 9
f 29/65/65 30/66/66 45/67/67 46/68/68
s off
f 31/69/69 32/70/70 34/71/71 33/72/72
s 10
f 47/73/73 48/74/74 36/75/75 35/76/76
s off
f 35/77/77 36/78/78 30/79/79 29/80/80
s 11
f 30/81/81 36/82/82 48/83/83 45/84/84
s 12
f 35/85/85 29/86/86 46/87/87 47/88/88
s 9
f 38/89/89 37/90/90 32/91/91 31/92/92
s 12
f 39/93/93 38/94/94 31/95/95 33/96/96
s 10
f 33/97/97 34/98/98 40/99/99 39/100/100
s 11
f 37/101/101 40/102/102 34/103/103 32/104/104
s 9
f 42/105/105 41/106/106 37/90/90 38/89/89
s 12
f 43/107/107 42/108/108 38/94/94 39/93/93
s 10
f 39/100/100 40/99/99 44/109/109 43/110/110
s 11
f 41/111/111 44/112/112 40/102/102 37/101/101
s 9
f 46/68/68 45/67/67 41/106/106 42/105/105
s 12
f 47/88/88 46/87/87 42/108/108 43/107/107
s 10
f 43/110/110 44/109/109 48/74/74 47/73/73
s 11
f 45/84/84 48/83/83 44/112/112 41/111/111
s 17
f 49/113/113 50/114/114 65/115/115 66/116/116
s off
f 51/117/117 52/118/118 54/119/119 53/120/120
s 18
f 67/121/121 68/122/122 56/123/123 55/124/124
s off
f 55/125/125 56/126/126 50/127/127 49/128/128
s 19
f 50/129/129 56/130/130 68/131/131 65/132/132
s 20
f 55/133/133 49/134/134 66/135/135 67/136/136
s 17
f 58/137/137 57/138/138 52/139/139 51/140/140
s 20
f 59/141/141 58/142/142 51/143/143 53/144/144
s 18
f 53/145/145 54/146/146 60/147/147 59/148/148
s 19
f 57/149/149 60/150/150 54/151/151 52/152/152
s 17
f 62/153/153 61/154/154 57/138/138 58/137/137
s 20
f 63/155/155 62/156/156 58/142/142 59/141/141
s 18
f 59/148/148 60/147/147 64/157/157 63/158/158
s 19
f 61/159/159 64/160/160 60/150/150 57/149/149
s 17
f 66/116/116 65/115/115 61/154/154 62/153/153
s 20
f 67/136/136 66/135/135 62/156/156 63/155/155
s 18
f 63/158/158 64/157/157 68/122/122 67/121/121
s 19
f 65/132/132 68/131/131 64/160/160 61/159/159
s 25
f 69/161/161 70/162/162 85/163/163 86/164/164
s off
f 71/165/165 72/166/166 74/167/167 73/168/168
s 26
f 87/169/169 88/170/170 76/171/171 75/172/172
s off
f 75/173/173 76/174/174 70/175/175 69/176/176
s 27
f 70/177/177 76/178/178 88/179/179 85/180/180
s 28
f 75/181/181 69/182/182 86/183/183 87/184/184
s 25
f 78/185/185 77/186/186 72/187/187 71/188/188
s 28
f 79/189/189 78/190/190 71/191/191 73/192/192
s 26
f 73/193/193 74/194/194 80/195/195 79/196/196
s 27
f 77/197/197 80/198/198 74/199/199 72/200/200
s 25
f 82/201/201 81/202/202 77/186/186 78/185/185
s 28
f 83/203/203 82/204/204 78/190/190 79/189/189
s 26
f 79/196/196 80/195/195 84/205/205 83/206/206
s 27
f 81/207/207 84/208/208 80/198/198 77/197/197
s 25
f 86/164/164 85/163/163 81/202/202 82/201/201
s 28
f 87/184/184 86/183/183 82/204/204 83/203/203
s 26
f 83/206/206 84/205/205 88/170/170 87/169/169
s 27
f 85/180/180 88/179/179 84/208/208 81/207/207
s 33
f 89/209/209 90/210/210 105/211/211 106/212/212
s off
f 91/213/213 92/214/214 94/215/215 93/216/216
s 34
f 107/217/217 108/218/218 96/219/219 95/220/220
s off
f 95/221/221 96/222/222 90/223/223 89/224/224
s 35
f 90/225/225 96/226/226 108/227/227 105/228/228
s 36
f 95/229/229 89/230/230 106/231/231 107/232/232
s 33
f 98/233/233 97/234/234 92/235/235 91/236/236
s 36
f 99/237/237 98/238/238 91/239/239 93/240/240
s 34
f 93/241/241 94/242/242 100/243/243 99/244/244
s 35
f 97/245/245 100/246/246 94/247/247 92/248/248
s 33
f 102/249/249 101/250/250 97/234/234 98/233/233
s 36
f 103/251/251 102/252/252 98/238/238 99/237/237
s 34
f 99/244/244 100/243/243 104/253/253 103/254/254
s 35
f 101/255/255 104/256/256 100/246/246 97/245/245
s 33
f 106/212/212 105/211/211 101/250/250 102/249/249
s 36
f 107/232/232 106/231/231 102/252/252 103/251/251
s 34
f 103/254/254 104/253/253 108/218/218 107/217/217
s 35
f 105/228/228 108/227/227 104/256/256 101/255/255
s 41
f 109/257/257 126/260/258 125/259/259 110/258/260
s off
f 111/261/261 113/264/262 114/263/263 112/262/264
s 42
f 127/265/265 115/268/266 116/267/267 128/266/268
s off
f 115/269/269 109/272/270 110/271/271 116/270/272
s 43
f 110/273/273 125/276/274 128/275/275 116/274/276
s 44
f 115/277/277 127/280/278 126/279/279 109/278/280
s 41
f 118/281/281 111/284/282 112/283/283 117/282/284
s 44
f 119/285/285 113/288/286 111/287/287 118/286/288
s 42
f 113/289/289 119/292/290 120/291/291 114/290/292
s 43
f 117/293/293 112/296/294 114/295/295 120/294/296
s 41
f 122/297/297 118/281/281 117/282/284 121/298/298
s 44
f 123/299/299 119/285/285 118/286/288 122/300/300
s 42
f 119/292/290 123/302/301 124/301/302 120/291/291
s 43
f 121/303/303 117/293/293 120/294/296 124/304/304
s 41
f 126/260/258 122/297/297 121/298/298 125/259/259
s 44
f 127/280/278 123/299/299 122/300/300 126/279/279
s 42
f 123/302/301 127/265/265 128/266/268 124/301/302
s 43
f 125/276/274 121/303/303 124/304/304 128/275/275
s 49
f 129/305/305 146/308/306 145/307/307 130/306/308
s off
f 131/309/309 133/312/310 134/311/311 132/310/312
s 50
f 147/313/313 135/316/314 136/315/315 148/314/316
s off
f 135/317/317 129/320/318 130/319/319 136/318/320
s 51
f 130/321/321 145/324/322 148/323/323 136/322/324
s 52
f 135/325/325 147/328/326 146/327/327 129/326/328
s 49
f 138/329/329 131/332/330 132/331/331 137/330/332
s 52
f 139/333/333 133/336/334 131/335/335 138/334/336
s 50
f 133/337/337 139/340/338 140/339/339 134/338/340
s 51
f 137/341/341 132/344/342 134/343/343 140/342/344
s 49
f 142/345/345 138/329/329 137/330/332 141/346/346
s 52
f 143/347/347 139/333/333 138/334/336 142/348/348
s 50
f 139/340/338 143/350/349 144/349/350 140/339/339
s 51
f 141/351/351 137/341/341 140/342/344 144/352/352
s 49
f 146/308/306 142/345/345 141/346/346 145/307/307
s 52
f 147/328/326 143/347/347 142/348/348 146/327/327
s 50
f 143/350/349 147/313/313 148/314/316 144/349/350
s 51
f 145/324/322 141/351/351 144/352/352 148/323/323
s 57
f 149/353/353 166/356/354 165/355/355 150/354/356
s off
f 151/357/357 153/360/358 154/359/359 152/358/360
s 58
f 167/361/361 155/364/362 156/363/363 168/362/364
s off
f 155/365/365 149/368/366 150/367/367 156/366/368
s 59
f 150/369/369 165/372/370 168/371/371 156/370/372
s 60
f 155/373/373 167/376/374 166/375/375 149/374/376
s 57
f 158/377/377 151/380/378 152/379/379 157/378/380
s 60
f 159/381/381 153/384/382 151/383/383 158/382/384
s 58
f 153/385/385 159/388/386 160/387/387 154/386/388
s 59
f 157/389/389 152/392/390 154/391/391 160/390/392
s 57
f 162/393/393 158/377/377 157/378/380 161/394/394
s 60
f 163/395/395 159/381/381 158/382/384 162/396/396
s 58
f 159/388/386 163/398/397 164/397/398 160/387/387
s 59
f 161/399/399 157/389/389 160/390/392 164/400/400
s 57
f 166/356/354 162/393/393 161/394/394 165/355/355
s 60
f 167/376/374 163/395/395 162/396/396 166/375/375
s 58
f 163/398/397 167/361/361 168/362/364 164/397/398
s 59
f 165/372/370 161/399/399 164/400/400 168/371/371
s 65
f 169/401/401 186/404/402 185/403/403 170/402/404
s off
f 171/405/405 173/408/406 174/407/407 172/406/408
s 66
f 187/409/409 175/412/410 176/411/411 188/410/412
s off
f 175/413/413 169/416/414 170/415/415 176/414/416
s 67
f 170/417/417 185/420/418 188/419/419 176/418/420
s 68
f 175/421/421 187/424/422 186/423/423 169/422/424
s 65
f 178/425/425 171/428/426 172/427/427 177/426/428
s 68
f 179/429/429 173/432/430 171/431/431 178/430/432
s 66
f 173/433/433 179/436/434 180/435/435 174/434/436
s 67
f 177/437/437 172/440/438 174/439/439 180/438/440
s 65
f 182/441/441 178/425/425 177/426/428 181/442/442
s 68
f 183/443/443 179/429/429 178/430/432 182/444/444
s 66
f 179/436/434 183/446/445 184/445/446 180/435/435
s 67
f 181/447/447 177/437/437 180/438/440 184/448/448
s 65
f 186/404/402 182/441/441 181/442/442 185/403/403
s 68
f 187/424/422 183/443/443 182/444/444 186/423/423
s 66
f 183/446/445 187/409/409 188/410/412 184/445/446
s 67
f 185/420/418 181/447/447 184/448/448 188/419/419
s 73
f 189/449/449 190/450/450 216/451/451 213/452/452
s off
f 191/453/453 192/454/454 194/455/455 193/456/456
s 74
f 214/457/457 215/458/458 196/459/459 195/460/460
s off
f 195/461/461 196/462/462 190/463/463 189/464/464
s 75
f 190/465/465 196/466/466 215/467/467 216/468/468
s 76
f 195/469/469 189/470/470 213/471/471 214/472/472
f 198/473/473 197/474/474 191/475/475 193/476/476
s 74
f 193/477/477 194/478/478 199/479/479 198/480/480
s 75
f 200/481/481 199/482/482 194/483/483 192/484/484
s 73
f 197/485/485 200/486/486 192/487/487 191/488/488
s 76
f 202/489/489 201/490/490 197/474/474 198/473/473
s 74
f 198/480/480 199/479/479 203/491/491 202/492/492
s 75
f 204/493/493 203/494/494 199/482/482 200/481/481
s 73
f 201/495/495 204/496/496 200/486/486 197/485/485
s 76
f 206/497/497 205/498/498 201/490/490 202/489/489
s 74
f 202/492/492 203/491/491 207/499/499 206/500/500
s 75
f 208/501/501 207/502/502 203/494/494 204/493/493
s 73
f 205/503/503 208/504/504 204/496/496 201/495/495
s 76
f 210/505/505 209/506/506 205/498/498 206/497/497
s 74
f 206/500/500 207/499/499 211/507/507 210/508/508
s 75
f 212/509/509 211/510/510 207/502/502 208/501/501
s 73
f 209/511/511 212/512/512 208/504/504 205/503/503
s 76
f 214/472/472 213/471/471 209/506/506 210/505/505
s 74
f 210/508/508 211/507/507 215/458/458 214/457/457
s 75
f 216/468/468 215/467/467 211/510/510 212/509/509
s 73
f 213/452/452 216/451/451 212/512/512 209/511/511
s 81
f 217/513/513 225/514/514 245/515/515 246/516/516
f 221/517/517 218/518/518 242/519/519 243/520/520
f 223/521/521 221/517/517 243/520/520 244/522/522
f 225/514/514 223/521/521 244/522/522 245/515/515
s 83
f 219/523/523 226/524/524 228/525/525 227/526/526
f 222/527/527 220/528/528 230/529/529 229/530/530
f 224/531/531 222/527/527 229/530/530 231/532/532
f 226/524/524 224/531/531 231/532/532 228/525/525
s 81
f 233/533/533 232/534/534 220/528/535 222/527/536
f 234/535/537 233/533/533 222/527/536 224/531/538
f 235/536/539 234/535/537 224/531/538 226/524/540
f 236/537/541 235/536/539 226/524/540 219/523/542
f 238/538/543 237/539/544 232/534/534 233/533/533
f 239/540/545 238/538/543 233/533/533 234/535/537
f 240/541/546 239/540/545 234/535/537 235/536/539
f 241/542/547 240/541/546 235/536/539 236/537/541
f 243/520/520 242/519/519 237/539/544 238/538/543
f 244/522/522 243/520/520 238/538/543 239/540/545
f 245/515/515 244/522/522 239/540/545 240/541/546
f 246/516/516 245/515/515 240/541/546 241/542/547
