# This file uses centimeters as units for non-parametric coordinates.

mtllib TiendaLP.mtl
g default
v -5.000030 9.333312 3.633511
v 5.000000 9.333312 3.633511
v -5.000030 9.333312 0.489720
v 5.000000 9.333312 0.489720
v -1.999938 9.333312 -3.000017
v 2.000046 9.333312 -3.000017
v -5.000030 9.622200 3.633511
v 5.000000 9.622200 3.633511
v 5.000000 9.622200 0.489720
v -5.000030 9.622200 0.489720
v 2.000046 9.622200 -3.000017
v -1.999938 9.622200 -3.000017
v -1.984497 9.622200 -2.238123
v 2.000046 9.622200 -2.238123
v -1.984497 10.309630 -2.238123
v 2.000046 10.309630 -2.238123
v 2.000046 10.309630 -3.000017
v -1.999938 10.309630 -3.000017
v -0.955048 10.309630 -2.238123
v 0.970339 10.309630 -2.238123
v 0.962877 10.309630 -3.000017
v -0.962511 10.309630 -3.000017
v 0.007645 10.917768 -2.238123
v 0.000183 10.917768 -3.000017
vt 0.288017 0.007925
vt 0.957797 0.137996
vt 0.157318 0.421994
vt 0.157796 0.007774
vt 0.977393 0.710915
vt 0.917795 0.778659
vt 0.053423 0.543364
vt 0.945831 0.710915
vt 0.945831 0.552217
vt 0.945831 0.137996
vt 0.945831 0.007774
vt 0.012910 0.309779
vt 0.013020 0.666091
vt 0.024987 0.666087
vt 0.012969 0.500404
vt 0.024935 0.500400
vt 0.889404 0.656233
vt 0.889291 0.821281
vt 0.053461 0.666078
vt 0.977393 0.890848
vt 0.053448 0.623117
vt 0.917850 0.698905
vt 0.977393 0.800881
vt 0.945831 0.800881
vt 0.078626 0.583232
vt 0.945832 0.848045
vt 0.943012 0.738799
vt 0.977393 0.753718
vt 0.945831 0.753718
vt 0.945832 0.890848
vt 0.977393 0.848045
vt 0.917879 0.656253
vt 0.053410 0.500391
vt 0.945831 0.682438
vt 0.013101 0.131877
vt 0.012910 0.297564
vt 0.945832 0.919319
vt 0.917765 0.821300
vt 0.977394 0.919320
vt 0.044469 0.297600
vt 0.044659 0.132553
vt 0.977393 0.682438
vt 0.957797 0.682438
vt 0.024876 0.309775
vt 0.025046 0.856709
vt 0.957798 0.007774
vt 0.957798 0.552217
vt 0.945831 0.682438
vt 0.287539 0.422144
vt 0.013080 0.856712
vn 0.000000 1.000000 0.000000
vn 0.000000 1.000000 0.000000
vn 0.000000 1.000000 0.000000
vn 0.000000 1.000000 0.000000
vn 0.000000 1.000000 -0.000000
vn -0.293021 0.956102 0.002870
vn -0.289843 0.957070 0.002839
vn 0.000000 1.000000 -0.000000
vn 0.000000 0.000000 1.000000
vn 0.000000 0.000000 1.000000
vn 0.000000 0.000000 1.000000
vn 0.000000 0.000000 1.000000
vn 1.000000 0.000000 0.000000
vn 1.000000 0.000000 0.000000
vn 1.000000 0.000000 0.000000
vn 1.000000 0.000000 0.000000
vn -1.000000 0.000000 0.000000
vn -1.000000 0.000000 0.000000
vn -1.000000 0.000000 0.000000
vn -1.000000 0.000000 0.000000
vn 0.758317 0.000000 -0.651886
vn 0.758317 0.000000 -0.651886
vn 0.758317 0.000000 -0.651886
vn 0.758317 0.000000 -0.651886
vn 0.000000 0.000000 -1.000000
vn 0.000000 0.000000 -1.000000
vn 0.000000 0.000000 -1.000000
vn 0.000000 0.000000 -1.000000
vn -0.758302 0.000000 -0.651904
vn -0.758302 0.000000 -0.651904
vn -0.758302 0.000000 -0.651904
vn -0.758302 0.000000 -0.651904
vn 0.000000 1.000000 0.000000
vn 0.000000 1.000000 0.000000
vn 0.000000 1.000000 0.000000
vn 0.000000 1.000000 0.000000
vn 0.000000 1.000000 0.000000
vn 0.000000 1.000000 0.000000
vn 0.000000 1.000000 0.000000
vn 0.000000 1.000000 -0.000000
vn 0.000000 1.000000 -0.000000
vn 0.000000 1.000000 -0.000000
vn 0.000000 0.000000 1.000000
vn 0.000000 0.000000 1.000000
vn 0.000000 0.000000 1.000000
vn 1.000000 0.000000 0.000000
vn 1.000000 0.000000 0.000000
vn 1.000000 0.000000 0.000000
vn 1.000000 0.000000 0.000000
vn 0.000000 0.000000 -1.000000
vn 0.000000 0.000000 -1.000000
vn 0.000000 0.000000 -1.000000
vn -0.999795 0.000000 0.020263
vn -0.999795 0.000000 0.020263
vn -0.999795 0.000000 0.020263
vn -0.999795 0.000000 0.020263
vn 0.293021 0.956102 -0.002870
vn 0.289843 0.957070 -0.002839
vn 0.000000 1.000000 0.000000
vn 0.000000 1.000000 0.000000
vn 0.003330 0.999995 -0.000033
vn -0.003330 0.999995 0.000033
vn 0.000000 0.000000 -1.000000
vn 0.000000 0.000000 -1.000000
vn 0.000000 0.000000 -1.000000
vn 0.000000 0.000000 -1.000000
vn 0.000000 0.000000 -1.000000
vn 0.000000 0.000000 -1.000000
vn 0.000000 0.000000 -1.000000
vn 0.000000 0.000000 -1.000000
vn 0.000000 0.000000 -1.000000
vn 0.000000 0.000000 -1.000000
vn 0.000000 0.000000 1.000000
vn 0.000000 0.000000 1.000000
vn 0.000000 0.000000 1.000000
vn 0.000000 0.000000 1.000000
vn 0.000000 0.000000 1.000000
vn 0.000000 0.000000 1.000000
vn 0.000000 0.000000 1.000000
vn 0.000000 0.000000 1.000000
vn 0.000000 0.000000 1.000000
vn 0.000000 0.000000 1.000000
s off
g pPlane2 BaseTienda Tienda
usemtl initialShadingGroup
f 7/1/1 8/49/2 9/3/3 10/4/4
s 1
f 15/5/5 19/28/6 22/29/7 18/8/8
s off
f 1/9/9 2/10/10 8/2/11 7/47/12
f 2/10/13 4/11/14 9/46/15 8/2/16
f 3/48/17 1/9/18 7/47/19 10/43/20
f 4/50/21 6/13/22 11/14/23 9/45/24
f 6/13/25 5/15/26 12/16/27 11/14/28
f 5/15/29 3/12/30 10/44/31 12/16/32
f 10/4/33 9/3/34 14/40/35 13/41/36
f 9/3/37 11/36/38 14/40/39
f 12/35/40 10/4/41 13/41/42
f 13/18/43 19/6/44 15/38/45
f 14/39/46 11/37/47 17/30/48 16/20/49
f 11/14/50 21/21/51 17/19/52
f 12/34/53 13/42/54 15/5/55 18/8/56
s 1
f 21/26/57 20/31/58 16/20/59 17/30/60
f 19/28/6 23/23/61 24/24/62 22/29/7
f 23/23/61 20/31/58 21/26/57 24/24/62
s off
f 22/7/63 12/16/64 18/33/65
f 21/21/66 22/7/67 24/25/68
f 11/14/69 12/16/70 22/7/71 21/21/72
f 20/22/73 14/17/74 16/32/75
f 19/6/76 20/22/77 23/27/78
f 13/18/79 14/17/80 20/22/81 19/6/82
g default
v -5.000030 4.104940 4.000010
v 5.000000 4.104940 4.000010
v -5.000030 6.527341 4.000010
v 5.000000 6.527341 4.000010
v -5.000030 6.527341 -0.000026
v 5.000000 6.527341 -0.000026
v -5.000030 4.104940 -0.000026
v 5.000000 4.104940 -0.000026
v -1.999939 6.527341 -3.000017
v 2.000046 6.527341 -3.000017
v 2.000046 4.104940 -3.000017
v -1.999939 4.104940 -3.000017
vt 0.294078 0.007774
vt 0.616010 0.008092
vt 0.391241 0.856686
vt 0.717662 0.421992
vt 0.393140 0.349577
vt 0.392519 0.515263
vt 0.292180 0.514887
vt 0.292800 0.349201
vt 0.291522 0.690622
vt 0.391861 0.690998
vt 0.293458 0.173462
vt 0.393798 0.173838
vt 0.290901 0.856310
vt 0.716350 0.007774
vt 0.617322 0.422310
vt 0.394418 0.008150
vn 0.000000 0.000000 1.000000
vn 0.000000 0.000000 1.000000
vn 0.000000 0.000000 1.000000
vn 0.000000 0.000000 1.000000
vn 0.000000 0.000000 -1.000000
vn 0.000000 0.000000 -1.000000
vn 0.000000 0.000000 -1.000000
vn 0.000000 0.000000 -1.000000
vn 1.000000 0.000000 0.000000
vn 1.000000 0.000000 0.000000
vn 1.000000 0.000000 0.000000
vn 1.000000 0.000000 0.000000
vn -1.000000 0.000000 0.000000
vn -1.000000 0.000000 0.000000
vn -1.000000 0.000000 0.000000
vn -1.000000 0.000000 0.000000
vn 0.707111 0.000000 -0.707103
vn 0.707111 0.000000 -0.707103
vn 0.707111 0.000000 -0.707103
vn 0.707111 0.000000 -0.707103
vn -0.707095 0.000000 -0.707119
vn -0.707095 0.000000 -0.707119
vn -0.707095 0.000000 -0.707119
vn -0.707095 0.000000 -0.707119
s off
g BaseTienda Tienda pCube290
usemtl initialShadingGroup
f 25/65/83 26/52/84 28/64/85 27/54/86
f 33/55/87 34/56/88 35/57/89 36/58/90
f 26/63/91 32/59/92 30/60/93 28/53/94
f 31/61/95 25/51/96 27/66/97 29/62/98
f 30/60/99 32/59/100 35/57/101 34/56/102
f 31/61/103 29/62/104 33/55/105 36/58/106
g default
v -7.999985 0.008573 5.500013
v 7.999985 0.008573 5.500013
v -7.999985 0.258573 5.500013
v 7.999985 0.258573 5.500013
v -7.999985 0.258573 -0.000041
v 7.999985 0.258573 -0.000043
v -7.999985 0.008573 -0.000041
v 7.999985 0.008573 -0.000043
v 2.000046 0.258573 -5.500013
v 2.000046 0.008573 -5.500013
v -1.999939 0.008573 -5.500011
v -1.999939 0.258573 -5.500011
v -4.572733 0.258573 3.633511
v 4.572733 0.258573 3.633511
v 4.572733 0.258573 0.489719
v -4.572733 0.258573 0.489720
v 1.143211 0.258573 -2.654025
v -1.143150 0.258573 -2.654023
v -4.572733 0.008573 0.489720
v 4.572733 0.008573 0.489719
v 4.572733 0.008573 3.633511
v -4.572733 0.008573 3.633511
v -1.143150 0.008573 -2.654023
v 1.143211 0.008573 -2.654025
v -2.857942 0.258573 -1.082152
v -4.999962 0.258573 -2.750026
v -4.999962 0.008573 -2.750026
v -2.857942 0.008573 -1.082152
v 2.857972 0.258573 -1.082153
v 5.000015 0.258573 -2.750028
v 5.000015 0.008573 -2.750028
v 2.857972 0.008573 -1.082153
v 3.859408 0.008573 3.633511
v 4.616232 0.008573 5.500013
v 4.616232 0.258573 5.500013
v 3.859408 0.258573 3.633511
v -3.867833 0.008573 3.633511
v -4.608954 0.008573 5.500013
v -4.608954 0.258573 5.500013
v -3.867833 0.258573 3.633511
vt 0.917561 0.257542
vt 0.919439 0.117092
vt 0.929794 0.117230
vt 0.927915 0.257680
vt 0.974102 0.404165
vt 0.974102 0.176346
vt 0.984458 0.176346
vt 0.984457 0.404165
vt 0.989169 0.572744
vt 0.989169 0.800571
vt 0.978813 0.800571
vt 0.978813 0.572744
vt 0.875155 0.656392
vt 0.885511 0.656392
vt 0.885511 0.822083
vt 0.875155 0.822083
vt 0.942052 0.275982
vt 0.931696 0.275982
vt 0.931696 0.107411
vt 0.942052 0.107411
vt 0.978813 0.404165
vt 0.989169 0.404165
vt 0.289983 0.826952
vt 0.196667 0.721966
vt 0.234060 0.647658
vt 0.253457 0.669482
vt 0.617198 0.426239
vt 0.394559 0.377916
vt 0.444496 0.243487
vt 0.571755 0.271108
vt 0.613839 0.138897
vt 0.394559 0.200699
vt 0.430463 0.043086
vt 0.555802 0.007760
vt 0.860033 0.840763
vt 0.696110 0.880081
vt 0.722268 0.759779
vt 0.815965 0.737305
vt 0.178596 0.916967
vt 0.012910 0.916580
vt 0.048674 0.798777
vt 0.143380 0.798998
vt 0.860761 0.110796
vt 0.719668 0.203049
vt 0.735103 0.060477
vt 0.815750 0.007746
vt 0.858700 0.540160
vt 0.634857 0.582560
vt 0.684400 0.428688
vt 0.812347 0.404452
vt 0.943923 0.099061
vt 0.828038 0.178436
vt 0.901472 0.034427
vt 0.925561 0.017928
vt 0.617542 0.572014
vt 0.394559 0.525300
vt 0.443523 0.390513
vt 0.570978 0.417215
vt 0.184782 0.544311
vt 0.027045 0.484843
vt 0.048643 0.374484
vt 0.138804 0.408477
vt 0.711021 0.929702
vt 0.545335 0.929498
vt 0.580971 0.811655
vt 0.675676 0.811772
vt 0.562827 0.853680
vt 0.394559 0.843537
vt 0.419920 0.733981
vt 0.516100 0.739779
vt 0.186895 0.813062
vt 0.027045 0.759531
vt 0.080010 0.660333
vt 0.171378 0.690932
vt 0.885511 0.990662
vt 0.875155 0.990662
vt 0.924813 0.544948
vt 0.944774 0.655614
vt 0.776209 0.657498
vt 0.828463 0.546025
vt 0.855375 0.367009
vt 0.729092 0.255342
vt 0.788517 0.159874
vt 0.860700 0.223702
vt 0.974102 0.007774
vt 0.984458 0.007774
vt 0.277838 0.519815
vt 0.288717 0.631740
vt 0.125991 0.675754
vt 0.184825 0.544973
vt 0.848025 0.404515
vt 0.719668 0.348215
vt 0.722016 0.264820
vt 0.749074 0.276688
vt 0.023264 0.272360
vt 0.012910 0.272221
vt 0.014795 0.132074
vt 0.025150 0.132214
vt 0.914776 0.259375
vt 0.944624 0.337281
vt 0.842173 0.432934
vt 0.893179 0.279540
vt 0.861495 0.737278
vt 0.479370 0.737567
vt 0.510011 0.660230
vt 0.830087 0.659988
vt 0.974094 0.389880
vt 0.963739 0.389983
vt 0.959966 0.007877
vt 0.970321 0.007774
vt 0.746071 0.582677
vt 0.776684 0.660025
vt 0.394559 0.659598
vt 0.425995 0.582319
vn 0.000000 0.000000 1.000000
vn 0.000000 0.000000 1.000000
vn 0.000000 0.000000 1.000000
vn 0.000000 0.000000 1.000000
vn 1.000000 0.000000 0.000000
vn 1.000000 0.000000 0.000000
vn 1.000000 0.000000 0.000000
vn 1.000000 0.000000 0.000000
vn -1.000000 0.000002 0.000000
vn -1.000000 0.000002 0.000000
vn -1.000000 0.000002 0.000000
vn -1.000000 0.000002 0.000000
vn -0.000000 0.000000 -1.000000
vn -0.000000 0.000000 -1.000000
vn -0.000000 0.000000 -1.000000
vn -0.000000 0.000000 -1.000000
vn 0.675726 0.000000 -0.737153
vn 0.675726 0.000000 -0.737153
vn 0.675726 0.000000 -0.737153
vn 0.675726 0.000000 -0.737153
vn -0.675720 0.000000 -0.737159
vn -0.675720 0.000000 -0.737159
vn -0.675720 0.000000 -0.737159
vn -0.675720 0.000000 -0.737159
vn 0.000000 1.000000 0.000000
vn 0.000000 1.000000 0.000000
vn 0.000000 1.000000 0.000000
vn 0.000000 1.000000 0.000000
vn 0.000000 1.000000 0.000000
vn 0.000000 1.000000 0.000000
vn 0.000000 1.000000 0.000000
vn 0.000000 1.000000 0.000000
vn 0.000000 1.000000 0.000000
vn 0.000000 1.000000 0.000000
vn 0.000000 1.000000 0.000000
vn 0.000000 1.000000 0.000000
vn 0.000000 1.000000 0.000000
vn 0.000000 1.000000 0.000000
vn 0.000000 1.000000 0.000000
vn 0.000000 1.000000 0.000000
vn 0.000000 1.000000 0.000000
vn 0.000000 1.000000 0.000000
vn 0.000000 1.000000 0.000000
vn 0.000000 1.000000 0.000000
vn 0.000000 1.000000 0.000000
vn 0.000000 1.000000 0.000000
vn 0.000000 1.000000 0.000000
vn 0.000000 1.000000 0.000000
vn 0.000000 -1.000000 0.000000
vn 0.000000 -1.000000 0.000000
vn 0.000000 -1.000000 0.000000
vn 0.000000 -1.000000 0.000000
vn 0.000000 -1.000000 0.000000
vn 0.000000 -1.000000 0.000000
vn 0.000000 -1.000000 0.000000
vn 0.000000 -1.000000 0.000000
vn 0.000000 -1.000000 0.000000
vn 0.000000 -1.000000 0.000000
vn 0.000000 -1.000000 0.000000
vn 0.000000 -1.000000 0.000000
vn 0.000000 -1.000000 0.000000
vn 0.000000 -1.000000 0.000000
vn 0.000000 -1.000000 0.000000
vn 0.000000 -1.000000 0.000000
vn 0.000000 -1.000000 0.000000
vn 0.000000 -1.000000 0.000000
vn 0.000000 -1.000000 0.000000
vn 0.000000 -1.000000 0.000000
vn 0.000000 -1.000000 0.000000
vn 0.000000 -1.000000 0.000000
vn 0.000000 -1.000000 0.000000
vn 0.000000 -1.000000 0.000000
vn 0.000000 1.000000 0.000000
vn 0.000000 1.000000 0.000000
vn 0.000000 1.000000 0.000000
vn 0.000000 1.000000 0.000000
vn -0.675720 0.000000 -0.737159
vn -0.675720 0.000000 -0.737159
vn -0.675720 0.000000 -0.737159
vn -0.675720 0.000000 -0.737159
vn 0.000000 -1.000000 0.000000
vn 0.000000 -1.000000 0.000000
vn 0.000000 -1.000000 0.000000
vn 0.000000 -1.000000 0.000000
vn 0.000000 1.000000 0.000000
vn 0.000000 1.000000 0.000000
vn 0.000000 1.000000 0.000000
vn 0.000000 1.000000 0.000000
vn 0.675726 0.000000 -0.737153
vn 0.675726 0.000000 -0.737153
vn 0.675726 0.000000 -0.737153
vn 0.675726 0.000000 -0.737153
vn 0.000000 -1.000000 0.000000
vn 0.000000 -1.000000 0.000000
vn 0.000000 -1.000000 0.000000
vn 0.000000 -1.000000 0.000000
vn 0.000000 -1.000000 0.000000
vn 0.000000 -1.000000 0.000000
vn 0.000000 -1.000000 0.000000
vn 0.000000 -1.000000 0.000000
vn 0.000000 0.000000 1.000000
vn 0.000000 0.000000 1.000000
vn 0.000000 0.000000 1.000000
vn 0.000000 0.000000 1.000000
vn 0.000000 1.000000 0.000000
vn 0.000000 1.000000 0.000000
vn 0.000000 1.000000 0.000000
vn 0.000000 1.000000 0.000000
vn 0.000000 -1.000000 0.000000
vn 0.000000 -1.000000 0.000000
vn 0.000000 -1.000000 0.000000
vn 0.000000 -1.000000 0.000000
vn 0.000000 0.000000 1.000000
vn 0.000000 0.000000 1.000000
vn 0.000000 0.000000 1.000000
vn 0.000000 0.000000 1.000000
vn 0.000000 1.000000 0.000000
vn 0.000000 1.000000 0.000000
vn 0.000000 1.000000 0.000000
vn 0.000000 1.000000 0.000000
s off
g BaseTienda Tienda pCube291Tienda
usemtl initialShadingGroup
f 37/67/107 74/68/108 75/69/109 39/70/110
f 38/71/111 44/72/112 42/73/113 40/74/114
f 43/75/115 37/76/116 39/77/117 41/78/118
f 45/79/119 46/80/120 47/81/121 48/82/122
f 66/83/123 67/84/124 46/85/125 45/86/126
f 43/75/127 41/78/128 62/87/129 63/88/130
f 39/89/131 75/90/132 76/91/133 49/92/134
f 40/93/135 42/94/136 51/95/137 50/96/138
f 41/97/139 39/98/140 49/99/141 52/100/142
f 66/101/143 45/102/144 53/103/145 65/104/146
f 45/105/147 48/106/148 54/107/149 53/108/150
f 62/109/151 41/110/152 52/111/153 61/112/154
f 44/113/155 38/114/156 57/115/157 56/116/158
f 74/117/159 37/118/160 58/119/161 73/120/162
f 37/121/163 43/122/164 55/123/165 58/124/166
f 43/125/167 63/126/168 64/127/169 55/128/170
f 47/129/171 46/130/172 60/131/173 59/132/174
f 46/133/175 67/134/176 68/135/177 60/136/178
f 48/137/179 62/138/180 61/139/181 54/140/182
f 63/141/183 62/142/184 48/82/185 47/81/186
f 64/143/187 63/144/188 47/145/189 59/146/190
f 42/147/191 66/148/192 65/149/193 51/150/194
f 42/73/195 44/72/196 67/151/197 66/152/198
f 68/153/199 67/154/200 44/155/201 56/156/202
f 38/157/203 70/158/204 69/159/205 57/160/206
f 71/161/207 70/162/208 38/163/209 40/164/210
f 72/165/211 71/166/212 40/167/213 50/168/214
f 70/169/215 74/170/216 73/171/217 69/172/218
f 75/173/219 74/174/220 70/175/221 71/176/222
f 76/177/223 75/178/224 71/179/225 72/180/226
