# This file uses centimeters as units for non-parametric coordinates.

mtllib Volcan.mtl
g default
v -3.068531 19.506092 0.299694
v -12.243038 0.184995 1.589501
v -3.101482 1.137187 14.794113
v 0.845639 20.099907 3.570237
v -0.151615 19.549904 -2.978824
v 0.550778 0.493701 -14.707073
v 3.832951 19.756687 -0.404430
v 12.780911 1.989870 0.174065
v 3.243824 19.973354 2.089234
v 6.444790 1.945109 9.730919
v 2.351017 19.710350 -2.269104
v 8.618809 1.498837 -8.954403
v -7.855259 0.868579 -8.940929
v -2.265949 19.280045 -1.938270
v -10.117748 0.312208 10.825157
v -1.841884 20.024979 2.807690
v -4.426792 16.174938 0.491188
v -3.177631 16.051758 -2.637218
v -0.102710 16.220669 -4.181263
v 3.513119 16.201281 -3.337883
v 5.345982 16.403893 -0.218601
v 4.000866 16.918653 3.325852
v 0.436268 16.886776 4.748680
v -2.969669 16.601908 3.743138
v 0.096134 15.117620 5.721081
v 4.329037 15.108351 4.207093
v 6.072201 14.538549 -0.010273
v 3.976162 14.125259 -3.836090
v -0.145801 14.417635 -5.204631
v -4.005527 14.348255 -3.407139
v -5.488460 14.120959 0.454239
v -3.886829 14.760395 4.241539
v -3.718715 18.092659 0.425286
v -2.606907 17.775295 -2.180782
v -0.101833 17.975382 -3.496746
v 2.958966 18.185146 -2.818691
v 4.653950 18.158943 -0.340286
v 3.695210 18.562502 2.629738
v 0.717175 18.541254 4.100037
v -2.298443 18.428295 3.280053
v -0.724102 11.017688 8.403420
v 4.889469 11.041369 6.063679
v 7.830784 10.689570 0.363118
v 5.293042 10.054852 -5.189052
v -0.182666 10.159562 -7.533092
v -5.590732 10.323437 -5.256214
v -7.914249 10.230827 0.387047
v -5.979679 10.396641 5.977387
v 4.615475 13.100948 5.160408
v -0.290432 13.129581 6.962132
v -4.876926 12.571029 4.970402
v -6.542308 12.199714 0.377964
v -4.849384 12.510534 -4.342525
v -0.188465 12.422690 -6.322689
v 4.451672 12.111873 -4.309200
v 6.875950 12.649339 0.219105
v -1.168560 8.994625 9.952294
v 5.370488 9.103151 7.015236
v 8.989422 8.748343 0.362149
v 6.417607 7.947284 -6.463207
v -0.081745 7.881576 -9.177715
v -6.366901 7.962727 -6.246883
v -9.416111 8.221051 0.476662
v -7.280338 8.483282 7.183632
v -1.617809 6.695524 11.451622
v 5.908062 6.879359 7.984909
v 10.391049 6.674181 0.283600
v 7.495884 5.454343 -7.746143
v 0.079373 5.532695 -11.324299
v -7.086597 5.288761 -7.285976
v -10.697422 5.573126 0.717244
v -8.709995 6.281739 8.529106
v -2.229076 4.072794 13.129029
v 6.244908 4.342945 8.841431
v 11.738835 4.243039 0.238617
v 8.195950 3.094698 -8.545757
v 0.264096 2.852207 -13.509288
v -7.626941 2.462135 -8.293667
v -11.674267 2.656980 1.147797
v -9.913929 3.320382 9.991715
v -1.752361 20.621891 0.170975
v -1.120578 20.757008 1.605622
v -1.251545 20.817181 -1.315212
v 0.177800 21.000401 -1.998333
v 1.611874 21.047264 -1.367359
v 2.292752 21.206764 0.011643
v 1.685788 20.868923 1.421692
v 0.334042 20.959576 2.145226
v -2.448429 20.373486 0.159104
v -1.423916 20.754890 2.219918
v 0.795239 20.928219 2.852269
v 2.596699 20.811043 1.623757
v 2.978741 20.802460 -0.302982
v 1.842083 20.724548 -1.680835
v -0.110256 20.607269 -2.417656
v -1.915050 20.398602 -1.693130
v -6.921619 0.829740 13.606011
v -6.382343 3.767077 12.369110
v -5.518741 6.522506 10.799050
v -4.628757 8.828077 9.341736
v -3.686992 10.789627 7.781555
v -2.834392 12.947618 6.416169
v -2.100589 15.084517 5.456353
v -1.399608 16.865826 4.657643
v -0.828220 18.531057 3.931397
v -0.508068 20.102600 3.330994
v -0.313343 20.848488 2.689488
v -0.450550 20.870583 2.023392
v -12.661419 -0.005988 6.565815
v -12.174564 3.024303 5.910782
v -10.614338 5.963227 4.930245
v -8.745632 8.196483 4.020634
v -7.034801 10.010944 3.255364
v -5.702892 12.085670 2.678463
v -4.783512 14.290122 2.352158
v -3.903034 16.378895 2.162075
v -3.217968 18.271843 1.908753
v -2.687290 19.737255 1.604973
v -2.072811 20.510777 1.208901
v -1.560489 20.617332 0.955620
v -10.193447 0.536975 -3.766559
v -9.852665 2.463068 -3.646076
v -9.201969 5.254305 -3.415100
v -8.258823 7.902762 -3.032100
v -7.166843 10.198130 -2.560848
v -6.117725 12.326114 -2.083587
v -5.136799 14.278089 -1.593303
v -4.168232 16.144577 -1.223564
v -3.436039 17.908360 -1.011909
v -2.888546 19.345486 -0.921325
v -2.401027 20.373379 -0.844207
v -1.649845 20.696636 -0.621681
v -4.075237 0.811622 -12.681713
v -4.099964 2.873515 -11.605816
v -3.871433 5.574833 -10.083339
v -3.559124 8.189390 -8.577480
v -3.156482 10.454762 -7.135235
v -2.740131 12.588247 -5.871586
v -2.241001 14.456925 -4.700962
v -1.783481 16.168232 -3.702045
v -1.491855 17.870140 -3.078968
v -1.336452 19.423353 -2.687938
v -1.104366 20.543427 -2.261177
v -0.613651 20.965118 -1.809822
v 4.890927 1.119548 -12.891353
v 4.421933 2.880032 -12.003620
v 3.973980 5.252954 -10.364536
v 3.311688 7.637609 -8.404934
v 2.648846 9.882489 -6.707241
v 2.207821 12.117879 -5.529979
v 1.957852 14.196695 -4.678600
v 1.709820 16.170006 -3.894191
v 1.425007 18.039196 -3.278248
v 1.121807 19.599766 -2.736168
v 0.878216 20.690983 -2.150734
v 0.959408 21.005733 -1.821972
v 11.402134 1.947892 -4.924373
v 10.812588 3.638967 -4.646091
v 9.796810 6.046036 -4.073146
v 8.434704 8.312885 -3.321857
v 7.116085 10.288244 -2.684227
v 5.998631 12.267183 -2.291568
v 5.190007 14.227050 -2.137954
v 4.589871 16.267801 -1.995491
v 4.009426 18.235550 -1.807987
v 3.250622 19.786648 -1.491161
v 2.478459 20.783939 -1.082771
v 2.083721 21.127136 -0.741760
v 10.119274 1.940528 4.587067
v 9.285824 4.269341 4.526184
v 8.507099 6.746085 4.285469
v 7.588330 8.894871 3.852669
v 6.727284 10.831907 3.342919
v 6.024342 12.825167 2.753292
v 5.465008 14.794119 2.108559
v 4.971981 16.659489 1.557499
v 4.552243 18.393620 1.144314
v 3.892109 19.920151 0.834545
v 3.038449 20.881962 0.647026
v 2.132946 21.077637 0.781098
v 2.698254 1.648849 13.368668
v 2.576435 4.387730 12.040406
v 2.565426 7.001177 10.771492
v 2.474949 9.301184 9.439301
v 2.374096 11.259155 8.076096
v 2.364910 13.272098 6.716084
v 2.392521 15.263899 5.526387
v 2.399655 17.023872 4.477928
v 2.378643 18.628700 3.691857
v 2.204960 20.041233 3.077420
v 1.818989 20.866726 2.396035
v 1.090176 20.956673 1.939549
v -7.391315 3.795352 -7.818180
v -8.842701 2.415186 -6.066784
v -11.494754 4.546393 5.439926
v -11.234310 4.095231 0.919514
v -12.205806 2.836757 3.562302
v -5.974727 5.186070 11.597878
v -9.400890 4.856128 9.297921
v -8.244388 3.542666 11.395966
v 2.626728 3.025323 12.698578
v -2.645252 2.627810 13.965409
v -0.188938 1.387045 14.396866
v 9.695706 3.087976 4.569390
v 6.353588 3.128313 9.281662
v 8.283581 1.957449 7.182122
v 11.138783 2.730683 -4.807689
v 12.284771 3.096281 0.208657
v 12.466084 2.008376 -2.393516
v 4.651554 1.947783 -12.506771
v 8.425808 2.234162 -8.776622
v 6.854649 1.329534 -11.024700
v -1.791263 0.594465 -14.056850
v -4.108326 1.787280 -12.182232
v 0.398922 1.640641 -14.192348
v -10.045719 1.424533 -3.713783
v -7.765392 1.558069 -8.647670
v -9.125652 0.728323 -6.461651
v -12.505268 1.507770 6.266968
v -11.989765 1.380536 1.370137
v -12.780002 0.043897 4.141583
v -6.679577 2.308344 13.018120
v -10.098056 1.809962 10.463852
v -8.550144 0.580739 12.403595
v -1.806354 20.612095 1.068745
v -1.690242 20.604088 0.572270
v -2.107364 20.543957 0.151848
v -2.300937 20.422382 0.678547
v -1.609501 20.662823 -1.515110
v -2.206707 20.375732 -1.295734
v -2.048572 20.590218 -0.745372
v -1.484745 20.750771 -0.986999
v -0.616680 20.580605 -2.395015
v -0.879787 20.808189 -2.036647
v -0.227291 20.993847 -1.947746
v 0.014057 20.853649 -2.194908
v 0.891857 20.908802 -1.963581
v 1.305340 21.021313 -1.622039
v 1.704624 20.938820 -1.500026
v 1.384632 20.709305 -1.933567
v 2.761090 20.790020 -0.716644
v 2.248959 21.004513 -0.905445
v 2.229138 21.180988 -0.375381
v 2.621159 21.051868 -0.161632
v 2.161373 20.898975 1.500912
v 2.870594 20.849495 1.147477
v 2.587933 21.037685 0.688065
v 1.935223 20.953915 1.116482
v 1.481236 20.966595 2.147187
v 0.725598 20.974682 2.084694
v 0.597607 21.001720 2.494862
v 1.327099 20.909512 2.687340
v -0.354740 20.909687 2.357651
v -0.808277 20.818321 1.848053
v -1.262546 20.806225 1.913372
v -0.900257 20.813042 2.509098
v -2.380474 20.217316 1.403118
v -2.761608 20.017944 0.219117
v -0.380787 20.586689 3.016480
v -1.624118 20.502449 2.524060
v 2.050083 20.547279 2.727311
v 0.860989 20.623413 3.225212
v 3.480030 20.494690 0.709977
v 2.951512 20.487148 1.833847
v 2.836460 20.367462 -1.287372
v 3.394650 20.364029 -0.380493
v 0.972378 20.231396 -2.428978
v 2.068951 20.298630 -1.957916
v -1.245815 20.063000 -2.481109
v -0.155727 20.161625 -2.692745
v -2.660938 19.935703 -0.893341
v -2.115802 19.914654 -1.827415
v -4.401455 3.927284 12.958870
v -5.225559 0.983321 14.466675
v -3.637195 6.598161 11.301422
v -2.965595 8.907785 9.808274
v -2.254833 10.907691 8.217575
v -1.594913 13.049419 6.787690
v -1.031368 15.108312 5.670952
v -0.506450 16.883415 4.771996
v -0.066829 18.534895 4.077195
v 0.168820 20.108295 3.511074
v 0.250126 20.897377 2.828430
v -0.063892 20.921268 2.123619
v -11.317295 3.166553 8.108620
v -11.631084 0.100041 8.836457
v -9.862858 6.132370 6.854554
v -8.126850 8.305083 5.685967
v -6.583835 10.153160 4.679585
v -5.357700 12.289960 3.874749
v -4.397686 14.514220 3.333325
v -3.501621 16.485023 2.997040
v -2.819851 18.354193 2.650380
v -2.328006 19.892223 2.262127
v -1.797619 20.637875 1.754605
v -1.370960 20.679161 1.304108
v -10.843204 2.538042 -1.248108
v -11.306713 0.352611 -1.064693
v -10.078113 5.385612 -1.368515
v -9.007358 8.066257 -1.297142
v -7.711002 10.229903 -1.092334
v -6.477405 12.264567 -0.847149
v -5.439212 14.186707 -0.569477
v -4.400043 16.154396 -0.381611
v -3.667621 17.999741 -0.313762
v -3.043918 19.417418 -0.329261
v -2.481693 20.364887 -0.353874
v -1.738971 20.653210 -0.231350
v -6.134174 0.899669 -10.995342
v -6.018970 2.671657 -10.110210
v -5.608707 5.437781 -8.849865
v -5.074352 8.108210 -7.584972
v -4.470691 10.421910 -6.346401
v -3.882785 12.573594 -5.221538
v -3.186313 14.406370 -4.134151
v -2.522052 16.096741 -3.224868
v -2.083606 17.805195 -2.673954
v -1.836780 19.337620 -2.357567
v -1.542377 20.468628 -2.021080
v -0.958133 20.897430 -1.594234
v 2.381909 2.846371 -13.130962
v 2.783909 0.754832 -14.218685
v 2.052563 5.375069 -11.098034
v 1.637562 7.707911 -8.943676
v 1.253804 9.981804 -7.232311
v 1.028263 12.257258 -6.027744
v 0.904751 14.309225 -5.021473
v 0.788716 16.195934 -4.097896
v 0.648609 18.003159 -3.440246
v 0.480923 19.575253 -2.904445
v 0.383976 20.650517 -2.324161
v 0.578472 21.001560 -1.951904
v 9.667301 3.333028 -6.690647
v 10.127179 1.741501 -7.016155
v 8.826557 5.718268 -6.024349
v 7.586712 8.123756 -5.009678
v 6.322483 10.156868 -4.042507
v 5.302944 12.162251 -3.391452
v 4.647427 14.149457 -3.079395
v 4.114743 16.229534 -2.754299
v 3.541302 18.231781 -2.385246
v 2.842343 19.762371 -1.921878
v 2.189404 20.755772 -1.400699
v 1.874646 21.082550 -1.073177
v 10.778736 4.295561 2.425968
v 11.808514 1.959294 2.375985
v 9.656506 6.747005 2.332142
v 8.468891 8.840215 2.144699
v 7.446492 10.778036 1.876263
v 6.600918 12.747018 1.490227
v 5.904660 14.667176 1.047402
v 5.275883 16.522161 0.667965
v 4.703991 18.256023 0.401226
v 3.945134 19.831284 0.203484
v 3.072842 20.849693 0.157555
v 2.256405 21.167114 0.404976
v 4.546383 4.396112 10.658844
v 4.746258 1.838556 11.803231
v 4.350941 6.976161 9.582741
v 4.021557 9.243433 8.406586
v 3.719120 11.185231 7.232468
v 3.578770 13.218776 6.086647
v 3.442936 15.222752 5.002041
v 3.269024 17.002090 4.008553
v 3.089306 18.613987 3.233322
v 2.768788 20.004444 2.630249
v 2.244168 20.825344 2.040726
v 1.407170 20.895630 1.707299
v -4.332706 15.354156 2.254177
v -4.236271 16.262655 1.332939
v -4.936588 15.142103 0.483406
v -5.208500 14.157234 1.410294
v -1.210941 14.463772 -5.077793
v -1.997791 15.320445 -4.165195
v -0.968570 16.210487 -4.035076
v -0.121509 15.332014 -4.663837
v 1.838085 15.193563 -4.273349
v 2.664707 16.176613 -3.679348
v 3.753598 15.159940 -3.594448
v 3.030651 14.138189 -4.326320
v 5.207142 15.741851 1.816689
v 4.557743 16.798054 2.476147
v 4.164280 16.037149 3.748806
v 4.971432 14.953326 3.202191
v 1.257176 15.199170 5.719483
v 2.398327 16.170315 4.977112
v 1.430188 16.959518 4.687649
v 0.271694 16.024876 5.195660
v 5.749462 14.374292 -1.093486
v 4.874630 15.242233 -2.070324
v 5.058796 16.322514 -1.128338
v 5.700970 15.479075 -0.122673
v -4.637127 15.219675 -1.389297
v -3.743549 16.089031 -1.972778
v -3.572994 15.202089 -2.989330
v -4.657306 14.318716 -2.549690
v -1.742489 16.009264 5.046181
v -2.244846 16.750420 4.305680
v -3.408596 15.706017 3.976101
v -3.086765 14.959519 4.964547
v -3.772632 17.053509 -1.099312
v -3.070087 17.821613 -1.630508
v -2.857570 16.923714 -2.372780
v -1.615833 17.025351 -3.347618
v -0.823291 17.928955 -3.364772
v -0.094913 17.107819 -3.802276
v 1.571209 17.129570 -3.567707
v 2.224324 18.110405 -3.093708
v 3.246785 17.229465 -3.079937
v 4.312329 17.283020 -1.912922
v 4.401364 18.181694 -1.101509
v 5.006840 17.295288 -0.287967
v 4.772602 17.544662 1.335373
v 4.199414 18.492413 1.910279
v 3.854725 17.761959 2.954266
v 2.400135 17.843071 4.053212
v 1.560131 18.588491 3.976174
v 0.590344 17.719494 4.392556
v -1.087101 17.700623 4.280762
v -1.603321 18.491386 3.686371
v -2.601314 17.519375 3.510659
v -3.533352 17.362106 2.043518
v -3.543216 18.184013 1.166592
v -4.042438 17.176935 0.468975
v 0.855954 11.169075 8.411339
v 2.359936 12.256863 7.384430
v 1.052349 13.223088 6.973088
v -0.503330 12.070815 7.661965
v 6.355366 11.823233 3.058289
v 5.396603 12.956444 4.012986
v 4.738705 12.061052 5.613221
v 5.883564 10.921640 4.752945
v 7.669751 10.496059 -1.186367
v 6.523678 11.276793 -2.454361
v 6.599079 12.459470 -1.064773
v 7.331295 11.672334 0.307015
v 2.398663 11.009588 -6.060863
v 3.384457 12.083249 -4.989589
v 4.825299 11.086245 -4.691204
v 4.031887 9.935115 -6.051723
v -1.689953 10.342264 -7.515766
v -2.954548 11.544590 -6.485561
v -1.476642 12.535482 -6.254635
v -0.195263 11.309443 -6.895733
v -6.632511 11.282494 -2.324005
v -5.584705 12.418071 -3.272632
v -5.224308 11.450323 -4.797352
v -6.474765 10.239076 -3.971584
v -6.313282 11.014824 2.938153
v -6.190944 12.097836 1.533020
v -7.192371 11.216276 0.371559
v -7.583561 10.097338 1.830399
v -3.244976 11.848158 7.055161
v -3.982105 12.789201 5.813977
v -5.407772 11.457248 5.443035
v -4.971332 10.614037 7.023098
v -2.419666 18.563831 -2.046001
v -3.144123 18.671030 -0.956710
v -2.622883 19.291180 -1.458591
v -1.408596 18.680939 -2.873150
v -0.766071 19.496693 -2.900840
v -0.127186 18.805283 -3.234543
v 1.273945 18.865814 -3.010162
v 1.761334 19.650471 -2.532463
v 2.654026 19.008980 -2.552219
v 3.648556 19.073051 -1.666050
v 3.591130 19.763283 -0.977329
v 4.257687 19.000534 -0.385067
v 4.254132 19.202621 0.978348
v 3.638302 19.956383 1.476899
v 3.491650 19.315720 2.347962
v 2.314030 19.381565 3.382767
v 1.544133 20.075306 3.408219
v 0.799984 19.370291 3.843888
v -2.055980 19.298546 3.052708
v -0.646213 19.374554 3.625386
v -1.206775 20.084965 3.130253
v -3.390827 18.866688 0.368637
v -2.951198 19.076164 1.768048
v -2.941890 19.610626 0.947636
v 0.694928 9.172003 9.891922
v 2.417843 10.297700 8.760735
v -0.947185 10.015328 9.177910
v 7.141835 9.870228 3.606392
v 5.108395 10.079788 6.532379
v 6.557469 8.984740 5.486721
v 8.940152 8.546824 -1.495643
v 7.757473 9.317968 -2.978130
v 8.379101 9.721609 0.378304
v 2.963711 8.768082 -7.500362
v 5.838360 9.032370 -5.796520
v 4.948811 7.751318 -7.586528
v -1.854450 8.077957 -9.082027
v -3.363819 9.351890 -7.840686
v -0.142902 9.019045 -8.290470
v -7.718479 9.082907 -2.801326
v -5.977558 9.170155 -5.742199
v -7.403537 7.881249 -4.705639
v -7.854442 9.108481 3.618042
v -8.672992 9.270456 0.418389
v -9.252140 8.216466 2.266728
v -4.156940 9.814848 8.561791
v -6.606662 9.433448 6.561520
v -6.090656 8.672094 8.434540
v 2.378582 14.286136 6.101391
v -0.090923 14.148853 6.312538
v -2.458744 14.045188 5.898125
v -4.373111 13.693737 4.571438
v -5.216610 13.189033 2.488362
v -5.999012 13.154053 0.412308
v -5.624744 13.319107 -1.832378
v -4.437061 13.463789 -3.868663
v -2.495365 13.552608 -5.273235
v -0.170047 13.453306 -5.758289
v 2.070996 13.175858 -5.083355
v 4.188740 13.117057 -4.049251
v 5.559376 13.242984 -2.198902
v 6.460057 13.600023 0.108498
v 5.732479 13.818677 2.428738
v 4.479184 14.123167 4.684662
v 0.512791 6.868747 11.334717
v 2.529179 8.198290 10.112732
v -1.384212 7.886462 10.693405
v 8.056088 7.862510 4.085709
v 5.650761 8.038303 7.508156
v 7.275532 6.796435 6.194439
v 10.378071 6.402599 -1.910999
v 9.134655 7.219913 -3.701206
v 9.674908 7.749666 0.324227
v 3.661190 6.462311 -9.385692
v 6.987210 6.728082 -7.138691
v 5.833393 5.289310 -9.220058
v -1.935352 5.602877 -10.947109
v -3.724949 6.920683 -9.321178
v -0.004985 6.740836 -10.204670
v -8.759296 6.623635 -3.239826
v -6.740848 6.673409 -6.761844
v -8.244579 5.224812 -5.430988
v -9.681774 7.163994 4.457589
v -10.091144 6.968504 0.572953
v -10.884342 5.771239 2.850651
v -5.076389 7.733569 10.067246
v -7.992298 7.461751 7.831917
v -7.235813 6.414408 9.859444
v 0.207409 4.253117 12.843338
v 2.568585 5.722003 11.406044
v -1.893009 5.426500 12.277298
v 8.903317 5.518537 4.431919
v 6.101254 5.620433 8.419258
v 7.799633 4.292912 6.730942
v 11.626606 3.983239 -2.227535
v 10.360691 4.798236 -4.394680
v 11.093312 5.470489 0.259331
v 4.211819 4.020308 -11.263363
v 7.892384 4.205654 -8.208713
v 6.403721 2.953253 -10.395984
v -1.951069 2.897477 -12.869869
v -4.008724 4.180905 -10.875530
v 0.163327 4.193021 -12.489559
v -9.568920 3.803554 -3.548519
v -4.707004 15.215240 1.376255
v -1.081577 15.348168 -4.522548
v 2.856770 15.160898 -4.001690
v 4.757931 15.895135 2.821907
v 1.347653 16.102905 5.168251
v 5.390698 15.349266 -1.115547
v -4.183925 15.210250 -2.235050
v -2.651096 15.885518 4.623261
v -3.373966 16.972908 -1.774307
v -0.882114 17.076431 -3.658497
v 2.451397 17.175518 -3.378688
v 4.739544 17.273853 -1.124839
v 4.387204 17.665817 2.173680
v 1.506878 17.784945 4.298188
v -1.892673 17.621342 3.989464
v -3.861362 17.267162 1.259400
v 0.950558 12.191909 7.677155
v 5.622792 11.930586 4.389382
v 7.107846 11.479124 -1.102493
v 3.667164 11.015001 -5.458950
v -1.589863 11.459218 -6.861019
v -6.028675 11.357395 -3.622680
v -6.836521 11.079353 1.661026
v -4.461017 11.677553 6.379460
v -2.826893 18.594887 -1.532257
v -0.793201 18.751022 -3.125877
v 1.990979 18.934059 -2.818412
v 4.012661 19.024445 -1.054809
v 3.947460 19.271833 1.681725
v 1.572369 19.379456 3.697930
v -1.385570 19.353649 3.408161
v -3.242725 18.968449 1.065461
v 0.773205 10.184832 9.153977
v 6.202023 9.959927 5.119202
v 8.278996 9.529594 -1.320427
v 4.472973 8.865137 -6.777691
v -1.780765 9.224074 -8.257824
v -6.939930 9.087633 -4.335521
v -8.403186 9.183626 2.031529
v -5.520458 9.642328 7.719643
v 1.156643 14.232369 6.320813
v -3.527233 13.905302 5.351895
v -5.675708 13.120946 1.455994
v -5.125904 13.396584 -2.905258
v -1.346485 13.531606 -5.657695
v 3.189419 13.118309 -4.633831
v 6.149266 13.417777 -1.069164
v 5.181897 13.968893 3.608239
v 0.613728 8.063410 10.612015
v 6.929180 7.935373 5.854073
v 9.657795 7.514839 -1.702987
v 5.417759 6.539909 -8.427951
v -1.903156 6.877221 -9.983173
v -7.844974 6.598101 -5.073101
v -10.087093 7.074104 2.538311
v -6.664211 7.613003 9.133225
v 0.375302 5.597713 12.080475
v 7.554890 5.552536 6.481007
v 11.047100 5.179065 -2.088226
v 6.149288 4.057918 -9.880954
v -1.959514 4.235936 -11.959675
v -8.582714 3.748002 -5.772396
v -11.620151 4.322571 3.208107
v -7.800174 5.025667 10.656929
v 0.015301 2.837769 13.617325
v 8.042164 3.106802 6.961399
v 12.078297 2.954129 -2.321788
v 6.634976 2.082832 -10.750477
v -1.885456 1.708580 -13.526699
v -9.007885 1.473877 -6.283611
v -12.552616 1.422450 3.864853
v -8.455524 2.061296 11.946823
v -1.992305 20.559402 0.610794
v -1.871952 20.619106 -1.153675
v -0.441036 20.838017 -2.165371
v 1.320767 20.923244 -1.752567
v 2.469639 21.032539 -0.551136
v 2.414791 20.961491 1.107636
v 1.056721 20.998779 2.373387
v -0.836651 20.865326 2.180889
v -2.622715 20.100697 0.804745
v -1.034321 20.562176 2.828060
v 1.475972 20.593502 3.051819
v 3.278897 20.498363 1.284687
v 3.154431 20.359371 -0.861656
v 1.545353 20.263634 -2.215522
v -0.716129 20.120026 -2.648693
v -2.436588 19.908943 -1.388565
v -4.809848 2.474258 13.728325
v -4.007679 5.304483 12.127213
v -3.298649 7.800619 10.549561
v -2.611545 9.915591 9.014199
v -1.913799 11.967739 7.468647
v -1.304676 14.106416 6.194992
v -0.763286 16.024689 5.195977
v -0.266864 17.712362 4.400936
v 0.071385 19.374378 3.795166
v 0.246525 20.614120 3.181149
v 0.125241 20.963585 2.475964
v -11.567524 1.631197 8.518601
v -10.693714 4.710308 7.514389
v -8.990833 7.302647 6.247750
v -7.320133 9.223627 5.161179
v -5.931118 11.188562 4.247376
v -4.859317 13.417472 3.571884
v -3.934528 15.523322 3.153599
v -3.130771 17.439571 2.827973
v -2.566738 19.196121 2.468232
v -2.060222 20.369362 2.012650
v -1.574436 20.708092 1.522797
v -11.096912 1.387325 -1.159305
v -10.501674 3.920761 -1.325287
v -9.578289 6.782725 -1.355453
v -8.370464 9.190366 -1.204628
v -7.072384 11.259722 -0.974689
v -5.948902 13.229184 -0.705169
v -4.900654 15.170268 -0.460796
v -4.004162 17.113617 -0.334407
v -3.345035 18.764589 -0.314251
v -2.771808 19.967491 -0.352180
v -2.126583 20.559696 -0.305202
v -6.100254 1.699823 -10.584881
v -5.842991 3.986848 -9.507129
v -5.352512 6.816840 -8.212642
v -4.774143 9.296078 -6.956371
v -4.182811 11.527173 -5.774654
v -3.542881 13.522901 -4.667446
v -2.836277 15.255286 -3.643417
v -2.272922 16.957821 -2.908130
v -1.948833 18.605526 -2.503078
v -1.715625 19.980274 -2.199474
v -1.274028 20.737820 -1.814663
v 2.575398 1.760381 -13.753215
v 2.218472 4.093245 -12.195171
v 1.851696 6.565909 -9.991726
v 1.431835 8.843217 -8.021297
v 1.122715 11.133651 -6.584400
v 0.960141 13.311125 -5.512508
v 0.848515 15.265540 -4.537418
v 0.722653 17.116268 -3.740455
v 0.564877 18.833218 -3.172424
v 0.406231 20.198071 -2.603779
v 0.457318 20.881424 -2.119335
v 9.924183 2.470404 -6.877498
v 9.302655 4.463096 -6.407398
v 8.235310 6.956206 -5.538112
v 6.938557 9.167770 -4.500080
v 5.770146 11.159670 -3.670135
v 4.942295 13.150680 -3.214935
v 4.377575 15.183087 -2.923641
v 3.840916 17.266762 -2.577984
v 3.201115 19.061604 -2.166645
v 2.486981 20.340229 -1.650661
v 2.003987 20.969589 -1.219700
v 11.300244 3.112683 2.412094
v 10.230755 5.537417 2.395371
v 9.056172 7.833082 2.248108
v 7.933781 9.812971 2.023335
v 7.002667 11.762093 1.695717
v 6.239834 13.714689 1.268311
v 5.580639 15.606550 0.844952
v 4.998509 17.403355 0.523465
v 4.347851 19.086056 0.291035
v 3.510899 20.429523 0.149151
v 2.658657 21.060696 0.258206
v 4.643971 3.111662 11.223709
v 4.458195 5.703249 10.123291
v 4.196141 8.157932 9.002907
v 3.854954 10.227532 7.816552
v 3.636868 12.191528 6.654011
v 3.515416 14.239324 5.535858
v 3.357479 16.138636 4.485581
v 3.187558 17.828226 3.593006
v 2.950482 19.356308 2.923878
v 2.541920 20.507641 2.318020
v 1.849819 20.917000 1.851895
vt 0.709912 0.039895
vt 0.690790 0.037658
vt 0.302744 0.016565
vt 0.283757 0.019209
vt 0.672478 0.035142
vt 0.677175 0.020636
vt 0.321817 0.028287
vt 0.303144 0.032200
vt 0.284191 0.036011
vt 0.363163 0.159170
vt 0.349352 0.146596
vt 0.361296 0.133008
vt 0.373914 0.144393
vt 0.336190 0.132807
vt 0.349287 0.120631
vt 0.361767 0.109080
vt 0.372646 0.120123
vt 0.384163 0.130315
vt 0.394202 0.181297
vt 0.402415 0.164733
vt 0.418155 0.174192
vt 0.411288 0.191349
vt 0.410309 0.148611
vt 0.424826 0.157145
vt 0.439007 0.163794
vt 0.433645 0.181445
vt 0.428317 0.199025
vt 0.542788 0.195657
vt 0.536572 0.179834
vt 0.554522 0.173000
vt 0.562485 0.188219
vt 0.531003 0.164562
vt 0.547244 0.158431
vt 0.563242 0.151347
vt 0.572016 0.165163
vt 0.581528 0.179675
vt 0.647997 0.133273
vt 0.632812 0.146630
vt 0.619282 0.135019
vt 0.633475 0.122859
vt 0.616790 0.158620
vt 0.604362 0.146002
vt 0.592839 0.134185
vt 0.606782 0.124234
vt 0.620044 0.113268
vt 0.505215 0.205897
vt 0.485247 0.207144
vt 0.484605 0.189656
vt 0.502709 0.189013
vt 0.464331 0.206151
vt 0.465812 0.188220
vt 0.467728 0.170438
vt 0.484360 0.172475
vt 0.500620 0.172567
vt 0.295909 0.069777
vt 0.313077 0.063388
vt 0.319741 0.078646
vt 0.303663 0.086487
vt 0.329729 0.057333
vt 0.335325 0.071307
vt 0.342453 0.084868
vt 0.327837 0.093521
vt 0.312742 0.102748
vt 0.673796 0.104738
vt 0.657309 0.097219
vt 0.668081 0.083561
vt 0.685324 0.089486
vt 0.641956 0.090285
vt 0.652040 0.078006
vt 0.660880 0.064682
vt 0.677594 0.068999
vt 0.695444 0.073608
vt 0.345496 0.051466
vt 0.350298 0.064266
vt 0.360005 0.045960
vt 0.364233 0.057606
vt 0.369788 0.068656
vt 0.356573 0.076539
vt 0.383574 0.107959
vt 0.394090 0.116974
vt 0.373739 0.098168
vt 0.385124 0.087862
vt 0.394042 0.096481
vt 0.403607 0.104396
vt 0.417934 0.133022
vt 0.431235 0.140390
vt 0.425299 0.118393
vt 0.437342 0.124655
vt 0.449162 0.129809
vt 0.444230 0.146271
vt 0.484469 0.155835
vt 0.499034 0.156820
vt 0.469845 0.153062
vt 0.472050 0.136603
vt 0.484769 0.139825
vt 0.497685 0.141457
vt 0.526010 0.149993
vt 0.540589 0.144563
vt 0.521696 0.135870
vt 0.534738 0.131185
vt 0.548023 0.125592
vt 0.555195 0.138223
vt 0.595277 0.114136
vt 0.607577 0.104306
vt 0.582243 0.123024
vt 0.572690 0.112203
vt 0.584716 0.104229
vt 0.595896 0.095367
vt 0.627283 0.083309
vt 0.636542 0.071869
vt 0.613392 0.075955
vt 0.621809 0.065163
vt 0.629190 0.053717
vt 0.644610 0.059536
vt 0.655302 0.031654
vt 0.338408 0.010715
vt 0.639641 0.027625
vt 0.643905 0.014581
vt 0.354852 0.021202
vt 0.339165 0.024585
vt 0.715628 0.182829
vt 0.694649 0.200275
vt 0.678687 0.186191
vt 0.697903 0.169647
vt 0.672660 0.215609
vt 0.658425 0.200932
vt 0.644066 0.186367
vt 0.662769 0.172355
vt 0.680393 0.156795
vt 0.570157 0.263211
vt 0.563737 0.245838
vt 0.588786 0.236891
vt 0.597057 0.253546
vt 0.556862 0.228669
vt 0.580126 0.220291
vt 0.602423 0.210533
vt 0.613031 0.226418
vt 0.623327 0.242298
vt 0.516227 0.277521
vt 0.488923 0.281086
vt 0.488420 0.261620
vt 0.513731 0.258764
vt 0.460647 0.281704
vt 0.462048 0.261631
vt 0.462980 0.242283
vt 0.487513 0.242720
vt 0.510936 0.240491
vt 0.356487 0.255004
vt 0.366941 0.234809
vt 0.389316 0.245217
vt 0.380932 0.265708
vt 0.376654 0.215822
vt 0.397090 0.226072
vt 0.418139 0.234047
vt 0.412573 0.253251
vt 0.406509 0.273736
vt 0.313675 0.226409
vt 0.294612 0.208393
vt 0.309345 0.191677
vt 0.327143 0.208177
vt 0.277199 0.188914
vt 0.292885 0.173671
vt 0.307965 0.159124
vt 0.323427 0.175739
vt 0.339914 0.190835
vt 0.222835 0.098410
vt 0.242228 0.091031
vt 0.252323 0.113233
vt 0.233529 0.122811
vt 0.260899 0.083809
vt 0.270298 0.103973
vt 0.281199 0.123260
vt 0.264126 0.134440
vt 0.246191 0.146098
vt 0.791367 0.052136
vt 0.770294 0.048743
vt 0.225909 0.023340
vt 0.204961 0.023685
vt 0.749567 0.045536
vt 0.753086 0.024663
vt 0.248064 0.042921
vt 0.228374 0.045961
vt 0.207895 0.048742
vt 0.751714 0.144776
vt 0.731430 0.133677
vt 0.745824 0.113903
vt 0.766637 0.123499
vt 0.711270 0.123074
vt 0.724919 0.104784
vt 0.736111 0.086137
vt 0.757396 0.093438
vt 0.778524 0.101022
vt 0.392434 0.054892
vt 0.381706 0.061416
vt 0.376648 0.051616
vt 0.387734 0.046256
vt 0.372878 0.041119
vt 0.384261 0.036902
vt 0.403932 0.085648
vt 0.412668 0.092546
vt 0.395767 0.078200
vt 0.405511 0.069470
vt 0.412971 0.075935
vt 0.420907 0.081992
vt 0.432185 0.105095
vt 0.442939 0.110582
vt 0.438571 0.093110
vt 0.448194 0.098046
vt 0.457742 0.102193
vt 0.453568 0.115163
vt 0.485103 0.124438
vt 0.496365 0.126083
vt 0.474115 0.121485
vt 0.476093 0.107750
vt 0.485606 0.110230
vt 0.495386 0.111685
vt 0.518123 0.121933
vt 0.529810 0.118005
vt 0.515194 0.108813
vt 0.525758 0.105729
vt 0.536685 0.101808
vt 0.541859 0.113242
vt 0.575042 0.094100
vt 0.584838 0.085934
vt 0.564284 0.101436
vt 0.557078 0.091401
vt 0.566664 0.084656
vt 0.575218 0.077188
vt 0.603079 0.041902
vt 0.614985 0.047542
vt 0.608026 0.057878
vt 0.596378 0.051152
vt 0.600334 0.067818
vt 0.589159 0.060245
vt 0.380264 0.016364
vt 0.368494 0.018409
vt 0.630020 0.011455
vt 0.618028 0.008744
vt 0.625839 0.023626
vt 0.614061 0.020039
vt 0.750482 0.209463
vt 0.725763 0.228648
vt 0.710145 0.214252
vt 0.733003 0.195976
vt 0.699829 0.245279
vt 0.686218 0.230169
vt 0.581635 0.298371
vt 0.576011 0.280531
vt 0.604832 0.270024
vt 0.612506 0.287025
vt 0.633054 0.257961
vt 0.642778 0.274249
vt 0.519753 0.316134
vt 0.488337 0.321278
vt 0.488866 0.300803
vt 0.518189 0.296509
vt 0.456016 0.323490
vt 0.458640 0.302131
vt 0.333493 0.299164
vt 0.345369 0.276450
vt 0.371954 0.287461
vt 0.362288 0.310569
vt 0.399901 0.295267
vt 0.392688 0.318144
vt 0.284727 0.265355
vt 0.263295 0.243929
vt 0.279312 0.225701
vt 0.299601 0.245404
vt 0.243929 0.220935
vt 0.260957 0.204557
vt 0.182021 0.113789
vt 0.202876 0.105983
vt 0.214090 0.132680
vt 0.193853 0.142928
vt 0.227634 0.158062
vt 0.208259 0.170535
vt 0.834817 0.059325
vt 0.812500 0.055558
vt 0.183820 0.023798
vt 0.161426 0.023707
vt 0.187379 0.051273
vt 0.165844 0.053684
vt 0.791251 0.167026
vt 0.771482 0.155827
vt 0.786830 0.133112
vt 0.807155 0.142907
vt 0.799076 0.108675
vt 0.819957 0.116646
vt 0.647394 0.159124
vt 0.663698 0.144631
vt 0.630108 0.172163
vt 0.691913 0.113429
vt 0.704500 0.096629
vt 0.715195 0.079443
vt 0.729511 0.042564
vt 0.265087 0.021133
vt 0.266245 0.039586
vt 0.278660 0.076651
vt 0.287286 0.094994
vt 0.297253 0.112691
vt 0.336751 0.160782
vt 0.351883 0.174585
vt 0.322424 0.145573
vt 0.385682 0.198170
vt 0.404329 0.208406
vt 0.423257 0.216313
vt 0.486331 0.224698
vt 0.508022 0.222975
vt 0.463556 0.223981
vt 0.549707 0.211943
vt 0.571182 0.204028
vt 0.591790 0.194879
vt 0.787771 0.238587
vt 0.759528 0.260186
vt 0.742126 0.244013
vt 0.768537 0.223661
vt 0.729496 0.278978
vt 0.714250 0.261645
vt 0.593086 0.337240
vt 0.587315 0.317241
vt 0.620531 0.305240
vt 0.628900 0.324556
vt 0.653059 0.291937
vt 0.663932 0.310729
vt 0.522433 0.358736
vt 0.486580 0.365778
vt 0.487468 0.342989
vt 0.521051 0.336791
vt 0.449430 0.369857
vt 0.452836 0.346322
vt 0.307556 0.346690
vt 0.320742 0.322961
vt 0.351852 0.334991
vt 0.341390 0.359136
vt 0.384856 0.342652
vt 0.377236 0.367061
vt 0.252187 0.309018
vt 0.228871 0.284171
vt 0.246511 0.263405
vt 0.268945 0.286469
vt 0.206790 0.256708
vt 0.225817 0.238382
vt 0.137014 0.130366
vt 0.160010 0.121926
vt 0.172686 0.153678
vt 0.150530 0.165059
vt 0.187873 0.183734
vt 0.166404 0.197844
vt 0.885561 0.069457
vt 0.859190 0.063797
vt 0.136759 0.023622
vt 0.110136 0.023572
vt 0.142000 0.056394
vt 0.116409 0.059326
vt 0.833279 0.191103
vt 0.811607 0.178597
vt 0.828352 0.152958
vt 0.851195 0.164135
vt 0.842026 0.125080
vt 0.866037 0.134812
vt 0.831615 0.270027
vt 0.798251 0.294188
vt 0.778261 0.276929
vt 0.808759 0.254218
vt 0.762156 0.315790
vt 0.745591 0.296996
vt 0.604422 0.380201
vt 0.599035 0.358566
vt 0.637646 0.344993
vt 0.646270 0.365470
vt 0.675451 0.330453
vt 0.687407 0.350061
vt 0.526113 0.405673
vt 0.485640 0.412232
vt 0.485976 0.389612
vt 0.524262 0.382293
vt 0.443200 0.414810
vt 0.446071 0.393493
vt 0.282689 0.389811
vt 0.294241 0.369421
vt 0.331534 0.381529
vt 0.323308 0.401091
vt 0.370553 0.389739
vt 0.365125 0.409389
vt 0.217655 0.356102
vt 0.192956 0.327493
vt 0.210283 0.306276
vt 0.234262 0.333126
vt 0.169282 0.293942
vt 0.187178 0.275786
vt 0.091306 0.146983
vt 0.113141 0.139044
vt 0.127259 0.177202
vt 0.106528 0.188252
vt 0.143752 0.213072
vt 0.123843 0.226958
vt 0.942004 0.085042
vt 0.914065 0.076788
vt 0.081808 0.023585
vt 0.054026 0.024213
vt 0.089806 0.062152
vt 0.064260 0.064822
vt 0.881101 0.219360
vt 0.856918 0.204950
vt 0.876507 0.177243
vt 0.901787 0.191092
vt 0.892912 0.146747
vt 0.919421 0.159398
vt 0.795462 0.355359
vt 0.778787 0.335387
vt 0.819400 0.311941
vt 0.841162 0.329896
vt 0.856446 0.285536
vt 0.882316 0.300815
vt 0.611769 0.421469
vt 0.608451 0.401045
vt 0.654217 0.384814
vt 0.661794 0.403585
vt 0.699537 0.368421
vt 0.711731 0.386171
vt 0.439855 0.445295
vt 0.441291 0.431262
vt 0.485571 0.431310
vt 0.485619 0.448639
vt 0.527639 0.427084
vt 0.528997 0.447552
vt 0.269035 0.421447
vt 0.274907 0.406533
vt 0.317757 0.416588
vt 0.313550 0.430041
vt 0.361280 0.424512
vt 0.358222 0.437370
vt 0.193046 0.393506
vt 0.166040 0.362296
vt 0.178751 0.345609
vt 0.204548 0.375581
vt 0.143175 0.323548
vt 0.155251 0.309406
vt 0.060200 0.158477
vt 0.074499 0.153168
vt 0.092050 0.196312
vt 0.080697 0.202873
vt 0.110630 0.236985
vt 0.100769 0.245076
vt 0.992586 0.101244
vt 0.967595 0.093105
vt 0.028873 0.025968
vt 0.004883 0.028271
vt 0.041860 0.067211
vt 0.020988 0.069436
vt 0.927653 0.248054
vt 0.904499 0.233731
vt 0.924755 0.204758
vt 0.946893 0.218514
vt 0.942994 0.171815
vt 0.965647 0.184399
vt 0.477906 0.716597
vt 0.474443 0.712493
vt 0.480597 0.706680
vt 0.398207 0.004922
vt 0.471465 0.709031
vt 0.476110 0.703996
vt 0.479793 0.698175
vt 0.485564 0.700358
vt 0.491408 0.703116
vt 0.481995 0.671545
vt 0.489371 0.671033
vt 0.490858 0.678504
vt 0.483387 0.678334
vt 0.496805 0.670483
vt 0.405770 0.037807
vt 0.497799 0.687252
vt 0.490732 0.686036
vt 0.483516 0.685140
vt 0.473539 0.644715
vt 0.427783 0.061761
vt 0.475824 0.652525
vt 0.469045 0.648753
vt 0.488108 0.655296
vt 0.481606 0.657727
vt 0.475528 0.659446
vt 0.470554 0.654818
vt 0.464765 0.651299
vt 0.455530 0.641765
vt 0.453726 0.646322
vt 0.445575 0.646640
vt 0.457467 0.078585
vt 0.451607 0.648657
vt 0.444852 0.649363
vt 0.438337 0.650964
vt 0.437870 0.647704
vt 0.436989 0.642498
vt 0.408790 0.655680
vt 0.487330 0.087628
vt 0.419161 0.656595
vt 0.413917 0.661415
vt 0.422650 0.647223
vt 0.425176 0.652821
vt 0.426596 0.657017
vt 0.421721 0.661532
vt 0.417825 0.666721
vt 0.416736 0.693459
vt 0.409119 0.691056
vt 0.408108 0.682945
vt 0.415745 0.686709
vt 0.401361 0.689889
vt 0.520841 0.085698
vt 0.401265 0.670990
vt 0.408409 0.674969
vt 0.414902 0.679686
vt 0.408256 0.707670
vt 0.415377 0.706067
vt 0.420518 0.712465
vt 0.554867 0.069619
vt 0.422861 0.705475
vt 0.427633 0.710190
vt 0.433275 0.713905
vt 0.426801 0.717456
vt 0.421305 0.721785
vt 0.439640 0.727000
vt 0.442481 0.722011
vt 0.451163 0.722672
vt 0.582011 0.041851
vt 0.446323 0.717524
vt 0.453117 0.717330
vt 0.459770 0.715839
vt 0.459651 0.721594
vt 0.460122 0.727488
vt 0.604300 0.016844
vt 0.390232 0.004883
vt 0.390249 0.015106
vt 0.580845 0.054558
vt 0.587856 0.046050
vt 0.594280 0.037401
vt 0.550931 0.082628
vt 0.559713 0.076622
vt 0.567573 0.070052
vt 0.512874 0.097131
vt 0.522510 0.094906
vt 0.532450 0.091810
vt 0.477981 0.095492
vt 0.486347 0.097713
vt 0.494963 0.099139
vt 0.444448 0.082409
vt 0.453281 0.086904
vt 0.461938 0.090786
vt 0.420948 0.067723
vt 0.428173 0.073126
vt 0.414187 0.061898
vt 0.394281 0.033286
vt 0.397632 0.041495
vt 0.402038 0.049087
vt 0.858483 0.245391
vt 0.883198 0.260132
vt 0.908437 0.274659
vt 0.812336 0.215630
vt 0.834717 0.230361
vt 0.772443 0.188868
vt 0.791792 0.201847
vt 0.734733 0.164340
vt 0.753575 0.176482
vt 0.696521 0.140334
vt 0.715501 0.152137
vt 0.661624 0.119184
vt 0.678497 0.129321
vt 0.631608 0.101847
vt 0.646077 0.110130
vt 0.605090 0.085968
vt 0.617965 0.093988
vt 0.592889 0.077215
vt 0.582336 0.069087
vt 0.429936 0.725216
vt 0.574258 0.062748
vt 0.439607 0.716359
vt 0.434222 0.720457
vt 0.933085 0.123100
vt 0.957981 0.133303
vt 0.982189 0.143760
vt 0.877562 0.103052
vt 0.905531 0.112685
vt 0.828959 0.088851
vt 0.852249 0.095348
vt 0.786462 0.077266
vt 0.807320 0.082905
vt 0.744030 0.066429
vt 0.765221 0.071775
vt 0.703378 0.057085
vt 0.723269 0.061465
vt 0.667330 0.050197
vt 0.684846 0.053602
vt 0.634896 0.041084
vt 0.650528 0.045937
vt 0.620830 0.036057
vt 0.608945 0.031478
vt 0.469440 0.723006
vt 0.599639 0.027572
vt 0.465924 0.712969
vt 0.467408 0.717818
vt 0.076894 0.105744
vt 0.057349 0.109828
vt 0.039774 0.113371
vt 0.125475 0.094884
vt 0.100406 0.100590
vt 0.172754 0.083463
vt 0.149775 0.089081
vt 0.214132 0.073321
vt 0.193910 0.078319
vt 0.253213 0.063204
vt 0.234048 0.068293
vt 0.288823 0.052867
vt 0.271169 0.058006
vt 0.324972 0.042976
vt 0.307062 0.047847
vt 0.356805 0.033737
vt 0.341649 0.038190
vt 0.370110 0.029990
vt 0.381715 0.026938
vt 0.495554 0.695419
vt 0.391703 0.024551
vt 0.488958 0.693393
vt 0.482289 0.691820
vt 0.132090 0.273841
vt 0.145470 0.261253
vt 0.121467 0.284748
vt 0.164342 0.245309
vt 0.185591 0.228190
vt 0.206052 0.211997
vt 0.225485 0.196671
vt 0.243704 0.182176
vt 0.261043 0.168248
vt 0.277794 0.154633
vt 0.293833 0.141634
vt 0.309118 0.129545
vt 0.323793 0.118213
vt 0.337938 0.107523
vt 0.351513 0.097435
vt 0.364588 0.087814
vt 0.376930 0.078699
vt 0.388252 0.070239
vt 0.398547 0.062578
vt 0.407752 0.055812
vt 0.493313 0.662510
vt 0.486189 0.663979
vt 0.479320 0.665133
vt 0.247023 0.375621
vt 0.236438 0.394167
vt 0.227815 0.411213
vt 0.277940 0.329797
vt 0.261695 0.353551
vt 0.307855 0.283898
vt 0.293348 0.306448
vt 0.334085 0.241903
vt 0.321382 0.262367
vt 0.357454 0.204008
vt 0.346126 0.222439
vt 0.378013 0.170502
vt 0.368044 0.186815
vt 0.396666 0.139648
vt 0.387551 0.154759
vt 0.413995 0.111608
vt 0.405451 0.125208
vt 0.429397 0.087700
vt 0.422003 0.099027
vt 0.464811 0.642480
vt 0.436000 0.077886
vt 0.458351 0.649284
vt 0.461601 0.646841
vt 0.401303 0.429202
vt 0.399009 0.442008
vt 0.404183 0.413911
vt 0.408257 0.393629
vt 0.413160 0.370445
vt 0.418560 0.346281
vt 0.423965 0.322388
vt 0.428811 0.300160
vt 0.433052 0.279113
vt 0.436708 0.258746
vt 0.439857 0.239390
vt 0.442580 0.221294
vt 0.445425 0.203606
vt 0.448915 0.185673
vt 0.452739 0.167765
vt 0.456626 0.150100
vt 0.460408 0.133496
vt 0.463777 0.118592
vt 0.466927 0.105254
vt 0.470000 0.093424
vt 0.429545 0.644403
vt 0.431244 0.649814
vt 0.432194 0.653503
vt 0.563975 0.394260
vt 0.566271 0.416068
vt 0.568086 0.437337
vt 0.557150 0.348875
vt 0.560745 0.371411
vt 0.550443 0.308274
vt 0.553801 0.327948
vt 0.542878 0.271403
vt 0.546855 0.289565
vt 0.533457 0.235637
vt 0.538324 0.253356
vt 0.523610 0.201857
vt 0.528423 0.218529
vt 0.515598 0.169579
vt 0.519329 0.185433
vt 0.509750 0.139693
vt 0.512456 0.154448
vt 0.505259 0.111004
vt 0.507283 0.124939
vt 0.404031 0.662642
vt 0.503815 0.098701
vt 0.410296 0.667687
vt 0.415600 0.672873
vt 0.740290 0.352810
vt 0.754758 0.371723
vt 0.725899 0.333761
vt 0.711656 0.314442
vt 0.697854 0.295433
vt 0.684751 0.277236
vt 0.672345 0.260109
vt 0.660646 0.244399
vt 0.648943 0.229349
vt 0.636522 0.214203
vt 0.623870 0.199090
vt 0.611506 0.184122
vt 0.599684 0.169662
vt 0.588649 0.156050
vt 0.578422 0.143197
vt 0.569025 0.131009
vt 0.560610 0.119263
vt 0.553324 0.107743
vt 0.547131 0.097063
vt 0.403951 0.699041
vt 0.541897 0.087713
vt 0.419483 0.699594
vt 0.411488 0.698918
vt 0.485361 0.710052
vt 0.599978 0.004883
vt 0.607908 0.006420
vt 0.380090 0.005079
vt 0.946193 0.045745
vt 0.971474 0.052401
vt 0.995117 0.059209
vt 0.889287 0.034369
vt 0.918037 0.039420
vt 0.837711 0.028630
vt 0.862402 0.030930
vt 0.715217 0.023021
vt 0.734005 0.023839
vt 0.246102 0.022477
vt 0.794344 0.026369
vt 0.815422 0.027243
vt 0.354215 0.008196
vt 0.368114 0.006231
vt 0.773374 0.025506
vt 0.659725 0.017901
vt 0.321162 0.013553
vt 0.695966 0.022166
vt 0.538524 0.079647
vt 0.529968 0.083301
vt 0.546734 0.074982
vt 0.503386 0.088482
vt 0.495245 0.088776
vt 0.511842 0.087274
vt 0.472562 0.084199
vt 0.465382 0.082056
vt 0.479678 0.085786
vt 0.441606 0.070786
vt 0.434402 0.066747
vt 0.449358 0.074549
vt 0.415503 0.050700
vt 0.410041 0.044634
vt 0.421564 0.056292
vt 0.399780 0.022587
vt 0.398220 0.014081
vt 0.402427 0.030431
vt 0.592785 0.024144
vt 0.587929 0.033422
vt 0.596826 0.014296
vt 0.568981 0.057250
vt 0.562366 0.063790
vt 0.575446 0.049867
vt 0.498244 0.678854
vt 0.481450 0.649161
vt 0.445924 0.641765
vt 0.415393 0.650748
vt 0.400434 0.680326
vt 0.414087 0.715606
vt 0.449963 0.728257
vn -0.868713 0.403020 0.287945
vn -0.861841 0.408015 0.301254
vn -0.872732 0.417034 0.253816
vn -0.863900 0.414509 0.286111
vn -0.861368 0.387628 0.328314
vn -0.890200 0.385900 0.242128
vn -0.911332 0.405938 0.068478
vn -0.887560 0.452012 0.089004
vn -0.882298 0.456526 0.114603
vn 0.063014 0.498511 -0.864590
vn -0.182501 0.538984 -0.822308
vn -0.217436 0.522429 -0.824493
vn 0.020106 0.490468 -0.871227
vn -0.365615 0.564547 -0.740009
vn -0.396228 0.540713 -0.742047
vn -0.432086 0.469997 -0.769678
vn -0.252722 0.457807 -0.852376
vn -0.020600 0.436397 -0.899518
vn 0.317016 0.383416 -0.867464
vn 0.261654 0.384881 -0.885101
vn 0.325114 0.340625 -0.882199
vn 0.375671 0.332902 -0.864898
vn 0.215287 0.361879 -0.907026
vn 0.281462 0.334836 -0.899258
vn 0.506274 0.320198 -0.800724
vn 0.547440 0.312697 -0.776228
vn 0.577785 0.303235 -0.757768
vn 0.874477 0.350626 0.335188
vn 0.884828 0.338379 0.320281
vn 0.844376 0.351447 0.404368
vn 0.842185 0.353571 0.407077
vn 0.897886 0.314265 0.308283
vn 0.845875 0.333779 0.416038
vn 0.732278 0.384113 0.562340
vn 0.729614 0.398879 0.555480
vn 0.728115 0.393229 0.561444
vn -0.040217 0.509032 0.859808
vn 0.045302 0.516685 0.854977
vn 0.058632 0.499072 0.864574
vn -0.010319 0.483506 0.875280
vn 0.271480 0.492217 0.827056
vn 0.277917 0.489616 0.826461
vn 0.304388 0.457348 0.835572
vn 0.092624 0.452953 0.886710
vn 0.015616 0.436221 0.899704
vn 0.927321 0.357357 -0.111225
vn 0.857441 0.323986 -0.399784
vn 0.865251 0.298361 -0.402891
vn 0.931470 0.338102 -0.134353
vn 0.815313 0.308478 -0.490006
vn 0.824536 0.282344 -0.490329
vn 0.823232 0.276288 -0.495938
vn 0.870883 0.291760 -0.395524
vn 0.932621 0.326845 -0.152941
vn -0.816227 0.501331 -0.287126
vn -0.811974 0.492528 -0.313232
vn -0.711964 0.520993 -0.470823
vn -0.727742 0.535435 -0.428603
vn -0.822074 0.446795 -0.352942
vn -0.715756 0.465741 -0.520365
vn -0.633337 0.479051 -0.607778
vn -0.616409 0.546386 -0.567012
vn -0.620195 0.568478 -0.540547
vn -0.319678 0.480985 0.816370
vn -0.286848 0.485261 0.825978
vn -0.526662 0.497337 0.689407
vn -0.546591 0.489911 0.679136
vn -0.260282 0.471435 0.842616
vn -0.495787 0.477325 0.725504
vn -0.689038 0.454616 0.564403
vn -0.715272 0.483631 0.504467
vn -0.742176 0.480133 0.467597
vn -0.833573 0.388379 -0.392833
vn -0.732208 0.393249 -0.556082
vn -0.837975 0.356054 -0.413549
vn -0.752750 0.337938 -0.564947
vn -0.687394 0.317948 -0.652993
vn -0.660477 0.390363 -0.641395
vn -0.279388 0.371164 -0.885539
vn -0.048655 0.363746 -0.930227
vn -0.461830 0.376389 -0.803147
vn -0.477551 0.300356 -0.825670
vn -0.289259 0.306192 -0.906960
vn -0.057283 0.316471 -0.946871
vn 0.189462 0.334916 -0.923004
vn 0.253823 0.330537 -0.909021
vn 0.186519 0.331289 -0.924910
vn 0.245231 0.348487 -0.904665
vn 0.422128 0.373639 -0.825955
vn 0.461481 0.334999 -0.821468
vn 0.870657 0.310895 -0.381183
vn 0.926597 0.333350 -0.174057
vn 0.809955 0.299316 -0.504364
vn 0.778701 0.364961 -0.510322
vn 0.855377 0.365076 -0.367491
vn 0.906775 0.370524 -0.201173
vn 0.908004 0.305296 0.286919
vn 0.842232 0.325151 0.430026
vn 0.904534 0.347976 0.246437
vn 0.828840 0.359406 0.428778
vn 0.729091 0.382365 0.567647
vn 0.733116 0.368792 0.571431
vn 0.144281 0.392154 0.908514
vn 0.033816 0.378048 0.925168
vn 0.348793 0.410999 0.842273
vn 0.402412 0.379211 0.833225
vn 0.205709 0.345104 0.915744
vn 0.046736 0.329874 0.942867
vn -0.242503 0.440313 0.864475
vn -0.450604 0.439486 0.777051
vn -0.237889 0.392654 0.888387
vn -0.403011 0.394016 0.826035
vn -0.630091 0.378304 0.678138
vn -0.659904 0.412485 0.627999
vn -0.861005 0.361832 0.357419
vn -0.901998 0.351399 0.250835
vn -0.859176 0.353630 0.369813
vn -0.899587 0.356750 0.251937
vn -0.931659 0.361441 0.037052
vn -0.933310 0.354969 0.054120
vn -0.096308 0.608111 0.787989
vn 0.041607 0.590149 0.806222
vn 0.042916 0.568527 0.821544
vn -0.101030 0.577346 0.810225
vn 0.313209 0.548145 0.775524
vn 0.303242 0.526706 0.794119
vn 0.289625 0.505809 0.812573
vn 0.046316 0.546785 0.835991
vn -0.091322 0.551087 0.829436
vn 0.802215 0.432313 0.411773
vn 0.825650 0.399387 0.398488
vn 0.799726 0.368999 0.473580
vn 0.771070 0.411659 0.485787
vn 0.846413 0.376649 0.376459
vn 0.821633 0.352983 0.447574
vn 0.721575 0.368630 0.586039
vn 0.717380 0.374288 0.587600
vn 0.705769 0.415244 0.573988
vn 0.874385 0.484735 0.022001
vn 0.814336 0.520836 -0.256100
vn 0.828014 0.471219 -0.303884
vn 0.893791 0.448412 -0.008005
vn 0.725202 0.557738 -0.403745
vn 0.744508 0.499044 -0.443468
vn 0.768638 0.428686 -0.474788
vn 0.838707 0.418353 -0.348641
vn 0.908707 0.415272 -0.042430
vn 0.328385 0.565816 -0.756317
vn 0.366535 0.487512 -0.792454
vn 0.409732 0.501334 -0.762092
vn 0.375953 0.582494 -0.720666
vn 0.382437 0.425993 -0.819922
vn 0.428386 0.416673 -0.801791
vn 0.569433 0.415957 -0.709032
vn 0.535487 0.511416 -0.672092
vn 0.500669 0.589701 -0.633707
vn 0.140192 0.528583 -0.837226
vn -0.064907 0.534779 -0.842495
vn -0.086785 0.503505 -0.859622
vn 0.141774 0.478245 -0.866708
vn -0.319005 0.533908 -0.783057
vn -0.322340 0.518740 -0.791837
vn -0.328872 0.533763 -0.779064
vn -0.116248 0.508120 -0.853406
vn 0.128552 0.469664 -0.873436
vn -0.805007 0.481176 -0.347036
vn -0.819422 0.480763 -0.312114
vn -0.782682 0.460362 -0.418898
vn -0.777234 0.456256 -0.433287
vn -0.826739 0.485453 -0.284320
vn -0.774207 0.487484 -0.403686
vn -0.667503 0.509174 -0.543306
vn -0.687956 0.470490 -0.552590
vn -0.694745 0.465484 -0.548319
vn -0.722008 0.649871 0.237427
vn -0.784365 0.567375 0.250713
vn -0.763725 0.572189 0.298871
vn -0.722736 0.640236 0.260290
vn -0.836006 0.482660 0.261022
vn -0.809630 0.494488 0.316197
vn -0.848242 0.513491 0.129667
vn -0.818298 0.565768 0.101464
vn -0.794474 0.605241 0.049952
vn -0.360002 0.650533 0.668734
vn -0.369726 0.594558 0.714006
vn -0.549586 0.586662 0.594796
vn -0.535621 0.645371 0.544616
vn -0.366908 0.536992 0.759617
vn -0.554985 0.532555 0.639044
vn -0.755291 0.512418 0.408611
vn -0.732308 0.564077 0.381499
vn -0.689606 0.629736 0.357598
vn -0.726102 0.270299 -0.632230
vn -0.712576 0.271048 -0.647123
vn -0.778531 0.303368 -0.549415
vn -0.800655 0.298561 -0.519435
vn -0.846826 0.346447 -0.403560
vn -0.861997 0.351046 -0.365689
vn -0.281311 0.282670 -0.917040
vn -0.048081 0.309728 -0.949609
vn -0.478684 0.262285 -0.837895
vn -0.462201 0.292825 -0.837033
vn -0.256100 0.328320 -0.909186
vn -0.026693 0.364837 -0.930689
vn 0.202161 0.358205 -0.911494
vn 0.254231 0.393274 -0.883574
vn 0.225741 0.424601 -0.876787
vn 0.273667 0.466219 -0.841277
vn 0.380707 0.512426 -0.769728
vn 0.395027 0.435655 -0.808801
vn 0.817837 0.442400 -0.368001
vn 0.871785 0.430773 -0.233292
vn 0.726398 0.455920 -0.514280
vn 0.658106 0.549652 -0.514566
vn 0.754495 0.532356 -0.383843
vn 0.815812 0.513201 -0.266601
vn 0.882895 0.425834 0.197896
vn 0.806083 0.428165 0.408539
vn 0.835761 0.527759 0.151573
vn 0.763020 0.529173 0.371183
vn 0.687979 0.525976 0.500035
vn 0.719203 0.430555 0.545316
vn 0.264690 0.351482 0.897998
vn 0.059576 0.332185 0.941331
vn 0.451306 0.394337 0.800513
vn 0.475868 0.496958 0.725660
vn 0.308758 0.462408 0.831173
vn 0.075963 0.443930 0.892836
vn -0.581224 0.491678 0.648407
vn -0.607147 0.384470 0.695382
vn -0.370380 0.384796 0.845429
vn -0.346272 0.481743 0.804997
vn -0.242464 0.378218 0.893400
vn -0.241640 0.470059 0.848914
vn -0.882782 0.469641 0.011560
vn -0.912283 0.409223 0.016615
vn -0.887550 0.402435 0.224281
vn -0.851520 0.492653 0.179460
vn -0.854426 0.383485 0.350565
vn -0.821461 0.490683 0.290571
vn -0.061666 0.585561 0.808279
vn 0.069103 0.562068 0.824199
vn 0.051062 0.593437 0.803259
vn -0.079948 0.618503 0.781705
vn 0.336356 0.524779 0.781967
vn 0.323255 0.552360 0.768378
vn 0.777172 0.460889 0.428468
vn 0.784554 0.458072 0.417906
vn 0.749389 0.448008 0.487550
vn 0.744852 0.448557 0.493956
vn 0.693505 0.453061 0.560166
vn 0.692104 0.451650 0.563032
vn 0.834895 0.546451 0.065900
vn 0.793041 0.578189 -0.191789
vn 0.800878 0.558695 -0.215532
vn 0.853372 0.519239 0.046338
vn 0.722915 0.592479 -0.355475
vn 0.716299 0.591825 -0.369673
vn 0.290367 0.651330 -0.701039
vn 0.294661 0.626411 -0.721653
vn 0.356215 0.630869 -0.689286
vn 0.373547 0.631451 -0.679509
vn 0.486746 0.627681 -0.607532
vn 0.508445 0.612168 -0.605586
vn 0.090106 0.638479 -0.764347
vn -0.102006 0.592168 -0.799332
vn -0.065679 0.572031 -0.817598
vn 0.122594 0.589388 -0.798494
vn -0.360931 0.530522 -0.766991
vn -0.329197 0.546257 -0.770216
vn -0.815080 0.418567 -0.400558
vn -0.799799 0.465258 -0.379284
vn -0.775295 0.449256 -0.443944
vn -0.786795 0.420573 -0.451743
vn -0.701545 0.462744 -0.541944
vn -0.714936 0.439266 -0.543978
vn -0.693272 0.692861 0.198290
vn -0.679964 0.699710 0.219217
vn -0.715784 0.668209 0.202854
vn -0.765766 0.629557 0.131380
vn -0.799292 0.600671 -0.018097
vn -0.843829 0.529260 -0.088529
vn -0.343057 0.644369 0.683448
vn -0.347290 0.675985 0.649949
vn -0.519663 0.680073 0.517156
vn -0.512995 0.666759 0.540619
vn -0.644988 0.678688 0.351247
vn -0.621130 0.686218 0.378552
vn 0.045431 0.527739 0.848191
vn -0.069133 0.528062 0.846387
vn 0.277538 0.491445 0.825502
vn -0.349493 0.491053 0.797949
vn -0.555334 0.493421 0.669433
vn -0.758520 0.480846 0.439812
vn -0.866312 0.416630 0.275541
vn -0.847928 0.428345 0.312313
vn -0.874601 0.466345 0.132651
vn -0.824697 0.493675 -0.275972
vn -0.751986 0.520920 -0.403930
vn -0.639334 0.554179 -0.533046
vn -0.148399 0.529187 -0.835428
vn 0.101317 0.485507 -0.868342
vn -0.342064 0.558535 -0.755666
vn 0.363933 0.388800 -0.846397
vn 0.416631 0.349093 -0.839376
vn 0.587611 0.329679 -0.738935
vn 0.848445 0.366219 -0.382132
vn 0.919844 0.384261 -0.078937
vn 0.795328 0.357918 -0.489233
vn 0.862632 0.361146 0.354174
vn 0.835352 0.351784 0.422415
vn 0.724780 0.380575 0.574331
vn -0.037763 0.538416 0.841833
vn 0.110525 0.499435 0.859273
vn 0.087935 0.523554 0.847443
vn -0.048766 0.548097 0.834992
vn 0.366783 0.440521 0.819397
vn 0.349696 0.483384 0.802529
vn 0.791387 0.369923 0.486686
vn 0.780071 0.433136 0.451535
vn 0.754138 0.414462 0.509408
vn 0.773196 0.346813 0.530932
vn 0.700782 0.417259 0.578618
vn 0.718044 0.354762 0.598796
vn 0.855280 0.507314 0.105493
vn 0.833192 0.518913 -0.191100
vn 0.802029 0.567599 -0.185959
vn 0.833177 0.546531 0.084378
vn 0.778377 0.500442 -0.379061
vn 0.743422 0.562518 -0.361798
vn 0.369487 0.609037 -0.701822
vn 0.318616 0.646030 -0.693635
vn 0.419976 0.601907 -0.679212
vn 0.483749 0.545107 -0.684723
vn 0.549049 0.566199 -0.614787
vn 0.599962 0.496091 -0.627645
vn 0.006259 0.653253 -0.757114
vn -0.239673 0.583080 -0.776257
vn -0.167664 0.595590 -0.785596
vn 0.047721 0.662282 -0.747733
vn -0.451271 0.487361 -0.747552
vn -0.405464 0.505890 -0.761363
vn -0.867233 0.294678 -0.401339
vn -0.840683 0.358314 -0.406033
vn -0.807475 0.377150 -0.453589
vn -0.833114 0.323811 -0.448406
vn -0.731095 0.404845 -0.549183
vn -0.751024 0.365936 -0.549594
vn -0.802825 0.576848 0.150728
vn -0.742495 0.647366 0.172100
vn -0.829117 0.556937 0.048845
vn -0.878989 0.475919 -0.029678
vn -0.886047 0.437715 -0.152732
vn -0.910482 0.357455 -0.207963
vn -0.334245 0.575730 0.746201
vn -0.338684 0.598363 0.726124
vn -0.505901 0.630651 0.588510
vn -0.499809 0.593840 0.630512
vn -0.616169 0.660312 0.429329
vn -0.625864 0.610193 0.485756
vn -0.014460 0.507628 0.861455
vn 0.163344 0.465249 0.869978
vn 0.139162 0.482160 0.864960
vn -0.024453 0.531315 0.846821
vn 0.394393 0.408017 0.823393
vn 0.384753 0.411536 0.826198
vn 0.786840 0.295540 0.541792
vn 0.794703 0.313838 0.519569
vn 0.786368 0.289107 0.545933
vn 0.787827 0.274139 0.551521
vn 0.733275 0.302245 0.609062
vn 0.741223 0.289636 0.605557
vn 0.893514 0.427287 0.138055
vn 0.879293 0.425924 -0.213151
vn 0.862075 0.464836 -0.201879
vn 0.878468 0.461272 0.124592
vn 0.820655 0.394182 -0.413698
vn 0.806890 0.436563 -0.397922
vn 0.462256 0.517004 -0.720435
vn 0.422214 0.560657 -0.712320
vn 0.544001 0.483877 -0.685512
vn 0.586212 0.447152 -0.675582
vn 0.644634 0.425372 -0.635221
vn 0.671887 0.385191 -0.632610
vn -0.046226 0.542929 -0.838505
vn -0.336052 0.488693 -0.805139
vn -0.297140 0.551930 -0.779154
vn -0.025211 0.617655 -0.786045
vn -0.514028 0.431462 -0.741361
vn -0.489111 0.466771 -0.736814
vn -0.900226 0.212307 -0.380156
vn -0.887187 0.243843 -0.391713
vn -0.855231 0.280623 -0.435695
vn -0.871204 0.256310 -0.418698
vn -0.770476 0.335736 -0.541894
vn -0.784346 0.320368 -0.531193
vn -0.925359 0.339960 0.167744
vn -0.863525 0.482446 0.146867
vn -0.917930 0.387652 -0.084445
vn -0.954510 0.278794 -0.105757
vn -0.924865 0.288064 -0.248283
vn -0.937204 0.222139 -0.268891
vn -0.380999 0.484288 0.787595
vn -0.345017 0.547538 0.762342
vn -0.511662 0.539048 0.669051
vn -0.550000 0.433842 0.713640
vn -0.652250 0.531827 0.540120
vn -0.698426 0.392080 0.598727
vn 0.371236 0.418492 0.828884
vn 0.394387 0.413686 0.820562
vn 0.173888 0.452891 0.874444
vn 0.155649 0.452548 0.878051
vn -0.015745 0.486135 0.873742
vn -0.046943 0.483844 0.873894
vn 0.772113 0.294548 0.563101
vn 0.777449 0.294292 0.555846
vn 0.784475 0.277745 0.554489
vn 0.782826 0.278760 0.556307
vn 0.747045 0.293446 0.596501
vn 0.745728 0.297704 0.596039
vn 0.831861 0.349828 -0.430845
vn 0.829054 0.363518 -0.424881
vn 0.890696 0.396653 -0.222096
vn 0.895052 0.385290 -0.224573
vn 0.903944 0.402478 0.144555
vn 0.909382 0.394470 0.131976
vn 0.492103 0.460455 -0.738794
vn 0.489773 0.476726 -0.729969
vn 0.616669 0.426412 -0.661734
vn 0.626212 0.420247 -0.656698
vn 0.691271 0.364272 -0.624060
vn 0.699378 0.356634 -0.619422
vn -0.039659 0.416812 -0.908127
vn -0.330803 0.381691 -0.863065
vn -0.352410 0.411260 -0.840638
vn -0.053771 0.450732 -0.891039
vn -0.507044 0.370382 -0.778283
vn -0.521992 0.388782 -0.759193
vn -0.914230 0.178260 -0.363879
vn -0.910036 0.189315 -0.368774
vn -0.884294 0.239184 -0.401017
vn -0.888628 0.232795 -0.395156
vn -0.793405 0.311499 -0.522951
vn -0.786072 0.313085 -0.532982
vn -0.960177 0.143932 0.239468
vn -0.959454 0.195075 0.203456
vn -0.979557 0.176741 -0.096074
vn -0.987971 0.139967 -0.065749
vn -0.948678 0.165658 -0.269385
vn -0.956448 0.143850 -0.253995
vn -0.479767 0.389846 0.786031
vn -0.442075 0.416409 0.794464
vn -0.602418 0.317607 0.732270
vn -0.627999 0.274643 0.728140
vn -0.736090 0.239644 0.633043
vn -0.746084 0.184960 0.639648
vn -0.550784 0.829783 0.089987
vn -0.253965 0.966290 -0.042255
vn -0.298090 0.954181 0.026106
vn -0.587247 0.804039 0.093070
vn -0.084039 0.991547 -0.098849
vn -0.141879 0.989884 -0.000008
vn -0.206805 0.977227 0.047528
vn -0.347745 0.936463 0.045949
vn -0.644102 0.763413 0.048313
vn -0.338079 0.934711 -0.109629
vn -0.428577 0.872146 -0.235973
vn -0.417033 0.894768 -0.159606
vn -0.304358 0.951018 -0.054146
vn -0.626183 0.604998 -0.491806
vn -0.677319 0.633684 -0.373742
vn -0.705087 0.675849 -0.214663
vn -0.401107 0.913745 -0.064682
vn -0.269311 0.963040 0.005073
vn 0.007489 0.574701 -0.818329
vn -0.180327 0.588488 -0.788140
vn -0.149026 0.787652 -0.597826
vn -0.001294 0.732599 -0.680659
vn -0.376477 0.598305 -0.707316
vn -0.297847 0.833771 -0.464879
vn -0.245456 0.905723 -0.345567
vn -0.121582 0.860244 -0.495175
vn 0.010700 0.804550 -0.593789
vn 0.258640 0.571871 -0.778504
vn 0.256031 0.668379 -0.698368
vn 0.321422 0.704436 -0.632817
vn 0.316565 0.611394 -0.725248
vn 0.259714 0.750094 -0.608201
vn 0.308350 0.788234 -0.532548
vn 0.322805 0.831995 -0.451200
vn 0.356919 0.760473 -0.542484
vn 0.376883 0.661330 -0.648539
vn 0.605637 0.753695 -0.255241
vn 0.567409 0.738223 -0.364792
vn 0.444635 0.851813 -0.276973
vn 0.445420 0.883702 -0.143775
vn 0.511092 0.728598 -0.455992
vn 0.415483 0.831325 -0.369150
vn 0.350820 0.885463 -0.304763
vn 0.377246 0.903706 -0.202487
vn 0.364548 0.930569 -0.033865
vn -0.038262 0.999198 -0.011781
vn 0.081748 0.989132 0.122209
vn 0.138100 0.963317 0.230106
vn -0.015471 0.978247 0.206864
vn 0.388209 0.871784 0.298808
vn 0.449089 0.853069 0.265690
vn 0.540183 0.834282 0.110343
vn 0.260148 0.949350 0.176234
vn 0.113073 0.960573 0.253995
vn 0.323897 0.878895 0.350192
vn 0.115794 0.993123 0.017273
vn 0.067746 0.995534 0.065740
vn 0.233871 0.878187 0.417242
vn 0.023310 0.992631 -0.118913
vn -0.014245 0.996548 -0.081786
vn -0.065886 0.995461 -0.068681
vn -0.026757 0.995126 0.094912
vn 0.058311 0.877814 0.475440
vn -0.184225 0.876883 0.444002
vn -0.117359 0.990536 0.071168
vn -0.118689 0.992695 0.021677
vn -0.231619 0.892631 0.386733
vn -0.074572 0.991398 -0.107559
vn -0.054125 0.987570 -0.147565
vn -0.062025 0.981825 -0.179366
vn -0.176258 0.983548 -0.039583
vn -0.386980 0.883014 0.265579
vn -0.729286 0.654259 0.200216
vn -0.765225 0.628250 0.140475
vn -0.819378 0.572422 0.030875
vn -0.224293 0.662427 0.714761
vn -0.307350 0.680135 0.665546
vn -0.520364 0.686481 0.507903
vn 0.449305 0.671179 0.589613
vn 0.315923 0.657962 0.683579
vn 0.090360 0.650186 0.754383
vn 0.739163 0.663693 0.114670
vn 0.667080 0.672296 0.320972
vn 0.601551 0.675675 0.426146
vn 0.584122 0.639604 -0.499708
vn 0.668121 0.631557 -0.393383
vn 0.729786 0.621260 -0.285394
vn 0.246305 0.503665 -0.828043
vn 0.295951 0.544033 -0.785138
vn 0.376335 0.589103 -0.715073
vn -0.218572 0.430721 -0.875618
vn -0.003816 0.459323 -0.888261
vn -0.428121 0.395977 -0.812351
vn -0.849919 0.425927 -0.310200
vn -0.793811 0.374920 -0.478851
vn -0.713528 0.354416 -0.604374
vn -0.196143 0.517366 0.832983
vn -0.239004 0.485135 0.841143
vn -0.279362 0.472651 0.835798
vn -0.162839 0.559204 0.812880
vn -0.172263 0.550391 0.816943
vn -0.166661 0.612700 0.772543
vn -0.161796 0.569148 0.806159
vn -0.201238 0.631987 0.748396
vn -0.180248 0.649256 0.738903
vn -0.206279 0.543318 0.813790
vn -0.214561 0.587193 0.780492
vn -0.119981 0.485766 0.865815
vn -0.170750 0.505729 0.845626
vn -0.057632 0.441622 0.895348
vn -0.076584 0.470433 0.879106
vn -0.100261 0.359565 0.927718
vn -0.068190 0.403248 0.912547
vn -0.132669 0.353692 0.925906
vn -0.147484 0.453404 0.879019
vn -0.125017 0.868515 0.479639
vn -0.139150 0.649346 0.747654
vn -0.095251 0.992815 -0.072426
vn -0.108489 0.989069 0.099863
vn -0.823253 0.370607 0.430007
vn -0.854384 0.208282 0.476074
vn -0.854504 0.150224 0.497248
vn -0.718914 0.614219 0.325420
vn -0.766099 0.523133 0.373395
vn -0.668015 0.702458 0.245580
vn -0.682289 0.674619 0.281730
vn -0.748687 0.629855 0.206762
vn -0.689863 0.689942 0.219247
vn -0.850497 0.479672 0.215800
vn -0.810716 0.548451 0.204795
vn -0.851914 0.433854 0.293281
vn -0.864669 0.436390 0.248820
vn -0.811408 0.416279 0.410279
vn -0.828142 0.440022 0.347220
vn -0.795180 0.360243 0.487765
vn -0.801108 0.382656 0.460218
vn -0.788912 0.377317 0.485025
vn -0.761846 0.487441 0.426606
vn -0.511816 0.849548 0.127723
vn -0.681122 0.667230 0.301458
vn -0.067842 0.982457 -0.173711
vn -0.229354 0.969960 -0.081081
vn -0.914673 0.198041 -0.352353
vn -0.922121 0.167259 -0.348881
vn -0.926622 0.153903 -0.343053
vn -0.891126 0.294453 -0.345241
vn -0.905479 0.238321 -0.351157
vn -0.837816 0.447119 -0.313289
vn -0.868375 0.366076 -0.334533
vn -0.814121 0.537420 -0.219968
vn -0.811695 0.516411 -0.272893
vn -0.853303 0.504196 -0.132889
vn -0.833812 0.525320 -0.169695
vn -0.868822 0.482442 -0.111347
vn -0.867192 0.484538 -0.114899
vn -0.893303 0.426309 -0.142374
vn -0.872393 0.474074 -0.119099
vn -0.908287 0.362191 -0.209364
vn -0.911395 0.370867 -0.178375
vn -0.896975 0.386494 -0.214612
vn -0.890763 0.415437 -0.184268
vn -0.692355 0.719275 -0.057336
vn -0.857917 0.497606 -0.127931
vn -0.380632 0.924609 0.014725
vn -0.243033 0.968991 0.044631
vn -0.653382 0.365804 -0.662782
vn -0.651673 0.380475 -0.656171
vn -0.637542 0.361807 -0.680174
vn -0.639872 0.396534 -0.658274
vn -0.621555 0.415522 -0.664087
vn -0.602969 0.440949 -0.664825
vn -0.584303 0.473733 -0.658914
vn -0.563896 0.500159 -0.657162
vn -0.547902 0.500600 -0.670226
vn -0.533377 0.499715 -0.682491
vn -0.514052 0.531126 -0.673540
vn -0.500508 0.568716 -0.652728
vn -0.504619 0.577664 -0.641610
vn -0.523998 0.551659 -0.648921
vn -0.556603 0.479127 -0.678697
vn -0.588899 0.383609 -0.711366
vn -0.612044 0.304288 -0.729939
vn -0.625840 0.256994 -0.736396
vn -0.623914 0.269921 -0.733399
vn -0.600833 0.365511 -0.710916
vn -0.535912 0.598889 -0.595089
vn -0.401351 0.855791 -0.326402
vn -0.329851 0.923616 -0.195275
vn 0.265507 0.554611 -0.788614
vn 0.278562 0.481298 -0.831117
vn 0.273901 0.450363 -0.849795
vn 0.227119 0.655506 -0.720229
vn 0.247431 0.616071 -0.747820
vn 0.216585 0.657423 -0.721724
vn 0.213129 0.674230 -0.707100
vn 0.279036 0.541699 -0.792906
vn 0.241016 0.610348 -0.754577
vn 0.323237 0.438698 -0.838488
vn 0.312094 0.472769 -0.824067
vn 0.262915 0.439759 -0.858771
vn 0.305197 0.432750 -0.848282
vn 0.163896 0.399311 -0.902047
vn 0.210855 0.437923 -0.873936
vn 0.126899 0.323406 -0.937713
vn 0.134523 0.348892 -0.927458
vn 0.154177 0.393565 -0.906276
vn 0.136791 0.333315 -0.932839
vn 0.164430 0.562103 -0.810557
vn 0.166231 0.477981 -0.862497
vn 0.150554 0.757088 -0.635729
vn 0.143928 0.683677 -0.715452
vn 0.755800 0.342542 -0.558060
vn 0.758255 0.329536 -0.562543
vn 0.747242 0.371112 -0.551276
vn 0.733050 0.414938 -0.538947
vn 0.702718 0.485522 -0.520053
vn 0.665224 0.555889 -0.498462
vn 0.636756 0.600484 -0.483695
vn 0.621238 0.614896 -0.485764
vn 0.632742 0.582175 -0.510598
vn 0.664161 0.513508 -0.543323
vn 0.704175 0.426374 -0.567752
vn 0.742897 0.341233 -0.575903
vn 0.762396 0.299351 -0.573708
vn 0.759745 0.290433 -0.581752
vn 0.736841 0.294088 -0.608751
vn 0.695028 0.318278 -0.644698
vn 0.639374 0.377074 -0.670087
vn 0.579838 0.459158 -0.673024
vn 0.526382 0.544317 -0.653178
vn 0.483399 0.624941 -0.613004
vn 0.447027 0.704005 -0.551855
vn 0.385972 0.804998 -0.450560
vn 0.332436 0.865970 -0.373608
vn 0.813467 0.356054 0.459888
vn 0.808418 0.340396 0.480199
vn 0.813760 0.339287 0.471889
vn 0.815416 0.435260 0.381635
vn 0.818906 0.384566 0.426030
vn 0.810905 0.495698 0.310993
vn 0.806635 0.484387 0.338687
vn 0.842057 0.453953 0.291319
vn 0.825248 0.479911 0.297744
vn 0.875625 0.401666 0.268226
vn 0.859579 0.425486 0.282994
vn 0.904997 0.365191 0.218210
vn 0.891035 0.381399 0.246152
vn 0.932611 0.329328 0.147583
vn 0.917986 0.349814 0.186898
vn 0.933019 0.359476 0.015923
vn 0.941962 0.323503 0.089743
vn 0.851390 0.514564 -0.101779
vn 0.903619 0.425162 -0.052059
vn 0.600103 0.793767 -0.099049
vn 0.760826 0.636501 -0.126536
vn 0.380098 0.924758 0.018654
vn 0.262813 0.955375 0.134865
vn 0.625370 0.352518 0.696163
vn 0.610758 0.362827 0.703798
vn 0.619775 0.341132 0.706759
vn 0.613159 0.343122 0.711550
vn 0.601175 0.383584 0.701037
vn 0.588864 0.437651 0.679486
vn 0.581554 0.475059 0.660389
vn 0.576715 0.488620 0.654714
vn 0.572392 0.468053 0.673271
vn 0.560072 0.439281 0.702390
vn 0.541241 0.429904 0.722662
vn 0.530375 0.433150 0.728754
vn 0.529473 0.444388 0.722618
vn 0.534555 0.450273 0.715195
vn 0.548612 0.430530 0.716707
vn 0.569727 0.402160 0.716713
vn 0.592945 0.392937 0.702863
vn 0.610238 0.422689 0.670033
vn 0.601534 0.518764 0.607487
vn 0.362423 0.881746 0.301949
vn 0.537878 0.677874 0.501174
vn 0.010165 0.989839 -0.141830
vn 0.102772 0.994675 0.007683
s 1
g polySurface7 group3
usemtl initialShadingGroup
f 115/1/1 369/2/2 561/758/3 372/748/4
f 369/2/2 116/5/5 370/6/6 561/758/3
f 561/3/3 370/757/6 17/7/7 371/8/8
f 372/4/4 561/3/3 371/8/8 31/9/9
f 29/10/10 373/11/11 562/12/12 376/13/13
f 373/11/11 139/14/14 374/15/15 562/12/12
f 562/12/12 374/15/15 140/16/16 375/17/17
f 376/13/13 562/12/12 375/17/17 19/18/18
f 151/19/19 377/20/20 563/21/21 380/22/22
f 377/20/20 152/23/23 378/24/24 563/21/21
f 563/21/21 378/24/24 20/25/25 379/26/26
f 380/22/22 563/21/21 379/26/26 28/27/27
f 175/28/28 381/29/29 564/30/30 384/31/31
f 381/29/29 176/32/32 382/33/33 564/30/30
f 564/30/30 382/33/33 22/34/34 383/35/35
f 384/31/31 564/30/30 383/35/35 26/36/36
f 25/37/37 385/38/38 565/39/39 388/40/40
f 385/38/38 187/41/41 386/42/42 565/39/39
f 565/39/39 386/42/42 188/43/43 387/44/44
f 388/40/40 565/39/39 387/44/44 23/45/45
f 27/46/46 389/47/47 566/48/48 392/49/49
f 389/47/47 163/50/50 390/51/51 566/48/48
f 566/48/48 390/51/51 164/52/52 391/53/53
f 392/49/49 566/48/48 391/53/53 21/54/54
f 127/55/55 393/56/56 567/57/57 396/58/58
f 393/56/56 128/59/59 394/60/60 567/57/57
f 567/57/57 394/60/60 18/61/61 395/62/62
f 396/58/58 567/57/57 395/62/62 30/63/63
f 103/64/64 397/65/65 568/66/66 400/67/67
f 397/65/65 104/68/68 398/69/69 568/66/66
f 568/66/66 398/69/69 24/70/70 399/71/71
f 400/67/67 568/66/66 399/71/71 32/72/72
f 128/59/59 401/73/73 569/74/74 394/60/60
f 401/73/73 129/75/75 402/76/76 569/74/74
f 569/74/74 402/76/76 34/77/77 403/78/78
f 394/60/60 569/74/74 403/78/78 18/61/61
f 19/18/18 375/17/17 570/79/79 406/80/80
f 375/17/17 140/16/16 404/81/81 570/79/79
f 570/79/79 404/81/81 141/82/82 405/83/83
f 406/80/80 570/79/79 405/83/83 35/84/84
f 152/23/23 407/85/85 571/86/86 378/24/24
f 407/85/85 153/87/87 408/88/88 571/86/86
f 571/86/86 408/88/88 36/89/89 409/90/90
f 378/24/24 571/86/86 409/90/90 20/25/25
f 21/54/54 391/53/53 572/91/91 412/92/92
f 391/53/53 164/52/52 410/93/93 572/91/91
f 572/91/91 410/93/93 165/94/94 411/95/95
f 412/92/92 572/91/91 411/95/95 37/96/96
f 176/32/32 413/97/97 573/98/98 382/33/33
f 413/97/97 177/99/99 414/100/100 573/98/98
f 573/98/98 414/100/100 38/101/101 415/102/102
f 382/33/33 573/98/98 415/102/102 22/34/34
f 23/45/45 387/44/44 574/103/103 418/104/104
f 387/44/44 188/43/43 416/105/105 574/103/103
f 574/103/103 416/105/105 189/106/106 417/107/107
f 418/104/104 574/103/103 417/107/107 39/108/108
f 104/68/68 419/109/109 575/110/110 398/69/69
f 419/109/109 105/111/111 420/112/112 575/110/110
f 575/110/110 420/112/112 40/113/113 421/114/114
f 398/69/69 575/110/110 421/114/114 24/70/70
f 116/5/5 422/115/115 576/756/116 370/6/6
f 422/115/115 117/117/117 423/118/118 576/756/116
f 576/116/116 423/753/118 33/119/119 424/120/120
f 370/757/6 576/116/116 424/120/120 17/7/7
f 41/121/121 425/122/122 577/123/123 428/124/124
f 425/122/122 185/125/125 426/126/126 577/123/123
f 577/123/123 426/126/126 186/127/127 427/128/128
f 428/124/124 577/123/123 427/128/128 50/129/129
f 173/130/130 429/131/131 578/132/132 432/133/133
f 429/131/131 174/134/134 430/135/135 578/132/132
f 578/132/132 430/135/135 49/136/136 431/137/137
f 432/133/133 578/132/132 431/137/137 42/138/138
f 43/139/139 433/140/140 579/141/141 436/142/142
f 433/140/140 161/143/143 434/144/144 579/141/141
f 579/141/141 434/144/144 162/145/145 435/146/146
f 436/142/142 579/141/141 435/146/146 56/147/147
f 149/148/148 437/149/149 580/150/150 440/151/151
f 437/149/149 150/152/152 438/153/153 580/150/150
f 580/150/150 438/153/153 55/154/154 439/155/155
f 440/151/151 580/150/150 439/155/155 44/156/156
f 45/157/157 441/158/158 581/159/159 444/160/160
f 441/158/158 137/161/161 442/162/162 581/159/159
f 581/159/159 442/162/162 138/163/163 443/164/164
f 444/160/160 581/159/159 443/164/164 54/165/165
f 125/166/166 445/167/167 582/168/168 448/169/169
f 445/167/167 126/170/170 446/171/171 582/168/168
f 582/168/168 446/171/171 53/172/172 447/173/173
f 448/169/169 582/168/168 447/173/173 46/174/174
f 113/175/175 449/176/176 583/755/177 452/751/178
f 449/176/176 114/179/179 450/180/180 583/755/177
f 583/177/177 450/750/180 52/181/181 451/182/182
f 452/178/178 583/177/177 451/182/182 47/183/183
f 101/184/184 453/185/185 584/186/186 456/187/187
f 453/185/185 102/188/188 454/189/189 584/186/186
f 584/186/186 454/189/189 51/190/190 455/191/191
f 456/187/187 584/186/186 455/191/191 48/192/192
f 14/193/193 457/194/194 585/195/195 459/196/196
f 457/194/194 34/77/77 402/76/76 585/195/195
f 585/195/195 402/76/76 129/75/75 458/197/197
f 459/196/196 585/195/195 458/197/197 130/198/198
f 35/84/84 405/83/83 586/199/199 462/200/200
f 405/83/83 141/82/82 460/201/201 586/199/199
f 586/199/199 460/201/201 142/202/202 461/203/203
f 462/200/200 586/199/199 461/203/203 5/204/204
f 153/87/87 463/205/205 587/206/206 408/88/88
f 463/205/205 154/207/207 464/208/208 587/206/206
f 587/206/206 464/208/208 11/209/209 465/210/210
f 408/88/88 587/206/206 465/210/210 36/89/89
f 37/96/96 411/95/95 588/211/211 468/212/212
f 411/95/95 165/94/94 466/213/213 588/211/211
f 588/211/211 466/213/213 166/214/214 467/215/215
f 468/212/212 588/211/211 467/215/215 7/216/216
f 177/99/99 469/217/217 589/218/218 414/100/100
f 469/217/217 178/219/219 470/220/220 589/218/218
f 589/218/218 470/220/220 9/221/221 471/222/222
f 414/100/100 589/218/218 471/222/222 38/101/101
f 39/108/108 417/107/107 590/223/223 474/224/224
f 417/107/107 189/106/106 472/225/225 590/223/223
f 590/223/223 472/225/225 190/226/226 473/227/227
f 474/224/224 590/223/223 473/227/227 4/228/228
f 16/229/229 475/230/230 591/231/231 477/232/232
f 475/230/230 40/113/113 420/112/112 591/231/231
f 591/231/231 420/112/112 105/111/111 476/233/233
f 477/232/232 591/231/231 476/233/233 106/234/234
f 1/235/235 478/236/236 592/754/237 480/740/238
f 478/236/236 33/119/119 423/753/118 592/754/237
f 592/237/237 423/118/118 117/117/117 479/239/239
f 480/238/238 592/237/237 479/239/239 118/240/240
f 57/241/241 481/242/242 593/243/243 483/244/244
f 481/242/242 184/245/245 482/246/246 593/243/243
f 593/243/243 482/246/246 185/125/125 425/122/122
f 483/244/244 593/243/243 425/122/122 41/121/121
f 172/247/247 484/248/248 594/249/249 486/250/250
f 484/248/248 173/130/130 432/133/133 594/249/249
f 594/249/249 432/133/133 42/138/138 485/251/251
f 486/250/250 594/249/249 485/251/251 58/252/252
f 59/253/253 487/254/254 595/255/255 489/256/256
f 487/254/254 160/257/257 488/258/258 595/255/255
f 595/255/255 488/258/258 161/143/143 433/140/140
f 489/256/256 595/255/255 433/140/140 43/139/139
f 148/259/259 490/260/260 596/261/261 492/262/262
f 490/260/260 149/148/148 440/151/151 596/261/261
f 596/261/261 440/151/151 44/156/156 491/263/263
f 492/262/262 596/261/261 491/263/263 60/264/264
f 61/265/265 493/266/266 597/267/267 495/268/268
f 493/266/266 136/269/269 494/270/270 597/267/267
f 597/267/267 494/270/270 137/161/161 441/158/158
f 495/268/268 597/267/267 441/158/158 45/157/157
f 124/271/271 496/272/272 598/273/273 498/274/274
f 496/272/272 125/166/166 448/169/169 598/273/273
f 598/273/273 448/169/169 46/174/174 497/275/275
f 498/274/274 598/273/273 497/275/275 62/276/276
f 112/277/277 499/278/278 599/752/279 501/746/280
f 499/278/278 113/175/175 452/751/178 599/752/279
f 599/279/279 452/178/178 47/183/183 500/281/281
f 501/280/280 599/279/279 500/281/281 63/282/282
f 100/283/283 502/284/284 600/285/285 504/286/286
f 502/284/284 101/184/184 456/187/187 600/285/285
f 600/285/285 456/187/187 48/192/192 503/287/287
f 504/286/286 600/285/285 503/287/287 64/288/288
f 50/129/129 427/128/128 601/289/289 506/290/290
f 427/128/128 186/127/127 505/291/291 601/289/289
f 601/289/289 505/291/291 187/41/41 385/38/38
f 506/290/290 601/289/289 385/38/38 25/37/37
f 102/188/188 507/292/292 602/293/293 454/189/189
f 507/292/292 103/64/64 400/67/67 602/293/293
f 602/293/293 400/67/67 32/72/72 508/294/294
f 454/189/189 602/293/293 508/294/294 51/190/190
f 114/179/179 509/295/295 603/749/296 450/180/180
f 509/295/295 115/1/1 372/748/4 603/749/296
f 603/296/296 372/4/4 31/9/9 510/297/297
f 450/750/180 603/296/296 510/297/297 52/181/181
f 126/170/170 511/298/298 604/299/299 446/171/171
f 511/298/298 127/55/55 396/58/58 604/299/299
f 604/299/299 396/58/58 30/63/63 512/300/300
f 446/171/171 604/299/299 512/300/300 53/172/172
f 54/165/165 443/164/164 605/301/301 514/302/302
f 443/164/164 138/163/163 513/303/303 605/301/301
f 605/301/301 513/303/303 139/14/14 373/11/11
f 514/302/302 605/301/301 373/11/11 29/10/10
f 150/152/152 515/304/304 606/305/305 438/153/153
f 515/304/304 151/19/19 380/22/22 606/305/305
f 606/305/305 380/22/22 28/27/27 516/306/306
f 438/153/153 606/305/305 516/306/306 55/154/154
f 56/147/147 435/146/146 607/307/307 518/308/308
f 435/146/146 162/145/145 517/309/309 607/307/307
f 607/307/307 517/309/309 163/50/50 389/47/47
f 518/308/308 607/307/307 389/47/47 27/46/46
f 174/134/134 519/310/310 608/311/311 430/135/135
f 519/310/310 175/28/28 384/31/31 608/311/311
f 608/311/311 384/31/31 26/36/36 520/312/312
f 430/135/135 608/311/311 520/312/312 49/136/136
f 65/313/313 521/314/314 609/315/315 523/316/316
f 521/314/314 183/317/317 522/318/318 609/315/315
f 609/315/315 522/318/318 184/245/245 481/242/242
f 523/316/316 609/315/315 481/242/242 57/241/241
f 171/319/319 524/320/320 610/321/321 526/322/322
f 524/320/320 172/247/247 486/250/250 610/321/321
f 610/321/321 486/250/250 58/252/252 525/323/323
f 526/322/322 610/321/321 525/323/323 66/324/324
f 67/325/325 527/326/326 611/327/327 529/328/328
f 527/326/326 159/329/329 528/330/330 611/327/327
f 611/327/327 528/330/330 160/257/257 487/254/254
f 529/328/328 611/327/327 487/254/254 59/253/253
f 147/331/331 530/332/332 612/333/333 532/334/334
f 530/332/332 148/259/259 492/262/262 612/333/333
f 612/333/333 492/262/262 60/264/264 531/335/335
f 532/334/334 612/333/333 531/335/335 68/336/336
f 69/337/337 533/338/338 613/339/339 535/340/340
f 533/338/338 135/341/341 534/342/342 613/339/339
f 613/339/339 534/342/342 136/269/269 493/266/266
f 535/340/340 613/339/339 493/266/266 61/265/265
f 123/343/343 536/344/344 614/345/345 538/346/346
f 536/344/344 124/271/271 498/274/274 614/345/345
f 614/345/345 498/274/274 62/276/276 537/347/347
f 538/346/346 614/345/345 537/347/347 70/348/348
f 111/349/349 539/350/350 615/747/351 541/744/352
f 539/350/350 112/277/277 501/746/280 615/747/351
f 615/351/351 501/280/280 63/282/282 540/353/353
f 541/352/352 615/351/351 540/353/353 71/354/354
f 99/355/355 542/356/356 616/357/357 544/358/358
f 542/356/356 100/283/283 504/286/286 616/357/357
f 616/357/357 504/286/286 64/288/288 543/359/359
f 544/358/358 616/357/357 543/359/359 72/360/360
f 73/361/361 545/362/362 617/363/363 547/364/364
f 545/362/362 182/365/365 546/366/366 617/363/363
f 617/363/363 546/366/366 183/317/317 521/314/314
f 547/364/364 617/363/363 521/314/314 65/313/313
f 170/367/367 548/368/368 618/369/369 550/370/370
f 548/368/368 171/319/319 526/322/322 618/369/369
f 618/369/369 526/322/322 66/324/324 549/371/371
f 550/370/370 618/369/369 549/371/371 74/372/372
f 75/373/373 551/374/374 619/375/375 553/376/376
f 551/374/374 158/377/377 552/378/378 619/375/375
f 619/375/375 552/378/378 159/329/329 527/326/326
f 553/376/376 619/375/375 527/326/326 67/325/325
f 146/379/379 554/380/380 620/381/381 556/382/382
f 554/380/380 147/331/331 532/334/334 620/381/381
f 620/381/381 532/334/334 68/336/336 555/383/383
f 556/382/382 620/381/381 555/383/383 76/384/384
f 77/385/385 557/386/386 621/387/387 559/388/388
f 557/386/386 134/389/389 558/390/390 621/387/387
f 621/387/387 558/390/390 135/341/341 533/338/338
f 559/388/388 621/387/387 533/338/338 69/337/337
f 122/391/391 560/392/392 622/393/393 194/394/394
f 560/392/392 123/343/343 538/346/346 622/393/393
f 622/393/393 538/346/346 70/348/348 193/395/395
f 194/394/394 622/393/393 193/395/395 78/396/396
f 110/397/397 195/398/398 623/745/399 197/741/400
f 195/398/398 111/349/349 541/744/352 623/745/399
f 623/399/399 541/352/352 71/354/354 196/401/401
f 197/400/400 623/399/399 196/401/401 79/402/402
f 98/403/403 198/404/404 624/405/405 200/406/406
f 198/404/404 99/355/355 544/358/358 624/405/405
f 624/405/405 544/358/358 72/360/360 199/407/407
f 200/406/406 624/405/405 199/407/407 80/408/408
f 181/409/409 201/410/410 625/411/411 203/412/412
f 201/410/410 182/365/365 545/362/362 625/411/411
f 625/411/411 545/362/362 73/361/361 202/413/413
f 203/412/412 625/411/411 202/413/413 3/414/414
f 169/415/415 204/416/416 626/417/417 206/418/418
f 204/416/416 170/367/367 550/370/370 626/417/417
f 626/417/417 550/370/370 74/372/372 205/419/419
f 206/418/418 626/417/417 205/419/419 10/420/420
f 157/421/421 207/422/422 627/423/423 209/424/424
f 207/422/422 158/377/377 551/374/374 627/423/423
f 627/423/423 551/374/374 75/373/373 208/425/425
f 209/424/424 627/423/423 208/425/425 8/426/426
f 145/427/427 210/428/428 628/429/429 212/430/430
f 210/428/428 146/379/379 556/382/382 628/429/429
f 628/429/429 556/382/382 76/384/384 211/431/431
f 212/430/430 628/429/429 211/431/431 12/432/432
f 6/433/433 213/434/434 629/435/435 215/436/436
f 213/434/434 133/437/437 214/438/438 629/435/435
f 629/435/435 214/438/438 134/389/389 557/386/386
f 215/436/436 629/435/435 557/386/386 77/385/385
f 121/439/439 216/440/440 630/441/441 218/442/442
f 216/440/440 122/391/391 194/394/394 630/441/441
f 630/441/441 194/394/394 78/396/396 217/443/443
f 218/442/442 630/441/441 217/443/443 13/444/444
f 109/445/445 219/446/446 631/742/447 221/743/448
f 219/446/446 110/397/397 197/741/400 631/742/447
f 631/447/447 197/400/400 79/402/402 220/449/449
f 221/448/448 631/447/447 220/449/449 2/450/450
f 97/451/451 222/452/452 632/453/453 224/454/454
f 222/452/452 98/403/403 200/406/406 632/453/453
f 632/453/453 200/406/406 80/408/408 223/455/455
f 224/454/454 632/453/453 223/455/455 15/456/456
f 119/457/457 225/458/458 633/459/459 228/737/460
f 225/458/458 120/461/461 226/462/462 633/459/459
f 633/459/459 226/462/462 81/463/463 227/464/464
f 228/737/460 633/459/459 227/464/464 89/465/465
f 83/466/466 229/467/467 634/468/468 232/469/469
f 229/467/467 96/470/470 230/783/471 634/468/468
f 634/468/468 230/783/471 131/472/472 231/473/473
f 232/469/469 634/468/468 231/473/473 132/474/474
f 95/475/475 233/784/476 635/477/477 236/478/478
f 233/784/476 143/479/479 234/480/480 635/477/477
f 635/477/477 234/480/480 144/481/481 235/482/482
f 236/478/478 635/477/477 235/482/482 84/483/483
f 155/484/484 237/485/485 636/486/486 240/785/487
f 237/485/485 156/488/488 238/489/489 636/486/486
f 636/486/486 238/489/489 85/490/490 239/491/491
f 240/785/487 636/486/486 239/491/491 94/492/492
f 93/493/493 241/786/494 637/495/495 244/496/496
f 241/786/494 167/497/497 242/498/498 637/495/495
f 637/495/495 242/498/498 168/499/499 243/500/500
f 244/496/496 637/495/495 243/500/500 86/501/501
f 87/502/502 245/503/503 638/504/504 248/505/505
f 245/503/503 92/506/506 246/787/507 638/504/504
f 638/504/504 246/787/507 179/508/508 247/509/509
f 248/505/505 638/504/504 247/509/509 180/510/510
f 191/511/511 249/512/512 639/513/513 252/788/514
f 249/512/512 192/515/515 250/516/516 639/513/513
f 639/513/513 250/516/516 88/517/517 251/518/518
f 252/788/514 639/513/513 251/518/518 91/519/519
f 107/520/520 253/521/521 640/522/522 256/789/523
f 253/521/521 108/524/524 254/525/525 640/522/522
f 640/522/522 254/525/525 82/526/526 255/527/527
f 256/789/523 640/522/522 255/527/527 90/528/528
f 118/240/240 257/529/529 641/739/530 480/238/238
f 257/529/529 119/779/457 228/738/460 641/739/530
f 641/530/530 228/460/460 89/775/465 258/531/531
f 480/740/238 641/530/530 258/531/531 1/235/235
f 106/234/234 259/532/532 642/533/533 477/232/232
f 259/532/532 107/782/520 256/523/523 642/533/533
f 642/533/533 256/523/523 90/778/528 260/534/534
f 477/232/232 642/533/533 260/534/534 16/229/229
f 190/226/226 261/535/535 643/536/536 473/227/227
f 261/535/535 191/761/511 252/514/514 643/536/536
f 643/536/536 252/514/514 91/781/519 262/537/537
f 473/227/227 643/536/536 262/537/537 4/228/228
f 178/219/219 263/538/538 644/539/539 470/220/220
f 263/538/538 179/764/508 246/507/507 644/539/539
f 644/539/539 246/507/507 92/760/506 264/540/540
f 470/220/220 644/539/539 264/540/540 9/221/221
f 166/214/214 265/541/541 645/542/542 467/215/215
f 265/541/541 167/767/497 241/494/494 645/542/542
f 645/542/542 241/494/494 93/763/493 266/543/543
f 467/215/215 645/542/542 266/543/543 7/216/216
f 154/207/207 267/544/544 646/545/545 464/208/208
f 267/544/544 155/770/484 240/487/487 646/545/545
f 646/545/545 240/487/487 94/766/492 268/546/546
f 464/208/208 646/545/545 268/546/546 11/209/209
f 5/204/204 461/203/203 647/547/547 270/548/548
f 461/203/203 142/202/202 269/549/549 647/547/547
f 647/547/547 269/549/549 143/773/479 233/476/476
f 270/548/548 647/547/547 233/476/476 95/769/475
f 130/198/198 271/550/550 648/551/551 459/196/196
f 271/550/550 131/776/472 230/471/471 648/551/551
f 648/551/551 230/471/471 96/772/470 272/552/552
f 459/196/196 648/551/551 272/552/552 14/193/193
f 73/361/361 273/553/553 649/554/554 202/413/413
f 273/553/553 98/403/403 222/452/452 649/554/554
f 649/554/554 222/452/452 97/451/451 274/555/555
f 202/413/413 649/554/554 274/555/555 3/414/414
f 65/313/313 275/556/556 650/557/557 547/364/364
f 275/556/556 99/355/355 198/404/404 650/557/557
f 650/557/557 198/404/404 98/403/403 273/553/553
f 547/364/364 650/557/557 273/553/553 73/361/361
f 57/241/241 276/558/558 651/559/559 523/316/316
f 276/558/558 100/283/283 542/356/356 651/559/559
f 651/559/559 542/356/356 99/355/355 275/556/556
f 523/316/316 651/559/559 275/556/556 65/313/313
f 41/121/121 277/560/560 652/561/561 483/244/244
f 277/560/560 101/184/184 502/284/284 652/561/561
f 652/561/561 502/284/284 100/283/283 276/558/558
f 483/244/244 652/561/561 276/558/558 57/241/241
f 50/129/129 278/562/562 653/563/563 428/124/124
f 278/562/562 102/188/188 453/185/185 653/563/563
f 653/563/563 453/185/185 101/184/184 277/560/560
f 428/124/124 653/563/563 277/560/560 41/121/121
f 25/37/37 279/564/564 654/565/565 506/290/290
f 279/564/564 103/64/64 507/292/292 654/565/565
f 654/565/565 507/292/292 102/188/188 278/562/562
f 506/290/290 654/565/565 278/562/562 50/129/129
f 23/45/45 280/566/566 655/567/567 388/40/40
f 280/566/566 104/68/68 397/65/65 655/567/567
f 655/567/567 397/65/65 103/64/64 279/564/564
f 388/40/40 655/567/567 279/564/564 25/37/37
f 39/108/108 281/568/568 656/569/569 418/104/104
f 281/568/568 105/111/111 419/109/109 656/569/569
f 656/569/569 419/109/109 104/68/68 280/566/566
f 418/104/104 656/569/569 280/566/566 23/45/45
f 106/234/234 476/233/233 657/570/570 282/571/571
f 476/233/233 105/111/111 281/568/568 657/570/570
f 657/570/570 281/568/568 39/108/108 474/224/224
f 282/571/571 657/570/570 474/224/224 4/228/228
f 91/781/519 283/780/572 658/573/573 262/537/537
f 283/780/572 107/782/520 259/532/532 658/573/573
f 658/573/573 259/532/532 106/234/234 282/571/571
f 262/537/537 658/573/573 282/571/571 4/228/228
f 88/517/517 284/574/574 659/575/575 251/518/518
f 284/574/574 108/524/524 253/521/521 659/575/575
f 659/575/575 253/521/521 107/520/520 283/572/572
f 251/518/518 659/575/575 283/572/572 91/519/519
f 80/408/408 285/576/576 660/577/577 223/455/455
f 285/576/576 110/397/397 219/446/446 660/577/577
f 660/577/577 219/446/446 109/445/445 286/578/578
f 223/455/455 660/577/577 286/578/578 15/456/456
f 72/360/360 287/579/579 661/580/580 199/407/407
f 287/579/579 111/349/349 195/398/398 661/580/580
f 661/580/580 195/398/398 110/397/397 285/576/576
f 199/407/407 661/580/580 285/576/576 80/408/408
f 64/288/288 288/581/581 662/582/582 543/359/359
f 288/581/581 112/277/277 539/350/350 662/582/582
f 662/582/582 539/350/350 111/349/349 287/579/579
f 543/359/359 662/582/582 287/579/579 72/360/360
f 48/192/192 289/583/583 663/584/584 503/287/287
f 289/583/583 113/175/175 499/278/278 663/584/584
f 663/584/584 499/278/278 112/277/277 288/581/581
f 503/287/287 663/584/584 288/581/581 64/288/288
f 51/190/190 290/585/585 664/586/586 455/191/191
f 290/585/585 114/179/179 449/176/176 664/586/586
f 664/586/586 449/176/176 113/175/175 289/583/583
f 455/191/191 664/586/586 289/583/583 48/192/192
f 32/72/72 291/587/587 665/588/588 508/294/294
f 291/587/587 115/1/1 509/295/295 665/588/588
f 665/588/588 509/295/295 114/179/179 290/585/585
f 508/294/294 665/588/588 290/585/585 51/190/190
f 24/70/70 292/589/589 666/590/590 399/71/71
f 292/589/589 116/5/5 369/2/2 666/590/590
f 666/590/590 369/2/2 115/1/1 291/587/587
f 399/71/71 666/590/590 291/587/587 32/72/72
f 40/113/113 293/591/591 667/592/592 421/114/114
f 293/591/591 117/117/117 422/115/115 667/592/592
f 667/592/592 422/115/115 116/5/5 292/589/589
f 421/114/114 667/592/592 292/589/589 24/70/70
f 118/240/240 479/239/239 668/593/593 294/594/594
f 479/239/239 117/117/117 293/591/591 668/593/593
f 668/593/593 293/591/591 40/113/113 475/230/230
f 294/594/594 668/593/593 475/230/230 16/229/229
f 90/778/528 295/777/595 669/596/596 260/534/534
f 295/777/595 119/779/457 257/529/529 669/596/596
f 669/596/596 257/529/529 118/240/240 294/594/594
f 260/534/534 669/596/596 294/594/594 16/229/229
f 82/526/526 296/597/597 670/598/598 255/527/527
f 296/597/597 120/461/461 225/458/458 670/598/598
f 670/598/598 225/458/458 119/457/457 295/595/595
f 255/527/527 670/598/598 295/595/595 90/528/528
f 79/402/402 297/599/599 671/600/600 220/449/449
f 297/599/599 122/391/391 216/440/440 671/600/600
f 671/600/600 216/440/440 121/439/439 298/601/601
f 220/449/449 671/600/600 298/601/601 2/450/450
f 71/354/354 299/602/602 672/603/603 196/401/401
f 299/602/602 123/343/343 560/392/392 672/603/603
f 672/603/603 560/392/392 122/391/391 297/599/599
f 196/401/401 672/603/603 297/599/599 79/402/402
f 63/282/282 300/604/604 673/605/605 540/353/353
f 300/604/604 124/271/271 536/344/344 673/605/605
f 673/605/605 536/344/344 123/343/343 299/602/602
f 540/353/353 673/605/605 299/602/602 71/354/354
f 47/183/183 301/606/606 674/607/607 500/281/281
f 301/606/606 125/166/166 496/272/272 674/607/607
f 674/607/607 496/272/272 124/271/271 300/604/604
f 500/281/281 674/607/607 300/604/604 63/282/282
f 52/181/181 302/608/608 675/609/609 451/182/182
f 302/608/608 126/170/170 445/167/167 675/609/609
f 675/609/609 445/167/167 125/166/166 301/606/606
f 451/182/182 675/609/609 301/606/606 47/183/183
f 31/9/9 303/610/610 676/611/611 510/297/297
f 303/610/610 127/55/55 511/298/298 676/611/611
f 676/611/611 511/298/298 126/170/170 302/608/608
f 510/297/297 676/611/611 302/608/608 52/181/181
f 17/7/7 304/612/612 677/613/613 371/8/8
f 304/612/612 128/59/59 393/56/56 677/613/613
f 677/613/613 393/56/56 127/55/55 303/610/610
f 371/8/8 677/613/613 303/610/610 31/9/9
f 33/119/119 305/614/614 678/615/615 424/120/120
f 305/614/614 129/75/75 401/73/73 678/615/615
f 678/615/615 401/73/73 128/59/59 304/612/612
f 424/120/120 678/615/615 304/612/612 17/7/7
f 130/198/198 458/197/197 679/616/616 306/617/617
f 458/197/197 129/75/75 305/614/614 679/616/616
f 679/616/616 305/614/614 33/119/119 478/236/236
f 306/617/617 679/616/616 478/236/236 1/235/235
f 89/775/465 307/774/618 680/619/619 258/531/531
f 307/774/618 131/776/472 271/550/550 680/619/619
f 680/619/619 271/550/550 130/198/198 306/617/617
f 258/531/531 680/619/619 306/617/617 1/235/235
f 132/474/474 231/473/473 681/620/620 308/621/621
f 231/473/473 131/472/472 307/618/618 681/620/620
f 681/620/620 307/618/618 89/465/465 227/464/464
f 308/621/621 681/620/620 227/464/464 81/463/463
f 134/389/389 214/438/438 682/622/622 310/623/623
f 214/438/438 133/437/437 309/624/624 682/622/622
f 682/622/622 309/624/624 13/444/444 217/443/443
f 310/623/623 682/622/622 217/443/443 78/396/396
f 135/341/341 558/390/390 683/625/625 311/626/626
f 558/390/390 134/389/389 310/623/623 683/625/625
f 683/625/625 310/623/623 78/396/396 193/395/395
f 311/626/626 683/625/625 193/395/395 70/348/348
f 136/269/269 534/342/342 684/627/627 312/628/628
f 534/342/342 135/341/341 311/626/626 684/627/627
f 684/627/627 311/626/626 70/348/348 537/347/347
f 312/628/628 684/627/627 537/347/347 62/276/276
f 137/161/161 494/270/270 685/629/629 313/630/630
f 494/270/270 136/269/269 312/628/628 685/629/629
f 685/629/629 312/628/628 62/276/276 497/275/275
f 313/630/630 685/629/629 497/275/275 46/174/174
f 138/163/163 442/162/162 686/631/631 314/632/632
f 442/162/162 137/161/161 313/630/630 686/631/631
f 686/631/631 313/630/630 46/174/174 447/173/173
f 314/632/632 686/631/631 447/173/173 53/172/172
f 139/14/14 513/303/303 687/633/633 315/634/634
f 513/303/303 138/163/163 314/632/632 687/633/633
f 687/633/633 314/632/632 53/172/172 512/300/300
f 315/634/634 687/633/633 512/300/300 30/63/63
f 140/16/16 374/15/15 688/635/635 316/636/636
f 374/15/15 139/14/14 315/634/634 688/635/635
f 688/635/635 315/634/634 30/63/63 395/62/62
f 316/636/636 688/635/635 395/62/62 18/61/61
f 141/82/82 404/81/81 689/637/637 317/638/638
f 404/81/81 140/16/16 316/636/636 689/637/637
f 689/637/637 316/636/636 18/61/61 403/78/78
f 317/638/638 689/637/637 403/78/78 34/77/77
f 142/202/202 460/201/201 690/639/639 318/640/640
f 460/201/201 141/82/82 317/638/638 690/639/639
f 690/639/639 317/638/638 34/77/77 457/194/194
f 318/640/640 690/639/639 457/194/194 14/193/193
f 143/773/479 269/549/549 691/641/641 319/771/642
f 269/549/549 142/202/202 318/640/640 691/641/641
f 691/641/641 318/640/640 14/193/193 272/552/552
f 319/771/642 691/641/641 272/552/552 96/772/470
f 144/481/481 234/480/480 692/643/643 320/644/644
f 234/480/480 143/479/479 319/642/642 692/643/643
f 692/643/643 319/642/642 96/470/470 229/467/467
f 320/644/644 692/643/643 229/467/467 83/466/466
f 77/385/385 321/645/645 693/646/646 215/436/436
f 321/645/645 146/379/379 210/428/428 693/646/646
f 693/646/646 210/428/428 145/427/427 322/647/647
f 215/436/436 693/646/646 322/647/647 6/433/433
f 69/337/337 323/648/648 694/649/649 559/388/388
f 323/648/648 147/331/331 554/380/380 694/649/649
f 694/649/649 554/380/380 146/379/379 321/645/645
f 559/388/388 694/649/649 321/645/645 77/385/385
f 61/265/265 324/650/650 695/651/651 535/340/340
f 324/650/650 148/259/259 530/332/332 695/651/651
f 695/651/651 530/332/332 147/331/331 323/648/648
f 535/340/340 695/651/651 323/648/648 69/337/337
f 45/157/157 325/652/652 696/653/653 495/268/268
f 325/652/652 149/148/148 490/260/260 696/653/653
f 696/653/653 490/260/260 148/259/259 324/650/650
f 495/268/268 696/653/653 324/650/650 61/265/265
f 54/165/165 326/654/654 697/655/655 444/160/160
f 326/654/654 150/152/152 437/149/149 697/655/655
f 697/655/655 437/149/149 149/148/148 325/652/652
f 444/160/160 697/655/655 325/652/652 45/157/157
f 29/10/10 327/656/656 698/657/657 514/302/302
f 327/656/656 151/19/19 515/304/304 698/657/657
f 698/657/657 515/304/304 150/152/152 326/654/654
f 514/302/302 698/657/657 326/654/654 54/165/165
f 19/18/18 328/658/658 699/659/659 376/13/13
f 328/658/658 152/23/23 377/20/20 699/659/659
f 699/659/659 377/20/20 151/19/19 327/656/656
f 376/13/13 699/659/659 327/656/656 29/10/10
f 35/84/84 329/660/660 700/661/661 406/80/80
f 329/660/660 153/87/87 407/85/85 700/661/661
f 700/661/661 407/85/85 152/23/23 328/658/658
f 406/80/80 700/661/661 328/658/658 19/18/18
f 5/204/204 330/662/662 701/663/663 462/200/200
f 330/662/662 154/207/207 463/205/205 701/663/663
f 701/663/663 463/205/205 153/87/87 329/660/660
f 462/200/200 701/663/663 329/660/660 35/84/84
f 95/769/475 331/768/664 702/665/665 270/548/548
f 331/768/664 155/770/484 267/544/544 702/665/665
f 702/665/665 267/544/544 154/207/207 330/662/662
f 270/548/548 702/665/665 330/662/662 5/204/204
f 84/483/483 332/666/666 703/667/667 236/478/478
f 332/666/666 156/488/488 237/485/485 703/667/667
f 703/667/667 237/485/485 155/484/484 331/664/664
f 236/478/478 703/667/667 331/664/664 95/475/475
f 12/432/432 211/431/431 704/668/668 334/669/669
f 211/431/431 76/384/384 333/670/670 704/668/668
f 704/668/668 333/670/670 158/377/377 207/422/422
f 334/669/669 704/668/668 207/422/422 157/421/421
f 159/329/329 552/378/378 705/671/671 335/672/672
f 552/378/378 158/377/377 333/670/670 705/671/671
f 705/671/671 333/670/670 76/384/384 555/383/383
f 335/672/672 705/671/671 555/383/383 68/336/336
f 160/257/257 528/330/330 706/673/673 336/674/674
f 528/330/330 159/329/329 335/672/672 706/673/673
f 706/673/673 335/672/672 68/336/336 531/335/335
f 336/674/674 706/673/673 531/335/335 60/264/264
f 161/143/143 488/258/258 707/675/675 337/676/676
f 488/258/258 160/257/257 336/674/674 707/675/675
f 707/675/675 336/674/674 60/264/264 491/263/263
f 337/676/676 707/675/675 491/263/263 44/156/156
f 162/145/145 434/144/144 708/677/677 338/678/678
f 434/144/144 161/143/143 337/676/676 708/677/677
f 708/677/677 337/676/676 44/156/156 439/155/155
f 338/678/678 708/677/677 439/155/155 55/154/154
f 163/50/50 517/309/309 709/679/679 339/680/680
f 517/309/309 162/145/145 338/678/678 709/679/679
f 709/679/679 338/678/678 55/154/154 516/306/306
f 339/680/680 709/679/679 516/306/306 28/27/27
f 164/52/52 390/51/51 710/681/681 340/682/682
f 390/51/51 163/50/50 339/680/680 710/681/681
f 710/681/681 339/680/680 28/27/27 379/26/26
f 340/682/682 710/681/681 379/26/26 20/25/25
f 165/94/94 410/93/93 711/683/683 341/684/684
f 410/93/93 164/52/52 340/682/682 711/683/683
f 711/683/683 340/682/682 20/25/25 409/90/90
f 341/684/684 711/683/683 409/90/90 36/89/89
f 166/214/214 466/213/213 712/685/685 342/686/686
f 466/213/213 165/94/94 341/684/684 712/685/685
f 712/685/685 341/684/684 36/89/89 465/210/210
f 342/686/686 712/685/685 465/210/210 11/209/209
f 11/209/209 268/546/546 713/687/687 342/686/686
f 268/546/546 94/766/492 343/765/688 713/687/687
f 713/687/687 343/765/688 167/767/497 265/541/541
f 342/686/686 713/687/687 265/541/541 166/214/214
f 168/499/499 242/498/498 714/689/689 344/690/690
f 242/498/498 167/497/497 343/688/688 714/689/689
f 714/689/689 343/688/688 94/492/492 239/491/491
f 344/690/690 714/689/689 239/491/491 85/490/490
f 75/373/373 345/691/691 715/692/692 208/425/425
f 345/691/691 170/367/367 204/416/416 715/692/692
f 715/692/692 204/416/416 169/415/415 346/693/693
f 208/425/425 715/692/692 346/693/693 8/426/426
f 67/325/325 347/694/694 716/695/695 553/376/376
f 347/694/694 171/319/319 548/368/368 716/695/695
f 716/695/695 548/368/368 170/367/367 345/691/691
f 553/376/376 716/695/695 345/691/691 75/373/373
f 59/253/253 348/696/696 717/697/697 529/328/328
f 348/696/696 172/247/247 524/320/320 717/697/697
f 717/697/697 524/320/320 171/319/319 347/694/694
f 529/328/328 717/697/697 347/694/694 67/325/325
f 43/139/139 349/698/698 718/699/699 489/256/256
f 349/698/698 173/130/130 484/248/248 718/699/699
f 718/699/699 484/248/248 172/247/247 348/696/696
f 489/256/256 718/699/699 348/696/696 59/253/253
f 56/147/147 350/700/700 719/701/701 436/142/142
f 350/700/700 174/134/134 429/131/131 719/701/701
f 719/701/701 429/131/131 173/130/130 349/698/698
f 436/142/142 719/701/701 349/698/698 43/139/139
f 27/46/46 351/702/702 720/703/703 518/308/308
f 351/702/702 175/28/28 519/310/310 720/703/703
f 720/703/703 519/310/310 174/134/134 350/700/700
f 518/308/308 720/703/703 350/700/700 56/147/147
f 21/54/54 352/704/704 721/705/705 392/49/49
f 352/704/704 176/32/32 381/29/29 721/705/705
f 721/705/705 381/29/29 175/28/28 351/702/702
f 392/49/49 721/705/705 351/702/702 27/46/46
f 37/96/96 353/706/706 722/707/707 412/92/92
f 353/706/706 177/99/99 413/97/97 722/707/707
f 722/707/707 413/97/97 176/32/32 352/704/704
f 412/92/92 722/707/707 352/704/704 21/54/54
f 7/216/216 354/708/708 723/709/709 468/212/212
f 354/708/708 178/219/219 469/217/217 723/709/709
f 723/709/709 469/217/217 177/99/99 353/706/706
f 468/212/212 723/709/709 353/706/706 37/96/96
f 93/763/493 355/762/710 724/711/711 266/543/543
f 355/762/710 179/764/508 263/538/538 724/711/711
f 724/711/711 263/538/538 178/219/219 354/708/708
f 266/543/543 724/711/711 354/708/708 7/216/216
f 180/510/510 247/509/509 725/712/712 356/713/713
f 247/509/509 179/508/508 355/710/710 725/712/712
f 725/712/712 355/710/710 93/493/493 244/496/496
f 356/713/713 725/712/712 244/496/496 86/501/501
f 10/420/420 205/419/419 726/714/714 358/715/715
f 205/419/419 74/372/372 357/716/716 726/714/714
f 726/714/714 357/716/716 182/365/365 201/410/410
f 358/715/715 726/714/714 201/410/410 181/409/409
f 183/317/317 546/366/366 727/717/717 359/718/718
f 546/366/366 182/365/365 357/716/716 727/717/717
f 727/717/717 357/716/716 74/372/372 549/371/371
f 359/718/718 727/717/717 549/371/371 66/324/324
f 184/245/245 522/318/318 728/719/719 360/720/720
f 522/318/318 183/317/317 359/718/718 728/719/719
f 728/719/719 359/718/718 66/324/324 525/323/323
f 360/720/720 728/719/719 525/323/323 58/252/252
f 185/125/125 482/246/246 729/721/721 361/722/722
f 482/246/246 184/245/245 360/720/720 729/721/721
f 729/721/721 360/720/720 58/252/252 485/251/251
f 361/722/722 729/721/721 485/251/251 42/138/138
f 186/127/127 426/126/126 730/723/723 362/724/724
f 426/126/126 185/125/125 361/722/722 730/723/723
f 730/723/723 361/722/722 42/138/138 431/137/137
f 362/724/724 730/723/723 431/137/137 49/136/136
f 187/41/41 505/291/291 731/725/725 363/726/726
f 505/291/291 186/127/127 362/724/724 731/725/725
f 731/725/725 362/724/724 49/136/136 520/312/312
f 363/726/726 731/725/725 520/312/312 26/36/36
f 188/43/43 386/42/42 732/727/727 364/728/728
f 386/42/42 187/41/41 363/726/726 732/727/727
f 732/727/727 363/726/726 26/36/36 383/35/35
f 364/728/728 732/727/727 383/35/35 22/34/34
f 189/106/106 416/105/105 733/729/729 365/730/730
f 416/105/105 188/43/43 364/728/728 733/729/729
f 733/729/729 364/728/728 22/34/34 415/102/102
f 365/730/730 733/729/729 415/102/102 38/101/101
f 190/226/226 472/225/225 734/731/731 366/732/732
f 472/225/225 189/106/106 365/730/730 734/731/731
f 734/731/731 365/730/730 38/101/101 471/222/222
f 366/732/732 734/731/731 471/222/222 9/221/221
f 92/760/506 367/759/733 735/734/734 264/540/540
f 367/759/733 191/761/511 261/535/535 735/734/734
f 735/734/734 261/535/535 190/226/226 366/732/732
f 264/540/540 735/734/734 366/732/732 9/221/221
f 87/502/502 368/735/735 736/736/736 245/503/503
f 368/735/735 192/515/515 249/512/512 736/736/736
f 736/736/736 249/512/512 191/511/511 367/733/733
f 245/503/503 736/736/736 367/733/733 92/506/506
