# This file uses centimeters as units for non-parametric coordinates.

mtllib Isla2.mtl
g default
v 30.541784 0.897568 12.205313
v 41.856941 1.075021 12.517288
v 51.320576 1.090747 8.714578
v 28.923376 1.042388 1.950490
v 41.557793 2.075643 1.064074
v 54.282822 1.304458 1.928882
v 31.885473 0.896323 -7.670295
v 43.406017 1.045508 -11.383570
v 52.312763 1.083118 -9.317383
v 37.017704 1.031778 -9.518332
v 29.500671 1.028631 -3.435803
v 53.781166 1.267158 -4.150815
v 48.831741 1.064168 -11.250555
v 34.828518 1.035466 13.345335
v 41.733150 1.963410 7.187699
v 35.450367 1.786704 1.737931
v 29.329737 1.027977 8.163271
v 48.032249 1.090353 10.196949
v 52.899925 1.284580 5.915757
v 47.690708 2.001116 0.322700
v 42.822079 1.786269 -5.483822
v 35.948769 1.693925 8.005047
v 47.488594 1.871131 5.483076
v 36.608006 1.667606 -4.332246
v 47.684036 1.729460 -5.640533
v 17.788927 -8.053190 28.097340
v 28.307196 -8.053190 32.214745
v 43.241154 -8.053190 30.703056
v 11.190208 -8.053190 19.123762
v 8.713509 -8.053190 3.050786
v 56.060440 -8.053190 25.189108
v 63.573277 -8.053190 19.809479
v 69.623909 -8.053190 13.540946
v 72.847443 -8.053190 5.224863
v 9.984251 -8.053190 -10.262161
v 18.383923 -8.053190 -20.632563
v 71.206390 -8.053190 -8.907879
v 65.869926 -8.053190 -22.847225
v 30.637409 -8.053190 -26.986437
v 45.058952 -8.053190 -30.258734
v 58.395870 -8.053190 -29.529299
v 60.949486 -0.288696 3.562103
v 21.469000 -0.306101 -5.998513
v 26.491682 -0.311701 -12.572073
v 59.856178 -0.283173 -5.234262
v 56.617294 -0.291597 -13.958637
v 34.603981 -0.293513 -16.138243
v 43.764648 -0.291319 -18.418135
v 52.026386 -0.295707 -18.152594
v 22.822258 -2.347800 22.230766
v 31.053572 -2.347800 25.452936
v 42.740479 -2.347800 24.269934
v 17.658278 -2.347800 15.208290
v 15.720081 -2.347800 2.630017
v 52.772507 -2.347800 19.954865
v 58.651848 -2.347800 15.744915
v 63.386906 -2.347800 10.839331
v 65.909561 -2.347800 4.331390
v 16.714531 -2.347800 -7.788337
v 23.287888 -2.347800 -15.903931
v 64.625320 -2.347800 -6.728511
v 60.449142 -2.347800 -17.637066
v 32.877132 -2.347800 -20.876303
v 44.163040 -2.347800 -23.437113
v 54.600151 -2.347800 -22.866278
v 19.513218 -5.873085 26.087601
v 22.468315 -8.053190 30.778696
v 29.248032 -5.873085 29.898321
v 35.582726 -8.053190 32.122513
v 43.069633 -5.873085 28.499235
v 13.406002 -5.873085 17.782421
v 13.991877 -8.053190 24.453636
v 11.113779 -5.873085 2.906641
v 9.496960 -8.053190 11.383893
v 50.228725 -8.053190 28.157431
v 54.934074 -5.873085 23.395992
v 60.251289 -8.053190 22.501562
v 61.887321 -5.873085 18.417065
v 66.798401 -8.053190 16.827541
v 67.487274 -5.873085 12.615442
v 71.747025 -8.053190 9.934891
v 70.470703 -5.873085 4.918782
v 12.289871 -5.873085 -9.414694
v 8.641220 -8.053190 -4.058801
v 20.063896 -5.873085 -19.012655
v 13.446756 -8.053190 -15.876593
v 72.604828 -8.053190 -1.373646
v 68.951889 -5.873085 -8.161283
v 68.839325 -8.053190 -16.425081
v 64.012901 -5.873085 -21.062359
v 31.404680 -5.873085 -24.893263
v 24.150942 -8.053190 -24.260546
v 44.752037 -5.873085 -27.921824
v 37.732918 -8.053190 -29.036142
v 57.095551 -5.873085 -27.246721
v 52.236980 -8.053190 -30.503283
v 62.664478 -8.053190 -27.096289
v 32.314137 0.989673 12.674455
v 35.563110 1.402431 10.811195
v 32.599289 1.384884 7.937814
v 30.029644 0.987835 10.435743
v 38.199837 1.062633 13.229137
v 41.827335 1.555705 9.997095
v 38.921078 1.878821 7.764651
v 41.534451 2.102657 4.203717
v 38.558636 1.984853 1.470234
v 35.685352 1.791090 4.921636
v 32.132687 1.437901 1.871460
v 29.002083 1.041869 5.150418
v 45.228680 1.076475 11.401208
v 47.653969 1.515735 7.972165
v 44.601921 1.971531 6.245267
v 49.984856 1.140017 9.220567
v 51.930737 1.234489 7.470897
v 50.354374 1.630157 5.446846
v 53.756241 1.304738 4.148441
v 51.146587 1.707977 0.985934
v 47.571484 2.009671 2.977188
v 44.548126 2.102368 0.515154
v 35.921326 1.773544 -1.369099
v 32.977749 1.384884 -3.682897
v 28.970314 1.042413 -0.883205
v 42.129730 1.984564 -2.212302
v 39.921474 1.773544 -4.967713
v 43.206638 1.437611 -8.608902
v 40.191208 1.045818 -10.603476
v 37.020191 1.384884 -7.084303
v 34.225151 0.989567 -8.381767
v 30.872227 0.987731 -5.792431
v 47.634346 1.915225 -2.612197
v 45.213760 1.789353 -5.775089
v 54.262810 1.293235 -0.982984
v 50.820427 1.553256 -4.879169
v 52.922859 1.222315 -7.138271
v 50.824944 1.124893 -10.303091
v 48.121429 1.421288 -8.575346
v 46.322479 1.044665 -11.604990
v 29.289667 0.699298 13.656663
v 34.045143 0.711889 15.612720
v 41.861916 0.716837 14.633667
v 26.597225 0.699482 9.281738
v 26.140217 0.704110 2.054686
v 48.588089 0.741855 11.909922
v 52.084637 0.854439 9.490091
v 54.825916 0.870372 6.668989
v 56.466465 0.872063 2.575571
v 26.646761 0.702095 -4.007092
v 30.470732 0.696496 -8.882074
v 55.724487 0.877586 -4.115294
v 53.183716 0.850091 -10.442352
v 36.460384 0.714683 -11.527395
v 43.542816 0.716878 -13.603857
v 49.700188 0.731560 -13.500084
v 25.935278 -0.308898 18.200499
v 32.577824 -0.296307 20.535351
v 42.218708 -0.291360 19.396297
v 21.913998 -0.308715 12.411104
v 20.748121 -0.304086 2.334501
v 50.485001 -0.285412 15.836922
v 55.183578 -0.287250 12.564875
v 58.932655 -0.290387 8.776552
v 32.671371 1.225836 10.418549
v 38.668747 1.508085 10.641397
v 38.679924 2.002399 4.680393
v 32.313129 1.437901 4.971770
v 44.877937 1.558195 8.966227
v 49.988861 1.428507 7.438282
v 50.824619 1.710757 3.359550
v 44.486534 2.122693 3.447279
v 32.377750 1.437901 -1.012070
v 39.170567 1.932215 -1.784218
v 40.217106 1.437901 -7.965001
v 33.862114 1.225836 -6.145098
v 44.803078 2.001241 -2.608218
v 51.067276 1.659489 -1.864462
v 50.639778 1.377240 -7.745722
v 45.742565 1.436743 -8.837711
v 31.312323 0.705314 14.966015
v 37.791275 0.714905 15.446379
v 27.674034 0.697962 11.835065
v 26.191038 0.702033 5.777202
v 45.568268 0.720162 13.341261
v 50.599152 0.798893 10.680410
v 53.527733 0.871658 8.176329
v 55.876652 0.870404 4.897941
v 26.129498 0.704207 -1.152580
v 28.179882 0.697544 -6.671349
v 56.381874 0.875660 -0.585733
v 54.595901 0.874230 -7.542434
v 33.261177 0.704890 -10.375999
v 39.977524 0.717830 -12.710527
v 46.886494 0.714376 -13.885832
v 51.675537 0.789666 -12.390245
v 28.868427 -0.302883 19.786934
v 37.263363 -0.293292 20.368240
v 23.578482 -0.310234 15.853546
v 21.057793 -0.306164 7.538196
v 46.737526 -0.288035 17.730217
v 53.126320 -0.285585 14.183336
v 57.178867 -0.289101 10.776951
v 60.265396 -0.290355 6.520663
v 20.723240 -0.303989 -2.100302
v 23.471254 -0.310652 -9.592428
v 60.757305 -0.285099 -0.546309
v 58.413414 -0.286528 -9.931442
v 30.291962 -0.303306 -14.627462
v 39.159637 -0.290367 -17.484056
v 48.224731 -0.293821 -18.693703
v 54.656094 -0.294811 -16.636629
v 26.484222 -2.347800 24.329124
v 36.747204 -2.347800 25.380760
v 19.850790 -2.347800 19.379303
v 16.333189 -2.347800 9.151279
v 48.208763 -2.347800 22.277794
v 56.052151 -2.347800 17.851665
v 61.175743 -2.347800 13.411331
v 65.048401 -2.347800 8.017329
v 15.663509 -2.347800 -2.933753
v 19.424194 -2.347800 -12.182037
v 65.719696 -2.347800 -0.832424
v 62.772915 -2.347800 -12.611269
v 27.801001 -2.347800 -18.743090
v 38.429886 -2.347800 -22.480345
v 49.780373 -2.347800 -23.628492
v 57.940651 -2.347800 -20.962267
v 23.844063 -5.873084 28.569239
v 35.981647 -5.873084 29.812960
v 15.998989 -5.873084 22.715300
v 11.838875 -5.873084 10.619057
v 49.536739 -5.873084 26.143219
v 58.812775 -5.873084 20.908627
v 64.872223 -5.873084 15.657235
v 69.452255 -5.873084 9.277983
v 11.046875 -5.873084 -3.673388
v 15.494473 -5.873084 -14.610933
v 70.246162 -5.873084 -1.188237
v 66.761131 -5.873084 -15.118567
v 25.401358 -5.873084 -22.370407
v 37.971684 -5.873084 -26.790297
v 51.395409 -5.873084 -28.148157
v 61.046215 -5.873084 -24.994932
vt 0.672983 0.376099
vt 0.675772 0.401502
vt 0.643992 0.402344
vt 0.649297 0.366103
vt 0.679939 0.437330
vt 0.643666 0.442777
vt 0.604454 0.443056
vt 0.609972 0.397041
vt 0.619151 0.352643
vt 0.672000 0.483335
vt 0.635475 0.484996
vt 0.655756 0.532169
vt 0.620995 0.527079
vt 0.582594 0.520628
vt 0.595567 0.483263
vt 0.553941 0.474398
vt 0.562772 0.433920
vt 0.542287 0.512488
vt 0.499443 0.507081
vt 0.510346 0.466885
vt 0.519629 0.424923
vt 0.569759 0.387863
vt 0.578311 0.342847
vt 0.527535 0.379791
vt 0.534545 0.335992
vt 0.634743 0.576452
vt 0.601654 0.567041
vt 0.613533 0.612843
vt 0.583350 0.603331
vt 0.549353 0.596174
vt 0.564720 0.558110
vt 0.596742 0.637927
vt 0.572017 0.634387
vt 0.587514 0.655550
vt 0.569029 0.661164
vt 0.545757 0.671138
vt 0.543899 0.635319
vt 0.514404 0.637656
vt 0.514923 0.592564
vt 0.519873 0.679224
vt 0.488499 0.682196
vt 0.481296 0.637672
vt 0.478424 0.589362
vt 0.526751 0.551371
vt 0.486651 0.546879
vt 0.487487 0.377814
vt 0.495569 0.331453
vt 0.476236 0.425641
vt 0.434440 0.429506
vt 0.449671 0.380912
vt 0.459489 0.333784
vt 0.464809 0.469291
vt 0.453725 0.508953
vt 0.407836 0.512553
vt 0.420000 0.473753
vt 0.378413 0.472342
vt 0.395922 0.429996
vt 0.364390 0.512226
vt 0.325991 0.509949
vt 0.342184 0.467209
vt 0.362370 0.425495
vt 0.414136 0.388199
vt 0.424366 0.347746
vt 0.382636 0.388997
vt 0.396419 0.357816
vt 0.443576 0.544768
vt 0.438406 0.583417
vt 0.396903 0.578869
vt 0.399600 0.544798
vt 0.442382 0.631597
vt 0.448684 0.676795
vt 0.406142 0.664927
vt 0.401489 0.623134
vt 0.362452 0.615903
vt 0.355908 0.579798
vt 0.366593 0.648325
vt 0.337455 0.636484
vt 0.326997 0.613976
vt 0.317913 0.584718
vt 0.356731 0.546638
vt 0.317751 0.549574
vt 0.709465 0.392285
vt 0.712624 0.430987
vt 0.695302 0.360794
vt 0.764187 0.319127
vt 0.782159 0.369340
vt 0.783914 0.421284
vt 0.703212 0.481903
vt 0.684862 0.536118
vt 0.772353 0.484445
vt 0.750238 0.549933
vt 0.672618 0.335912
vt 0.639263 0.317053
vt 0.689821 0.256761
vt 0.734545 0.284213
vt 0.591952 0.305454
vt 0.541118 0.298097
vt 0.554928 0.224012
vt 0.625016 0.237198
vt 0.660945 0.584647
vt 0.636388 0.623656
vt 0.720133 0.608636
vt 0.688553 0.656826
vt 0.616197 0.649193
vt 0.596870 0.668192
vt 0.662101 0.690634
vt 0.633487 0.720077
vt 0.575820 0.684953
vt 0.552479 0.699341
vt 0.604361 0.742637
vt 0.573112 0.761474
vt 0.526135 0.709896
vt 0.493283 0.713447
vt 0.539633 0.774371
vt 0.498236 0.777808
vt 0.497291 0.292118
vt 0.457232 0.293692
vt 0.440644 0.218168
vt 0.494879 0.215743
vt 0.417628 0.308950
vt 0.381507 0.336176
vt 0.334539 0.274703
vt 0.387558 0.237136
vt 0.450260 0.706754
vt 0.403141 0.691983
vt 0.442825 0.768183
vt 0.380434 0.748578
vt 0.357944 0.671062
vt 0.319838 0.646333
vt 0.318330 0.721977
vt 0.261717 0.686828
vt 0.356628 0.372211
vt 0.335556 0.414302
vt 0.274207 0.380852
vt 0.301377 0.324164
vt 0.313557 0.460523
vt 0.295294 0.507787
vt 0.228115 0.501844
vt 0.248546 0.440817
vt 0.285478 0.553020
vt 0.285393 0.592270
vt 0.216203 0.614357
vt 0.216401 0.561809
vt 0.296522 0.621629
vt 0.230625 0.653474
vt 0.827338 0.275189
vt 0.855247 0.347844
vt 0.859278 0.412022
vt 0.846781 0.488664
vt 0.820874 0.567726
vt 0.736194 0.197584
vt 0.790403 0.232530
vt 0.568682 0.150573
vt 0.656131 0.169866
vt 0.784993 0.638729
vt 0.746611 0.697419
vt 0.713684 0.739490
vt 0.671396 0.781857
vt 0.632805 0.809144
vt 0.592410 0.831919
vt 0.550587 0.847384
vt 0.499283 0.851795
vt 0.425902 0.144793
vt 0.493463 0.140225
vt 0.286603 0.222739
vt 0.360253 0.170629
vt 0.429787 0.840636
vt 0.351181 0.816963
vt 0.273458 0.783710
vt 0.195778 0.732592
vt 0.206882 0.347935
vt 0.242987 0.281656
vt 0.153636 0.497144
vt 0.176254 0.420941
vt 0.141779 0.639204
vt 0.141063 0.572780
vt 0.158970 0.688790
vt 0.893845 0.220494
vt 0.935184 0.321953
vt 0.939774 0.398703
vt 0.925202 0.490845
vt 0.894412 0.586000
vt 0.783888 0.128962
vt 0.848757 0.170506
vt 0.583018 0.071724
vt 0.687979 0.095201
vt 0.851675 0.671453
vt 0.805991 0.741909
vt 0.766869 0.792157
vt 0.707310 0.849915
vt 0.660552 0.881311
vt 0.611492 0.907747
vt 0.560705 0.925657
vt 0.498713 0.930818
vt 0.410929 0.065843
vt 0.492305 0.059961
vt 0.232173 0.165325
vt 0.331656 0.095882
vt 0.414689 0.918208
vt 0.320454 0.890006
vt 0.227605 0.850573
vt 0.124297 0.778597
vt 0.137994 0.314771
vt 0.181094 0.235648
vt 0.074809 0.494074
vt 0.101590 0.402374
vt 0.061882 0.665348
vt 0.060338 0.585309
vt 0.082138 0.724906
vt 0.930131 0.189923
vt 0.979774 0.308024
vt 0.984891 0.391729
vt 0.969266 0.492481
vt 0.935867 0.596577
vt 0.810234 0.090522
vt 0.880948 0.135936
vt 0.590991 0.027598
vt 0.705607 0.053443
vt 0.889357 0.690016
vt 0.839649 0.766939
vt 0.797034 0.821594
vt 0.757031 0.865071
vt 0.676203 0.921726
vt 0.622310 0.950376
vt 0.566394 0.969750
vt 0.498330 0.975246
vt 0.402493 0.021568
vt 0.491631 0.014961
vt 0.201435 0.133775
vt 0.315653 0.054042
vt 0.406249 0.961804
vt 0.303387 0.930973
vt 0.202443 0.888127
vt 0.116839 0.840999
vt 0.099199 0.296130
vt 0.146176 0.210040
vt 0.030580 0.492059
vt 0.059631 0.391768
vt 0.017188 0.679744
vt 0.015109 0.592011
vt 0.039395 0.744879
vt 0.148594 0.806988
vt 0.084695 0.803536
vt 0.207088 0.746423
vt 0.257862 0.143718
vt 0.235250 0.105639
vt 0.299270 0.212036
vt 0.729879 0.832232
vt 0.727195 0.887906
vt 0.682090 0.772941
vt 0.915665 0.256028
vt 0.958774 0.236480
vt 0.837795 0.292552
vt 0.265401 0.692153
vt 0.339853 0.270581
vt 0.637197 0.716726
vt 0.768137 0.325584
vt 0.320240 0.647290
vt 0.382576 0.335399
vt 0.597391 0.667639
vt 0.696077 0.361772
vn -0.076145 0.993837 0.080564
vn -0.059663 0.992826 0.103624
vn -0.081624 0.993246 0.082465
vn -0.092613 0.993932 0.059341
vn -0.025378 0.990633 0.134169
vn -0.047263 0.992092 0.116272
vn -0.070262 0.995326 0.066249
vn -0.098529 0.994085 0.045680
vn -0.107791 0.993691 0.030976
vn 0.011415 0.986884 0.161029
vn -0.004002 0.989140 0.146925
vn 0.043091 0.983710 0.174524
vn 0.035208 0.986124 0.162235
vn 0.010072 0.995427 0.094990
vn -0.029318 0.995985 0.084579
vn -0.047651 0.998665 0.019951
vn -0.083854 0.996275 0.020125
vn -0.014762 0.999689 0.020116
vn -0.021375 0.999611 -0.017932
vn -0.048106 0.998758 -0.012981
vn -0.084453 0.996406 -0.006488
vn -0.108818 0.993926 0.016456
vn -0.117071 0.993063 0.010955
vn -0.111159 0.993801 -0.001901
vn -0.119678 0.992813 0.000397
vn 0.065703 0.982009 0.177034
vn 0.061747 0.984902 0.161726
vn 0.073507 0.981532 0.176612
vn 0.071776 0.985739 0.152210
vn 0.066800 0.993752 0.089419
vn 0.040792 0.994639 0.095022
vn 0.080766 0.981340 0.174497
vn 0.083765 0.987025 0.136987
vn 0.113019 0.978699 0.171389
vn 0.124540 0.983064 0.134446
vn 0.138173 0.985683 0.096627
vn 0.095425 0.991810 0.084899
vn 0.103704 0.994022 0.034155
vn 0.061911 0.997795 0.023930
vn 0.148196 0.987502 0.053654
vn 0.155355 0.987808 0.009964
vn 0.105454 0.994415 -0.004382
vn 0.060045 0.998081 -0.015131
vn 0.018450 0.999612 0.020885
vn 0.009852 0.999772 -0.018936
vn -0.105724 0.994068 -0.025538
vn -0.115596 0.993170 -0.015858
vn -0.075859 0.996536 -0.034069
vn -0.068975 0.994487 -0.078981
vn -0.097660 0.993008 -0.066311
vn -0.104429 0.993328 -0.048920
vn -0.039413 0.998419 -0.040089
vn -0.018526 0.998795 -0.045443
vn -0.018074 0.995871 -0.088963
vn -0.035721 0.995726 -0.085170
vn -0.040061 0.990877 -0.128681
vn -0.065832 0.990247 -0.122786
vn -0.021196 0.991390 -0.129216
vn -0.023592 0.989072 -0.145535
vn -0.043447 0.988369 -0.145734
vn -0.059001 0.988670 -0.138027
vn -0.088015 0.990352 -0.107033
vn -0.090341 0.992472 -0.082688
vn -0.070313 0.990198 -0.120679
vn -0.074274 0.992386 -0.098249
vn 0.008511 0.998846 -0.047276
vn 0.056463 0.997512 -0.042216
vn 0.048528 0.996068 -0.074121
vn 0.006984 0.996142 -0.087476
vn 0.099496 0.994559 -0.030861
vn 0.154598 0.987726 -0.022283
vn 0.147913 0.987909 -0.046457
vn 0.087115 0.994729 -0.054079
vn 0.070142 0.994140 -0.082260
vn 0.035051 0.993643 -0.106980
vn 0.133849 0.988509 -0.070243
vn 0.120900 0.987706 -0.099091
vn 0.061503 0.991490 -0.114736
vn 0.025830 0.991111 -0.130509
vn 0.003663 0.992218 -0.124457
vn 0.000894 0.990059 -0.140648
vn -0.062438 0.985539 0.157526
vn -0.014295 0.983446 0.180639
vn -0.103666 0.986650 0.125602
vn -0.177431 0.955910 0.233998
vn -0.104785 0.954028 0.280803
vn -0.024384 0.951357 0.307124
vn 0.023068 0.981300 0.191100
vn 0.053022 0.979583 0.193924
vn 0.035986 0.949536 0.311587
vn 0.085195 0.947505 0.308182
vn -0.136415 0.986931 0.085783
vn -0.161301 0.986028 0.041594
vn -0.292736 0.951981 0.089652
vn -0.242762 0.955258 0.168962
vn -0.167699 0.985731 0.014503
vn -0.166389 0.986054 0.003584
vn -0.297497 0.954647 0.012038
vn -0.302147 0.952531 0.037315
vn 0.078553 0.977736 0.194581
vn 0.097174 0.975427 0.197737
vn 0.127760 0.945220 0.300394
vn 0.159999 0.942597 0.293107
vn 0.120751 0.972143 0.200890
vn 0.151405 0.969221 0.194131
vn 0.193357 0.939642 0.282289
vn 0.221923 0.938404 0.264853
vn 0.173237 0.969756 0.171937
vn 0.191134 0.971932 0.137175
vn 0.245466 0.938779 0.241745
vn 0.272849 0.941369 0.198438
vn 0.212503 0.973556 0.083854
vn 0.232756 0.972349 0.019045
vn 0.306840 0.944054 0.120881
vn 0.331675 0.943057 0.025204
vn -0.163689 0.986411 -0.014157
vn -0.151425 0.986808 -0.057269
vn -0.277938 0.954596 -0.107222
vn -0.295301 0.955046 -0.026170
vn -0.129035 0.986351 -0.102283
vn -0.101586 0.984961 -0.139755
vn -0.189074 0.949545 -0.250230
vn -0.239661 0.952156 -0.189636
vn 0.240847 0.970169 -0.027664
vn 0.238762 0.969212 -0.060169
vn 0.335081 0.941357 -0.039601
vn 0.327723 0.941220 -0.081874
vn 0.225174 0.970313 -0.088260
vn 0.189486 0.974818 -0.117578
vn 0.310893 0.943067 -0.118197
vn 0.277667 0.947216 -0.160259
vn -0.074931 0.983536 -0.164446
vn -0.061997 0.982411 -0.176137
vn -0.098825 0.951673 -0.290779
vn -0.133757 0.950120 -0.281746
vn -0.051209 0.981439 -0.184812
vn -0.029722 0.981204 -0.190669
vn -0.039762 0.949034 -0.312657
vn -0.074514 0.950674 -0.301108
vn 0.001845 0.981803 -0.189894
vn 0.046434 0.982605 -0.179809
vn 0.089153 0.952326 -0.291766
vn 0.010252 0.949420 -0.313842
vn 0.118091 0.981189 -0.152717
vn 0.200610 0.953082 -0.226694
vn -0.295269 0.868730 0.397648
vn -0.179419 0.863296 0.471731
vn -0.047346 0.853235 0.519372
vn 0.057292 0.845418 0.531024
vn 0.143940 0.839166 0.524482
vn -0.485859 0.858705 0.162993
vn -0.401959 0.867431 0.293245
vn -0.514493 0.857069 0.027032
vn -0.512262 0.855497 0.075581
vn 0.217429 0.835237 0.505079
vn 0.270758 0.833364 0.481866
vn 0.320717 0.832968 0.450893
vn 0.358976 0.835159 0.416709
vn 0.391705 0.837552 0.380887
vn 0.434669 0.843894 0.314492
vn 0.488128 0.851650 0.190849
vn 0.520682 0.852850 0.039206
vn -0.478736 0.856495 -0.192946
vn -0.511903 0.857712 -0.047812
vn -0.328981 0.843130 -0.425328
vn -0.410130 0.849611 -0.331593
vn 0.519364 0.852386 -0.060815
vn 0.505722 0.853440 -0.126037
vn 0.483316 0.856039 -0.183310
vn 0.441017 0.861339 -0.252191
vn -0.174794 0.846631 -0.502657
vn -0.242722 0.843086 -0.479887
vn -0.056913 0.848755 -0.525715
vn -0.119675 0.847746 -0.516724
vn 0.152775 0.865196 -0.477593
vn 0.024567 0.853963 -0.519753
vn 0.328942 0.870631 -0.365786
vn -0.358376 0.801092 0.479393
vn -0.224213 0.791663 0.568329
vn -0.067043 0.772467 0.631507
vn 0.064635 0.753569 0.654184
vn 0.174466 0.740880 0.648582
vn -0.581199 0.788371 0.201688
vn -0.481755 0.801111 0.355151
vn -0.632229 0.773988 0.035056
vn -0.621882 0.777144 0.096485
vn 0.268264 0.733489 0.624523
vn 0.334892 0.732115 0.593173
vn 0.395221 0.734813 0.551226
vn 0.441517 0.738986 0.508884
vn 0.480417 0.745177 0.462505
vn 0.532450 0.756027 0.380684
vn 0.596224 0.769168 0.229994
vn 0.634649 0.771282 0.048420
vn -0.581250 0.778757 -0.235979
vn -0.627219 0.776505 -0.060298
vn -0.400921 0.760829 -0.510295
vn -0.495716 0.770808 -0.400150
vn 0.635855 0.768284 -0.073677
vn 0.620030 0.769028 -0.155433
vn 0.590908 0.774116 -0.227098
vn 0.535344 0.785060 -0.311589
vn -0.219602 0.749588 -0.624414
vn -0.303497 0.752867 -0.584021
vn -0.064509 0.758946 -0.647950
vn -0.145491 0.751663 -0.643300
vn 0.191336 0.792760 -0.578724
vn 0.036484 0.772506 -0.633959
vn 0.398865 0.800438 -0.447443
vn -0.382745 0.771388 0.508397
vn -0.243840 0.761942 0.599989
vn -0.080074 0.741897 0.665715
vn 0.062178 0.720402 0.690764
vn 0.179977 0.706280 0.684673
vn -0.613144 0.758662 0.220199
vn -0.509819 0.772018 0.379568
vn -0.670648 0.740839 0.037271
vn -0.659064 0.744749 0.104803
vn 0.281573 0.697843 0.658583
vn 0.353279 0.696355 0.624727
vn 0.417715 0.699391 0.579971
vn 0.466858 0.703380 0.536004
vn 0.509158 0.710559 0.485658
vn 0.565077 0.722735 0.397922
vn 0.631865 0.737209 0.239312
vn 0.671371 0.739272 0.052329
vn -0.615735 0.747761 -0.248442
vn -0.664284 0.744600 -0.065557
vn -0.426654 0.727762 -0.536963
vn -0.526991 0.738829 -0.420015
vn 0.673437 0.735178 -0.077431
vn 0.656599 0.735788 -0.165810
vn 0.624937 0.741701 -0.243584
vn 0.563687 0.754799 -0.335464
vn -0.232139 0.714933 -0.659532
vn -0.322514 0.718873 -0.615797
vn -0.064285 0.725475 -0.685240
vn -0.152025 0.717219 -0.680063
vn 0.211030 0.764111 -0.609590
vn 0.045718 0.741173 -0.669756
vn 0.420328 0.771837 -0.477066
s 1
g Isla2
usemtl initialShadingGroup
f 1/1/1 98/2/2 162/3/3 101/4/4
f 98/2/2 14/5/5 99/6/6 162/3/3
f 162/3/3 99/6/6 22/7/7 100/8/8
f 101/4/4 162/3/3 100/8/8 17/9/9
f 14/5/5 102/10/10 163/11/11 99/6/6
f 102/10/10 2/12/12 103/13/13 163/11/11
f 163/11/11 103/13/13 15/14/14 104/15/15
f 99/6/6 163/11/11 104/15/15 22/7/7
f 22/7/7 104/15/15 164/16/16 107/17/17
f 104/15/15 15/14/14 105/18/18 164/16/16
f 164/16/16 105/18/18 5/19/19 106/20/20
f 107/17/17 164/16/16 106/20/20 16/21/21
f 17/9/9 100/8/8 165/22/22 109/23/23
f 100/8/8 22/7/7 107/17/17 165/22/22
f 165/22/22 107/17/17 16/21/21 108/24/24
f 109/23/23 165/22/22 108/24/24 4/25/25
f 2/12/12 110/26/26 166/27/27 103/13/13
f 110/26/26 18/28/28 111/29/29 166/27/27
f 166/27/27 111/29/29 23/30/30 112/31/31
f 103/13/13 166/27/27 112/31/31 15/14/14
f 18/28/28 113/32/32 167/33/33 111/29/29
f 113/32/32 3/34/34 114/35/35 167/33/33
f 167/33/33 114/35/35 19/36/36 115/37/37
f 111/29/29 167/33/33 115/37/37 23/30/30
f 23/30/30 115/37/37 168/38/38 118/39/39
f 115/37/37 19/36/36 116/40/40 168/38/38
f 168/38/38 116/40/40 6/41/41 117/42/42
f 118/39/39 168/38/38 117/42/42 20/43/43
f 15/14/14 112/31/31 169/44/44 105/18/18
f 112/31/31 23/30/30 118/39/39 169/44/44
f 169/44/44 118/39/39 20/43/43 119/45/45
f 105/18/18 169/44/44 119/45/45 5/19/19
f 4/25/25 108/24/24 170/46/46 122/47/47
f 108/24/24 16/21/21 120/48/48 170/46/46
f 170/46/46 120/48/48 24/49/49 121/50/50
f 122/47/47 170/46/46 121/50/50 11/51/51
f 16/21/21 106/20/20 171/52/52 120/48/48
f 106/20/20 5/19/19 123/53/53 171/52/52
f 171/52/52 123/53/53 21/54/54 124/55/55
f 120/48/48 171/52/52 124/55/55 24/49/49
f 24/49/49 124/55/55 172/56/56 127/57/57
f 124/55/55 21/54/54 125/58/58 172/56/56
f 172/56/56 125/58/58 8/59/59 126/60/60
f 127/57/57 172/56/56 126/60/60 10/61/61
f 11/51/51 121/50/50 173/62/62 129/63/63
f 121/50/50 24/49/49 127/57/57 173/62/62
f 173/62/62 127/57/57 10/61/61 128/64/64
f 129/63/63 173/62/62 128/64/64 7/65/65
f 5/19/19 119/45/45 174/66/66 123/53/53
f 119/45/45 20/43/43 130/67/67 174/66/66
f 174/66/66 130/67/67 25/68/68 131/69/69
f 123/53/53 174/66/66 131/69/69 21/54/54
f 20/43/43 117/42/42 175/70/70 130/67/67
f 117/42/42 6/41/41 132/71/71 175/70/70
f 175/70/70 132/71/71 12/72/72 133/73/73
f 130/67/67 175/70/70 133/73/73 25/68/68
f 25/68/68 133/73/73 176/74/74 136/75/75
f 133/73/73 12/72/72 134/76/76 176/74/74
f 176/74/74 134/76/76 9/77/77 135/78/78
f 136/75/75 176/74/74 135/78/78 13/79/79
f 21/54/54 131/69/69 177/80/80 125/58/58
f 131/69/69 25/68/68 136/75/75 177/80/80
f 177/80/80 136/75/75 13/79/79 137/81/81
f 125/58/58 177/80/80 137/81/81 8/59/59
f 14/5/5 98/2/2 178/82/82 139/83/83
f 98/2/2 1/1/1 138/261/84 178/82/82
f 178/82/82 138/261/84 154/257/85 194/86/86
f 139/83/83 178/82/82 194/86/86 155/87/87
f 2/12/12 102/10/10 179/88/88 140/89/89
f 102/10/10 14/5/5 139/83/83 179/88/88
f 179/88/88 139/83/83 155/87/87 195/90/90
f 140/89/89 179/88/88 195/90/90 156/91/91
f 1/1/1 101/4/4 180/92/92 138/84/84
f 101/4/4 17/9/9 141/93/93 180/92/92
f 180/92/92 141/93/93 157/94/94 196/95/95
f 138/84/84 180/92/92 196/95/95 154/85/85
f 17/9/9 109/23/23 181/96/96 141/93/93
f 109/23/23 4/25/25 142/97/97 181/96/96
f 181/96/96 142/97/97 158/98/98 197/99/99
f 141/93/93 181/96/96 197/99/99 157/94/94
f 18/28/28 110/26/26 182/100/100 143/101/101
f 110/26/26 2/12/12 140/89/89 182/100/100
f 182/100/100 140/89/89 156/91/91 198/102/102
f 143/101/101 182/100/100 198/102/102 159/103/103
f 3/34/34 113/32/32 183/104/104 144/260/105
f 113/32/32 18/28/28 143/101/101 183/104/104
f 183/104/104 143/101/101 159/103/103 199/106/106
f 144/260/105 183/104/104 199/106/106 160/256/107
f 19/36/36 114/35/35 184/108/108 145/109/109
f 114/35/35 3/34/34 144/105/105 184/108/108
f 184/108/108 144/105/105 160/107/107 200/110/110
f 145/109/109 184/108/108 200/110/110 161/111/111
f 6/41/41 116/40/40 185/112/112 146/113/113
f 116/40/40 19/36/36 145/109/109 185/112/112
f 185/112/112 145/109/109 161/111/111 201/114/114
f 146/113/113 185/112/112 201/114/114 42/115/115
f 4/25/25 122/47/47 186/116/116 142/97/97
f 122/47/47 11/51/51 147/117/117 186/116/116
f 186/116/116 147/117/117 43/118/118 202/119/119
f 142/97/97 186/116/116 202/119/119 158/98/98
f 11/51/51 129/63/63 187/120/120 147/117/117
f 129/63/63 7/65/65 148/259/121 187/120/120
f 187/120/120 148/259/121 44/255/122 203/123/123
f 147/117/117 187/120/120 203/123/123 43/118/118
f 12/72/72 132/71/71 188/124/124 149/125/125
f 132/71/71 6/41/41 146/113/113 188/124/124
f 188/124/124 146/113/113 42/115/115 204/126/126
f 149/125/125 188/124/124 204/126/126 45/127/127
f 9/77/77 134/76/76 189/128/128 150/258/129
f 134/76/76 12/72/72 149/125/125 189/128/128
f 189/128/128 149/125/125 45/127/127 205/130/130
f 150/258/129 189/128/128 205/130/130 46/254/131
f 7/65/65 128/64/64 190/132/132 148/121/121
f 128/64/64 10/61/61 151/133/133 190/132/132
f 190/132/132 151/133/133 47/134/134 206/135/135
f 148/121/121 190/132/132 206/135/135 44/122/122
f 10/61/61 126/60/60 191/136/136 151/133/133
f 126/60/60 8/59/59 152/137/137 191/136/136
f 191/136/136 152/137/137 48/138/138 207/139/139
f 151/133/133 191/136/136 207/139/139 47/134/134
f 8/59/59 137/81/81 192/140/140 152/137/137
f 137/81/81 13/79/79 153/141/141 192/140/140
f 192/140/140 153/141/141 49/142/142 208/143/143
f 152/137/137 192/140/140 208/143/143 48/138/138
f 13/79/79 135/78/78 193/144/144 153/141/141
f 135/78/78 9/77/77 150/129/129 193/144/144
f 193/144/144 150/129/129 46/131/131 209/145/145
f 153/141/141 193/144/144 209/145/145 49/142/142
f 194/86/86 154/257/85 50/253/146 210/147/147
f 155/87/87 194/86/86 210/147/147 51/148/148
f 195/90/90 155/87/87 51/148/148 211/149/149
f 156/91/91 195/90/90 211/149/149 52/150/150
f 196/95/95 157/94/94 53/151/151 212/152/152
f 154/85/85 196/95/95 212/152/152 50/146/146
f 197/99/99 158/98/98 54/153/153 213/154/154
f 157/94/94 197/99/99 213/154/154 53/151/151
f 198/102/102 156/91/91 52/150/150 214/155/155
f 159/103/103 198/102/102 214/155/155 55/156/156
f 199/106/106 159/103/103 55/156/156 215/157/157
f 160/256/107 199/106/106 215/157/157 56/250/158
f 200/110/110 160/107/107 56/158/158 216/159/159
f 161/111/111 200/110/110 216/159/159 57/160/160
f 201/114/114 161/111/111 57/160/160 217/161/161
f 42/115/115 201/114/114 217/161/161 58/162/162
f 202/119/119 43/118/118 59/163/163 218/164/164
f 158/98/98 202/119/119 218/164/164 54/153/153
f 203/123/123 44/255/122 60/247/165 219/166/166
f 43/118/118 203/123/123 219/166/166 59/163/163
f 204/126/126 42/115/115 58/162/162 220/167/167
f 45/127/127 204/126/126 220/167/167 61/168/168
f 205/130/130 45/127/127 61/168/168 221/169/169
f 46/254/131 205/130/130 221/169/169 62/244/170
f 206/135/135 47/134/134 63/171/171 222/172/172
f 44/122/122 206/135/135 222/172/172 60/165/165
f 207/139/139 48/138/138 64/173/173 223/174/174
f 47/134/134 207/139/139 223/174/174 63/171/171
f 208/143/143 49/142/142 65/175/175 224/176/176
f 48/138/138 208/143/143 224/176/176 64/173/173
f 209/145/145 46/131/131 62/170/170 225/177/177
f 49/142/142 209/145/145 225/177/177 65/175/175
f 210/147/147 50/253/146 66/251/178 226/179/179
f 51/148/148 210/147/147 226/179/179 68/180/180
f 211/149/149 51/148/148 68/180/180 227/181/181
f 52/150/150 211/149/149 227/181/181 70/182/182
f 212/152/152 53/151/151 71/183/183 228/184/184
f 50/146/146 212/152/152 228/184/184 66/178/178
f 213/154/154 54/153/153 73/185/185 229/186/186
f 53/151/151 213/154/154 229/186/186 71/183/183
f 214/155/155 52/150/150 70/182/182 230/187/187
f 55/156/156 214/155/155 230/187/187 76/188/188
f 215/157/157 55/156/156 76/188/188 231/189/189
f 56/250/158 215/157/157 231/189/189 78/248/190
f 216/159/159 56/158/158 78/190/190 232/191/191
f 57/160/160 216/159/159 232/191/191 80/192/192
f 217/161/161 57/160/160 80/192/192 233/193/193
f 58/162/162 217/161/161 233/193/193 82/194/194
f 218/164/164 59/163/163 83/195/195 234/196/196
f 54/153/153 218/164/164 234/196/196 73/185/185
f 219/166/166 60/247/165 85/245/197 235/198/198
f 59/163/163 219/166/166 235/198/198 83/195/195
f 220/167/167 58/162/162 82/194/194 236/199/199
f 61/168/168 220/167/167 236/199/199 88/200/200
f 221/169/169 61/168/168 88/200/200 237/201/201
f 62/244/170 221/169/169 237/201/201 90/242/202
f 222/172/172 63/171/171 91/203/203 238/204/204
f 60/165/165 222/172/172 238/204/204 85/197/197
f 223/174/174 64/173/173 93/205/205 239/206/206
f 63/171/171 223/174/174 239/206/206 91/203/203
f 224/176/176 65/175/175 95/207/207 240/208/208
f 64/173/173 224/176/176 240/208/208 93/205/205
f 225/177/177 62/170/170 90/202/202 241/209/209
f 65/175/175 225/177/177 241/209/209 95/207/207
f 226/179/179 66/251/178 26/252/210 67/211/211
f 68/180/180 226/179/179 67/211/211 27/212/212
f 227/181/181 68/180/180 27/212/212 69/213/213
f 70/182/182 227/181/181 69/213/213 28/214/214
f 228/184/184 71/183/183 29/215/215 72/216/216
f 66/178/178 228/184/184 72/216/216 26/210/210
f 229/186/186 73/185/185 30/217/217 74/218/218
f 71/183/183 229/186/186 74/218/218 29/215/215
f 230/187/187 70/182/182 28/214/214 75/219/219
f 76/188/188 230/187/187 75/219/219 31/220/220
f 231/189/189 76/188/188 31/220/220 77/221/221
f 78/248/190 231/189/189 77/221/221 32/222/222
f 232/191/191 78/190/190 32/249/222 79/223/223
f 80/192/192 232/191/191 79/223/223 33/224/224
f 233/193/193 80/192/192 33/224/224 81/225/225
f 82/194/194 233/193/193 81/225/225 34/226/226
f 234/196/196 83/195/195 35/227/227 84/228/228
f 73/185/185 234/196/196 84/228/228 30/217/217
f 235/198/198 85/245/197 36/246/229 86/230/230
f 83/195/195 235/198/198 86/230/230 35/227/227
f 236/199/199 82/194/194 34/226/226 87/231/231
f 88/200/200 236/199/199 87/231/231 37/232/232
f 237/201/201 88/200/200 37/232/232 89/233/233
f 90/242/202 237/201/201 89/233/233 38/234/234
f 238/204/204 91/203/203 39/235/235 92/236/236
f 85/197/197 238/204/204 92/236/236 36/229/229
f 239/206/206 93/205/205 40/237/237 94/238/238
f 91/203/203 239/206/206 94/238/238 39/235/235
f 240/208/208 95/207/207 41/239/239 96/240/240
f 93/205/205 240/208/208 96/240/240 40/237/237
f 241/209/209 90/202/202 38/243/234 97/241/241
f 95/207/207 241/209/209 97/241/241 41/239/239
