# This file uses centimeters as units for non-parametric coordinates.

mtllib Isla1.mtl
g default
v -4.869495 1.066460 -45.614796
v 4.024272 1.642267 -44.910110
v 11.266867 1.101562 -48.227638
v -6.811276 0.956956 -55.531315
v 3.823752 1.779914 -55.722775
v 13.896267 1.312615 -54.834538
v -5.801115 0.853828 -65.500862
v 3.800733 0.969192 -67.811836
v 11.869408 1.087889 -63.559452
v -1.680525 0.949993 -67.747650
v -7.268907 0.946532 -60.874317
v 13.507574 1.277633 -59.443386
v 8.697021 1.032897 -65.886963
v -0.700196 1.606579 -44.711334
v 3.419072 2.292526 -49.522923
v -1.762335 1.491272 -55.419270
v -6.456984 1.061615 -49.289291
v 8.738635 1.197992 -46.419971
v 12.679605 1.307725 -51.138561
v 8.678674 1.924613 -55.726963
v 3.897734 1.465467 -60.935169
v -1.116891 2.045228 -49.459141
v 8.539459 1.970529 -50.476288
v -1.714448 1.311306 -61.001789
v 8.511533 1.663774 -60.381214
v -12.751242 -3.151498 -35.819069
v -4.929643 -3.151499 -31.979574
v 6.025176 -3.151499 -32.585320
v -16.498171 -3.151498 -43.229797
v -16.902767 -3.151498 -55.123077
v 14.068508 -3.151499 -36.728268
v 18.165411 -3.151499 -41.506104
v 22.074051 -3.151499 -46.992771
v 24.743250 -3.151499 -53.469929
v -18.113129 -3.151498 -65.088676
v -14.647584 -3.151498 -74.022293
v 23.991848 -3.151499 -62.177513
v 19.547949 -3.151499 -70.417068
v -6.123612 -3.151498 -79.922417
v 4.310421 -3.151498 -80.063538
v 13.634942 -3.151498 -76.087151
v -17.660837 -8.416388 -29.583231
v -7.429254 -8.416388 -24.560711
v 6.900959 -8.416388 -25.353092
v -22.562267 -8.416388 -39.277332
v -23.091532 -8.416388 -54.835175
v 17.422600 -8.416388 -30.772568
v 22.781839 -8.416388 -37.022552
v 27.894810 -8.416388 -44.199764
v 31.386436 -8.416388 -52.672661
v -24.674826 -8.416388 -67.871368
v -20.141478 -8.416388 -79.557610
v 30.403513 -8.416388 -64.063217
v 24.590364 -8.416388 -74.841537
v -8.991108 -8.416388 -87.275665
v 4.657855 -8.416388 -87.460274
v 16.855440 -8.416388 -82.258667
v 18.363787 -0.186460 -54.235546
v -11.825743 -0.186460 -62.419617
v -9.454737 -0.186460 -68.725731
v 17.834721 -0.186460 -60.366661
v 14.705717 -0.186460 -66.168236
v -3.383775 -0.186460 -72.864243
v 3.976783 -0.186460 -72.960442
v 10.542289 -0.186460 -70.160614
v -10.750654 -1.701386 -38.360081
v -9.351162 -3.151499 -33.415852
v -3.911090 -1.701386 -35.002644
v 0.525520 -3.151499 -31.739151
v 5.668308 -1.701386 -35.532333
v -14.027145 -1.701386 -44.840351
v -15.142079 -3.151499 -38.960335
v -14.380942 -1.701386 -55.240391
v -16.794014 -3.151499 -49.017605
v 10.580176 -3.151499 -34.408821
v 12.701769 -1.701386 -39.155125
v 16.368158 -3.151499 -39.062283
v 16.284288 -1.701386 -43.333084
v 20.146553 -3.151499 -44.154984
v 19.702185 -1.701386 -48.130878
v 23.710377 -3.151499 -50.003334
v 22.036253 -1.701386 -53.794807
v -15.439338 -1.701386 -63.954769
v -17.697596 -3.151499 -60.345493
v -12.408906 -1.701386 -71.766739
v -17.083994 -3.151499 -69.756416
v 24.860392 -3.151499 -57.675819
v 21.379192 -1.701386 -61.409111
v 22.067663 -3.151499 -66.531494
v 17.493246 -1.701386 -68.614159
v -4.955152 -1.701386 -76.926079
v -10.841286 -3.151499 -77.559853
v 4.168848 -1.701386 -77.049484
v -0.953071 -3.151499 -80.663269
v 12.322637 -1.701386 -73.572342
v 9.306950 -3.151499 -78.404320
v 16.892826 -3.151499 -73.513504
v -15.115196 -5.547477 -32.816536
v -13.213129 -8.416388 -26.439531
v -6.133197 -5.547477 -28.407417
v -0.293248 -8.416388 -24.246204
v 6.446863 -5.547477 -29.103025
v -19.418015 -5.547477 -41.326691
v -20.788338 -8.416388 -33.692375
v -19.882639 -5.547477 -54.984451
v -22.949266 -8.416388 -46.848488
v 12.859445 -8.416388 -27.738451
v 15.683493 -5.547477 -33.860619
v 20.430817 -8.416388 -33.825737
v 20.388206 -5.547477 -39.347290
v 25.373409 -8.416388 -40.487595
v 24.876728 -5.547477 -45.647949
v 30.035316 -8.416388 -48.137939
v 27.941923 -5.547477 -53.086052
v -21.272564 -5.547477 -66.428528
v -24.131260 -8.416388 -61.666725
v -17.292877 -5.547477 -76.687523
v -23.328594 -8.416388 -73.977341
v 31.539671 -8.416388 -58.174469
v 27.079042 -5.547477 -63.085472
v 27.886448 -8.416388 -69.758751
v 21.975857 -5.547477 -72.547432
v -7.504302 -5.547477 -83.462975
v -15.162388 -8.416388 -84.185165
v 4.477710 -5.547477 -83.625038
v -2.227422 -8.416388 -88.244797
v 15.185600 -5.547477 -79.058708
v 11.193910 -8.416388 -85.289825
v 21.117142 -8.416388 -78.892044
v -3.053959 1.340925 -45.202003
v -0.772226 1.939308 -46.912750
v -3.876601 1.581631 -49.491703
v -5.653804 1.082536 -47.089920
v 1.636428 1.706606 -44.624718
v 3.634788 2.075772 -46.999439
v 1.184820 2.264105 -49.416496
v 3.570677 2.101334 -52.620647
v 1.078353 1.654469 -55.548038
v -1.490326 1.805640 -52.411831
v -4.481256 1.246959 -55.456623
v -6.705915 1.007601 -52.313709
v 6.531703 1.414823 -45.535469
v 8.521564 1.644028 -48.260460
v 5.976408 2.184756 -49.937611
v 10.224983 1.165491 -47.482803
v 11.796013 1.257398 -49.527378
v 10.790855 1.679580 -50.954704
v 13.428579 1.320629 -52.881180
v 11.390508 1.697817 -55.310810
v 8.624084 2.018398 -53.088917
v 6.256807 1.910970 -55.823357
v -1.802719 1.372852 -58.129913
v -4.664967 1.162426 -60.864517
v -7.183748 0.946141 -58.310253
v 3.912445 1.605986 -58.259491
v 1.195763 1.391545 -61.024624
v 3.840597 1.244273 -64.454201
v 1.011284 0.959984 -68.105362
v -1.600492 1.167558 -64.492950
v -4.001470 0.929510 -66.585869
v -6.512328 0.929510 -63.447281
v 8.606466 1.826155 -58.019089
v 6.223534 1.595398 -60.735588
v 13.935998 1.300188 -57.077984
v 11.100101 1.553036 -59.827415
v 12.570791 1.239236 -61.762684
v 10.492152 1.124394 -64.570404
v 8.497950 1.378224 -63.229301
v 6.414597 0.987330 -67.019913
v -6.015250 0.602493 -44.296425
v -1.232874 0.987279 -42.521671
v 4.415324 1.004744 -42.849289
v -8.448899 0.495017 -48.470505
v -8.718684 0.478225 -55.494274
v 9.478465 0.613056 -44.703823
v 12.045202 0.653874 -47.428631
v 14.369152 0.672316 -50.679924
v 15.944895 0.672581 -54.518654
v -9.385738 0.486793 -61.386734
v -7.080701 0.488535 -66.621536
v 15.488430 0.673551 -59.658867
v 12.786101 0.656089 -64.465363
v -2.282798 0.488535 -70.174683
v 3.848189 0.488551 -70.269661
v 9.357264 0.512725 -67.898163
v -8.033774 -0.164211 -41.813946
v -2.416206 -0.026678 -39.384415
v 5.048819 -0.006418 -39.839161
v -10.678320 -0.186460 -47.019733
v -10.959688 -0.186460 -55.399548
v 10.819960 -0.159690 -42.492683
v 13.732061 -0.186379 -45.811729
v 16.484369 -0.186460 -49.674900
v -3.297986 1.547552 -47.161594
v 1.434653 2.105033 -46.827553
v 1.078925 2.012544 -52.473007
v -4.240491 1.429970 -52.410297
v 6.140312 1.882571 -47.521851
v 10.348885 1.478741 -49.080933
v 11.170025 1.730419 -53.075855
v 6.088349 2.122660 -52.881565
v -4.690495 1.186991 -58.169937
v 1.144491 1.493999 -58.192505
v 1.150594 1.207520 -64.662590
v -4.201432 1.085626 -63.854652
v 6.262455 1.764372 -58.232628
v 11.356423 1.648334 -57.526001
v 10.653877 1.382993 -62.321007
v 6.258286 1.316579 -63.958405
v -3.832474 0.796479 -43.134968
v 1.564188 1.061641 -42.453274
v -7.561839 0.518571 -46.009304
v -8.653091 0.482139 -51.876919
v 7.177148 0.801768 -43.629223
v 10.948088 0.598955 -45.983829
v 13.228999 0.672222 -48.997623
v 15.335327 0.672471 -52.464661
v -9.189953 0.481566 -58.588287
v -8.624881 0.488535 -64.117401
v 16.015223 0.672535 -57.008705
v 14.306629 0.676842 -62.193184
v -4.926518 0.488535 -68.740387
v 0.729994 0.488535 -70.625130
v 6.808117 0.488600 -69.286171
v 11.243118 0.584969 -66.329124
v -5.561178 -0.097463 -40.253696
v 1.301162 0.007678 -39.274498
v -9.734015 -0.186460 -43.996731
v -10.883114 -0.186460 -51.100609
v 8.284653 -0.080996 -40.993610
v 12.466042 -0.186137 -44.091217
v 15.127193 -0.186460 -47.676773
v 17.636526 -0.186460 -51.794674
v -11.519337 -0.186460 -59.076721
v -11.142593 -0.186460 -65.715736
v 18.446268 -0.186460 -57.196968
v 16.479877 -0.186460 -63.432358
v -6.747025 -0.186460 -71.210236
v 0.270693 -0.186460 -73.382721
v 7.494898 -0.186460 -71.792160
v 12.836208 -0.186460 -68.348473
v -7.777470 -1.701386 -36.258591
v 0.859155 -1.701386 -34.792404
v -12.841314 -1.701386 -41.106941
v -14.285843 -1.701386 -49.901485
v 9.651411 -1.701386 -37.126888
v 14.712688 -1.701386 -41.196091
v 18.016689 -1.701386 -45.649384
v 21.133062 -1.701386 -50.763451
v -15.075977 -1.701386 -59.807117
v -14.539415 -1.701386 -68.036461
v 22.138689 -1.701386 -57.472630
v 19.696598 -1.701386 -65.216446
v -9.080504 -1.701386 -74.860146
v -0.433793 -1.701386 -77.573921
v 8.538041 -1.701386 -75.598587
v 15.171482 -1.701386 -71.321823
v -11.210688 -5.547477 -30.056774
v 0.131286 -5.547477 -28.131319
v -17.860735 -5.547477 -36.423824
v -19.757748 -5.547477 -47.973183
v 11.677637 -5.547477 -31.197058
v 18.324316 -5.547477 -36.540901
v 22.663267 -5.547477 -42.389145
v 26.755816 -5.547477 -49.105152
v -20.795385 -5.547477 -60.981663
v -20.090750 -5.547477 -71.788780
v 28.076443 -5.547477 -57.915916
v 24.869389 -5.547477 -68.085411
v -12.921885 -5.547477 -80.749924
v -1.566667 -5.547477 -84.313751
v 10.215515 -5.547477 -81.719673
v 18.926821 -5.547477 -76.103256
vt 0.650658 0.332294
vt 0.655634 0.358685
vt 0.627716 0.354881
vt 0.629435 0.321005
vt 0.661361 0.392483
vt 0.630157 0.391033
vt 0.594445 0.385699
vt 0.594737 0.346340
vt 0.598124 0.309353
vt 0.661824 0.425495
vt 0.630647 0.422220
vt 0.657619 0.459099
vt 0.627938 0.453159
vt 0.592578 0.449642
vt 0.594485 0.418224
vt 0.551518 0.415947
vt 0.552880 0.379579
vt 0.549057 0.451115
vt 0.505163 0.454008
vt 0.507986 0.415155
vt 0.510338 0.374936
vt 0.553440 0.340443
vt 0.555249 0.305193
vt 0.510331 0.336335
vt 0.509698 0.303136
vt 0.649188 0.494735
vt 0.620673 0.488571
vt 0.637149 0.526265
vt 0.610487 0.522413
vt 0.578863 0.521754
vt 0.586535 0.485605
vt 0.622099 0.547381
vt 0.598898 0.548356
vt 0.611480 0.562341
vt 0.592391 0.569019
vt 0.569117 0.580660
vt 0.571968 0.553622
vt 0.541829 0.558236
vt 0.541953 0.522249
vt 0.544202 0.590450
vt 0.516501 0.596436
vt 0.510186 0.560836
vt 0.504672 0.522548
vt 0.545125 0.486572
vt 0.503550 0.488408
vt 0.471970 0.333016
vt 0.470414 0.297648
vt 0.472042 0.373915
vt 0.431460 0.374793
vt 0.433794 0.333038
vt 0.434113 0.296206
vt 0.470677 0.415664
vt 0.469351 0.454877
vt 0.431638 0.454396
vt 0.430760 0.416053
vt 0.379540 0.415029
vt 0.382167 0.375972
vt 0.382075 0.453242
vt 0.334809 0.452291
vt 0.331095 0.412789
vt 0.336282 0.374661
vt 0.391301 0.339076
vt 0.397402 0.306383
vt 0.352563 0.341664
vt 0.367794 0.315933
vt 0.469521 0.488186
vt 0.472280 0.521278
vt 0.438859 0.519827
vt 0.434170 0.487418
vt 0.478854 0.560078
vt 0.484829 0.596611
vt 0.451450 0.590510
vt 0.446281 0.556416
vt 0.410893 0.550249
vt 0.398490 0.519532
vt 0.418593 0.577469
vt 0.392788 0.567872
vt 0.378883 0.547852
vt 0.360690 0.522061
vt 0.388641 0.487634
vt 0.345346 0.489442
vt 0.686192 0.348138
vt 0.693387 0.385406
vt 0.669506 0.314956
vt 0.705049 0.284326
vt 0.729735 0.324791
vt 0.740091 0.369759
vt 0.693455 0.424992
vt 0.687625 0.465234
vt 0.740379 0.422265
vt 0.731844 0.475047
vt 0.644999 0.293111
vt 0.610035 0.280370
vt 0.630756 0.247810
vt 0.673566 0.261019
vt 0.561773 0.276811
vt 0.510579 0.275317
vt 0.512339 0.242225
vt 0.573121 0.244093
vt 0.677057 0.504496
vt 0.662483 0.537457
vt 0.715802 0.520756
vt 0.695293 0.556943
vt 0.644586 0.558515
vt 0.623120 0.575226
vt 0.673326 0.580806
vt 0.646213 0.602609
vt 0.600105 0.591012
vt 0.575623 0.606114
vt 0.618764 0.620845
vt 0.589566 0.638485
vt 0.549878 0.618732
vt 0.520637 0.626486
vt 0.558927 0.653295
vt 0.524206 0.662413
vt 0.466858 0.268568
vt 0.427289 0.265664
vt 0.413239 0.229976
vt 0.460402 0.234343
vt 0.388333 0.275804
vt 0.350788 0.297391
vt 0.318662 0.263410
vt 0.366450 0.238650
vt 0.485467 0.627000
vt 0.448049 0.619558
vt 0.482458 0.663036
vt 0.437746 0.654569
vt 0.412048 0.603279
vt 0.378510 0.581187
vt 0.394101 0.636302
vt 0.351315 0.608956
vt 0.321395 0.328427
vt 0.301551 0.366135
vt 0.262559 0.350716
vt 0.284901 0.302790
vt 0.295184 0.408678
vt 0.299690 0.452701
vt 0.260779 0.454261
vt 0.255421 0.402143
vt 0.312682 0.494713
vt 0.331308 0.531214
vt 0.297692 0.547635
vt 0.276096 0.504043
vt 0.352755 0.558515
vt 0.321884 0.581021
vt 0.755050 0.240495
vt 0.791790 0.295352
vt 0.806710 0.350662
vt 0.807814 0.417816
vt 0.796490 0.485288
vt 0.662092 0.196605
vt 0.714929 0.212747
vt 0.515364 0.189177
vt 0.590794 0.191740
vt 0.774241 0.541365
vt 0.746537 0.584862
vt 0.718849 0.614305
vt 0.681655 0.645529
vt 0.647289 0.667604
vt 0.610828 0.689000
vt 0.572730 0.706963
vt 0.529746 0.718054
vt 0.392390 0.174775
vt 0.450830 0.179722
vt 0.270035 0.220572
vt 0.334504 0.185781
vt 0.478131 0.718916
vt 0.422772 0.708665
vt 0.368487 0.686587
vt 0.310575 0.649775
vt 0.201637 0.328740
vt 0.228884 0.269802
vt 0.199585 0.456852
vt 0.192960 0.392244
vt 0.244983 0.572817
vt 0.218432 0.518636
vt 0.274619 0.614491
vt 0.792208 0.206028
vt 0.837597 0.274500
vt 0.854283 0.337788
vt 0.855428 0.414586
vt 0.842410 0.491795
vt 0.685577 0.156872
vt 0.745921 0.175050
vt 0.517709 0.147876
vt 0.604076 0.151044
vt 0.817045 0.556004
vt 0.785552 0.605870
vt 0.754212 0.639828
vt 0.721396 0.667468
vt 0.668822 0.704148
vt 0.626914 0.728285
vt 0.583183 0.748528
vt 0.533981 0.761056
vt 0.376901 0.131990
vt 0.443740 0.137371
vt 0.232026 0.187784
vt 0.310792 0.144257
vt 0.474924 0.762130
vt 0.411552 0.750553
vt 0.349334 0.725693
vt 0.292463 0.693488
vt 0.154945 0.312270
vt 0.185696 0.244682
vt 0.152605 0.458991
vt 0.145090 0.384958
vt 0.204311 0.591992
vt 0.174062 0.529851
vt 0.237963 0.639859
vt 0.896091 0.248808
vt 0.915150 0.322050
vt 0.837796 0.160888
vt 0.887717 0.110406
vt 0.961238 0.220482
vt 0.983094 0.304599
vt 0.916545 0.411070
vt 0.901519 0.500678
vt 0.984891 0.407186
vt 0.967767 0.510652
vt 0.784167 0.125833
vt 0.714481 0.104821
vt 0.746480 0.046249
vt 0.826368 0.070557
vt 0.620382 0.097562
vt 0.520865 0.093620
vt 0.524421 0.032654
vt 0.638455 0.037431
vt 0.872286 0.575325
vt 0.836043 0.633364
vt 0.934268 0.597013
vt 0.892706 0.664213
vt 0.800166 0.673024
vt 0.742144 0.723995
vt 0.851661 0.710136
vt 0.809255 0.747586
vt 0.696409 0.752194
vt 0.647734 0.779720
vt 0.727131 0.806168
vt 0.671003 0.837600
vt 0.596796 0.802804
vt 0.539517 0.817104
vt 0.611999 0.863982
vt 0.545649 0.880288
vt 0.435480 0.081912
vt 0.358111 0.076230
vt 0.337306 0.013523
vt 0.426377 0.019558
vt 0.281683 0.090357
vt 0.183127 0.147008
vt 0.128759 0.102315
vt 0.249580 0.029913
vt 0.470870 0.818328
vt 0.397238 0.805179
vt 0.466316 0.881532
vt 0.381261 0.866659
vt 0.325007 0.776860
vt 0.236556 0.720244
vt 0.297947 0.834367
vt 0.222646 0.792711
vt 0.130516 0.213279
vt 0.095252 0.291668
vt 0.028595 0.268660
vt 0.069040 0.178492
vt 0.083729 0.376086
vt 0.092211 0.462186
vt 0.024585 0.465739
vt 0.015109 0.366121
vt 0.116857 0.544621
vt 0.151705 0.616856
vt 0.092725 0.644680
vt 0.052750 0.561156
vt 0.190346 0.672500
vt 0.136990 0.708931
vt 0.259244 0.740338
vt 0.189583 0.763877
vt 0.278554 0.680759
vt 0.209416 0.124075
vt 0.166940 0.068238
vt 0.248251 0.174115
vt 0.762874 0.705478
vt 0.779462 0.774019
vt 0.708391 0.679322
vt 0.862783 0.189798
vt 0.923572 0.152801
vt 0.808032 0.223686
vt 0.319062 0.657846
vt 0.354594 0.612408
vt 0.280077 0.212598
vt 0.322875 0.260720
vt 0.689754 0.637980
vt 0.649515 0.599441
vt 0.765314 0.251273
vt 0.709925 0.288618
vt 0.379350 0.582269
vt 0.352145 0.296701
vt 0.624120 0.574208
vt 0.671383 0.316227
vn -0.194193 0.969801 0.147565
vn -0.158871 0.972166 0.172204
vn -0.171218 0.981391 0.086930
vn -0.211533 0.973260 0.089552
vn -0.094153 0.973647 0.207718
vn -0.116957 0.987780 0.103015
vn -0.123250 0.992347 -0.007556
vn -0.171283 0.985200 0.006549
vn -0.222839 0.974508 0.026029
vn 0.001495 0.972127 0.234450
vn -0.027284 0.992360 0.120322
vn 0.094476 0.967345 0.235199
vn 0.061520 0.988829 0.135766
vn 0.014881 0.999844 0.009475
vn -0.051366 0.998629 -0.010094
vn -0.059012 0.994033 -0.091735
vn -0.106363 0.991502 -0.074908
vn -0.024957 0.996568 -0.078932
vn -0.046895 0.995331 -0.084359
vn -0.054192 0.994910 -0.084958
vn -0.078950 0.994691 -0.066005
vn -0.147681 0.988163 -0.041518
vn -0.209913 0.977669 -0.009994
vn -0.111361 0.993181 -0.034494
vn -0.182113 0.983276 -0.001857
vn 0.156373 0.961290 0.226870
vn 0.119922 0.981089 0.151932
vn 0.185350 0.956452 0.225488
vn 0.150074 0.974713 0.165565
vn 0.108171 0.991972 0.065499
vn 0.064077 0.997166 0.039423
vn 0.205713 0.952093 0.226276
vn 0.174791 0.970609 0.165430
vn 0.253053 0.940705 0.225918
vn 0.250901 0.950016 0.185792
vn 0.245547 0.960260 0.132691
vn 0.156667 0.984183 0.082704
vn 0.137279 0.990340 0.019537
vn 0.071972 0.997321 -0.013100
vn 0.233356 0.969567 0.074056
vn 0.224645 0.974243 0.019625
vn 0.120332 0.992635 -0.014007
vn 0.047236 0.998070 -0.040309
vn 0.012189 0.998805 -0.047324
vn -0.022717 0.997547 -0.066209
vn -0.082055 0.996543 -0.013006
vn -0.161538 0.986813 0.010289
vn -0.054620 0.998004 -0.031694
vn -0.039582 0.998651 -0.033600
vn -0.066817 0.997489 -0.023478
vn -0.147895 0.988803 -0.019910
vn -0.041080 0.998038 -0.047256
vn -0.048800 0.997121 -0.058030
vn -0.032835 0.997742 -0.058595
vn -0.026336 0.998651 -0.044756
vn -0.014177 0.997973 -0.062045
vn -0.030987 0.998049 -0.054212
vn -0.010005 0.997161 -0.074636
vn 0.020390 0.990480 -0.136137
vn -0.005736 0.991890 -0.126967
vn -0.042266 0.991802 -0.120595
vn -0.058445 0.997161 -0.047472
vn -0.131144 0.989559 -0.059789
vn -0.081283 0.990723 -0.108907
vn -0.129315 0.986241 -0.102988
vn -0.038747 0.997368 -0.061286
vn 0.030068 0.998099 -0.053804
vn 0.021211 0.996698 -0.078380
vn -0.028837 0.996817 -0.074330
vn 0.105303 0.993704 -0.038256
vn 0.216827 0.975799 -0.028317
vn 0.207611 0.975248 -0.076093
vn 0.088314 0.993858 -0.066687
vn 0.072527 0.992415 -0.099263
vn 0.023447 0.994268 -0.104315
vn 0.191069 0.974333 -0.119029
vn 0.190883 0.966518 -0.171483
vn 0.109035 0.979593 -0.168844
vn 0.070785 0.983616 -0.165797
vn -0.002981 0.995639 -0.093241
vn 0.044243 0.987557 -0.150908
vn -0.139871 0.965729 0.218641
vn -0.070506 0.959842 0.271536
vn -0.184324 0.969355 0.162407
vn -0.214594 0.952876 0.214421
vn -0.142514 0.951414 0.272948
vn -0.059802 0.945533 0.319987
vn 0.014811 0.953848 0.299923
vn 0.096247 0.952487 0.288973
vn 0.019398 0.939644 0.341605
vn 0.095622 0.937801 0.333744
vn -0.225300 0.968790 0.103373
vn -0.263179 0.963924 0.039844
vn -0.346410 0.936635 0.052113
vn -0.286381 0.948058 0.138463
vn -0.273766 0.961774 0.006573
vn -0.266676 0.963600 0.018978
vn -0.361609 0.931891 0.028613
vn -0.363959 0.931342 0.011668
vn 0.158033 0.953242 0.257597
vn 0.193859 0.953040 0.232666
vn 0.166525 0.937455 0.305691
vn 0.224311 0.935805 0.271945
vn 0.229302 0.947732 0.221866
vn 0.267286 0.938700 0.217718
vn 0.275512 0.931309 0.238237
vn 0.298437 0.927311 0.225897
vn 0.286809 0.935735 0.205283
vn 0.297124 0.938458 0.176109
vn 0.307518 0.925764 0.219984
vn 0.321807 0.926198 0.196463
vn 0.307072 0.943867 0.121750
vn 0.315858 0.947712 0.045567
vn 0.342588 0.928691 0.142010
vn 0.360696 0.931095 0.054417
vn -0.259062 0.965400 0.029816
vn -0.238192 0.971046 -0.018284
vn -0.341083 0.939868 -0.017614
vn -0.361471 0.931298 0.044978
vn -0.202734 0.975926 -0.080417
vn -0.163723 0.977837 -0.130502
vn -0.233953 0.954603 -0.184389
vn -0.292790 0.949831 -0.109980
vn 0.315376 0.948563 -0.027696
vn 0.302829 0.948162 -0.096352
vn 0.362538 0.931438 -0.031459
vn 0.346750 0.931472 -0.110108
vn 0.279928 0.947640 -0.153684
vn 0.242397 0.950616 -0.193837
vn 0.318322 0.932038 -0.173134
vn 0.285130 0.934318 -0.213897
vn -0.118633 0.978294 -0.169902
vn -0.063037 0.977840 -0.199636
vn -0.088560 0.954542 -0.284618
vn -0.168024 0.955776 -0.241373
vn -0.002598 0.976302 -0.216399
vn 0.047647 0.974107 -0.221011
vn 0.070032 0.947783 -0.311131
vn -0.002572 0.951327 -0.308174
vn 0.089732 0.971000 -0.221601
vn 0.128771 0.966508 -0.221994
vn 0.181094 0.942023 -0.282485
vn 0.129148 0.944803 -0.301110
vn 0.180807 0.959480 -0.216120
vn 0.237946 0.938266 -0.251076
vn -0.258414 0.927826 0.269001
vn -0.164036 0.928572 0.332935
vn -0.064614 0.924387 0.375943
vn 0.021744 0.919126 0.393362
vn 0.104494 0.915088 0.389482
vn -0.425565 0.902284 0.069123
vn -0.351874 0.919205 0.176767
vn -0.447135 0.893756 0.035642
vn -0.448756 0.893526 0.015167
vn 0.189791 0.910943 0.366283
vn 0.265372 0.906258 0.329050
vn 0.330561 0.900363 0.282979
vn 0.353103 0.898156 0.261982
vn 0.358278 0.898049 0.255236
vn 0.374375 0.898762 0.228190
vn 0.399818 0.901643 0.164881
vn 0.421652 0.904549 0.063251
vn -0.425137 0.904743 -0.026443
vn -0.446398 0.893172 0.054528
vn -0.296476 0.925110 -0.237219
vn -0.370549 0.917795 -0.142637
vn 0.423824 0.905005 -0.036580
vn 0.406555 0.904583 -0.128231
vn 0.375755 0.904291 -0.202649
vn 0.341487 0.905185 -0.253035
vn -0.111276 0.927833 -0.356012
vn -0.211308 0.928173 -0.306340
vn 0.085299 0.918297 -0.386595
vn -0.004950 0.923616 -0.383287
vn 0.223725 0.910848 -0.346846
vn 0.159309 0.913942 -0.373271
vn 0.290386 0.907775 -0.302689
vn -0.339187 0.872121 0.352642
vn -0.213907 0.873771 0.436771
vn -0.081793 0.867640 0.490418
vn 0.029372 0.859987 0.509470
vn 0.135136 0.853014 0.504089
vn -0.550539 0.830322 0.086442
vn -0.460685 0.857507 0.229024
vn -0.573106 0.818216 0.045518
vn -0.575395 0.817651 0.019177
vn 0.245747 0.845264 0.474487
vn 0.343740 0.837208 0.425354
vn 0.426491 0.827923 0.364211
vn 0.454190 0.824697 0.337026
vn 0.460886 0.824483 0.328347
vn 0.481780 0.825492 0.294028
vn 0.515698 0.829760 0.213436
vn 0.545314 0.834199 0.082128
vn -0.549355 0.834982 -0.031851
vn -0.572092 0.817172 0.070291
vn -0.388497 0.868058 -0.309105
vn -0.482415 0.856316 -0.184389
vn 0.548296 0.834942 -0.047371
vn 0.525766 0.834282 -0.165962
vn 0.485797 0.833901 -0.261935
vn 0.441954 0.835286 -0.327069
vn -0.146201 0.871273 -0.468517
vn -0.278363 0.872471 -0.401633
vn 0.112562 0.855691 -0.505097
vn -0.005364 0.864184 -0.503147
vn 0.291137 0.844053 -0.450348
vn 0.208167 0.848883 -0.485865
vn 0.376889 0.839230 -0.391980
vn -0.244086 0.832233 0.497806
vn -0.093893 0.824578 0.557903
vn -0.386036 0.830147 0.402285
vn -0.392908 0.819285 0.417607
vn -0.253183 0.821303 0.511234
vn -0.103603 0.813709 0.571965
vn 0.032703 0.814423 0.579349
vn 0.152576 0.805983 0.571938
vn 0.027760 0.802681 0.595762
vn 0.150816 0.793868 0.589091
vn -0.520652 0.812875 0.261068
vn -0.617748 0.780086 0.099268
vn -0.625106 0.771182 0.120505
vn -0.523831 0.803586 0.282578
vn -0.646960 0.762213 0.021792
vn -0.646433 0.761234 0.051457
vn -0.664156 0.745659 0.053752
vn -0.663590 0.747704 0.024215
vn 0.277549 0.796347 0.537400
vn 0.387575 0.786486 0.480860
vn 0.279814 0.783735 0.554494
vn 0.392527 0.773526 0.497574
vn 0.480059 0.775094 0.410820
vn 0.512280 0.770125 0.380101
vn 0.488821 0.761593 0.425477
vn 0.526339 0.755406 0.390294
vn 0.519412 0.770251 0.370032
vn 0.542744 0.771935 0.330976
vn 0.533418 0.755722 0.379934
vn 0.558042 0.757771 0.338190
vn 0.580775 0.777931 0.239839
vn 0.614267 0.783683 0.092287
vn 0.597373 0.764519 0.242192
vn 0.630624 0.770521 0.092796
vn -0.642687 0.762097 0.078498
vn -0.618187 0.785106 -0.038117
vn -0.628915 0.775268 -0.058522
vn -0.659132 0.748108 0.076676
vn -0.546306 0.810731 -0.210392
vn -0.441638 0.825104 -0.352361
vn -0.449775 0.814096 -0.367355
vn -0.555097 0.800059 -0.227537
vn 0.618141 0.784253 -0.053373
vn 0.592565 0.783527 -0.186957
vn 0.634571 0.770940 -0.054511
vn 0.608443 0.770221 -0.191200
vn 0.548053 0.782490 -0.295545
vn 0.498836 0.784009 -0.369450
vn 0.562639 0.768871 -0.303767
vn 0.511155 0.770453 -0.380951
vn -0.317194 0.830457 -0.457962
vn -0.166920 0.829260 -0.533354
vn -0.175563 0.818320 -0.547293
vn -0.325210 0.819335 -0.472153
vn -0.006935 0.820042 -0.572261
vn 0.127043 0.809221 -0.573604
vn 0.124177 0.797343 -0.590613
vn -0.014289 0.808821 -0.587882
vn 0.235524 0.800556 -0.551033
vn 0.329223 0.794699 -0.509966
vn 0.335576 0.781683 -0.525701
vn 0.238034 0.787913 -0.567920
vn 0.425387 0.789158 -0.443030
vn 0.434196 0.776079 -0.457357
s 1
g Isla1
usemtl initialShadingGroup
f 1/1/1 130/2/2 194/3/3 133/4/4
f 130/2/2 14/5/5 131/6/6 194/3/3
f 194/3/3 131/6/6 22/7/7 132/8/8
f 133/4/4 194/3/3 132/8/8 17/9/9
f 14/5/5 134/10/10 195/11/11 131/6/6
f 134/10/10 2/12/12 135/13/13 195/11/11
f 195/11/11 135/13/13 15/14/14 136/15/15
f 131/6/6 195/11/11 136/15/15 22/7/7
f 22/7/7 136/15/15 196/16/16 139/17/17
f 136/15/15 15/14/14 137/18/18 196/16/16
f 196/16/16 137/18/18 5/19/19 138/20/20
f 139/17/17 196/16/16 138/20/20 16/21/21
f 17/9/9 132/8/8 197/22/22 141/23/23
f 132/8/8 22/7/7 139/17/17 197/22/22
f 197/22/22 139/17/17 16/21/21 140/24/24
f 141/23/23 197/22/22 140/24/24 4/25/25
f 2/12/12 142/26/26 198/27/27 135/13/13
f 142/26/26 18/28/28 143/29/29 198/27/27
f 198/27/27 143/29/29 23/30/30 144/31/31
f 135/13/13 198/27/27 144/31/31 15/14/14
f 18/28/28 145/32/32 199/33/33 143/29/29
f 145/32/32 3/34/34 146/35/35 199/33/33
f 199/33/33 146/35/35 19/36/36 147/37/37
f 143/29/29 199/33/33 147/37/37 23/30/30
f 23/30/30 147/37/37 200/38/38 150/39/39
f 147/37/37 19/36/36 148/40/40 200/38/38
f 200/38/38 148/40/40 6/41/41 149/42/42
f 150/39/39 200/38/38 149/42/42 20/43/43
f 15/14/14 144/31/31 201/44/44 137/18/18
f 144/31/31 23/30/30 150/39/39 201/44/44
f 201/44/44 150/39/39 20/43/43 151/45/45
f 137/18/18 201/44/44 151/45/45 5/19/19
f 4/25/25 140/24/24 202/46/46 154/47/47
f 140/24/24 16/21/21 152/48/48 202/46/46
f 202/46/46 152/48/48 24/49/49 153/50/50
f 154/47/47 202/46/46 153/50/50 11/51/51
f 16/21/21 138/20/20 203/52/52 152/48/48
f 138/20/20 5/19/19 155/53/53 203/52/52
f 203/52/52 155/53/53 21/54/54 156/55/55
f 152/48/48 203/52/52 156/55/55 24/49/49
f 24/49/49 156/55/55 204/56/56 159/57/57
f 156/55/55 21/54/54 157/58/58 204/56/56
f 204/56/56 157/58/58 8/59/59 158/60/60
f 159/57/57 204/56/56 158/60/60 10/61/61
f 11/51/51 153/50/50 205/62/62 161/63/63
f 153/50/50 24/49/49 159/57/57 205/62/62
f 205/62/62 159/57/57 10/61/61 160/64/64
f 161/63/63 205/62/62 160/64/64 7/65/65
f 5/19/19 151/45/45 206/66/66 155/53/53
f 151/45/45 20/43/43 162/67/67 206/66/66
f 206/66/66 162/67/67 25/68/68 163/69/69
f 155/53/53 206/66/66 163/69/69 21/54/54
f 20/43/43 149/42/42 207/70/70 162/67/67
f 149/42/42 6/41/41 164/71/71 207/70/70
f 207/70/70 164/71/71 12/72/72 165/73/73
f 162/67/67 207/70/70 165/73/73 25/68/68
f 25/68/68 165/73/73 208/74/74 168/75/75
f 165/73/73 12/72/72 166/76/76 208/74/74
f 208/74/74 166/76/76 9/77/77 167/78/78
f 168/75/75 208/74/74 167/78/78 13/79/79
f 21/54/54 163/69/69 209/80/80 157/58/58
f 163/69/69 25/68/68 168/75/75 209/80/80
f 209/80/80 168/75/75 13/79/79 169/81/81
f 157/58/58 209/80/80 169/81/81 8/59/59
f 14/5/5 130/2/2 210/82/82 171/83/83
f 130/2/2 1/1/1 170/297/84 210/82/82
f 210/82/82 170/297/84 186/293/85 226/86/86
f 171/83/83 210/82/82 226/86/86 187/87/87
f 2/12/12 134/10/10 211/88/88 172/89/89
f 134/10/10 14/5/5 171/83/83 211/88/88
f 211/88/88 171/83/83 187/87/87 227/90/90
f 172/89/89 211/88/88 227/90/90 188/91/91
f 1/1/1 133/4/4 212/92/92 170/84/84
f 133/4/4 17/9/9 173/93/93 212/92/92
f 212/92/92 173/93/93 189/94/94 228/95/95
f 170/84/84 212/92/92 228/95/95 186/85/85
f 17/9/9 141/23/23 213/96/96 173/93/93
f 141/23/23 4/25/25 174/97/97 213/96/96
f 213/96/96 174/97/97 190/98/98 229/99/99
f 173/93/93 213/96/96 229/99/99 189/94/94
f 18/28/28 142/26/26 214/100/100 175/101/101
f 142/26/26 2/12/12 172/89/89 214/100/100
f 214/100/100 172/89/89 188/91/91 230/102/102
f 175/101/101 214/100/100 230/102/102 191/103/103
f 3/34/34 145/32/32 215/104/104 176/296/105
f 145/32/32 18/28/28 175/101/101 215/104/104
f 215/104/104 175/101/101 191/103/103 231/106/106
f 176/296/105 215/104/104 231/106/106 192/291/107
f 19/36/36 146/35/35 216/108/108 177/109/109
f 146/35/35 3/34/34 176/105/105 216/108/108
f 216/108/108 176/105/105 192/107/107 232/110/110
f 177/109/109 216/108/108 232/110/110 193/111/111
f 6/41/41 148/40/40 217/112/112 178/113/113
f 148/40/40 19/36/36 177/109/109 217/112/112
f 217/112/112 177/109/109 193/111/111 233/114/114
f 178/113/113 217/112/112 233/114/114 58/115/115
f 4/25/25 154/47/47 218/116/116 174/97/97
f 154/47/47 11/51/51 179/117/117 218/116/116
f 218/116/116 179/117/117 59/118/118 234/119/119
f 174/97/97 218/116/116 234/119/119 190/98/98
f 11/51/51 161/63/63 219/120/120 179/117/117
f 161/63/63 7/65/65 180/295/121 219/120/120
f 219/120/120 180/295/121 60/289/122 235/123/123
f 179/117/117 219/120/120 235/123/123 59/118/118
f 12/72/72 164/71/71 220/124/124 181/125/125
f 164/71/71 6/41/41 178/113/113 220/124/124
f 220/124/124 178/113/113 58/115/115 236/126/126
f 181/125/125 220/124/124 236/126/126 61/127/127
f 9/77/77 166/76/76 221/128/128 182/294/129
f 166/76/76 12/72/72 181/125/125 221/128/128
f 221/128/128 181/125/125 61/127/127 237/130/130
f 182/294/129 221/128/128 237/130/130 62/287/131
f 7/65/65 160/64/64 222/132/132 180/121/121
f 160/64/64 10/61/61 183/133/133 222/132/132
f 222/132/132 183/133/133 63/134/134 238/135/135
f 180/121/121 222/132/132 238/135/135 60/122/122
f 10/61/61 158/60/60 223/136/136 183/133/133
f 158/60/60 8/59/59 184/137/137 223/136/136
f 223/136/136 184/137/137 64/138/138 239/139/139
f 183/133/133 223/136/136 239/139/139 63/134/134
f 8/59/59 169/81/81 224/140/140 184/137/137
f 169/81/81 13/79/79 185/141/141 224/140/140
f 224/140/140 185/141/141 65/142/142 240/143/143
f 184/137/137 224/140/140 240/143/143 64/138/138
f 13/79/79 167/78/78 225/144/144 185/141/141
f 167/78/78 9/77/77 182/129/129 225/144/144
f 225/144/144 182/129/129 62/131/131 241/145/145
f 185/141/141 225/144/144 241/145/145 65/142/142
f 226/86/86 186/293/85 66/292/146 242/147/147
f 187/87/87 226/86/86 242/147/147 68/148/148
f 227/90/90 187/87/87 68/148/148 243/149/149
f 188/91/91 227/90/90 243/149/149 70/150/150
f 228/95/95 189/94/94 71/151/151 244/152/152
f 186/85/85 228/95/95 244/152/152 66/146/146
f 229/99/99 190/98/98 73/153/153 245/154/154
f 189/94/94 229/99/99 245/154/154 71/151/151
f 230/102/102 188/91/91 70/150/150 246/155/155
f 191/103/103 230/102/102 246/155/155 76/156/156
f 231/106/106 191/103/103 76/156/156 247/157/157
f 192/291/107 231/106/106 247/157/157 78/290/158
f 232/110/110 192/107/107 78/158/158 248/159/159
f 193/111/111 232/110/110 248/159/159 80/160/160
f 233/114/114 193/111/111 80/160/160 249/161/161
f 58/115/115 233/114/114 249/161/161 82/162/162
f 234/119/119 59/118/118 83/163/163 250/164/164
f 190/98/98 234/119/119 250/164/164 73/153/153
f 235/123/123 60/289/122 85/288/165 251/166/166
f 59/118/118 235/123/123 251/166/166 83/163/163
f 236/126/126 58/115/115 82/162/162 252/167/167
f 61/127/127 236/126/126 252/167/167 88/168/168
f 237/130/130 61/127/127 88/168/168 253/169/169
f 62/287/131 237/130/130 253/169/169 90/286/170
f 238/135/135 63/134/134 91/171/171 254/172/172
f 60/122/122 238/135/135 254/172/172 85/165/165
f 239/139/139 64/138/138 93/173/173 255/174/174
f 63/134/134 239/139/139 255/174/174 91/171/171
f 240/143/143 65/142/142 95/175/175 256/176/176
f 64/138/138 240/143/143 256/176/176 93/173/173
f 241/145/145 62/131/131 90/170/170 257/177/177
f 65/142/142 241/145/145 257/177/177 95/175/175
f 242/147/147 66/292/146 26/285/178 67/179/179
f 68/148/148 242/147/147 67/179/179 27/180/180
f 243/149/149 68/148/148 27/180/180 69/181/181
f 70/150/150 243/149/149 69/181/181 28/182/182
f 244/152/152 71/151/151 29/183/183 72/184/184
f 66/146/146 244/152/152 72/184/184 26/178/178
f 245/154/154 73/153/153 30/185/185 74/186/186
f 71/151/151 245/154/154 74/186/186 29/183/183
f 246/155/155 70/150/150 28/182/182 75/187/187
f 76/156/156 246/155/155 75/187/187 31/188/188
f 247/157/157 76/156/156 31/188/188 77/189/189
f 78/290/158 247/157/157 77/189/189 32/190/190
f 248/159/159 78/158/158 32/282/190 79/191/191
f 80/160/160 248/159/159 79/191/191 33/192/192
f 249/161/161 80/160/160 33/192/192 81/193/193
f 82/162/162 249/161/161 81/193/193 34/194/194
f 250/164/164 83/163/163 35/195/195 84/196/196
f 73/153/153 250/164/164 84/196/196 30/185/185
f 251/166/166 85/288/165 36/279/197 86/198/198
f 83/163/163 251/166/166 86/198/198 35/195/195
f 252/167/167 82/162/162 34/194/194 87/199/199
f 88/168/168 252/167/167 87/199/199 37/200/200
f 253/169/169 88/168/168 37/200/200 89/201/201
f 90/286/170 253/169/169 89/201/201 38/202/202
f 254/172/172 91/171/171 39/203/203 92/204/204
f 85/165/165 254/172/172 92/204/204 36/197/197
f 255/174/174 93/173/173 40/205/205 94/206/206
f 91/171/171 255/174/174 94/206/206 39/203/203
f 256/176/176 95/175/175 41/207/207 96/208/208
f 93/173/173 256/176/176 96/208/208 40/205/205
f 257/177/177 90/170/170 38/276/202 97/209/209
f 95/175/175 257/177/177 97/209/209 41/207/207
f 27/180/180 67/179/179 258/210/210 100/211/211
f 67/179/179 26/285/178 98/283/212 258/210/210
f 258/210/210 98/283/212 42/284/213 99/214/214
f 100/211/211 258/210/210 99/214/214 43/215/215
f 28/182/182 69/181/181 259/216/216 102/217/217
f 69/181/181 27/180/180 100/211/211 259/216/216
f 259/216/216 100/211/211 43/215/215 101/218/218
f 102/217/217 259/216/216 101/218/218 44/219/219
f 26/178/178 72/184/184 260/220/220 98/212/212
f 72/184/184 29/183/183 103/221/221 260/220/220
f 260/220/220 103/221/221 45/222/222 104/223/223
f 98/212/212 260/220/220 104/223/223 42/213/213
f 29/183/183 74/186/186 261/224/224 103/221/221
f 74/186/186 30/185/185 105/225/225 261/224/224
f 261/224/224 105/225/225 46/226/226 106/227/227
f 103/221/221 261/224/224 106/227/227 45/222/222
f 31/188/188 75/187/187 262/228/228 108/229/229
f 75/187/187 28/182/182 102/217/217 262/228/228
f 262/228/228 102/217/217 44/219/219 107/230/230
f 108/229/229 262/228/228 107/230/230 47/231/231
f 32/190/190 77/189/189 263/232/232 110/280/233
f 77/189/189 31/188/188 108/229/229 263/232/232
f 263/232/232 108/229/229 47/231/231 109/234/234
f 110/280/233 263/232/232 109/234/234 48/235/235
f 33/192/192 79/191/191 264/236/236 112/237/237
f 79/191/191 32/282/190 110/233/233 264/236/236
f 264/236/236 110/233/233 48/281/235 111/238/238
f 112/237/237 264/236/236 111/238/238 49/239/239
f 34/194/194 81/193/193 265/240/240 114/241/241
f 81/193/193 33/192/192 112/237/237 265/240/240
f 265/240/240 112/237/237 49/239/239 113/242/242
f 114/241/241 265/240/240 113/242/242 50/243/243
f 30/185/185 84/196/196 266/244/244 105/225/225
f 84/196/196 35/195/195 115/245/245 266/244/244
f 266/244/244 115/245/245 51/246/246 116/247/247
f 105/225/225 266/244/244 116/247/247 46/226/226
f 35/195/195 86/198/198 267/248/248 115/245/245
f 86/198/198 36/279/197 117/277/249 267/248/248
f 267/248/248 117/277/249 52/278/250 118/251/251
f 115/245/245 267/248/248 118/251/251 51/246/246
f 37/200/200 87/199/199 268/252/252 120/253/253
f 87/199/199 34/194/194 114/241/241 268/252/252
f 268/252/252 114/241/241 50/243/243 119/254/254
f 120/253/253 268/252/252 119/254/254 53/255/255
f 38/202/202 89/201/201 269/256/256 122/274/257
f 89/201/201 37/200/200 120/253/253 269/256/256
f 269/256/256 120/253/253 53/255/255 121/258/258
f 122/274/257 269/256/256 121/258/258 54/259/259
f 36/197/197 92/204/204 270/260/260 117/249/249
f 92/204/204 39/203/203 123/261/261 270/260/260
f 270/260/260 123/261/261 55/262/262 124/263/263
f 117/249/249 270/260/260 124/263/263 52/250/250
f 39/203/203 94/206/206 271/264/264 123/261/261
f 94/206/206 40/205/205 125/265/265 271/264/264
f 271/264/264 125/265/265 56/266/266 126/267/267
f 123/261/261 271/264/264 126/267/267 55/262/262
f 40/205/205 96/208/208 272/268/268 125/265/265
f 96/208/208 41/207/207 127/269/269 272/268/268
f 272/268/268 127/269/269 57/270/270 128/271/271
f 125/265/265 272/268/268 128/271/271 56/266/266
f 41/207/207 97/209/209 273/272/272 127/269/269
f 97/209/209 38/276/202 122/257/257 273/272/272
f 273/272/272 122/257/257 54/275/259 129/273/273
f 127/269/269 273/272/272 129/273/273 57/270/270
