# This file uses centimeters as units for non-parametric coordinates.

mtllib Isla3.mtl
g default
v -30.812469 3.426086 62.675301
v -14.500906 3.914992 62.128273
v -2.889565 3.343580 58.310802
v -34.995609 3.835012 51.651875
v -14.307009 6.052442 51.038342
v 2.702200 3.843343 51.393768
v -27.422613 3.322735 40.070652
v -12.778990 3.750778 37.343842
v -1.262924 3.589362 39.496353
v -20.720924 3.761731 38.569397
v -32.488922 3.706451 45.134468
v 2.179916 4.001425 45.019279
v -6.249001 3.816525 37.557896
v -23.871498 3.834617 63.270454
v -14.836653 5.773146 56.858082
v -24.419106 5.733969 51.704155
v -33.938946 3.852829 58.666290
v -7.400597 3.704659 59.856857
v 0.175105 3.719339 55.536728
v -5.170240 5.394228 50.289516
v -13.302182 5.660047 44.340511
v -24.891083 5.519064 57.645359
v -6.518053 5.040438 55.899597
v -22.429548 5.477007 45.303902
v -5.065701 5.165957 43.740185
v -33.620522 1.150275 66.621750
v -24.325211 1.125023 68.291382
v -13.945353 1.297247 66.987511
v -40.061954 1.113397 61.774296
v -41.831451 1.006621 51.974319
v -5.602584 1.032176 63.756771
v 0.085185 1.052819 60.793678
v 5.752193 0.919592 57.407063
v 9.091221 1.074677 52.562202
v -38.240974 0.784562 43.035694
v -30.509659 0.957904 36.529823
v 7.973082 1.370518 44.320427
v 1.724360 1.303715 36.276703
v -21.764809 0.988323 33.695053
v -12.183542 0.909244 32.065144
v -4.277371 1.169239 32.446915
v -35.815651 -1.866666 70.442459
v -24.570871 -1.869660 72.578476
v -13.086725 -1.841443 71.314491
v -44.149464 -1.872289 64.637680
v -46.669262 -1.889191 52.337013
v -3.646795 -1.883934 67.370720
v 3.067256 -1.882043 63.603054
v 10.125111 -1.903960 59.275688
v 14.137091 -1.879425 53.403404
v -42.186943 -1.924500 41.066414
v -33.393517 -1.897683 33.085579
v 12.601915 -1.834169 43.279743
v 5.033845 -1.845292 33.156815
v -23.008476 -1.891176 29.443642
v -11.768244 -1.903737 27.721376
v -1.967003 -1.863094 28.317183
v -40.216633 -7.392086 75.291687
v -26.302294 -7.392086 77.966141
v -12.239832 -7.392086 76.451202
v -50.601341 -7.392086 68.122665
v -53.784931 -7.392086 52.837158
v -0.659157 -7.392086 71.565460
v 7.616446 -7.392086 66.872284
v 16.382355 -7.392086 61.476048
v 21.345940 -7.392086 54.202759
v -48.221485 -7.392086 38.823410
v -37.407196 -7.392086 28.929253
v 19.423073 -7.392086 41.650066
v 10.059332 -7.392086 29.070644
v -24.598658 -7.392086 24.374767
v -10.740538 -7.392086 22.288147
v 1.434354 -7.392086 23.051123
v -30.384020 -1.870891 71.910995
v -18.706100 -1.852130 72.362900
v -40.535870 -1.867828 68.254868
v -46.261219 -1.877958 58.880375
v -8.009768 -1.860741 69.483459
v -0.169371 -1.884935 65.477158
v 6.707841 -1.893556 61.548668
v 12.691805 -1.897740 56.745815
v -45.171726 -1.910347 46.361629
v -38.133247 -1.914730 36.563534
v 14.190132 -1.853544 48.692825
v 9.123419 -1.835372 37.829826
v -28.350624 -1.890011 30.865129
v -17.370975 -1.900646 28.362568
v -6.530401 -1.885768 27.619537
v 1.612392 -1.852067 30.074434
v -33.479012 -7.392086 77.118317
v -19.112074 -7.392086 77.727112
v -46.089569 -7.392086 72.594269
v -53.255466 -7.392086 60.973427
v -6.017052 -7.392086 74.188385
v 3.618428 -7.392086 69.209213
v 12.135641 -7.392086 64.307266
v 19.562927 -7.392086 58.340466
v -51.922729 -7.392086 45.404449
v -43.233822 -7.392086 33.242126
v 21.399963 -7.392086 48.365154
v 15.113333 -7.392086 34.879906
v -31.189066 -7.392086 26.153418
v -17.655197 -7.392086 23.053446
v -4.236533 -7.392086 22.177559
v 5.849657 -7.392086 25.238266
v -27.937935 3.759414 62.898232
v -24.358250 4.858022 60.509373
v -29.691006 4.858438 57.978920
v -32.315498 3.778720 60.981503
v -19.160938 3.903147 62.944233
v -14.737360 5.008260 59.545303
v -19.797533 5.803853 57.276764
v -14.674198 6.051428 54.041973
v -19.229078 6.059483 51.457600
v -24.892572 5.739584 54.717972
v -29.927372 4.962070 51.698383
v -34.861576 3.866472 55.338829
v -10.586051 3.820140 61.031254
v -7.201533 4.539315 57.986374
v -10.434742 5.487288 56.374241
v -4.928770 3.654616 58.808743
v -1.727076 3.671693 57.036674
v -3.012839 4.526756 55.508450
v 1.717764 3.772920 53.723824
v -1.064227 4.767112 50.697872
v -5.776394 5.303383 53.287189
v -9.602615 5.826681 50.525990
v -23.527069 5.716615 48.580841
v -27.688833 4.793124 45.445393
v -34.253258 3.773808 48.258179
v -13.792097 5.985523 47.788517
v -17.692797 5.713110 44.881737
v -13.009987 4.885392 40.742325
v -16.730810 3.762482 37.833118
v -21.339628 4.804634 41.829197
v -24.315197 3.700014 39.448853
v -29.557003 3.656527 42.257477
v -4.893275 5.379050 47.046902
v -9.081303 5.476431 43.841812
v 2.929720 3.941516 48.342316
v -1.290915 4.732320 44.390167
v 0.232381 3.957055 41.874474
v -3.583491 3.855921 38.541534
v -5.807719 4.663055 40.550179
v -9.299610 3.775136 37.205383
v -32.129166 2.568130 64.289711
v -29.232399 1.121080 67.818703
v -24.008257 2.527015 65.889053
v -19.071964 1.232011 67.973160
v -14.251879 2.651563 64.631577
v -37.376553 2.533089 60.096310
v -37.316570 1.142703 64.767151
v -38.865551 2.444023 51.776222
v -41.598110 1.077393 57.162632
v -9.418053 1.175932 65.457848
v -6.689009 2.441112 61.820351
v -2.611462 1.030091 62.256824
v -1.745308 2.485847 59.267956
v 3.017224 0.983507 59.202984
v 3.139988 2.391287 56.320316
v 7.857625 0.958514 55.328255
v 6.115820 2.520930 52.019882
v -35.848072 2.261973 44.199364
v -40.668407 0.873014 47.251553
v -28.587317 2.418997 38.538872
v -34.681149 0.849254 39.368122
v 9.210691 1.242485 48.704544
v 5.283657 2.799173 44.855076
v 5.135439 1.367358 39.974998
v -0.138347 2.754422 38.091682
v -21.037050 2.410533 35.937157
v -26.247227 1.001323 34.801807
v -12.472677 2.345426 34.494949
v -16.933342 0.927715 32.720558
v -5.519213 2.572548 34.844330
v -7.946125 1.022652 31.915615
v -1.233560 1.250301 33.833977
v -28.669838 4.493334 60.525677
v -19.509304 5.025863 60.150471
v -19.684965 6.068453 54.417629
v -30.115080 4.975555 54.939129
v -10.656780 4.816613 58.790211
v -4.305586 4.264759 57.234985
v -1.864111 4.684143 53.329632
v -10.042215 5.777775 53.594898
v -29.113194 4.935371 48.548763
v -18.487352 6.016761 48.281223
v -17.078423 4.921353 41.252384
v -25.670589 4.432994 42.343418
v -9.239353 5.772613 47.241322
v -0.818014 4.805852 47.612530
v -2.648375 4.478475 41.347359
v -9.257338 4.798994 40.428383
v -28.381651 2.535853 65.415421
v -19.093103 2.604367 65.563553
v -35.166679 2.561097 62.658974
v -38.641159 2.502441 56.174809
v -10.100273 2.552258 63.285831
v -4.068810 2.452786 60.529221
v 0.775862 2.438862 57.892082
v 4.992359 2.422577 54.471390
v -37.954796 2.332703 47.782284
v -32.484562 2.325327 41.033821
v 6.293221 2.674540 48.640392
v 2.846231 2.810596 41.186085
v -24.879395 2.439218 36.967728
v -16.736540 2.357488 35.063919
v -8.740276 2.439690 34.377178
v -2.789366 2.676265 36.030128
vt 0.672803 0.383361
vt 0.660896 0.418049
vt 0.635416 0.398551
vt 0.658195 0.358293
vt 0.646048 0.466559
vt 0.614687 0.447648
vt 0.583458 0.428368
vt 0.610052 0.375413
vt 0.638085 0.329314
vt 0.620611 0.518938
vt 0.588150 0.501108
vt 0.590181 0.568589
vt 0.559646 0.552708
vt 0.528491 0.538566
vt 0.555679 0.484224
vt 0.522520 0.472303
vt 0.549923 0.414846
vt 0.495628 0.527374
vt 0.459819 0.517703
vt 0.486796 0.463739
vt 0.513346 0.406061
vt 0.576943 0.356604
vt 0.603847 0.303602
vt 0.538946 0.343427
vt 0.562372 0.284852
vt 0.560334 0.608868
vt 0.532993 0.596160
vt 0.532823 0.640650
vt 0.508629 0.632577
vt 0.480895 0.629830
vt 0.503532 0.586728
vt 0.509422 0.664556
vt 0.486983 0.662833
vt 0.494518 0.686930
vt 0.472906 0.692799
vt 0.445873 0.706416
vt 0.460569 0.668652
vt 0.429967 0.670797
vt 0.447365 0.625646
vt 0.417486 0.714415
vt 0.386203 0.713991
vt 0.396004 0.667124
vt 0.410165 0.618331
vt 0.469912 0.578150
vt 0.432882 0.568902
vt 0.499102 0.337566
vt 0.520314 0.276864
vt 0.473589 0.401469
vt 0.431055 0.398307
vt 0.456776 0.338461
vt 0.476245 0.281119
vt 0.447304 0.457401
vt 0.420509 0.508529
vt 0.378869 0.498165
vt 0.404900 0.450565
vt 0.359891 0.440322
vt 0.385712 0.393882
vt 0.335662 0.484671
vt 0.293871 0.470957
vt 0.317249 0.427605
vt 0.343840 0.384875
vt 0.411212 0.345875
vt 0.428589 0.299592
vt 0.370438 0.347074
vt 0.391674 0.312369
vt 0.393701 0.557821
vt 0.371633 0.606396
vt 0.334282 0.589423
vt 0.353969 0.544042
vt 0.359430 0.655464
vt 0.350347 0.702114
vt 0.315570 0.678610
vt 0.324318 0.635536
vt 0.294751 0.606596
vt 0.300528 0.566503
vt 0.287280 0.642632
vt 0.264672 0.615012
vt 0.265792 0.582923
vt 0.267033 0.547380
vt 0.315071 0.526306
vt 0.276803 0.510504
vt 0.695116 0.425914
vt 0.679969 0.478480
vt 0.699609 0.372903
vt 0.737675 0.361924
vt 0.731116 0.429445
vt 0.713034 0.487927
vt 0.653357 0.533325
vt 0.620605 0.584685
vt 0.684576 0.546642
vt 0.649747 0.601114
vt 0.691941 0.330516
vt 0.671107 0.294069
vt 0.704139 0.267416
vt 0.728374 0.311410
vt 0.631599 0.262057
vt 0.582540 0.239066
vt 0.599694 0.202668
vt 0.657771 0.229477
vt 0.587103 0.627016
vt 0.555524 0.660653
vt 0.612712 0.647403
vt 0.577041 0.685105
vt 0.528704 0.685408
vt 0.500410 0.708229
vt 0.546592 0.713560
vt 0.518077 0.738712
vt 0.471127 0.729348
vt 0.440640 0.747278
vt 0.475477 0.766313
vt 0.440138 0.786560
vt 0.410026 0.757952
vt 0.376696 0.758062
vt 0.405395 0.798308
vt 0.367949 0.797849
vt 0.533024 0.229766
vt 0.482036 0.235086
vt 0.480641 0.197674
vt 0.540603 0.192306
vt 0.428790 0.256517
vt 0.375862 0.290672
vt 0.355918 0.256552
vt 0.420560 0.218424
vt 0.337478 0.743940
vt 0.298580 0.715539
vt 0.323520 0.780910
vt 0.278476 0.747541
vt 0.265748 0.672185
vt 0.240142 0.620471
vt 0.238703 0.697260
vt 0.207735 0.643055
vt 0.341203 0.327295
vt 0.311651 0.367323
vt 0.284888 0.346429
vt 0.317963 0.299293
vt 0.281961 0.413096
vt 0.256346 0.459893
vt 0.222877 0.450228
vt 0.251628 0.398029
vt 0.238745 0.502709
vt 0.229815 0.542151
vt 0.192664 0.543786
vt 0.202870 0.498904
vt 0.230299 0.579353
vt 0.193243 0.585386
vt 0.773580 0.510109
vt 0.794631 0.440509
vt 0.802939 0.344388
vt 0.705670 0.636988
vt 0.743394 0.576619
vt 0.790687 0.280744
vt 0.761036 0.224535
vt 0.703049 0.175104
vt 0.629385 0.140195
vt 0.619507 0.731059
vt 0.662414 0.688463
vt 0.548008 0.794443
vt 0.582960 0.764024
vt 0.439276 0.854657
vt 0.484482 0.831007
vt 0.351692 0.868019
vt 0.396802 0.868510
vt 0.553743 0.127738
vt 0.478273 0.133898
vt 0.405769 0.154976
vt 0.318006 0.201551
vt 0.240115 0.806473
vt 0.297018 0.847444
vt 0.147409 0.679106
vt 0.188473 0.744613
vt 0.271974 0.252012
vt 0.232086 0.308030
vt 0.194267 0.368902
vt 0.161810 0.431331
vt 0.137281 0.491713
vt 0.123877 0.547379
vt 0.124499 0.596806
vt 0.895961 0.439586
vt 0.869767 0.526689
vt 0.899758 0.297890
vt 0.832584 0.610245
vt 0.785753 0.686282
vt 0.882623 0.218438
vt 0.843959 0.147866
vt 0.770467 0.084695
vt 0.676534 0.039458
vt 0.731593 0.751246
vt 0.677604 0.804138
vt 0.632184 0.845204
vt 0.588909 0.883105
vt 0.493042 0.932940
vt 0.434636 0.961121
vt 0.380155 0.977337
vt 0.322838 0.976009
vt 0.579581 0.022663
vt 0.482782 0.029255
vt 0.390385 0.054192
vt 0.262733 0.119336
vt 0.252921 0.950523
vt 0.179625 0.899244
vt 0.112728 0.821762
vt 0.059923 0.740529
vt 0.205733 0.182084
vt 0.155456 0.251980
vt 0.108551 0.328714
vt 0.068291 0.407913
vt 0.037772 0.485066
vt 0.021140 0.555878
vt 0.021756 0.617829
vt 0.137828 0.652328
vt 0.037655 0.686865
vt 0.340096 0.187416
vt 0.307515 0.092774
vt 0.528974 0.803873
vt 0.549774 0.900422
vt 0.806745 0.371854
vt 0.911655 0.354220
vt 0.204286 0.631873
vt 0.366034 0.249904
vt 0.509767 0.742638
vt 0.739755 0.373671
vt 0.241099 0.624585
vt 0.379772 0.287764
vt 0.503610 0.706742
vt 0.700661 0.377430
vn -0.146213 0.921036 0.360992
vn -0.081620 0.921128 0.380606
vn -0.117864 0.959266 0.256742
vn -0.203226 0.946613 0.250246
vn -0.018149 0.916599 0.399397
vn -0.043745 0.956037 0.289964
vn -0.081507 0.985497 0.148836
vn -0.164825 0.978716 0.122264
vn -0.258642 0.957128 0.130423
vn 0.038729 0.912617 0.406976
vn 0.015871 0.949888 0.312189
vn 0.099515 0.905097 0.413397
vn 0.072141 0.943084 0.324636
vn 0.049134 0.981867 0.183093
vn -0.011024 0.984943 0.172528
vn -0.027873 0.998800 0.040264
vn -0.102382 0.994356 0.027814
vn 0.033748 0.998047 0.052574
vn 0.025980 0.999656 -0.003526
vn -0.031954 0.999389 -0.014147
vn -0.104972 0.994127 -0.026324
vn -0.183640 0.982705 0.023808
vn -0.279750 0.959391 0.036175
vn -0.182447 0.982604 -0.034688
vn -0.283108 0.958176 -0.041809
vn 0.162574 0.890696 0.424536
vn 0.127439 0.934487 0.332404
vn 0.200528 0.875373 0.439898
vn 0.163876 0.927237 0.336715
vn 0.142508 0.971244 0.190727
vn 0.103492 0.976892 0.187005
vn 0.218717 0.866088 0.449505
vn 0.196092 0.919539 0.340581
vn 0.246631 0.856216 0.453946
vn 0.254605 0.886007 0.387515
vn 0.267042 0.915128 0.302042
vn 0.190685 0.957615 0.215898
vn 0.187647 0.974366 0.124098
vn 0.131112 0.987401 0.088600
vn 0.277648 0.940111 0.197742
vn 0.288916 0.952714 0.094149
vn 0.185771 0.981045 0.055142
vn 0.122178 0.992106 0.028241
vn 0.086947 0.993871 0.068270
vn 0.074486 0.997172 0.010002
vn -0.176285 0.980218 -0.089976
vn -0.278468 0.951832 -0.128338
vn -0.101294 0.992390 -0.070019
vn -0.094491 0.983289 -0.155609
vn -0.165221 0.972143 -0.166255
vn -0.261079 0.940305 -0.218319
vn -0.031333 0.997831 -0.057894
vn 0.020667 0.998436 -0.051952
vn 0.007681 0.988800 -0.149046
vn -0.034696 0.987393 -0.154436
vn -0.043159 0.963055 -0.265823
vn -0.085466 0.962277 -0.258298
vn -0.012391 0.965288 -0.260895
vn -0.033544 0.924487 -0.379735
vn -0.058002 0.921655 -0.383650
vn -0.088271 0.921856 -0.377345
vn -0.144743 0.956837 -0.252017
vn -0.228586 0.930048 -0.287679
vn -0.133481 0.922497 -0.362191
vn -0.200212 0.911791 -0.358542
vn 0.063643 0.996957 -0.045028
vn 0.113193 0.993081 -0.031267
vn 0.098806 0.988126 -0.117664
vn 0.046696 0.989447 -0.137163
vn 0.183113 0.983025 -0.011467
vn 0.296076 0.955160 -0.002777
vn 0.295661 0.947461 -0.122079
vn 0.176733 0.979144 -0.100208
vn 0.159931 0.965135 -0.207211
vn 0.075977 0.971469 -0.224666
vn 0.274671 0.933111 -0.232079
vn 0.256860 0.914262 -0.313287
vn 0.158887 0.933753 -0.320718
vn 0.067394 0.935529 -0.346763
vn 0.022335 0.969029 -0.245936
vn 0.001918 0.930368 -0.366621
vn -0.082284 0.885227 0.457824
vn -0.014687 0.881268 0.472389
vn -0.161102 0.896813 0.412035
vn -0.185511 0.843808 0.503561
vn -0.098578 0.835316 0.540861
vn -0.019189 0.833913 0.551563
vn 0.048365 0.880866 0.470888
vn 0.121312 0.876687 0.465515
vn 0.057111 0.834054 0.548718
vn 0.144207 0.831435 0.536582
vn -0.255435 0.916471 0.307950
vn -0.337804 0.925621 0.170627
vn -0.424081 0.873626 0.238607
vn -0.300732 0.861953 0.408162
vn -0.377997 0.924150 0.055360
vn -0.393906 0.917654 -0.052441
vn -0.494115 0.867473 -0.057813
vn -0.482404 0.871998 0.083101
vn 0.194159 0.864098 0.464367
vn 0.228926 0.851461 0.471813
vn 0.222248 0.826614 0.517025
vn 0.256704 0.822906 0.506881
vn 0.239593 0.844543 0.478898
vn 0.258383 0.844049 0.469914
vn 0.269359 0.818237 0.507871
vn 0.283899 0.815224 0.504789
vn 0.282659 0.854423 0.435965
vn 0.311014 0.874263 0.372739
vn 0.303374 0.820071 0.485230
vn 0.340093 0.837114 0.428460
vn 0.347990 0.899970 0.262597
vn 0.384358 0.915197 0.121173
vn 0.403890 0.863516 0.302016
vn 0.471109 0.874186 0.117713
vn -0.388361 0.904865 -0.174342
vn -0.352215 0.893421 -0.278824
vn -0.412841 0.855384 -0.312858
vn -0.468877 0.859672 -0.202778
vn -0.298137 0.888970 -0.347630
vn -0.228259 0.884445 -0.407007
vn -0.259911 0.852228 -0.454041
vn -0.343258 0.855077 -0.388610
vn 0.403153 0.915026 -0.013974
vn 0.395622 0.903415 -0.165305
vn 0.503174 0.862541 -0.053274
vn 0.488381 0.843471 -0.223699
vn 0.359233 0.887880 -0.287439
vn 0.305329 0.884782 -0.352045
vn 0.436398 0.832632 -0.341000
vn 0.377527 0.837646 -0.394743
vn -0.150265 0.877947 -0.454565
vn -0.102092 0.873508 -0.475984
vn -0.114320 0.842925 -0.525746
vn -0.170847 0.845696 -0.505578
vn -0.074063 0.872989 -0.482084
vn -0.049063 0.876150 -0.479535
vn -0.050033 0.841672 -0.537666
vn -0.082558 0.843062 -0.531442
vn -0.004690 0.883896 -0.467660
vn 0.085806 0.893745 -0.440292
vn 0.127356 0.847735 -0.514904
vn 0.008999 0.841592 -0.540039
vn 0.207355 0.894448 -0.396191
vn 0.279482 0.848332 -0.449692
vn -0.022403 0.744765 0.666951
vn -0.117637 0.752342 0.648184
vn -0.213122 0.766730 0.605561
vn 0.177923 0.733820 0.655630
vn 0.074229 0.739330 0.669239
vn -0.342139 0.794328 0.501981
vn -0.491991 0.816358 0.302497
vn -0.567424 0.815584 0.113367
vn -0.585444 0.808736 -0.056585
vn 0.312136 0.729362 0.608771
vn 0.266228 0.730381 0.629020
vn 0.342065 0.725487 0.597211
vn 0.333396 0.727421 0.599755
vn 0.407477 0.752131 0.517939
vn 0.357710 0.729427 0.583078
vn 0.565252 0.816829 0.115243
vn 0.494434 0.793956 0.353792
vn -0.560290 0.795439 -0.230982
vn -0.502342 0.782259 -0.368407
vn -0.425185 0.771461 -0.473355
vn -0.325088 0.759911 -0.562897
vn 0.551306 0.793477 -0.257793
vn 0.580382 0.810130 -0.082747
vn 0.445801 0.780210 -0.438787
vn 0.498266 0.780717 -0.377111
vn -0.216673 0.750061 -0.624869
vn -0.145599 0.748384 -0.647088
vn -0.100310 0.748836 -0.655120
vn -0.049835 0.748260 -0.661531
vn 0.030647 0.752679 -0.657674
vn 0.174351 0.769062 -0.614935
vn 0.348338 0.781942 -0.516941
vn -0.138735 0.719637 0.680349
vn -0.036082 0.703331 0.709946
vn -0.237356 0.741159 0.627970
vn 0.072987 0.690839 0.719315
vn 0.187841 0.682572 0.706265
vn -0.374410 0.775888 0.507754
vn -0.515845 0.798748 0.309687
vn -0.590737 0.797015 0.125689
vn -0.613310 0.788544 -0.045266
vn 0.285560 0.678480 0.676847
vn 0.337366 0.678929 0.652104
vn 0.361151 0.680408 0.637664
vn 0.364753 0.679413 0.636673
vn 0.385863 0.688965 0.613544
vn 0.447662 0.721646 0.528039
vn 0.538795 0.771262 0.338902
vn 0.597078 0.795210 0.105544
vn -0.594774 0.771552 -0.225723
vn -0.541688 0.751681 -0.376232
vn -0.464845 0.733401 -0.496026
vn -0.360934 0.716021 -0.597529
vn 0.604308 0.792082 -0.086124
vn 0.572401 0.778894 -0.256284
vn 0.519837 0.763894 -0.382409
vn 0.470108 0.758307 -0.451630
vn -0.242955 0.700152 -0.671387
vn -0.161227 0.693193 -0.702488
vn -0.106591 0.693593 -0.712437
vn -0.044268 0.698339 -0.714397
vn 0.051598 0.712721 -0.699548
vn 0.207751 0.738600 -0.641335
vn 0.377884 0.755627 -0.535007
s 1
g Isla3
usemtl initialShadingGroup
f 1/1/1 106/2/2 178/3/3 109/4/4
f 106/2/2 14/5/5 107/6/6 178/3/3
f 178/3/3 107/6/6 22/7/7 108/8/8
f 109/4/4 178/3/3 108/8/8 17/9/9
f 14/5/5 110/10/10 179/11/11 107/6/6
f 110/10/10 2/12/12 111/13/13 179/11/11
f 179/11/11 111/13/13 15/14/14 112/15/15
f 107/6/6 179/11/11 112/15/15 22/7/7
f 22/7/7 112/15/15 180/16/16 115/17/17
f 112/15/15 15/14/14 113/18/18 180/16/16
f 180/16/16 113/18/18 5/19/19 114/20/20
f 115/17/17 180/16/16 114/20/20 16/21/21
f 17/9/9 108/8/8 181/22/22 117/23/23
f 108/8/8 22/7/7 115/17/17 181/22/22
f 181/22/22 115/17/17 16/21/21 116/24/24
f 117/23/23 181/22/22 116/24/24 4/25/25
f 2/12/12 118/26/26 182/27/27 111/13/13
f 118/26/26 18/28/28 119/29/29 182/27/27
f 182/27/27 119/29/29 23/30/30 120/31/31
f 111/13/13 182/27/27 120/31/31 15/14/14
f 18/28/28 121/32/32 183/33/33 119/29/29
f 121/32/32 3/34/34 122/35/35 183/33/33
f 183/33/33 122/35/35 19/36/36 123/37/37
f 119/29/29 183/33/33 123/37/37 23/30/30
f 23/30/30 123/37/37 184/38/38 126/39/39
f 123/37/37 19/36/36 124/40/40 184/38/38
f 184/38/38 124/40/40 6/41/41 125/42/42
f 126/39/39 184/38/38 125/42/42 20/43/43
f 15/14/14 120/31/31 185/44/44 113/18/18
f 120/31/31 23/30/30 126/39/39 185/44/44
f 185/44/44 126/39/39 20/43/43 127/45/45
f 113/18/18 185/44/44 127/45/45 5/19/19
f 4/25/25 116/24/24 186/46/46 130/47/47
f 116/24/24 16/21/21 128/48/48 186/46/46
f 186/46/46 128/48/48 24/49/49 129/50/50
f 130/47/47 186/46/46 129/50/50 11/51/51
f 16/21/21 114/20/20 187/52/52 128/48/48
f 114/20/20 5/19/19 131/53/53 187/52/52
f 187/52/52 131/53/53 21/54/54 132/55/55
f 128/48/48 187/52/52 132/55/55 24/49/49
f 24/49/49 132/55/55 188/56/56 135/57/57
f 132/55/55 21/54/54 133/58/58 188/56/56
f 188/56/56 133/58/58 8/59/59 134/60/60
f 135/57/57 188/56/56 134/60/60 10/61/61
f 11/51/51 129/50/50 189/62/62 137/63/63
f 129/50/50 24/49/49 135/57/57 189/62/62
f 189/62/62 135/57/57 10/61/61 136/64/64
f 137/63/63 189/62/62 136/64/64 7/65/65
f 5/19/19 127/45/45 190/66/66 131/53/53
f 127/45/45 20/43/43 138/67/67 190/66/66
f 190/66/66 138/67/67 25/68/68 139/69/69
f 131/53/53 190/66/66 139/69/69 21/54/54
f 20/43/43 125/42/42 191/70/70 138/67/67
f 125/42/42 6/41/41 140/71/71 191/70/70
f 191/70/70 140/71/71 12/72/72 141/73/73
f 138/67/67 191/70/70 141/73/73 25/68/68
f 25/68/68 141/73/73 192/74/74 144/75/75
f 141/73/73 12/72/72 142/76/76 192/74/74
f 192/74/74 142/76/76 9/77/77 143/78/78
f 144/75/75 192/74/74 143/78/78 13/79/79
f 21/54/54 139/69/69 193/80/80 133/58/58
f 139/69/69 25/68/68 144/75/75 193/80/80
f 193/80/80 144/75/75 13/79/79 145/81/81
f 133/58/58 193/80/80 145/81/81 8/59/59
f 14/5/5 106/2/2 194/82/82 148/83/83
f 106/2/2 1/1/1 146/225/84 194/82/82
f 194/82/82 146/225/84 26/221/85 147/86/86
f 148/83/83 194/82/82 147/86/86 27/87/87
f 2/12/12 110/10/10 195/88/88 150/89/89
f 110/10/10 14/5/5 148/83/83 195/88/88
f 195/88/88 148/83/83 27/87/87 149/90/90
f 150/89/89 195/88/88 149/90/90 28/91/91
f 1/1/1 109/4/4 196/92/92 146/84/84
f 109/4/4 17/9/9 151/93/93 196/92/92
f 196/92/92 151/93/93 29/94/94 152/95/95
f 146/84/84 196/92/92 152/95/95 26/85/85
f 17/9/9 117/23/23 197/96/96 151/93/93
f 117/23/23 4/25/25 153/97/97 197/96/96
f 197/96/96 153/97/97 30/98/98 154/99/99
f 151/93/93 197/96/96 154/99/99 29/94/94
f 18/28/28 118/26/26 198/100/100 156/101/101
f 118/26/26 2/12/12 150/89/89 198/100/100
f 198/100/100 150/89/89 28/91/91 155/102/102
f 156/101/101 198/100/100 155/102/102 31/103/103
f 3/34/34 121/32/32 199/104/104 158/224/105
f 121/32/32 18/28/28 156/101/101 199/104/104
f 199/104/104 156/101/101 31/103/103 157/106/106
f 158/224/105 199/104/104 157/106/106 32/107/107
f 19/36/36 122/35/35 200/108/108 160/109/109
f 122/35/35 3/34/34 158/105/105 200/108/108
f 200/108/108 158/105/105 32/220/107 159/110/110
f 160/109/109 200/108/108 159/110/110 33/111/111
f 6/41/41 124/40/40 201/112/112 162/113/113
f 124/40/40 19/36/36 160/109/109 201/112/112
f 201/112/112 160/109/109 33/111/111 161/114/114
f 162/113/113 201/112/112 161/114/114 34/115/115
f 4/25/25 130/47/47 202/116/116 153/97/97
f 130/47/47 11/51/51 163/117/117 202/116/116
f 202/116/116 163/117/117 35/118/118 164/119/119
f 153/97/97 202/116/116 164/119/119 30/98/98
f 11/51/51 137/63/63 203/120/120 163/117/117
f 137/63/63 7/65/65 165/223/121 203/120/120
f 203/120/120 165/223/121 36/219/122 166/123/123
f 163/117/117 203/120/120 166/123/123 35/118/118
f 12/72/72 140/71/71 204/124/124 168/125/125
f 140/71/71 6/41/41 162/113/113 204/124/124
f 204/124/124 162/113/113 34/115/115 167/126/126
f 168/125/125 204/124/124 167/126/126 37/127/127
f 9/77/77 142/76/76 205/128/128 170/222/129
f 142/76/76 12/72/72 168/125/125 205/128/128
f 205/128/128 168/125/125 37/127/127 169/130/130
f 170/222/129 205/128/128 169/130/130 38/131/131
f 7/65/65 136/64/64 206/132/132 165/121/121
f 136/64/64 10/61/61 171/133/133 206/132/132
f 206/132/132 171/133/133 39/134/134 172/135/135
f 165/121/121 206/132/132 172/135/135 36/122/122
f 10/61/61 134/60/60 207/136/136 171/133/133
f 134/60/60 8/59/59 173/137/137 207/136/136
f 207/136/136 173/137/137 40/138/138 174/139/139
f 171/133/133 207/136/136 174/139/139 39/134/134
f 8/59/59 145/81/81 208/140/140 173/137/137
f 145/81/81 13/79/79 175/141/141 208/140/140
f 208/140/140 175/141/141 41/142/142 176/143/143
f 173/137/137 208/140/140 176/143/143 40/138/138
f 13/79/79 143/78/78 209/144/144 175/141/141
f 143/78/78 9/77/77 170/129/129 209/144/144
f 209/144/144 170/129/129 38/218/131 177/145/145
f 175/141/141 209/144/144 177/145/145 41/142/142
f 43/146/146 27/87/87 147/86/86 74/147/147
f 147/86/86 26/221/85 42/216/148 74/147/147
f 44/149/149 28/91/91 149/90/90 75/150/150
f 149/90/90 27/87/87 43/146/146 75/150/150
f 26/85/85 152/95/95 76/151/151 42/148/148
f 152/95/95 29/94/94 45/152/152 76/151/151
f 29/94/94 154/99/99 77/153/153 45/152/152
f 154/99/99 30/98/98 46/154/154 77/153/153
f 47/155/155 31/103/103 155/102/102 78/156/156
f 155/102/102 28/91/91 44/149/149 78/156/156
f 48/157/157 32/107/107 157/106/106 79/158/158
f 157/106/106 31/103/103 47/155/155 79/158/158
f 49/159/159 33/111/111 159/110/110 80/160/160
f 159/110/110 32/220/107 48/214/157 80/160/160
f 50/161/161 34/115/115 161/114/114 81/162/162
f 161/114/114 33/111/111 49/159/159 81/162/162
f 30/98/98 164/119/119 82/163/163 46/154/154
f 164/119/119 35/118/118 51/164/164 82/163/163
f 35/118/118 166/123/123 83/165/165 51/164/164
f 166/123/123 36/219/122 52/212/166 83/165/165
f 53/167/167 37/127/127 167/126/126 84/168/168
f 167/126/126 34/115/115 50/161/161 84/168/168
f 54/169/169 38/131/131 169/130/130 85/170/170
f 169/130/130 37/127/127 53/167/167 85/170/170
f 36/122/122 172/135/135 86/171/171 52/166/166
f 172/135/135 39/134/134 55/172/172 86/171/171
f 39/134/134 174/139/139 87/173/173 55/172/172
f 174/139/139 40/138/138 56/174/174 87/173/173
f 40/138/138 176/143/143 88/175/175 56/174/174
f 176/143/143 41/142/142 57/176/176 88/175/175
f 41/142/142 177/145/145 89/177/177 57/176/176
f 177/145/145 38/218/131 54/210/169 89/177/177
f 43/146/146 74/147/147 90/178/178 59/179/179
f 74/147/147 42/216/148 58/217/180 90/178/178
f 44/149/149 75/150/150 91/181/181 60/182/182
f 75/150/150 43/146/146 59/179/179 91/181/181
f 42/148/148 76/151/151 92/183/183 58/180/180
f 76/151/151 45/152/152 61/184/184 92/183/183
f 45/152/152 77/153/153 93/185/185 61/184/184
f 77/153/153 46/154/154 62/186/186 93/185/185
f 47/155/155 78/156/156 94/187/187 63/188/188
f 78/156/156 44/149/149 60/182/182 94/187/187
f 48/157/157 79/158/158 95/189/189 64/190/190
f 79/158/158 47/155/155 63/188/188 95/189/189
f 49/159/159 80/160/160 96/191/191 65/192/192
f 80/160/160 48/214/157 64/215/190 96/191/191
f 50/161/161 81/162/162 97/193/193 66/194/194
f 81/162/162 49/159/159 65/192/192 97/193/193
f 46/154/154 82/163/163 98/195/195 62/186/186
f 82/163/163 51/164/164 67/196/196 98/195/195
f 51/164/164 83/165/165 99/197/197 67/196/196
f 83/165/165 52/212/166 68/213/198 99/197/197
f 53/167/167 84/168/168 100/199/199 69/200/200
f 84/168/168 50/161/161 66/194/194 100/199/199
f 54/169/169 85/170/170 101/201/201 70/202/202
f 85/170/170 53/167/167 69/200/200 101/201/201
f 52/166/166 86/171/171 102/203/203 68/198/198
f 86/171/171 55/172/172 71/204/204 102/203/203
f 55/172/172 87/173/173 103/205/205 71/204/204
f 87/173/173 56/174/174 72/206/206 103/205/205
f 56/174/174 88/175/175 104/207/207 72/206/206
f 88/175/175 57/176/176 73/208/208 104/207/207
f 57/176/176 89/177/177 105/209/209 73/208/208
f 89/177/177 54/210/169 70/211/202 105/209/209
